<svg viewBox="0 0 16 16" xmlns="http://www.w3.org/2000/svg">
    <mask id="tisco_bank_mask0" style="mask-type:luminance" maskUnits="userSpaceOnUse" x="0" y="0" width="16"
        height="16">
        <path
            d="M5.91507 10.1545C4.24493 8.48438 3.9666 5.84 5.28879 3.82192C7.58523 2.29096 10.7167 2.91726 12.2477 5.28329C13.3611 6.95343 13.3611 9.11069 12.2477 10.7808C10.2296 12.103 7.65479 11.8247 5.91507 10.1545ZM0 7.99726C0 12.451 3.61863 16 8.00274 16C12.0389 16 15.4488 13.0077 15.9359 8.97151C15.9359 8.97151 15.9359 8.4148 15.9359 7.99726C15.9359 7.57973 15.9359 7.02302 15.9359 7.02302C15.3792 2.63891 11.4126 -0.4926 7.02852 0.0641123C2.99235 0.551235 0 3.9611 0 7.99726Z"
            fill="white" />
    </mask>
    <g mask="url(#tisco_bank_mask0)">
        <path d="M16.0748 0.0643311H0.0692749V16.0698H16.0748V0.0643311Z" fill="url(#tisco_bank_paint0_radial)" />
    </g>
    <mask id="tisco_bank_mask1" style="mask-type:luminance" maskUnits="userSpaceOnUse" x="5" y="1" width="10"
        height="10">
        <path
            d="M5.91497 3.12597C5.7062 3.33474 5.49746 3.6131 5.2887 3.89145C7.58513 2.3605 10.7166 2.9868 12.2476 5.35282C13.361 7.02296 13.361 9.18022 12.2476 10.8504C14.544 9.3194 15.1703 6.18789 13.6394 3.89145C12.1084 1.59502 8.97691 0.968715 6.68048 2.49967C6.40212 2.70844 6.12374 2.91721 5.91497 3.12597Z"
            fill="white" />
    </mask>
    <g mask="url(#tisco_bank_mask1)">
        <path d="M10.1751 -3.22177L0.727417 6.22595L10.1751 15.6737L19.6229 6.22594L10.1751 -3.22177Z"
            fill="url(#tisco_bank_paint1_linear)" />
    </g>
    <defs>
        <radialGradient id="tisco_bank_paint0_radial" cx="0" cy="0" r="1" gradientUnits="userSpaceOnUse"
            gradientTransform="translate(-43.3543 -112.538) scale(16.0055 16.2142)">
            <stop stop-color="#37A7DF" />
            <stop offset="0.2" stop-color="#36A3DB" />
            <stop offset="0.4" stop-color="#3497D1" />
            <stop offset="0.6" stop-color="#3085C0" />
            <stop offset="0.8" stop-color="#2C6AA8" />
            <stop offset="1" stop-color="#243E80" />
        </radialGradient>
        <linearGradient id="tisco_bank_paint1_linear" x1="-79.5486" y1="-179.668" x2="-79.5486" y2="-179.668"
            gradientUnits="userSpaceOnUse">
            <stop stop-color="#AD1A1E" />
            <stop offset="0.2" stop-color="#C41C22" />
            <stop offset="0.3" stop-color="#D51D24" />
            <stop offset="0.4" stop-color="#DF1E25" />
            <stop offset="0.5" stop-color="#E31F26" />
            <stop offset="1" stop-color="#E31F26" />
        </linearGradient>
    </defs>
</svg>