<svg viewBox="0 0 16 16" xmlns="http://www.w3.org/2000/svg"><mask id="prefix__a" style="mask-type:luminance" maskUnits="userSpaceOnUse" x="0" y="0" width="16" height="16"><path d="M5.915 10.155c-1.67-1.67-1.948-4.315-.626-6.333a4.989 4.989 0 016.959 1.461 4.942 4.942 0 010 5.498c-2.018 1.322-4.593 1.044-6.333-.627zM0 7.997C0 12.451 3.619 16 8.003 16a7.975 7.975 0 007.933-7.028v-.975-.974C15.379 2.639 11.413-.493 7.029.064A7.975 7.975 0 000 7.997z" fill="#fff"/></mask><g mask="url(#prefix__a)"><path d="M16.075.064H.069V16.07h16.006V.064z" fill="url(#prefix__tisco_bank_paint0_radial)"/></g><mask id="prefix__b" style="mask-type:luminance" maskUnits="userSpaceOnUse" x="5" y="1" width="10" height="10"><path d="M5.915 3.126c-.209.209-.418.487-.626.765a4.989 4.989 0 016.959 1.462 4.942 4.942 0 010 5.497 5.033 5.033 0 001.391-6.959A5.033 5.033 0 006.68 2.5c-.278.208-.556.417-.765.626z" fill="#fff"/></mask><g mask="url(#prefix__b)"><path d="M10.175-3.222L.727 6.226l9.448 9.448 9.448-9.448-9.448-9.448z" fill="url(#prefix__tisco_bank_paint1_linear)"/></g><defs><radialGradient id="prefix__tisco_bank_paint0_radial" cx="0" cy="0" r="1" gradientUnits="userSpaceOnUse" gradientTransform="matrix(16.0055 0 0 16.2142 -43.354 -112.538)"><stop stop-color="#37A7DF"/><stop offset=".2" stop-color="#36A3DB"/><stop offset=".4" stop-color="#3497D1"/><stop offset=".6" stop-color="#3085C0"/><stop offset=".8" stop-color="#2C6AA8"/><stop offset="1" stop-color="#243E80"/></radialGradient><linearGradient id="prefix__tisco_bank_paint1_linear" x1="-79.549" y1="-179.668" x2="-79.549" y2="-179.668" gradientUnits="userSpaceOnUse"><stop stop-color="#AD1A1E"/><stop offset=".2" stop-color="#C41C22"/><stop offset=".3" stop-color="#D51D24"/><stop offset=".4" stop-color="#DF1E25"/><stop offset=".5" stop-color="#E31F26"/><stop offset="1" stop-color="#E31F26"/></linearGradient></defs></svg>