<svg width="16" height="16" viewBox="0 0 16 16" fill="none" xmlns="http://www.w3.org/2000/svg">
    <path
        d="M1.09835e-10 7.64592C0.00822633 7.63422 0.0221604 7.62977 0.0238564 7.62248C0.0921245 7.32889 0.159521 7.03511 0.226513 6.74123C0.275897 6.52459 0.324198 6.3077 0.373645 6.09108C0.444641 5.78006 0.516225 5.46917 0.587696 5.15825C0.589114 5.15208 0.592224 5.1463 0.595833 5.13703C0.88587 5.13703 1.1762 5.13703 1.47842 5.13703C1.51009 5.37307 1.54132 5.6099 1.57378 5.84656C1.60604 6.08175 1.63954 6.31676 1.68596 6.56004C1.70112 6.53425 1.71915 6.5097 1.73102 6.48247C1.92127 6.04596 2.11026 5.6089 2.30206 5.17307C2.31029 5.15436 2.34278 5.13526 2.36415 5.13505C2.63071 5.13248 2.89731 5.13452 3.16387 5.13233C3.21428 5.13192 3.22946 5.14829 3.22736 5.19734C3.21678 5.44489 3.20957 5.69259 3.19928 5.94016C3.19222 6.1101 3.18166 6.27989 3.17339 6.44979C3.15963 6.73235 3.14725 7.01498 3.13273 7.29749C3.12517 7.44459 3.11428 7.59152 3.10467 7.74209C2.88579 7.74209 2.67397 7.74209 2.45339 7.74209C2.45339 7.68288 2.45032 7.62779 2.45391 7.57314C2.47025 7.3244 2.48867 7.07579 2.50585 6.82711C2.51087 6.75443 2.51461 6.68167 2.51837 6.60891C2.52783 6.42575 2.53705 6.24258 2.54596 6.05939C2.54635 6.05139 2.54277 6.0432 2.52751 6.03061C2.49438 6.10471 2.46022 6.17836 2.4283 6.25297C2.30346 6.54477 2.17929 6.83685 2.05497 7.12888C1.97467 7.31751 1.89317 7.50565 1.8156 7.69539C1.80079 7.73161 1.7856 7.74803 1.74517 7.74742C1.60524 7.74532 1.46524 7.74494 1.32533 7.74749C1.27311 7.74844 1.25799 7.72651 1.25238 7.67769C1.22901 7.47445 1.20091 7.27176 1.17587 7.06871C1.1562 6.90917 1.13962 6.74925 1.11955 6.58976C1.10005 6.43482 1.07764 6.28025 1.05702 6.12545C1.05222 6.08942 1.04946 6.05312 1.03116 6.01679C0.98544 6.23208 0.940095 6.44744 0.8939 6.66263C0.834798 6.93794 0.77533 7.21317 0.715289 7.48827C0.700753 7.55488 0.679862 7.62026 0.668453 7.68732C0.660335 7.73504 0.637391 7.74778 0.592309 7.74737C0.399052 7.74565 0.20577 7.74665 0.00624873 7.74666C-2.66234e-08 7.71505 -2.65568e-08 7.68345 1.09835e-10 7.64592Z"
        fill="white" />
    <path
        d="M16 5.10007C15.9912 5.11494 15.977 5.12174 15.9742 5.13171C15.8403 5.61186 15.6172 6.04652 15.3217 6.44747C15.1256 6.71356 14.8981 6.95017 14.6569 7.1724C14.3603 7.44572 14.0359 7.68539 13.6897 7.89398C13.5317 7.98917 13.3734 8.08384 13.2152 8.17854C13.2079 8.18285 13.1995 8.18511 13.1874 8.19006C13.1732 8.17094 13.1597 8.15273 13.1448 8.13273C13.2451 8.04925 13.3439 7.9674 13.4422 7.88507C13.5261 7.81485 13.6146 7.74918 13.6922 7.67254C13.8655 7.50135 14.04 7.33052 14.2016 7.14851C14.3938 6.93202 14.5596 6.69474 14.7099 6.44645C14.8612 6.19636 14.9758 5.9298 15.0777 5.65722C15.1049 5.58454 15.1197 5.50729 15.1462 5.4343C15.1549 5.41026 15.1785 5.38525 15.2018 5.37384C15.4419 5.25609 15.6833 5.1411 15.9242 5.02489C15.9315 5.02136 15.9364 5.01282 15.9379 5.00331C15.9547 5 15.9761 5 16 5C16 5.03114 16 5.0623 16 5.10007Z"
        fill="white" />
    <path
        d="M2.97756 9.01884C3.0724 8.80681 3.1662 8.59986 3.25685 8.39155C3.27886 8.34097 3.30565 8.31762 3.36519 8.31851C3.61178 8.32219 3.85847 8.32189 4.10506 8.31872C4.16398 8.31796 4.17915 8.34319 4.18741 8.3944C4.22807 8.6463 4.27189 8.89769 4.3143 9.14931C4.3248 9.21165 4.3342 9.27418 4.34613 9.34934C4.27694 9.33744 4.21461 9.32977 4.15377 9.31568C3.98018 9.27549 3.8068 9.23417 3.63414 9.19015C3.56764 9.1732 3.52918 9.21547 3.49018 9.25149C3.37622 9.35673 3.26599 9.46601 3.15343 9.57278C3.12001 9.60449 3.0837 9.63315 3.03087 9.67853C3.10666 9.68964 3.16446 9.69995 3.22269 9.70631C3.38906 9.72447 3.55549 9.74231 3.72213 9.75778C3.84737 9.76941 3.97282 9.78008 4.09842 9.78605C4.33266 9.7972 4.56701 9.80889 4.80143 9.81269C5.26073 9.82011 5.72012 9.82546 6.17947 9.82514C6.38049 9.825 6.58176 9.81268 6.78245 9.79895C7.04637 9.78089 7.30995 9.75742 7.57344 9.73359C7.80166 9.71295 8.03014 9.69327 8.25741 9.66451C8.48648 9.63552 8.715 9.60037 8.94232 9.55982C9.29525 9.49686 9.64851 9.4342 9.99883 9.35845C10.5223 9.24525 11.0394 9.10526 11.5424 8.92027C11.8648 8.80167 12.1816 8.66735 12.499 8.53545C12.6233 8.48382 12.7422 8.41941 12.8638 8.36122C12.8793 8.35379 12.896 8.34879 12.9254 8.33762C12.895 8.55782 12.8659 8.76808 12.8361 8.98415C12.6618 8.98415 12.4915 8.98415 12.3106 8.98415C12.2955 9.08329 12.2807 9.17785 12.2668 9.27255C12.2368 9.47716 12.2068 9.68178 12.1776 9.8865C12.1534 10.0564 12.1302 10.2266 12.1066 10.3966C12.084 10.5601 12.0625 10.7238 12.037 10.8868C12.0343 10.9041 12.0076 10.9307 11.9918 10.9309C11.7633 10.9338 11.5346 10.9329 11.2859 10.9329C11.3719 10.3267 11.4569 9.72777 11.5427 9.12361C11.3546 9.18768 11.1722 9.25035 10.9893 9.31191C10.9016 9.34145 10.8145 9.37464 10.7247 9.39537C10.6582 9.41072 10.6464 9.45169 10.6394 9.50755C10.6236 9.63387 10.6042 9.75972 10.5852 9.89298C10.2738 9.89298 9.96826 9.89298 9.65846 9.89298C9.63612 10.0504 9.61484 10.2003 9.59237 10.3586C9.92858 10.3586 10.2585 10.3586 10.607 10.3586C10.5806 10.5584 10.5554 10.7484 10.5298 10.9423C9.96181 10.9423 9.39861 10.9423 8.82871 10.9423C8.88261 10.563 8.93594 10.1876 8.99168 9.79527C8.88539 9.81121 8.79196 9.82522 8.69584 9.83963C8.7448 10.0782 8.71455 10.2958 8.61427 10.506C8.47792 10.7919 8.23884 10.9381 7.94161 10.9987C7.54498 11.0795 7.19249 10.96 6.86654 10.7403C6.80825 10.701 6.75419 10.6553 6.69893 10.6116C6.68713 10.6023 6.67858 10.5889 6.66659 10.5751C6.78112 10.3886 6.89492 10.2033 7.01165 10.0132C7.07687 10.0709 7.13608 10.1224 7.19438 10.1749C7.32627 10.2939 7.4804 10.368 7.6566 10.3826C7.7389 10.3894 7.82455 10.3713 7.89236 10.3138C8.01865 10.2068 7.95844 10.0179 7.8384 9.94681C7.79872 9.9233 7.73149 9.94361 7.6772 9.94805C7.60044 9.95433 7.52419 9.96783 7.44737 9.97231C7.25759 9.98336 7.06757 9.99029 6.87774 10.0005C6.81614 10.0038 6.75481 10.0121 6.68817 10.0186C6.6813 10.0867 6.67654 10.1563 6.66697 10.2253C6.61505 10.5992 6.34393 10.8964 5.97696 10.9866C5.53001 11.0966 5.13644 10.9742 4.77421 10.7136C4.74031 10.6892 4.71369 10.6532 4.67776 10.6334C4.61657 10.5996 4.62974 10.5658 4.66004 10.518C4.75333 10.371 4.84282 10.2216 4.93353 10.073C4.94012 10.0622 4.94466 10.0501 4.95656 10.0253C4.79032 10.0253 4.63315 10.0253 4.46392 10.0253C4.51463 10.3273 4.56566 10.6312 4.61779 10.9417C4.37695 10.9417 4.14716 10.9417 3.91104 10.9417C3.88159 10.7278 3.85226 10.515 3.82229 10.2974C3.79778 10.296 3.77618 10.2936 3.75458 10.2936C3.56127 10.2933 3.36794 10.295 3.17467 10.2922C3.12769 10.2916 3.10216 10.3064 3.08489 10.3495C3.01604 10.5213 2.9438 10.6918 2.87532 10.8638C2.85158 10.9234 2.82069 10.9518 2.74882 10.949C2.56911 10.942 2.38896 10.9468 2.20898 10.9466C2.18552 10.9465 2.16207 10.9444 2.12561 10.9425C2.15965 10.8624 2.18828 10.7917 2.21942 10.7221C2.33933 10.4543 2.46093 10.1873 2.58022 9.9192C2.71289 9.62103 2.84374 9.32205 2.97756 9.01884ZM5.10594 10.0394C5.071 10.0348 5.03605 10.0303 5.00111 10.0257C4.99925 10.0314 4.99739 10.0372 4.99553 10.043C5.11652 10.1572 5.23816 10.2701 5.39688 10.3344C5.52502 10.3863 5.65385 10.4108 5.78831 10.3585C5.91441 10.3095 5.93537 10.212 5.91518 10.101C5.90745 10.0585 5.88048 10.038 5.83012 10.0387C5.59284 10.0417 5.35549 10.0399 5.10594 10.0394Z"
        fill="white" />
    <path
        d="M5.57336 5.13334C5.7289 5.13334 5.87838 5.1249 6.02651 5.13537C6.23811 5.15032 6.44145 5.19415 6.59617 5.36133C6.68263 5.45476 6.73051 5.56534 6.7446 5.687C6.76816 5.8905 6.7458 6.09101 6.66727 6.28232C6.6071 6.42891 6.50142 6.53125 6.35296 6.58582C6.27935 6.61288 6.20264 6.63148 6.11811 6.65664C6.2928 7.01787 6.46601 7.37605 6.64272 7.74146C6.61389 7.7437 6.59482 7.74643 6.57574 7.74647C6.38242 7.74678 6.18909 7.74539 5.9958 7.74758C5.94962 7.7481 5.92345 7.73453 5.90487 7.69043C5.75421 7.33286 5.60157 6.97613 5.44914 6.61932C5.4371 6.59113 5.42208 6.56421 5.40011 6.51989C5.33923 6.93665 5.28069 7.33745 5.22157 7.74217C4.99757 7.74217 4.77653 7.74217 4.55035 7.74217C4.67449 6.87256 4.79812 6.00652 4.92276 5.13334C5.14114 5.13334 5.35391 5.13334 5.57336 5.13334ZM5.45345 6.30556C5.51992 6.30591 5.58705 6.31252 5.65273 6.30549C5.87375 6.28182 5.99472 6.21503 6.03289 6.00821C6.0671 5.82288 6.02232 5.70296 5.82421 5.64872C5.73084 5.62315 5.62905 5.6283 5.52638 5.61912C5.51599 5.67969 5.50702 5.72658 5.50001 5.77377C5.4755 5.9387 5.45132 6.10368 5.42839 6.26883C5.42691 6.27943 5.43706 6.29164 5.45345 6.30556Z"
        fill="white" />
    <path
        d="M6.94231 7.1564C7.10702 6.78729 7.26883 6.42244 7.43137 6.05791C7.54723 5.79807 7.67349 5.54232 7.77639 5.27747C7.82534 5.1515 7.8932 5.12409 8.01652 5.13034C8.22701 5.14102 8.43842 5.13329 8.64945 5.13329C8.67357 5.13329 8.69769 5.13329 8.72834 5.13329C8.87551 6.00457 9.02187 6.87109 9.16903 7.74232C8.93606 7.74232 8.70621 7.74232 8.46695 7.74232C8.44729 7.57296 8.42783 7.40532 8.40771 7.23199C8.38862 7.23022 8.36945 7.22691 8.35027 7.22688C8.12148 7.22652 7.89267 7.22798 7.6639 7.22544C7.62114 7.22496 7.60182 7.23946 7.58664 7.27722C7.53486 7.40604 7.47688 7.53243 7.42762 7.66216C7.40385 7.72474 7.37252 7.75042 7.30194 7.74853C7.10014 7.7431 6.8981 7.74662 6.68201 7.74662C6.77047 7.54553 6.8551 7.35316 6.94231 7.1564ZM8.22443 5.90491C8.21624 5.86639 8.20805 5.82787 8.19986 5.78935C8.19299 5.78883 8.18612 5.78831 8.17925 5.7878C8.05457 6.07718 7.92989 6.36657 7.80307 6.66094C7.98057 6.66094 8.14752 6.66094 8.32324 6.66094C8.31063 6.56105 8.29923 6.4676 8.28697 6.37426C8.26691 6.22167 8.24628 6.06916 8.22443 5.90491Z"
        fill="white" />
    <path
        d="M10.4133 6.70663C10.3267 6.70668 10.2465 6.70355 10.1669 6.70895C10.1462 6.71035 10.1133 6.73597 10.11 6.7547C10.0878 6.88026 10.0719 7.00694 10.0546 7.13336C10.0532 7.14356 10.0571 7.15448 10.0596 7.17304C10.3934 7.17304 10.7255 7.17304 11.0682 7.17304C11.0573 7.26434 11.0485 7.34647 11.0375 7.42831C11.026 7.51327 11.01 7.59768 11.0008 7.68285C10.9957 7.7297 10.9774 7.74743 10.9295 7.74732C10.3986 7.74615 9.8676 7.74663 9.33666 7.74634C9.31959 7.74633 9.30252 7.74284 9.28345 7.74076C9.40768 6.87215 9.53129 6.00795 9.65561 5.13879C10.2106 5.13879 10.7626 5.13879 11.327 5.13879C11.3012 5.32482 11.2755 5.51075 11.2486 5.70489C10.9192 5.70489 10.5917 5.70489 10.26 5.70489C10.2379 5.86206 10.217 6.01135 10.1945 6.17208C10.5081 6.17208 10.8109 6.17208 11.1175 6.17208C11.0948 6.34143 11.0734 6.50023 11.0522 6.65906C11.0464 6.70317 11.0165 6.70722 10.9798 6.70704C10.7932 6.70609 10.6066 6.70662 10.4133 6.70663Z"
        fill="white" />
    <path
        d="M3.74657 5.426C3.76103 5.32691 3.77537 5.23377 3.79016 5.1377C4.03409 5.1377 4.27277 5.1377 4.52179 5.1377C4.51023 5.22716 4.50023 5.31142 4.48831 5.39541C4.46388 5.56746 4.43835 5.73935 4.41341 5.91132C4.38374 6.11596 4.35393 6.32057 4.32474 6.52527C4.30051 6.69519 4.27749 6.86528 4.2532 7.03519C4.22954 7.20071 4.20479 7.36607 4.18083 7.53154C4.17326 7.5838 4.16598 7.63611 4.15987 7.68855C4.15586 7.72302 4.14548 7.74708 4.10383 7.74689C3.8839 7.74587 3.66396 7.74617 3.44403 7.7456C3.43569 7.74558 3.42737 7.74129 3.41449 7.73773C3.42925 7.63012 3.44319 7.52371 3.45855 7.41749C3.48752 7.21721 3.51745 7.01706 3.54671 6.81682C3.57628 6.61439 3.60568 6.41193 3.63484 6.20945C3.65899 6.04175 3.68259 5.87398 3.7066 5.70627C3.7197 5.6148 3.73316 5.52339 3.74657 5.426Z"
        fill="white" />
    <path
        d="M6.15568 9.33742C6.24328 9.38653 6.32658 9.43313 6.40987 9.47972C6.40805 9.48812 6.40623 9.49652 6.40441 9.50492C6.33292 9.50492 6.26139 9.50625 6.18995 9.50441C6.14827 9.50333 6.10678 9.49487 6.0651 9.49369C5.8748 9.48828 5.68438 9.4864 5.49417 9.47905C5.36202 9.47394 5.22994 9.46394 5.09832 9.45115C5.07746 9.44913 5.04988 9.42467 5.04119 9.40396C4.98824 9.27786 4.99033 9.14313 5.00275 9.01168C5.02223 8.8055 5.10669 8.62427 5.25954 8.48182C5.42131 8.33107 5.61887 8.25582 5.83605 8.22627C6.11803 8.1879 6.37855 8.254 6.62503 8.3869C6.67511 8.4139 6.72277 8.44694 6.76656 8.48321C6.78102 8.4952 6.79167 8.53213 6.78392 8.54746C6.70821 8.69704 6.62833 8.84451 6.54931 8.99241C6.5433 9.00366 6.53486 9.01363 6.52749 9.02428C6.45801 8.97783 6.39406 8.92686 6.32288 8.88972C6.24544 8.84931 6.16363 8.81273 6.07946 8.7909C5.97758 8.76448 5.80777 8.82214 5.79289 8.98561C5.78801 9.03925 5.81632 9.11635 5.85671 9.14949C5.94573 9.22252 6.05209 9.2744 6.15568 9.33742Z"
        fill="white" />
    <path
        d="M7.94008 8.81682C7.78855 8.91902 7.79854 9.0911 7.93712 9.18537C8.04413 9.25817 8.16467 9.31105 8.27899 9.37318C8.29917 9.38415 8.3183 9.39706 8.3342 9.42429C8.23927 9.43381 8.14451 9.44556 8.04938 9.45223C7.94575 9.4595 7.84182 9.46334 7.73796 9.46638C7.55197 9.47182 7.36589 9.47441 7.17994 9.48082C7.13748 9.48228 7.11721 9.46578 7.10053 9.42867C6.97313 9.14524 7.05073 8.72438 7.27254 8.5051C7.4711 8.30879 7.70937 8.22281 7.98215 8.21319C8.23813 8.20417 8.47701 8.26198 8.696 8.39573C8.74457 8.42539 8.78893 8.46195 8.8444 8.50194C8.75362 8.67582 8.66336 8.8487 8.58096 9.00652C8.44776 8.93671 8.32411 8.866 8.19526 8.80654C8.11456 8.7693 8.02707 8.77571 7.94008 8.81682Z"
        fill="white" />
    <path
        d="M9.16152 8.63042C9.17491 8.54419 9.18941 8.46408 9.19939 8.38341C9.20451 8.34198 9.21708 8.31936 9.26419 8.31946C9.784 8.32053 10.3038 8.3202 10.8236 8.32045C10.8344 8.32045 10.8452 8.32292 10.8674 8.32564C10.8618 8.37898 10.8578 8.43037 10.8508 8.48136C10.8346 8.60119 10.8144 8.72054 10.801 8.84068C10.7954 8.89186 10.7748 8.90776 10.725 8.90746C10.4474 8.90578 10.1697 8.90667 9.892 8.90668C9.86557 8.90668 9.83914 8.90668 9.80358 8.90668C9.78873 9.00268 9.77038 9.09489 9.76188 9.188C9.75795 9.23104 9.74465 9.25504 9.70361 9.26116C9.50996 9.29004 9.31624 9.31839 9.12242 9.34611C9.10774 9.34821 9.09214 9.3439 9.06348 9.34138C9.09619 9.1043 9.12847 8.8703 9.16152 8.63042Z"
        fill="white" />
    <path
        d="M11.6916 8.75902C11.4704 8.82777 11.2543 8.89548 11.025 8.96732C11.0371 8.87275 11.0464 8.79275 11.0578 8.71304C11.0733 8.6042 11.0924 8.49584 11.1058 8.38676C11.1113 8.34209 11.1241 8.31921 11.1742 8.31934C11.674 8.32056 12.1738 8.32007 12.6736 8.32029C12.6862 8.3203 12.6987 8.32293 12.7135 8.33234C12.3865 8.50406 12.0414 8.63039 11.6916 8.75902Z"
        fill="white" />
</svg>