<svg width="16" height="16" fill="none" xmlns="http://www.w3.org/2000/svg"><path d="M0 7.646c.008-.012.022-.016.024-.024l.203-.88c.049-.217.097-.434.147-.65.07-.312.142-.623.214-.934.001-.006.004-.012.008-.021h.882l.096.71c.032.235.066.47.112.713.015-.026.033-.05.045-.078l.571-1.309c.008-.019.04-.038.062-.038.267-.003.533 0 .8-.003.05 0 .065.016.063.065-.01.248-.017.496-.028.743-.007.17-.017.34-.026.51l-.04.847c-.008.148-.019.295-.028.445h-.652c0-.06-.003-.114 0-.169l.053-.746a183.204 183.204 0 00.04-.768c0-.008-.003-.016-.018-.028-.034.074-.068.147-.1.222l-.373.876c-.08.189-.162.377-.24.566-.014.037-.03.053-.07.052-.14-.002-.28-.002-.42 0-.052.001-.067-.02-.073-.07-.023-.203-.051-.405-.076-.608-.02-.16-.036-.32-.056-.48l-.063-.464c-.005-.036-.008-.072-.026-.108-.046.215-.09.43-.137.646l-.179.825c-.014.067-.035.132-.047.2-.008.047-.03.06-.076.06C.4 7.745.206 7.746.006 7.746A.515.515 0 010 7.646zM16 5.1c-.009.015-.023.022-.026.032-.134.48-.357.915-.652 1.315a5.14 5.14 0 01-.665.725 5.968 5.968 0 01-.967.722l-.475.285c-.007.004-.015.006-.028.011l-.042-.057.297-.248c.084-.07.173-.136.25-.212.174-.172.348-.342.51-.524.192-.217.358-.454.508-.703.151-.25.266-.516.368-.789.027-.072.042-.15.068-.223a.12.12 0 01.056-.06c.24-.118.481-.233.722-.35.008-.003.012-.011.014-.02C15.955 5 15.976 5 16 5v.1zM2.978 9.019c.094-.212.188-.42.279-.627.022-.051.049-.074.108-.073.247.003.493.003.74 0 .059-.001.074.024.082.075.041.252.085.504.127.755l.032.2c-.07-.012-.131-.02-.192-.033a24.17 24.17 0 01-.52-.126c-.066-.017-.105.025-.144.061-.114.106-.224.215-.337.322-.033.031-.07.06-.122.106.076.01.133.02.192.027.166.018.332.036.5.052.124.011.25.022.375.028.235.011.469.023.703.027.46.007.92.012 1.378.012.201 0 .403-.012.603-.026.264-.018.528-.042.791-.065.229-.021.457-.04.684-.07.23-.028.458-.064.685-.104.353-.063.707-.126 1.057-.202a11.51 11.51 0 001.543-.438c.323-.118.64-.253.957-.385.124-.051.243-.116.365-.174.015-.007.032-.012.061-.023l-.089.646h-.525l-.044.289-.09.614-.07.51c-.023.163-.044.327-.07.49-.003.017-.03.044-.045.044-.229.003-.457.002-.706.002.086-.606.17-1.205.257-1.81l-.554.189c-.087.03-.175.063-.264.083-.067.016-.079.057-.086.113-.015.126-.035.252-.054.385h-.927l-.066.466h1.015l-.077.583H8.829l.163-1.147-.296.045a1.02 1.02 0 01-.082.666c-.136.286-.375.432-.672.493-.397.08-.75-.039-1.075-.259-.059-.039-.113-.085-.168-.128-.012-.01-.02-.023-.032-.037l.345-.562.182.162a.776.776 0 00.463.208.318.318 0 00.235-.07c.127-.106.066-.295-.054-.366-.04-.024-.107-.003-.16.001-.078.006-.154.02-.23.024-.19.011-.38.018-.57.029-.062.003-.123.011-.19.018-.007.068-.011.137-.021.206a.91.91 0 01-.69.762c-.447.11-.84-.013-1.203-.273-.034-.025-.06-.06-.096-.08-.061-.034-.048-.068-.018-.116.093-.147.183-.296.274-.445.006-.01.01-.023.023-.048h-.493l.154.917H3.91l-.089-.645-.067-.003c-.194 0-.387.001-.58-.002-.047 0-.073.014-.09.058-.069.171-.141.342-.21.514-.023.06-.054.088-.126.085-.18-.007-.36-.002-.54-.002-.023 0-.047-.003-.083-.004.034-.08.062-.151.093-.22.12-.269.242-.536.361-.804.133-.298.264-.597.398-.9zm2.128 1.02L5 10.026l-.005.017c.12.114.242.227.4.291.129.052.258.077.392.024.126-.049.147-.146.127-.257-.008-.043-.035-.063-.085-.062-.237.003-.475 0-.724 0zM5.573 5.133c.156 0 .305-.008.454.002.211.015.414.06.57.226a.565.565 0 01.148.326c.023.204 0 .404-.078.595a.523.523 0 01-.314.304c-.074.027-.15.045-.235.07l.525 1.085c-.03.003-.048.005-.067.005-.194 0-.387 0-.58.002-.046 0-.073-.013-.091-.058-.15-.357-.303-.714-.456-1.07-.012-.029-.027-.056-.049-.1l-.178 1.222H4.55l.373-2.609h.65zm-.12 1.173c.067 0 .134.007.2 0 .22-.024.342-.091.38-.298.034-.185-.01-.305-.209-.36-.093-.025-.195-.02-.298-.029l-.026.155-.072.495c-.001.01.01.023.025.037zM6.942 7.156l.49-1.098c.115-.26.241-.516.344-.78.05-.126.117-.154.24-.148.211.011.422.003.633.003h.08l.44 2.61h-.702l-.06-.511c-.018-.002-.038-.005-.057-.005-.229 0-.457.001-.686-.002-.043 0-.062.014-.077.052-.052.129-.11.255-.16.385-.023.063-.054.088-.125.087-.202-.006-.404-.002-.62-.002l.26-.59zm1.282-1.251L8.2 5.789l-.02-.001-.377.873h.52l-.036-.287-.063-.47zM10.413 6.707c-.086 0-.167-.003-.246.002-.02.001-.054.027-.057.046-.022.125-.038.252-.055.378-.002.01.002.021.005.04h1.008l-.03.255c-.012.085-.028.17-.037.255-.005.047-.024.064-.071.064H9.337c-.017 0-.034-.004-.054-.006l.373-2.602h1.671l-.078.566h-.989a755.8 755.8 0 00-.066.467h.923l-.065.487c-.006.044-.035.048-.072.048h-.567zM3.747 5.426l.043-.288h.732l-.034.257-.075.516c-.03.205-.06.41-.088.614l-.072.51c-.023.166-.048.331-.072.497a5.686 5.686 0 00-.021.157c-.004.034-.015.058-.056.058l-.66-.001c-.008 0-.017-.005-.03-.008l.045-.32.088-.601.088-.608.072-.503.04-.28z" fill="#fff"/><path d="M6.156 9.337l.254.143-.006.025H6.19c-.042-.002-.083-.01-.125-.011-.19-.006-.38-.008-.57-.015a6.82 6.82 0 01-.397-.028c-.02-.002-.048-.026-.057-.047a.802.802 0 01-.038-.392.81.81 0 01.257-.53c.161-.15.359-.226.576-.256a1.268 1.268 0 01.93.257c.015.012.026.05.018.064-.076.15-.156.298-.235.445-.006.012-.014.022-.022.032-.069-.046-.133-.097-.204-.134a1.169 1.169 0 00-.244-.1c-.101-.026-.271.032-.286.196a.217.217 0 00.064.163c.089.074.195.125.299.188zM7.94 8.817c-.151.102-.141.274-.003.368.107.073.228.126.342.188a.13.13 0 01.055.051c-.095.01-.19.022-.285.028a7.648 7.648 0 01-.311.014c-.186.006-.372.008-.558.015-.043.001-.063-.015-.08-.052-.127-.284-.05-.705.173-.924.198-.196.436-.282.71-.292.255-.009.494.049.713.183.049.03.093.066.148.106l-.263.505c-.133-.07-.257-.141-.386-.2a.293.293 0 00-.255.01zM9.162 8.63c.013-.086.027-.166.037-.247.006-.041.018-.064.065-.064.52.002 1.04.001 1.56.001.01 0 .021.003.043.006l-.016.155c-.016.12-.037.24-.05.36-.006.05-.026.067-.076.066H9.804c-.015.096-.034.188-.042.281-.004.043-.017.067-.058.073a98.09 98.09 0 01-.582.085c-.014.002-.03-.002-.059-.005l.099-.71zM11.692 8.759l-.667.208c.012-.094.021-.174.033-.254.015-.109.034-.217.048-.326.005-.045.018-.068.068-.068.5.002 1 .001 1.5.001a.07.07 0 01.04.012c-.328.172-.673.298-1.022.427z" fill="#fff"/></svg>