<svg viewBox="0 0 16 16" xmlns="http://www.w3.org/2000/svg">
    <path
        d="M3.13 10.319a1.62 1.62 0 01-1.623-1.623V7.13h1.566V5.623H1.507V4.058H0v4.696a3.18 3.18 0 003.189 3.188c.927 0 1.797-.406 2.434-1.101-.463-.58-.753-1.276-.753-2.03a1.62 1.62 0 01-1.623 1.624l-.116-.116z"
        fill="#0F50EC" />
    <path
        d="M9.565 8.696a1.62 1.62 0 01-1.623 1.623c-.87 0-1.624-.754-1.624-1.623V7.13h1.566V5.623H6.318V4.058H4.811v4.696A3.18 3.18 0 008 11.942c.927 0 1.797-.406 2.434-1.101-.521-.58-.753-1.276-.753-2.03l-.116-.115z"
        fill="#F48A31" />
    <path
        d="M12.754 5.507c-.58 0-1.16.174-1.623.464V4H9.623v4.696c0 1.739 1.45 3.188 3.189 3.188S16 10.434 16 8.696c0-1.74-1.45-3.189-3.188-3.189h-.058zm0 4.812a1.62 1.62 0 01-1.623-1.623 1.62 1.62 0 011.623-1.624 1.62 1.62 0 011.623 1.624 1.62 1.62 0 01-1.623 1.623z"
        fill="#022D61" />
</svg>