<svg viewBox="0 0 16 16" xmlns="http://www.w3.org/2000/svg">
    <path
        d="M3.13057 10.319C2.20303 10.319 1.50738 9.56538 1.50738 8.69581V7.13058H3.0726V5.62333H1.50738V4.05811H0.00012207V8.75378C0.00012207 10.4929 1.39143 11.9422 3.18854 11.9422C4.11608 11.9422 4.98565 11.5364 5.62334 10.8407C5.15957 10.261 4.86971 9.56538 4.86971 8.81175C4.86971 9.73929 4.11608 10.4349 3.24652 10.4349L3.13057 10.319Z"
        fill="#0F50EC" />
    <path
        d="M9.56487 8.69581C9.56487 9.62335 8.81124 10.319 7.94167 10.319C7.0721 10.319 6.31847 9.56538 6.31847 8.69581V7.13058H7.8837V5.62333H6.31847V4.05811H4.81122V8.75378C4.81122 10.4929 6.20253 11.9422 7.99964 11.9422C8.92718 11.9422 9.79675 11.5364 10.4344 10.8407C9.91269 10.261 9.68081 9.56538 9.68081 8.81175L9.56487 8.69581Z"
        fill="#F48A31" />
    <path
        d="M12.7538 5.50725C12.1741 5.50725 11.5944 5.68117 11.1306 5.97102V4H9.62335V8.69568C9.62335 10.4348 11.0726 11.8841 12.8118 11.8841C14.5509 11.8841 16.0002 10.4348 16.0002 8.69568C16.0002 6.95654 14.5509 5.50725 12.8118 5.50725H12.7538ZM12.7538 10.3189C11.8263 10.3189 11.1306 9.56524 11.1306 8.69568C11.1306 7.76813 11.8842 7.07248 12.7538 7.07248C13.6813 7.07248 14.377 7.82611 14.377 8.69568C14.377 9.62322 13.6234 10.3189 12.7538 10.3189Z"
        fill="#022D61" />
</svg>