<svg viewBox="0 0 40 40" xmlns="http://www.w3.org/2000/svg"><path fill-rule="evenodd" clip-rule="evenodd" d="M14.136 14.155h11.722v10.328a38.571 38.571 0 0112.236 4.06A19.908 19.908 0 0040 20.018C40 8.96 31.035 0 19.994 0 8.946 0 0 8.96 0 20.018c0 3.042.68 5.931 1.893 8.513a38.383 38.383 0 0112.243-4.048V14.155z" fill="#005791"/><path fill-rule="evenodd" clip-rule="evenodd" d="M19.994 40c6.991 0 13.143-3.594 16.728-9.04a35.71 35.71 0 00-16.746-4.146 35.577 35.577 0 00-16.71 4.14C6.844 36.4 12.99 40 19.994 40z" fill="#D71147"/></svg>