<svg viewBox="0 0 16 16" xmlns="http://www.w3.org/2000/svg">
    <path
        d="M5.16507 6.37691C5.39695 6.95662 5.74477 7.47835 6.15057 7.94212C6.32448 7.65227 6.44042 7.36241 6.55636 7.07256C7.02013 5.7972 7.30998 4.46388 7.48389 3.13055C7.59984 2.14505 7.65781 1.10158 7.65781 0.0581055C6.49839 0.0581055 5.33898 0.40593 4.29551 0.927666C4.29551 0.927666 4.23754 0.927666 4.17957 0.985637C4.17957 1.15955 4.17957 1.39143 4.17957 1.62331C4.17957 3.24649 4.52739 4.86967 5.16507 6.37691Z"
        fill="white" />
    <path
        d="M8.99126 6.26084C9.16518 6.84054 9.39706 7.36228 9.62894 7.88401C9.9188 7.53619 10.2086 7.1304 10.3826 6.7246C11.0202 5.44925 11.426 4.11592 11.542 2.72462C11.5999 2.14492 11.5999 1.56521 11.5999 0.927531C11.3101 0.753619 11.0782 0.637678 10.7884 0.521736C9.9188 0.173912 9.04924 0 8.1217 0C8.1217 0.521736 8.1217 0.985502 8.1217 1.50724C8.23765 3.13042 8.46953 4.69563 8.93329 6.26084H8.99126Z"
        fill="white" />
    <path
        d="M2.2669 7.07244C2.84661 6.20287 3.2524 5.1594 3.48429 4.11593C3.71617 3.13043 3.83211 2.14493 3.83211 1.15942C3.77414 1.15942 3.71617 1.21739 3.6582 1.27537C2.61473 1.91304 1.80314 2.7826 1.16546 3.82608C0.237928 5.33331 -0.167866 7.18838 0.0640166 8.9275C0.991548 8.5217 1.80314 7.88402 2.32487 7.01446L2.2669 7.07244Z"
        fill="white" />
    <path
        d="M14.9044 4.28961C14.3247 3.18817 13.5131 2.26064 12.5276 1.56499C12.3537 1.44905 12.1798 1.3331 11.9479 1.21716C11.9479 2.02875 12.0058 2.78237 12.1798 3.59396C12.3537 4.81135 12.7595 5.91279 13.3971 6.95626C13.9769 7.88379 14.7884 8.57944 15.7739 8.98524C15.9479 7.36206 15.658 5.73888 14.9044 4.28961Z"
        fill="white" />
    <path
        d="M5.51326 9.39151C5.45529 9.27556 5.39732 9.21759 5.28138 9.10165C4.93355 8.69586 4.6437 8.29006 4.41182 7.8263C4.23791 7.47847 4.06399 7.07268 3.94805 6.72485C3.89008 6.84079 3.83211 6.95674 3.77414 7.07268C3.54226 7.71036 3.2524 8.29006 2.78864 8.86977C2.15096 9.73933 1.2814 10.377 0.295898 10.7248C0.295898 10.7828 0.295898 10.8408 0.353869 10.9567C0.585752 11.5944 0.933576 12.1741 1.33937 12.6958C1.51328 12.9277 1.6872 13.1016 1.86111 13.2755C1.97705 13.2755 2.09299 13.1596 2.20893 13.1016C3.36834 12.29 4.35385 11.2466 5.0495 9.97121C5.16544 9.73933 5.33935 9.56542 5.39732 9.33353L5.51326 9.39151Z"
        fill="white" />
    <path
        d="M8.00608 7.13065C8.00608 7.01471 8.00608 6.84079 7.89014 6.72485C7.7742 6.84079 7.83217 7.01471 7.7742 7.13065C7.54232 8.46397 7.13652 9.7973 6.55681 11.0727C5.97711 12.5219 5.10755 13.8552 4.0061 14.9567C4.0061 15.0147 4.06407 15.0726 4.12204 15.0726C5.28146 15.6523 6.49884 16.0002 7.7742 16.0002C9.1655 16.0002 10.4988 15.6523 11.7162 15.0147C10.6148 13.8552 9.7452 12.5219 9.1655 11.0727C8.64376 9.7973 8.23796 8.52195 8.00608 7.13065Z"
        fill="white" />
    <path
        d="M11.9486 7.07268C11.9486 6.95674 11.8907 6.84079 11.8327 6.72485C11.7747 6.84079 11.7167 7.01471 11.6588 7.13065C11.3689 7.94224 10.9052 8.69586 10.3254 9.33353C10.2675 9.33353 10.3254 9.44948 10.3254 9.50745C10.6153 10.0292 10.9052 10.4929 11.195 10.9567C11.8327 11.8263 12.5863 12.5799 13.5138 13.2176C13.6298 13.2755 13.6877 13.3335 13.8037 13.3915C13.8617 13.3335 13.9776 13.2176 14.0356 13.1596C14.4414 12.6379 14.7892 12.1161 15.079 11.4785C15.195 11.2466 15.253 11.0727 15.3689 10.8408C14.8472 10.6669 14.3254 10.377 13.9196 9.97121C13.0501 9.21759 12.3544 8.23209 11.9486 7.13065V7.07268Z"
        fill="white" />
</svg>