<svg viewBox="0 0 16 16" xmlns="http://www.w3.org/2000/svg"><path d="M5.165 6.377c.232.58.58 1.101.986 1.565.173-.29.29-.58.405-.87.464-1.275.754-2.608.928-3.941.116-.986.174-2.03.174-3.073-1.16 0-2.319.348-3.362.87 0 0-.058 0-.116.058v.637c0 1.623.347 3.247.985 4.754zM8.991 6.26c.174.58.406 1.102.638 1.624.29-.348.58-.754.754-1.16.637-1.275 1.043-2.608 1.159-4 .058-.58.058-1.159.058-1.796a5.3 5.3 0 00-.812-.406A7.049 7.049 0 008.122 0v1.507c.116 1.623.348 3.189.811 4.754h.058zM2.267 7.072c.58-.87.985-1.913 1.217-2.956a12.87 12.87 0 00.348-2.957c-.058 0-.116.058-.174.116-1.043.638-1.855 1.508-2.493 2.551C.238 5.333-.168 7.188.064 8.927c.928-.405 1.74-1.043 2.26-1.913l-.057.058zM14.904 4.29a7.718 7.718 0 00-2.376-2.725c-.174-.116-.348-.232-.58-.348 0 .812.058 1.565.232 2.377a8.7 8.7 0 001.217 3.362 5.054 5.054 0 002.377 2.03 8.232 8.232 0 00-.87-4.696zM5.513 9.392c-.058-.116-.116-.174-.232-.29a6.206 6.206 0 01-.87-1.276 8.92 8.92 0 01-.463-1.101l-.174.348c-.232.637-.522 1.217-.985 1.797a5.256 5.256 0 01-2.493 1.855c0 .058 0 .116.058.232.232.637.58 1.217.985 1.739.174.232.348.406.522.58.116 0 .232-.116.348-.174 1.16-.812 2.145-1.855 2.84-3.13.116-.233.29-.407.348-.638l.116.058zM8.006 7.13c0-.115 0-.29-.116-.405-.116.116-.058.29-.116.406a16.302 16.302 0 01-1.217 3.942 11.597 11.597 0 01-2.55 3.884c0 .058.057.116.115.116 1.16.58 2.377.927 3.652.927a8.453 8.453 0 003.942-.985 12.454 12.454 0 01-2.55-3.942c-.522-1.276-.928-2.551-1.16-3.942zM11.949 7.073c0-.116-.058-.232-.116-.348-.058.116-.116.29-.174.406a6.601 6.601 0 01-1.334 2.203c-.057 0 0 .115 0 .173.29.522.58.986.87 1.45a9.56 9.56 0 002.319 2.26c.116.058.174.117.29.175l.232-.232c.405-.522.753-1.044 1.043-1.681.116-.232.174-.406.29-.638a3.732 3.732 0 01-1.45-.87 6.987 6.987 0 01-1.97-2.84v-.058z" fill="#fff"/></svg>