<svg viewBox="0 0 24 24" xmlns="http://www.w3.org/2000/svg"><path fill="#FDC34A" d="M0 0h24v24H0z"/><path d="M9.18 10.14c.24.6.6 1.14 1.02 1.62.18-.3.3-.6.42-.9.48-1.32.78-2.7.96-4.08.12-1.02.18-2.1.18-3.18-1.2 0-2.4.36-3.48.9 0 0-.06 0-.12.06v.66c0 1.68.36 3.36 1.02 4.92zM13.14 10.02c.18.6.42 1.14.66 1.68.3-.36.6-.78.78-1.2.66-1.32 1.08-2.7 1.2-4.14.06-.6.06-1.2.06-1.86-.3-.18-.54-.3-.84-.42-.9-.36-1.8-.54-2.76-.54V5.1c.12 1.68.36 3.3.84 4.92h.06zM6.18 10.86c.6-.9 1.02-1.98 1.26-3.06.24-1.02.36-2.04.36-3.06-.06 0-.12.06-.18.12-1.08.66-1.92 1.56-2.58 2.64-.96 1.56-1.38 3.48-1.14 5.28.96-.42 1.8-1.08 2.34-1.98l-.06.06zM19.26 7.98c-.6-1.14-1.44-2.1-2.46-2.82-.18-.12-.36-.24-.6-.36 0 .84.06 1.62.24 2.46.18 1.26.6 2.4 1.26 3.48.6.96 1.44 1.68 2.46 2.1a8.52 8.52 0 00-.9-4.86zM9.54 13.26c-.06-.12-.12-.18-.24-.3-.36-.42-.66-.84-.9-1.32-.18-.36-.36-.78-.48-1.14l-.18.36c-.24.66-.54 1.26-1.02 1.86a5.44 5.44 0 01-2.58 1.92c0 .06 0 .12.06.24.24.66.6 1.26 1.02 1.8.18.24.36.42.54.6.12 0 .24-.12.36-.18 1.2-.84 2.22-1.92 2.94-3.24.12-.24.3-.42.36-.66l.12.06zM12.12 10.92c0-.12 0-.3-.12-.42-.12.12-.06.3-.12.42-.24 1.38-.66 2.76-1.26 4.08-.6 1.5-1.5 2.88-2.64 4.02 0 .06.06.12.12.12 1.2.6 2.46.96 3.78.96 1.44 0 2.82-.36 4.08-1.02-1.14-1.2-2.04-2.58-2.64-4.08-.54-1.32-.96-2.64-1.2-4.08zM16.2 10.86c0-.12-.06-.24-.12-.36-.06.12-.12.3-.18.42-.3.84-.78 1.62-1.38 2.28-.06 0 0 .12 0 .18.3.54.6 1.02.9 1.5.66.9 1.44 1.68 2.4 2.34.12.06.18.12.3.18l.24-.24c.42-.54.78-1.08 1.08-1.74.12-.24.18-.42.3-.66-.54-.18-1.08-.48-1.5-.9-.9-.78-1.62-1.8-2.04-2.94v-.06z" fill="#fff"/></svg>