<svg viewBox="0 0 80 80" xmlns="http://www.w3.org/2000/svg">
    <path
        d="M24.5416 28.9278C39.3449 22.2893 54.3626 20.3678 65.8993 22.7429C64.6079 22.1552 63.3051 21.1481 62.5135 19.7204C60.388 15.8844 56.2209 13.5985 51.4499 14.128C49.485 14.3468 47.5452 13.853 46.2678 12.9811C44.4757 11.762 42.4501 11 40.0015 11C37.5507 11 35.5263 11.7608 33.7354 12.9811C32.4556 13.853 30.5144 14.3468 28.5528 14.128C23.782 13.5985 19.6147 15.8844 17.4871 19.7204C16.5408 21.4299 14.8738 22.5229 13.35 23.0407C9.55293 24.331 6.42136 27.7957 6.00545 32.3066C5.80839 34.4309 4.55494 36.1082 3.61771 37.0477C1.07067 39.596 0.00390625 42.576 0.00390625 45.6284C0.00390625 45.6789 0.00390625 45.7292 0.00390625 45.7796C6.23915 39.2935 14.6353 33.371 24.5416 28.9278Z"
        fill="url(#cub_hcm_bank_paint0_linear)" />
    <path
        d="M37.6052 37.6271C50.2554 31.9544 63.0651 29.7258 73.7207 30.6815C72.8053 26.9852 70.0349 24.2262 66.6515 23.0438C66.4028 22.9612 66.1497 22.8616 65.8977 22.7447C54.3621 20.3695 39.3433 22.291 24.54 28.9295C14.6337 33.373 6.2364 39.2953 0 45.7826C0.0733288 51.7784 4.54989 56.7144 10.3452 57.5083C16.7568 49.8477 26.1738 42.7544 37.6052 37.6271Z"
        fill="url(#cub_hcm_bank_paint1_linear)" />
    <path
        d="M76.3841 37.0489C75.4467 36.1105 74.1956 34.4321 73.9986 32.3077C73.947 31.7474 73.853 31.2045 73.7236 30.6797C63.0667 29.7252 50.2584 31.9526 37.6079 37.6253C26.1768 42.7526 16.7608 49.8461 10.3491 57.5065C10.8865 57.58 11.4365 57.62 11.9945 57.62H29.205C30.8412 57.62 32.1656 58.9753 32.1656 60.6092V61.3035C32.1656 64.0546 29.449 64.4247 29.449 64.4247L15.4536 66.8318C14.9563 66.911 14.5266 67.2524 14.5266 67.7441V69.4637H65.4752V67.7441C65.4752 67.2524 65.0481 66.911 64.5507 66.8318L50.5552 64.4247C50.5552 64.4247 47.8384 64.0558 47.8384 61.3035V60.6092C47.8384 58.9742 49.163 57.62 50.7969 57.62H68.0096C74.631 57.62 80.0001 52.2509 80.0001 45.6295C80.0001 42.5774 78.9323 39.5971 76.3841 37.0489Z"
        fill="#009043" />
    <defs>
        <linearGradient id="cub_hcm_bank_paint0_linear" x1="50.0961" y1="8.62308" x2="12.0838" y2="55.5644"
            gradientUnits="userSpaceOnUse">
            <stop stop-color="#6FBA2C" />
            <stop offset="0.3125" stop-color="#30A938" />
            <stop offset="0.7712" stop-color="#009641" />
            <stop offset="1" stop-color="#009043" />
        </linearGradient>
        <linearGradient id="cub_hcm_bank_paint1_linear" x1="62.0072" y1="7.17789" x2="16.6802" y2="63.152"
            gradientUnits="userSpaceOnUse">
            <stop stop-color="#45B035" />
            <stop offset="0.27" stop-color="#00A13D" />
            <stop offset="0.5437" stop-color="#009741" />
            <stop offset="0.7948" stop-color="#009243" />
            <stop offset="1" stop-color="#009043" />
        </linearGradient>
    </defs>
</svg>