<svg viewBox="0 0 80 80" xmlns="http://www.w3.org/2000/svg"><path d="M24.542 28.928c14.803-6.639 29.82-8.56 41.357-6.185-1.291-.588-2.594-1.595-3.386-3.023-2.125-3.836-6.292-6.121-11.063-5.592-1.965.219-3.905-.275-5.182-1.147C44.476 11.762 42.45 11 40 11c-2.45 0-4.475.76-6.266 1.981-1.28.872-3.22 1.366-5.182 1.147-4.771-.53-8.938 1.756-11.066 5.592-.946 1.71-2.613 2.803-4.137 3.32-3.797 1.291-6.929 4.756-7.345 9.267-.197 2.124-1.45 3.801-2.387 4.74C1.07 39.597.004 42.577.004 45.629v.152c6.235-6.486 14.631-12.409 24.538-16.852z" fill="url(#prefix__cub_hcm_bank_paint0_linear)"/><path d="M37.605 37.627c12.65-5.673 25.46-7.901 36.116-6.946-.916-3.696-3.686-6.455-7.07-7.637a7.153 7.153 0 01-.753-.3c-11.536-2.375-26.555-.453-41.358 6.186C14.634 33.373 6.236 39.294 0 45.782c.073 5.995 4.55 10.931 10.345 11.725 6.412-7.66 15.829-14.754 27.26-19.88z" fill="url(#prefix__cub_hcm_bank_paint1_linear)"/><path d="M76.384 37.049c-.937-.938-2.188-2.617-2.385-4.741a11.012 11.012 0 00-.275-1.628c-10.657-.955-23.466 1.273-36.116 6.945-11.431 5.128-20.847 12.221-27.259 19.882.537.073 1.088.113 1.646.113h17.21c1.636 0 2.96 1.355 2.96 2.99v.694c0 2.75-2.716 3.12-2.716 3.12l-13.995 2.408c-.498.079-.927.42-.927.912v1.72h50.948v-1.72c0-.492-.427-.833-.924-.912l-13.996-2.407s-2.717-.37-2.717-3.121v-.695c0-1.635 1.325-2.989 2.959-2.989H68.01C74.63 57.62 80 52.25 80 45.63c0-3.053-1.068-6.033-3.616-8.581z" fill="#009043"/><defs><linearGradient id="prefix__cub_hcm_bank_paint0_linear" x1="50.096" y1="8.623" x2="12.084" y2="55.564" gradientUnits="userSpaceOnUse"><stop stop-color="#6FBA2C"/><stop offset=".313" stop-color="#30A938"/><stop offset=".771" stop-color="#009641"/><stop offset="1" stop-color="#009043"/></linearGradient><linearGradient id="prefix__cub_hcm_bank_paint1_linear" x1="62.007" y1="7.178" x2="16.68" y2="63.152" gradientUnits="userSpaceOnUse"><stop stop-color="#45B035"/><stop offset=".27" stop-color="#00A13D"/><stop offset=".544" stop-color="#009741"/><stop offset=".795" stop-color="#009243"/><stop offset="1" stop-color="#009043"/></linearGradient></defs></svg>