<svg viewBox="0 0 40 40" xmlns="http://www.w3.org/2000/svg"><path d="M39.365 15.426h-4.581a9.116 9.116 0 00-6.915 3.177l-7.239 8.412v9.61c2.334-.329 3.559-1.899 3.559-1.899l15.644-18.238a.631.631 0 00-.468-1.058M.635 15.426h4.581a9.116 9.116 0 016.915 3.177l7.239 8.412v9.61c-2.334-.329-3.559-1.899-3.559-1.899L.168 16.488a.631.631 0 01.468-1.058M29.248 3.625v9.368a5.546 5.546 0 01-1.343 3.621L20.63 25.07V11.96l7.527-8.744a.623.623 0 011.095.408M10.752 3.625v9.368c0 1.329.475 2.614 1.343 3.621l7.275 8.455V11.96l-7.527-8.744a.623.623 0 00-1.095.408" fill="#E10600"/></svg>