<svg viewBox="0 0 24 24" xmlns="http://www.w3.org/2000/svg"><path fill="#023BA6" d="M0 0h24v24H0z"/><path d="M4.74 12.06c0 4.14 3.36 7.56 7.56 7.56h.3c4.02-.18 7.2-3.48 7.26-7.56 0-4.2-3.42-7.56-7.56-7.56-4.2 0-7.56 3.42-7.56 7.56zm1.2-.48c0-1.2.42-2.4 1.08-3.48 1.08-1.86 3.06-3.06 5.22-3.06 1.62 0 3.18.66 4.32 1.8a7.51 7.51 0 01.84 9.3c-1.68 2.52-4.62 3.54-7.26 2.46-2.52-.96-4.2-3.66-4.26-7.02h.06z" fill="#fff"/><path d="M9.96 14.16c.36.42.72.78 1.14 1.2.48-.48.96-.96 1.38-1.44.42-.48.42-.48 0-.96-.18-.18-.36-.42-.54-.66-.72.66-1.32 1.26-1.92 1.8l-.06.06zM10.32 11.82c.66-.72 1.2-1.26 1.74-1.86.06-.12.06-.24 0-.3-.3-.36-.6-.66-1.02-1.08-.6.66-1.2 1.2-1.74 1.8v.36c.3.36.6.66.96 1.14l.06-.06zM11.4 11.34l1.74 1.74c.42-.36.84-.72 1.26-1.02-.66-.66-1.26-1.26-1.86-1.92-.36.42-.72.78-1.14 1.2zM12.54 14.52c-.36.42-.72.78-1.14 1.2.54.54 1.08 1.08 1.68 1.62 0 0 .24.06.3 0 .3-.24.48-.54.66-.84 0-.24 0-.54-.24-.72-.36-.42-.84-.84-1.26-1.32v.06zM10.62 12.72l-1.8-1.8c-.3.24-.54.54-.78.84-.12.3-.06.66.18.84l1.26 1.26c.36-.42.72-.78 1.08-1.2l.06.06zM15.48 8.64c-.66.66-1.26 1.26-1.86 1.92.36.36.78.72 1.08 1.08.48-.42.96-.9 1.44-1.38.24-.24.18-.66 0-.9s-.42-.42-.66-.72zM12.6 9.48c.36-.36.84-.78 1.2-1.2.3-.3.36-.78.06-1.08l-.06-.06-.54-.54-1.86 1.86c.36.36.78.72 1.2 1.08v-.06zM13.62 13.56c.6.54 1.2 1.14 1.86 1.74.24-.18.42-.36.6-.6.3-.3.3-.72 0-1.02-.42-.42-.9-.84-1.32-1.26-.3.36-.66.72-1.08 1.14h-.06z" fill="#FF7300"/></svg>