<svg viewBox="0 0 40 40" xmlns="http://www.w3.org/2000/svg"><path fill-rule="evenodd" clip-rule="evenodd" d="M39.848 13.746C36.864 9.518 31.91 7 26.865 7c-5.045 0-9.994 2.518-12.973 6.746l-.153.217h3.758l.04-.043c2.556-2.64 5.897-4.032 9.328-4.032 3.432 0 6.772 1.396 9.334 4.032l.043.043H40l-.152-.217z" fill="#E04245"/><path fill-rule="evenodd" clip-rule="evenodd" d="M12.195 27.798l-.074.07c-1.157 1.178-2.492 1.8-3.87 1.8-2.871 0-4.959-2.157-4.959-5.132 0-2.975 2.088-5.132 4.959-5.132 1.378 0 2.713.626 3.87 1.805l.074.07 1.849-2.236-.053-.06c-1.535-1.819-3.383-2.702-5.65-2.702-2.265 0-4.353.77-5.853 2.145C.857 19.921 0 22.03 0 24.532c0 2.5.857 4.61 2.488 6.106 1.5 1.388 3.58 2.149 5.854 2.149s4.114-.883 5.65-2.706l.052-.052-1.849-2.235v.004z" fill="#1F4889"/><path d="M19.176 16.542H15.91v15.945h3.266V16.542z" fill="#1F4889"/><path fill-rule="evenodd" clip-rule="evenodd" d="M31.971 29.02c-.874.53-1.683.796-2.41.796-1.052 0-1.535-.556-1.535-1.796v-8.46h3.332v-3h-3.332v-4.958l-3.2 1.713v3.245h-2.762v3h2.762v9c0 2.448 1.452 4.127 3.622 4.17 1.47.03 2.358-.409 2.897-.73l.035-.022.783-3.075-.192.117z" fill="#1F4889"/><path d="M37.943 16.542h-3.27v15.945h3.27V16.542z" fill="#1F4889"/></svg>