<svg viewBox="0 0 40 40" xmlns="http://www.w3.org/2000/svg"><g clip-path="url(#prefix__hlo_bank_clip0)"><path d="M37.645 10.017a30.98 30.98 0 01-3.57-.695A25.008 25.008 0 0120.321 0l-3.934 2.281a29.932 29.932 0 0016.496 11.405c1.554.397 3.174.694 4.76.86v-4.53z" fill="#002147"/><path d="M37.645 22.281v-4.529a31.903 31.903 0 01-5.587-.992A33.113 33.113 0 0113.612 3.9L9.678 6.15c2.28 3.306 5.058 6.248 8.264 8.661a37.968 37.968 0 0012.926 6.314c2.215.595 4.496.992 6.777 1.157z" fill="#002147"/><path d="M6.934 7.735a39.886 39.886 0 009.124 9.587c4.198 3.174 8.959 5.52 14.016 6.843 2.48.661 5.025 1.091 7.604 1.29v4.528c-2.942-.198-5.885-.66-8.76-1.454A44.88 44.88 0 013 9.983l3.934-2.248z" fill="#002147"/><path d="M6.934 32.264a40.03 40.03 0 019.124-9.62c6.28-4.727 13.785-7.57 21.62-8.098v-4.53a46.601 46.601 0 00-8.76 1.455C18.305 14.281 9.115 20.893 3 30.017l3.934 2.247z" fill="#DF1C01"/><path d="M37.645 17.752v4.529a32.963 32.963 0 00-24.033 13.851l-3.934-2.28c2.28-3.307 5.058-6.249 8.264-8.662a37.185 37.185 0 0119.703-7.438z" fill="#DF1C01"/><path d="M37.645 29.983a21.312 21.312 0 00-3.57.695A25.009 25.009 0 0020.321 40l-3.934-2.28a29.932 29.932 0 0116.496-11.406c1.554-.43 3.14-.694 4.76-.86v4.53z" fill="#DF1C01"/></g><defs><clipPath id="prefix__hlo_bank_clip0"><path fill="#fff" d="M0 0h40v40H0z"/></clipPath></defs></svg>