<svg viewBox="0 0 24 24" xmlns="http://www.w3.org/2000/svg">
    <rect x="0.76123" width="24" height="24" fill="#214796" />
    <path
        d="M15.4605 7.98013L12.7005 4.38013L9.94055 7.98013C7.84055 10.6801 7.06055 11.9401 7.06055 13.7401C7.06055 15.5401 7.48055 16.0201 8.92055 17.1001L12.7005 19.8601L16.4805 17.1001C17.9205 16.0801 18.3405 15.3001 18.3405 13.7401C18.3405 11.9401 17.5005 10.6801 15.4605 7.98013ZM11.8605 16.9201V17.6401C11.8605 17.7601 11.8005 17.7601 11.7405 17.7001C10.7805 16.9801 9.58055 16.1401 9.58055 16.1401C8.74055 15.6001 8.26055 14.7001 8.32055 13.6801C8.32055 13.2001 8.38055 12.7201 8.56055 12.3001C8.56055 12.3001 8.56055 12.1801 8.62055 12.1801C9.04055 12.7801 9.70055 13.8001 10.4205 14.6401C11.7405 16.2001 11.8605 16.0801 11.8605 16.8601V16.9201ZM12.7005 15.4801L10.0605 12.3001C9.76055 12.0001 9.58055 11.5801 9.58055 11.1601C9.58055 10.8601 9.70055 10.6201 9.88055 10.3801L12.7005 6.48013L15.5205 10.3801C15.7005 10.6201 15.8205 10.8601 15.8205 11.1601C15.8205 11.5801 15.6405 12.0001 15.3405 12.3001L12.7005 15.4801ZM15.8205 16.1401C15.8205 16.1401 14.6205 16.9801 13.6605 17.7001C13.6005 17.7001 13.5405 17.7001 13.5405 17.6401V16.9201C13.5405 16.1401 13.6005 16.2601 14.9205 14.7001C15.5805 13.8601 16.3005 12.9001 16.7205 12.2401C16.7205 12.2401 16.7205 12.3001 16.7805 12.3601C16.9605 12.7801 17.0205 13.2601 17.0205 13.7401C17.0205 14.7001 16.6005 15.6601 15.7605 16.2001L15.8205 16.1401Z"
        fill="white" />
</svg>