<svg viewBox="0 0 24 24" xmlns="http://www.w3.org/2000/svg"><path fill="#214796" d="M0 0h24v24H0z"/><path d="M15.46 7.98l-2.76-3.6-2.76 3.6c-2.1 2.7-2.88 3.96-2.88 5.76 0 1.8.42 2.28 1.86 3.36l3.78 2.76 3.78-2.76c1.44-1.02 1.86-1.8 1.86-3.36 0-1.8-.84-3.06-2.88-5.76zm-3.6 8.94v.72c0 .12-.06.12-.12.06-.96-.72-2.16-1.56-2.16-1.56-.84-.54-1.32-1.44-1.26-2.46 0-.48.06-.96.24-1.38 0 0 0-.12.06-.12.42.6 1.08 1.62 1.8 2.46 1.32 1.56 1.44 1.44 1.44 2.22v.06zm.84-1.44l-2.64-3.18c-.3-.3-.48-.72-.48-1.14 0-.3.12-.54.3-.78l2.82-3.9 2.82 3.9c.18.24.3.48.3.78 0 .42-.18.84-.48 1.14l-2.64 3.18zm3.12.66s-1.2.84-2.16 1.56c-.06 0-.12 0-.12-.06v-.72c0-.78.06-.66 1.38-2.22.66-.84 1.38-1.8 1.8-2.46 0 0 0 .06.06.12.18.42.24.9.24 1.38 0 .96-.42 1.92-1.26 2.46l.06-.06z" fill="#fff"/></svg>