<svg viewBox="0 0 40 40" xmlns="http://www.w3.org/2000/svg"><path d="M39.356 20.623l-.346-.22c-1.18-1.178-2.822-1.688-5.019-1.56-1.828.112-3.279.837-4.386 1.51l-.002-.05c0-.572.065-1.193.13-1.796.062-.613.129-1.237.129-1.827 0-.602-.068-1.173-.276-1.661a.325.325 0 00-.313-.2c-.591.013-1.745.417-2.024.663l-.152.333c-.01.655-.154 2.48-.3 2.703a5.45 5.45 0 01-.078.22c-.248 2.61-.253 4.903-.024 6.873.026.197.406.492.698.6.322.118 1.327-.151 1.906-.369-.008.003.217-.034.217-.034.183-.02.29-.174.283-.383-.004-.005.014-.567.014-.567.418-1.7 2.11-3.728 4.113-4.033 1.132-.18 2.025.112 2.732.88.095.14.301 1.362-.444 2.768-.556 1.04-1.666 1.918-3.128 2.466-1.382.526-2.904.738-4.783.673-.079-.05-1.76-1.19-1.76-1.19-1.49-1.047-3.341-2.348-5.02-2.985-.295-.114-.822-.553-1.14-.816l-.175-.142c-.968-.776-2.81-2.005-4.29-2.99l-.796-.534.001-.167c.044-.047.974-.605.974-.605 1.3-.761 1.902-1.135 2.03-1.328-.026.032.172-.101.172-.101.013-.006 3.228-1.826 3.228-1.826 3.098-1.7 6.606-3.633 8.449-5.54.003-.003.09-.293.09-.293l.038-.26c.123-.408.13-.72.026-1.083-.026-.104-.121-.224-.249-.247-1.44-.144-3.295.72-4.985 2.305-.38.356-.701.532-1.04.715l-.258.145c-1.863 1.06-6.059 3.664-8.256 5.07.144-2.363.58-5.723 1.12-8.525l-.06-.334-.228-.424-.172-.303-.05-.013c-.438-.222-.796-.132-1.06-.067l-.438.163-.586.212a.319.319 0 00-.242.207c-1.049 2.535-1.924 6.706-2.131 10.043-2.097-1.334-4.035-2.293-4.985-2.756l-.026-.015-.113-.024c-.342-.044-.758-.296-1.158-.538-.044-.026-.799-.518-.799-.518l-1.217-.78c.008.008-.323-.073-.323-.073-.522.09-1.527.765-1.825 1.225a.359.359 0 00-.055.195c0 .098.03.195.055.29l.054.248.056.15c.585.598 2.058 1.595 3.502 2.372l1.675.887 2.564 1.4c0 .012.438.348.438.348l.301.173s.036.02.055.034c-.683.458-4.663 3.115-4.663 3.115l-2.452 1.624c-.232.158-1.2.591-1.413.677-.531.216-.934.549-1.1.91L0 25.784l.066.094.188.142c-.01 0 .25.164.25.164l.27.185.256.041c.43.017 1.069-.23 2.263-.752 1.097-.485 4.074-2.282 5.348-3.05l.542-.325c.225.019.471-.171.692-.337.255-.204.81-.545 1.15-.695.01-.003.202-.111.385-.213l-.003.146c.057 3.895.28 6.726.706 8.91l.006.036.042.088c.21.307.447 1.231.66 2.045l.484 1.625c.011.02.137.153.137.153.277.188 1.121.512 1.684.445l.14-.017.09-.198c.049-.243.065-.482.065-.745 0-.297-.021-.624-.048-1.025l-.039-.586c-.178-2.719-.356-6.645-.356-9.254v-.208c.463.289 2.482 1.562 2.482 1.562 3.439 2.231 8.633 5.601 11.772 6.492.163.05.336.012.456-.104.004-.007.482-.31.482-.31l.09-.038c.181-.085.3-.389.322-.718 2.645-.133 6.336-1.152 8.31-3.634A5.173 5.173 0 0040 22.554c.002-.825-.228-1.539-.644-1.931z" fill="#FCAF16"/></svg>