<svg viewBox="0 0 40 40" xmlns="http://www.w3.org/2000/svg"><path fill-rule="evenodd" clip-rule="evenodd" d="M36.233 16.388L20.063 0l-8.07 8.178-9.117 9.062c2.419-2.155 9.062-2.845 11.062-3.046 7.729-.93 16.365-.132 22.287 2.201l.008-.007z" fill="url(#prefix__pvcom_bank_paint0_linear)"/><path fill-rule="evenodd" clip-rule="evenodd" d="M13.946 23.574v-9.388c-2.387.24-11.325 1.17-11.922 4.434-.582 3.202 9.744 4.706 11.922 4.954z" fill="url(#prefix__pvcom_bank_paint1_linear)"/><path fill-rule="evenodd" clip-rule="evenodd" d="M3.86 23.613L20.032 40l8.07-8.178 9.116-9.062c-2.418 2.155-9.062 2.845-11.062 3.046-7.728.938-16.364.132-22.286-2.201l-.008.008z" fill="url(#prefix__pvcom_bank_paint2_linear)"/><path fill-rule="evenodd" clip-rule="evenodd" d="M26.155 16.426v9.388c2.388-.24 11.326-1.163 11.923-4.434.581-3.202-9.744-4.706-11.923-4.954z" fill="url(#prefix__pvcom_bank_paint3_linear)"/><defs><linearGradient id="prefix__pvcom_bank_paint0_linear" x1="24.876" y1="22.628" x2="13.481" y2="10.163" gradientUnits="userSpaceOnUse"><stop stop-color="#61B9E2"/><stop offset="1" stop-color="#0062A2"/></linearGradient><linearGradient id="prefix__pvcom_bank_paint1_linear" x1="7.109" y1="15.845" x2="12.775" y2="22.256" gradientUnits="userSpaceOnUse"><stop stop-color="#60BBE1"/><stop offset="1" stop-color="#0062A2"/></linearGradient><linearGradient id="prefix__pvcom_bank_paint2_linear" x1="3.861" y1="31.38" x2="37.217" y2="31.38" gradientUnits="userSpaceOnUse"><stop stop-color="#FFDC55"/><stop offset="1" stop-color="#EE8722"/></linearGradient><linearGradient id="prefix__pvcom_bank_paint3_linear" x1="32.241" y1="23.783" x2="30.171" y2="16.403" gradientUnits="userSpaceOnUse"><stop stop-color="#FFDC55"/><stop offset="1" stop-color="#EE8722"/></linearGradient></defs></svg>