<svg viewBox="0 0 40 40" xmlns="http://www.w3.org/2000/svg"><path d="M22.144 13c-4.185 0-7.577 3.42-7.577 7.639s3.392 7.639 7.577 7.639c2.062 0 3.93-.832 5.296-2.179.142-.14.11-.4 0-.512l-1.557-1.574c-.15-.152-.395-.118-.474-.04a4.301 4.301 0 01-3.04 1.267c-2.436 0-4.412-2.063-4.412-4.607 0-2.534 1.96-4.592 4.388-4.607h.025c1.145 0 2.188.456 2.973 1.203.09.086.317.074.45-.06l1.539-1.558c.073-.074.211-.32.054-.484A7.516 7.516 0 0022.144 13zm-15.532.374c-.112.01-.351.077-.485.456-.179.506-5.047 13.526-5.047 13.526s-.248.514.129.514h2.816s.305-.016.476-.544l.893-2.767h5.183l.914 2.866s.11.445.526.445h2.965s.317-.019.119-.465-4.998-13.634-4.998-13.634-.079-.397-.614-.397H6.672s-.023-.003-.06 0zm22.28 0s-.35-.011-.35.362v13.775s.001.359.343.359h5.78s2.597.007 3.966-1.362c1.369-1.37.996-3.407.996-3.407s-.327-2.334-2.91-2.925c0 0 2.319-.653 2.17-3.375-.217-2.383-2.368-3.427-4.604-3.427h-5.39zm2.84 2.532h2.123s1.79 0 1.813 1.657c.023 1.657-1.875 1.618-1.875 1.618h-2.061v-3.275zm-23.731.582L9.761 22H6.22L8 16.487zm23.731 5.081h2.404s2.185.015 2.2 1.905c.016 1.89-2.1 1.89-2.1 1.89h-2.504V21.57z" fill="#1F419B"/><path d="M25.09 20.63a2.603 2.603 0 11-5.206 0 2.603 2.603 0 015.207 0z" fill="#00AEEF"/></svg>