<svg viewBox="0 0 40 40" xmlns="http://www.w3.org/2000/svg"><path d="M2.46 8.396c1.461-1.481 3.518-2.328 5.59-2.39 2.216-.073 4.453.781 6.032 2.342 1.633 1.634 3.267 3.265 4.9 4.898.33.347.695.662 1 1.033-2.768 2.759-5.529 5.528-8.294 8.292-1.149 1.136-2.272 2.298-3.44 3.416-1.616-1.612-3.23-3.227-4.843-4.841-.641-.65-1.32-1.268-1.852-2.015a8.33 8.33 0 01-1.444-6.174 8.182 8.182 0 012.35-4.56v-.001z" fill="#00BAF2"/><path d="M30.158 6.148c2.022-.397 4.178.018 5.932 1.094a8.295 8.295 0 013.485 4.411 8.369 8.369 0 01-.518 6.49 8.421 8.421 0 01-1.55 2.085c-1.919 1.912-3.829 3.832-5.749 5.745-.094-.087-.189-.171-.284-.257-3.84-3.804-7.645-7.64-11.472-11.456 1.973-1.975 3.944-3.951 5.92-5.92a8.279 8.279 0 014.234-2.19l.002-.002z" fill="#FCAF17"/><path d="M19.983 14.277l.02-.018c3.826 3.817 7.633 7.653 11.471 11.457l.275.264c-1.528 1.532-3.06 3.06-4.59 4.592-.575.565-1.127 1.157-1.732 1.69a8.22 8.22 0 01-4.544 1.975c-1.787.19-3.64-.201-5.171-1.146-.795-.466-1.47-1.101-2.113-1.753l-5.351-5.352c1.168-1.119 2.29-2.281 3.44-3.417 2.765-2.764 5.526-5.531 8.295-8.292z" fill="#20409A"/></svg>