<svg viewBox="0 0 16 16" xmlns="http://www.w3.org/2000/svg">
    <path
        d="M12.52 12.8V7.89333L13.3733 7.60889L12.2356 5.90222C12.0222 5.54667 11.5956 5.40444 11.1689 5.54667L5.83556 7.46667V3.91111H10.8133C11.7378 3.91111 12.52 3.34222 12.7333 2.41778L13.3022 0.213333L12.0933 0.711111C11.1689 1.06667 10.1733 1.28 9.17778 1.28H5.76444V0L3.77333 1.92V12.8711H1C1 14.4356 2.20889 15.7867 3.77333 16H12.3778C13.3022 16 14.0844 15.4311 14.44 14.5778L15.1511 12.8711H12.4489L12.52 12.8ZM5.83556 12.8V10.1689L10.5289 8.53333V12.8H5.83556Z"
        fill="white" />
</svg>