<svg viewBox="0 0 24 24" xmlns="http://www.w3.org/2000/svg">
    <rect width="24" height="24" fill="#595288" />
    <path transform="translate(-0.952148)"
        d="M16.3113 16.1999V12.0599L17.0313 11.8199L16.0713 10.3799C15.8913 10.0799 15.5313 9.9599 15.1713 10.0799L10.6713 11.6999V8.6999H14.8713C15.6513 8.6999 16.3113 8.2199 16.4913 7.4399L16.9713 5.5799L15.9513 5.9999C15.1713 6.2999 14.3313 6.4799 13.4913 6.4799H10.6113V5.3999L8.93131 7.0199V16.2599H6.59131C6.59131 17.5799 7.61131 18.7199 8.93131 18.8999H16.1913C16.9713 18.8999 17.6313 18.4199 17.9313 17.6999L18.5313 16.2599H16.2513L16.3113 16.1999ZM10.6713 16.1999V13.9799L14.6313 12.5999V16.1999H10.6713Z"
        fill="white" />
</svg>