<svg viewBox="0 0 16 16" xmlns="http://www.w3.org/2000/svg">
    <path
        d="M10.7856 15.6835L4.0758 11.3159C3.56941 10.9994 3.18962 10.493 3.06302 9.92327C2.93642 9.10037 3.18962 8.21417 3.69602 7.58118L12.3681 13.2149C13.0644 13.658 13.2543 14.5441 12.8112 15.2404C12.3681 15.9367 11.4819 16.1266 10.7856 15.6835Z"
        fill="#38D200" />
    <path
        d="M4.45593 6.69494C3.82293 6.25184 3.37981 5.42894 3.44311 4.66934C3.44311 3.84645 3.82293 3.08685 4.45593 2.64375L8.1273 0.238361C8.8236 -0.204737 9.70981 -0.0148375 10.1529 0.68146C10.596 1.37776 10.4061 2.26395 9.7098 2.70705L6.60809 4.73264L11.862 8.15083C12.4317 8.46733 12.8115 8.97373 13.0014 9.60672C13.128 10.4296 12.8748 11.2525 12.3684 11.9488L4.45593 6.75824V6.69494ZM4.45593 15.9367C4.77242 15.9367 5.02562 15.8734 5.27881 15.6835L7.0512 14.5441L5.27881 13.4047C5.02562 13.2148 4.77242 13.1515 4.45593 13.1515C3.69633 13.1515 3 13.7845 3 14.5441C3 15.3037 3.63301 16 4.3926 16L4.45593 15.9367Z"
        fill="#0473EA" />
    <path
        d="M11.3078 3.08679C10.9913 3.08679 10.786 3.27669 10.5328 3.46659L8.76044 4.60599L10.5328 5.74538C10.786 5.93528 11.0392 5.99858 11.3557 5.99858C12.1153 5.99858 12.8116 5.36558 12.8116 4.54269C12.8116 3.71979 12.1786 3.08679 11.3557 3.08679"
        fill="#38D200" />
</svg>