<svg viewBox="0 0 16 16" xmlns="http://www.w3.org/2000/svg"><path d="M10.786 15.684l-6.71-4.368c-.507-.317-.886-.823-1.013-1.393a3.094 3.094 0 01.633-2.342l8.672 5.634c.696.443.886 1.33.443 2.025a1.447 1.447 0 01-2.025.444z" fill="#38D200"/><path d="M4.456 6.695c-.633-.443-1.076-1.266-1.013-2.026 0-.823.38-1.582 1.013-2.025L8.127.238a1.447 1.447 0 012.026.443 1.447 1.447 0 01-.443 2.026L6.608 4.733l5.254 3.418c.57.316.95.823 1.14 1.456.126.823-.127 1.646-.634 2.342l-7.912-5.19v-.064zm0 9.242c.316 0 .57-.064.823-.253l1.772-1.14-1.772-1.14c-.253-.19-.507-.252-.823-.252-.76 0-1.456.633-1.456 1.392C3 15.304 3.633 16 4.393 16l.063-.063z" fill="#0473EA"/><path d="M11.308 3.087c-.317 0-.522.19-.775.38L8.76 4.606l1.773 1.14c.253.19.506.253.823.253.76 0 1.456-.633 1.456-1.456s-.633-1.456-1.456-1.456" fill="#38D200"/></svg>