<svg width="136" height="136" fill="none" xmlns="http://www.w3.org/2000/svg"><path d="M91.335 88.565a3.048 3.048 0 01-.533 1.888 1.708 1.708 0 01-1.431.695 1.855 1.855 0 01-1.628-.79l-.023.696h-.533V83.85h.567v2.871a1.79 1.79 0 011.61-.831 1.73 1.73 0 011.442.688c.384.562.57 1.235.529 1.915v.072zm-.57-.099a2.645 2.645 0 00-.378-1.556 1.3 1.3 0 00-1.115-.548 1.51 1.51 0 00-1.51 1.047v2.293a1.511 1.511 0 001.51.959 1.284 1.284 0 001.103-.552 2.803 2.803 0 00.397-1.643M94.172 90.26l1.51-4.276h.617L94.1 91.938l-.117.26a1.375 1.375 0 01-1.307.926c-.148 0-.296-.022-.438-.064v-.465l.294.026c.243.012.481-.06.677-.204.208-.19.361-.432.441-.702l.254-.688-1.942-5.043h.623l1.587 4.276zM101.76 90.224l.037.147.046-.147 2.176-5.999h.642l-2.576 6.849h-.563l-2.58-6.849h.638l2.18 5.999zM106.266 88.281v2.788h-.585v-6.845h2.357a2.491 2.491 0 011.704.548 2.12 2.12 0 01.022 2.988 2.576 2.576 0 01-1.741.521h-1.757zm0-.487h1.772c.468.033.931-.11 1.299-.4a1.416 1.416 0 00.446-1.134 1.468 1.468 0 00-.446-1.133 1.77 1.77 0 00-1.261-.43h-1.814l.004 3.097zM111.68 91.073v-6.849h2.048a2.669 2.669 0 011.688.457 1.597 1.597 0 01.574 1.338c.008.332-.094.657-.291.925-.202.265-.482.46-.8.56.382.076.725.285.97.589.247.295.381.668.378 1.053a1.75 1.75 0 01-.593 1.417 2.441 2.441 0 01-1.647.51h-2.327zm.586-3.777h1.598c.405.016.803-.104 1.133-.34a1.165 1.165 0 00.4-.956 1.135 1.135 0 00-.415-.971 2.06 2.06 0 00-1.258-.314h-1.462l.004 2.58zm0 .49v2.796h1.756a1.77 1.77 0 001.194-.378 1.317 1.317 0 00.438-1.05 1.269 1.269 0 00-.419-1.001 1.713 1.713 0 00-1.164-.378l-1.805.012zM121.392 89.147h-3.155l-.714 1.927h-.615l2.621-6.849h.559l2.622 6.849h-.612l-.706-1.927zm-2.966-.487h2.781l-1.391-3.728-1.39 3.728zM128.895 91.074h-.586l-3.981-5.86v5.86h-.589v-6.849h.589l3.989 5.863v-5.863h.578v6.849zM132.218 87.674l-.978.948v2.452h-.586v-6.849h.586v3.69l3.551-3.69h.736l-2.901 3.049 3.124 3.8h-.71l-2.822-3.4z" fill="#434343"/><path d="M16.81 47.93a2.266 2.266 0 100-4.533 2.285 2.285 0 000 4.57M7.147 47.929a2.285 2.285 0 10-.872-4.397 2.267 2.267 0 00-1.394 2.111 2.267 2.267 0 002.266 2.286zM23.122 50.108h-3.358V65.31a7.89 7.89 0 01-2.312 5.666 7.213 7.213 0 01-5.318 2.32 7.309 7.309 0 01-5.365-2.32 7.846 7.846 0 01-2.266-5.666v-15.2H0V65.27c0 3.457 1.133 6.35 3.377 8.636 2.244 2.285 5.134 3.453 8.602 3.453s6.323-1.168 8.56-3.453c2.236-2.285 3.422-5.18 3.422-8.636V50.108h-.838zM98.82 50.053c-3.4 0-6.217 1.16-8.461 3.43-2.244 2.27-3.366 5.096-3.366 8.522v15.356H91.1V62.156a7.843 7.843 0 012.331-5.643 7.304 7.304 0 015.368-2.324 7.393 7.393 0 015.413 2.324 7.792 7.792 0 012.29 5.643v15.205h4.102V62.005c0-3.426-1.133-6.252-3.366-8.522a11.362 11.362 0 00-8.416-3.43zM135.312 76.514L124.38 63.402l10.052-13.293H129.574l-11.771 15.246V43.234h-4.117V77.36h4.253l.004-5.897 3.989-5.043 8.337 10.094.703.846H136l-.688-.846zM84.05 71.396v-7.71a12.341 12.341 0 00-3.701-9.418 13.276 13.276 0 00-9.444-4.204 12.712 12.712 0 00-9.86 3.883 13.316 13.316 0 00-4.117 9.784 13.222 13.222 0 003.842 9.463 13.12 13.12 0 009.3 4.155 12.822 12.822 0 009.977-4.042v4.054h4.011v-5.965h-.007zm-13.56 1.889c-5.138.015-9.293-4.269-9.293-9.55 0-5.281 4.155-9.546 9.292-9.546 5.138 0 9.3 4.284 9.3 9.565 0 5.28-4.155 9.565-9.3 9.565M50.11 53.946a12.703 12.703 0 00-9.823-3.883 12.949 12.949 0 00-9.137 3.955v-10.66h-4.092v20.327c-.094 3.747 1.25 6.992 4.08 9.735 2.83 2.742 6.124 4.068 9.928 3.928a13.253 13.253 0 009.368-4.155 13.193 13.193 0 003.85-9.444c0-3.777-1.395-7.041-4.156-9.784l-.019-.019zm-9.426 19.398c-5.175-.019-9.33-4.302-9.33-9.583 0-5.282 4.155-9.573 9.315-9.573 5.16 0 9.32 4.28 9.32 9.561s-4.175 9.565-9.32 9.565" fill="#FCB717"/></svg>