<svg width="136" height="136" viewBox="0 0 136 136" fill="none" xmlns="http://www.w3.org/2000/svg">
    <path transform="translate(0,42.5)"
        d="M91.335 46.0645C91.3705 46.7356 91.1833 47.3996 90.8024 47.9533C90.6381 48.1767 90.4219 48.3567 90.1725 48.4778C89.923 48.5989 89.6478 48.6574 89.3707 48.6483C89.0545 48.6667 88.7388 48.6038 88.4538 48.4656C88.1688 48.3274 87.9239 48.1185 87.7426 47.8588L87.7199 48.5539H87.1873V41.3501H87.7539V44.221C87.924 43.9519 88.1628 43.7331 88.4457 43.587C88.7285 43.4409 89.0452 43.3729 89.3631 43.39C89.6412 43.3801 89.9176 43.4374 90.1688 43.5571C90.42 43.6768 90.6387 43.8553 90.8062 44.0775C91.1898 44.6396 91.3758 45.3133 91.335 45.9927V46.0645ZM90.7646 45.9663C90.8026 45.4209 90.6706 44.8772 90.3869 44.4099C90.2616 44.2329 90.094 44.09 89.8993 43.9943C89.7047 43.8986 89.4892 43.8532 89.2725 43.8622C88.9406 43.8462 88.6127 43.94 88.3396 44.1292C88.0664 44.3183 87.8632 44.5923 87.7614 44.9085V47.2015C87.8782 47.5016 88.0878 47.7565 88.3596 47.9291C88.6314 48.1017 88.9512 48.183 89.2725 48.161C89.4878 48.169 89.7018 48.1227 89.8945 48.0263C90.0873 47.9299 90.2527 47.7866 90.3755 47.6095C90.6737 47.1156 90.8122 46.5418 90.7722 45.9663"
        fill="#434343" />
    <path transform="translate(0,42.5)"
        d="M94.1718 47.7603L95.6828 43.4841H96.2985L94.1 49.4375L93.9829 49.6982C93.889 49.9696 93.7125 50.2049 93.478 50.3709C93.2436 50.5369 92.9631 50.6253 92.6759 50.6237C92.5275 50.6233 92.3799 50.6017 92.2377 50.5595V50.0948L92.5323 50.1213C92.7745 50.1331 93.0133 50.061 93.2085 49.9173C93.4173 49.7279 93.5702 49.4849 93.6505 49.2147L93.9036 48.5271L91.9619 43.4841H92.5852L94.1718 47.7603Z"
        fill="#434343" />
    <path transform="translate(0,42.5)"
        d="M101.76 47.724L101.797 47.8713L101.843 47.724L104.019 41.7252H104.661L102.085 48.574H101.522L98.9417 41.7252H99.58L101.76 47.724Z"
        fill="#434343" />
    <path transform="translate(0,42.5)"
        d="M106.266 45.7815V48.5693H105.681V41.7243H108.038C108.654 41.6894 109.261 41.8846 109.742 42.2721C110.139 42.6661 110.365 43.2016 110.369 43.7614C110.373 44.3213 110.156 44.8601 109.764 45.2601C109.266 45.6397 108.647 45.8251 108.023 45.7815H106.266ZM106.266 45.2941H108.038C108.506 45.3266 108.969 45.1839 109.337 44.8937C109.491 44.7497 109.611 44.5733 109.688 44.3773C109.765 44.1813 109.797 43.9706 109.783 43.7605C109.794 43.5507 109.759 43.3412 109.682 43.1457C109.606 42.9503 109.488 42.7735 109.337 42.6272C108.989 42.3248 108.536 42.1703 108.076 42.1965H106.262L106.266 45.2941Z"
        fill="#434343" />
    <path transform="translate(0,42.5)"
        d="M111.68 48.5731V41.7243H113.728C114.326 41.6828 114.921 41.8438 115.416 42.1814C115.611 42.3427 115.765 42.5482 115.865 42.7807C115.965 43.0132 116.008 43.2662 115.99 43.5187C115.998 43.8508 115.896 44.176 115.699 44.4442C115.497 44.7092 115.217 44.9046 114.899 45.0033C115.281 45.0805 115.624 45.289 115.869 45.5926C116.116 45.888 116.25 46.2615 116.247 46.6465C116.262 46.9121 116.216 47.1774 116.113 47.4227C116.01 47.668 115.853 47.8869 115.654 48.0631C115.185 48.4278 114.6 48.6091 114.007 48.5731H111.68ZM112.266 44.7955H113.864C114.269 44.8115 114.667 44.6918 114.997 44.4555C115.133 44.3382 115.24 44.1907 115.31 44.0249C115.379 43.859 115.409 43.6792 115.397 43.4998C115.412 43.3164 115.382 43.1322 115.31 42.963C115.237 42.7939 115.125 42.6449 114.982 42.5289C114.607 42.2917 114.166 42.1817 113.724 42.2154H112.262L112.266 44.7955ZM112.266 45.2866V48.082H114.022C114.453 48.1059 114.877 47.9715 115.216 47.7042C115.363 47.573 115.478 47.4106 115.554 47.2288C115.63 47.0471 115.664 46.8507 115.654 46.654C115.663 46.4666 115.629 46.2795 115.557 46.1064C115.484 45.9333 115.374 45.7785 115.235 45.653C114.907 45.388 114.492 45.2535 114.071 45.2752L112.266 45.2866Z"
        fill="#434343" />
    <path transform="translate(0,42.5)"
        d="M121.392 46.6474H118.237L117.523 48.574H116.908L119.529 41.7252H120.088L122.71 48.574H122.098L121.392 46.6474ZM118.426 46.1601H121.207L119.816 42.4316L118.426 46.1601Z"
        fill="#434343" />
    <path transform="translate(0,42.5)"
        d="M128.895 48.574H128.309L124.328 42.7149V48.574H123.739V41.7252H124.328L128.317 47.588V41.7252H128.895V48.574Z"
        fill="#434343" />
    <path transform="translate(0,42.5)"
        d="M132.218 45.1741L131.24 46.1223V48.574H130.654V41.7252H131.24V45.4159L134.791 41.7252H135.527L132.626 44.7737L135.75 48.574H135.04L132.218 45.1741Z"
        fill="#434343" />
    <path transform="translate(0,42.5)"
        d="M16.8108 5.42992C17.412 5.42992 17.9885 5.19112 18.4135 4.76606C18.8386 4.341 19.0774 3.7645 19.0774 3.16337C19.0774 2.56225 18.8386 1.98574 18.4135 1.56068C17.9885 1.13563 17.412 0.89683 16.8108 0.89683C16.2047 0.89683 15.6234 1.13762 15.1948 1.56622C14.7662 1.99482 14.5254 2.57613 14.5254 3.18226C14.5254 3.7884 14.7662 4.3697 15.1948 4.79831C15.6234 5.22691 16.2047 5.46769 16.8108 5.46769"
        fill="#FCB717" />
    <path transform="translate(0,42.5)"
        d="M7.14724 5.42872C7.75337 5.42872 8.33468 5.18793 8.76328 4.75933C9.19189 4.33073 9.43267 3.74942 9.43267 3.14328C9.43267 2.53715 9.19189 1.95584 8.76328 1.52724C8.33468 1.09864 7.75337 0.857853 7.14724 0.857853C6.848 0.857843 6.55171 0.917088 6.27548 1.03217C5.99926 1.14726 5.74855 1.3159 5.53783 1.52837C5.32712 1.74084 5.16056 1.99294 5.04777 2.27011C4.93499 2.54729 4.8782 2.84405 4.88069 3.14328C4.8782 3.44252 4.93499 3.73928 5.04777 4.01645C5.16056 4.29363 5.32712 4.54572 5.53783 4.7582C5.74855 4.97067 5.99926 5.13931 6.27548 5.2544C6.55171 5.36948 6.848 5.42873 7.14724 5.42872Z"
        fill="#FCB717" />
    <path transform="translate(0,42.5)"
        d="M23.1225 7.60818H19.7643V22.8091C19.7758 23.86 19.5773 24.9026 19.1803 25.8757C18.7833 26.8487 18.1958 27.7327 17.4524 28.4755C16.7748 29.2094 15.9521 29.7945 15.0366 30.1938C14.121 30.593 13.1324 30.7978 12.1336 30.7949C11.128 30.7981 10.1326 30.5937 9.2096 30.1946C8.28661 29.7955 7.4559 29.2103 6.76941 28.4755C6.03227 27.7303 5.45192 26.8449 5.06263 25.8717C4.67334 24.8985 4.48301 23.8571 4.50287 22.8091V7.60818H0V22.7714C0 26.2278 1.13327 29.1215 3.37715 31.4069C5.62103 33.6923 8.51087 34.8596 11.9787 34.8596C15.4465 34.8596 18.3023 33.6923 20.5387 31.4069C22.775 29.1215 23.9611 26.2278 23.9611 22.7714V7.60818H23.1225Z"
        fill="#FCB717" />
    <path transform="translate(0,42.5)"
        d="M98.8207 7.55307C95.4209 7.55307 92.6029 8.71278 90.359 10.9831C88.1151 13.2534 86.9932 16.079 86.9932 19.5053V34.8611H91.0994V19.6564C91.0908 18.6076 91.2926 17.5678 91.6929 16.5984C92.0933 15.629 92.684 14.7498 93.4301 14.0127C94.1165 13.2764 94.9476 12.69 95.8713 12.2902C96.7951 11.8904 97.7915 11.6859 98.7981 11.6895C99.8114 11.6851 100.815 11.889 101.746 12.2886C102.677 12.6883 103.516 13.2751 104.211 14.0127C104.952 14.752 105.536 15.6325 105.929 16.602C106.322 17.5716 106.517 18.6103 106.501 19.6564V34.8611H110.603V19.5053C110.603 16.079 109.47 13.2534 107.237 10.9831C106.146 9.86316 104.835 8.98048 103.387 8.39029C101.938 7.8001 100.384 7.51508 98.8207 7.55307Z"
        fill="#FCB717" />
    <path transform="translate(0,42.5)"
        d="M135.312 34.014L124.38 20.9021L134.432 7.60879H133.971H129.574L117.803 22.8551V0.733612H114.147H113.686V34.8602H117.478H117.939L117.943 28.9634L121.932 23.9204L130.269 34.014L130.972 34.8602H135.543H136L135.312 34.014Z"
        fill="#FCB717" />
    <path transform="translate(0,42.5)"
        d="M84.0509 28.8958V21.3671V21.1858C84.1343 19.4436 83.8476 17.7035 83.2094 16.0802C82.5713 14.4569 81.5964 12.9873 80.3489 11.7683C79.1359 10.4715 77.6751 9.43119 76.053 8.70901C74.4308 7.98682 72.6803 7.59743 70.9049 7.56388C69.0789 7.46385 67.2528 7.759 65.5512 8.42918C63.8497 9.09937 62.3128 10.1288 61.0455 11.4472C59.7249 12.7085 58.678 14.228 57.9696 15.9111C57.2613 17.5943 56.9067 19.4051 56.9279 21.2311C56.9088 22.9844 57.2387 24.7239 57.8982 26.3485C58.5578 27.973 59.5339 29.4502 60.7697 30.694C61.9646 31.9717 63.4029 32.9975 65.0001 33.7111C66.5973 34.4247 68.3211 34.8117 70.0701 34.8493C71.9266 34.939 73.7804 34.6239 75.5031 33.926C77.2258 33.2281 78.7761 32.1639 80.0466 30.8073V34.8606H84.0584V28.8958H84.0509ZM70.4894 30.7846C65.3519 30.7997 61.1966 26.516 61.1966 21.2349C61.1966 15.9539 65.3519 11.689 70.4894 11.689C75.6269 11.689 79.7898 15.9728 79.7898 21.2538C79.7898 26.5348 75.6344 30.8186 70.4894 30.8186"
        fill="#FCB717" />
    <path transform="translate(0,42.5)"
        d="M50.1091 11.4464C48.8463 10.1325 47.3156 9.10573 45.6209 8.43569C43.9263 7.76564 42.1073 7.46802 40.2874 7.56305C38.5786 7.58672 36.8914 7.94839 35.3231 8.62721C33.7548 9.30602 32.3363 10.2886 31.1495 11.5182V0.857853H27.0584V21.185C26.9639 24.9323 28.3087 28.1773 31.1381 30.9198C33.9675 33.6623 37.2616 34.9882 41.0656 34.8485C42.8248 34.8125 44.5593 34.4265 46.1677 33.7131C47.7762 32.9997 49.2265 31.973 50.434 30.6931C51.6702 29.4532 52.6473 27.9796 53.3082 26.3582C53.9691 24.7368 54.3006 23 54.2833 21.2492C54.2833 17.4716 52.8894 14.2078 50.128 11.4653L50.1091 11.4464ZM40.6841 30.8442C35.5088 30.8253 31.3535 26.5416 31.3535 21.2605C31.3535 15.9795 35.5088 11.6882 40.6689 11.6882C45.8291 11.6882 49.9882 15.9681 49.9882 21.2492C49.9882 26.5302 45.814 30.814 40.6689 30.814"
        fill="#FCB717" />
</svg>