<svg viewBox="0 0 16 16" xmlns="http://www.w3.org/2000/svg">
    <path
        d="M11.048 12.1566C11.048 12.1566 11.109 11.9736 11.17 12.2176C11.17 12.9497 10.987 13.6818 10.56 14.2308C9.82789 15.0239 8.72979 15.3289 7.69269 15.1459C8.9128 15.0239 9.9499 14.1698 10.2549 13.0107V12.7667C10.621 12.6447 10.865 12.4617 11.109 12.1566M15.7454 5.93407C15.7454 5.93407 15.7454 5.93407 15.7454 5.87306C15.7454 5.87306 15.7454 5.75105 15.6234 5.50703C15.6234 5.50703 15.6234 5.50703 15.6234 5.44602C15.4404 5.01898 15.1354 4.59194 14.7693 4.22591C14.7693 4.22591 15.2574 4.22591 14.7693 3.61585C14.0373 2.88379 13.1832 2.27373 12.2681 1.84669C11.353 1.41965 10.3769 1.60267 10.4379 2.57876C10.4379 3.0668 10.0719 3.49384 9.58387 3.49384C9.52286 3.49384 9.40085 3.49384 9.33984 3.49384C8.72979 3.43284 8.36375 2.94479 8.48576 2.51775C8.60778 2.09071 8.79079 1.72468 9.15683 1.48066C9.40085 1.29764 9.64487 1.11462 9.9499 1.11462C10.1939 1.11462 10.56 0.99261 10.621 1.29764C10.804 1.17563 11.109 0.626577 10.0719 0.626577C10.0109 0.44356 9.76688 0.321548 9.58387 0.382554C9.03482 -0.166497 8.11973 -0.105491 7.57068 0.443559C7.57068 0.443559 7.50967 0.565571 7.44867 0.626577C7.44867 0.626577 7.02163 0.809593 6.96062 0.626577C7.02163 0.687582 7.20465 0.443559 6.96062 0.382554C6.83861 0.382554 6.7166 0.443559 6.7166 0.565571C6.7166 0.687582 6.77761 0.809593 6.89962 0.870599C6.89962 0.870599 7.02163 0.870599 7.08263 0.870599V0.99261C6.65559 1.11462 6.35057 0.99261 6.28956 0.809593C6.35057 0.809593 6.41157 0.809593 6.47258 0.809593C6.47258 0.687582 6.47258 0.626576 6.35057 0.565571C6.16755 0.565571 6.10654 0.748588 6.10654 0.931605C6.16755 1.23663 6.47258 1.41965 6.77761 1.35864V1.48066C6.47258 1.78568 6.22855 2.09071 6.04554 2.45675C5.74051 3.0058 4.5204 3.55485 4.70341 2.27373C4.76442 1.84669 4.09336 1.41965 2.93425 2.21272C2.14118 2.76177 1.47011 3.49384 0.982068 4.34792C0.982068 4.34792 0.738045 4.77496 1.16508 4.77496C1.16508 4.77496 0.311006 5.202 0.25 7.09318V7.45921C0.25 7.70323 0.25 7.94725 0.25 8.06927C0.25 8.55731 0.372011 8.98435 0.555028 9.41139C0.616034 9.41139 0.67704 9.4724 0.799051 9.41139C0.982068 10.2045 1.22609 11.0585 1.59212 11.7906C2.01916 12.6447 2.81224 13.9258 2.50721 14.2308C2.20218 14.5359 1.77514 13.9258 1.83615 14.1698C1.89715 14.4749 2.26319 14.7189 2.56821 14.6579C2.62922 14.6579 2.75123 14.6579 2.81224 14.5359C3.54431 13.9258 2.4462 12.5837 2.14118 10.8145C2.87324 10.5095 2.81224 9.41139 2.81224 9.41139C3.4833 9.35038 3.97134 8.86234 4.09336 8.19128C4.76442 8.37429 5.49649 8.13027 5.86252 7.45921C5.98453 7.82524 6.22856 8.19128 6.53358 8.4353C6.47258 8.74033 6.22856 9.04536 5.92353 9.10636C5.43548 8.92335 4.94744 8.92335 4.45939 9.10636C3.78833 9.41139 4.03235 10.1435 4.5204 9.96044C4.39838 9.96044 4.33738 9.77742 4.39838 9.71642C4.39838 9.65541 4.45939 9.59441 4.5814 9.59441C4.5814 9.59441 4.70341 9.65541 4.76442 9.65541C5.13045 9.65541 5.49649 9.65541 5.80152 9.59441H5.86252C5.86252 9.59441 5.92353 9.59441 5.98453 9.5334C6.10654 9.5334 6.16755 9.65541 6.16755 9.71642C6.16755 9.77742 6.16755 9.83843 6.04554 9.83843C6.22855 9.83843 6.47258 9.77742 6.47258 9.59441C6.47258 9.4724 6.47258 9.35038 6.47258 9.28938C6.47258 9.28938 6.53358 9.22837 6.7166 9.10636C6.77761 9.04536 6.89962 8.92335 6.96062 8.80133C7.32666 9.04536 7.69269 9.22837 8.11973 9.28938C7.87571 9.65541 7.57068 9.96044 7.14364 10.0825C6.7166 9.96044 6.16755 9.96044 5.74051 10.1435C5.55749 10.2655 5.43548 10.4485 5.49649 10.6315C5.49649 10.8755 5.74051 11.0585 5.98453 10.9975C5.86252 10.9365 5.55749 10.6315 5.98453 10.5095C5.98453 10.5705 6.10654 10.6315 6.22856 10.6925C6.59459 10.7535 7.02163 10.6925 7.38766 10.5095C7.38766 10.5095 7.38766 10.5095 7.44867 10.5095C7.44867 10.5095 7.50967 10.5095 7.50967 10.4485C7.69269 10.4485 7.93671 10.4485 7.8147 10.8145C7.99772 10.8145 8.36375 10.4485 7.8147 10.1435C7.99772 10.0214 8.18074 9.96044 8.30275 9.77742L8.66878 9.41139C9.33984 9.5334 9.82789 10.2045 9.82789 10.8755C9.82789 11.5466 9.33984 12.1566 8.72979 12.4007C8.72979 12.4007 8.72979 12.4007 8.79079 12.4007H8.72979C8.60777 12.4007 8.54677 12.4007 8.42476 12.4007C7.8147 12.4007 8.18074 11.7296 8.18074 11.7296C8.05872 11.7296 7.99772 11.7296 7.93671 11.8516C7.8147 12.0346 7.8147 12.2176 7.87571 12.4007H7.8147C7.32666 12.1566 7.32666 11.7906 7.32666 11.7906C7.20465 11.8516 7.08263 12.0346 7.14364 12.3397C7.20465 12.7057 7.69269 12.8887 8.11973 12.9497C8.48576 13.3158 9.03482 13.4378 9.58387 13.2547C9.58387 13.2547 9.21783 15.2069 6.7166 15.1459C6.7166 15.1459 5.98453 14.8409 5.98453 14.2308C5.98453 13.7428 6.22855 13.3158 6.59459 13.0717C6.16755 13.0717 5.74051 13.3158 5.6185 13.8038C5.49649 14.2308 5.6185 14.6579 5.80152 14.9629C4.88643 14.7189 4.15436 13.9868 4.45939 13.0107C4.45939 12.8277 4.5814 12.7057 4.70341 12.5837C5.19146 12.2177 5.86252 12.0956 6.47258 12.3397C6.35057 11.9736 5.98453 11.7296 5.6185 11.7906C4.76442 11.7906 4.03235 12.4007 3.97135 13.2547C3.97135 13.2547 3.97135 13.2547 3.97135 13.3158C3.91034 14.4749 4.64241 15.2679 6.41157 15.512C7.20465 16 8.11973 16.122 9.03481 15.878C9.03481 15.878 12.1461 15.2679 11.475 11.7296C11.475 11.7296 12.2071 9.35038 10.682 8.06927C11.292 8.4963 12.0851 8.61832 12.7562 8.37429C12.6952 10.5095 13.6102 10.8145 13.6102 10.8145C13.6102 10.8145 11.9021 14.4749 12.8782 14.9019C13.1832 15.0849 13.6102 14.9019 13.7933 14.5969C13.7933 14.5969 13.7933 14.5969 13.7933 14.5359C13.9763 14.1698 13.4272 14.9019 13.1222 14.5359C12.7562 14.1698 13.1832 13.3158 13.6712 12.3397C14.1593 11.4856 14.5253 10.5095 14.7693 9.5334C14.7693 9.5334 14.8914 9.5334 14.9524 9.5334C15.1964 9.5334 15.3794 8.49631 15.3794 8.31329C15.5624 7.64223 15.5624 6.97116 15.3794 6.3001"
        fill="white" />
</svg>