<svg viewBox="0 0 16 16" xmlns="http://www.w3.org/2000/svg"><path d="M11.048 12.157s.061-.183.122.06c0 .733-.183 1.465-.61 2.014-.732.793-1.83 1.098-2.867.915 1.22-.122 2.257-.976 2.562-2.135v-.244c.366-.122.61-.305.854-.61m4.636-6.223v-.06s0-.123-.122-.367v-.061a4.029 4.029 0 00-.854-1.22s.488 0 0-.61a8.885 8.885 0 00-2.5-1.77c-.916-.426-1.892-.243-1.831.733 0 .488-.366.915-.854.915H9.34c-.61-.061-.976-.55-.854-.976.122-.427.305-.793.67-1.037.245-.183.489-.366.794-.366.244 0 .61-.122.671.183.183-.122.488-.671-.55-.671a.415.415 0 00-.487-.244c-.55-.55-1.464-.488-2.013.06 0 0-.061.123-.122.184 0 0-.427.183-.488 0 .06.06.244-.183 0-.244-.122 0-.244.06-.244.183 0 .122.06.244.183.305h.183v.122c-.427.122-.732 0-.793-.183h.183c0-.122 0-.183-.122-.244-.183 0-.244.183-.244.366a.562.562 0 00.67.427v.122c-.304.305-.548.61-.731.976-.305.549-1.526 1.098-1.343-.183.061-.427-.61-.854-1.769-.061A6.555 6.555 0 00.982 4.348s-.244.427.183.427c0 0-.854.427-.915 2.318v.976c0 .488.122.915.305 1.342.061 0 .122.061.244 0 .183.793.427 1.648.793 2.38.427.854 1.22 2.135.915 2.44-.305.305-.732-.305-.67-.061.06.305.426.549.731.488.061 0 .183 0 .244-.122.732-.61-.366-1.952-.67-3.721.731-.306.67-1.404.67-1.404.671-.06 1.16-.549 1.281-1.22.671.183 1.403-.06 1.77-.732.122.366.366.732.67.976-.06.305-.304.61-.61.671a2.02 2.02 0 00-1.464 0c-.67.305-.427 1.037.061.854-.122 0-.183-.183-.122-.244 0-.06.061-.122.183-.122 0 0 .122.061.183.061.366 0 .732 0 1.038-.06h.06s.062 0 .123-.062c.122 0 .183.122.183.183s0 .122-.122.122c.183 0 .427-.06.427-.244V9.29s.06-.06.244-.183a1.33 1.33 0 00.244-.305c.366.244.732.427 1.159.488-.244.366-.55.671-.976.793-.427-.122-.976-.122-1.403.061-.184.122-.306.305-.245.489 0 .244.245.427.489.366-.122-.061-.428-.366 0-.489 0 .061.122.123.244.184.366.06.793 0 1.159-.184h.06s.062 0 .062-.06c.183 0 .427 0 .305.366.183 0 .549-.367 0-.671.183-.123.366-.184.488-.367l.366-.366c.67.122 1.159.793 1.159 1.465 0 .67-.488 1.28-1.098 1.525h.06-.365c-.61 0-.244-.671-.244-.671-.122 0-.183 0-.244.122a.593.593 0 00-.061.549h-.061c-.488-.244-.488-.61-.488-.61-.122.06-.244.244-.183.549.06.366.549.549.976.61.366.366.915.488 1.464.305 0 0-.366 1.952-2.867 1.89 0 0-.732-.304-.732-.914 0-.488.244-.915.61-1.16-.427 0-.854.245-.976.733-.123.427 0 .854.183 1.159-.916-.244-1.648-.976-1.343-1.952 0-.183.122-.305.244-.427a1.828 1.828 0 011.77-.244c-.122-.366-.488-.61-.854-.55-.855 0-1.587.61-1.648 1.465v.06c-.06 1.16.671 1.953 2.44 2.197.794.488 1.709.61 2.624.366 0 0 3.111-.61 2.44-4.148 0 0 .732-2.38-.793-3.66.61.426 1.403.548 2.074.304-.06 2.135.854 2.44.854 2.44s-1.708 3.66-.732 4.088c.305.183.732 0 .915-.305v-.061c.183-.366-.366.366-.67 0-.367-.366.06-1.22.548-2.196.488-.854.854-1.83 1.098-2.807h.183c.244 0 .427-1.037.427-1.22a3.76 3.76 0 000-2.013" fill="#fff"/></svg>