<svg xmlns="http://www.w3.org/2000/svg" viewBox="0 0 175.9 69"><path d="M78.7 21.9h14.4c7.2 0 9.2 4.5 9.2 7.6 0 4.2-2.4 5.5-3.6 6.1 3.6 1.4 4.6 4.2 4.6 7.2 0 2.4-1 4.6-2.5 6.1-1.7 1.6-3.3 2.7-9.4 2.7H78.8l-.1-29.7zm6 11.6h7.2c2.5 0 4.4-.9 4.4-3.3 0-2.5-1.8-3.2-4.5-3.2h-7.1v6.5zm0 13h7.6c3 0 4.8-1.3 4.8-4.3 0-2.6-2.2-3.6-4.5-3.6h-7.9v7.9zm40.9.8c0 2.6.6 3.2 1.3 3.5v.8h-6.2c-.3-1-.4-1.4-.5-2.6-1.3 1.4-3.2 3.2-7.1 3.2-3.3 0-6.7-1.8-6.7-6.4 0-4.3 2.7-6.5 6.4-7l5.2-.8c.9-.2 2-.5 2-1.8 0-2.5-2.3-2.5-3.8-2.5-2.9 0-3.4 1.8-3.5 3.1h-5.5c.7-6.7 5.3-7.7 9.9-7.7 3.1 0 8.8.9 8.8 6.4v11.9h-.3v-.1zm-5.7-6.4c-.6.5-1.5.8-3.9 1.2-2.2.4-3.9.9-3.9 3.3 0 2 1.5 2.6 2.7 2.6 2.5 0 5.2-1.6 5.2-4.3v-2.8h-.1zm30.8 10.7h-5.8V38.3c0-1.6-.1-4.3-3.8-4.3-2.5 0-4.5 1.8-4.5 5.1v12.6h-5.8V29.8h5.5V33h.1c.8-1.3 2.5-3.8 6.6-3.8 4.3 0 7.6 2.5 7.6 7.3l.1 15.1zm10.6 0h-5.8V21.9h5.8v16l7.3-8.3h7.1l-7.8 8.5 8 13.5H169l-5.3-9.4-2.4 2.4z" fill="#003594"/><path d="M.3 0v69h69V0z" fill="#cf0a2c"/><path d="M43.4 28.2c-1.5-1.8-3.5-2.7-6.2-2.7-1.1 0-2.2.2-3.4.8-.9.4-1.9 1.1-3.1 2l3.5-15.1-.5-.7-9.5.5-.5 2.2.5.1c.5.1 1.1.2 1.6.2.5.1.8.2 1.2.2.3.2.5.3.6.5.2.2.2.6.2 1.2 0 .2 0 .5-.1.7l-6.5 28.4-.1.2.1.2c.4.7.9 1.3 1.4 1.8s1.2 1.1 2 1.5 1.7.8 2.8 1c1.1.2 2.4.4 3.8.4 1.9 0 3.7-.5 5.4-1.3s3.2-2 4.5-3.5 2.4-3.2 3.2-5.2 1.2-4.2 1.2-6.3c.1-3-.6-5.4-2.1-7.1m-3.6 7.2c0 1.8-.2 3.5-.6 5.2s-1.1 3.2-1.9 4.5c-.8 1.2-1.7 2.2-2.8 2.9s-2.2 1.1-3.4 1.1c-.6 0-1.2-.1-1.7-.2-.5-.2-1-.5-1.4-.8-.3-.2-.6-.5-.8-.9-.2-.3-.3-.6-.4-.8L30 32.2c.3-.3.7-.6 1.2-1 .4-.4.8-.7 1.3-1s1-.5 1.5-.8c.5-.2.9-.2 1.5-.2.8 0 1.6.2 2.2.5s1 .8 1.4 1.3c.3.5.5 1.2.7 2-.1.7 0 1.5 0 2.4m-21.6 8c-1.1 1.5-2.2 2.6-3.4 3.5-1.2.8-2.5 1.2-3.9 1.2-1.6 0-2.8-.6-3.9-1.8-1-1.2-1.5-3-1.5-5.2 0-3.6.8-6.7 2.3-9.2s3.2-3.6 5.3-3.6c.6 0 1.2.1 1.8.3.4.2.7.3.8.5-.2.5-.5 1.2-.8 2-.4.9-.5 1.7-.5 2.2 0 .6.2 1.2.8 1.8s1.3.8 2.2.8c1.2 0 2.2-.5 2.7-1.5.5-.9.8-2 .8-3.2 0-1.6-.7-3-2-4s-3.2-1.5-5.5-1.5c-2.2 0-4.2.5-5.9 1.4-1.8.9-3.2 2.2-4.4 3.6-1.2 1.5-2 3.2-2.7 5.1-.2.5-.3 1-.4 1.5v8.3c.5 1.4 1.1 2.5 2.1 3.5 1.7 1.7 4.1 2.6 7 2.6 2.2 0 4.3-.7 6.2-2 1.9-1.3 3.5-2.9 4.7-4.7l.2-.3-2.1-1.5.1.2zm51.1-12.3c-.4-1.1-.9-2.1-1.6-2.8-1.5-1.8-3.5-2.7-6.2-2.7-1.1 0-2.2.2-3.4.8-.9.4-1.9 1.1-3.1 2l3.5-15.1-.5-.7-9.5.5-.5 2.2.5.1c.5.1 1.1.2 1.6.2.5.1.8.2 1.2.2.3.2.5.3.6.5.2.2.2.6.2 1.2 0 .2 0 .5-.1.7l-6.5 28.4-.1.2.1.2c.4.7.9 1.3 1.4 1.8s1.2 1.1 2 1.5 1.7.8 2.8 1c1.1.2 2.4.4 3.8.4 1.9 0 3.7-.5 5.4-1.3 1.7-.8 3.2-2 4.5-3.5s2.4-3.2 3.2-5.2c.2-.5.4-1.2.5-1.7v-8.9h.2zm-5.8 9.5c-.5 1.7-1.1 3.2-1.9 4.5-.8 1.2-1.7 2.2-2.8 2.9s-2.2 1.1-3.4 1.1c-.6 0-1.2-.1-1.7-.2-.5-.2-1-.5-1.4-.8-.3-.2-.6-.5-.8-.9-.2-.3-.3-.6-.4-.8l3.2-14.2c.3-.3.7-.6 1.2-1 .4-.4.8-.7 1.3-1s1-.5 1.5-.8c.5-.2.9-.2 1.5-.2.8 0 1.6.2 2.2.5.5.3 1.1.8 1.4 1.3s.5 1.2.7 2 .2 1.7.2 2.5c-.2 1.6-.4 3.4-.8 5.1" fill="#fff"/></svg>