<svg viewBox="0 0 16 16" xmlns="http://www.w3.org/2000/svg">
    <path
        d="M0.134706 14.1753C1.41441 14.7835 2.69411 15.3918 3.97381 16C4.04116 16 4.10851 16 4.17587 16H7.13938C7.27409 16 7.34144 16 7.34144 15.7973C7.34144 14.9187 7.34144 14.0401 7.34144 13.1616C7.34144 12.283 7.34144 13.094 7.34144 13.0264C7.34144 13.0264 7.20674 13.0264 7.13938 13.094C6.2638 13.5671 5.32086 13.7698 4.31057 13.7022C3.90646 13.7022 3.56969 13.4995 3.30028 13.2291C2.82881 12.7561 2.5594 12.0803 2.62675 11.4044C2.62675 10.8638 2.62675 10.2555 2.76146 9.71489C2.76146 9.03907 3.03087 8.43083 3.30028 7.8226C4.04116 6.20063 5.1188 4.78142 6.3985 3.56494C6.86997 3.15945 7.34144 2.82154 7.81291 2.48363C7.94761 2.41605 8.08232 2.41605 8.14967 2.48363C8.55379 2.75396 8.89055 3.02429 9.29467 3.29461C10.1703 4.1056 10.9785 4.98416 11.652 5.99789C12.3929 6.94404 12.8644 8.09293 13.1338 9.24182C13.3358 10.1204 13.4032 10.9989 13.2685 11.9451C13.2011 12.9588 12.2582 13.7698 11.2479 13.7022C10.7091 13.7022 10.1703 13.6346 9.69878 13.4319C9.36202 13.2967 8.95791 13.1616 8.62114 13.0264V15.7297C8.62114 15.9324 8.62114 15.9324 8.89055 15.9324C9.83349 15.9324 10.7764 15.9324 11.7194 15.9324C11.8541 15.9324 11.9888 15.9324 12.0561 15.8648C13.2685 15.2566 14.5482 14.6484 15.7605 14.1077C16.0299 13.9725 16.0299 13.9725 15.9626 13.7022C15.2891 10.9314 14.5482 8.22809 13.8746 5.45723C13.8746 5.38965 13.8073 5.25449 13.7399 5.18691C13.4705 4.91658 13.1338 4.64625 12.8644 4.37592C12.3255 3.90285 11.7867 3.3622 11.1805 2.88912C10.4397 2.21331 9.69878 1.53749 8.95791 0.861669C8.68849 0.591342 8.35173 0.321014 8.08232 0.0506864C8.08232 -0.0168955 7.94761 -0.0168955 7.88026 0.0506864C7.74556 0.18585 7.61085 0.321014 7.47615 0.388596C6.86997 0.92925 6.33115 1.46991 5.72498 1.94298C5.1188 2.48363 4.51263 3.09187 3.90646 3.63252L2.5594 4.849C2.35734 4.98416 2.22264 5.18691 2.08793 5.45723C1.41441 8.16051 0.740879 10.9314 0 13.7022C0 13.9725 1.20436e-07 14.1077 0.202058 14.1753H0.134706Z"
        fill="#FDC34A" />
</svg>