<svg viewBox="0 0 16 16" xmlns="http://www.w3.org/2000/svg"><path d="M.135 14.175L3.974 16h3.165c.135 0 .202 0 .202-.203v-2.635-.136s-.134 0-.202.068a5.115 5.115 0 01-2.828.608c-.405 0-.741-.203-1.01-.473-.472-.473-.742-1.149-.674-1.825 0-.54 0-1.149.134-1.69 0-.675.27-1.283.54-1.891C4.04 6.2 5.118 4.78 6.398 3.565c.471-.406.942-.743 1.414-1.081.135-.068.27-.068.337 0 .404.27.74.54 1.145.81.875.812 1.684 1.69 2.357 2.704.74.946 1.212 2.095 1.482 3.244.202.878.27 1.757.134 2.703-.067 1.014-1.01 1.825-2.02 1.757-.539 0-1.078-.067-1.55-.27-.336-.135-.74-.27-1.077-.406v2.704c0 .202 0 .202.27.202h2.828c.135 0 .27 0 .337-.067a91.95 91.95 0 013.705-1.757c.269-.136.269-.136.202-.406-.674-2.77-1.415-5.474-2.088-8.245a.513.513 0 00-.135-.27c-.27-.27-.606-.54-.876-.811-.539-.473-1.077-1.014-1.684-1.487L8.959.862C8.688.592 8.352.32 8.082.05c0-.068-.134-.068-.202 0-.134.135-.27.27-.404.338-.606.54-1.145 1.08-1.751 1.554-.606.54-1.212 1.149-1.819 1.69L2.56 4.849c-.202.135-.336.338-.471.608C1.414 8.161.74 10.931 0 13.702c0 .27 0 .406.202.473H.135z" fill="#FDC34A"/></svg>