<svg viewBox="0 0 24 24" fill="none" xmlns="http://www.w3.org/2000/svg">
    <rect width="24" height="24" fill="#0081C5" />
    <path transform="translate(-0.474609)"
        d="M9.11502 15.1199C8.39502 16.0199 7.13502 16.1399 6.23502 15.4799C5.33502 14.7599 5.21502 13.4999 5.87502 12.5999C6.23502 12.1199 6.83502 11.8199 7.49502 11.8199C8.09502 11.8199 8.63502 12.0599 9.05502 12.5399L9.83502 11.5799C8.57502 10.3199 6.47502 10.3199 5.21502 11.5799C3.95502 12.8399 3.95502 14.9399 5.21502 16.1999C6.47502 17.4599 8.57502 17.4599 9.83502 16.1999L9.11502 15.1799V15.1199Z"
        fill="white" />
    <path transform="translate(-0.474609)" d="M11.8151 10.74H10.4351V17.1H11.8151V10.74Z" fill="white" />
    <path transform="translate(-0.474609)" d="M19.3751 10.7998H17.9951V17.1598H19.3751V10.7998Z" fill="white" />
    <path transform="translate(-0.474609)"
        d="M15.5945 17.1601C14.7545 17.1601 14.0945 16.5001 14.0945 15.6601C14.0945 15.6601 14.0945 15.6001 14.0945 15.5401V11.9401H12.8945V10.8001H14.0945V9.60013L15.2945 8.88013V9.84013V10.8601H16.5545V12.0001H15.2945V15.2401V15.3601V15.4801C15.2945 15.8401 15.5345 16.0801 15.7745 16.2001C15.8945 16.2001 16.0145 16.2601 16.0745 16.2601C16.3145 16.2601 16.5545 16.1401 16.7345 15.9601C16.7345 15.9601 16.7945 15.9001 16.8545 15.8401C16.8545 15.8401 16.8545 17.2201 15.6545 17.2201L15.5945 17.1601Z"
        fill="white" />
    <path transform="translate(-0.474609)"
        d="M15.1146 6.84009C12.8346 6.84009 10.7346 7.98009 9.47461 9.84009H11.3946C12.3546 8.88009 13.6746 8.34009 15.0546 8.34009C16.4346 8.34009 17.7546 8.88009 18.7146 9.84009H20.6946C19.4346 7.98009 17.3346 6.84009 15.1146 6.84009Z"
        fill="#F0182A" />
</svg>