<svg viewBox="0 0 16 16" xmlns="http://www.w3.org/2000/svg">
    <path
        d="M9.17791 5.08563C9.98416 5.39572 10.6663 6.07793 10.9764 6.94619C11.1625 7.44233 11.6586 7.75243 12.1548 7.75243H14.6975C15.3797 7.75243 16 7.19426 16 6.51206C16 5.82985 15.4418 5.20967 14.7596 5.20967H12.7129L15.6278 2.29479C16.124 1.79865 16.124 0.992405 15.6278 0.496257C15.1317 0.000108428 14.3255 0.000108428 13.8293 0.496257L10.8524 3.41113V1.36452C10.8524 0.682313 10.3563 0.124146 9.67406 0.124146C8.99185 0.124146 8.37164 0.682313 8.37164 1.36452V3.90728C8.37164 4.46544 8.74377 4.89957 9.23992 5.08563H9.17791Z"
        fill="#023186" />
    <path
        d="M0.0620412 6.38791C0.0620412 7.07011 0.620193 7.6903 1.36442 7.6903H3.9072C4.46536 7.6903 4.89947 7.38021 5.08553 6.82204C5.39562 6.0158 6.07784 5.33359 6.88408 5.0235C7.38023 4.83745 7.69031 4.3413 7.69031 3.84515V1.30239C7.69031 0.620186 7.13215 0 6.44994 0C5.76774 0 5.14757 0.558167 5.14757 1.24037V3.28698L2.17065 0.372111C1.6745 -0.124037 0.868282 -0.124037 0.372134 0.372111C-0.124014 0.86826 -0.124014 1.6745 0.372134 2.17065L3.34902 5.14754H1.30241C0.620208 5.14754 0.0620185 5.58167 0 6.26387V6.38791H0.0620412Z"
        fill="#023186" />
    <path
        d="M9.61201 15.9388C10.2942 15.9388 10.8524 15.3807 10.9144 14.6985V12.7139L13.8293 15.6287C14.3255 16.1249 15.1317 16.1249 15.6278 15.6287C16.124 15.1326 16.124 14.3263 15.6278 13.8302L12.6509 10.8533H14.6975C15.3797 10.8533 15.9379 10.3572 16 9.67496C16 9.67496 16 9.67496 16 9.61294C16 8.93073 15.4418 8.37257 14.6975 8.31055H12.1548C11.5966 8.31055 11.1625 8.62064 10.9764 9.17881C10.6663 9.98505 9.98416 10.6673 9.17791 10.9773C8.68177 11.1634 8.37164 11.6595 8.37164 12.1557V14.6985C8.37164 15.3807 8.99185 15.9388 9.67406 15.9388H9.61201Z"
        fill="#023186" />
    <path
        d="M6.94549 10.8533C6.13925 10.5432 5.45707 9.86102 5.14698 9.05478C4.96092 8.55863 4.46476 8.24854 3.96861 8.24854H1.42586C0.743659 8.24854 0.185493 8.86872 0.185493 9.55092C0.185493 10.2331 0.743659 10.7913 1.42586 10.7913H3.41043L0.495585 13.7062C-0.000562935 14.2023 -0.000562935 15.0086 0.495585 15.5047C0.991734 16.0009 1.79795 16.0009 2.2941 15.5047L5.27098 12.5278V14.5744C5.20896 15.1946 5.6431 15.8148 6.3253 15.8148C6.3253 15.8148 6.44933 15.8148 6.51135 15.8148C7.19356 15.8148 7.81376 15.2566 7.81376 14.5744V12.0317C7.81376 11.4735 7.50368 10.9774 7.00753 10.8533H6.94549Z"
        fill="#023186" />
</svg>