<svg viewBox="0 0 16 16" xmlns="http://www.w3.org/2000/svg"><path d="M9.178 5.086c.806.31 1.488.992 1.798 1.86.186.496.683.806 1.179.806h2.543c.682 0 1.302-.558 1.302-1.24 0-.682-.558-1.302-1.24-1.302h-2.047l2.915-2.915A1.273 1.273 0 0013.829.496l-2.977 2.915V1.365c0-.683-.496-1.24-1.178-1.24-.682 0-1.302.557-1.302 1.24v2.542c0 .558.372.993.868 1.179h-.062zM.062 6.388A1.31 1.31 0 001.364 7.69h2.543c.558 0 .992-.31 1.179-.868a3.205 3.205 0 011.798-1.798c.496-.187.806-.683.806-1.179V1.302C7.69.62 7.132 0 6.45 0c-.682 0-1.302.558-1.302 1.24v2.047L2.17.372A1.273 1.273 0 00.372 2.171L3.35 5.148H1.302C.62 5.148.062 5.582 0 6.264v.124h.062zM9.612 15.939c.682 0 1.24-.558 1.302-1.24v-1.985l2.915 2.915a1.273 1.273 0 001.799-1.799l-2.977-2.977h2.046c.683 0 1.24-.496 1.303-1.178v-.062c0-.682-.558-1.24-1.303-1.302h-2.542c-.558 0-.992.31-1.179.868a3.205 3.205 0 01-1.798 1.798 1.272 1.272 0 00-.806 1.179v2.542c0 .683.62 1.24 1.302 1.24h-.062zM6.945 10.853a3.205 3.205 0 01-1.798-1.798 1.272 1.272 0 00-1.178-.806H1.426c-.682 0-1.24.62-1.24 1.302s.558 1.24 1.24 1.24H3.41L.496 13.706a1.273 1.273 0 001.798 1.799l2.977-2.977v2.046c-.062.62.372 1.24 1.054 1.24h.186c.683 0 1.303-.557 1.303-1.24v-2.542c0-.559-.31-1.055-.806-1.179h-.063z" fill="#023186"/></svg>