<svg viewBox="0 0 24 24" xmlns="http://www.w3.org/2000/svg">
    <rect width="24" height="24" fill="#00965E" />
    <path transform="translate(-0.665527)"
        d="M7.26525 19.74C6.72525 19.26 6.30525 18.66 6.00525 17.94C5.46525 17.7 4.86525 17.4 4.38525 17.04C4.74525 16.86 5.16525 16.68 5.58525 16.62C5.46525 15.72 5.52525 14.82 5.64525 13.92C5.76525 14.82 6.06525 15.66 6.54525 16.44C7.38525 16.26 8.10525 16.2 8.10525 16.2C7.80525 16.62 7.56525 17.04 7.44525 17.52C7.98526 18 8.64525 18.42 9.30525 18.72C8.58525 18.72 7.92525 18.6 7.26525 18.36C7.26525 18.84 7.26525 19.26 7.38525 19.74H7.26525ZM9.42526 13.02C9.12526 12.3 8.82526 11.52 8.64526 10.74C7.62525 11.46 6.66525 12.24 5.76525 13.14C6.36525 11.94 7.08525 10.86 7.98525 9.90003C7.98525 9.90003 7.50525 9.42003 5.94525 9.30003C7.02525 8.94003 8.10526 8.82003 9.24526 8.94003C9.84526 8.46003 10.5653 8.10003 11.2853 7.92003C11.0453 8.28003 10.8653 8.64003 10.6853 9.06003C11.9453 9.24004 13.0853 9.66004 14.1653 10.32C14.1653 10.32 11.3453 9.90003 10.2053 10.26C9.84525 11.16 9.60526 12.06 9.42526 13.02ZM13.5053 18.66C13.5053 18.9 13.5053 19.08 13.6253 19.32C13.6253 19.32 13.3853 19.32 12.6653 19.32C12.0053 19.68 11.2253 19.98 10.5053 20.1C10.9253 19.86 11.2853 19.56 11.6453 19.2C11.2253 19.14 10.8653 19.02 10.5053 18.84C11.1053 18.84 11.7053 18.72 12.3053 18.6C12.6653 18.18 13.0253 17.76 13.3253 17.28C13.3253 17.28 13.3253 17.82 13.4453 18.18C13.9853 17.88 14.5253 17.58 15.0653 17.22C14.5853 17.76 14.1053 18.24 13.5653 18.66H13.5053ZM20.4053 6.18003C20.4053 7.80003 20.2253 9.36003 19.6253 10.86C19.6253 9.60004 19.4453 8.28004 18.9653 7.08003C18.5453 7.38003 17.4053 7.92003 15.8453 8.76004C16.4453 8.10003 16.9853 7.44003 17.4053 6.72003C15.8453 6.72003 14.3453 6.90003 12.8453 7.20003C14.3453 6.48003 15.9653 5.94003 17.5853 5.64003C16.6253 4.92003 15.5453 4.26003 14.4653 3.72003C15.3053 3.72003 18.5453 4.38003 19.6253 5.22003C20.1653 5.10003 20.7653 5.04003 21.3053 5.04003C21.1253 5.46003 20.7653 5.88003 20.3453 6.12003L20.4053 6.18003ZM7.26525 19.68C6.72525 19.2 6.30525 18.6 6.00525 17.88C5.46525 17.64 4.86525 17.34 4.38525 16.98C4.74525 16.8 5.16525 16.62 5.58525 16.56C5.46525 15.66 5.52525 14.76 5.64525 13.86C5.76525 14.76 6.06525 15.6 6.54525 16.38C7.38525 16.2 8.10525 16.14 8.10525 16.14C7.80525 16.56 7.56525 16.98 7.44525 17.46C7.98526 17.94 8.64525 18.36 9.30525 18.66C8.58525 18.66 7.92525 18.54 7.26525 18.3C7.26525 18.78 7.26525 19.2 7.38525 19.68H7.26525ZM9.42526 12.96C9.12526 12.24 8.82526 11.46 8.64526 10.68C7.62525 11.4 6.66525 12.18 5.76525 13.08C6.36525 11.88 7.08525 10.8 7.98525 9.84003C7.98525 9.84003 7.50525 9.36003 5.94525 9.24003C7.02525 8.88003 8.10526 8.76004 9.24526 8.88004C9.84526 8.40004 10.5653 8.04004 11.2853 7.86003C11.0453 8.22004 10.8653 8.58003 10.6853 9.00003C11.9453 9.18003 13.0853 9.60004 14.1653 10.26C14.1653 10.26 11.3453 9.84003 10.2053 10.2C9.84525 11.1 9.60526 12 9.42526 12.96ZM13.5053 18.6C13.5053 18.84 13.5053 19.02 13.6253 19.26C13.6253 19.26 13.3853 19.26 12.6653 19.26C12.0053 19.62 11.2253 19.92 10.5053 20.04C10.9253 19.8 11.2853 19.5 11.6453 19.14C11.2253 19.08 10.8653 18.96 10.5053 18.78C11.1053 18.78 11.7053 18.66 12.3053 18.54C12.6653 18.12 13.0253 17.7 13.3253 17.22C13.3253 17.22 13.3253 17.76 13.4453 18.12C13.9853 17.82 14.5253 17.52 15.0653 17.16C14.5853 17.7 14.1053 18.18 13.5653 18.6H13.5053ZM20.4053 6.12003C20.4053 7.74003 20.2253 9.30003 19.6253 10.8C19.6253 9.54003 19.4453 8.22003 18.9653 7.02003C18.5453 7.32003 17.4053 7.86003 15.8453 8.70003C16.4453 8.04003 16.9853 7.38003 17.4053 6.66003C15.8453 6.66003 14.3453 6.84003 12.8453 7.14003C14.3453 6.42003 15.9653 5.88003 17.5853 5.58003C16.6253 4.86003 15.5453 4.20003 14.4653 3.66003C15.3053 3.66003 18.5453 4.32003 19.6253 5.16003C20.1653 5.04003 20.7653 4.98003 21.3053 4.98003C21.1253 5.40003 20.7653 5.82003 20.3453 6.06003L20.4053 6.12003Z"
        fill="white" />
</svg>