<svg viewBox="0 0 40 40" xmlns="http://www.w3.org/2000/svg"><g clip-path="url(#prefix__agribank_clip_path_1)" fill-rule="evenodd" clip-rule="evenodd"><path d="M40 1.868A1.879 1.879 0 0038.112 0H1.891C.844 0 0 .837 0 1.868v35.787c0 1.038.844 1.87 1.89 1.87h36.222c1.042 0 1.888-.831 1.888-1.87V1.868z" fill="#fff" stroke="#C4C6C8" stroke-width=".03"/><path d="M13.945 37.637l21.492.002c1.448 0 2.64-1.176 2.64-2.608l.006-21.246-24.138 23.852z" fill="#00422B"/><path d="M38.086 4.501c0-1.462-1.196-2.61-2.644-2.61h-7.91L1.916 27.235v7.783a2.618 2.618 0 002.64 2.616l7.78.002 25.748-25.446.003-7.69z" fill="#AF0B35"/><path d="M4.561 1.885c-1.48 0-2.643 1.145-2.643 2.61l-.003 21.12L25.924 1.892 4.56 1.885z" fill="#00422B"/><path d="M14.859 37.276s1.368-.547 2.641-.764c.481-.107 3.271-.755 3.128-3.591-.035-.738-1.148.2-1.148.2s-2.206.307-3.126.873c-.458.266-1.484 1.39-1.495 3.282z" fill="#FFDC00" stroke="#9D1D26" stroke-width=".03"/><path d="M24.325 28.189s.519 3.212-2.064 4.234c-1.099.45-2.745.955-3 1.212 0 0-.587-2.234 1.322-3.575.613-.436 1.87-.855 2.678-1.146.78-.282 1.064-.725 1.064-.725z" fill="#FFDC00" stroke="#9D1D26" stroke-width=".03"/><path d="M25.66 24.218s1.611 1.946-.196 4.177c-.388.515-2.32 1.753-2.807 2.33 0 0-.964-2.075.198-3.763.319-.48 1.42-1.37 1.902-1.721.485-.357.903-1.023.903-1.023z" fill="#FFDC00" stroke="#9D1D26" stroke-width=".03"/><path d="M23.7 19.975s-1.51.87-.508 3.353c.097.288 1.267 2.355 1.305 2.928 0 0 2.091-1.28 1.245-3.894-.13-.48-1.105-2.003-2.043-2.387z" fill="#FFDC00" stroke="#9D1D26" stroke-width=".03"/><path d="M19.85 16.587s-.517 1.566.711 3.039c.518.6 2.84 1.305 3.84 2.038 0 0 1.225-3.955-4.55-5.077z" fill="#FFDC00" stroke="#9D1D26" stroke-width=".03"/><path d="M16.63 13.785s5.022.357 4.347 4.902c0 0-1.136-.704-2.061-1.072-.403-.197-2.407-.823-2.286-2.685.033-.512 0-1.145 0-1.145z" fill="#FFDC00" stroke="#9D1D26" stroke-width=".03"/><path d="M16.723 9.467s-1.87 1.402-.94 3.76c.168.447 1.136 1.728 1.65 1.951 0 0 .582-1.631.938-2.81.13-.481.487-2.36-.68-3.094-.614-.349-.968.193-.968.193z" fill="#FFDC00" stroke="#9D1D26" stroke-width=".03"/><path d="M16.333 10.863s-1.45-4.212 3.744-5.355c0 0 1.16 1.626-.74 3.316-.514.478-2.675 1.562-3.004 2.04z" fill="#FFDC00" stroke="#9D1D26" stroke-width=".03"/><path d="M24.431 2.307s-5.388-.123-5.161 4.646c0 0 3.374-1.025 4.283-2.013.45-.514.938-1.48.878-2.633z" fill="#FFDC00" stroke="#9D1D26" stroke-width=".03"/></g><defs><clipPath id="prefix__agribank_clip_path_1"><path fill="#fff" d="M0 0h40v40H0z"/></clipPath></defs></svg>