<svg viewBox="0 0 24 24" xmlns="http://www.w3.org/2000/svg"><path fill="#184617" d="M0 0h24v24H0z"/><path d="M15.66 15.78c-.72.84-1.62 1.5-2.64 1.92-.84.36-1.74.36-2.58 0-.6-.3-1.02-.9-1.2-1.56-.18-.96-.12-1.92.24-2.76.12-.42.3-.78.54-1.14-.72.72-1.38 1.44-2.1 2.16 1.02-1.44 2.16-2.76 3.36-4.02.66-.6 1.32-1.26 1.98-1.8.24-.24.48-.42.72-.6-.48.6-.84 1.26-1.2 1.92-.48.84-.84 1.74-1.08 2.64-.36.9-.36 1.92-.06 2.88.18.54.6.96 1.14 1.14 1.02.24 2.1 0 2.88-.66v-.12zM16.14 6.72l-.48.48c0 .24.06.42.12.66-.18-.12-.42-.18-.6-.3-.18.12-.42.24-.6.3 0-.24.06-.42.12-.66l-.54-.48c.24 0 .42-.06.66-.12.06-.24.18-.42.3-.6.12.18.18.42.3.6.24 0 .48.06.72.06v.06z" fill="#FFB100"/></svg>