<svg viewBox="0 0 24 24" xmlns="http://www.w3.org/2000/svg">
    <rect width="24" height="24" fill="white" />
    <path transform="translate(-0.904297,-0.952026)"
        d="M7.38434 9.29209C7.38434 8.39209 7.68434 7.49209 8.28434 6.77209C6.66434 8.03209 5.58434 9.8321 5.28434 11.8721C5.16434 12.5921 5.16434 13.3121 5.28434 14.0321C6.06434 16.3721 9.18433 18.1721 12.9643 18.1721V12.9521C9.36433 12.9521 7.50434 11.1521 7.38434 9.29209Z"
        fill="url(#mega_gradient_1)" />
    <path transform="translate(-0.904297,-0.952026)"
        d="M18.6642 16.552C16.9842 17.632 15.0042 18.232 12.9642 18.172C9.18417 18.172 6.06418 16.372 5.28418 14.032C5.82418 17.872 9.06417 20.692 12.9642 20.692C14.8842 20.692 16.7442 19.972 18.1242 18.712C18.5442 18.052 18.7242 17.332 18.6642 16.552Z"
        fill="url(#mega_gradient_2)" />
    <path transform="translate(-0.904297,-0.952026)"
        d="M12.9648 5.21204C11.2848 5.21204 9.66477 5.75204 8.28477 6.77204C7.68477 7.43204 7.38477 8.33204 7.38477 9.29204C9.06477 8.27204 10.9848 7.73204 12.9648 7.73204C16.6248 7.73204 19.7448 9.41204 20.5848 11.692C19.9848 7.97204 16.7448 5.21204 12.9648 5.21204Z"
        fill="url(#mega_gradient_3)" />
    <path transform="translate(-0.904297,-0.952026)"
        d="M20.5839 11.6921C19.7439 9.41206 16.6239 7.73206 12.9639 7.73206V12.9521C16.4439 12.9521 18.4239 14.6921 18.6639 16.5521C18.7239 17.3321 18.5439 18.0521 18.1239 18.7121C19.4439 17.5121 20.2839 15.9521 20.5839 14.2121C20.6439 13.7921 20.7039 13.3721 20.7039 12.9521C20.7039 12.5321 20.7039 12.1121 20.5839 11.6921Z"
        fill="url(#mega_gradient_4)" />
    <defs>
        <linearGradient id="mega_gradient_1" x1="-21.4996" y1="-1.9879" x2="-29.1928" y2="-10.6933">
            <stop stop-color="#C5A75F" />
            <stop offset="1" stop-color="#61380A" />
        </linearGradient>
        <linearGradient id="mega_gradient_2" x1="-31.3758" y1="-34.112" x2="-43.4178" y2="-34.112">
            <stop stop-color="#E3D9B5" />
            <stop offset="1" stop-color="#512F09" />
        </linearGradient>
        <linearGradient id="mega_gradient_3" x1="42.8448" y1="119.104" x2="50.6631" y2="126.182">
            <stop stop-color="#E3D9B5" />
            <stop offset="1" stop-color="#512F09" />
        </linearGradient>
        <linearGradient id="mega_gradient_4" x1="68.356" y1="-142.832" x2="76.629" y2="-137">
            <stop stop-color="#D3C191" />
            <stop offset="1" stop-color="#533614" />
        </linearGradient>
    </defs>
</svg>