<svg viewBox="0 0 16 16" xmlns="http://www.w3.org/2000/svg">
    <path
        d="M7.68208 4.88897V3.68262H3.68207V4.88897V6.09532V7.30167H6.09478V8.50801H3.68207V12.1906H7.68208V10.9842H4.88843V9.77786H7.36462V6.09532H4.88843V4.88897H7.68208Z"
        fill="#CB0202" />
    <path
        d="M8 0C3.55556 0 0 3.55555 0 8C0 12.4444 3.55556 16 8 16C12.4444 16 16 12.4444 16 8C16 3.55555 12.4444 0 8 0ZM8 14.7302C4.25397 14.7302 1.26984 11.6825 1.26984 8C1.26984 4.25397 4.31746 1.26984 8 1.26984C11.746 1.26984 14.7302 4.31746 14.7302 8C14.7302 11.746 11.6825 14.7302 8 14.7302Z"
        fill="#CB0202" />
    <path
        d="M8.31836 11.048V12.2544H12.3184V11.048V9.8417V8.63535H9.84216V7.429H12.3184V3.74646H8.31836V4.95281H11.0485V6.15916H8.57232V9.8417H11.0485V11.048H8.31836Z"
        fill="#CB0202" />
</svg>