<svg viewBox="0 0 24 24" xmlns="http://www.w3.org/2000/svg">
    <rect width="24" height="24" fill="white" />
    <path transform="translate(-0.809082)"
        d="M12.3284 9.06004V7.92004H8.54834V9.06004V10.2V11.34H10.8284V12.48H8.54834V15.96H12.3284V14.82H9.68835V13.68H12.0284V10.2H9.68835V9.06004H12.3284Z"
        fill="#CB0202" />
    <path transform="translate(-0.809082)"
        d="M12.6289 4.43994C8.42885 4.43994 5.06885 7.79994 5.06885 11.9999C5.06885 16.1999 8.42885 19.5599 12.6289 19.5599C16.8289 19.5599 20.1889 16.1999 20.1889 11.9999C20.1889 7.79994 16.8289 4.43994 12.6289 4.43994ZM12.6289 18.3599C9.08885 18.3599 6.26885 15.4799 6.26885 11.9999C6.26885 8.45994 9.14885 5.63994 12.6289 5.63994C16.1689 5.63994 18.9889 8.51994 18.9889 11.9999C18.9889 15.5399 16.1089 18.3599 12.6289 18.3599Z"
        fill="#CB0202" />
    <path transform="translate(-0.809082)"
        d="M12.9297 14.8803V16.0203H16.7097V14.8803V13.7403V12.6003H14.3697V11.4603H16.7097V7.98035H12.9297V9.12035H15.5097V10.2603H13.1697V13.7403H15.5097V14.8803H12.9297Z"
        fill="#CB0202" />
</svg>