<svg viewBox="0 0 16 16" xmlns="http://www.w3.org/2000/svg"><path d="M7.682 4.889V3.683h-4V7.302h2.413v1.206H3.682v3.683h4v-1.207H4.888V9.778h2.477V6.095H4.888V4.89h2.794z" fill="#CB0202"/><path d="M8 0C3.556 0 0 3.556 0 8s3.556 8 8 8 8-3.556 8-8-3.556-8-8-8zm0 14.73c-3.746 0-6.73-3.048-6.73-6.73 0-3.746 3.047-6.73 6.73-6.73 3.746 0 6.73 3.047 6.73 6.73 0 3.746-3.048 6.73-6.73 6.73z" fill="#CB0202"/><path d="M8.318 11.048v1.206h4V8.635H9.842V7.43h2.476V3.746h-4v1.207h2.73v1.206H8.573v3.683h2.477v1.206h-2.73z" fill="#CB0202"/></svg>