<svg viewBox="0 0 24 24" xmlns="http://www.w3.org/2000/svg"><path fill="#fff" d="M0 0h24v24H0z"/><path d="M15.9 9.54h-.24v.12l.06.18v.18c.06 0 .18.18.18.18l.12.18.12.12.12.12h.12l.12.06h.18l2.88-1.62V7.68L16.02 9.6l-.12-.06z" fill="#DC3331"/><path d="M17.16 11.04l-1.08.6h-.18c0 .06-1.5-3.06-1.5-3.06h-2.16l-3.06 5.64h.48l.3-.12h.3l.3-.12.3-.12.3-.12h.24c0-.06.12-.12.12-.12h.12l.06-.12h.06v-.18l1.44-3.06.96 2.34-.78.42-.72.36-.66.3-.6.24-.6.18-.54.18-.54.18-.54.12-.54.12h-.48c0 .06-.48.18-.48.18h-.42l-.36.06H5.88l-.3-.12H5.4c0-.06-.18-.18-.18-.18l-.12-.12-.12-.18v-.18c-.06 0-.06-.18-.06-.18v-.24l.12-.24.12-.3.18-.3.24-.3.24-.3.24-.24.24-.24.3-.24.3-.24.36-.24.3-.18.36-.18.36-.18.36-.18.36-.12.36-.12.3-.12h.3l.24-.12h.6l-.06-.24-.12-.42-.12-.3v-.18c-.06 0-.12-.12-.12-.12h-.06l-.06-.12h-.12l-.18-.06h-.9c0 .06-.36.18-.36.18l-.36.12-.36.18-.36.18-.36.18-.3.18-.36.18-.36.24-.36.24-.3.24-.24.24-.24.24-.24.24-.18.24-.24.3-.18.3-.12.3-.12.3v.3c-.06 0-.12.3-.12.3v.3l.06.3v.36c.06 0 .18.3.18.3l.12.3.18.24.18.24.24.24.24.18.24.18.3.12.3.12.36.12h.42c0 .06.42.12.42.12h1.2l.36-.06h.36l.36-.12h.36c0-.06.3-.18.3-.18l.36-.12.36-.12.36-.12.36-.12.36-.12.36-.12.36-.12.36-.18.36-.18.24-.12.3-.18.42-.18.42-.24.84 2.1v.12l.06.12h.06l.06.06h2.1l-1.56-3.36.24-.12 1.26-.72 1.38-.78V9.72l-1.2.66-1.14.66h.36z" fill="#2E888B"/></svg>