<svg viewBox="0 0 24 24" xmlns="http://www.w3.org/2000/svg">
    <rect width="24" height="24" fill="white" />
    <path transform="translate(-0.570312)"
        d="M16.47 9.53993H16.41H16.35H16.29H16.23V9.65993L16.29 9.83993V10.0199C16.35 10.0199 16.47 10.1999 16.47 10.1999L16.59 10.3799L16.71 10.4999L16.83 10.6199H16.95L17.07 10.6799H17.25L20.13 9.05993V7.67993L16.59 9.59993L16.47 9.53993Z"
        fill="#DC3331" />
    <path transform="translate(-0.570312)"
        d="M17.7307 11.04L16.6507 11.64H16.4707C16.4707 11.7 14.9707 8.57996 14.9707 8.57996H12.8107L9.7507 14.22H9.8707H9.9907H10.2307L10.5307 14.1H10.8307L11.1307 13.98L11.4307 13.86L11.7307 13.74H11.9707C11.9707 13.68 12.0907 13.62 12.0907 13.62H12.2107L12.2707 13.5H12.3307C12.3307 13.44 12.3307 13.32 12.3307 13.32L13.7707 10.26L14.7307 12.6L13.9507 13.02L13.2307 13.38L12.5707 13.68L11.9707 13.92L11.3707 14.1L10.8307 14.28L10.2907 14.46L9.7507 14.58L9.2107 14.7H8.7307C8.7307 14.76 8.2507 14.88 8.2507 14.88H7.8307L7.4707 14.94H7.1707H6.8707H6.4507L6.1507 14.82H5.9707C5.9707 14.76 5.7907 14.64 5.7907 14.64L5.6707 14.52L5.5507 14.34V14.16C5.4907 14.16 5.4907 13.98 5.4907 13.98V13.74L5.6107 13.5L5.7307 13.2L5.9107 12.9L6.1507 12.6L6.3907 12.3L6.6307 12.06L6.8707 11.82L7.1707 11.58L7.4707 11.34L7.8307 11.1L8.1307 10.92L8.4907 10.74L8.8507 10.56L9.2107 10.38L9.5707 10.26L9.9307 10.14L10.2307 10.02H10.5307L10.7707 9.89996H11.0107H11.2507H11.3707L11.3107 9.65996L11.1907 9.23996L11.0707 8.93996V8.75996C11.0107 8.75996 10.9507 8.63996 10.9507 8.63996H10.8907L10.8307 8.51996H10.7107L10.5307 8.45996H10.2907H9.9907H9.6307C9.6307 8.51996 9.2707 8.63996 9.2707 8.63996L8.9107 8.75996L8.5507 8.93996L8.1907 9.11996L7.8307 9.29996L7.5307 9.47996L7.1707 9.65996L6.8107 9.89996L6.4507 10.14L6.1507 10.38L5.9107 10.62L5.6707 10.86L5.4307 11.1L5.2507 11.34L5.0107 11.64L4.8307 11.94L4.7107 12.24L4.5907 12.54V12.84C4.5307 12.84 4.4707 13.14 4.4707 13.14V13.44L4.5307 13.74V14.1C4.5907 14.1 4.7107 14.4 4.7107 14.4L4.8307 14.7L5.0107 14.94L5.1907 15.18L5.4307 15.42L5.6707 15.6L5.9107 15.78L6.2107 15.9L6.5107 16.02L6.8707 16.14H7.2907C7.2907 16.2 7.7107 16.26 7.7107 16.26H8.1307H8.5507H8.9107L9.2707 16.2H9.6307L9.9907 16.08H10.3507C10.3507 16.02 10.6507 15.9 10.6507 15.9L11.0107 15.78L11.3707 15.66L11.7307 15.54L12.0907 15.42L12.4507 15.3L12.8107 15.18L13.1707 15.06L13.5307 14.88L13.8907 14.7L14.1307 14.58L14.4307 14.4L14.8507 14.22L15.2707 13.98L16.1107 16.08C16.1107 16.14 16.1107 16.2 16.1107 16.2L16.1707 16.32H16.2307L16.2907 16.38H16.3507H18.3907L16.8307 13.02L17.0707 12.9L18.3307 12.18L19.7107 11.4V9.71996L18.5107 10.38L17.3707 11.04H17.7307Z"
        fill="#2E888B" />
</svg>