<svg viewBox="0 0 40 40" xmlns="http://www.w3.org/2000/svg"><g clip-path="url(#prefix__keb_hana_bank_clip0)"><path d="M26.18 25.183a6.447 6.447 0 00-.466-1.59c-.703-1.517-1.683-2.789-3.145-3.647-2.283-1.328-5.038-1.321-7.294.05a6.374 6.374 0 00-2.403 2.57 7.24 7.24 0 00-.454 1.128c-.595 1.89-.574 4.43.498 6.155.35.562.856 1.046 1.47 1.282.62.239 1.354.212 1.912-.146.717-.464.845-1.349.71-2.135-.168-1.004-.298-1.993.073-2.976.117-.313.285-.616.526-.847a2.01 2.01 0 01.505-.345c.39-.19.832-.274 1.26-.205.748.119 1.359.7 1.69 1.38.33.68.42 1.447.458 2.206.155 3.29-.63 6.7-1.47 9.861-.086.328-.176.651-.267.977-.07.25-.199.57-.04.811a.634.634 0 00.292.225c.489.197.888-.103 1.215-.433 1.931-1.942 3.166-4.447 4.013-7.023.316-.964.587-1.939.77-2.938.25-1.363.391-2.924.147-4.36zM40 9.966c0-.494-.438-.82-.906-.804-.478.016-.92.262-1.358.428-8.492 3.227-18.068 3.84-27.017 2.552-1.53-.221-3.083-.53-4.622-.77-.96-.149-1.912-.37-2.884-.44-.829-.065-1.86-.096-2.53.482-.883.762-.82 2.205-.32 3.16.602 1.148 1.654 2.006 2.75 2.66 1.066.633 2.334 1.31 3.601 1.23 3.421-.22 6.832-.552 10.23-.991 5.797-.752 11.875-1.463 17.318-3.713 1.78-.734 3.54-1.65 5.063-2.835.277-.212.675-.557.675-.96z" fill="#009591"/><path d="M15.648 7.054a3.342 3.342 0 106.68 0c0-.272-.063-.55-.179-.798-.288-.608-.61-.902-.577-1.631.042-.979-1.214-.993-1.892-.993-.738 0-1.524.104-2.191.438-.531.268-.988.68-1.31 1.177a3.355 3.355 0 00-.531 1.732v.075z" fill="#ED1651"/></g><defs><clipPath id="prefix__keb_hana_bank_clip0"><path fill="#fff" d="M0 0h40v40H0z"/></clipPath></defs></svg>