<svg viewBox="0 0 24 24" xmlns="http://www.w3.org/2000/svg">
    <rect width="24" height="24" fill="white" />
    <path transform="translate(-0.656934)"
        d="M7.69703 14.5802C6.73703 14.5802 6.01703 13.8002 6.01703 12.9002V11.2802H7.63703V9.72022H6.01703V8.10022H4.45703V12.9602C4.45703 14.7602 5.89703 16.2602 7.75703 16.2602C8.71703 16.2602 9.61703 15.8402 10.277 15.1202C9.79703 14.5202 9.49703 13.8002 9.49703 13.0202C9.49703 13.9802 8.71703 14.7002 7.81703 14.7002L7.69703 14.5802Z"
        fill="#0F50EC" />
    <path transform="translate(-0.656934)"
        d="M14.3565 12.9002C14.3565 13.8602 13.5765 14.5802 12.6765 14.5802C11.7765 14.5802 10.9965 13.8002 10.9965 12.9002V11.2802H12.6165V9.72022H10.9965V8.10022H9.43652V12.9602C9.43652 14.7602 10.8765 16.2602 12.7365 16.2602C13.6965 16.2602 14.5965 15.8402 15.2565 15.1202C14.7165 14.5202 14.4765 13.8002 14.4765 13.0202L14.3565 12.9002Z"
        fill="#F48A31" />
    <path transform="translate(-0.656934)"
        d="M17.657 9.60004C17.057 9.60004 16.457 9.78004 15.977 10.08V8.04004H14.417V12.9C14.417 14.7 15.917 16.2 17.717 16.2C19.517 16.2 21.017 14.7 21.017 12.9C21.017 11.1 19.517 9.60004 17.717 9.60004H17.657ZM17.657 14.58C16.697 14.58 15.977 13.8 15.977 12.9C15.977 11.94 16.757 11.22 17.657 11.22C18.617 11.22 19.337 12 19.337 12.9C19.337 13.86 18.557 14.58 17.657 14.58Z"
        fill="#022D61" />
</svg>