<svg viewBox="0 0 24 24" xmlns="http://www.w3.org/2000/svg"><path fill="#fff" d="M0 0h24v24H0z"/><path d="M7.04 14.58c-.96 0-1.68-.78-1.68-1.68v-1.62h1.62V9.72H5.36V8.1H3.8v4.86c0 1.8 1.44 3.3 3.3 3.3.96 0 1.86-.42 2.52-1.14-.48-.6-.78-1.32-.78-2.1 0 .96-.78 1.68-1.68 1.68l-.12-.12z" fill="#0F50EC"/><path d="M13.7 12.9c0 .96-.78 1.68-1.68 1.68-.9 0-1.68-.78-1.68-1.68v-1.62h1.62V9.72h-1.62V8.1H8.78v4.86c0 1.8 1.44 3.3 3.3 3.3.96 0 1.86-.42 2.52-1.14-.54-.6-.78-1.32-.78-2.1l-.12-.12z" fill="#F48A31"/><path d="M17 9.6c-.6 0-1.2.18-1.68.48V8.04h-1.56v4.86c0 1.8 1.5 3.3 3.3 3.3 1.8 0 3.3-1.5 3.3-3.3 0-1.8-1.5-3.3-3.3-3.3H17zm0 4.98c-.96 0-1.68-.78-1.68-1.68 0-.96.78-1.68 1.68-1.68.96 0 1.68.78 1.68 1.68 0 .96-.78 1.68-1.68 1.68z" fill="#022D61"/></svg>