<svg viewBox="0 0 24 24" xmlns="http://www.w3.org/2000/svg"><path fill="#28A6DF" d="M0 0h24v24H0z"/><path d="M14.76 16.5s.06-.18.12.06c0 .72-.18 1.44-.6 1.98-.72.78-1.8 1.08-2.82.9 1.2-.12 2.22-.96 2.52-2.1v-.24c.36-.12.6-.3.84-.6m4.56-6.12v-.06s0-.12-.12-.36V9.9c-.18-.42-.48-.84-.84-1.2 0 0 .48 0 0-.6a8.74 8.74 0 00-2.46-1.74c-.9-.42-1.86-.24-1.8.72 0 .48-.36.9-.84.9h-.24c-.6-.06-.96-.54-.84-.96.12-.42.3-.78.66-1.02.24-.18.48-.36.78-.36.24 0 .6-.12.66.18.18-.12.48-.66-.54-.66-.06-.18-.3-.3-.48-.24-.54-.54-1.44-.48-1.98.06 0 0-.06.12-.12.18 0 0-.42.18-.48 0 .06.06.24-.18 0-.24-.12 0-.24.06-.24.18s.06.24.18.3h.18v.12c-.42.12-.72 0-.78-.18h.18c0-.12 0-.18-.12-.24-.18 0-.24.18-.24.36.06.3.36.48.66.42V6c-.3.3-.54.6-.72.96-.3.54-1.5 1.08-1.32-.18.06-.42-.6-.84-1.74-.06-.78.54-1.44 1.26-1.92 2.1 0 0-.24.42.18.42 0 0-.84.42-.9 2.28v.96c0 .48.12.9.3 1.32.06 0 .12.06.24 0 .18.78.42 1.62.78 2.34.42.84 1.2 2.1.9 2.4-.3.3-.72-.3-.66-.06.06.3.42.54.72.48.06 0 .18 0 .24-.12.72-.6-.36-1.92-.66-3.66.72-.3.66-1.38.66-1.38.66-.06 1.14-.54 1.26-1.2.66.18 1.38-.06 1.74-.72.12.36.36.72.66.96-.06.3-.3.6-.6.66-.48-.18-.96-.18-1.44 0-.66.3-.42 1.02.06.84-.12 0-.18-.18-.12-.24 0-.06.06-.12.18-.12 0 0 .12.06.18.06.36 0 .72 0 1.02-.06h.06s.06 0 .12-.06c.12 0 .18.12.18.18s0 .12-.12.12c.18 0 .42-.06.42-.24v-.3s.06-.06.24-.18c.06-.06.18-.18.24-.3.36.24.72.42 1.14.48-.24.36-.54.66-.96.78-.42-.12-.96-.12-1.38.06-.18.12-.3.3-.24.48 0 .24.24.42.48.36-.12-.06-.42-.36 0-.48 0 .06.12.12.24.18.36.06.78 0 1.14-.18h.06s.06 0 .06-.06c.18 0 .42 0 .3.36.18 0 .54-.36 0-.66.18-.12.36-.18.48-.36l.36-.36c.66.12 1.14.78 1.14 1.44 0 .66-.48 1.26-1.08 1.5h.06-.36c-.6 0-.24-.66-.24-.66-.12 0-.18 0-.24.12-.12.18-.12.36-.06.54h-.06c-.48-.24-.48-.6-.48-.6-.12.06-.24.24-.18.54.06.36.54.54.96.6.36.36.9.48 1.44.3 0 0-.36 1.92-2.82 1.86 0 0-.72-.3-.72-.9 0-.48.24-.9.6-1.14-.42 0-.84.24-.96.72-.12.42 0 .84.18 1.14-.9-.24-1.62-.96-1.32-1.92 0-.18.12-.3.24-.42.48-.36 1.14-.48 1.74-.24-.12-.36-.48-.6-.84-.54-.84 0-1.56.6-1.62 1.44v.06c-.06 1.14.66 1.92 2.4 2.16.78.48 1.68.6 2.58.36 0 0 3.06-.6 2.4-4.08 0 0 .72-2.34-.78-3.6.6.42 1.38.54 2.04.3-.06 2.1.84 2.4.84 2.4s-1.68 3.6-.72 4.02c.3.18.72 0 .9-.3v-.06c.18-.36-.36.36-.66 0-.36-.36.06-1.2.54-2.16.48-.84.84-1.8 1.08-2.76h.18c.24 0 .42-1.02.42-1.2.18-.66.18-1.32 0-1.98" fill="#fff"/></svg>