<svg xmlns="http://www.w3.org/2000/svg" viewBox="0 0 1534 1534">
    <rect width="1534" height="1534" fill="#009759" />
    <path fill="#fff"
        d="m1194.4 401.8c-94.4 54.1-124.8 60.8-226 121.6 60.7-64.2 80.9-91.2 118.1-148.6-94.5 3.4-232.9 16.9-330.7 37.2 84.3-47.3 256.4-98 344.2-108.1-20.3-27-189-114.8-232.9-135.1 131.6 10.2 297 60.8 374.6 108.1 30.3-10.1 64.1-10.1 121.4-16.9-13.5 27-13.5 43.9-70.8 81.1 16.8 40.5-20.3 273.5-54 334.3 0-98-10.1-219.5-43.9-273.6z" />
    <path fill="#fff"
        d="m357.7 1205.5c-6.8 37.2-3.4 64.2 6.7 97.9-40.5-40.5-67.5-77.6-91.1-128.3-43.9-20.2-77.6-40.5-118.1-64.1 27-13.5 54-20.3 87.7-30.4-10.1-60.8-10.1-114.8 0-192.5 13.5 70.9 27 124.9 60.8 182.3 37.1-10.1 70.8-13.5 114.7-20.2-23.6 33.8-37.1 60.8-50.6 97.9 40.5 40.5 81 64.2 134.9 84.4-57.3-3.3-101.2-10.1-145-27z" />
    <path fill="#fff"
        d="m644.5 462.6c-16.9 23.7-37.2 64.2-40.5 81.1 138.3 20.2 253 91.1 253 91.1-121.4-20.2-185.6-20.2-232.8-13.5-43.9 3.4-54 10.2-54 10.2-33.7 70.9-54 195.8-54 195.8-23.6-54-54-162.1-54-162.1-60.7 33.8-202.4 165.5-202.4 165.5 77.6-155.3 158.6-226.3 158.6-226.3-27-27-97.9-40.5-151.8-43.9 26.9-10.1 97.8-23.6 151.8-27 54 0 84.3 0 84.3 0 43.9-33.7 114.8-67.5 141.8-70.9z" />
    <path fill="#fff"
        d="m792.9 1195.4c43.9-20.3 77.6-40.5 118.1-67.5-33.7 37.1-67.5 67.5-111.3 101.3 3.3 20.2 6.7 30.3 10.1 43.9-16.9 3.3-40.5 3.3-64.1 3.3-47.3 30.4-111.4 50.7-158.6 60.8 30.4-20.2 54-37.1 84.3-64.1-30.3-6.8-57.3-16.9-84.3-30.4 47.2 0 84.3-3.4 131.6-16.9 27-30.4 50.6-57.4 74.2-91.2 0 23.6 0 40.5 0 60.8z" />
</svg>