<svg viewBox="0 0 24 24" xmlns="http://www.w3.org/2000/svg"><path fill="#F37D32" d="M0 0h24v24H0z"/><path d="M5.64 15.18v-2.04c0-.24.06-.3.3-.3h1.14c.24 0 .3-.06.3-.3v-1.26c0-.18 0-.3-.24-.24h-1.2c-.18 0-.24 0-.24-.24V8.4c0-.18.12-.3.24-.36 1.62-.96 3.3-1.92 4.98-2.88h.12c.48-.42.9-.3 1.44 0 1.92 1.26 3.9 2.52 5.88 3.72.18.12.3.3.24.48v3.66c0 .24-.06.3-.3.3h-1.2c-.18 0-.24 0-.24.24v1.32c0 .18.06.24.24.24h1.2c.42 0 .24 0 .24.24v1.86c0 .24-.06.3-.24.36-1.62.54-3.3 1.02-4.92 1.56-.3.12-.66.12-.96 0-1.26-.48-2.52-.96-3.78-1.5-.12 0-.3-.06-.42-.06H6.06c-.24 0-.3-.06-.3-.3V15.3l-.12-.12zm1.02-5.76c.12 0 .24 0 .3-.12 1.26-.42 2.46-.84 3.72-1.26.24-.12.54-.06.78.12.72.54 1.44 1.02 2.22 1.5.24.12.3.36.18.6v.06c-.18.3-.36.36-.66.24-.3-.18-.6-.36-.9-.6-.36-.24-.6-.12-.84.24a.47.47 0 000 .66l.12.12c.78.54 1.56 1.08 2.34 1.56.12.06.24.12.36.12h3c.24 0 .3 0 .3-.3V9.72c0-.12-.06-.3-.18-.36-1.86-1.14-3.78-2.22-5.64-3.36a.365.365 0 00-.48 0L7.02 8.46c-.42.24-.48.3-.36.9v.06zm7.62 6.42h-3c-.3 0-.48-.18-.48-.54 0-.3.12-.42.48-.42h1.44c.36 0 .54-.24.54-.6 0-.3-.24-.6-.54-.6H6.9c-.18 0-.24 0-.24.24v2.52c0 .18.06.24.24.24h1.92c.12 0 .3 0 .42.06 1.08.42 2.22.84 3.3 1.26.18.06.42.12.6 0 1.38-.48 2.76-.9 4.14-1.38.24-.06.36-.18.3-.48v-.18c0-.24 0-.3-.24-.3h-3l-.06.18z" fill="#fff"/></svg>