<svg viewBox="0 0 40 40" xmlns="http://www.w3.org/2000/svg"><g clip-path="url(#prefix__ibk_bank_vnd_clip0)"><path d="M10.047.498a4.624 4.624 0 00-2.339 2.698L.242 25.636A4.627 4.627 0 00.5 29.202a4.658 4.658 0 002.696 2.335l24.485 8.22a4.642 4.642 0 003.568-.255 4.62 4.62 0 002.335-2.702l7.47-22.433a4.674 4.674 0 00-2.956-5.908L13.616.24a4.633 4.633 0 00-3.57.257z" fill="#fff"/><path d="M22.015 22.049c-1.33 1.484-2.988 2.681-4.91 3.424L16 25.9V15.504l1.092.423c1.925.735 3.587 1.932 4.923 3.41a11.202 11.202 0 001.663-5.24c.303-4.984-2.819-9.557-7.107-11.15l-3.537-1.176c-1.596-.532-3.295.349-3.822 1.94L1.724 26.163c-.531 1.598.364 3.332 1.962 3.857l16.993 5.674a11.176 11.176 0 003.02-7.006c.15-2.43-.483-4.72-1.684-6.639zm-9.822 4.492h-1.687V14.884h1.687v11.657z" fill="#0099DA"/><path d="M21.035 20.693a11.337 11.337 0 00-3.42-2.732v5.48a11.28 11.28 0 003.42-2.748z" fill="#F15C21"/><path d="M37.555 9.958L21.961 4.746a12.865 12.865 0 013.382 8.675 12.944 12.944 0 01-2.25 7.272 12.962 12.962 0 012.271 7.262 12.877 12.877 0 01-3.016 8.3l5.856 1.954c1.602.533 3.293-.348 3.825-1.944l7.492-22.45c.53-1.595-.367-3.327-1.966-3.857zm-4.131 16.545l-2.107.006-4.333-5.829 4.402-5.828 2.124-.008-4.411 5.845 4.325 5.814z" fill="#0055A2"/></g><defs><clipPath id="prefix__ibk_bank_vnd_clip0"><path fill="#fff" d="M0 0h40v40H0z"/></clipPath></defs></svg>