<svg viewBox="0 0 16 16" xmlns="http://www.w3.org/2000/svg">
    <path
        d="M10.3295 7.72564C10.3295 9.01672 9.31912 10.0833 7.97191 10.1394C6.68083 10.1394 5.61431 9.12899 5.61431 7.83791C5.61431 6.54683 6.56859 5.48029 7.85967 5.42416C9.15074 5.42416 10.2734 6.43457 10.2734 7.72564H10.3295ZM8.02806 12.89C5.22137 12.89 2.86376 10.6446 2.80763 7.83791C2.80763 4.97509 4.99684 2.67361 7.85967 2.56134C10.7225 2.56134 13.024 4.80669 13.0801 7.61338C13.0801 10.4762 10.8909 12.7777 8.02806 12.8338V12.89ZM10.1611 2C9.37526 2 8.5894 2.1684 7.85967 2.5052C7.12993 2.22453 6.34403 2.05613 5.55816 2.05613C2.41467 2.05613 -0.0551956 4.69442 0.000938127 7.78178C0.000938127 7.78178 0.000938127 7.78178 0.000938127 7.83791C0.000938127 10.9814 2.63922 13.5074 5.78271 13.4513C6.56858 13.4513 7.35444 13.2268 8.08418 12.9461C8.81392 13.2268 9.5998 13.3952 10.4418 13.3952C13.5853 13.339 16.0552 10.7569 15.9991 7.61338C15.9991 4.46988 13.4169 2 10.2734 2"
        fill="#D62427" />
</svg>