<svg viewBox="0 0 16 16" xmlns="http://www.w3.org/2000/svg"><path d="M10.33 7.726c0 1.29-1.01 2.357-2.358 2.413-1.291 0-2.358-1.01-2.358-2.301 0-1.291.955-2.358 2.246-2.414 1.29 0 2.413 1.01 2.413 2.302h.056zM8.027 12.89c-2.807 0-5.164-2.245-5.22-5.052 0-2.863 2.189-5.164 5.052-5.277 2.862 0 5.164 2.246 5.22 5.052 0 2.863-2.19 5.165-5.052 5.22v.057zM10.161 2a5.49 5.49 0 00-2.301.505 6.457 6.457 0 00-2.302-.449c-3.143 0-5.613 2.638-5.557 5.726v.056c0 3.143 2.638 5.67 5.782 5.613.786 0 1.571-.224 2.301-.505.73.28 1.516.45 2.358.45a5.655 5.655 0 005.557-5.783C16 4.47 13.417 2 10.273 2" fill="#D62427"/></svg>