<svg viewBox="0 0 40 40" xmlns="http://www.w3.org/2000/svg">
	<path
		d="M27.9316 31.0847C23.2929 28.6176 22.2561 22.5902 25.4225 18.6784C27.6388 15.9403 31.4943 14.9538 34.8506 16.2658C38.2833 17.6076 40.2533 20.8515 39.9741 24.7023C39.7326 28.0335 37.184 30.9681 33.7776 31.768C31.7789 32.2373 29.8341 32.012 27.9316 31.0847ZM34.3844 19.6451C32.7748 18.6743 31.1083 18.5991 29.4746 19.5005C27.786 20.4321 27.0713 22.0024 27.0892 23.8676C27.1085 25.8766 27.8985 27.5272 29.8252 28.372C31.6709 29.1813 33.4633 28.9544 34.9695 27.584C37.1025 25.6431 37.1328 21.5955 34.3844 19.6451Z"
		fill="#FCFCFC" />
	<path
		d="M3.59719 21.4809C3.59719 23.729 3.59719 25.9052 3.59719 28.1603C7.00975 28.1603 10.3728 28.1603 13.7615 28.1603C13.7615 29.3571 13.7615 30.4747 13.7615 31.6375C9.18317 31.6375 4.61856 31.6375 0 31.6375C0 24.2719 0 16.8869 0 9.4624C1.16167 9.4624 2.32375 9.4624 3.59719 9.4624C3.59719 13.4344 3.59719 17.4217 3.59719 21.4809Z"
		fill="#FCFCFC" />
	<path
		d="M16.6641 29.1031C16.6641 24.7241 16.6641 20.417 16.6641 16.0625C17.7923 16.0625 18.9053 16.0625 20.0678 16.0625C20.0678 21.217 20.0678 26.3973 20.0678 31.63C18.9818 31.63 17.8714 31.63 16.6641 31.63C16.6641 30.828 16.6641 30.0015 16.6641 29.1031Z"
		fill="#FDFDFD" />
	<path
		d="M16.2706 9.34114C16.8095 8.41106 17.5638 7.92167 18.5938 8.01024C19.565 8.09376 20.2178 8.66491 20.548 9.56654C20.8969 10.5194 20.5449 11.5836 19.7317 12.1831C18.9808 12.7366 17.803 12.7394 17.0472 12.1894C16.1394 11.5289 15.8569 10.5409 16.2706 9.34114Z"
		fill="#FBFBFB" />
</svg>