<svg viewBox="0 0 40 40" xmlns="http://www.w3.org/2000/svg"><path d="M27.932 31.085c-4.64-2.467-5.676-8.495-2.51-12.407 2.217-2.738 6.072-3.724 9.429-2.412 3.432 1.342 5.402 4.586 5.123 8.436-.241 3.331-2.79 6.266-6.196 7.066-2 .47-3.944.244-5.846-.683zm6.452-11.44c-1.61-.97-3.276-1.046-4.91-.145-1.688.932-2.403 2.502-2.385 4.368.02 2.009.81 3.66 2.736 4.504 1.846.81 3.638.582 5.144-.788 2.133-1.94 2.164-5.988-.585-7.939zM3.597 21.48v6.68h10.165v3.477H0V9.462h3.597v12.019z" fill="#FCFCFC"/><path d="M16.664 29.103v-13.04h3.404V31.63h-3.404v-2.527z" fill="#FDFDFD"/><path d="M16.27 9.341c.54-.93 1.294-1.42 2.324-1.33.971.083 1.624.654 1.954 1.556.349.952-.003 2.017-.816 2.616-.751.554-1.929.556-2.685.006-.908-.66-1.19-1.648-.776-2.848z" fill="#FBFBFB"/></svg>