<svg viewBox="0 0 40 40" xmlns="http://www.w3.org/2000/svg"><g clip-path="url(#prefix__dbs_bank_clip0)"><path d="M6.535 33.333h26.45V6.628H6.535v26.705z" fill="#fff"/><path d="M32.13 32.5l-9.604-8.123s-1.296-1.273-2.754-1.273c-1.481 0-2.777 1.273-2.777 1.273l-9.604 8.122-.023-.023 8.053-9.696s1.273-1.319 1.273-2.8c0-1.48-1.273-2.777-1.273-2.777L7.368 7.484l.023-.023 9.604 8.146s1.296 1.295 2.777 1.295c1.458 0 2.754-1.296 2.754-1.296l9.603-8.145.046.046-8.076 9.696s-1.25 1.32-1.25 2.777c0 1.481 1.25 2.8 1.25 2.8l8.076 9.696-.046.023zm4.488-12.52c0-2.638.116-4.975 2.037-9.117.555-1.204 1.782-2.962-.023-4.999-1.481-1.48-3.147-1.25-4.281-.578.648-1.134.902-2.847-.579-4.328C31.76-.87 30 .38 28.82.935c-4.096 1.944-6.41 2.06-9.025 2.06s-4.952-.116-9.025-2.06C9.59.38 7.831-.87 5.818.958 4.337 2.462 4.59 4.152 5.239 5.286c-1.134-.671-2.823-.903-4.28.578C-.87 7.901.378 9.66.934 10.863c1.944 4.142 2.06 6.502 2.06 9.117 0 2.638-.116 4.999-2.06 9.14-.555 1.204-1.782 2.963.023 5 1.481 1.48 3.17 1.226 4.281.578-.648 1.134-.902 2.846.579 4.327 2.013 1.851 3.772.602 4.952.023 4.096-1.944 6.41-2.06 9.025-2.06s4.93.093 9.025 2.06c1.18.556 2.939 1.805 4.952-.023 1.481-1.48 1.227-3.17.579-4.327 1.134.648 2.8.902 4.28-.579 1.829-2.036.58-3.818.024-4.998-1.944-4.142-2.037-6.503-2.037-9.14z" fill="#F33"/></g><defs><clipPath id="prefix__dbs_bank_clip0"><path fill="#fff" d="M0 0h40v40H0z"/></clipPath></defs></svg>