<svg viewBox="0 0 24 24" xmlns="http://www.w3.org/2000/svg">
    <rect width="24" height="24" fill="#28A6DF" />
    <path transform="translate(-0.808594)"
        d="M15.5692 16.4997C15.5692 16.4997 15.6292 16.3197 15.6892 16.5597C15.6892 17.2797 15.5092 17.9997 15.0892 18.5397C14.3692 19.3197 13.2892 19.6197 12.2692 19.4397C13.4692 19.3197 14.4892 18.4797 14.7892 17.3397V17.0997C15.1492 16.9797 15.3892 16.7997 15.6292 16.4997M20.1892 10.3797C20.1892 10.3797 20.1892 10.3797 20.1892 10.3197C20.1892 10.3197 20.1892 10.1997 20.0692 9.95971C20.0692 9.95971 20.0692 9.95971 20.0692 9.89971C19.8892 9.47971 19.5892 9.05971 19.2292 8.69971C19.2292 8.69971 19.7092 8.69971 19.2292 8.0997C18.5092 7.3797 17.6692 6.77971 16.7692 6.3597C15.8692 5.9397 14.9092 6.1197 14.9692 7.0797C14.9692 7.55971 14.6092 7.97971 14.1292 7.97971C14.0692 7.97971 13.9492 7.97971 13.8892 7.97971C13.2892 7.91971 12.9292 7.4397 13.0492 7.0197C13.1692 6.5997 13.3492 6.2397 13.7092 5.9997C13.9492 5.8197 14.1892 5.6397 14.4892 5.6397C14.7292 5.6397 15.0892 5.5197 15.1492 5.8197C15.3292 5.6997 15.6292 5.1597 14.6092 5.1597C14.5492 4.9797 14.3092 4.8597 14.1292 4.9197C13.5892 4.3797 12.6892 4.4397 12.1492 4.9797C12.1492 4.9797 12.0892 5.0997 12.0292 5.1597C12.0292 5.1597 11.6092 5.3397 11.5492 5.1597C11.6092 5.2197 11.7892 4.9797 11.5492 4.9197C11.4292 4.9197 11.3092 4.9797 11.3092 5.0997C11.3092 5.2197 11.3692 5.3397 11.4892 5.3997C11.4892 5.3997 11.6092 5.3997 11.6692 5.3997V5.5197C11.2492 5.6397 10.9492 5.5197 10.8892 5.3397C10.9492 5.3397 11.0092 5.3397 11.0692 5.3397C11.0692 5.2197 11.0692 5.1597 10.9492 5.0997C10.7692 5.0997 10.7092 5.2797 10.7092 5.4597C10.7692 5.7597 11.0692 5.9397 11.3692 5.8797V5.9997C11.0692 6.2997 10.8292 6.5997 10.6492 6.95971C10.3492 7.49971 9.14922 8.03971 9.32922 6.7797C9.38922 6.3597 8.72922 5.9397 7.58922 6.7197C6.80922 7.2597 6.14922 7.9797 5.66922 8.81971C5.66922 8.81971 5.42922 9.23971 5.84922 9.23971C5.84922 9.23971 5.00922 9.65971 4.94922 11.5197V11.8797C4.94922 12.1197 4.94922 12.3597 4.94922 12.4797C4.94922 12.9597 5.06922 13.3797 5.24922 13.7997C5.30922 13.7997 5.36922 13.8597 5.48922 13.7997C5.66922 14.5797 5.90922 15.4197 6.26922 16.1397C6.68922 16.9797 7.46922 18.2397 7.16922 18.5397C6.86922 18.8397 6.44922 18.2397 6.50922 18.4797C6.56922 18.7797 6.92922 19.0197 7.22922 18.9597C7.28922 18.9597 7.40922 18.9597 7.46922 18.8397C8.18922 18.2397 7.10922 16.9197 6.80922 15.1797C7.52922 14.8797 7.46922 13.7997 7.46922 13.7997C8.12922 13.7397 8.60922 13.2597 8.72922 12.5997C9.38922 12.7797 10.1092 12.5397 10.4692 11.8797C10.5892 12.2397 10.8292 12.5997 11.1292 12.8397C11.0692 13.1397 10.8292 13.4397 10.5292 13.4997C10.0492 13.3197 9.56922 13.3197 9.08922 13.4997C8.42922 13.7997 8.66922 14.5197 9.14922 14.3397C9.02922 14.3397 8.96922 14.1597 9.02922 14.0997C9.02922 14.0397 9.08922 13.9797 9.20922 13.9797C9.20922 13.9797 9.32922 14.0397 9.38922 14.0397C9.74922 14.0397 10.1092 14.0397 10.4092 13.9797H10.4692C10.4692 13.9797 10.5292 13.9797 10.5892 13.9197C10.7092 13.9197 10.7692 14.0397 10.7692 14.0997C10.7692 14.1597 10.7692 14.2197 10.6492 14.2197C10.8292 14.2197 11.0692 14.1597 11.0692 13.9797C11.0692 13.8597 11.0692 13.7397 11.0692 13.6797C11.0692 13.6797 11.1292 13.6197 11.3092 13.4997C11.3692 13.4397 11.4892 13.3197 11.5492 13.1997C11.9092 13.4397 12.2692 13.6197 12.6892 13.6797C12.4492 14.0397 12.1492 14.3397 11.7292 14.4597C11.3092 14.3397 10.7692 14.3397 10.3492 14.5197C10.1692 14.6397 10.0492 14.8197 10.1092 14.9997C10.1092 15.2397 10.3492 15.4197 10.5892 15.3597C10.4692 15.2997 10.1692 14.9997 10.5892 14.8797C10.5892 14.9397 10.7092 14.9997 10.8292 15.0597C11.1892 15.1197 11.6092 15.0597 11.9692 14.8797C11.9692 14.8797 11.9692 14.8797 12.0292 14.8797C12.0292 14.8797 12.0892 14.8797 12.0892 14.8197C12.2692 14.8197 12.5092 14.8197 12.3892 15.1797C12.5692 15.1797 12.9292 14.8197 12.3892 14.5197C12.5692 14.3997 12.7492 14.3397 12.8692 14.1597L13.2292 13.7997C13.8892 13.9197 14.3692 14.5797 14.3692 15.2397C14.3692 15.8997 13.8892 16.4997 13.2892 16.7397C13.2892 16.7397 13.2892 16.7397 13.3492 16.7397H13.2892C13.1692 16.7397 13.1092 16.7397 12.9892 16.7397C12.3892 16.7397 12.7492 16.0797 12.7492 16.0797C12.6292 16.0797 12.5692 16.0797 12.5092 16.1997C12.3892 16.3797 12.3892 16.5597 12.4492 16.7397H12.3892C11.9092 16.4997 11.9092 16.1397 11.9092 16.1397C11.7892 16.1997 11.6692 16.3797 11.7292 16.6797C11.7892 17.0397 12.2692 17.2197 12.6892 17.2797C13.0492 17.6397 13.5892 17.7597 14.1292 17.5797C14.1292 17.5797 13.7692 19.4997 11.3092 19.4397C11.3092 19.4397 10.5892 19.1397 10.5892 18.5397C10.5892 18.0597 10.8292 17.6397 11.1892 17.3997C10.7692 17.3997 10.3492 17.6397 10.2292 18.1197C10.1092 18.5397 10.2292 18.9597 10.4092 19.2597C9.50922 19.0197 8.78922 18.2997 9.08922 17.3397C9.08922 17.1597 9.20922 17.0397 9.32922 16.9197C9.80922 16.5597 10.4692 16.4397 11.0692 16.6797C10.9492 16.3197 10.5892 16.0797 10.2292 16.1397C9.38922 16.1397 8.66922 16.7397 8.60922 17.5797C8.60922 17.5797 8.60922 17.5797 8.60922 17.6397C8.54922 18.7797 9.26922 19.5597 11.0092 19.7997C11.7892 20.2797 12.6892 20.3997 13.5892 20.1597C13.5892 20.1597 16.6492 19.5597 15.9892 16.0797C15.9892 16.0797 16.7092 13.7397 15.2092 12.4797C15.8092 12.8997 16.5892 13.0197 17.2492 12.7797C17.1892 14.8797 18.0892 15.1797 18.0892 15.1797C18.0892 15.1797 16.4092 18.7797 17.3692 19.1997C17.6692 19.3797 18.0892 19.1997 18.2692 18.8997C18.2692 18.8997 18.2692 18.8997 18.2692 18.8397C18.4492 18.4797 17.9092 19.1997 17.6092 18.8397C17.2492 18.4797 17.6692 17.6397 18.1492 16.6797C18.6292 15.8397 18.9892 14.8797 19.2292 13.9197C19.2292 13.9197 19.3492 13.9197 19.4092 13.9197C19.6492 13.9197 19.8292 12.8997 19.8292 12.7197C20.0092 12.0597 20.0092 11.3997 19.8292 10.7397"
        fill="white" />
</svg>