<svg width="40" height="40" viewBox="0 0 40 40" fill="none" xmlns="http://www.w3.org/2000/svg">
    <path
        d="M15.9603 1.489C16.4132 1.1995 16.8437 0.939499 17.2892 0.645894C17.4649 0.561236 17.6547 0.548766 17.7812 0.452815C18.5447 -0.126249 19.3048 -0.165475 20.1147 0.425219C21.0235 0.948185 21.8996 1.45944 22.8123 1.97941C23.5585 2.40254 24.2682 2.81696 25.0149 3.23898C25.9286 3.7654 26.8052 4.2842 27.718 4.80631C28.7911 5.42186 29.828 6.03411 30.8999 6.65297C32.2327 7.41081 33.5305 8.16203 34.8634 8.92732C35.3203 9.19167 35.7604 9.42455 35.87 10.0553C35.869 15.7985 35.8804 21.4559 35.8609 27.1131C35.8546 28.95 36.2572 28.8977 34.1702 30.0985C29.4243 32.8294 24.712 35.6189 19.9713 38.359C19.6226 38.5606 19.1552 38.557 18.7171 38.6287C16.3938 37.3301 14.0935 36.0567 11.8004 34.7706C10.8073 34.2136 9.83016 33.6281 8.84357 33.0594C7.2666 32.1503 5.68838 31.2434 4.10938 30.3379C3.69388 30.0997 3.27357 29.8698 2.85547 29.6361C2.85547 29.6361 2.82477 29.6289 2.81457 29.602C2.78406 29.5606 2.76182 29.5503 2.73764 29.5441C2.18195 29.2002 2.05272 28.649 2.00147 28.0135C1.99752 26.8511 2.00517 25.7293 2.00123 24.5596C1.99746 23.39 2.00528 22.2683 2.00166 21.0986C1.99765 20.0338 2.0051 19.017 2.00108 17.9523C1.9973 16.8524 2.00497 15.8005 2.00118 14.7006C1.99738 13.5309 2.00504 12.4092 2.00127 11.2396C1.9989 11.0192 2.02492 10.8457 2.01416 10.6746C1.96241 9.85111 2.32255 9.28178 3.05559 8.92566C3.2886 8.81246 3.50997 8.67532 3.7581 8.52137C4.98987 7.81328 6.20022 7.13295 7.43061 6.42386C8.30319 5.90834 9.15573 5.4216 10.0354 4.90928C10.9373 4.39132 11.8121 3.89894 12.7093 3.37696C13.8004 2.73774 14.8691 2.12812 15.9603 1.489ZM10.6395 13.394C9.51359 13.394 8.38765 13.394 7.19303 13.394C7.278 13.6717 7.32656 13.8537 7.38887 14.0308C8.72799 17.8362 10.077 21.6382 11.3973 25.4502C11.5462 25.8799 11.7525 25.9903 12.1813 25.9891C17.075 25.9748 21.9688 25.9933 26.8623 25.9631C27.4718 25.9593 28.1038 25.792 28.6834 25.5837C29.8787 25.1542 30.4245 24.1673 30.6033 22.9822C30.7916 21.7341 30.3455 20.7151 29.3004 19.9826C29.0947 19.8384 28.8711 19.7198 28.6335 19.5758C28.7558 19.4686 28.8356 19.4017 28.9121 19.3312C30.0861 18.2496 30.3808 17.0376 29.8232 15.587C29.3041 14.2363 28.102 13.4015 26.6175 13.3972C23.524 13.3883 20.4304 13.4001 17.3369 13.3861C16.9803 13.3844 16.8032 13.4864 16.7016 13.8352C16.4623 14.6564 16.1872 15.4672 15.9236 16.2813C15.5431 17.456 15.1599 18.6299 14.745 19.9053C14.641 19.6171 14.5717 19.44 14.5127 19.2594C13.9322 17.4833 13.3427 15.7099 12.7823 13.9274C12.6589 13.5349 12.4956 13.3407 12.0542 13.3846C11.6215 13.4276 11.1813 13.394 10.6395 13.394Z"
        fill="#FFC115" />
    <path
        d="M18.7429 38.6488C19.1551 38.5571 19.6225 38.5607 19.9713 38.3591C24.712 35.619 29.4242 32.8295 34.1702 30.0986C36.2571 28.8977 35.8545 28.95 35.8608 27.1132C35.8803 21.4559 35.869 15.7985 35.8746 10.0938C35.9084 10.0502 35.932 10.0633 35.9543 10.1567C35.9572 16.0692 35.9545 21.9108 35.9606 27.7525C35.9608 28.0053 35.9732 28.3012 36.0991 28.5024C36.4024 28.9871 36.7765 29.4275 37.122 29.8858C37.122 29.8858 37.14 29.9236 37.1475 29.9432C36.9121 30.2641 36.7216 30.6416 36.416 30.8512C35.745 31.3114 35.0157 31.6866 34.291 32.1269C32.5614 33.1263 30.8501 34.0936 29.1413 35.0653C28.3743 35.5014 27.6123 35.9461 26.8261 36.4169C25.7979 37.0184 24.7917 37.5899 23.7584 38.1876C22.9018 38.681 22.0723 39.1481 21.2142 39.6407C20.7919 39.9745 20.345 40.0739 19.8125 39.9467C19.7136 39.8659 19.6575 39.8443 19.6014 39.8228C19.6014 39.8228 19.609 39.824 19.6038 39.7916C19.4812 39.6126 19.3613 39.4679 19.247 39.3189C19.0769 39.0971 18.9107 38.8723 18.7429 38.6488Z"
        fill="#FCDB42" />
    <path
        d="M18.7171 38.6288C18.9108 38.8724 19.0769 39.0972 19.247 39.3189C19.3613 39.468 19.4813 39.6127 19.6033 39.7955C19.4568 39.7653 19.3057 39.6988 19.1207 39.6176C18.2391 39.1148 17.3912 38.6269 16.5042 38.1362C15.34 37.471 14.215 36.8086 13.0512 36.1474C12.5046 35.8383 11.9982 35.5254 11.4885 35.2179C10.6508 34.7125 9.81095 34.2106 8.9405 33.6955C7.39799 32.8274 5.88696 31.9711 4.33719 31.111C3.81354 30.6406 3.32863 30.1741 2.84961 29.6719C3.2736 29.8699 3.69392 30.0998 4.10941 30.3381C5.68842 31.2436 7.26664 32.1504 8.8436 33.0595C9.8302 33.6282 10.8073 34.2137 11.8004 34.7707C14.0936 36.0568 16.3939 37.3302 18.7171 38.6288Z"
        fill="#F69321" />
    <path
        d="M37.1376 29.8363C36.7766 29.4276 36.4025 28.9873 36.0992 28.5026C35.9732 28.3013 35.9609 28.0055 35.9606 27.7526C35.9546 21.9109 35.9573 16.0693 35.9582 10.1772C36.8679 10.4452 37.2647 11.0869 37.1715 12.0885C37.1737 13.3266 37.1692 14.5178 37.1714 15.7577C37.1737 16.8926 37.1693 17.9788 37.1715 19.1138C37.1739 20.3186 37.1696 21.4747 37.1717 22.6795C37.1738 23.8145 37.1696 24.9008 37.1717 26.0358C37.1697 27.3186 37.1613 28.5527 37.1376 29.8363Z"
        fill="#F69321" />
    <path
        d="M10.692 13.3939C11.1813 13.3939 11.6216 13.4275 12.0543 13.3845C12.4957 13.3406 12.659 13.5348 12.7824 13.9273C13.3428 15.7098 13.9322 17.4832 14.5128 19.2593C14.5718 19.4399 14.6411 19.617 14.7451 19.9052C15.16 18.6298 15.5432 17.4559 15.9236 16.2812C16.1873 15.4671 16.4624 14.6563 16.7016 13.8351C16.8033 13.4863 16.9803 13.3843 17.337 13.386C20.4305 13.4 23.524 13.3882 26.6175 13.3971C28.1021 13.4014 29.3041 14.2362 29.8233 15.5869C30.3809 17.0375 30.0862 18.2495 28.9122 19.3311C28.8357 19.4016 28.7559 19.4685 28.6335 19.5757C28.8712 19.7197 29.0948 19.8383 29.3005 19.9825C30.3456 20.715 30.7917 21.734 30.6034 22.9821C30.4246 24.1672 29.8788 25.1541 28.6835 25.5836C28.1039 25.7919 27.4718 25.9592 26.8624 25.963C21.9689 25.9932 17.0751 25.9747 12.1814 25.989C11.7526 25.9902 11.5463 25.8799 11.3974 25.4501C10.0771 21.6381 8.72807 17.8361 7.38895 14.0307C7.32664 13.8536 7.27808 13.6716 7.19312 13.3939C8.38773 13.3939 9.51367 13.3939 10.692 13.3939ZM21.9543 17.171C21.9507 17.3969 21.9074 17.6323 21.9579 17.8454C21.9901 17.9816 22.1569 18.1825 22.2703 18.1872C22.9994 18.2174 23.7306 18.2112 24.4606 18.1965C24.8466 18.1886 25.0183 17.9334 25.0153 17.575C25.0123 17.2181 24.8537 16.9749 24.4508 16.9756C23.8943 16.9765 23.3375 16.9628 22.7814 16.9786C22.5144 16.9862 22.2488 17.0471 21.9543 17.171ZM21.953 22.3164C22.0199 22.3845 22.0857 22.5107 22.1537 22.5119C22.9572 22.5254 23.7631 22.5506 24.563 22.4945C24.7255 22.4831 24.9812 22.1483 24.9835 21.9601C24.9859 21.7658 24.7417 21.4087 24.5878 21.3988C23.7271 21.3438 22.8611 21.3723 21.9451 21.3723C21.9451 21.7056 21.9451 21.9644 21.953 22.3164Z"
        fill="#DB352B" />
    <path
        d="M21.9683 17.1277C22.2487 17.0474 22.5143 16.9864 22.7813 16.9788C23.3373 16.963 23.8942 16.9768 24.4506 16.9758C24.8536 16.9751 25.0122 17.2183 25.0152 17.5752C25.0182 17.9337 24.8465 18.1889 24.4605 18.1967C23.7304 18.2115 22.9993 18.2176 22.2702 18.1875C22.1568 18.1828 21.99 17.9818 21.9577 17.8456C21.9073 17.6325 21.9506 17.3972 21.9683 17.1277Z"
        fill="#FFC115" />
    <path
        d="M21.949 22.2701C21.9451 21.9647 21.9451 21.7059 21.9451 21.3726C22.8611 21.3726 23.7271 21.3441 24.5877 21.3991C24.7417 21.409 24.9858 21.7661 24.9834 21.9604C24.9812 22.1487 24.7254 22.4835 24.5629 22.4948C23.7631 22.5509 22.9571 22.5257 22.1536 22.5122C22.0857 22.511 22.0198 22.3848 21.949 22.2701Z"
        fill="#FFC115" />
</svg>