<svg width="40" height="40" fill="none" xmlns="http://www.w3.org/2000/svg"><path d="M15.96 1.489c.453-.29.884-.55 1.33-.843.175-.085.365-.097.491-.193.764-.58 1.524-.618 2.334-.028.909.523 1.785 1.034 2.697 1.554.746.424 1.456.838 2.203 1.26.914.526 1.79 1.045 2.703 1.567 1.073.616 2.11 1.228 3.182 1.847 1.333.758 2.63 1.509 3.963 2.274.457.265.897.498 1.007 1.128-.001 5.744.01 11.4-.01 17.058-.005 1.837.397 1.785-1.69 2.986-4.746 2.73-9.458 5.52-14.199 8.26-.348.202-.816.198-1.254.27-2.323-1.299-4.623-2.572-6.917-3.858-.993-.557-1.97-1.143-2.956-1.712a2405.1 2405.1 0 00-4.735-2.721c-.415-.238-.835-.468-1.254-.702 0 0-.03-.007-.04-.034-.03-.041-.053-.052-.077-.058-.556-.344-.685-.895-.737-1.53-.003-1.163.004-2.285 0-3.454-.004-1.17.004-2.292 0-3.461-.003-1.065.004-2.082 0-3.147-.004-1.1.004-2.152 0-3.251-.004-1.17.004-2.292 0-3.461-.002-.22.024-.394.013-.565-.052-.824.309-1.393 1.042-1.75.233-.113.454-.25.702-.404C4.99 7.813 6.2 7.133 7.431 6.424c.872-.516 1.725-1.002 2.604-1.515.902-.518 1.777-1.01 2.674-1.532 1.091-.64 2.16-1.249 3.251-1.888zm-5.32 11.905H7.192c.085.278.134.46.196.637 1.339 3.805 2.688 7.607 4.008 11.42.15.429.355.54.784.538 4.894-.014 9.788.004 14.681-.026.61-.004 1.242-.171 1.821-.38 1.196-.429 1.741-1.416 1.92-2.6.189-1.249-.258-2.268-1.303-3-.205-.145-.429-.263-.666-.407.122-.107.202-.174.278-.245 1.174-1.081 1.469-2.293.911-3.744-.519-1.35-1.721-2.185-3.206-2.19-3.093-.009-6.187.003-9.28-.01-.357-.003-.534.1-.635.448-.24.821-.515 1.632-.778 2.446-.38 1.175-.764 2.349-1.179 3.624-.104-.288-.173-.465-.232-.646-.58-1.776-1.17-3.55-1.73-5.332-.124-.392-.287-.586-.729-.542-.433.043-.873.009-1.415.009z" fill="#FFC115"/><path d="M18.743 38.649c.412-.092.88-.088 1.228-.29 4.741-2.74 9.453-5.53 14.2-8.26 2.086-1.201 1.684-1.149 1.69-2.986.02-5.657.008-11.314.014-17.02.033-.043.057-.03.08.064.002 5.912 0 11.754.006 17.596 0 .252.012.548.138.75.303.484.678.924 1.023 1.383l.026.057c-.236.321-.426.699-.732.908-.671.46-1.4.836-2.125 1.276-1.73 1-3.44 1.967-5.15 2.938-.767.436-1.529.881-2.315 1.352-1.028.601-2.034 1.173-3.068 1.77-.856.494-1.686.961-2.544 1.454-.422.334-.869.433-1.401.306a.655.655 0 00-.212-.124s.008.001.003-.031c-.123-.18-.243-.324-.357-.473-.17-.222-.336-.447-.504-.67z" fill="#FCDB42"/><path d="M18.717 38.629c.194.243.36.468.53.69.114.149.234.294.356.476-.146-.03-.297-.096-.482-.177-.882-.503-1.73-.991-2.617-1.482-1.164-.665-2.289-1.327-3.453-1.989-.546-.309-1.053-.622-1.563-.93a346.655 346.655 0 00-2.547-1.521c-1.543-.869-3.054-1.725-4.604-2.585a26.51 26.51 0 01-1.487-1.44c.424.199.844.429 1.26.667 1.578.906 3.157 1.812 4.734 2.721.986.57 1.963 1.155 2.956 1.712 2.294 1.286 4.594 2.56 6.917 3.858zM37.138 29.836c-.361-.408-.735-.849-1.039-1.333-.126-.202-.138-.497-.138-.75-.006-5.842-.004-11.684-.003-17.576.91.268 1.307.91 1.214 1.912.002 1.238-.003 2.429 0 3.669.002 1.135-.003 2.22 0 3.356.002 1.205-.002 2.36 0 3.566.002 1.134-.002 2.22 0 3.356-.002 1.283-.01 2.517-.034 3.8z" fill="#F69321"/><path d="M10.692 13.394c.49 0 .93.034 1.362-.01.442-.043.605.15.728.543.56 1.783 1.15 3.556 1.73 5.332.06.18.13.358.233.646l1.179-3.624c.263-.814.538-1.625.778-2.446.101-.349.278-.45.635-.449 3.093.014 6.187.002 9.28.011 1.485.004 2.687.84 3.206 2.19.558 1.45.263 2.663-.91 3.744-.077.07-.157.137-.28.245.238.144.462.262.668.407 1.045.732 1.49 1.751 1.302 3-.178 1.184-.724 2.171-1.92 2.6-.58.209-1.211.376-1.82.38-4.894.03-9.788.012-14.682.026-.428.001-.635-.11-.784-.539-1.32-3.812-2.669-7.614-4.008-11.42-.062-.176-.11-.358-.196-.636h3.499zm11.262 3.777c-.003.226-.047.461.004.674.032.137.199.338.312.342.73.03 1.46.024 2.19.01.387-.008.558-.264.555-.622-.003-.357-.161-.6-.564-.6-.557.002-1.114-.012-1.67.004a2.26 2.26 0 00-.827.192zm-.001 5.145c.067.069.133.195.2.196.804.013 1.61.039 2.41-.018.163-.01.418-.346.42-.534.003-.194-.241-.551-.395-.561-.86-.055-1.727-.027-2.643-.027 0 .334 0 .592.008.944z" fill="#DB352B"/><path d="M21.968 17.128c.28-.08.546-.142.813-.15.556-.015 1.113-.001 1.67-.002.403 0 .561.242.564.6.003.358-.169.613-.555.62-.73.015-1.46.022-2.19-.009-.113-.004-.28-.205-.312-.341-.05-.213-.007-.449.01-.718zM21.949 22.27c-.004-.305-.004-.564-.004-.897.916 0 1.782-.029 2.643.026.154.01.398.367.395.561-.002.189-.258.523-.42.535-.8.056-1.606.03-2.41.017-.067-.001-.133-.127-.204-.242z" fill="#FFC115"/></svg>