<svg viewBox="0 0 40 40" xmlns="http://www.w3.org/2000/svg"><rect width="40" height="40" fill="#D71921" rx="8"/><path d="M20 1.71C9.9 1.71 1.71 9.9 1.71 20S9.9 38.29 20 38.29 38.29 30.1 38.29 20 30.1 1.71 20 1.71zM9.345 20a17.833 17.833 0 006.512-4.143A17.785 17.785 0 0020 9.345a17.92 17.92 0 004.143 6.512A17.921 17.921 0 0030.655 20a18.06 18.06 0 00-6.512 4.143A17.92 17.92 0 0020 30.655a17.92 17.92 0 00-4.143-6.512A17.831 17.831 0 009.345 20zm-5.223-1.248c.618-7.803 6.827-14.012 14.63-14.63-.692 8.033-6.586 13.927-14.63 14.63zm0 2.496c8.044.692 13.938 6.597 14.63 14.63-7.803-.618-14.012-6.827-14.63-14.63zm31.767 0c-.619 7.803-6.828 14.012-14.63 14.63.692-8.033 6.586-13.927 14.63-14.63zm0-2.496c-8.044-.703-13.938-6.586-14.63-14.63 7.802.618 14.011 6.827 14.63 14.63z" fill="#fff"/></svg>