<svg viewBox="0 0 40 40" xmlns="http://www.w3.org/2000/svg"><path d="M37.378 2.004h.024-.024z" fill="url(#prefix__tp_bank_paint0_linear)"/><path d="M37.196 2.001z" fill="url(#prefix__tp_bank_paint1_linear)"/><path d="M37.196 2c-.048.002-.075.005-.075.005H3.066l31.345 13.534 5.13-8.924c.553-1.166.568-2.294.25-2.91C38.937 2.05 37.534 1.99 37.196 2z" fill="url(#prefix__tp_bank_paint2_linear)"/><path d="M37.196 2.001l-.075.004h.28A2.085 2.085 0 0037.196 2zm2.433 4.403L12.356 27.149l5.366 9.28s.617 1.238 2.325 1.238c1.707 0 2.466-1.428 2.466-1.428L39.541 6.615c.033-.071.059-.14.088-.211z" fill="url(#prefix__tp_bank_paint3_linear)"/><path d="M13.884 6.676L3.066 2.005S.837 2.005.173 3.9C-.404 5.55.647 6.901.647 6.901l17.067 29.515-3.83-29.74z" fill="url(#prefix__tp_bank_paint4_linear)"/><defs><linearGradient id="prefix__tp_bank_paint0_linear" x1="2.188" y1="8.96" x2="40.109" y2="8.96" gradientUnits="userSpaceOnUse"><stop stop-color="#FBB413" stop-opacity=".784"/><stop offset="1" stop-color="#DF5F27"/></linearGradient><linearGradient id="prefix__tp_bank_paint1_linear" x1="3.05" y1="8.775" x2="40.042" y2="8.775" gradientUnits="userSpaceOnUse"><stop stop-color="#FBB413" stop-opacity=".784"/><stop offset="1" stop-color="#DF5F27"/></linearGradient><linearGradient id="prefix__tp_bank_paint2_linear" x1="3.066" y1="2.005" x2="34.464" y2="8.267" gradientUnits="userSpaceOnUse"><stop stop-color="#FBB413"/><stop offset="1" stop-color="#DE5D27"/></linearGradient><linearGradient id="prefix__tp_bank_paint3_linear" x1="39.393" y1="18.385" x2="16.767" y2="28.884" gradientUnits="userSpaceOnUse"><stop stop-color="#FBB413"/><stop offset="1" stop-color="#DE5D27"/></linearGradient><linearGradient id="prefix__tp_bank_paint4_linear" x1="2.321" y1="31.489" x2="8.496" y2="4.785" gradientUnits="userSpaceOnUse"><stop stop-color="#FBB413"/><stop offset="1" stop-color="#DE5D27"/></linearGradient></defs></svg>