<svg viewBox="0 0 16 16" xmlns="http://www.w3.org/2000/svg"><path d="M7.306.77v6.46H8.69V.77c0-.462.308-.77.77-.77.461 0 .769.308.769.77v6.46h1.385V.77c0-.462.307-.77.769-.77.461 0 .769.308.769.77v6.46h2c.462 0 .77.308.77.77a.77.77 0 01-.77.77h-2v6.46c0 .462-.308.77-.77.77-.46 0-.768-.308-.768-.77V8.77h-1.385v6.46c0 .462-.308.77-.77.77-.46 0-.769-.308-.769-.77V8.77H7.306v6.46c0 .462-.308.77-.77.77-.461 0-.769-.308-.769-.77V8.77H4.383v6.46c0 .462-.308.77-.77.77-.461 0-.769-.308-.769-.77V8.77h-2C.383 8.77.075 8.461.075 8s.308-.77.77-.77h2V.77c0-.462.307-.77.768-.77.462 0 .77.308.77.77v6.46h1.384V.77c0-.462.308-.77.77-.77a.77.77 0 01.769.77z" fill="#ED1C24"/></svg>