<svg viewBox="0 0 24 24" xmlns="http://www.w3.org/2000/svg"><path fill="#06377B" d="M0 0h24v24H0z"/><path d="M11.64 6.42v5.04h1.08V6.42c0-.36.24-.6.6-.6s.6.24.6.6v5.04H15V6.42c0-.36.24-.6.6-.6s.6.24.6.6v5.04h1.56c.36 0 .6.24.6.6s-.3.6-.6.6H16.2v5.04c0 .36-.24.6-.6.6s-.6-.24-.6-.6v-5.04h-1.08v5.04c0 .36-.24.6-.6.6s-.6-.24-.6-.6v-5.04h-1.08v5.04c0 .36-.24.6-.6.6s-.6-.24-.6-.6v-5.04H9.36v5.04c0 .36-.24.6-.6.6s-.6-.24-.6-.6v-5.04H6.6c-.36 0-.6-.24-.6-.6s.24-.6.6-.6h1.56V6.42c0-.36.24-.6.6-.6s.6.24.6.6v5.04h1.08V6.42c0-.36.24-.6.6-.6s.6.3.6.6z" fill="#ED1C24"/></svg>