<svg viewBox="0 0 16 16" xmlns="http://www.w3.org/2000/svg">
    <path
        d="M7.30575 0.769231V7.23077H8.69041V0.769231C8.69041 0.307692 8.9981 0 9.45964 0C9.92118 0 10.2289 0.307692 10.2289 0.769231V7.23077H11.6135V0.769231C11.6135 0.307692 11.9212 0 12.3827 0C12.8442 0 13.1519 0.307692 13.1519 0.769231V7.23077H15.152C15.6135 7.23077 15.9212 7.53846 15.9212 8C15.9212 8.46154 15.5366 8.76923 15.152 8.76923H13.1519V15.2308C13.1519 15.6923 12.8442 16 12.3827 16C11.9212 16 11.6135 15.6923 11.6135 15.2308V8.76923H10.2289V15.2308C10.2289 15.6923 9.92118 16 9.45964 16C8.9981 16 8.69041 15.6923 8.69041 15.2308V8.76923H7.30575V15.2308C7.30575 15.6923 6.99806 16 6.53652 16C6.07498 16 5.76729 15.6923 5.76729 15.2308V8.76923H4.38269V15.2308C4.38269 15.6923 4.07499 16 3.61346 16C3.15192 16 2.84422 15.6923 2.84422 15.2308V8.76923H0.844243C0.382705 8.76923 0.0750122 8.46154 0.0750122 8C0.0750122 7.53846 0.382705 7.23077 0.844243 7.23077H2.84422V0.769231C2.84422 0.307692 3.15192 0 3.61346 0C4.07499 0 4.38269 0.307692 4.38269 0.769231V7.23077H5.76729V0.769231C5.76729 0.307692 6.07498 0 6.53652 0C6.99806 0 7.30575 0.384615 7.30575 0.769231Z"
        fill="#ED1C24" />
</svg>