<svg viewBox="0 0 40 40" xmlns="http://www.w3.org/2000/svg"><path d="M3.643 19.066c-.111-.062-.203-.052-.263.065l-.848 1.517h1.414l.531.985c-.731 0-1.46.003-2.192.003-.378-.014-.53.457-.743.85H0l2.445-4.461 2.15.016 1.858 3.384c1.004-.03 2.88-.038 3.438-.04.37-.034.29-.668 0-.703l-3.151.004-1.461-2.658h3.983c.206 0 .818-.012 1.262.006.018 0 .038.005.055.009a.805.805 0 01.519.272c.173.182.227.476.227.765 0 .248-.02.5-.078.673-.098.286-.282.42-.501.469.343.032.685.15.738.812.01.146.034.312.025.508-.014.346-.156.659-.43.767-.629.25-1.688.166-2.095.168l-2.21.01a1.92 1.92 0 01-.21-.01l-1.039.004c-.63-1.139-1.251-2.277-1.882-3.415zm3.94.711H9.55c.561.014.464-.607.179-.66-.034-.007-.046-.014-.094-.014-.602-.004-2.015.002-2.434.002l.38.674v-.002zm4.487-1.749h3.728c.33 0 1.314-.065 1.806.331.193.154.255.434.255.723 0 .247-.02.5-.078.672-.097.287-.282.42-.501.47.418.07.82.295.782 1.26-.05 1.278-1.963 1.005-2.544.995l-3.452-.062v-4.389h.004zm1.457 3.385H16.195c.56.014.437-.669.154-.722-.034-.007-.021.009-.07.009-.601-.004-2.357-.023-2.777-.023l.025.736zm0-1.634h2.501c.562.014.464-.607.18-.66-.034-.007-.047-.014-.095-.014-.602-.004-2.168.001-2.586.001v.675-.002zM24.825 18h2.498l1.968 2.85c.204.372.416.459.487.174l-.023-.79v-2.21l1.463.004-.004 4.462h-2.448c-.769-1.04-1.422-1.994-2.19-3.035-.149-.256-.345-.11-.345.068 0 .145-.004.334.007.529v2.46l-1.413-.023h-.143c-.077 0-.147-.003-.213-.01l-1.039.003c-.628-1.138-1.252-2.276-1.882-3.415-.111-.061-.202-.05-.264.066l-.848 1.517h1.353l.531.984c-.73 0-1.4.004-2.131.004-.38-.014-.532.457-.744.85h-1.542l2.447-4.463h2.214l1.838 3.397c.058.087.143.26.21.289.09.026.155.001.213-.057V18zm6.9.023h1.442v1.57c.173.34.57.294.862-.03l1.689-1.54h1.75l-2.451 2.236 2.536 2.236h-1.78c-.643-.59-1.321-1.133-1.964-1.723-.363-.203-.637-.058-.623.344.004.094 0 .193 0 .295v1.096l-1.459.004v-4.488h-.001z" fill="#00A9AC"/><path d="M38.474 18.023h1.436l-2.464 2.236L40 22.49l-1.441.004-2.553-2.224 2.468-2.248z" fill="#DF762E"/></svg>