<svg viewBox="0 0 40 40" xmlns="http://www.w3.org/2000/svg"><path d="M26.315 26.08c0-1.278-.468-2.447-1.224-3.377L14.321 9.898c-.93-1.164-2.387-1.865-4.019-1.865-2.85 0-5.238 2.328-5.238 5.238 0 1.279.468 2.448 1.224 3.378l10.77 12.864c.93 1.164 2.387 1.86 4.019 1.86 2.91-.06 5.238-2.387 5.238-5.297v.005z" fill="url(#prefix__msb_bank_paint0_radial)"/><path d="M24.276 30.214c.99-.756 1.686-1.865 1.92-3.03l2.855-12.749a5.192 5.192 0 00-.93-4.367c-1.746-2.328-5.004-2.736-7.337-.99-.99.756-1.687 1.865-1.92 3.03l-2.796 12.455-.06.349a5.193 5.193 0 00.93 4.367c1.746 2.268 5.064 2.736 7.338.93v.005z" fill="url(#prefix__msb_bank_paint1_radial)"/><path d="M39.995 26.08c0-1.278-.468-2.447-1.224-3.377L27.947 9.898c-.935-1.164-2.388-1.865-4.02-1.865-2.855 0-5.238 2.328-5.238 5.238 0 1.279.468 2.448 1.224 3.378l10.77 12.864c.93 1.164 2.388 1.86 4.02 1.86 2.969-.06 5.297-2.387 5.297-5.297l-.005.005z" fill="url(#prefix__msb_bank_paint2_radial)"/><path d="M5.238 20.842a5.239 5.239 0 110 10.477 5.239 5.239 0 010-10.477z" fill="url(#prefix__msb_bank_paint3_radial)"/><defs><radialGradient id="prefix__msb_bank_paint0_radial" cx="0" cy="0" r="1" gradientUnits="userSpaceOnUse" gradientTransform="translate(18.08 14.828) scale(11.134)"><stop offset=".02" stop-color="#6F0000"/><stop offset=".33" stop-color="#910D11"/><stop offset=".45" stop-color="#A61519"/><stop offset=".59" stop-color="#BC1B20"/><stop offset=".74" stop-color="#CB1E24"/><stop offset=".88" stop-color="#D52027"/><stop offset="1" stop-color="#DA2128"/></radialGradient><radialGradient id="prefix__msb_bank_paint1_radial" cx="0" cy="0" r="1" gradientUnits="userSpaceOnUse" gradientTransform="translate(26.543 21.533) scale(9.92921)"><stop offset=".04" stop-color="#6F0000"/><stop offset=".3" stop-color="#910D11"/><stop offset=".42" stop-color="#A01317"/><stop offset=".68" stop-color="#BE1B21"/><stop offset=".88" stop-color="#D11F26"/><stop offset="1" stop-color="#DA2128"/></radialGradient><radialGradient id="prefix__msb_bank_paint2_radial" cx="0" cy="0" r="1" gradientUnits="userSpaceOnUse" gradientTransform="translate(21.584 10.23) scale(20.0447)"><stop offset=".36" stop-color="#DA2128"/><stop offset="1" stop-color="#F37021"/></radialGradient><radialGradient id="prefix__msb_bank_paint3_radial" cx="0" cy="0" r="1" gradientUnits="userSpaceOnUse" gradientTransform="translate(2.553 28.057) scale(10.4006)"><stop offset=".31" stop-color="#DA2128"/><stop offset=".79" stop-color="#910D11"/><stop offset="1" stop-color="#6F0000"/></radialGradient></defs></svg>