<svg viewBox="0 0 24 24" xmlns="http://www.w3.org/2000/svg">
    <rect width="24" height="24" fill="#F37D32" />
    <path transform="translate(-0.379395)"
        d="M6.01904 15.1802C6.01904 14.5202 6.01904 13.8002 6.01904 13.1402C6.01904 12.9002 6.07904 12.8402 6.31904 12.8402C6.67904 12.8402 7.09905 12.8402 7.45905 12.8402C7.69905 12.8402 7.75905 12.7802 7.75905 12.5402C7.75905 12.1202 7.75905 11.7002 7.75905 11.2802C7.75905 11.1002 7.75904 10.9802 7.51904 11.0402C7.09904 11.0402 6.73904 11.0402 6.31904 11.0402C6.13904 11.0402 6.07905 11.0402 6.07905 10.8002C6.07905 10.0202 6.07905 9.18016 6.07905 8.40016C6.07905 8.22016 6.19904 8.10016 6.31904 8.04016C7.93904 7.08016 9.61905 6.12016 11.299 5.16016C11.299 5.16016 11.359 5.16016 11.419 5.16016C11.899 4.74016 12.319 4.86016 12.8591 5.16016C14.7791 6.42016 16.759 7.68016 18.739 8.88016C18.919 9.00016 19.0391 9.18016 18.979 9.36016C18.979 10.5602 18.979 11.8202 18.979 13.0202C18.979 13.2602 18.919 13.3202 18.679 13.3202C18.259 13.3202 17.899 13.3202 17.479 13.3202C17.299 13.3202 17.239 13.3202 17.239 13.5602C17.239 13.9802 17.239 14.4602 17.239 14.8802C17.239 15.0602 17.299 15.1202 17.479 15.1202C17.899 15.1202 18.259 15.1202 18.679 15.1202C19.099 15.1202 18.919 15.1202 18.919 15.3602C18.919 15.9602 18.919 16.6202 18.919 17.2202C18.919 17.4602 18.859 17.5202 18.679 17.5802C17.059 18.1202 15.3791 18.6002 13.7591 19.1402C13.4591 19.2602 13.099 19.2602 12.799 19.1402C11.539 18.6602 10.279 18.1802 9.01904 17.6402C8.89904 17.6402 8.71905 17.5802 8.59905 17.5802C7.87905 17.5802 7.15904 17.5802 6.43904 17.5802C6.19904 17.5802 6.13904 17.5202 6.13904 17.2802C6.13904 16.6202 6.13904 15.9602 6.13904 15.3002L6.01904 15.1802ZM7.03904 9.42016C7.15904 9.42016 7.27904 9.42016 7.33904 9.30016C8.59904 8.88016 9.79905 8.46016 11.059 8.04016C11.299 7.92016 11.599 7.98016 11.839 8.16016C12.559 8.70016 13.2791 9.18016 14.0591 9.66016C14.2991 9.78016 14.359 10.0202 14.239 10.2602C14.239 10.2602 14.239 10.2602 14.239 10.3202C14.059 10.6202 13.879 10.6802 13.579 10.5602C13.279 10.3802 12.979 10.2002 12.679 9.96016C12.319 9.72016 12.079 9.84016 11.839 10.2002C11.659 10.3802 11.659 10.6802 11.839 10.8602C11.839 10.8602 11.899 10.9202 11.959 10.9802C12.739 11.5202 13.519 12.0602 14.299 12.5402C14.419 12.6002 14.5391 12.6602 14.6591 12.6602C15.6791 12.6602 16.6391 12.6602 17.6591 12.6602C17.8991 12.6602 17.9591 12.6602 17.9591 12.3602C17.9591 11.4602 17.9591 10.6202 17.9591 9.72016C17.9591 9.60016 17.899 9.42016 17.779 9.36016C15.919 8.22016 13.999 7.14016 12.139 6.00016C12.019 5.88016 11.779 5.88016 11.659 6.00016L7.39905 8.46016C6.97905 8.70016 6.91904 8.76016 7.03904 9.36016V9.42016ZM14.6591 15.8402H11.659C11.359 15.8402 11.179 15.6602 11.179 15.3002C11.179 15.0002 11.299 14.8802 11.659 14.8802C12.1391 14.8802 12.619 14.8802 13.099 14.8802C13.459 14.8802 13.639 14.6402 13.639 14.2802C13.639 13.9802 13.399 13.6802 13.099 13.6802H7.27905C7.09905 13.6802 7.03904 13.6802 7.03904 13.9202C7.03904 14.7602 7.03904 15.6002 7.03904 16.4402C7.03904 16.6202 7.09905 16.6802 7.27905 16.6802C7.93905 16.6802 8.59905 16.6802 9.19905 16.6802C9.31905 16.6802 9.49904 16.6802 9.61904 16.7402C10.699 17.1602 11.839 17.5802 12.919 18.0002C13.099 18.0602 13.339 18.1202 13.519 18.0002C14.899 17.5202 16.2791 17.1002 17.6591 16.6202C17.8991 16.5602 18.0191 16.4402 17.9591 16.1402C17.9591 16.1402 17.9591 16.0202 17.9591 15.9602C17.9591 15.7202 17.959 15.6602 17.719 15.6602C16.699 15.6602 15.679 15.6602 14.719 15.6602L14.6591 15.8402Z"
        fill="white" />
</svg>