<svg viewBox="0 0 16 16" xmlns="http://www.w3.org/2000/svg">
    <path
        d="M1 11.4818C1 10.7454 1 9.9422 1 9.2059C1 8.93815 1.06694 8.87121 1.33468 8.87121C1.73631 8.87121 2.20487 8.87121 2.60649 8.87121C2.87424 8.87121 2.94118 8.80428 2.94118 8.53653C2.94118 8.06797 2.94118 7.59941 2.94118 7.13085C2.94118 6.93004 2.94117 6.79617 2.67342 6.8631C2.20487 6.8631 1.80324 6.8631 1.33468 6.8631C1.13387 6.8631 1.06694 6.8631 1.06694 6.59535C1.06694 5.72517 1.06694 4.78806 1.06694 3.91788C1.06694 3.71707 1.20081 3.58319 1.33468 3.51625C3.14198 2.44526 5.01622 1.37427 6.89046 0.30328C6.89046 0.30328 6.95739 0.30328 7.02433 0.30328C7.55982 -0.165279 8.02839 -0.0314049 8.63082 0.30328C10.7728 1.70896 12.9817 3.11463 15.1906 4.45337C15.3914 4.58725 15.5253 4.78806 15.4584 4.98887C15.4584 6.32761 15.4584 7.73328 15.4584 9.07202C15.4584 9.33977 15.3915 9.40671 15.1237 9.40671C14.6551 9.40671 14.2535 9.40671 13.785 9.40671C13.5842 9.40671 13.5172 9.40671 13.5172 9.67446C13.5172 10.143 13.5172 10.6785 13.5172 11.1471C13.5172 11.3479 13.5842 11.4148 13.785 11.4148C14.2535 11.4148 14.6551 11.4148 15.1237 11.4148C15.5923 11.4148 15.3914 11.4148 15.3914 11.6826C15.3914 12.3519 15.3914 13.0882 15.3914 13.7576C15.3914 14.0254 15.3245 14.0923 15.1237 14.1592C13.3164 14.7617 11.4422 15.2972 9.63488 15.8996C9.30019 16.0335 8.89857 16.0335 8.56388 15.8996C7.1582 15.3641 5.75253 14.8286 4.34685 14.2262C4.21297 14.2262 4.01217 14.1592 3.87829 14.1592C3.07505 14.1592 2.2718 14.1592 1.46856 14.1592C1.20081 14.1592 1.13387 14.0923 1.13387 13.8245C1.13387 13.0882 1.13387 12.3519 1.13387 11.6156L1 11.4818ZM2.13793 5.05581C2.2718 5.05581 2.40567 5.0558 2.47261 4.92193C3.87829 4.45337 5.21704 3.98481 6.62271 3.51625C6.89046 3.38238 7.22514 3.44932 7.49288 3.65013C8.29613 4.25256 9.09938 4.78806 9.96956 5.32355C10.2373 5.45743 10.3042 5.72517 10.1704 5.99292C10.1704 5.99292 10.1704 5.99292 10.1704 6.05986C9.96955 6.39454 9.76875 6.46148 9.43406 6.32761C9.09938 6.1268 8.76469 5.92599 8.43001 5.65824C8.02839 5.39049 7.76063 5.52436 7.49288 5.92599C7.29207 6.1268 7.29207 6.46148 7.49288 6.66229C7.49288 6.66229 7.55983 6.72923 7.62677 6.79617C8.49695 7.3986 9.36712 8.00103 10.2373 8.53653C10.3712 8.60347 10.5051 8.6704 10.6389 8.6704C11.7769 8.6704 12.8479 8.6704 13.9858 8.6704C14.2535 8.6704 14.3205 8.6704 14.3205 8.33572C14.3205 7.33166 14.3205 6.39454 14.3205 5.39049C14.3205 5.25662 14.2535 5.0558 14.1197 4.98887C12.0446 3.71707 9.90262 2.5122 7.82757 1.2404C7.6937 1.10652 7.42596 1.10652 7.29208 1.2404L2.53955 3.98481C2.07099 4.25256 2.00405 4.3195 2.13793 4.98887V5.05581ZM10.6389 12.2181H7.29208C6.9574 12.2181 6.75658 12.0172 6.75658 11.6156C6.75658 11.2809 6.89046 11.1471 7.29208 11.1471C7.82758 11.1471 8.36307 11.1471 8.89857 11.1471C9.30019 11.1471 9.50099 10.8793 9.50099 10.4777C9.50099 10.143 9.23325 9.80833 8.89857 9.80833H2.40568C2.20487 9.80833 2.13793 9.80833 2.13793 10.0761C2.13793 11.0132 2.13793 11.9503 2.13793 12.8874C2.13793 13.0882 2.20487 13.1552 2.40568 13.1552C3.14199 13.1552 3.87829 13.1552 4.54766 13.1552C4.68154 13.1552 4.88234 13.1552 5.01622 13.2221C6.22108 13.6907 7.49289 14.1592 8.69775 14.6278C8.89856 14.6947 9.16631 14.7617 9.36712 14.6278C10.9067 14.0923 12.4462 13.6237 13.9858 13.0882C14.2535 13.0213 14.3874 12.8874 14.3205 12.5527C14.3205 12.5527 14.3205 12.4189 14.3205 12.3519C14.3205 12.0842 14.3205 12.0172 14.0527 12.0172C12.9148 12.0172 11.7769 12.0172 10.7059 12.0172L10.6389 12.2181Z"
        fill="white" />
</svg>