<svg viewBox="0 0 16 16" xmlns="http://www.w3.org/2000/svg"><path d="M1 11.482V9.206c0-.268.067-.335.335-.335h1.271c.268 0 .335-.067.335-.334V7.13c0-.201 0-.335-.268-.268H1.335c-.201 0-.268 0-.268-.268V3.918c0-.2.134-.335.268-.402A409.693 409.693 0 016.89.303h.134c.536-.468 1.004-.334 1.607 0a217.506 217.506 0 006.56 4.15c.2.134.334.335.267.536v4.083c0 .268-.066.335-.334.335h-1.339c-.2 0-.268 0-.268.267v1.473c0 .2.067.268.268.268h1.339c.468 0 .267 0 .267.268v2.075c0 .267-.066.334-.267.401-1.808.603-3.682 1.138-5.49 1.74a1.478 1.478 0 01-1.07 0c-1.406-.535-2.811-1.07-4.217-1.673-.134 0-.335-.067-.469-.067h-2.41c-.267 0-.334-.067-.334-.335v-2.208L1 11.482zm1.138-6.426c.134 0 .268 0 .335-.134 1.405-.469 2.744-.937 4.15-1.406.267-.134.602-.067.87.134A32.061 32.061 0 009.97 5.324c.267.133.334.401.2.669v.067c-.2.335-.401.401-.736.268-.335-.201-.67-.402-1.004-.67-.402-.268-.67-.134-.937.268-.2.2-.2.535 0 .736l.134.134c.87.603 1.74 1.205 2.61 1.74.134.067.268.134.402.134h3.347c.268 0 .334 0 .334-.334V5.39c0-.133-.066-.334-.2-.401-2.075-1.272-4.217-2.477-6.292-3.749a.407.407 0 00-.536 0L2.54 3.985c-.469.268-.536.334-.402 1.004v.067zm8.5 7.162H7.293c-.335 0-.535-.2-.535-.602 0-.335.133-.469.535-.469H8.9c.401 0 .602-.268.602-.67 0-.334-.268-.669-.602-.669H2.406c-.201 0-.268 0-.268.268v2.811c0 .201.067.268.268.268h2.142c.134 0 .334 0 .468.067 1.205.469 2.477.937 3.682 1.406.2.067.468.134.67 0 1.539-.536 3.078-1.004 4.618-1.54.268-.067.401-.2.334-.535v-.201c0-.268 0-.335-.267-.335h-3.347l-.067.201z" fill="#fff"/></svg>