<svg viewBox="0 0 40 40" xmlns="http://www.w3.org/2000/svg"><g clip-path="url(#prefix__shinhan_bank_clip0)"><mask id="prefix__a" style="mask-type:luminance" maskUnits="userSpaceOnUse" x="0" y="0" width="40" height="40"><path d="M19.336.025C8.439.509 0 9.755.496 20.652c.497 10.896 9.73 19.336 20.627 18.84 10.897-.485 19.349-9.73 18.852-20.628C39.491 8.266 30.754 0 20.242 0c-.298 0-.608 0-.906.025z" fill="#fff"/></mask><g mask="url(#prefix__a)"><path d="M40.472 0H0v40h40.472V0z" fill="url(#prefix__shinhan_bank_paint0_radial)"/></g><mask id="prefix__b" style="mask-type:luminance" maskUnits="userSpaceOnUse" x="4" y="2" width="30" height="36"><path d="M4.716 27.18c.62 2.184 1.924 4.666 4.009 6.466 2.271 1.96 4.877 2.643 7.062 2.867 1.737.173 3.264-.1 3.226-.72-.05-.869-2.668-.62-4.865-2.669 1.465-1.042 2.073-1.96 2.544-2.618.919-1.303.373-1.477-.595-1.403-2.57.224-3.748.608-4.257.608-.559 0-.211-2.27-.348-4.17-.124-1.55-.806-1.377-1.44-.856-1.079.943-1.836 2.606-2.047 2.433-.484-.36-.993-.968-1.626-2.048-.608-1.043-1.179-2.482-1.502-2.544h-.111c-.931 0-.658 2.494-.037 4.641m16.518-23.01c-.347.82 1.812 2.135.919 4.382-.67 1.675-1.254 2.68-1.514 4.84-.137 1.03-.1 1.837.074 2.482 0 0 .41 1.812 2.42 2.234.447.05 4.22.186 2.706-3.698-.757-1.7-1.353-3.525-.36-3.922 1.005-.397 1.985.31 2.383 1.7.782 2.792 2.755 3.376 4.678 1.96 1.7-1.24 1.651-3.66-.856-4.318-.918-.248-1.353-.273-2.246-1.266-.745-1.055.521-1.353 1.539-.856 1.377.67 2.52-.41 1.774-1.291-.819-.956-2.655-1.477-4.194-1.688-1.155-.149-2.048-.074-3.537-.161-1.254-.075-2.396-.832-3.128-.832-.285 0-.509.112-.645.422M8.253 9.904s-.62 5.212 7.136 11.902c0 0 8.13 7.024 9.01 7.843 2.06 1.961 3.773 5.784-2.072 6.95 0 0-.658.112-.633.559.012.422.447.546.683.521 2.618-.136 4.617-.732 6.428-1.986 2.358-1.638 4.48-6.354-1.712-11.504 0 0-1.924-1.75-5.436-4.977-1.837-1.738-2.743-2.544-2.743-2.544-.633-.584-1.241-1.167-1.812-1.713-4.567-4.369-5.572-8.278-2.147-10.586.918-.621 2.122-.757 3.487-.832 0 0 .658-.037.745-.484.087-.422-.186-.72-.683-.757-.372-.037-.757-.05-1.154-.05-4.046 0-8.75 1.837-9.097 7.695" fill="#fff"/></mask><g mask="url(#prefix__b)"><path d="M34.266 2.221H3.823v35.483h30.443V2.22z" fill="url(#prefix__shinhan_bank_paint1_radial)"/></g></g><defs><radialGradient id="prefix__shinhan_bank_paint0_radial" cx="0" cy="0" r="1" gradientUnits="userSpaceOnUse" gradientTransform="translate(23.038 16.086) scale(41.4605)"><stop stop-color="#00C0F3"/><stop offset=".06" stop-color="#00B2E9"/><stop offset=".16" stop-color="#0097D6"/><stop offset=".17" stop-color="#0092D3"/><stop offset=".23" stop-color="#007FC4"/><stop offset=".3" stop-color="#0070BA"/><stop offset=".38" stop-color="#0068B4"/><stop offset=".52" stop-color="#0066B3"/><stop offset="1" stop-color="#0066B3"/></radialGradient><radialGradient id="prefix__shinhan_bank_paint1_radial" cx="0" cy="0" r="1" gradientUnits="userSpaceOnUse" gradientTransform="translate(21.538 12.145) scale(18.4557)"><stop stop-color="#fff"/><stop offset=".22" stop-color="#F2E4CD"/><stop offset=".6" stop-color="#DFBA80"/><stop offset=".87" stop-color="#D3A04F"/><stop offset="1" stop-color="#CF963D"/></radialGradient><clipPath id="prefix__shinhan_bank_clip0"><path fill="#fff" d="M0 0h40v40H0z"/></clipPath></defs></svg>