<svg viewBox="0 0 40 40" xmlns="http://www.w3.org/2000/svg"><path d="M19.975 37.396h-2.361l.32-.227c4.747-3.238 7.2-5.877 8.23-8.112 1.011-2.217.615-4.038-.33-5.683-1.07-1.855-3.068-3.457-5.033-5.025-1.973-1.577-3.912-3.128-4.848-4.916-.75-1.441-.675-3.052.523-4.924 1.172-1.83 3.423-3.912 7.04-6.349a3.7 3.7 0 00.236-.152h.455l-.32.211s-.177.118-.21.144c-3.112 2.276-4.849 4.207-5.616 5.902-.768 1.686-.565 3.145.202 4.469 1.037 1.796 3.095 3.364 5.177 4.957 1.02.776 2.032 1.56 2.951 2.378.92.818 1.729 1.678 2.319 2.605 1.104 1.746 1.425 3.719.21 6.122-1.197 2.378-3.903 5.177-8.861 8.583l-.067.026-.017-.009zm.598-35.388h.422l-.312.228c-3.154 2.251-5.118 4.182-6.121 5.885-.987 1.678-1.03 3.12-.355 4.419.936 1.787 2.9 3.355 4.9 4.949.969.776 1.947 1.552 2.815 2.378.877.818 1.636 1.686 2.167 2.605 1.02 1.77 1.4 3.744.169 6.172-1.223 2.395-4.03 5.228-9.384 8.727l-.068.025h-2.032l.337-.227c4.722-3.17 7.378-5.776 8.626-8.01 1.24-2.201 1.096-4.022.245-5.641-.49-.928-1.215-1.788-2.058-2.614-.843-.826-1.796-1.619-2.749-2.412-.944-.784-1.888-1.568-2.698-2.377-.818-.81-1.5-1.653-1.922-2.547-.7-1.467-.717-3.077.463-4.974 1.164-1.872 3.5-4.022 7.522-6.577L20.573 2v.008zm6.333 0H40v35.388H22.774l.304-.227c4.367-3.154 6.736-5.75 7.748-7.977 1.004-2.192.675-4.013-.345-5.624-.59-.927-1.4-1.787-2.328-2.622-.927-.835-1.964-1.619-2.993-2.411-2.066-1.577-4.09-3.129-5.126-4.916-.852-1.467-1.037-3.086-.05-4.992.977-1.88 3.11-4.038 6.896-6.602L26.914 2l-.008.008zm-26.78 0h17.707l-.337.228C14.064 4.555 12.09 6.52 11.13 8.231c-.945 1.686-.894 3.145-.262 4.469.422.894 1.105 1.728 1.923 2.546.826.818 1.779 1.61 2.74 2.412.936.775 1.872 1.551 2.707 2.369.835.826 1.56 1.686 2.049 2.614.927 1.745 1.037 3.727-.43 6.138-1.45 2.378-4.46 5.186-9.79 8.6l-.067.026H0V2.008h.126z" fill="#F58220"/></svg>