<svg viewBox="0 0 24 24" xmlns="http://www.w3.org/2000/svg"><path fill="#fff" d="M0 0h24v24H0z"/><path d="M14.52 12c0 1.38-1.08 2.52-2.52 2.58-1.38 0-2.52-1.08-2.52-2.46s1.02-2.52 2.4-2.58c1.38 0 2.58 1.08 2.58 2.46h.06zm-2.46 5.52c-3 0-5.52-2.4-5.58-5.4 0-3.06 2.34-5.52 5.4-5.64 3.06 0 5.52 2.4 5.58 5.4 0 3.06-2.34 5.52-5.4 5.58v.06zm2.28-11.64c-.84 0-1.68.18-2.46.54-.78-.3-1.62-.48-2.46-.48-3.36 0-6 2.82-5.94 6.12v.06c0 3.36 2.82 6.06 6.18 6 .84 0 1.68-.24 2.46-.54.78.3 1.62.48 2.52.48 3.36-.06 6-2.82 5.94-6.18 0-3.36-2.76-6-6.12-6" fill="#D62427"/></svg>