<svg viewBox="0 0 16 16" xmlns="http://www.w3.org/2000/svg">
    <path
        d="M8 16C5.84398 16 3.85816 15.1489 2.32624 13.6738C0.79433 12.1986 0 10.156 0 8C0 5.84397 0.851067 3.85816 2.32624 2.32624C3.85816 0.851064 5.84398 0 8 0C10.156 0 12.1418 0.851064 13.6738 2.32624C15.1489 3.85816 16 5.84397 16 8C16 10.156 15.1489 12.1418 13.6738 13.6738C12.1418 15.1489 10.156 16 8 16ZM8 0.113475C5.90071 0.113475 3.9149 0.964539 2.43972 2.43972C0.964541 3.91489 0.113473 5.90071 0.113473 8C0.113473 10.0993 0.964541 12.0851 2.43972 13.5603C3.9149 15.0355 5.90071 15.8865 8 15.8865C10.0993 15.8865 12.0851 15.0355 13.5603 13.5603C15.0355 12.0851 15.8865 10.0993 15.8865 8C15.8865 5.90071 15.0355 3.91489 13.5603 2.43972C12.0851 0.964539 10.0993 0.113475 8 0.113475Z"
        fill="white" />
    <path fill-rule="evenodd" clip-rule="evenodd"
        d="M4.82252 2.0994C4.87926 1.98593 4.87926 1.87245 4.99274 1.81572C4.99274 1.81572 5.10621 1.92919 5.10621 1.98593C5.10621 2.0994 5.16295 2.15614 5.21968 2.21288C5.21968 2.32636 5.21968 2.38309 5.21968 2.43983C5.21968 2.55331 5.21968 2.55331 5.21968 2.61004V2.72352C5.21968 2.95047 5.27642 3.00721 5.21968 3.23416V3.34763V3.74479V3.63132V3.57458C5.21968 3.57458 5.21968 3.57458 5.21968 3.51784V3.40437V3.29089C5.21968 3.12068 5.21968 2.89373 5.21968 2.72352C5.21968 2.72352 5.21968 2.72352 5.21968 2.66678C5.21968 2.49657 5.10621 2.43983 5.10621 2.32636C5.10621 2.32636 5.10621 2.32636 5.21968 2.32636C5.21968 2.32636 5.21969 2.38309 5.27643 2.38309C5.27643 2.43983 5.3899 2.49657 5.44664 2.55331C5.44664 2.61004 5.44664 2.61004 5.44664 2.61004C5.44664 2.66678 5.50338 2.66678 5.44664 2.78026C5.44664 2.83699 5.44664 2.83699 5.44664 2.83699C5.44664 2.89373 5.44664 2.89373 5.44664 2.95047V3.06394V3.51784V3.63132V3.74479C5.44664 3.74479 5.3899 3.74479 5.33317 3.85827C5.33317 3.91501 5.27642 3.97174 5.21968 3.97174C5.10621 4.02848 5.04947 4.14196 4.936 4.14196C4.936 4.14196 4.82252 4.14196 4.70905 4.14196C4.70905 4.14196 4.70905 4.14196 4.65231 4.1987V4.31217V4.70933V4.76607C4.65231 4.76607 4.65231 4.82281 4.65231 4.87955V5.1065C4.65231 5.21997 4.65231 5.21997 4.65231 5.27671C4.65231 5.33345 4.4821 5.39018 4.53884 5.50366V5.5604V5.67387V6.0143C4.53884 6.0143 4.53884 6.05212 4.53884 6.12777V6.18451C4.53884 6.24125 4.53884 6.35472 4.53884 6.41146C4.53884 6.4682 4.53884 6.52494 4.53884 6.58167C4.53884 6.63841 4.53884 6.69515 4.53884 6.69515C4.53884 6.75189 4.53884 6.80862 4.53884 6.80862V7.20579C4.59557 7.20579 4.53884 7.31926 4.53884 7.376C4.53884 7.376 4.53884 7.376 4.4821 7.43274V7.48948V7.54621C4.4821 7.54621 4.4821 7.60295 4.4821 7.65969C4.4821 7.65969 4.4821 7.65969 4.4821 7.77316C4.4821 7.77316 4.4821 7.77316 4.4821 7.8299C4.4821 7.8299 4.25515 7.65969 4.25515 7.60295C4.25515 7.48948 4.25515 7.376 4.25515 7.31926C4.19841 7.20579 4.0282 7.14905 4.08493 6.97884V6.86536C4.08493 6.63841 4.08493 6.41146 4.08493 6.18451C4.14167 6.07104 4.08493 5.67387 4.08493 5.5604C4.08493 5.44692 4.08493 5.33345 4.08493 5.21997C4.08493 5.1065 4.08493 4.93628 4.08493 4.82281C4.08493 4.82281 4.08494 4.82281 4.0282 4.76607C3.97146 4.70933 4.0282 4.6526 4.0282 4.6526C4.0282 4.53912 4.0282 4.31217 4.0282 4.25543C4.0282 4.14196 4.0282 3.97175 4.0282 3.85827C4.0282 3.85827 4.0282 3.85827 3.97146 3.80153C3.97146 3.80153 3.85798 3.80153 3.80124 3.80153C3.80124 3.80153 3.74451 3.80153 3.68777 3.80153H3.63104H3.5743C3.5743 3.80153 3.5743 3.74479 3.46082 3.68806V3.57458C3.46082 3.51784 3.40409 3.46111 3.34735 3.34763V3.29089C3.34735 3.23416 3.34735 3.12068 3.34735 3.06394C3.34735 3.06394 3.40409 2.83699 3.34735 2.78026V2.72352V2.61004C3.34735 2.61004 3.34735 2.55331 3.34735 2.49657C3.40409 2.38309 3.51756 2.26962 3.51756 2.15614C3.63103 2.04267 3.68777 1.98593 3.80124 1.87245C3.91472 1.87245 3.91472 1.75898 3.97146 1.81572C3.97146 1.87245 3.85799 1.92919 3.85799 2.04267V2.0994C3.85799 2.0994 3.85799 2.0994 3.85799 2.15614C3.85799 2.32636 3.85799 2.55331 3.85799 2.66678C3.85799 2.66678 3.85799 2.66678 3.85799 2.72352V2.83699C3.85799 2.83699 3.85799 2.83699 3.85799 2.89373C3.85799 2.95047 3.85799 2.95047 3.85799 3.00721C3.85799 3.00721 3.85799 3.06394 3.85799 3.12068C3.85799 3.12068 3.91472 3.17742 3.97146 3.23416C4.0282 3.17742 3.97146 3.00721 3.97146 2.89373C3.97146 2.78026 3.97146 2.66678 3.97146 2.55331C3.97146 2.43983 3.97146 2.26962 3.97146 2.21288V2.04267C3.97146 2.04267 3.97146 2.04267 3.97146 1.98593C3.97146 1.81572 4.08493 1.70224 4.08493 1.53203C4.08493 1.53203 4.08493 1.53203 4.08493 1.47529C4.08493 1.53203 4.19841 1.47529 4.19841 1.36182L4.82252 2.0994ZM4.53884 4.82281V4.76607C4.53884 4.76607 4.36862 4.76607 4.42536 4.76607C4.42536 4.82281 4.42536 4.82281 4.42536 4.87955C4.42536 4.93628 4.53884 4.87955 4.4821 4.87955L4.53884 4.82281ZM4.936 2.21288C4.936 2.21288 4.936 2.21288 4.936 2.26962V2.21288ZM5.27643 4.6526C5.27643 4.48238 5.27643 4.25543 5.27643 4.02848C5.27643 3.80153 5.27643 3.57458 5.27643 3.40437C5.27643 3.34763 5.21969 3.29089 5.27643 3.17742C5.21969 3.06394 5.21969 2.83699 5.10621 2.78026V2.89373C5.10621 2.95047 5.10621 2.95047 5.10621 3.00721C5.10621 3.00721 5.10621 3.00721 5.10621 3.06394V3.29089V3.34763V4.02848V4.14196C5.10621 4.25543 5.10621 4.31217 5.10621 4.36891V4.48238V4.59586C5.10621 4.59586 5.10621 4.59586 5.16295 4.59586H5.27643C5.27643 4.59586 5.27643 4.59586 5.27643 4.53912V4.6526ZM4.87926 2.95047C4.87926 2.95047 4.87926 3.00721 4.87926 3.06394V3.12068V3.17742C4.87926 3.17742 4.87926 3.17742 4.87926 3.23416V3.34763C4.87926 3.34763 4.87926 3.34763 4.87926 3.46111C4.87926 3.68806 4.87926 3.91501 4.87926 4.14196C4.87926 4.14196 4.87926 4.25543 4.87926 4.31217V4.42565C4.87926 4.42565 4.87926 4.42565 4.87926 4.48238C4.87926 4.59586 4.87926 4.70933 4.99274 4.70933C4.99274 4.59586 4.99274 4.36891 4.99274 4.25543C4.936 4.25543 4.99274 4.02848 4.99274 3.91501C4.99274 3.57458 4.99274 3.17742 4.99274 2.95047H4.87926ZM3.85799 3.46111C3.85799 3.46111 3.85799 3.34763 3.85799 3.40437C3.85799 3.46111 3.80125 3.51784 3.74451 3.63132C3.74451 3.63132 3.74451 3.74479 3.74451 3.80153C3.74451 3.80153 3.74451 3.80153 3.74451 3.85827C3.74451 3.97175 3.74451 4.08522 3.74451 4.14196C3.74451 4.25543 3.74451 4.36891 3.74451 4.42565V4.53912C3.74451 4.6526 3.85798 4.82281 3.97146 4.82281C3.97146 4.82281 4.14167 4.70933 4.08493 4.6526V4.59586C4.08493 4.53912 4.0282 4.48238 3.97146 4.42565C3.97146 4.42565 3.97146 4.42565 3.97146 4.36891V4.31217C3.97146 4.08522 3.97146 3.85827 3.97146 3.74479L3.85799 3.46111ZM6.24096 3.57458V3.63132C6.24096 3.85827 6.24096 3.97175 6.24096 4.14196C6.24096 4.25543 6.24096 4.25543 6.24096 4.25543C6.24096 4.25543 6.24097 4.31217 6.18423 4.36891C6.18423 4.36891 6.18423 4.42565 6.18423 4.48238L6.07075 4.59586C6.07075 4.59586 6.12749 4.6526 6.18423 4.70933C6.18423 4.70933 6.18422 4.70933 6.24096 4.6526V4.53912C6.24096 4.53912 6.24096 4.48238 6.24096 4.42565C6.24096 4.42565 6.24096 4.31217 6.24096 4.25543C6.18422 4.08522 6.24096 3.80153 6.12749 3.63132L6.24096 3.57458ZM6.07075 3.57458C6.07075 3.57458 6.07075 3.57458 6.07075 3.68806C6.07075 3.68806 6.07075 3.74479 6.07075 3.80153V3.91501C6.07075 3.91501 6.07075 3.91501 6.07075 3.97174C6.07075 4.02848 6.07075 4.08522 6.01402 4.14196C6.01402 4.14196 6.01401 4.14196 5.95727 4.1987C5.95727 4.25543 5.95727 4.25543 6.07075 4.31217C6.12749 4.36891 6.07075 4.36891 6.07075 4.31217V4.25543C6.07075 4.14196 6.18423 4.08522 6.12749 3.91501C6.12749 3.91501 6.12749 3.74479 6.12749 3.68806L6.07075 3.57458ZM4.0282 3.68806C4.0282 3.68806 4.0282 3.63132 4.0282 3.57458C3.97146 3.57458 4.0282 3.68806 4.0282 3.74479C4.0282 3.85827 4.0282 3.91501 4.0282 3.91501C4.0282 4.08522 4.14168 4.25543 4.19841 4.36891V4.42565C4.19841 4.42565 4.31189 4.31217 4.19841 4.25543C4.19841 4.25543 4.19841 4.1987 4.19841 4.14196C4.19841 4.14196 4.19841 4.08522 4.19841 4.02848V3.91501L4.0282 3.68806ZM4.42536 4.42565V4.53912V4.48238C4.42536 4.48238 4.42536 4.48238 4.36862 4.48238L4.42536 4.42565ZM5.56011 4.42565C5.56011 4.42565 5.50338 4.42565 5.44664 4.53912C5.44664 4.53912 5.44664 4.53912 5.44664 4.6526C5.50338 4.59586 5.44664 4.48238 5.44664 4.48238L5.56011 4.42565ZM5.56011 4.76607C5.56011 4.76607 5.44664 4.82281 5.44664 4.87955V4.99302C5.44664 4.93628 5.50338 4.87955 5.56011 4.82281C5.56011 4.82281 5.56011 4.76607 5.50337 4.82281L5.56011 4.76607ZM4.87926 4.99302C4.87926 4.99302 4.87927 4.93628 4.76579 4.87955C4.76579 4.87955 4.76579 4.87955 4.76579 4.93628L4.87926 4.99302ZM5.16295 4.93628C5.16295 4.93628 5.21969 4.87955 5.16295 4.82281V4.93628ZM4.65231 5.16323C4.65231 5.16323 4.65231 5.04976 4.59558 5.04976L4.65231 5.16323ZM4.87926 5.27671H4.99274V5.21997C4.99274 5.21997 4.936 5.21997 4.87926 5.21997V5.27671ZM4.99274 5.61714H4.87926C4.87926 5.61714 4.87926 5.61713 4.87926 5.50366L4.99274 5.61714ZM4.65231 5.90082C4.76578 5.90082 4.65231 5.95756 4.65231 5.90082ZM4.65231 7.20579C4.65231 7.26252 4.65231 7.376 4.65231 7.43274C4.65231 7.43274 4.65231 7.20579 4.65231 7.14905V7.20579ZM4.76579 7.31926V7.376V7.54621C4.82253 7.54621 4.82253 7.31926 4.76579 7.31926ZM4.53884 7.88664C4.53884 7.88664 4.53884 8.00011 4.53884 7.94338H4.59558L4.53884 7.88664ZM4.76579 8.11359H4.87926C4.936 8.11359 5.04948 8.11359 5.04948 8.05685C5.04948 8.05685 4.87926 8.05685 4.82252 8.05685H4.76579V8.11359ZM5.10621 8.34054C5.10621 8.34054 5.10622 8.34054 5.04948 8.34054H5.10621ZM4.65231 8.34054C4.70905 8.34054 4.65231 8.39728 4.65231 8.34054ZM4.82252 8.62423C4.87926 8.62423 4.936 8.62423 4.936 8.51075C4.936 8.51075 4.82252 8.51075 4.82252 8.62423ZM4.936 8.90791V9.02139C4.936 9.1916 5.16295 9.02139 5.04948 8.96465L4.936 8.90791Z"
        fill="white" />
    <path fill-rule="evenodd" clip-rule="evenodd"
        d="M3.29008 3.91479C3.29008 3.91479 3.29008 4.0285 3.29008 4.1422H3.17638H3.11953C3.11953 4.1422 3.11953 4.1422 3.06268 4.1422C3.06268 4.1422 3.06268 4.1422 3.06268 4.0285C3.11953 4.0285 3.17638 3.97165 3.17638 3.91479H3.29008Z"
        fill="white" />
    <path fill-rule="evenodd" clip-rule="evenodd"
        d="M6.63879 3.91479C6.63879 3.91479 6.75249 3.97165 6.80934 4.0285C6.80934 4.0285 6.80934 4.0285 6.86619 4.08535C6.86619 4.1422 6.86619 4.19905 6.86619 4.19905C6.69564 4.19905 6.58194 4.1422 6.52509 4.0285C6.52509 4.0285 6.52509 4.0285 6.52509 3.97165L6.63879 3.91479Z"
        fill="white" />
    <path fill-rule="evenodd" clip-rule="evenodd"
        d="M3.34725 4.19861C3.34725 4.19861 3.40399 4.19861 3.34725 4.25535C3.34725 4.25535 3.23378 4.25535 3.34725 4.31208C3.34725 4.31208 3.46072 4.31208 3.40398 4.36882C3.40398 4.36882 3.34725 4.36882 3.29051 4.42556C3.29051 4.42556 3.23378 4.42556 3.17704 4.42556H3.1203H3.00682H2.89335C2.89335 4.42556 2.89335 4.42556 2.89335 4.36882H2.83661C2.83661 4.36882 2.89334 4.36882 2.95008 4.25535H3.06356H3.1203L3.34725 4.19861Z"
        fill="white" />
    <path fill-rule="evenodd" clip-rule="evenodd"
        d="M6.58067 4.19853C6.58067 4.19853 6.69415 4.25527 6.75089 4.25527H6.6374C6.58067 4.31201 6.52394 4.25527 6.4672 4.25527C6.4672 4.25527 6.4672 4.25527 6.41046 4.25527C6.41046 4.25527 6.41045 4.25527 6.35372 4.25527C6.29698 4.25527 6.35372 4.25527 6.29698 4.25527C6.29698 4.25527 6.29698 4.25527 6.24024 4.25527C6.18351 4.25527 6.12677 4.25527 6.12677 4.25527V4.1418C6.12677 4.1418 6.12677 4.19853 6.24024 4.1418C6.24024 4.1418 6.18351 4.1418 6.12677 4.1418C6.12677 4.08506 6.24025 4.1418 6.18351 4.02832L6.58067 4.19853Z"
        fill="white" />
    <path fill-rule="evenodd" clip-rule="evenodd"
        d="M3.51754 4.99275C3.51754 4.99275 3.51755 4.99275 3.46081 5.10622C3.40407 5.10622 3.34734 5.2197 3.2906 5.27644C3.2906 5.27644 3.23386 5.27644 3.17712 5.38991C3.17712 5.27644 3.34734 5.2197 3.34734 5.16296C3.34734 5.10622 3.46081 5.04949 3.46081 5.04949C3.46081 5.04949 3.46081 5.04949 3.51754 5.04949C3.51754 5.04949 3.63102 4.93601 3.68776 4.87927L3.51754 4.99275Z"
        fill="white" />
    <path fill-rule="evenodd" clip-rule="evenodd"
        d="M6.46729 5.10639C6.46729 5.10639 6.41056 5.1064 6.46729 4.99292C6.63751 5.16313 6.75098 5.33334 6.92119 5.44682C6.92119 5.50356 6.92119 5.5603 6.92119 5.5603C6.92119 5.5603 6.86445 5.50356 6.80771 5.44682H6.75098C6.75098 5.409 6.75098 5.37117 6.75098 5.33335L6.58077 5.16313H6.52403C6.52403 5.1064 6.52403 5.04966 6.52403 5.04966L6.46729 5.10639Z"
        fill="white" />
    <path fill-rule="evenodd" clip-rule="evenodd"
        d="M3.63057 5.10639C3.63057 5.10639 3.63056 5.1064 3.57383 5.16313C3.51709 5.16313 3.46035 5.27661 3.40361 5.33335V5.39008C3.40361 5.39008 3.34688 5.44682 3.29014 5.50356V5.5603C3.29014 5.5603 3.29014 5.5603 3.2334 5.61703C3.2334 5.5603 3.29014 5.50356 3.34688 5.50356L3.46035 5.39008C3.46035 5.39008 3.46035 5.39008 3.46035 5.27661C3.46035 5.27661 3.46035 5.27661 3.51709 5.21987C3.57382 5.16313 3.6873 5.1064 3.74404 4.99292L3.63057 5.10639Z"
        fill="white" />
    <path fill-rule="evenodd" clip-rule="evenodd"
        d="M6.29706 5.10632C6.41053 5.2198 6.524 5.33327 6.63748 5.44675C6.63748 5.56022 6.75096 5.56022 6.75096 5.61696C6.75096 5.73044 6.86443 5.73044 6.86443 5.78717C6.86443 5.90065 6.8077 5.84391 6.75096 5.90065V5.78717C6.75096 5.78717 6.75096 5.73044 6.69422 5.6737H6.63748C6.63748 5.56022 6.58074 5.56022 6.524 5.50349V5.44675C6.524 5.44675 6.46727 5.33327 6.41053 5.33327C6.41053 5.33327 6.35379 5.33327 6.41053 5.2198L6.29706 5.10632Z"
        fill="white" />
    <path fill-rule="evenodd" clip-rule="evenodd"
        d="M3.74466 5.27658C3.74466 5.27658 3.80139 5.27658 3.85813 5.27658V5.39006C3.85813 5.39006 3.85813 5.4468 3.80139 5.50353V5.56027V5.61701C3.80139 5.61701 3.80139 5.67375 3.74466 5.73048V5.78722C3.74466 5.78722 3.74465 5.84396 3.68791 5.9007V5.95743C3.68791 6.07091 3.57444 6.07091 3.57444 6.18438C3.57444 6.18438 3.57444 6.18438 3.5177 6.12765C3.5177 6.12765 3.5177 6.07091 3.57444 6.01417C3.57444 6.01417 3.57444 5.95743 3.57444 5.9007C3.57444 5.9007 3.57444 5.84396 3.57444 5.78722C3.57444 5.78722 3.57444 5.73048 3.57444 5.67375C3.57444 5.67375 3.57444 5.61701 3.57444 5.56027V5.50353C3.57444 5.50353 3.57444 5.4468 3.57444 5.39006C3.57444 5.39006 3.57444 5.27658 3.63118 5.27658C3.63118 5.27658 3.63118 5.33332 3.63118 5.39006C3.63118 5.39006 3.63118 5.4468 3.63118 5.50353C3.63118 5.50353 3.63118 5.56027 3.63118 5.61701C3.63118 5.61701 3.63118 5.67375 3.57444 5.73048V5.78722C3.57444 5.78722 3.5177 5.78722 3.57444 5.84396V5.9007V5.95743V6.01417C3.57444 5.95743 3.57444 5.9007 3.63118 5.84396V5.78722C3.74466 5.78722 3.74466 5.61701 3.74466 5.56027C3.74466 5.56027 3.80139 5.50353 3.80139 5.4468C3.85813 5.4468 3.85813 5.33332 3.91487 5.21985C3.91487 5.10637 4.02834 5.10637 4.02834 4.9929C4.02834 4.9929 4.02834 4.93616 4.08508 4.93616L3.74466 5.27658Z"
        fill="white" />
    <path fill-rule="evenodd" clip-rule="evenodd"
        d="M6.18397 5.27649C6.18397 5.27649 6.2407 5.27649 6.29744 5.27649C6.29744 5.27649 6.29744 5.27649 6.35417 5.33323C6.35417 5.38996 6.35417 5.38996 6.35417 5.38996C6.35417 5.4467 6.35418 5.50344 6.46766 5.50344C6.46766 5.56018 6.46766 5.56018 6.46766 5.56018C6.46766 5.61691 6.46766 5.67365 6.58113 5.67365C6.58113 5.73039 6.58113 5.78713 6.6946 5.78713C6.6946 5.84386 6.6946 5.9006 6.80808 5.9006C6.80808 5.95734 6.80808 6.01408 6.92155 6.01408C6.92155 6.07082 6.92155 6.07082 6.92155 6.12755C6.92155 6.18429 6.92155 6.18429 6.92155 6.18429C6.92155 6.24103 6.92155 6.24103 6.92155 6.29777H6.86482C6.86482 6.24103 6.86482 6.24103 6.86482 6.18429C6.86482 6.12755 6.86482 6.12755 6.86482 6.07082C6.86482 6.07082 6.86482 6.07082 6.86482 6.12755C6.86482 6.18429 6.86482 6.18429 6.86482 6.18429C6.86482 6.18429 6.86482 6.29777 6.86482 6.3545V6.29777C6.86482 6.29777 6.86481 6.24103 6.80808 6.18429V6.07082C6.80808 6.01408 6.80808 5.95734 6.80808 5.95734V5.9006C6.75134 5.78713 6.69461 5.67365 6.58113 5.56018C6.58113 5.56018 6.58113 5.50344 6.58113 5.4467C6.58113 5.4467 6.52439 5.38996 6.58113 5.33323C6.58113 5.33323 6.58113 5.33323 6.63786 5.33323C6.63786 5.38996 6.63786 5.38996 6.63786 5.33323L6.18397 5.27649ZM6.29744 5.61691C6.29744 5.61691 6.29744 5.67365 6.35417 5.73039L6.29744 5.61691Z"
        fill="white" />
    <path fill-rule="evenodd" clip-rule="evenodd"
        d="M3.97145 5.78722C3.97145 5.78722 4.02818 5.67375 4.08492 5.73049C4.08492 5.73049 4.14166 5.78722 4.14166 5.73049C4.14166 5.73049 4.14166 5.73049 4.25513 5.73049V5.78722V5.9007C4.25513 5.9007 4.1984 5.95744 4.25513 6.01417C4.25513 6.07091 4.1984 6.12765 4.14166 6.12765C4.02819 6.12765 3.91471 6.41134 3.91471 6.58155L4.02819 6.69503C4.02819 6.69503 4.02819 6.69503 4.02819 6.75176C3.97145 6.75176 4.02819 6.92198 3.91471 6.97871V7.09219C3.91471 7.09219 3.85798 7.14893 3.91471 7.20566V7.2624V7.37588C3.91471 7.37588 3.91471 7.37588 3.85797 7.37588C3.85797 7.2624 3.7445 7.14893 3.68776 7.03545V6.92198V6.8085C3.68776 6.75176 3.68776 6.58155 3.68776 6.58155C3.68776 6.58155 3.68776 6.58155 3.63103 6.52481C3.63103 6.52481 3.63103 6.52481 3.63103 6.46808V6.3546V6.29786C3.63103 6.29786 3.63103 6.29786 3.63103 6.24113V6.18439C3.68776 6.18439 3.7445 6.12765 3.7445 6.07091V5.95744C3.7445 5.95744 3.7445 5.95744 3.68776 5.95744C3.63102 6.01417 3.57429 6.07091 3.46081 6.18439C3.40407 6.29786 3.34734 6.41134 3.34734 6.46808C3.34734 6.46808 3.34734 6.58155 3.34734 6.63829C3.34734 6.69503 3.34734 6.75176 3.46081 6.8085C3.46081 7.14893 3.34734 7.37588 3.17712 7.54609V7.48935C3.17712 7.48935 3.17712 7.48935 3.17712 7.43261C3.2906 7.31914 3.23386 7.09219 3.17712 7.03545C3.17712 6.97871 3.17712 6.8085 3.17712 6.8085V6.75176C3.17712 6.75176 3.17712 6.75176 3.17712 6.69503C3.17712 6.69503 3.17712 6.69503 3.17712 6.63829V6.58155C3.17712 6.58155 3.17712 6.46808 3.23386 6.41134C3.23386 6.41134 3.23386 6.41134 3.2906 6.3546C3.2906 6.3546 3.34733 6.3546 3.40407 6.29786V6.24113C3.46081 6.24113 3.46081 6.12765 3.40407 6.12765L3.97145 5.78722Z"
        fill="white" />
    <path fill-rule="evenodd" clip-rule="evenodd"
        d="M5.84382 5.73047C5.84382 5.73047 5.84382 5.73047 5.90056 5.78721V5.90068C5.90056 5.95742 6.01403 6.07089 6.01403 6.07089C6.07077 6.07089 6.12751 6.18437 6.18425 6.24111C6.18425 6.29785 6.18425 6.29784 6.18425 6.29784C6.18425 6.35458 6.18425 6.35458 6.18425 6.35458C6.18425 6.41132 6.18425 6.41132 6.18425 6.41132C6.18425 6.46806 6.18425 6.46806 6.18425 6.46806V6.58153C6.18425 6.63827 6.18425 6.69501 6.18425 6.69501C6.18425 6.69501 6.18425 6.69501 6.18425 6.75175V6.86522C6.18425 7.03543 6.18425 7.20565 6.18425 7.31912C6.18425 7.37586 6.29772 7.4326 6.35445 7.48933C6.35445 7.48933 6.35445 7.54607 6.35445 7.60281H6.24098V7.54607C6.24098 7.54607 6.18425 7.48933 6.12751 7.4326V7.37586C6.12751 7.26238 6.12751 7.09217 6.12751 6.9787C6.12751 6.9787 6.12751 6.9787 6.12751 6.92196C6.12751 6.86522 6.12751 6.69501 6.12751 6.63827V6.5248V6.46806V6.41132V6.35458C6.12751 6.35458 6.07077 6.35458 6.01403 6.35458V6.46806V6.58153C6.07077 6.69501 6.18425 6.69501 6.29772 6.80848V6.92196C6.29772 7.09217 6.4112 7.09217 6.4112 7.20565L6.29772 7.31912C6.29772 7.54607 6.4112 7.60281 6.4112 7.8865V7.94324V7.99997C6.4112 7.99997 6.41119 7.99997 6.35445 7.99997C6.35445 7.99997 6.35445 7.99997 6.35445 7.8865C6.35445 7.8865 6.35445 7.65955 6.35445 7.60281V7.48933C6.35445 7.31912 6.35446 7.20565 6.46794 7.14891V7.09217V6.9787C6.46794 6.9787 6.46793 6.80848 6.35445 6.86522C6.35445 6.86522 6.35446 6.86522 6.29772 6.86522V6.75175V6.69501C6.29772 6.58153 6.24098 6.5248 6.29772 6.41132C6.4112 6.46806 6.4112 6.41132 6.4112 6.41132L5.84382 5.73047ZM5.84382 5.95742C5.84382 5.95742 5.84382 5.95742 5.84382 5.90068V5.95742Z"
        fill="white" />
    <path fill-rule="evenodd" clip-rule="evenodd"
        d="M6.921 11.3474C6.921 11.3474 6.92101 11.3474 6.97774 11.3474V11.4041C6.97774 11.4041 7.03448 11.4041 7.09122 11.4041C7.09122 11.4041 7.14795 11.4041 7.20469 11.4041V11.4609C7.20469 11.4609 7.20469 11.5744 7.20469 11.6311C7.20469 11.6311 7.20469 11.6878 7.20469 11.7446V12.0283V12.1417C7.09121 12.2552 6.92101 12.2552 6.7508 12.2552C6.7508 12.1985 6.52384 12.2552 6.52384 12.1417C6.18341 12.1417 5.78625 12.1417 5.5593 12.1417V12.0283C5.50257 11.9715 5.38909 11.8581 5.27562 11.8581C5.27562 11.8581 5.27561 11.8581 5.38909 11.8581C5.38909 11.8581 5.38909 11.9148 5.38909 11.9715C5.21888 11.9715 5.1054 11.8581 4.93519 11.9148C4.87845 11.8581 4.6515 11.9148 4.53802 11.9148C4.53802 11.9148 4.6515 11.9148 4.70824 11.9148H4.82171C4.82171 11.8581 4.93519 11.9148 4.99193 11.9148C4.99193 11.9148 5.1054 11.9148 5.21887 11.9148C5.33235 11.9148 5.44583 11.9148 5.5593 11.9148C5.5593 11.9148 5.5593 11.9715 5.67278 12.0283C5.67278 12.0283 5.67278 12.085 5.72952 12.085C5.72952 12.085 5.72951 12.085 5.78625 12.085L5.89973 12.1985C6.01321 12.1985 6.12668 12.1985 6.24015 12.1985H6.29689H6.46711C6.46711 12.1985 6.46711 12.1985 6.46711 12.1417C6.46711 12.1417 6.4671 12.0283 6.52384 12.0283C6.52384 11.858 6.52384 11.6311 6.41037 11.5744C6.29689 11.5744 6.24015 11.5176 6.12668 11.5744C6.06994 11.5744 6.0132 11.6878 5.95646 11.6878C5.95646 11.7446 5.84299 11.6878 5.84299 11.7446C5.72952 11.7446 5.50257 11.8013 5.33236 11.7446C5.44583 11.7446 5.38909 11.7446 5.44583 11.7446H5.5593C5.5593 11.7446 5.61604 11.6878 5.67278 11.6311C5.67278 11.6311 5.67277 11.5744 5.78625 11.5744V11.4609L6.921 11.3474Z"
        fill="white" />
    <path fill-rule="evenodd" clip-rule="evenodd"
        d="M4.08507 12.2552C4.08507 12.2552 4.08508 12.2552 4.14193 12.2552C4.14193 12.2552 4.02823 12.2552 3.97137 12.2552C3.97137 12.2552 3.97137 12.2552 3.97137 12.1984L4.08507 12.2552Z"
        fill="white" />
    <path fill-rule="evenodd" clip-rule="evenodd"
        d="M4.19794 12.5957C4.19794 12.5957 4.19794 12.5389 4.31164 12.5957C4.31164 12.5957 4.36849 12.5957 4.31164 12.7094C4.31164 12.7094 4.31163 12.7094 4.25478 12.7094V12.5957H4.19794Z"
        fill="white" />
    <path fill-rule="evenodd" clip-rule="evenodd"
        d="M7.60254 9.70203H7.94296C7.94296 9.75876 7.94296 9.70203 7.94296 9.8155C7.94296 9.8155 7.88622 9.8155 7.82948 9.8155H7.71601C7.71601 9.8155 7.65927 9.8155 7.60254 9.8155H7.48905C7.48905 9.8155 7.48906 9.8155 7.43232 9.8155L7.60254 9.70203Z"
        fill="white" />
    <path fill-rule="evenodd" clip-rule="evenodd"
        d="M7.31885 10.1559C7.31885 10.0991 7.43255 10.0991 7.43255 10.1559H7.31885Z" fill="white" />
    <path fill-rule="evenodd" clip-rule="evenodd"
        d="M7.94366 12.3687C7.94366 12.3687 7.94366 12.4254 7.94366 12.4821V13.4467C7.94366 13.5034 7.94366 13.5034 8.05714 13.5601V13.7304C8.05714 13.8438 8.05714 13.9006 8.05714 13.9573V14.0708C8.05714 14.1275 8.05714 14.1843 8.05714 14.1843C8.05714 14.241 8.05714 14.241 8.05714 14.241C8.05714 14.2977 8.22736 14.241 8.28409 14.241C8.28409 14.241 8.28409 14.241 8.28409 14.2977C8.28409 14.2977 8.22736 14.2977 8.17062 14.2977C8.17062 14.4112 8.34083 14.3545 8.39757 14.4112C8.51104 14.4112 8.56778 14.5247 8.68125 14.5247C8.68125 14.5247 8.68125 14.5814 8.68125 14.6382H9.02168V14.7516H8.9082C8.9082 14.7516 8.9082 14.7516 8.79473 14.7516C8.79473 14.7516 8.68125 14.7516 8.62451 14.7516C8.62451 14.7516 8.68125 14.7516 8.62451 14.8651C8.62451 14.8651 8.56778 14.8651 8.51104 14.8651H8.45431H8.34083C8.28409 14.8651 8.34083 14.8651 8.22735 14.8651H8.17062C8.17062 14.8651 8.17062 14.8651 8.11388 14.8651C8.11388 14.8651 8.11388 14.8651 8.05714 14.8651H8.00041C8.00041 14.8651 7.94366 14.8651 7.94366 14.7516C7.94366 14.7516 8.0004 14.6949 8.05714 14.6382C8.05714 14.6382 8.17062 14.6382 8.17062 14.5247H8.28409H8.34083C8.34083 14.6382 8.51104 14.6382 8.62451 14.6949C8.79473 14.6949 8.90821 14.8084 8.96494 14.8651C8.96494 14.8651 9.02168 14.8651 9.07842 14.8651C9.07842 14.8651 9.07842 14.8084 9.07842 14.7516C9.07842 14.7516 9.07842 14.7516 9.07842 14.6949C9.07842 14.6949 9.07842 14.6949 9.02168 14.6949C9.02168 14.6949 8.9082 14.6949 8.79473 14.6949C8.79473 14.6949 8.73799 14.5814 8.68125 14.6382C8.68125 14.6382 8.68125 14.5247 8.62451 14.5247V14.2977C8.62451 14.1275 8.62451 14.014 8.62451 13.9573V13.6736C8.62451 13.6169 8.62451 13.6169 8.62451 13.6169V13.2197C8.62451 13.2197 8.62451 13.2197 8.62451 13.163C8.62451 13.1062 8.62451 13.1062 8.62451 13.0495V12.936C8.62451 12.8793 8.56778 12.8226 8.62451 12.7658V12.7091C8.51104 12.5956 8.51104 12.5956 8.56778 12.5389L7.94366 12.3687Z"
        fill="white" />
    <path fill-rule="evenodd" clip-rule="evenodd" d="M11.574 12.4254H11.6877V12.4823L11.574 12.4254Z" fill="white" />
    <path fill-rule="evenodd" clip-rule="evenodd"
        d="M7.6591 12.9928C7.6591 12.9928 7.71583 12.9928 7.77257 12.9928V13.1063V13.2197C7.88605 13.39 7.77257 13.6736 7.77257 13.8439V13.9573C7.77257 13.9573 7.77257 14.0141 7.77257 14.0708C7.77257 14.0708 7.71584 14.0708 7.6591 14.0708C7.60236 14.0708 7.54563 14.1843 7.43215 14.241C7.43215 14.241 7.37542 14.241 7.31868 14.3545C7.2052 14.3545 7.03498 14.3545 6.92151 14.3545C6.92151 14.1843 7.26194 14.3545 7.37541 14.241C7.37541 14.241 7.37541 14.241 7.43215 14.1843H7.48888H7.60237C7.60237 14.1843 7.71584 14.1275 7.71584 14.0708C7.71584 13.9573 7.71584 13.9573 7.71584 13.9573C7.71584 13.7304 7.71584 13.4467 7.71584 13.2197V13.163L7.6591 12.9928Z"
        fill="white" />
    <path fill-rule="evenodd" clip-rule="evenodd"
        d="M8.11253 11.6312C8.11253 11.688 8.11253 11.688 8.11253 11.6312C8.11253 11.5745 8.11253 11.6312 8.11253 11.5745V11.461V11.3475C8.11253 11.3475 8.11253 11.3475 8.16927 11.3475C8.16927 11.3475 8.16927 11.2908 8.16927 11.2341C8.16927 11.2341 8.05579 11.3475 8.05579 11.2341C8.05579 11.1773 7.94231 11.1773 7.94231 11.0638V10.9504C7.94231 10.8369 7.82884 10.9504 7.7721 10.9504V11.2341C7.7721 11.2908 7.7721 11.3475 7.7721 11.3475V11.5177V11.5745V11.688C7.7721 11.688 7.82884 11.688 7.7721 11.8014C7.7721 11.8582 7.7721 11.8582 7.7721 11.9149C7.7721 11.9149 7.7721 11.9149 7.7721 11.9716C7.7721 12.0284 7.7721 12.0851 7.7721 12.0851V12.1986C7.7721 12.1986 7.7721 12.1986 7.71537 12.1986C7.71537 12.1986 7.65863 12.1419 7.60189 12.0851C7.60189 12.0851 7.60189 12.0851 7.60189 12.1419V12.4823H7.54515V12.3121C7.54515 12.2553 7.54515 12.2553 7.54515 12.1986V12.0851C7.54515 12.0851 7.54515 12.0284 7.54515 11.9716C7.54515 11.9149 7.54515 11.8582 7.54515 11.8582C7.54515 11.7447 7.48841 11.8014 7.54515 11.7447C7.43168 11.4043 7.03452 11.4043 6.75083 11.1773H6.69409C6.69409 11.1773 6.69408 11.1773 6.63735 11.1773H6.58061C6.58061 11.1773 6.58061 11.1773 6.52387 11.1773C6.35366 11.1773 6.18345 11.1773 6.06997 11.1773C6.06997 11.0638 5.9565 11.0638 5.9565 10.9504H5.89976C5.89976 10.9504 5.89976 10.8936 5.89976 10.8369H5.9565C5.9565 10.8369 6.01323 10.9504 6.06997 10.9504H6.29693C6.29693 10.9504 6.35366 10.9504 6.4104 10.9504C6.4104 10.8936 6.4104 10.7234 6.52387 10.7802C6.52387 10.7802 6.52388 10.8936 6.58061 10.8936C6.58061 10.8936 6.63735 10.8936 6.69409 10.8936H6.80756C6.80756 10.8936 6.80756 10.8369 6.92103 10.8936C6.92103 10.9504 6.80756 11.0071 6.92103 11.0071C6.92103 11.0638 6.92103 11.0638 6.92103 11.0071C6.92103 11.0071 6.97777 10.9504 6.92103 10.8936V11.0071C6.92103 11.0071 6.92103 11.0071 6.92103 11.0638V11.1206C6.92103 11.1773 6.75082 11.1206 6.69409 11.1773C6.69409 11.2908 6.63735 11.2908 6.69409 11.3475C6.69409 11.3475 6.69409 11.3475 6.75083 11.3475C6.75083 11.3475 6.75082 11.4043 6.80756 11.4043C6.80756 11.4043 6.80756 11.4043 6.8643 11.4043V11.2341C6.8643 11.3475 6.8643 11.3475 6.8643 11.3475C6.8643 11.3475 6.8643 11.4043 6.92103 11.4043C6.92103 11.4043 6.97778 11.4043 6.97778 11.3475C6.97778 11.2908 6.92104 11.2341 6.97778 11.1773V11.1206C6.97778 11.0638 6.97778 11.0638 6.97778 11.0071V10.8936C6.97778 10.8369 6.92104 10.8369 6.97778 10.7802L7.09125 10.6667H7.60189C7.60189 10.6667 7.65863 10.6099 7.71537 10.5532C7.71537 10.5532 7.71536 10.4965 7.82884 10.4965V10.6099C7.71536 10.6099 7.71536 10.7234 7.65862 10.7234C7.65862 10.7802 7.71536 10.7234 7.7721 10.7234H7.88558H7.94231C7.94231 10.7234 7.94231 10.7234 7.94231 10.6667V10.5532C8.05579 10.5532 8.16926 10.5532 8.226 10.4965C8.226 10.383 8.226 10.383 8.226 10.383C8.226 10.3263 8.11253 10.2695 8.11253 10.2695H7.99905H7.82884H7.94231C7.94231 10.2695 7.94232 10.156 7.88558 10.156C7.88558 10.156 7.88558 10.156 7.82884 10.156C7.82884 10.156 7.82884 10.156 7.71537 10.156H7.60189H7.48841H7.09125H7.03452H6.92103H6.8643C6.8643 10.156 6.8643 10.156 6.8643 10.2128C6.8643 10.2128 6.8643 10.2128 6.8643 10.2695H6.80756C6.75082 10.2695 6.63735 10.2695 6.58061 10.2695H6.52387C6.52387 10.2695 6.52387 10.2695 6.52387 10.3263V10.4397H6.46714C6.46714 10.383 6.18345 10.383 6.12671 10.4397H6.01324C5.89976 10.4397 5.89976 10.4397 5.78628 10.4965H5.72955C5.72955 10.5532 5.72955 10.4965 5.72955 10.6099H5.67281H5.55934C5.55934 10.6099 5.55933 10.6667 5.50259 10.7234C5.50259 10.7802 5.55934 10.8369 5.61608 10.8369H5.67281C5.67281 10.8369 5.67281 10.8369 5.72955 10.8369C5.84303 10.8369 5.72955 10.6667 5.72955 10.6099H5.84302C5.84302 10.6099 5.84303 10.6099 5.89976 10.6667C5.89976 10.7234 5.89976 10.7802 6.01324 10.7802C6.01324 10.8369 6.01324 10.8369 6.01324 10.8936C6.06998 10.8936 6.12671 10.8936 6.24018 10.8936C6.24018 10.8936 6.24019 10.8936 6.29693 10.8936H6.58061C6.63735 10.8936 6.58061 10.9504 6.69409 10.8936H6.75083C6.75083 10.8936 6.75083 11.0071 6.8643 11.0071C6.69409 11.0071 6.58061 10.8369 6.4104 10.8936C6.29692 10.8936 6.06998 10.8936 6.01324 10.8936C6.01324 10.9504 5.89976 10.8936 5.89976 10.9504C5.89976 10.9504 5.84302 10.9504 5.78628 10.9504H5.72955H5.61608C5.61608 10.9504 5.55933 10.9504 5.50259 11.0638V11.1206C5.38912 11.1206 5.38912 11.2341 5.27565 11.1773V11.1206C5.21891 11.1206 5.16217 11.0071 5.10543 11.1206C5.10543 11.1206 5.10543 11.1206 5.10543 11.1773C5.0487 11.1773 4.87849 11.1773 4.87849 11.1773C4.87849 11.1773 4.76501 11.1773 4.76501 11.2341C4.76501 11.2341 4.65154 11.2341 4.5948 11.2341C4.5948 11.2341 4.53806 11.2341 4.48133 11.2341C4.48133 11.2341 4.42458 11.2341 4.36784 11.2341H4.25437H4.1409C4.08416 11.2341 3.97069 11.2341 3.91395 11.2341C3.85721 11.2341 3.91395 11.4043 3.91395 11.4043C4.02742 11.4043 4.08416 11.4043 4.1409 11.4043C4.1409 11.461 4.1409 11.5745 4.1409 11.5745C4.1409 11.5745 4.1409 11.5745 4.19764 11.5745H4.31111H4.42458C4.42458 11.5745 4.48132 11.5745 4.53806 11.461C4.53806 11.461 4.53806 11.5745 4.65153 11.5745V11.688H4.70827C4.70827 11.688 4.82175 11.688 4.87849 11.688C4.87849 11.688 4.87849 11.6312 4.87849 11.5745V11.5177C4.87849 11.5177 4.93522 11.5177 4.99196 11.5177C4.99196 11.5177 5.0487 11.5177 5.10543 11.5177V11.4043C5.10543 11.4043 5.21891 11.4043 5.27565 11.4043H5.38912H5.50259C5.50259 11.4043 5.5026 11.4043 5.55934 11.4043C5.55934 11.4043 5.55934 11.4043 5.55934 11.461C5.55934 11.5177 5.44586 11.461 5.38912 11.5177H5.27565C5.27565 11.5177 5.38912 11.5177 5.44586 11.5177H5.50259H5.55934C5.55934 11.5177 5.55934 11.461 5.55934 11.4043C5.55934 11.4043 5.55934 11.4043 5.61608 11.3475C5.67281 11.3475 5.72955 11.2908 5.84302 11.3475H5.9565H6.06997H6.12671H6.18345H6.29693C6.35366 11.3475 6.4104 11.3475 6.46714 11.3475C6.46714 11.3475 6.46714 11.4043 6.58061 11.461C6.58061 11.461 6.63735 11.5177 6.69409 11.5745C6.69409 11.5745 6.69409 11.5745 6.75083 11.6312C6.75083 11.688 6.80757 11.688 6.75083 11.8014V11.9149V12.0284V12.1419V12.2553V12.3688C6.75083 12.3688 6.75083 12.3688 6.75083 12.4255C6.75083 12.539 6.75083 12.539 6.75083 12.539C6.75083 12.6525 6.63735 12.6525 6.58061 12.7092C6.58061 12.7092 6.58061 12.7092 6.52387 12.7092C6.29692 12.7092 6.01323 12.7092 5.78628 12.7092C5.78628 12.7092 5.72955 12.7092 5.67281 12.7092C5.78628 12.7092 6.01323 12.7092 6.06997 12.7092C6.18345 12.7092 6.29692 12.7092 6.35366 12.7092C6.4104 12.7092 6.52388 12.7092 6.58061 12.7092C6.58061 12.7092 6.58061 12.7092 6.58061 12.766C6.52388 12.8227 6.24019 12.766 6.18345 12.766C6.18345 12.766 6.18345 12.766 6.12671 12.766C6.12671 12.766 5.9565 12.766 5.89976 12.766H5.84302H5.72955C5.72955 12.766 5.72955 12.766 5.67281 12.766C5.67281 12.766 5.67281 12.766 5.67281 12.7092H5.84302C5.89976 12.7092 5.9565 12.7092 6.01324 12.6525C6.01324 12.6525 6.12671 12.6525 6.18345 12.6525C6.29693 12.766 6.58061 12.6525 6.69409 12.6525C6.75082 12.6525 6.69409 12.4823 6.75083 12.4255C6.75083 12.4255 6.75082 12.4255 6.69409 12.3688C6.75082 12.3688 6.80756 12.3688 6.80756 12.4823C6.80756 12.4823 6.80756 12.4823 6.8643 12.539C6.8643 12.539 6.92104 12.3121 6.8643 12.2553V12.1419C6.8643 12.1419 6.8643 12.1419 6.8643 12.0851C6.8643 12.0284 6.80756 12.0284 6.8643 12.0851V12.1419V12.1986C6.8643 12.1986 6.8643 12.1986 6.80756 12.1986C6.80756 12.1986 6.75082 12.0851 6.69409 12.0284H6.63735V12.3121C6.63735 12.3121 6.63735 12.3121 6.58061 12.3121C6.58061 12.1986 6.58061 12.1986 6.58061 12.1986C6.58061 12.1986 6.58061 12.3121 6.58061 12.3688C6.58061 12.3688 6.58061 12.3688 6.52387 12.4255C6.46714 12.4255 6.52387 12.1986 6.52387 12.1419C6.52387 12.1419 6.52388 12.0284 6.46714 11.9716C6.46714 11.9716 6.46714 12.0851 6.46714 12.1419C6.46714 12.1419 6.46714 12.1419 6.4104 12.1986C6.4104 12.1986 6.4104 12.0851 6.29693 12.0851H6.18345C6.18345 12.0851 6.18345 12.2553 6.18345 12.3121C6.18345 12.3121 6.18345 12.3688 6.06997 12.3121V12.4255C6.06997 12.4255 6.06998 12.4255 6.01324 12.4823C6.01324 12.4255 6.01324 12.2553 6.01324 12.2553V12.1419C6.01324 12.1419 5.9565 12.1419 5.89976 12.1419V12.2553C5.89976 12.2553 5.72955 12.2553 5.67281 12.2553V12.3688V12.4255C5.67281 12.4255 5.67281 12.3688 5.61608 12.3688V12.4255C5.55934 12.4255 5.55933 12.4255 5.50259 12.4255C5.50259 12.4255 5.50259 12.3121 5.50259 12.2553H5.38912V12.1419C5.38912 12.1419 5.38912 11.9716 5.38912 11.9149C5.38912 11.9149 5.38912 11.9149 5.44586 11.8582V11.8014H5.33239C5.33239 11.8014 5.33239 11.8014 5.33239 11.9149V11.9716V12.0851C5.33239 12.0851 5.33239 12.0851 5.33239 12.1419C5.33239 12.1419 5.33239 12.0284 5.33239 11.9716C5.33239 11.9716 5.33239 11.9716 5.33239 11.9149V11.8014C5.33239 11.8014 5.33239 11.8014 5.33239 11.7447H5.27565V11.688C5.27565 11.688 5.16217 11.688 5.10543 11.688C5.10543 11.688 5.10543 11.8582 5.10543 11.9149C5.10543 11.9149 5.0487 11.9716 5.10543 12.0284C5.0487 12.0284 5.10543 11.8014 5.10543 11.7447H5.0487H4.99196C4.99196 11.7447 4.99196 11.7447 4.99196 11.688H4.87849H4.82175V11.5745C4.82175 11.5745 4.82174 11.5745 4.93522 11.5745C4.93522 11.5177 4.93522 11.461 4.99196 11.461H5.10543H5.38912H5.50259H5.61608H5.72955H5.84302H5.9565C5.9565 11.461 6.06998 11.461 6.01324 11.3475C6.01324 11.3475 6.01323 11.3475 5.9565 11.3475C5.89976 11.3475 5.89976 11.0638 5.9565 11.0071C5.9565 11.0071 5.9565 11.0071 6.01324 11.0638V11.1773C6.01324 11.2341 6.12671 11.2908 6.18345 11.3475H6.35366H6.46714C6.46714 11.3475 6.52388 11.3475 6.58061 11.3475C6.58061 11.2341 6.58061 11.1773 6.52387 11.0638C6.52387 11.0638 6.52387 11.0638 6.52387 11.0071C6.52387 10.8936 6.35366 10.7802 6.29693 10.8936C6.29693 10.8936 6.24019 10.9504 6.18345 11.0071C6.18345 11.0071 6.18345 11.0638 6.12671 11.1206H6.06997H5.9565C5.9565 11.0638 5.9565 11.0071 5.9565 10.9504C6.01323 10.9504 5.9565 10.8369 5.9565 10.8369V10.7802H6.06997C6.18345 10.7234 6.18345 10.6099 6.29693 10.4965C6.4104 10.4965 6.4104 10.383 6.46714 10.383C6.58062 10.383 6.63735 10.2695 6.69409 10.156C6.75082 10.156 6.80756 10.156 6.8643 10.156C6.97778 10.156 7.03451 10.0426 7.14799 10.0426H7.43168H7.48841C7.54515 9.87236 7.65862 9.70214 7.94231 9.70214C7.94231 9.70214 7.99905 9.70215 7.99905 9.58867V9.53193C8.05579 9.53193 8.226 9.53193 8.33947 9.53193C8.33947 9.4752 8.50969 9.53193 8.56643 9.41846C8.56643 9.41846 8.67991 9.41846 8.73664 9.41846C8.73664 9.41846 8.85011 9.41846 8.90685 9.41846H9.02033C9.07707 9.41846 9.1338 9.41846 9.19054 9.41846C9.19054 9.41846 9.30401 9.53193 9.36075 9.53193C9.36075 9.58867 9.36075 9.70215 9.53097 9.64541C9.53097 9.75888 9.64444 9.75888 9.70118 9.87236C9.70118 9.98583 9.70118 9.98583 9.81465 9.98583H9.92813C9.92813 9.98583 9.92813 10.0993 10.0416 10.0993C10.0983 10.156 10.1551 10.2128 10.2686 10.2695H10.4955C10.4955 10.2695 10.4955 10.2695 10.5522 10.2695H10.6657C10.6657 10.2695 10.6657 10.2695 10.7225 10.2695C10.8359 10.2695 10.8359 10.4965 10.9494 10.4965H11.0061H11.1764C11.1764 10.4965 11.1764 10.4965 11.2331 10.4965C11.2331 10.4965 11.2898 10.4965 11.2331 10.6099C11.2331 10.6099 11.2331 10.6099 11.2898 10.6099C11.2898 10.6099 11.2898 10.6099 11.3466 10.6099C11.3466 10.6667 11.46 10.8369 11.3466 10.8936C11.3466 10.9504 11.46 11.0071 11.4033 11.1206C11.1196 11.1206 11.0061 11.1773 10.8927 11.2908H11.1196C11.1196 11.2908 11.1764 11.2908 11.2331 11.1773H11.8005C11.8005 11.1773 11.8005 11.1773 11.8572 11.2908C11.8572 11.3475 12.0842 11.2908 12.1976 11.2908C12.3111 11.3475 12.3111 11.5177 12.4246 11.5745L12.5381 11.688H12.6515C12.6515 11.688 12.6515 11.7447 12.765 11.8014V11.9149V12.0284C12.765 12.0851 12.6515 12.0284 12.5948 12.0284H12.4813C12.4813 12.0851 12.1976 12.0284 12.1976 12.0284C12.1976 12.1419 12.1976 12.3121 12.1976 12.3688C12.1976 12.4255 12.1976 12.5958 12.1976 12.5958H12.1409H12.0842C12.0842 12.7092 12.0842 12.9929 12.0842 13.1064V13.2199C12.0842 13.2199 12.0842 13.1064 11.9707 13.1064C11.9707 13.1064 11.9707 12.9362 11.9707 12.8794H11.8572C11.8005 12.8794 11.687 12.8794 11.6303 12.8794C11.6303 12.8794 11.6303 12.9929 11.5735 12.9929C11.5735 13.0497 11.5735 13.1631 11.5735 13.2199V13.3334C11.5735 13.2766 11.5735 13.2199 11.5735 13.1631V13.0497V12.9929C11.5735 12.9929 11.5168 12.8794 11.4033 12.8794C11.4033 12.8794 11.2898 12.8794 11.2331 12.8794C11.2331 12.8794 11.2331 13.0497 11.2331 13.1064C11.2331 13.2199 11.2331 13.3334 11.2331 13.4468C11.2331 13.5036 11.2331 13.6738 11.2331 13.7305C11.4033 13.7305 11.6303 13.7305 11.7437 13.7305C11.7437 13.7305 11.8572 13.7305 11.8572 13.7873C11.7437 13.7873 11.5168 13.7873 11.4033 13.7873V13.844H11.2898V13.9575C11.2898 13.9575 11.1196 13.9575 11.0629 13.9575L10.9494 13.844C10.9494 13.844 10.8927 13.844 10.8359 13.844H10.7225C10.7225 13.844 10.8359 13.9575 10.8927 13.9575C10.8927 13.9575 10.9494 13.9575 11.0061 13.9575C11.0061 13.9575 10.9494 14.0142 10.8927 14.0142C10.8927 14.0142 10.8359 13.9007 10.7792 14.0142H10.609C10.4955 14.0142 10.382 14.0142 10.3253 14.0142C10.3253 14.0142 10.3253 13.9575 10.2686 14.0142C10.2686 14.0142 10.2118 13.9575 10.1551 13.9007C10.1551 13.844 10.0983 13.844 10.1551 13.7873C10.1551 13.7305 10.1551 13.6738 10.1551 13.617V13.4468V13.2199V12.9362C10.1551 12.8227 10.1551 12.8227 10.1551 12.8227V12.6525V12.539C10.1551 12.4823 10.1551 12.4823 10.1551 12.4823V12.3688V12.2553V12.1419C10.1551 12.1419 10.1551 12.1419 10.1551 12.0284V11.9149V11.8014C10.1551 11.688 10.1551 11.688 10.1551 11.688C10.1551 11.6312 10.0983 11.6312 10.0416 11.5745C10.0416 11.461 9.92813 11.5177 9.92813 11.3475C10.2686 11.3475 10.3253 11.3475 10.3253 11.3475L8.11253 11.6312ZM9.98487 10.4397C9.87139 10.4397 9.81466 10.4965 9.70118 10.4397C9.64444 10.4397 9.5877 10.4397 9.53097 10.4397H9.41749C9.36075 10.4965 9.30402 10.6099 9.1338 10.6099C9.07707 10.5532 9.02032 10.6667 8.90685 10.6099C8.90685 10.7802 8.67991 10.7802 8.73664 10.9504H8.79338H8.85012H9.07706V11.0638C8.96359 11.0638 8.90685 11.1206 8.85012 11.1773H8.50969C8.39621 11.1773 8.33948 11.2908 8.28274 11.3475C8.28274 11.461 8.226 11.5177 8.28274 11.6312C8.28274 11.6312 8.28274 11.6312 8.28274 11.688V11.6312H8.33947C8.33947 11.7447 8.33947 11.8014 8.33947 11.8014C8.33947 11.8014 8.45296 11.8014 8.45296 11.9149H8.50969H8.56643C8.62317 11.9149 8.62316 11.9149 8.6799 11.9149H8.79338H8.90685C8.90685 11.9149 8.96359 11.9149 9.02033 11.8014H9.1338H9.41749H9.64444C9.64444 11.8014 9.64444 11.8014 9.70118 11.7447C9.70118 11.7447 9.70117 11.688 9.75791 11.688H9.87139C9.92813 11.688 9.98486 11.5745 10.0416 11.5177C10.0416 11.5177 10.0983 11.5177 10.1551 11.4043C10.1551 11.4043 10.1551 11.3475 10.2118 11.2908H10.2686C10.3253 11.2908 10.3253 11.2908 10.382 11.2908C10.382 11.2908 10.382 11.2908 10.382 11.2341C10.382 11.2341 10.382 11.1206 10.382 11.1773C10.382 11.1206 10.3253 11.1773 10.2686 11.1773C10.2686 11.1773 10.1551 11.1773 10.1551 11.1206C10.1551 11.0638 9.98486 11.1206 9.92813 11.1206C9.92813 11.1206 9.81465 11.1206 9.75791 11.1206C9.70117 11.2341 9.53097 11.2341 9.41749 11.3475C9.41749 11.3475 9.36076 11.3475 9.30402 11.3475H9.36075C9.36075 11.3475 9.41749 11.3475 9.47422 11.2908C9.47422 11.2908 9.47423 11.2908 9.53097 11.2341C9.53097 11.2341 9.53097 11.1773 9.53097 11.1206C9.53097 11.0071 9.47423 11.0071 9.41749 11.0071L9.98487 10.4397ZM7.09125 10.7234C7.09125 10.7234 6.97778 10.6667 6.97778 10.7234H7.03452H7.09125ZM11.687 11.8014C11.6303 11.7447 11.5168 11.9149 11.3466 11.8014H11.1764C11.1764 11.8014 11.0629 11.9149 10.9494 11.8582H10.8927H10.7225H10.382C10.2686 11.8582 10.2118 11.9716 10.1551 12.0284C10.1551 12.0662 10.1551 12.0851 10.1551 12.0851C10.1551 12.1419 10.0983 12.2553 10.0416 12.3121C10.0416 12.3688 10.0416 12.4255 10.0416 12.4823C10.0416 12.4823 9.98486 12.4823 9.92813 12.5958L9.81465 12.6525C9.75792 12.6525 9.70118 12.6525 9.64444 12.7092V12.766C9.64444 12.766 9.64444 12.766 9.70118 12.766C9.70118 12.766 9.70117 12.766 9.75791 12.766C9.75791 12.766 9.81466 12.766 9.87139 12.8794C9.87139 12.8794 9.98486 12.8794 10.0416 12.8794H10.0983H10.1551H10.2118C10.2118 12.8794 10.2118 12.8794 10.2686 12.8794C10.2686 12.8794 10.2686 12.8794 10.2686 12.9362C10.2686 12.9362 10.2686 12.9362 10.2686 12.9929C10.2686 12.9929 10.2686 12.9929 10.3253 12.9929L10.4388 12.8794V12.8227C10.4388 12.766 10.4955 12.766 10.5522 12.8227C10.5522 12.8227 10.5522 12.8227 10.609 12.8227C10.609 12.8227 10.609 12.8794 10.6657 12.8227C10.6657 12.8227 10.6657 12.8227 10.7225 12.8227C10.7225 12.8227 10.7225 12.7092 10.8359 12.6525C10.8359 12.6525 10.8359 12.5958 10.8927 12.539H11.0061C11.0061 12.539 11.0629 12.539 11.1196 12.539H11.1764C11.2331 12.539 11.2331 12.4255 11.2898 12.3688V12.3121C11.2898 12.3121 11.2898 12.3121 11.3466 12.3121H11.4033H11.5168H11.6303C11.687 12.3121 11.7437 12.3121 11.7437 12.3121C11.8005 12.3121 11.8572 12.3121 11.9707 12.3121V12.1986C11.8572 12.1986 11.7437 12.1986 11.6303 12.1986C11.6303 12.1986 11.6303 12.1419 11.6303 12.0851C11.6303 12.0284 11.6303 12.0851 11.5735 12.0851V11.9716H11.4033C11.4033 11.9716 11.2331 11.9716 11.1764 11.9716C11.1764 11.9716 11.2898 11.9149 11.2331 11.8014H11.687ZM9.47422 12.0284C9.36075 11.9716 9.30402 12.1419 9.24728 12.1419C9.19054 12.1419 9.13381 12.1419 9.02033 12.1419C8.90686 12.0284 8.73664 12.1419 8.62316 12.1419C8.62316 12.1419 8.56643 12.1419 8.56643 12.2553V12.3121C8.56643 12.3121 8.56642 12.3121 8.62316 12.3121C8.62316 12.3121 8.62317 12.3121 8.73664 12.3121C8.85012 12.3121 8.85011 12.3121 8.96359 12.3121C9.07706 12.3121 9.19054 12.3121 9.30402 12.3121H9.41749C9.41749 12.3121 9.47423 12.3121 9.53097 12.1986C9.53097 12.1986 9.53097 12.1986 9.58771 12.1419V12.0851C9.58771 12.0284 9.58771 11.9716 9.58771 11.9716C9.53097 11.9716 9.36076 11.9716 9.30402 11.9716H9.24728L9.47422 12.0284ZM9.02033 12.4823C8.90686 12.4823 8.85011 12.4823 8.79338 12.4823C8.73664 12.4823 8.62317 12.4823 8.56643 12.4823C8.50969 12.4823 8.39621 12.4823 8.33947 12.4823V12.6525C8.45295 12.6525 8.56642 12.6525 8.62316 12.6525H8.73664C8.79338 12.6525 8.85012 12.6525 8.85012 12.6525C8.85012 12.6525 8.90685 12.6525 8.90685 12.539C8.85011 12.539 8.79338 12.4823 8.73664 12.4255L9.02033 12.4823ZM5.89976 12.7092C5.78629 12.766 5.72955 12.8227 5.67281 12.9362V13.0497C5.67281 13.0497 5.67281 13.1064 5.78628 13.1631C5.78628 13.1631 5.78629 13.1631 5.84302 13.1631C5.84302 13.1064 5.9565 13.1631 5.9565 13.0497C5.9565 13.0497 5.9565 12.9929 5.9565 12.9362V12.8227H5.72955L5.89976 12.7092ZM9.30402 12.8227C9.24728 12.5958 8.90685 12.7092 8.79338 12.8227C8.79338 12.8227 8.73664 12.8227 8.73664 12.9362C8.73664 13.0497 8.73664 13.3334 8.73664 13.4468C8.73664 13.5603 8.73664 13.6738 8.73664 13.7305C8.73664 13.844 8.73664 13.9575 8.79338 14.0142C8.85011 14.0142 8.79338 14.0709 8.85012 14.1277C8.85012 14.1277 8.90685 14.1277 8.96359 14.1277C8.96359 14.1277 8.96359 14.1277 9.02033 14.1277C9.07707 14.1277 9.24728 14.1277 9.30402 14.1277C9.36076 14.1277 9.70118 14.1844 9.70118 14.1277C9.70118 14.1277 9.70117 14.1277 9.75791 14.0709V13.4468C9.75791 13.3901 9.75791 13.2766 9.75791 13.2199C9.75791 13.2199 9.5877 13.2199 9.53097 13.2199C9.53097 13.2199 9.53097 13.2766 9.53097 13.3334C9.53097 13.3334 9.53097 13.4468 9.53097 13.5036V13.4468V13.1631C9.53097 13.1064 9.41749 13.0497 9.36075 12.9929H9.24728C9.24728 12.9929 9.24728 13.1631 9.24728 13.2199C9.24728 13.3334 9.24728 13.4468 9.24728 13.5603V13.4468V13.2766C9.24728 13.1631 9.24728 12.9362 9.24728 12.8794L9.30402 12.8227ZM6.8643 12.8227C6.75083 12.766 6.52387 12.7092 6.4104 12.8227V12.8794V12.9929C6.46714 12.9929 6.52387 13.1631 6.63735 13.1631C6.75082 13.1631 6.8643 13.1064 6.92103 13.0497V12.8794L6.8643 12.8227ZM5.27565 12.9362C5.27565 12.9362 5.10544 12.9362 5.0487 12.9362H4.93522H4.87849C4.82175 12.9362 4.87848 13.0497 4.82175 13.0497C4.82175 13.1631 4.82175 13.2199 4.87849 13.2199C4.87849 13.2199 5.0487 13.2199 5.10543 13.2199V13.1064V12.9929L5.27565 12.9362ZM8.50969 13.1631C8.50969 13.1631 8.50969 13.1631 8.45296 13.1631C8.45296 13.1631 8.45296 13.2199 8.45296 13.2766C8.45296 13.3334 8.45295 13.3901 8.50969 13.3901C8.50969 13.3901 8.50969 13.3901 8.50969 13.3334V13.1631ZM8.73664 14.1844C8.73664 14.1844 8.62316 14.1277 8.62316 14.1844C8.62316 14.1844 8.62316 14.2979 8.6799 14.2979C8.73664 14.2979 8.73664 14.3546 8.85012 14.2979H8.96359V14.1844C8.96359 14.1844 8.90685 14.1844 8.85012 14.1844C8.85012 14.1844 8.85012 14.1844 8.73664 14.1844Z"
        fill="white" />
    <path
        d="M11.4603 5.22023C11.4603 5.22023 11.4604 5.22024 11.5172 5.16338C11.5172 5.16338 11.5172 5.16338 11.5172 5.04968H11.4603H11.4035C11.4035 5.04968 11.4604 5.10653 11.5172 5.16338L11.4603 5.22023Z"
        fill="white" />
    <path
        d="M9.8727 7.77377C9.8727 7.77377 9.8727 7.77377 9.9864 7.77377C9.9864 7.77377 9.9864 7.77377 10.0432 7.77377C10.0432 7.77377 10.0433 7.77377 10.1001 7.71692C10.1001 7.71692 10.1001 7.71692 10.157 7.71692C10.157 7.48951 9.8727 7.54637 9.70215 7.60322C9.70215 7.60322 9.70215 7.60322 9.70215 7.71692V7.77377C9.70215 7.83062 9.81585 7.88747 9.81585 7.94432L9.8727 7.77377Z"
        fill="white" />
    <path
        d="M10.6666 7.65962C10.6666 7.65962 10.7233 7.65962 10.7801 7.77309L10.8936 7.88657H11.007C11.007 7.88657 11.007 7.82983 11.1205 7.77309C11.1205 7.77309 11.1205 7.71636 11.234 7.65962C11.234 7.65962 11.234 7.65962 11.1772 7.65962C11.1772 7.65962 11.0638 7.60288 11.0638 7.54614H11.007C10.8936 7.54614 10.7801 7.54614 10.7233 7.54614H10.6099C10.6099 7.60288 10.7233 7.65962 10.7801 7.71635L10.6666 7.65962Z"
        fill="white" />
    <path
        d="M11.2331 7.48938C11.2898 7.48938 11.3466 7.60286 11.4033 7.65959C11.4033 7.60286 11.5168 7.54612 11.5735 7.48938C11.4033 7.48938 11.1764 7.48938 11.0062 7.48938C11.0062 7.48938 11.0629 7.48938 11.0629 7.60286L11.2331 7.48938Z"
        fill="white" />
    <path
        d="M11.7435 7.54631C11.7435 7.54631 11.6868 7.54631 11.6301 7.54631L11.7435 7.65979C11.7435 7.65979 11.857 7.71652 11.857 7.77326C11.857 7.77326 11.9138 7.71652 11.9705 7.71652L12.084 7.60305L12.1974 7.48957H12.1407C12.1407 7.43284 11.9138 7.43284 11.857 7.48957C11.857 7.48957 11.857 7.48957 11.8003 7.48957C11.8003 7.48957 11.8003 7.48957 11.7435 7.48957V7.54631Z"
        fill="white" />
    <path
        d="M10.1556 7.77332C10.1556 7.77332 10.0422 7.77332 10.0422 7.88679C10.0422 7.88679 10.0989 7.88679 10.1556 8.00027L10.2691 8.11374C10.2691 8.11374 10.2691 8.11374 10.3258 8.17048C10.3258 8.17048 10.3258 8.17048 10.3826 8.17048C10.3826 8.17048 10.3826 8.17048 10.4393 8.17048C10.4393 8.17048 10.4393 8.11374 10.5528 8.11374C10.5528 8.11374 10.4393 8.00027 10.3826 8.00027C10.3826 8.00027 10.2691 8.00027 10.2691 7.94353C10.2691 7.88679 10.0989 7.83005 10.0422 7.77332C10.0422 7.77332 10.0422 7.77332 9.98542 7.83005C9.98542 7.83005 9.92869 7.88679 9.87195 7.94353C9.87195 7.94353 9.87195 7.94353 9.87195 8.00027L10.1556 7.77332Z"
        fill="white" />
    <path
        d="M11.4611 6.41168C11.4611 6.41168 11.4611 6.35482 11.5748 6.29797C11.4611 6.29797 11.2906 6.29797 11.2337 6.29797C11.2337 6.29797 11.2906 6.41168 11.3474 6.41168H11.4611Z"
        fill="white" />
    <path
        d="M11.5165 6.41147C11.5165 6.52495 11.6867 6.58169 11.7435 6.63842C11.857 6.63842 11.857 6.52495 11.9704 6.46821C11.9704 6.46821 12.0272 6.46821 12.0839 6.41147H12.0272C12.0272 6.41147 12.0272 6.41147 11.9704 6.35474H11.7435C11.7435 6.35474 11.6868 6.35474 11.63 6.41147H11.5165Z"
        fill="white" />
    <path
        d="M10.8933 8.62407C11.0068 8.62407 11.2337 8.62407 11.2337 8.68081C11.2337 8.68081 11.2337 8.73754 11.2337 8.79428V8.85102C11.2905 8.96449 11.3472 9.02123 11.4607 9.07797H11.5742C11.5742 8.96449 11.7444 8.90776 11.7444 8.79428C11.7444 8.68081 11.7444 8.79428 11.7444 8.73754V8.56733H13.3898C13.3898 8.56733 13.3898 8.56733 13.3898 8.45386C13.3898 8.34038 13.3898 8.28364 13.3898 8.22691V7.99995V7.94322C13.3898 7.77301 13.3898 7.60279 13.3898 7.37584V7.3191V7.20563C13.2195 7.20563 12.9359 7.20563 12.7089 7.20563C12.4252 7.20563 12.0848 7.20563 11.8011 7.20563H11.8578C12.0848 7.20563 12.4252 7.20563 12.6522 7.20563H12.7656V7.09215V6.97868V6.8652V6.69499C12.7656 6.58152 12.7656 6.46804 12.7656 6.46804C12.7656 6.4113 12.7656 6.29783 12.7656 6.29783V6.18435C12.4252 6.07088 12.0281 6.18435 11.6876 6.12761C11.6876 6.12761 11.8578 6.12761 11.9146 6.12761C12.028 6.12761 12.1415 6.12761 12.3117 6.12761V6.01414C12.3117 6.01414 12.3117 5.9574 12.3117 5.90066C12.3117 5.78719 12.3117 5.61698 12.3117 5.5035C12.3117 5.39003 12.3117 5.21981 12.3117 5.10634H12.1983H12.1415H12.0848H11.9713H11.9146H11.8578V4.99286C11.9713 4.99286 12.1983 4.99286 12.3117 4.99286V4.93613C12.3117 4.93613 12.3117 4.87939 12.3117 4.82265C12.3117 4.5957 12.3117 4.31201 12.3117 4.1418H12.1983H12.1415H12.028H11.9713C12.0281 4.1418 12.1983 4.1418 12.3117 4.1418V4.08506V4.02832C12.3117 3.80137 12.3117 3.57442 12.3117 3.34747V3.234H12.028C12.028 3.234 11.9146 3.17726 11.9713 3.06379H12.028C12.028 2.89357 12.0281 2.83684 11.9713 2.7801C12.0848 2.60989 11.9146 2.49641 11.8011 2.43967C11.8011 2.43967 11.8011 2.49641 11.6876 2.55315V2.66662V2.7801V2.89357C11.6876 2.89357 11.6876 2.95031 11.8011 3.00705V3.12052H11.5174C11.5174 3.17726 11.5174 3.34747 11.5174 3.34747V3.46095V3.57442C11.5174 3.57442 11.5174 3.6879 11.5174 3.63116V3.74464V3.80137C11.5174 3.91485 11.5174 3.97159 11.5174 4.02832C11.6309 4.02832 11.8578 4.02832 11.8578 4.02832H11.7444H11.6309H11.5742H11.4039V4.1418C11.4039 4.25527 11.4039 4.31201 11.4039 4.36875V4.76591C11.5174 4.82265 11.8011 4.76591 11.9146 4.76591V4.87939H11.8578H11.7444H11.5742H11.5174V4.99286V5.0496V5.16308V5.27655V5.33329C11.5174 5.56024 11.5174 5.61698 11.5174 5.84393C11.5174 5.84393 11.6876 5.84393 11.7444 5.84393C11.8578 5.84393 12.1415 5.84393 12.255 5.84393V5.90066C11.9146 5.90066 11.4607 5.90066 11.1203 5.90066C11.1203 6.07088 11.1203 6.12761 11.1203 6.29783V6.35457V6.92194H11.2337C11.2337 6.92194 11.3472 6.92194 11.4039 6.92194C11.6309 6.92194 11.9713 6.92194 12.255 6.92194C12.255 6.97868 12.1415 6.92194 12.0848 6.92194H11.4607C11.177 6.92194 10.8366 6.92194 10.6096 6.92194V8.05669C10.6096 8.11343 10.6096 8.28364 10.6096 8.34038H10.6663C11.0068 8.34038 11.5174 8.34038 11.9146 8.34038L10.8933 8.62407ZM11.5174 8.96449C11.5174 9.07797 11.2905 8.96449 11.3472 8.90776C11.3472 8.90776 11.3472 8.90776 11.4607 8.90776V8.85102C11.4607 8.85102 11.3472 8.85102 11.2905 8.85102H11.3472C11.3472 8.85102 11.3472 9.02123 11.3472 9.07797L11.5174 8.96449ZM11.4039 8.56733H11.4607H11.3472H11.4039ZM11.9146 8.45386H11.8011H11.6876H11.5742C11.5174 8.51059 11.4039 8.45386 11.3472 8.45386C11.3472 8.45386 11.2337 8.45386 11.177 8.45386H11.1203C11.0635 8.51059 11.0068 8.45386 10.8933 8.45386H10.7231C10.7231 8.45386 10.7231 8.45386 10.7798 8.39712C10.7798 8.39712 10.8366 8.39712 10.8933 8.45386C10.8933 8.45386 10.8933 8.45386 10.95 8.34038H11.0635C11.0635 8.34038 11.0635 8.34038 11.1203 8.22691C11.1203 8.22691 11.177 8.22691 11.2337 8.34038C11.2337 8.34038 11.2337 8.34038 11.2905 8.28364C11.2905 8.28364 11.3472 8.28364 11.4039 8.34038C11.4039 8.34038 11.4039 8.34038 11.4607 8.28364H11.5174C11.5174 8.28364 11.5174 8.28364 11.5742 8.22691C11.5742 8.22691 11.6309 8.28364 11.6876 8.34038L11.9146 8.45386ZM13.2763 8.34038C13.2763 8.34038 13.2763 8.45386 13.2763 8.51059H13.1628C13.0493 8.51059 12.9926 8.62407 12.9359 8.51059C12.8791 8.51059 12.8224 8.62407 12.7089 8.51059H12.5954C12.5954 8.51059 12.482 8.56733 12.482 8.51059H12.3685C12.3685 8.51059 12.255 8.56733 12.1983 8.51059C12.1983 8.51059 12.1983 8.51059 12.1415 8.51059H12.028C11.9713 8.51059 12.0281 8.39712 12.0848 8.39712C12.0848 8.39712 12.0848 8.39712 12.1415 8.45386C12.1415 8.45386 12.1415 8.45386 12.1983 8.39712C12.1983 8.39712 12.1983 8.39712 12.255 8.45386C12.255 8.45386 12.255 8.45386 12.3117 8.51059C12.3117 8.51059 12.3685 8.39712 12.4252 8.45386C12.4252 8.45386 12.4252 8.45386 12.482 8.51059C12.482 8.51059 12.5954 8.39712 12.5954 8.51059C12.7089 8.51059 12.7656 8.39712 12.7656 8.45386L13.2763 8.34038ZM11.8011 3.234C11.8011 3.234 11.7444 3.29074 11.7444 3.234H11.8011ZM11.8011 3.46095C11.8011 3.46095 11.8578 3.46095 11.8011 3.51769V3.46095ZM11.6876 3.00705H11.8578C11.8578 3.06379 11.8578 3.12052 11.8578 3.12052C11.8578 3.12052 11.7444 3.06379 11.7444 3.00705H11.6876ZM11.5742 3.51769C11.5742 3.51769 11.4607 3.40421 11.5742 3.40421V3.51769ZM11.5742 3.29074C11.5742 3.29074 11.5742 3.29074 11.5742 3.34747C11.5742 3.34747 11.5742 3.234 11.6876 3.29074H11.5742ZM11.3472 2.43967C11.3472 2.43967 11.3472 2.43967 11.3472 2.38293C11.3472 2.38293 11.3472 2.38293 11.4039 2.43967H11.2905H11.3472ZM11.4607 2.66662H11.3472C11.3472 2.60988 11.4607 2.60988 11.4607 2.66662ZM11.3472 2.89357H11.4607C11.4607 2.89357 11.4607 2.89357 11.4039 2.89357H11.2905C11.2905 2.89357 11.2905 2.89357 11.2905 2.7801L11.3472 2.89357ZM11.4039 3.234C11.4039 3.234 11.4039 3.234 11.2905 3.234C11.2905 3.234 11.2905 3.234 11.2905 3.17726L11.4039 3.234ZM11.2905 3.46095C11.2905 3.46095 11.2337 3.57442 11.177 3.51769C11.177 3.51769 11.177 3.51769 11.177 3.46095H11.2905ZM11.2905 3.29074C11.2905 3.29074 11.2337 3.29074 11.177 3.234L11.2905 3.29074ZM11.0068 3.29074C11.0068 3.17726 11.1203 3.12052 11.1203 3.00705H11.2337C11.2337 3.06379 11.177 3.12052 11.1203 3.17726V3.29074C11.1203 3.34747 11.0635 3.34747 11.1203 3.29074C11.1203 3.29074 11.1203 3.234 11.1203 3.17726L11.0068 3.29074ZM11.0068 3.6879C11.0068 3.6879 11.1203 3.57442 11.1203 3.6879C11.1203 3.6879 11.1202 3.6879 11.177 3.6879H11.2337H11.2905H11.3472H11.4607C11.4607 3.6879 11.4607 3.6879 11.5174 3.6879H11.5742V3.80137C11.2905 3.80137 11.0068 3.80137 10.6663 3.80137L11.0068 3.6879ZM11.4607 4.02832H11.3472C11.3472 4.02832 11.3472 4.02832 11.3472 4.08506C11.3472 4.08506 11.3472 4.08506 11.4039 4.08506C11.4039 4.02832 11.4039 3.85811 11.4039 3.85811H11.5174C11.5174 3.85811 11.5174 3.85811 11.5174 3.91485V4.02832V4.1418L11.4607 4.02832ZM11.177 4.31201C11.177 4.31201 11.2337 4.25528 11.2905 4.19854C11.2905 4.19854 11.2905 4.1418 11.4039 4.08506C11.4039 4.08506 11.4039 4.08506 11.3472 4.1418C11.3472 4.19854 11.4607 4.19854 11.4607 4.1418C11.4607 4.1418 11.4607 4.1418 11.5174 4.08506C11.5174 4.08506 11.5174 4.08506 11.5174 4.02832C11.5174 4.02832 11.6876 4.02832 11.7444 4.02832C11.7444 4.02832 11.7444 4.02832 11.7444 4.08506C11.7444 3.97159 11.8578 4.25528 11.7444 4.19854C11.7444 4.19854 11.7444 4.31201 11.6876 4.31201C11.6876 4.31201 11.6876 4.25528 11.7444 4.19854V4.1418C11.7444 4.1418 11.7444 4.1418 11.6876 4.1418C11.6876 4.1418 11.6876 4.1418 11.6309 4.1418C11.6309 4.1418 11.6309 4.25527 11.5742 4.25527C11.5742 4.25527 11.6309 4.31201 11.6876 4.36875C11.6876 4.36875 11.6876 4.36875 11.6876 4.31201C11.6876 4.31201 11.6876 4.31201 11.6309 4.31201C11.6309 4.31201 11.6309 4.31201 11.6309 4.25527C11.6309 4.25527 11.5174 4.19854 11.5174 4.08506C11.5174 4.08506 11.5174 4.08506 11.4607 4.08506C11.4607 4.08506 11.4607 4.08506 11.4607 4.1418C11.4039 4.1418 11.3472 4.25528 11.3472 4.19854V4.08506C11.3472 4.08506 11.3472 4.02832 11.3472 3.97159C11.3472 3.97159 11.2337 3.91485 11.2337 3.85811C11.2337 3.85811 11.2337 3.85811 11.2905 3.85811L11.177 4.31201ZM11.0068 4.53896C11.0068 4.53896 11.0068 4.48223 11.0068 4.42549V4.53896ZM10.8366 4.25527C10.8366 4.25527 10.8366 4.19854 10.8933 4.19854C10.8933 4.1418 11.0635 4.1418 11.0635 4.19854C11.0635 4.25528 10.95 4.31201 10.8933 4.36875C10.8933 4.36875 10.8933 4.36875 10.8366 4.36875C10.8366 4.31201 10.8366 4.31201 10.8933 4.25527H10.8366ZM11.2337 4.65244C11.2337 4.65244 11.2337 4.65244 11.1203 4.65244C11.1203 4.65244 11.1202 4.65244 11.0635 4.65244C11.0635 4.65244 11.0635 4.65244 11.0068 4.65244V4.53896C11.1203 4.53896 11.2905 4.53896 11.3472 4.53896H11.4039C11.4039 4.53896 11.4607 4.48223 11.5174 4.53896C11.5174 4.53896 11.5174 4.53896 11.5742 4.53896C11.5742 4.53896 11.5741 4.53896 11.6309 4.53896C11.6309 4.53896 11.6876 4.53896 11.7444 4.53896H11.8011C11.8011 4.53896 11.8011 4.53896 11.8578 4.53896V4.65244C11.8578 4.70918 11.8578 4.65244 11.7444 4.65244C11.7444 4.65244 11.7444 4.65244 11.6309 4.65244C11.6309 4.5957 11.5742 4.65244 11.5174 4.65244C11.5174 4.65244 11.5174 4.65244 11.4039 4.65244C11.3472 4.65244 11.2905 4.65244 11.2905 4.65244H11.2337ZM11.3472 5.27655C11.3472 5.21981 11.2905 5.16308 11.2337 5.10634V5.0496C11.2337 5.0496 11.2905 5.0496 11.3472 5.0496C11.3472 4.99286 11.3472 4.87939 11.3472 4.82265H11.4607C11.4607 4.87939 11.4607 4.99286 11.4607 5.0496C11.4607 5.0496 11.5741 5.0496 11.6309 5.0496C11.6309 5.10634 11.5174 5.16308 11.5174 5.21981C11.5174 5.21981 11.5174 5.21981 11.5174 5.27655L11.6309 5.16308C11.6309 5.16308 11.6309 5.16308 11.6876 5.10634C11.6876 4.99286 11.5742 4.99286 11.5742 4.87939C11.5742 4.87939 11.8011 4.87939 11.8578 4.87939C11.8578 4.93613 11.8011 4.99286 11.7444 4.99286C11.7444 4.99286 11.7444 4.99286 11.7444 5.0496C11.7444 5.0496 11.8011 5.10634 11.8578 5.16308V5.27655C11.8578 5.27655 11.8011 5.27655 11.7444 5.27655V5.33329H11.6876C11.6876 5.33329 11.6876 5.27655 11.8011 5.21981C11.8011 5.21981 11.8011 5.21981 11.7444 5.10634C11.6876 5.10634 11.7444 4.99286 11.6309 4.99286C11.6309 4.99286 11.5742 5.0496 11.5174 5.10634C11.5174 5.10634 11.4607 5.16308 11.4039 5.21981C11.4039 5.21981 11.4039 5.21981 11.4039 5.27655V5.33329C11.4039 5.33329 11.3472 5.33329 11.2905 5.33329H11.177C11.177 5.33329 11.177 5.33329 11.2337 5.33329C11.2337 5.33329 11.2337 5.27655 11.2337 5.21981C11.1203 5.21981 11.1203 5.33329 11.0068 5.39003C11.0068 5.44676 11.0635 5.44676 11.1203 5.5035C11.1203 5.5035 11.1202 5.5035 11.0635 5.5035C11.0635 5.5035 11.0635 5.5035 10.95 5.5035H10.8366C10.8366 5.5035 10.8366 5.5035 10.8933 5.44676H10.95C10.95 5.44676 10.95 5.39003 11.0635 5.33329C11.1202 5.33329 11.177 5.33329 11.177 5.33329L11.3472 5.27655ZM10.6096 5.27655V5.21981C10.6096 5.21981 10.6096 5.16308 10.6096 5.10634C10.6096 5.10634 10.4961 5.10634 10.4394 5.10634C10.4394 5.10634 10.8366 5.10634 10.8933 5.10634C10.8933 5.10634 10.8366 5.16308 10.7798 5.21981V5.27655C10.8366 5.33329 10.8933 5.39003 10.95 5.44676C10.95 5.44676 10.8933 5.44676 10.8933 5.33329C10.8933 5.33329 10.8366 5.33329 10.8366 5.21981C10.8366 5.33329 10.7231 5.33329 10.7231 5.39003C10.7798 5.5035 10.8366 5.56024 10.95 5.61698H10.8933L10.7798 5.5035C10.7798 5.5035 10.7798 5.27655 10.7798 5.21981L10.6096 5.27655ZM11.2337 5.84393C11.2337 5.84393 11.2337 5.84393 11.177 5.84393C11.177 5.84393 11.177 5.84393 11.0635 5.84393C11.0635 5.84393 11.0635 5.84393 11.0068 5.84393C11.0068 5.84393 11.0068 5.84393 10.95 5.84393C10.95 5.84393 11.0068 5.90066 11.0635 5.84393H11.177C11.2337 5.84393 11.4039 5.84393 11.4607 5.84393C11.4607 5.84393 11.4607 5.78719 11.5742 5.84393C11.5742 5.84393 11.5741 5.84393 11.6309 5.84393H11.6876H11.7444C11.7444 5.84393 11.7444 5.84393 11.8011 5.84393C11.8011 5.78719 11.9146 5.84393 11.9146 5.84393C11.9146 5.84393 11.9713 5.84393 12.028 5.84393C12.028 5.84393 12.1415 5.78719 12.1983 5.84393V5.90066C12.1983 5.90066 12.1415 5.90066 12.0848 5.90066C12.0848 5.90066 12.0848 5.90066 12.028 5.90066C12.028 5.90066 12.0281 5.90066 11.9713 5.90066C11.9713 5.90066 11.9713 5.90066 11.9146 5.90066C11.9146 5.90066 11.8578 5.84393 11.8011 5.90066C11.8011 5.90066 11.8011 5.90066 11.7444 5.90066C11.6876 5.90066 11.6876 5.9574 11.6309 5.90066C11.6309 5.90066 11.6309 5.90066 11.5742 5.90066C11.5742 5.90066 11.5174 5.90066 11.4607 5.90066C11.4607 5.90066 11.4607 5.90066 11.4039 5.90066L11.2337 5.84393ZM10.2124 6.69499C10.2124 6.63825 10.2124 6.52478 10.2124 6.46804C10.2124 6.46804 10.2124 6.52478 10.3259 6.52478V6.46804C10.3259 6.46804 10.3827 6.35457 10.4394 6.35457C10.3827 6.35457 10.1557 6.35457 10.2124 6.35457C10.3827 6.35457 10.6664 6.35457 10.8366 6.35457C10.8366 6.35457 10.7798 6.4113 10.7231 6.46804C10.7231 6.46804 10.7798 6.52478 10.8366 6.58152C10.8366 6.58152 10.8933 6.63825 10.95 6.69499C10.95 6.69499 11.0068 6.63825 11.0635 6.58152C11.0635 6.58152 11.0068 6.58152 11.0068 6.52478C11.0068 6.52478 10.95 6.52478 10.95 6.4113C10.95 6.29783 11.0635 6.4113 11.0635 6.4113H11.177C11.177 6.35457 11.177 6.24109 11.177 6.18435C11.177 6.18435 11.2337 6.18435 11.2905 6.18435C11.2905 6.18435 11.2905 6.35457 11.2905 6.4113C11.5174 6.4113 11.8011 6.4113 12.028 6.4113C12.028 6.4113 12.1415 6.4113 12.1983 6.4113C12.1983 6.46804 12.1983 6.46804 12.0848 6.52478C12.0848 6.58152 12.1415 6.63825 12.1983 6.69499C12.1983 6.69499 12.255 6.75173 12.3117 6.80847C12.3117 6.75173 12.3117 6.75173 12.3117 6.69499C12.3117 6.75173 12.3117 6.8652 12.3117 6.92194H12.255C12.255 6.92194 12.255 6.92194 12.1983 6.92194H12.028C12.028 6.92194 12.0281 6.8652 12.1415 6.80847C12.1415 6.80847 12.1983 6.69499 12.255 6.69499C12.255 6.69499 12.255 6.69499 12.255 6.58152H12.1983C12.1983 6.58152 12.1415 6.52478 12.0848 6.46804C12.0848 6.46804 12.0848 6.46804 12.028 6.46804L11.9146 6.58152H11.8578C11.8578 6.63825 11.9146 6.69499 11.9713 6.75173C11.9713 6.75173 11.9146 6.75173 11.8578 6.75173C11.8578 6.75173 11.8011 6.75173 11.7444 6.75173C11.7444 6.75173 11.6309 6.75173 11.5742 6.75173H11.6309C11.6309 6.75173 11.6309 6.75173 11.6309 6.69499C11.6309 6.69499 11.6309 6.69499 11.5742 6.63825C11.5742 6.63825 11.5174 6.63825 11.4607 6.69499H11.4039C11.4039 6.69499 11.4039 6.69499 11.4039 6.75173C11.4039 6.75173 11.4607 6.75173 11.4607 6.8652H11.3472C11.3472 6.8652 11.2905 6.8652 11.2337 6.8652H11.0635C11.0635 6.8652 11.1202 6.8652 11.177 6.8652C11.177 6.8652 11.177 6.8652 11.2337 6.80847H11.177C11.177 6.80847 11.177 6.80847 11.1203 6.80847C11.1203 6.80847 11.0068 6.80847 11.0068 6.75173C11.0068 6.80847 10.8366 6.8652 10.8366 6.97868C10.8366 6.97868 10.8933 6.97868 10.95 7.09215C10.95 7.14889 10.7798 7.14889 10.7798 7.09215C10.7798 7.09215 10.7231 7.09215 10.6663 7.03542C10.6663 7.03542 10.6664 7.03542 10.5529 7.03542L10.2124 6.69499ZM11.2337 7.09215H11.1203C11.1203 7.09215 11.1202 7.09215 11.0635 7.09215H11.0068C10.95 7.09215 10.95 7.09215 10.8933 7.09215C10.8366 7.09215 10.8366 7.09215 10.7798 7.09215H10.7231C10.7231 7.09215 10.7231 7.09215 10.7798 7.09215C10.7798 7.09215 10.7798 7.09215 10.8366 7.09215C10.8366 7.09215 10.8366 7.09215 10.8933 7.09215C10.8933 7.09215 10.95 7.09215 11.0068 7.09215H11.0635C11.0635 7.09215 11.0635 7.03542 11.1203 7.09215H11.2337C11.2337 7.09215 11.2337 7.09215 11.2905 7.09215H11.3472H11.4039H11.4607C11.4607 7.09215 11.4039 7.20563 11.3472 7.09215H11.2905H11.2337H11.1203H11.0068H11.2337ZM9.75854 8.17017V8.22691C9.75854 8.22691 9.75854 8.34038 9.75854 8.28364V7.71627C9.75854 7.60279 9.75854 7.48932 9.75854 7.43258C9.87202 7.43258 10.099 7.43258 10.2124 7.43258C10.3259 7.43258 10.3259 7.43258 10.4394 7.43258H10.5529C10.7798 7.43258 10.8933 7.43258 11.1203 7.43258H11.177C11.177 7.43258 11.177 7.26237 11.177 7.20563C11.177 7.20563 11.177 7.20563 11.2337 7.20563C11.2337 7.26237 11.2337 7.37584 11.2337 7.37584C11.2337 7.37584 11.2905 7.37584 11.3472 7.37584H11.4607H12.255C12.4252 7.37584 12.6522 7.37584 12.7656 7.37584C12.7656 7.37584 12.7656 7.43258 12.7656 7.48932H12.4252C12.4252 7.48932 12.4252 7.48932 12.3685 7.48932C12.3685 7.48932 12.255 7.60279 12.3685 7.60279L12.482 7.71627C12.482 7.71627 12.4819 7.773 12.5954 7.773C12.5954 7.773 12.6522 7.65953 12.7089 7.65953H12.7656C12.7656 7.77301 12.8224 8.05669 12.7656 7.99995C12.7656 7.99995 12.7656 7.99995 12.7089 7.99995C12.7089 7.99995 12.7089 7.99996 12.6522 7.88648C12.6522 7.88648 12.6522 7.82974 12.5954 7.88648C12.5954 7.88648 12.5954 7.88648 12.5387 7.94322C12.5387 7.94322 12.4252 7.94322 12.4252 7.99995C12.4252 7.99995 12.4252 7.99995 12.4252 8.05669V8.11343C12.3117 8.11343 12.1983 8.11343 12.1415 8.11343C12.1415 8.11343 12.1983 7.99995 12.255 7.99995C12.255 7.94322 12.3685 7.88648 12.4252 7.82974C12.4252 7.82974 12.482 7.773 12.5387 7.71627H12.482C12.482 7.71627 12.482 7.71627 12.482 7.65953C12.482 7.65953 12.482 7.65953 12.4252 7.60279C12.4252 7.60279 12.3685 7.65953 12.3117 7.71627C12.3117 7.71627 12.3117 7.71627 12.255 7.71627C12.255 7.71627 12.255 7.71627 12.1983 7.71627C12.1983 7.71627 12.1983 7.71627 12.1415 7.71627C12.1983 7.82974 12.3117 7.88648 12.3685 7.94322C12.3685 7.99996 12.1983 7.99996 12.1415 7.94322C12.1415 7.94322 12.1415 7.94322 12.0848 7.88648C12.0848 7.88648 12.0281 7.88648 12.0848 7.82974C12.0848 7.88648 11.9146 7.82974 11.8578 7.82974C11.8578 7.82974 11.8578 7.82974 11.9146 7.82974C11.9146 7.82974 11.9146 7.773 12.028 7.71627H12.0848C12.0848 7.71627 12.0281 7.71627 11.9713 7.71627C11.9713 7.71627 11.8578 7.65953 11.8578 7.60279C11.8578 7.60279 11.8011 7.60279 11.8011 7.54605L11.9713 7.71627H11.7444C11.7444 7.71627 11.6309 7.65953 11.6309 7.60279C11.6309 7.60279 11.6309 7.65953 11.5174 7.65953C11.4607 7.65953 11.3472 7.65953 11.2337 7.65953C11.1203 7.65953 10.95 7.65953 10.8933 7.65953C10.7798 7.60279 10.7231 7.48932 10.6096 7.43258C10.6096 7.43258 10.6096 7.43258 10.5529 7.48932L9.75854 8.17017ZM10.0422 8.51059C9.9855 8.56733 9.92876 8.51059 9.87203 8.51059C9.87203 8.51059 9.87203 8.51059 9.87203 8.45386C9.87203 8.45386 9.92876 8.56733 9.87203 8.56733L10.0422 8.51059ZM10.099 8.51059C10.099 8.45386 10.2124 8.51059 10.2124 8.51059C10.2692 8.51059 10.3259 8.56733 10.3259 8.62407C10.2692 8.68081 10.2124 8.62407 10.099 8.62407C10.0422 8.62407 9.9855 8.62407 9.92876 8.62407L10.099 8.51059Z"
        fill="white" />
    <path
        d="M14.2982 11.5177L8.11377 8.0567V0.737549C9.98611 0.737549 11.8017 1.58861 13.1067 2.95031C14.4116 4.31202 15.1492 6.12762 15.1492 7.99996C15.1492 9.8723 14.8088 10.4397 14.2414 11.461L14.2982 11.5177ZM8.22724 8.0567L14.2982 11.461C14.8655 10.4397 15.1492 9.24819 15.1492 8.0567C15.1492 6.18436 14.4116 4.42549 13.1067 3.06379C11.8017 1.70209 10.0996 0.964499 8.22724 0.907762V8.0567Z"
        fill="white" />
    <path
        d="M1.70205 11.5177C1.13467 10.3829 0.79425 9.19145 0.79425 7.94322C0.79425 6.07088 1.53183 4.25528 2.8368 2.89358C4.14176 1.53187 5.95737 0.794286 7.82971 0.737549V8.0567L1.64531 11.5177H1.70205ZM7.82971 0.794287C5.95737 0.794287 4.25524 1.58861 2.89354 2.95031C1.58857 4.31202 0.850983 6.07088 0.850983 7.94322C0.850983 9.81556 1.13467 10.3262 1.70205 11.4042L7.77297 7.99996V0.851024L7.82971 0.794287Z"
        fill="white" />
    <path
        d="M8.00016 15.2057C6.75193 15.2057 5.5037 14.8652 4.42569 14.2411C3.34767 13.617 2.49661 12.7659 1.8725 11.7447V11.6879L8.00016 8.22693L14.1278 11.6879C13.5037 12.7659 12.5959 13.617 11.5179 14.2411C10.4399 14.8652 9.19164 15.2057 7.94342 15.2057H8.00016ZM1.92924 11.8014C2.55335 12.8227 3.40442 13.617 4.48243 14.2411C5.56044 14.8652 6.75193 15.1489 8.00016 15.1489C9.24838 15.1489 10.4399 14.8085 11.5179 14.1844C12.5392 13.617 13.3902 12.7659 14.0711 11.7447L8.00016 8.3404L1.92924 11.7447V11.8014Z"
        fill="white" />
    <path
        d="M7.99975 15.6029C5.9572 15.6029 4.02812 14.8086 2.60968 13.3901C1.19124 11.9717 0.396912 10.0426 0.396912 8.00005C0.396912 5.9575 1.19124 4.02842 2.60968 2.60998C4.02812 1.19154 5.9572 0.397217 7.99975 0.397217C10.0423 0.397217 11.9714 1.19154 13.3898 2.60998C14.8083 4.02842 15.6026 5.9575 15.6026 8.00005C15.6026 10.0426 14.8083 11.9717 13.3898 13.3901C11.9714 14.8086 10.0423 15.6029 7.99975 15.6029ZM7.99975 0.453954C6.01394 0.453954 4.08485 1.24828 2.66641 2.66672C1.24798 4.08516 0.453653 5.9575 0.453653 8.00005C0.453653 10.0426 1.24798 11.9149 2.66641 13.3334C4.08485 14.7518 5.9572 15.5462 7.99975 15.5462C10.0423 15.5462 11.9146 14.7518 13.3331 13.3334C14.7515 11.9149 15.5459 10.0426 15.5459 8.00005C15.5459 5.9575 14.7515 4.08516 13.3331 2.66672C11.9146 1.24828 10.0423 0.453954 7.99975 0.453954Z"
        fill="white" />
</svg>