<svg viewBox="0 0 16 16" xmlns="http://www.w3.org/2000/svg"><path d="M8 16c-2.156 0-4.142-.851-5.674-2.326S0 10.156 0 8c0-2.156.851-4.142 2.326-5.674C3.858.851 5.844 0 8 0c2.156 0 4.142.851 5.674 2.326C15.149 3.858 16 5.844 16 8c0 2.156-.851 4.142-2.326 5.674C12.142 15.149 10.156 16 8 16zM8 .113A7.86 7.86 0 002.44 2.44 7.86 7.86 0 00.113 8c0 2.1.852 4.085 2.327 5.56A7.86 7.86 0 008 15.886a7.86 7.86 0 005.56-2.326A7.86 7.86 0 0015.886 8a7.86 7.86 0 00-2.326-5.56A7.86 7.86 0 008 .113z" fill="#fff"/><path fill-rule="evenodd" clip-rule="evenodd" d="M4.823 2.1c.056-.114.056-.228.17-.284 0 0 .113.113.113.17 0 .113.057.17.114.227v.511c0 .226.056.283 0 .51v.511-.17V3.29v-.567-.057c0-.17-.114-.227-.114-.34h.114s0 .056.056.056c0 .057.114.114.17.17v.057c0 .057.057.057 0 .17v.965s-.056 0-.113.113a.122.122 0 01-.113.114c-.114.056-.17.17-.284.17h-.227l-.057.057v1.077c0 .057-.17.114-.113.228V7.206c.057 0 0 .113 0 .17l-.057.057v.397s-.227-.17-.227-.227v-.284c-.057-.113-.227-.17-.17-.34v-.114-.68c.057-.114 0-.511 0-.625v-.34-.397l-.057-.057c-.057-.057 0-.113 0-.113v-.398-.397l-.057-.056h-.17-.227s0-.057-.113-.114v-.113c0-.057-.057-.114-.114-.227V3.29v-.227s.057-.227 0-.284v-.17-.113c.057-.114.17-.227.17-.34l.284-.285c.114 0 .114-.113.17-.056 0 .056-.113.113-.113.227V3.12l.113.113c.057-.057 0-.227 0-.34v-.34-.511-.057c0-.17.114-.284.114-.454v-.057c0 .057.113 0 .113-.113l.625.737zm-.284 2.723v-.057h-.114v.114c0 .056.114 0 .057 0l.057-.057zm.397-2.61v.057-.057zm.34 2.44v-.625-.624c0-.056-.056-.113 0-.227-.056-.113-.056-.34-.17-.397V4.596h.17v-.057.114zM4.88 2.95V4.482c0 .114 0 .227.114.227v-.454c-.057 0 0-.227 0-.34V2.95h-.114zm-1.021.511v-.057c0 .057-.057.114-.113.227V4.54c0 .114.113.284.226.284 0 0 .17-.114.114-.17v-.057c0-.057-.057-.114-.114-.17v-.114-.567l-.113-.284zm2.383.114v.68s0 .057-.057.114v.113l-.113.114.113.113.057-.056v-.114-.113-.17c-.057-.17 0-.454-.114-.625l.114-.056zm-.17 0v.397c0 .056 0 .113-.057.17l-.057.057c0 .056 0 .056.114.113.056.057 0 .057 0 0v-.057c0-.113.113-.17.056-.34v-.227l-.056-.113zm-2.043.113v-.113c-.057 0 0 .113 0 .17v.17c0 .17.114.34.17.454v.057s.114-.114 0-.17v-.114-.227l-.17-.227zm.397.738v.113-.057H4.37l.056-.056zm1.135 0s-.057 0-.113.113v.114c.056-.057 0-.17 0-.17l.113-.057zm0 .34s-.113.057-.113.114v.113c0-.057.056-.113.113-.17 0 0 0-.057-.057 0l.057-.057zm-.68.227s0-.057-.114-.113v.056l.113.057zm.283-.057s.057-.056 0-.113v.113zm-.51.227s0-.113-.057-.113l.056.113zm.226.114h.114V5.22h-.114v.057zm.114.34h-.114v-.113l.114.113zm-.34.284c.113 0 0 .057 0 0zm0 1.305V7.149v.057zm.113.113v.227c.057 0 .057-.227 0-.227zm-.227.568v.056h.057l-.057-.056zm.227.227h.113c.057 0 .17 0 .17-.057H4.766v.057zm.34.227H5.05h.057zm-.454 0c.057 0 0 .056 0 0zm.17.283c.057 0 .114 0 .114-.113 0 0-.113 0-.113.113zm.114.284v.113c0 .17.227 0 .113-.056l-.113-.057zM3.29 3.915v.227h-.17-.057v-.114a.122.122 0 00.113-.113h.114zM6.639 3.915s.113.057.17.114l.057.056V4.2c-.17 0-.284-.057-.34-.17v-.057l.113-.057zM3.347 4.199s.057 0 0 .056c0 0-.113 0 0 .057 0 0 .114 0 .057.057 0 0-.057 0-.113.057h-.398v-.057h-.056s.056 0 .113-.114h.17l.227-.056z" fill="#fff"/><path fill-rule="evenodd" clip-rule="evenodd" d="M6.58 4.199s.114.056.17.056h-.113c-.056.057-.113 0-.17 0H6.41h-.113-.17v-.113s0 .057.113 0h-.113c0-.057.113 0 .057-.114l.397.17zM3.518 4.993l-.057.113c-.057 0-.114.114-.17.17 0 0-.057 0-.114.114 0-.114.17-.17.17-.227 0-.057.114-.114.114-.114h.057l.17-.17-.17.114zM6.467 5.106s-.056 0 0-.113c.17.17.284.34.454.454v.113l-.113-.113H6.75v-.114l-.17-.17h-.057V5.05l-.057.056zM3.63 5.106l-.056.057c-.057 0-.114.114-.17.17v.057l-.114.114v.056l-.057.057c0-.057.057-.113.114-.113l.113-.114v-.113l.057-.057c.057-.057.17-.114.227-.227l-.113.113zM6.297 5.106l.34.34c0 .114.114.114.114.171 0 .113.113.113.113.17 0 .114-.056.057-.113.114v-.114s0-.057-.057-.113h-.057c0-.114-.056-.114-.113-.17v-.057s-.057-.114-.113-.114c0 0-.057 0 0-.113l-.114-.114zM3.745 5.277h.113v.113s0 .057-.057.114v.113s0 .057-.056.113v.057s0 .057-.057.114v.056c0 .114-.114.114-.114.227l-.056-.056s0-.057.056-.114v-.113-.114-.113-.17-.114s0-.113.057-.113v.34s0 .057-.057.113v.057s-.056 0 0 .057v.17c0-.057 0-.113.057-.17v-.057c.114 0 .114-.17.114-.227 0 0 .056-.056.056-.113.057 0 .057-.114.114-.227 0-.114.113-.114.113-.227 0 0 0-.057.057-.057l-.34.34z" fill="#fff"/><path fill-rule="evenodd" clip-rule="evenodd" d="M6.184 5.276h.113l.057.057v.057c0 .057 0 .113.114.113v.057c0 .057 0 .114.113.114 0 .056 0 .113.114.113 0 .057 0 .114.113.114 0 .056 0 .113.114.113V6.298h-.057v-.114-.113V6.354v-.056s0-.057-.057-.114v-.113-.17c-.057-.114-.113-.227-.227-.34v-.114s-.057-.057 0-.114h.057c0 .057 0 .057 0 0l-.454-.057zm.113.34s0 .058.057.114l-.057-.113zM3.971 5.787s.057-.113.114-.057c0 0 .057.057.057 0h.113v.171s-.057.056 0 .113a.122.122 0 01-.113.114c-.114 0-.227.283-.227.454l.113.113v.057c-.057 0 0 .17-.113.227v.113s-.057.057 0 .114v.17h-.057c0-.114-.114-.227-.17-.34v-.227-.227l-.057-.057v-.227-.114a.122.122 0 00.114-.113v-.114h-.057l-.227.227c-.057.114-.114.227-.114.284v.17c0 .057 0 .114.114.17 0 .34-.114.568-.284.738V7.49v-.056c.114-.114.057-.34 0-.398V6.752v-.057-.113s0-.114.057-.17l.057-.057s.056 0 .113-.057V6.24c.057 0 .057-.113 0-.113l.567-.34zM5.844 5.73l.057.057v.114c0 .056.113.17.113.17.057 0 .114.113.17.17V7.32c0 .057.114.114.17.17v.114h-.113v-.057l-.113-.113v-.057-.397-.057V6.355h-.114v.227c.057.113.17.113.284.226v.114c0 .17.113.17.113.284l-.113.113c0 .227.113.284.113.567V8h-.057v-.114V7.49c0-.17 0-.283.114-.34v-.17s0-.17-.114-.114h-.056v-.17c0-.113-.057-.17 0-.284.113.057.113 0 .113 0l-.567-.68zm0 .227v-.056.056zM6.921 11.347h.057v.057h.227v.738c-.114.113-.284.113-.454.113 0-.057-.227 0-.227-.113h-.965v-.114c-.056-.056-.17-.17-.283-.17h.113v.114c-.17 0-.284-.114-.454-.057-.057-.057-.283 0-.397 0H4.822c0-.057.113 0 .17 0H5.559s0 .057.114.113c0 0 0 .057.057.057h.056l.114.113H6.467v-.056s0-.114.057-.114c0-.17 0-.397-.114-.454-.113 0-.17-.056-.283 0-.057 0-.114.114-.17.114 0 .057-.114 0-.114.057-.113 0-.34.056-.51 0h.226l.114-.114s0-.057.113-.057v-.113l1.135-.114zM4.085 12.255H3.972v-.057l.113.057zM4.198 12.596s0-.057.114 0c0 0 .056 0 0 .113h-.057v-.113h-.057zM7.603 9.702h.34v.114h-.227-.227-.057l.17-.114zM7.319 10.156c0-.057.114-.057.114 0h-.114zM7.944 12.369v1.078c0 .056 0 .056.113.113v.681c0 .057.17 0 .227 0v.057h-.113c0 .113.17.056.227.113.113 0 .17.114.283.114v.113h.34v.114h-.113-.113-.17s.056 0 0 .113H8.17h-.057H8s-.056 0-.056-.113l.113-.114s.114 0 .114-.113h.17c0 .113.17.113.284.17.17 0 .283.113.34.17h.113v-.113-.057h-.056-.227s-.057-.114-.114-.057c0 0 0-.113-.056-.113v-.227-.624-.454-.057-.227c0-.057-.057-.113 0-.17v-.057c-.114-.113-.114-.113-.057-.17l-.624-.17zM11.574 12.425h.114v.057l-.114-.057zM7.66 12.993h.113v.227c.113.17 0 .454 0 .624v.227h-.114c-.057 0-.113.113-.227.17 0 0-.057 0-.113.114h-.397c0-.17.34 0 .453-.114l.057-.057h.17s.114-.056.114-.113v-.114-.794l-.057-.17z" fill="#fff"/><path fill-rule="evenodd" clip-rule="evenodd" d="M8.113 11.631c0 .057 0 .057 0 0V11.347h.056v-.113s-.113.114-.113 0c0-.057-.114-.057-.114-.17v-.114c0-.113-.113 0-.17 0v.738s.057 0 0 .113v.398h-.057l-.113-.114v.397h-.057v-.17-.227-.113-.114c0-.113-.057-.057 0-.113-.113-.34-.51-.34-.794-.568h-.057-.113-.511c0-.113-.114-.113-.114-.227H5.9v-.113h.056s.057.113.114.113h.34c0-.056 0-.227.114-.17 0 0 0 .114.057.114h.227s0-.057.113 0c0 .056-.113.113 0 .113 0 .057 0 .057 0 0 0 0 .057-.057 0-.113v.227c0 .056-.17 0-.227.056 0 .114-.057.114 0 .17h.057s0 .057.057.057h.056v-.17.114s0 .056.057.056c0 0 .057 0 .057-.056 0-.057-.057-.114 0-.17v-.057-.227c0-.057-.057-.057 0-.114l.113-.113h.51l.114-.114s0-.057.114-.057v.114c-.114 0-.114.113-.17.113 0 .057.056 0 .113 0h.17v-.17c.114 0 .227 0 .284-.057v-.113c0-.057-.113-.113-.113-.113H7.829h.113s0-.114-.056-.114h-.057H6.864v.114h-.34v.17h-.057c0-.057-.284-.057-.34 0h-.114c-.113 0-.113 0-.227.056H5.73v.114h-.171s0 .057-.056.113c0 .057.056.114.113.114h.114c.113 0 0-.17 0-.227h.113l.057.057c0 .056 0 .113.113.113v.114H6.581c.056 0 0 .056.113 0h.057s0 .113.113.113c-.17 0-.283-.17-.454-.113h-.397c0 .056-.113 0-.113.056H5.616s-.057 0-.113.114v.057c-.114 0-.114.113-.227.056v-.056c-.057 0-.114-.114-.17 0v.056h-.228s-.113 0-.113.057h-.17-.114H3.914c-.057 0 0 .17 0 .17h.227v.17H4.425s.056 0 .113-.113c0 0 0 .114.114.114v.113h.226v-.17h.227v-.114h.454v.057c0 .057-.113 0-.17.057h-.113H5.559v-.114l.057-.056c.057 0 .114-.057.227 0h.624s0 .056.114.113l.113.114.057.056c0 .057.057.057 0 .17V12.54c0 .114-.114.114-.17.17h-.795-.113.908v.057c-.057.057-.34 0-.398 0h-.056-.397-.057v-.057h.17c.057 0 .114 0 .17-.056h.17c.114.113.398 0 .511 0 .057 0 0-.17.057-.228l-.057-.056c.057 0 .114 0 .114.113l.056.057s.057-.227 0-.284v-.113-.057c0-.057-.056-.057 0 0v.114h-.056s-.057-.114-.114-.17h-.057v.283h-.056V12.2v.17l-.057.056c-.057 0 0-.226 0-.283 0 0 0-.114-.057-.17v.17l-.057.057s0-.114-.113-.114h-.114v.227s0 .057-.113 0v.114l-.057.056v-.34H5.9v.113h-.227v.17s0-.056-.057-.056v.056h-.113v-.17h-.114v-.113-.227l.057-.057v-.057h-.114V11.915 11.8v-.056h-.056v-.057h-.17v.227s-.057.057 0 .113c-.057 0 0-.227 0-.283h-.114v-.057h-.17v-.114h.113c0-.056 0-.113.057-.113h.965s.113 0 .056-.114h-.056c-.057 0-.057-.283 0-.34l.056.057v.113c0 .057.114.114.17.17h.398c0-.113 0-.17-.057-.283v-.057c0-.113-.17-.227-.227-.113l-.114.113s0 .057-.056.114h-.171v-.17c.057 0 0-.114 0-.114v-.057h.114c.113-.057.113-.17.227-.284.113 0 .113-.113.17-.113.114 0 .17-.113.227-.227h.17c.114 0 .17-.113.284-.113H7.488c.057-.17.17-.34.454-.34 0 0 .057 0 .057-.114v-.057h.34c0-.057.17 0 .227-.114h.624s.114.114.17.114c0 .057 0 .17.171.113 0 .114.113.114.17.227 0 .114 0 .114.114.114h.113s0 .113.114.113a.783.783 0 00.227.17h.453c.114 0 .114.227.227.227H11.233s.057 0 0 .114h.114c0 .057.113.227 0 .284 0 .056.113.113.056.227-.283 0-.397.056-.51.17h.227s.056 0 .113-.114h.567l.057.114c0 .056.227 0 .34 0 .114.056.114.227.228.284l.113.113h.114s0 .057.113.113v.227c0 .057-.114 0-.17 0h-.114c0 .057-.283 0-.283 0V12.596h-.114v.624s0-.114-.113-.114v-.227h-.341s0 .114-.057.114v.17-.17s-.056-.114-.17-.114h-.17v.851h.51s.114 0 .114.057h-.454v.057h-.113v.114h-.227l-.114-.114h-.227s.114.114.17.114h.114s-.057.056-.113.056c0 0-.057-.113-.114 0H10.325s0-.056-.056 0l-.114-.113c0-.057-.057-.057 0-.114v-.851-.397-.397-.341-.113c0-.057-.057-.057-.113-.114 0-.113-.114-.056-.114-.226h.397l-2.212.283zm1.872-1.191c-.114 0-.17.056-.284 0H9.417c-.056.056-.113.17-.283.17-.057-.057-.114.057-.227 0 0 .17-.227.17-.17.34h.34v.114c-.113 0-.17.057-.227.113h-.34c-.114 0-.17.114-.227.17 0 .114-.057.17 0 .284v.057-.057h.056v.17s.114 0 .114.114h.454s.057 0 .113-.114h.624l.057-.056s0-.057.057-.057h.113c.057 0 .114-.114.17-.17 0 0 .057 0 .114-.114 0 0 0-.056.057-.113h.17v-.057-.057c0-.056-.057 0-.113 0 0 0-.114 0-.114-.056 0-.057-.17 0-.227 0h-.17c-.057.113-.227.113-.34.226h-.114.057s.056 0 .113-.056l.057-.057v-.113c0-.114-.057-.114-.114-.114l.568-.567zm-2.894.283s-.113-.056-.113 0h.113zm4.596 1.078c-.057-.056-.17.114-.34 0h-.17s-.114.114-.228.057H10.382c-.113 0-.17.114-.227.17v.057a.43.43 0 01-.113.227v.17s-.057 0-.114.114l-.113.056c-.057 0-.114 0-.17.057v.057h.113s.057 0 .113.113h.398v.114h.056l.114-.114v-.056c0-.057.056-.057.113 0h.057s0 .056.057 0h.056s0-.114.114-.17c0 0 0-.057.057-.114H11.176c.057 0 .057-.114.114-.17v-.057h.681V12.2h-.34v-.114c0-.057 0 0-.058 0v-.113h-.17-.227s.114-.057.057-.17h.454zm-2.213.227c-.113-.056-.17.114-.227.114H9.02c-.113-.114-.283 0-.397 0 0 0-.057 0-.057.113v.057h.851s.057 0 .114-.113l.057-.057v-.057-.113H9.247l.227.056zm-.454.454H8.34v.17h.511s.057 0 .057-.113c-.057 0-.114-.057-.17-.114l.283.057zm-3.12.227a.443.443 0 00-.227.227v.114s0 .056.113.113h.057c0-.057.114 0 .114-.113v-.227H5.73l.17-.114zm3.404.114c-.057-.227-.397-.114-.51 0 0 0-.057 0-.057.113v.794c0 .114 0 .227.056.284.057 0 0 .057.057.114H9.304c.057 0 .397.056.397 0l.057-.057v-.624-.227H9.53V13.503 13.164c0-.057-.114-.113-.17-.17h-.114V13.56 13.277v-.398l.057-.056zm-2.44 0c-.113-.057-.34-.114-.454 0v.17c.057 0 .114.17.227.17a.434.434 0 00.284-.113v-.17l-.057-.057zm-1.588.113h-.398c-.056 0 0 .114-.056.114 0 .113 0 .17.056.17h.227v-.227l.17-.057zm3.234.227h-.057v.114c0 .056 0 .113.057.113v-.227zm.227 1.021s-.114-.056-.114 0c0 0 0 .114.057.114s.057.057.17 0h.114v-.114H8.85h-.113z" fill="#fff"/><path d="M11.46 5.22l.057-.057V5.05h-.114l.114.113-.057.057zM9.873 7.774h.17l.057-.057h.057c0-.227-.284-.17-.455-.114v.171c0 .057.114.113.114.17l.057-.17zM10.667 7.66s.056 0 .113.113l.114.114h.113s0-.057.114-.114c0 0 0-.057.113-.113h-.057s-.113-.057-.113-.114H10.61c0 .057.113.114.17.17l-.113-.056z" fill="#fff"/><path d="M11.233 7.49c.057 0 .114.113.17.17 0-.057.114-.114.17-.17h-.567s.057 0 .057.113l.17-.114zM11.743 7.546h-.113l.113.114s.114.057.114.113c0 0 .057-.056.114-.056l.113-.114.113-.113h-.056c0-.057-.227-.057-.284 0H11.8h-.057v.056zM10.156 7.773s-.114 0-.114.114c0 0 .057 0 .114.113l.113.114.057.056h.113s0-.056.114-.056c0 0-.114-.114-.17-.114 0 0-.114 0-.114-.056 0-.057-.17-.114-.227-.17l-.057.056-.113.114V8l.284-.227zM11.461 6.412s0-.057.114-.114h-.341s.057.114.113.114h.114zM11.517 6.411c0 .114.17.17.226.227.114 0 .114-.113.227-.17 0 0 .057 0 .114-.057h-.057l-.057-.056h-.227s-.056 0-.113.056h-.114z" fill="#fff"/><path d="M10.893 8.624c.114 0 .34 0 .34.057v.17c.057.113.114.17.228.227h.113c0-.114.17-.17.17-.284v-.226h1.646v-.114-.511-.737H11.8 12.766v-.511-.227V6.184c-.34-.113-.738 0-1.078-.056h.624v-.114-.113-.397-.398h-.454v-.113h.454v-.057-.113-.681h-.341.34v-.114-.794h-.283s-.113-.057-.057-.17h.057c0-.17 0-.227-.057-.284.114-.17-.056-.284-.17-.34 0 0 0 .056-.113.113v.341s0 .056.113.113v.114h-.284v.907h.34H11.405v.738c.113.057.397 0 .51 0v.113h-.397v.964h.738v.058H11.12v1.021h1.135c0 .057-.114 0-.17 0H10.61V8.34H11.915l-1.022.284zm.624.34c0 .114-.226 0-.17-.056h.114V8.85h-.17.056v.227l.17-.114zm-.113-.397h.057-.114.057zm.51-.113h-.34c-.057.057-.17 0-.227 0h-.227c-.056.057-.113 0-.227 0h-.17l.057-.057s.057 0 .113.057l.057-.114h.114l.056-.113s.057 0 .114.113l.056-.056s.057 0 .114.056l.057-.056h.056l.057-.057.114.113.227.114zm1.362-.114v.17h-.113c-.114 0-.17.114-.227 0-.057 0-.114.114-.227 0h-.114s-.113.057-.113 0h-.114s-.113.057-.17 0h-.17c-.057 0 0-.113.057-.113l.056.057.057-.057.057.057.057.057s.056-.114.113-.057l.057.057s.113-.114.113 0c.114 0 .17-.114.17-.057l.511-.114zm-1.475-5.106s-.057.057-.057 0h.057zm0 .227s.057 0 0 .057V3.46zm-.113-.454h.17v.114s-.114-.057-.114-.114h-.056zm-.114.51s-.113-.113 0-.113v.114zm0-.226v.056s0-.113.114-.056h-.114zm-.227-.851v-.057l.057.057h-.114.057zm.114.227h-.114c0-.057.114-.057.114 0zm-.114.227h.057-.114V2.78l.057.114zm.057.34h-.114v-.057l.114.057zm-.114.227s-.056.113-.113.057V3.46h.114zm0-.17s-.056 0-.113-.057l.114.057zm-.283 0c0-.114.113-.17.113-.284h.114c0 .057-.057.114-.114.17v.114c0 .056-.056.056 0 0v-.114l-.113.114zm0 .397s.113-.114.113 0h.454V3.8h-.908l.34-.113zm.454.34h-.114v.057h.057v-.227h.113V4.142l-.056-.114zm-.284.284l.114-.113s0-.057.113-.114l-.057.057c0 .057.114.057.114 0l.056-.057v-.057h.227v.057c0-.113.114.17 0 .114 0 0 0 .113-.056.113 0 0 0-.057.056-.113v-.057h-.056-.057s0 .113-.057.113l.114.114v-.057h-.057v-.057s-.114-.056-.114-.17h-.056v.057c-.057 0-.114.113-.114.057v-.114-.113s-.113-.057-.113-.114h.056l-.113.454zm-.17.227v-.114.114zm-.17-.284s0-.056.056-.056c0-.057.17-.057.17 0 0 .056-.113.113-.17.17h-.056c0-.057 0-.057.056-.114h-.056zm.397.397h-.114-.056-.057V4.54h.397s.057-.057.113 0h.341v.113c0 .057 0 0-.114 0h-.113c0-.056-.057 0-.114 0H11.234zm.113.625c0-.057-.056-.114-.113-.17V5.05h.113v-.227h.114v.227h.17c0 .056-.114.113-.114.17v.057l.114-.114.057-.057c0-.113-.114-.113-.114-.227h.284a.122.122 0 01-.114.114v.057l.114.113v.114h-.114v.056h-.056s0-.056.113-.113l-.057-.114c-.056 0 0-.113-.113-.113l-.114.113-.113.114v.113h-.227.057V5.22c-.114 0-.114.113-.227.17 0 .057.056.057.113.114h-.056-.227l.056-.057h.057s0-.057.114-.114h.113l.17-.056zm-.737 0V5.22v-.114h-.17.453l-.113.114v.057l.17.17s-.057 0-.057-.114c0 0-.056 0-.056-.113 0 .113-.114.113-.114.17.057.114.114.17.227.227h-.057l-.113-.114V5.22l-.17.057zm.624.567h-.057-.114-.056-.057s.057.057.114 0H11.46s0-.057.113 0h.227c0-.057.114 0 .114 0h.113s.114-.057.17 0V5.9h-.113-.057-.057-.056s-.057-.057-.114 0h-.057c-.056 0-.056.056-.113 0h-.057-.113-.057l-.17-.057zm-1.022.851v-.227s0 .057.114.057v-.057s.057-.113.113-.113h-.227.625l-.114.113a208.702 208.702 0 00.227.227l.114-.113s-.057 0-.057-.057c0 0-.057 0-.057-.114 0-.113.114 0 .114 0h.113v-.227h.114v.227h.907c0 .057 0 .057-.113.114 0 .057.056.113.113.17l.114.113v-.113.227h-.057-.227s0-.057.114-.114c0 0 .056-.113.113-.113v-.113h-.057l-.113-.114h-.057l-.113.114h-.057c0 .056.057.113.113.17h-.113-.114-.17.057v-.057l-.057-.057s-.057 0-.113.057h-.057v.057s.057 0 .057.113h-.114H11.064h.113l.057-.057h-.057-.057s-.113 0-.113-.056c0 .056-.17.113-.17.227 0 0 .056 0 .113.113 0 .057-.17.057-.17 0 0 0-.057 0-.114-.057h-.113l-.34-.34zm1.022.397h-.114-.397.34s0-.057.057 0h.341s-.057.114-.114 0h-.34.227zM9.759 8.17v.114-.568-.283h1.418v-.227h.057v.17H12.765v.113h-.34-.057s-.113.114 0 .114l.114.113s0 .057.113.057c0 0 .057-.113.114-.113h.057c0 .113.056.397 0 .34h-.057l-.057-.114s0-.056-.057 0l-.056.057s-.114 0-.114.057v.113h-.284S12.199 8 12.256 8c0-.057.113-.114.17-.17l.114-.114h-.057V7.66l-.057-.057-.113.113h-.057-.057-.056c.056.114.17.17.226.227 0 .057-.17.057-.226 0l-.057-.057s-.057 0 0-.056c0 .056-.17 0-.227 0h.057s0-.057.113-.114h-.057s-.113-.056-.113-.113c0 0-.057 0-.057-.057l.17.17h-.227s-.113-.056-.113-.113c0 0 0 .057-.114.057h-.623c-.114-.057-.17-.17-.284-.227l-.057.056-.794.681zm.283.34c-.056.057-.113 0-.17 0v-.056s.057.113 0 .113l.17-.056zm.057 0c0-.056.113 0 .113 0 .057 0 .114.057.114.114-.057.057-.114 0-.227 0h-.17l.17-.113z" fill="#fff"/><path d="M14.298 11.518L8.114 8.057V.737c1.872 0 3.688.852 4.993 2.213A7.321 7.321 0 0115.149 8c0 1.872-.34 2.44-.908 3.461l.057.057zm-6.07-3.461l6.07 3.404c.568-1.021.851-2.213.851-3.404 0-1.873-.737-3.632-2.042-4.993C11.802 1.702 10.1.964 8.227.908v7.149zM1.702 11.518C1.135 10.383.794 9.19.794 7.943c0-1.872.738-3.688 2.043-5.05C4.142 1.533 5.957.795 7.83.739v7.319l-6.185 3.46h.057zM7.83.794c-1.873 0-3.575.795-4.936 2.156C1.589 4.312.85 6.07.85 7.943c0 1.873.284 2.383.851 3.461L7.773 8V.851L7.83.794zM8 15.206a7.184 7.184 0 01-3.574-.965 7.18 7.18 0 01-2.554-2.496v-.057L8 8.227l6.128 3.46c-.624 1.079-1.532 1.93-2.61 2.554a7.184 7.184 0 01-3.575.965H8zM1.93 11.8c.623 1.022 1.474 1.816 2.552 2.44 1.078.624 2.27.908 3.518.908 1.248 0 2.44-.34 3.518-.965 1.021-.567 1.872-1.418 2.553-2.44L8.001 8.34l-6.072 3.405v.056z" fill="#fff"/><path d="M8 15.603a7.595 7.595 0 01-5.39-2.213A7.595 7.595 0 01.397 8c0-2.043.794-3.972 2.213-5.39A7.595 7.595 0 018 .397c2.042 0 3.971.795 5.39 2.213A7.595 7.595 0 0115.603 8a7.595 7.595 0 01-2.213 5.39A7.595 7.595 0 018 15.603zM8 .454a7.562 7.562 0 00-5.334 2.213A7.464 7.464 0 00.454 8c0 2.043.794 3.915 2.212 5.333A7.464 7.464 0 008 15.546a7.464 7.464 0 005.333-2.213A7.464 7.464 0 0015.546 8a7.464 7.464 0 00-2.213-5.333A7.464 7.464 0 008 .454z" fill="#fff"/></svg>