<svg viewBox="0 0 40 40" xmlns="http://www.w3.org/2000/svg"><g clip-path="url(#prefix__dong_a_bank_clip0)" fill-rule="evenodd" clip-rule="evenodd"><path d="M1.553 32.542l.793.308c-.242-.077-.495-.154-.727-.23-.022-.023-.033-.056-.055-.078h-.01z" fill="#F08921"/><path d="M2.346 32.85l-.793-.308a9.693 9.693 0 01-.286-.43l3.47 1.377a29.022 29.022 0 01-2.39-.628v-.01zM4.737 33.478l-3.47-1.377c-.077-.132-.154-.275-.231-.407l5.243 2.07a31.977 31.977 0 01-1.542-.286z" fill="#F08A21"/><path d="M6.28 33.765l-5.244-2.071c-.067-.133-.133-.265-.188-.397l6.445 2.556s.033.044.044.066c-.353-.044-.705-.088-1.058-.143v-.011z" fill="#F08C21"/><path d="M7.282 33.853L.837 31.297a4.019 4.019 0 01-.154-.386l6.29 2.49c.1.143.21.298.32.44l-.011.012z" fill="#F08C21"/><path d="M6.973 33.401l-6.29-2.49a14.225 14.225 0 01-.132-.374l6.136 2.424c.088.143.187.286.286.43v.01z" fill="#F08C21"/><path d="M6.687 32.972L.55 30.548c-.044-.121-.077-.242-.11-.363l5.993 2.368c.077.143.165.276.253.419z" fill="#F08E20"/><path d="M6.422 32.553L.441 30.184c-.033-.12-.066-.23-.1-.352l5.85 2.313c.077.133.154.276.231.408z" fill="#F08C21"/><path d="M6.191 32.134l-5.85-2.313a4.035 4.035 0 01-.077-.353l5.729 2.27c.066.132.132.264.21.407l-.012-.01z" fill="#F08E20"/><path d="M5.982 31.738l-5.718-2.27-.066-.341 5.608 2.214c.055.132.12.265.187.397h-.011z" fill="#F08E20"/><path d="M5.806 31.341L.198 29.127c-.022-.11-.033-.22-.055-.341l5.497 2.17c.055.132.11.253.166.385zm6.918 2.413l.562.22-.21.022c-.12-.077-.242-.165-.352-.242z" fill="#F19020"/><path d="M13.275 33.985l-.562-.22c-.309-.22-.606-.44-.904-.672l2.094.826c-.21.022-.42.044-.628.077v-.01zm-7.646-3.018L.143 28.786c-.01-.11-.033-.22-.044-.342l5.398 2.137c.044.121.1.253.143.375l-.01.01z" fill="#F19020"/><path d="M13.902 33.908l-2.093-.826a13.254 13.254 0 01-.727-.606l3.426 1.355c-.209.022-.407.055-.616.077h.01zm-8.416-3.327L.1 28.444l-.033-.33 5.299 2.092c.044.122.088.243.132.375h-.01z" fill="#F19020"/><path d="M14.52 33.83l-3.427-1.354c-.209-.187-.407-.364-.605-.562l4.637 1.84c-.198.033-.396.055-.606.077zm-9.155-3.623l-5.31-2.094c0-.11-.01-.22-.022-.33l5.21 2.06c.034.121.078.242.11.363h.012z" fill="#F19120"/><path d="M15.114 33.754l-4.638-1.84a11.513 11.513 0 01-.517-.518l5.74 2.27c-.2.033-.386.055-.585.088zm-9.87-3.9L.033 27.783c0-.11-.011-.22-.022-.33l5.134 2.026.099.364v.01z" fill="#F19020"/><path d="M15.71 33.666l-5.74-2.27c-.155-.165-.298-.33-.441-.495l6.742 2.665-.562.1zM5.155 29.49L.01 27.453c0-.11 0-.21-.011-.32l5.067 2.005c.023.121.056.231.089.352z" fill="#F19120"/><path d="M16.271 33.567L9.529 30.9a7.998 7.998 0 01-.386-.474l7.679 3.04c-.176.034-.353.078-.54.11l-.011-.01zM5.067 29.138L0 27.133v-.32l5.001 1.973c.022.11.044.23.066.352z" fill="#F19120"/><path d="M16.81 33.467l-7.678-3.04a12.157 12.157 0 01-.341-.452l8.526 3.371c-.165.044-.341.077-.517.121h.01zm-11.82-4.67L0 26.813v-.32l4.935 1.95c.022.11.033.231.055.341v.011z" fill="#F4941E"/><path d="M17.329 33.346l-8.527-3.37c-.1-.144-.21-.287-.308-.441l9.308 3.679c-.154.044-.32.088-.473.132zM4.935 28.444L0 26.494v-.32l4.88 1.928c.011.11.033.232.044.342h.011zM17.802 33.214l-9.308-3.68c-.089-.143-.188-.286-.276-.429l10.025 3.966c-.143.055-.287.099-.44.143zm-12.91-5.111L0 26.174c0-.1 0-.21.011-.32l4.836 1.917c0 .11.022.22.033.33h.011z" fill="#F4941E"/><path d="M18.254 33.07L8.229 29.106c-.088-.132-.165-.275-.242-.419l10.675 4.22c-.133.055-.265.11-.408.154v.01zM4.858 27.773L.022 25.866c0-.099 0-.21.022-.308l4.792 1.895c0 .11.011.22.022.33v-.011z" fill="#F4961E"/><path d="M18.65 32.916L7.977 28.697c-.077-.132-.143-.275-.22-.407l9.859 3.9c.375.253.75.473 1.146.671-.033.022-.077.034-.11.056zM4.837 27.453L.044 25.547c0-.1.011-.21.022-.309l4.76 1.884c0 .11 0 .22.01.33z" fill="#F4961E"/><path d="M17.626 32.19l-9.86-3.9-.198-.397 9.155 3.624c.297.243.595.474.903.683v-.01zm-12.8-5.068l-4.76-1.884c0-.099.022-.209.033-.308l4.726 1.873v.319z" fill="#F5971E"/><path d="M16.723 31.506l-9.155-3.624c-.066-.132-.121-.264-.176-.385l8.68 3.437c.21.198.43.396.65.572zM4.814 26.803L.1 24.93c0-.1.022-.198.033-.309l4.693 1.862v.32h-.01z" fill="#F5971E"/><path d="M16.073 30.934l-8.681-3.438c-.055-.132-.11-.253-.165-.385l8.317 3.294c.176.187.352.363.529.529zM4.825 26.483l-4.693-1.85.033-.31 4.671 1.852c0 .11 0 .209-.01.32v-.012z" fill="#F5971E"/><path d="M15.544 30.405L7.227 27.11c-.044-.121-.1-.253-.144-.375l8.02 3.173c.143.165.287.33.441.496zm-10.708-4.23l-4.67-1.851c.01-.1.032-.198.043-.298l4.638 1.84c0 .1-.01.21-.022.309h.011z" fill="#F5971E"/><path d="M15.103 29.91l-8.02-3.174a14.364 14.364 0 01-.132-.374l7.756 3.073c.12.166.253.32.385.474h.011zM4.858 25.854L.21 24.015c.011-.099.033-.198.044-.297l4.627 1.829c0 .099-.022.209-.033.308h.011z" fill="#F59722"/><path d="M14.718 29.435l-7.756-3.073c-.044-.121-.077-.242-.12-.364l7.534 2.986c.11.154.232.308.342.451zM4.89 25.547L.253 23.718c.011-.1.033-.198.055-.297l4.605 1.828-.033.309.011-.011z" fill="#F89A22"/><path d="M14.365 28.984L6.83 25.998c-.033-.12-.077-.242-.11-.363l7.337 2.897c.099.143.198.297.308.44v.012zm-9.452-3.735L.308 23.421c.023-.1.034-.199.056-.298l4.593 1.818c-.01.099-.033.198-.044.308z" fill="#F89A22"/><path d="M14.068 28.543L6.73 25.646c-.033-.121-.066-.232-.1-.353l7.161 2.832c.088.143.177.286.276.43v-.012zm-9.11-3.602L.363 23.123c.022-.099.044-.198.055-.297L5 24.643c-.022.1-.033.199-.044.298z" fill="#F59B26"/><path d="M13.792 28.113l-7.16-2.83c-.033-.122-.055-.232-.088-.353l6.995 2.765c.077.143.165.275.253.418zm-8.79-3.47L.418 22.826l.066-.298 4.582 1.807c-.022.099-.033.198-.055.297l-.01.011z" fill="#F89C27"/><path d="M13.539 27.695L6.544 24.93c-.022-.11-.055-.232-.077-.353l6.84 2.71c.078.143.155.276.232.408zm-8.483-3.36L.474 22.528l.066-.297 4.572 1.806c-.022.1-.045.199-.056.298z" fill="#F59B28"/><path d="M13.308 27.287l-6.841-2.71-.067-.341 6.698 2.644c.066.132.143.275.21.407zM5.112 24.05L.54 22.242l.066-.297 4.572 1.806-.066.298z" fill="#F59D2A"/><path d="M13.098 26.88L6.4 24.236a3.666 3.666 0 01-.055-.342l6.566 2.6c.066.132.121.264.187.397v-.011zm-7.92-3.13L.606 21.945c.022-.099.044-.198.077-.286l4.572 1.806-.066.298-.011-.011zM12.911 26.483l-6.566-2.6c-.022-.11-.033-.231-.055-.341l6.434 2.545c.055.132.12.264.176.385l.011.011zm-7.656-3.03L.683 21.648c.022-.1.044-.198.077-.286l4.572 1.806c-.022.1-.055.199-.077.287z" fill="#F59D2C"/><path d="M12.735 26.097L6.3 23.553a3.201 3.201 0 01-.044-.342l6.324 2.5c.055.133.11.254.165.386h-.011zm-7.403-2.93L.76 21.36c.022-.099.055-.187.077-.286l4.561 1.807c-.022.099-.055.187-.077.286h.01z" fill="#F59D32"/><path d="M12.57 25.712l-6.324-2.5c-.01-.111-.022-.221-.033-.331l6.202 2.456c.055.133.1.254.155.375zM5.397 22.88l-4.56-1.807c.021-.1.054-.187.076-.286l4.572 1.806c-.033.1-.055.188-.088.287z" fill="#F69F32"/><path d="M12.426 25.337l-6.202-2.456-.033-.33 6.103 2.412c.044.121.088.253.143.374h-.01zm-6.929-2.743L.925 20.788c.022-.1.055-.188.088-.287l4.572 1.807c-.033.1-.055.187-.088.286z" fill="#F89F33"/><path d="M12.283 24.963L6.18 22.55c0-.11-.022-.22-.022-.33l6.004 2.368c.044.121.088.243.132.375h-.01zm-6.709-2.655L1.003 20.5c.033-.099.055-.187.088-.286l4.571 1.806c-.033.1-.066.188-.088.287z" fill="#F8A036"/><path d="M12.151 24.588L6.147 22.22c0-.11-.01-.22-.022-.33l5.905 2.335c.033.12.077.242.121.363zm-6.489-2.567l-4.571-1.806c.033-.088.066-.188.088-.287l4.572 1.807c-.034.1-.067.187-.089.286z" fill="#F9A236"/><path d="M12.04 24.225l-5.904-2.336c0-.11 0-.22-.011-.33l5.806 2.302c.033.121.066.242.11.364zm-6.278-2.49L1.19 19.928c.033-.099.055-.187.088-.286l4.583 1.806c-.033.089-.066.188-.1.276v.01z" fill="#F9A238"/><path d="M11.93 23.861L6.126 21.56v-.32l5.717 2.259.1.363h-.011zM5.85 21.46l-4.583-1.807c.033-.099.066-.187.099-.286l4.583 1.817c-.033.088-.066.188-.1.276z" fill="#F6A138"/><path d="M11.832 23.509L6.114 21.25v-.32l5.64 2.226c.033.121.055.242.088.353h-.01zm-5.883-2.325l-4.583-1.817c.033-.1.066-.188.1-.276l4.582 1.818c-.033.099-.066.187-.1.275z" fill="#F6A13B"/><path d="M11.743 23.145l-5.64-2.225v-.165l-.055.143-4.583-1.818c.033-.088.066-.187.1-.275l10.09 3.988c.022.12.055.231.077.352h.011z" fill="#F6A33D"/><path d="M11.666 22.804l-10.09-3.988c.032-.088.065-.188.098-.276l9.915 3.922c.022.121.044.231.077.353v-.011z" fill="#F6A53D"/><path d="M11.59 22.451L1.674 18.53c.033-.088.066-.187.11-.275l9.749 3.856.066.341h-.01z" fill="#F6A540"/><path d="M11.523 22.11l-9.75-3.856c.034-.088.078-.188.11-.276l9.574 3.79c.022.11.033.231.055.341h.011z" fill="#F6A540"/><path d="M11.468 21.757l-9.573-3.79c.033-.088.077-.187.11-.275l9.408 3.724c.022.11.033.23.055.341zM11.413 21.416l-9.408-3.724c.033-.088.077-.176.11-.275l9.254 3.657c.01.11.033.22.044.342z" fill="#F9A641"/><path d="M11.369 21.085l-9.254-3.657c.044-.088.077-.188.121-.276l9.1 3.602c.01.11.022.22.044.331h-.011z" fill="#F9A643"/><path d="M11.325 20.744l-9.1-3.603c.044-.088.077-.176.121-.275l8.946 3.536c0 .11.022.22.033.33v.012z" fill="#F9A846"/><path d="M11.292 20.413l-8.946-3.536c.044-.088.078-.176.122-.275l8.79 3.48c0 .11.023.221.023.331h.01z" fill="#F7A947"/><path d="M11.27 20.083l-8.791-3.481c.044-.089.088-.177.12-.276l8.649 3.415c0 .11.01.22.022.33v.012z" fill="#F7A949"/><path d="M11.248 19.752L2.6 16.337l.132-.264 8.505 3.36c0 .11 0 .22.01.32z" fill="#F7A94B"/><path d="M11.226 19.433l-8.505-3.36.132-.265 8.361 3.305c0 .11 0 .22.012.33v-.01z" fill="#F7A94B"/><path d="M11.214 19.102l-8.36-3.305.131-.264 8.23 3.25v.32z" fill="#F7A94D"/><path d="M11.215 18.783l-8.23-3.25.133-.265 8.085 3.195v.32h.012z" fill="#F7AB4D"/><path d="M11.214 18.463L3.13 15.268c.044-.088.088-.176.143-.264l7.954 3.15v.32l-.012-.01z" fill="#FAAC50"/><path d="M11.214 18.155l-7.953-3.15c.044-.089.088-.177.143-.265l7.822 3.095v.32h-.012z" fill="#FAAD50"/><path d="M11.226 17.835L3.404 14.74c.044-.088.1-.177.143-.265l7.7 3.04c0 .111 0 .21-.01.32h-.011z" fill="#FAAD52"/><path d="M11.248 17.516l-7.7-3.04c.043-.089.098-.177.142-.265l7.569 2.996c0 .1-.011.21-.022.309h.01z" fill="#FAAD52"/><path d="M11.259 17.207L3.69 14.211c.044-.088.1-.176.144-.264l7.447 2.941c0 .1-.011.21-.022.308v.011z" fill="#FAAD54"/><path d="M11.28 16.899l-7.446-2.942c.044-.088.099-.176.154-.264l7.326 2.897c0 .1-.022.21-.033.309z" fill="#FAAD54"/><path d="M11.314 16.59l-7.326-2.897c.055-.088.099-.176.154-.264l7.205 2.853-.033.308z" fill="#F7AF56"/><path d="M11.347 16.282l-7.205-2.853c.055-.088.1-.177.154-.254l7.084 2.798-.033.309z" fill="#F7AF56"/><path d="M11.38 15.973l-7.084-2.798c.055-.088.1-.176.155-.253l6.973 2.754c-.011.1-.033.198-.044.297z" fill="#F7AF59"/><path d="M11.424 15.676L4.45 12.922c.055-.088.11-.165.165-.253l6.852 2.71c-.011.099-.033.198-.044.297z" fill="#F7AF5B"/><path d="M11.468 15.379l-6.852-2.71c.055-.088.11-.166.165-.254l6.742 2.666c-.011.1-.033.199-.044.298h-.011zM11.523 15.07l-6.742-2.666c.055-.088.11-.165.165-.253l6.632 2.622c-.022.099-.033.198-.055.297z" fill="#FAB15B"/><path d="M11.578 14.773L4.946 12.15c.055-.088.11-.165.166-.253l6.521 2.577c-.022.1-.044.199-.055.298z" fill="#FBB460"/><path d="M11.633 14.475l-6.521-2.577a3.51 3.51 0 01.176-.254l6.411 2.534-.066.297z" fill="#FBB460"/><path d="M11.7 14.178l-6.412-2.534a3.51 3.51 0 01.176-.253l6.301 2.49-.066.297z" fill="#FBB460"/><path d="M11.765 13.892l-6.301-2.49c.055-.088.121-.165.176-.254l6.191 2.457c-.022.1-.044.198-.066.287z" fill="#FBB461"/><path d="M11.832 13.594L5.64 11.137c.055-.088.122-.165.177-.253l6.092 2.413c-.023.099-.056.198-.078.286v.011z" fill="#FBB464"/><path d="M11.909 13.308l-6.092-2.413a2.02 2.02 0 01.187-.242l5.982 2.368c-.022.1-.055.188-.077.287z" fill="#FBB664"/><path d="M11.975 13.021l-5.982-2.368c.055-.088.121-.166.176-.254l5.883 2.325c-.022.099-.055.187-.077.286v.011z" fill="#FBB664"/><path d="M12.063 12.735L6.18 10.41c.066-.077.121-.165.187-.242l5.784 2.28c-.033.1-.055.188-.088.287z" fill="#F8B766"/><path d="M12.14 12.448l-5.784-2.28c.066-.077.122-.165.188-.242l5.684 2.247c-.033.1-.066.187-.088.286v-.01zM12.24 12.162L6.554 9.914c.066-.077.132-.165.198-.242l5.574 2.203c-.033.1-.055.188-.088.287z" fill="#FBB868"/><path d="M12.327 11.876L6.753 9.671c.066-.077.132-.165.198-.242l5.475 2.17c-.033.088-.066.187-.099.276z" fill="#FBB86B"/><path d="M12.415 11.6L6.94 9.43c.066-.077.132-.165.199-.242l5.375 2.126c-.033.099-.066.187-.099.275v.011z" fill="#FBB86C"/><path d="M12.514 11.314L7.14 9.188c.066-.077.132-.155.198-.243l5.277 2.093c-.033.088-.067.188-.1.276z" fill="#FBBA6D"/><path d="M12.625 11.038L7.348 8.945c.066-.077.132-.154.198-.242l5.178 2.049c-.033.088-.066.187-.11.275l.01.011z" fill="#FCBC6D"/><path d="M12.724 10.752l-5.178-2.05c.066-.076.143-.153.21-.23l5.078 2.005c-.033.088-.077.187-.11.275z" fill="#FCBC6F"/><path d="M12.834 10.476L7.755 8.471c.067-.077.144-.154.21-.23l4.98 1.971c-.045.088-.078.187-.111.275v-.01z" fill="#FCBC6F"/><path d="M12.944 10.201L7.964 8.23c.067-.077.144-.154.21-.231l4.88 1.928c-.044.088-.077.187-.11.275z" fill="#FBBC71"/><path d="M13.065 9.937l-4.88-1.928c.066-.077.143-.154.22-.232l4.793 1.895c-.045.088-.078.177-.122.276l-.01-.011z" fill="#FBBC73"/><path d="M13.186 9.661L8.394 7.766c.077-.077.144-.154.22-.231l4.694 1.85c-.044.089-.078.177-.122.276z" fill="#FBBC74"/><path d="M13.308 9.386l-4.693-1.85c.077-.078.154-.155.22-.232l4.594 1.818-.132.264h.01z" fill="#FCBE77"/><path d="M13.429 9.121L8.835 7.304c.077-.077.154-.155.22-.232l4.495 1.774-.132.264.01.011z" fill="#FCC077"/><path d="M13.561 8.846L9.066 7.072l.232-.23 4.395 1.74-.132.264z" fill="#FCC079"/><path d="M13.693 8.582l-4.395-1.74.231-.232 4.307 1.696-.132.265-.01.01z" fill="#FCC07B"/><path d="M13.825 8.317L9.518 6.621l.231-.232 4.209 1.664-.133.264zM13.969 8.053L9.76 6.389c.077-.077.166-.154.243-.22l4.109 1.62c-.044.088-.1.176-.143.264z" fill="#FCC07B"/><path d="M14.112 7.788l-4.11-1.619c.078-.077.166-.154.243-.22l4.01 1.586c-.044.088-.1.176-.143.264v-.01z" fill="#FCC07D"/><path d="M14.255 7.524l-4.01-1.586c.077-.077.165-.144.254-.22l3.91 1.542c-.055.088-.099.176-.154.264z" fill="#FCC37F"/><path d="M14.398 7.27l-3.91-1.542.253-.22 3.812 1.51c-.056.087-.1.176-.155.264V7.27zM14.553 7.006L10.74 5.497c.088-.077.176-.143.253-.22l3.713 1.465c-.055.088-.1.176-.155.253v.011z" fill="#FCC480"/><path d="M14.707 6.753l-3.713-1.465c.088-.077.177-.144.254-.22L14.86 6.5c-.055.088-.11.176-.154.253z" fill="#FCC481"/><path d="M14.872 6.489l-3.613-1.433c.088-.077.176-.143.264-.209l3.503 1.388c-.055.088-.11.165-.154.254z" fill="#FCC483"/><path d="M15.026 6.235l-3.503-1.388c.088-.077.176-.143.264-.21l3.404 1.345c-.055.088-.11.165-.165.253z" fill="#FCC784"/><path d="M15.191 5.982l-3.404-1.344c.088-.066.177-.143.276-.21l3.294 1.3c-.055.089-.11.166-.166.254z" fill="#FCC784"/><path d="M15.357 5.728l-3.294-1.3.275-.209 3.195 1.267c-.055.088-.11.165-.165.253l-.011-.01z" fill="#FCC785"/><path d="M15.533 5.475l-3.195-1.267.276-.21 3.084 1.224c-.055.088-.121.165-.176.253h.01zM15.71 5.222l-3.085-1.223c.099-.066.187-.132.286-.21l2.974 1.18c-.055.087-.12.165-.176.253z" fill="#FCC787"/><path d="M15.886 4.98L12.91 3.8c.1-.065.187-.143.287-.209l2.864 1.135a2.065 2.065 0 00-.177.253z" fill="#FDC98A"/><path d="M16.062 4.726L13.197 3.59l.298-.198 2.754 1.09c-.066.078-.121.166-.187.243z" fill="#FDC98C"/><path d="M16.249 4.484l-2.754-1.091.297-.198 2.644 1.046c-.066.077-.121.165-.187.243z" fill="#FDC98C"/><path d="M16.425 4.23l-2.644-1.046c.1-.066.21-.132.309-.199l2.523 1.003a3.596 3.596 0 00-.188.242z" fill="#FDCB8C"/><path d="M16.624 3.988L14.1 2.986c.099-.067.21-.133.308-.199l2.402.948c-.066.077-.121.165-.187.242v.011z" fill="#FDCB8E"/><path d="M16.81 3.746l-2.4-.948c.11-.066.208-.132.319-.198l2.28.903c-.066.077-.132.165-.198.243z" fill="#FDCB8F"/><path d="M17.01 3.503L14.728 2.6c.11-.066.209-.132.32-.187l2.158.859c-.066.077-.132.165-.198.242v-.01z" fill="#FDCB8F"/><path d="M17.207 3.26l-2.159-.858c.11-.067.22-.133.33-.188l2.028.804a4.683 4.683 0 00-.199.243z" fill="#FDCD90"/><path d="M17.406 3.019l-2.027-.805c.11-.066.22-.12.33-.187l1.906.75-.21.242z" fill="#FDCD94"/><path d="M17.615 2.787l-1.906-.749c.11-.066.232-.121.342-.187l1.762.694-.209.242h.011z" fill="#FDCD94"/><path d="M17.813 2.545l-1.762-.694c.11-.066.231-.121.352-.188l1.63.65c-.066.078-.143.155-.209.232h-.01z" fill="#FDCF96"/><path d="M18.023 2.314l-1.63-.65a5.24 5.24 0 01.352-.177l1.487.584c-.066.077-.143.154-.21.232v.01z" fill="#FDCF96"/><path d="M18.243 2.071l-1.487-.584c.12-.055.242-.12.363-.176l1.344.529c-.077.077-.143.154-.22.231z" fill="#FDCF98"/><path d="M18.452 1.84l-1.344-.53c.121-.054.243-.11.375-.175l1.19.473c-.078.077-.155.155-.22.232z" fill="#FDCF9A"/><path d="M18.672 1.608l-1.19-.473c.122-.055.254-.11.375-.166l1.036.408c-.077.077-.143.154-.22.231z" fill="#FDCF9A"/><path d="M18.893 1.377L17.857.969c.133-.055.265-.11.386-.165l.87.342-.231.231h.01z" fill="#FDCF9A"/><path d="M19.124 1.146l-.87-.342.396-.165.706.275-.232.232z" fill="#FDD19D"/><path d="M19.356.914L18.65.64c.53-.21 1.058-.408 1.609-.595-.309.286-.606.573-.903.87z" fill="#FDD39F"/><path d="M38.48 31.264l-1.598-4.351v-.022a22.446 22.446 0 011.598 4.373z" fill="#F19020"/><path d="M36.882 26.913l1.598 4.351c.132.507.231 1.003.297 1.465-.022.044-.044.088-.055.121l-2.027-5.519c.066-.132.132-.275.198-.418h-.01z" fill="#F19020"/><path d="M36.684 27.331l2.027 5.52a3.465 3.465 0 01-.198.407l-2.027-5.53.198-.397z" fill="#F19120"/><path d="M36.486 27.728l2.027 5.53a6.153 6.153 0 01-.21.363l-2.026-5.508c.066-.12.143-.253.209-.385zm-2.214-5.09l-.507-1.399c.198.287.385.573.562.87-.011.177-.033.353-.044.53h-.011z" fill="#F19020"/><path d="M33.765 21.25l.507 1.4c-.023.242-.055.473-.089.716l-1.123-3.063c.242.308.473.628.694.947h.01zm2.523 6.863l2.027 5.509c-.067.11-.144.22-.22.341l-2.017-5.475c.077-.121.143-.242.21-.363v-.012z" fill="#F19120"/><path d="M33.07 20.292l1.124 3.063-.099.66-1.652-4.494c.21.242.419.496.628.76v.011zm3.008 8.185l2.016 5.475c-.077.11-.154.21-.231.309l-1.994-5.442c.077-.122.143-.232.22-.353l-.01.011z" fill="#F19120"/><path d="M32.443 19.532l1.652 4.494c-.033.21-.077.419-.12.617l-2.116-5.75c.187.198.386.418.584.639zm3.415 9.297l1.994 5.443a5.71 5.71 0 01-.242.297l-1.983-5.398c.077-.11.154-.22.22-.33l.01-.012z" fill="#F4941E"/><path d="M31.859 18.904l2.115 5.75-.132.584-2.523-6.863c.177.165.364.342.54.54v-.011zm3.768 10.267l1.982 5.398c-.077.1-.165.187-.242.275l-1.96-5.354c.076-.11.154-.209.23-.319h-.01z" fill="#F4941E"/><path d="M31.32 18.364l2.522 6.863c-.044.188-.1.364-.143.551l-2.887-7.854c.166.132.33.286.507.44zm4.086 11.127l1.961 5.353a5.579 5.579 0 01-.253.265l-1.95-5.299c.077-.1.154-.198.231-.308l.011-.011z" fill="#F4941E"/><path d="M30.813 17.923l2.886 7.855c-.044.176-.1.341-.154.518l-3.13-8.538v-.143c.133.088.276.198.42.308h-.023zM35.175 29.8l1.95 5.299a5.154 5.154 0 01-.254.242l-1.927-5.255c.077-.099.165-.198.242-.297l-.011.011zM30.405 17.758l3.128 8.538c-.055.165-.11.33-.165.485l-2.974-8.086a13.29 13.29 0 000-.937h.01zm4.528 12.338l1.927 5.255-.264.232-1.917-5.211c.077-.088.165-.188.242-.287l.012.011z" fill="#F4961E"/><path d="M30.394 18.695l2.974 8.085c-.055.155-.11.309-.176.463l-2.853-7.766c.033-.265.044-.518.055-.782zm4.285 11.688l1.917 5.21c-.088.078-.176.144-.264.22l-1.895-5.155c.088-.088.165-.176.242-.264v-.011z" fill="#F5971E"/><path d="M30.339 19.466l2.853 7.766a7.549 7.549 0 01-.187.44L30.24 20.15l.099-.683zm4.098 11.181l1.895 5.156c-.089.066-.177.143-.265.21L34.183 30.9l.254-.254z" fill="#F5971E"/><path d="M30.24 20.149l2.765 7.524c-.066.143-.122.275-.199.418l-2.688-7.325c.045-.21.088-.408.122-.617zM34.183 30.9l1.884 5.111a5.971 5.971 0 01-.275.198l-1.862-5.067c.088-.077.176-.165.253-.242z" fill="#F5971E"/><path d="M30.118 20.766l2.688 7.325-.198.397-2.622-7.16c.055-.188.1-.375.143-.562h-.01zm3.812 10.377l1.862 5.067c-.088.066-.177.133-.276.199l-1.85-5.035.264-.231z" fill="#F5971E"/><path d="M29.986 21.338l2.622 7.161a4.101 4.101 0 01-.21.375l-2.577-7.007c.055-.176.11-.352.154-.529h.011zm3.69 10.047l1.851 5.035c-.088.066-.187.12-.275.187l-1.84-4.99c.088-.078.177-.144.265-.22v-.012z" fill="#F59722"/><path d="M29.832 21.867l2.578 7.006c-.066.122-.143.243-.21.364l-2.522-6.874.165-.496h-.011zm3.58 9.739l1.84 4.99c-.088.055-.187.121-.286.176l-1.818-4.957c.088-.066.176-.143.264-.21zM29.667 22.363l2.523 6.874a3.636 3.636 0 01-.22.342l-2.48-6.753c.067-.155.122-.309.177-.463zm3.47 9.463l1.818 4.957c-.1.055-.188.11-.287.176l-1.806-4.924c.088-.066.187-.132.275-.198v-.011z" fill="#F89A22"/><path d="M29.49 22.826l2.48 6.753c-.078.11-.144.22-.221.33l-2.435-6.643c.066-.143.121-.297.188-.44h-.011zm3.372 9.198l1.806 4.925c-.099.055-.187.11-.286.165l-1.796-4.902c.088-.067.187-.133.276-.199v.011z" fill="#F59B26"/><path d="M29.314 23.266l2.435 6.643c-.077.11-.154.21-.232.32l-2.401-6.533c.066-.143.132-.286.187-.419l.011-.01zm3.283 8.946l1.796 4.902c-.1.055-.188.099-.287.154l-1.784-4.87c.099-.054.187-.12.275-.186z" fill="#F89C27"/><path d="M29.116 23.696l2.401 6.533c-.077.099-.154.209-.23.308l-2.37-6.444c.067-.133.133-.265.199-.408v.011zm3.195 8.703l1.784 4.869c-.099.055-.187.1-.286.154l-1.774-4.847c.1-.055.188-.121.276-.176z" fill="#F59B28"/><path d="M28.918 24.104l2.368 6.444c-.077.1-.154.198-.242.298L28.708 24.5c.066-.132.133-.253.21-.385v-.011zm3.117 8.482l1.774 4.847c-.1.044-.198.1-.298.144l-1.773-4.826c.099-.055.187-.11.286-.165h.011z" fill="#F59D2A"/><path d="M28.72 24.489l2.335 6.345a5.63 5.63 0 01-.242.287l-2.303-6.257c.077-.122.143-.254.21-.375zm3.029 8.262l1.774 4.825c-.1.044-.199.088-.298.143l-1.763-4.803c.1-.055.188-.11.287-.165z" fill="#F59D2C"/><path d="M28.51 24.864l2.302 6.257-.242.275-2.27-6.18c.078-.121.144-.242.21-.364v.012zm2.952 8.052l1.763 4.803-.297.133-1.752-4.781c.1-.055.198-.1.286-.155z" fill="#F59D2C"/><path d="M28.29 25.216l2.27 6.18c-.078.089-.166.177-.254.265l-2.237-6.092c.078-.11.144-.232.22-.353zm2.875 7.844l1.752 4.78c-.1.045-.199.09-.298.133l-1.752-4.77c.1-.044.199-.1.298-.143z" fill="#F59D32"/><path d="M28.07 25.569l2.236 6.092c-.088.088-.166.176-.254.253L27.85 25.9c.077-.11.154-.22.22-.33zm2.808 7.645l1.752 4.77c-.099.044-.198.088-.297.121l-1.74-4.748c.098-.044.197-.088.297-.143h-.012z" fill="#F69F32"/><path d="M27.85 25.9l2.202 6.014c-.088.077-.165.165-.253.242l-2.181-5.937c.077-.11.154-.21.231-.32zm2.731 7.446l1.74 4.748c-.099.044-.198.077-.308.121l-1.74-4.737.297-.132h.011z" fill="#F89F33"/><path d="M27.618 26.219l2.181 5.937a5.243 5.243 0 00-.264.243l-2.149-5.86c.078-.1.155-.21.232-.31v-.01zm2.666 7.26l1.74 4.736c-.099.044-.198.077-.308.121l-1.74-4.725c.098-.044.198-.089.297-.122l.01-.01z" fill="#F8A036"/><path d="M27.386 26.538l2.149 5.86-.265.232-2.126-5.795.231-.297h.011zm2.6 7.073l1.74 4.726c-.098.032-.197.077-.308.11l-1.73-4.715c.1-.044.2-.077.298-.121z" fill="#F9A236"/><path d="M27.155 26.836l2.126 5.794c-.088.077-.176.143-.264.22l-2.104-5.717c.077-.099.165-.198.242-.297zm2.534 6.896l1.73 4.715c-.1.033-.21.066-.31.11l-1.729-4.704c.1-.033.199-.077.309-.11v-.011z" fill="#F9A238"/><path d="M26.913 27.133l2.104 5.717c-.088.078-.176.144-.265.22l-2.082-5.65c.077-.089.166-.188.243-.287zm2.467 6.709l1.73 4.704c-.1.033-.21.066-.309.099l-1.73-4.704c.1-.033.21-.077.31-.11v.011z" fill="#F6A138"/><path d="M26.67 27.42l2.082 5.65c-.088.067-.176.144-.264.21l-2.049-5.596c.088-.088.165-.188.242-.276l-.01.011zm2.402 6.543l1.73 4.704c-.1.033-.21.066-.309.1l-1.718-4.694c.099-.033.209-.066.308-.11h-.011z" fill="#F6A13B"/><path d="M26.428 27.695l2.049 5.596c-.088.066-.176.132-.275.21l-2.027-5.53c.088-.089.165-.177.253-.265v-.011zm2.335 6.367l1.719 4.693c-.1.033-.21.066-.308.1l-1.719-4.682c.1-.034.21-.067.308-.1v-.01z" fill="#F6A33D"/><path d="M26.186 27.96l2.027 5.53c-.088.066-.188.132-.276.198l-2.005-5.464c.088-.088.166-.177.254-.265zm2.28 6.201l1.718 4.682c-.099.033-.209.055-.319.088l-1.718-4.681.308-.1.011.011z" fill="#F6A53D"/><path d="M25.932 28.224l2.005 5.464a4.066 4.066 0 01-.275.187l-1.983-5.409c.088-.088.176-.165.253-.253v.01zm2.215 6.037l1.718 4.681c-.1.033-.21.056-.32.089l-1.718-4.671c.1-.033.21-.055.308-.088l.011-.011z" fill="#F6A540"/><path d="M25.679 28.466l1.983 5.409c-.088.066-.187.121-.276.187l-1.96-5.354c.088-.077.176-.165.253-.242zm2.16 5.883l1.718 4.67c-.1.034-.21.056-.32.078l-1.707-4.66c.11-.033.209-.055.32-.088h-.012z" fill="#F6A540"/><path d="M25.415 28.72l1.96 5.353c-.088.066-.187.121-.275.176l-1.939-5.287c.088-.077.176-.154.264-.243h-.01zm2.104 5.728l1.707 4.66c-.11.022-.21.055-.32.077l-1.707-4.66c.11-.033.21-.055.32-.088v.01z" fill="#F9A641"/><path d="M25.161 28.95L27.1 34.24c-.088.055-.187.12-.286.176l-1.928-5.244.264-.231.011.01zm2.05 5.575l1.707 4.66c-.11.022-.21.055-.32.077l-1.707-4.649c.099-.022.209-.055.32-.088z" fill="#F9A641"/><path d="M24.897 29.182l1.928 5.244c-.089.055-.188.11-.287.176l-1.906-5.189c.088-.077.177-.154.265-.22v-.011zm1.994 5.43l1.707 4.65-.32.066-1.707-4.638c.11-.022.21-.055.32-.077z" fill="#F9A643"/><path d="M24.632 29.402l1.906 5.189c-.099.055-.187.11-.286.165l-1.884-5.133c.088-.077.176-.143.264-.22zm1.94 5.277c-.111.022-.21.055-.32.077l1.696 4.627c.11-.022.22-.044.32-.066l-1.708-4.638h.011z" fill="#F9A846"/><path d="M24.368 29.623l1.884 5.133 1.696 4.627-.32.066-3.535-9.628c.088-.066.176-.143.264-.21l.01.012z" fill="#F7A947"/><path d="M24.104 29.832l3.536 9.628c-.11.022-.22.044-.32.055l-3.48-9.474c.087-.066.175-.143.275-.21h-.011z" fill="#F7A949"/><path d="M23.828 30.041l3.481 9.474c-.11.022-.22.044-.33.055l-3.426-9.33c.088-.066.187-.132.275-.199z" fill="#F7A94B"/><path d="M23.553 30.24l3.426 9.33c-.11.022-.22.033-.33.056l-3.372-9.188c.088-.066.188-.132.276-.198z" fill="#F7A94B"/><path d="M23.277 30.438l3.371 9.187a3.37 3.37 0 01-.33.044l-3.327-9.055c.1-.066.187-.121.275-.187l.011.01z" fill="#F7A94D"/><path d="M23.002 30.625l3.327 9.056c-.11.01-.22.033-.33.044L22.726 30.8c.099-.055.187-.12.275-.176z" fill="#F7AB4D"/><path d="M22.727 30.801l3.271 8.923c-.11.011-.22.034-.33.045l-3.228-8.78c.1-.056.187-.122.275-.177l.012-.01z" fill="#FAAC50"/><path d="M22.44 30.978l3.228 8.78-.33.033-3.173-8.648c.099-.055.187-.11.286-.165h-.01z" fill="#FAAD50"/><path d="M22.154 31.154l3.172 8.648-.33.033-3.129-8.527c.1-.055.188-.11.287-.165v.011zM21.867 31.32l3.129 8.526c-.11 0-.22.022-.33.033l-3.085-8.394c.099-.056.187-.11.286-.166z" fill="#FAAD52"/><path d="M21.58 31.473l3.085 8.395c-.11 0-.22.022-.33.022l-3.03-8.262c.1-.055.199-.1.287-.155h-.011zM21.294 31.628l3.03 8.262c-.11 0-.22.022-.342.022l-2.985-8.141c.1-.044.198-.1.286-.154l.011.01z" fill="#FAAD54"/><path d="M21.008 31.782l2.985 8.14c-.11 0-.22.012-.341.023l-2.941-8.02c.099-.044.198-.1.297-.143z" fill="#F7AF56"/><path d="M20.71 31.925l2.942 8.02c-.11 0-.232.01-.342.022l-2.897-7.888c.1-.044.198-.099.297-.143v-.011z" fill="#F7AF56"/><path d="M20.413 32.068l2.897 7.888c-.11 0-.231 0-.341.011l-2.853-7.766.297-.133z" fill="#F7AF59"/><path d="M20.116 32.2l2.853 7.767h-.342l-2.809-7.656.298-.133v.023z" fill="#F7AF5B"/><path d="M19.818 32.333l2.81 7.656h-.342l-2.765-7.535c.099-.044.198-.077.297-.121z" fill="#FAB15B"/><path d="M19.52 32.454l2.766 7.535h-.342l-2.72-7.414c.099-.044.198-.077.297-.121z" fill="#FAB15B"/><path d="M19.212 32.575l2.721 7.414h-.352l-2.677-7.304c.099-.033.21-.077.308-.11z" fill="#FBB460"/><path d="M18.915 32.696L21.592 40h-.353l-2.633-7.182c.1-.034.21-.078.309-.11v-.012z" fill="#FBB460"/><path d="M18.607 32.806l2.632 7.183h-.352l-2.6-7.073c.1-.033.21-.066.308-.11h.012z" fill="#FBB460"/><path d="M18.298 32.906l2.6 7.072h-.353l-2.555-6.962c.099-.033.209-.066.308-.1v-.01z" fill="#FBB461"/><path d="M17.99 33.005l2.555 6.962c-.12 0-.231 0-.352-.011l-2.512-6.841c.1-.033.21-.066.308-.1v-.01z" fill="#FBB464"/><path d="M17.681 33.104l2.512 6.841c-.121 0-.232-.011-.353-.022l-2.467-6.731c.099-.033.209-.055.308-.088zM17.373 33.203l2.467 6.73c-.12 0-.242-.01-.352-.021l-2.435-6.621c.11-.033.21-.055.32-.088z" fill="#FBB664"/><path d="M17.053 33.291l2.435 6.62c-.121 0-.232-.021-.353-.032l-2.39-6.51c.11-.023.209-.056.32-.078h-.012z" fill="#F8B766"/><path d="M16.734 33.368l2.39 6.51c-.121 0-.242-.021-.363-.032l-2.347-6.4c.11-.023.21-.056.32-.078z" fill="#FBB868"/><path d="M16.414 33.445l2.347 6.4c-.121 0-.243-.021-.364-.032l-2.313-6.29c.11-.023.209-.045.32-.067l.01-.01z" fill="#FBB868"/><path d="M16.095 33.522l2.313 6.29a4.097 4.097 0 01-.363-.043l-2.27-6.18c.11-.023.21-.045.32-.078v.011z" fill="#FBB86B"/><path d="M15.775 33.589l2.27 6.18c-.122-.011-.243-.033-.364-.044l-2.236-6.081c.11-.022.22-.044.32-.066l.01.01z" fill="#FBB86C"/><path d="M15.456 33.655l2.236 6.08c-.121-.01-.242-.032-.363-.043l-2.193-5.96c.11-.022.22-.044.32-.066v-.011z" fill="#FBBA6D"/><path d="M15.136 33.72l2.192 5.96c-.12-.01-.242-.032-.363-.054l-2.148-5.861c.11-.022.22-.033.33-.055l-.01.01z" fill="#FCBC6D"/><path d="M14.806 33.776l2.148 5.86c-.121-.022-.242-.033-.364-.055l-2.115-5.75c.11-.011.22-.033.33-.055z" fill="#FCBC6F"/><path d="M14.475 33.82l2.115 5.75-.363-.066-2.071-5.64c.11-.011.22-.033.33-.044h-.01z" fill="#FCBC6F"/><path d="M14.145 33.864l2.07 5.64a26.318 26.318 0 00-.374-.066l-2.027-5.53c.11-.01.22-.033.33-.044z" fill="#FBBC71"/><path d="M13.814 33.908l2.027 5.53-.374-.066-1.994-5.42.33-.033.011-.011z" fill="#FBBC73"/><path d="M13.484 33.952l1.994 5.42c-.121-.022-.254-.055-.375-.077l-1.95-5.31c.11 0 .22-.022.33-.033z" fill="#FBBC74"/><path d="M13.153 33.985l1.95 5.31c-.12-.022-.253-.055-.374-.077l-1.917-5.21c.11 0 .231-.023.341-.023z" fill="#FCBE77"/><path d="M12.812 34.007l1.917 5.21c-.121-.032-.254-.054-.375-.087l-1.873-5.09c.11 0 .232-.022.342-.022l-.011-.01z" fill="#FCC077"/><path d="M12.481 34.04l1.873 5.09c-.121-.033-.253-.055-.374-.088l-1.83-4.98c.111 0 .221-.01.342-.022h-.01z" fill="#FCC079"/><path d="M12.14 34.051l1.829 4.98c-.133-.033-.254-.066-.386-.1l-1.785-4.869c.11 0 .232 0 .342-.01zM11.798 34.073l1.785 4.87c-.132-.034-.253-.067-.386-.1l-1.751-4.759h.341l.011-.01z" fill="#FCC07B"/><path d="M11.457 34.084l1.752 4.76c-.133-.034-.265-.078-.386-.11l-1.708-4.639h.342v-.01z" fill="#FCC07B"/><path d="M11.115 34.084l1.708 4.638c-.132-.033-.254-.077-.386-.11l-1.663-4.528h.341z" fill="#FCC07D"/><path d="M10.763 34.084l1.663 4.528c-.132-.044-.264-.077-.396-.121l-1.62-4.407h.353z" fill="#FCC37F"/><path d="M10.421 34.084l1.62 4.407c-.132-.044-.265-.088-.397-.121l-1.575-4.286h.352z" fill="#FCC480"/><path d="M10.069 34.073l1.575 4.285-.396-.132-1.532-4.164c.121 0 .232 0 .353.011z" fill="#FCC480"/><path d="M9.716 34.062l1.532 4.165c-.133-.045-.265-.089-.397-.144L9.364 34.04c.12 0 .231.011.352.011v.011z" fill="#FCC481"/><path d="M9.364 34.051l1.487 4.043c-.132-.044-.264-.099-.397-.143l-1.432-3.91c.122 0 .232.01.353.021l-.011-.01z" fill="#FCC483"/><path d="M9.011 34.03l1.432 3.91c-.132-.055-.264-.1-.407-.154l-1.388-3.779c.12 0 .231.022.352.022h.011z" fill="#FCC784"/><path d="M8.659 34.007l1.388 3.779c-.132-.055-.276-.11-.408-.166l-1.344-3.646c.121 0 .243.022.364.033z" fill="#FCC784"/><path d="M8.295 33.974l1.344 3.647c-.132-.056-.275-.122-.407-.177l-1.29-3.514.364.033-.01.011z" fill="#FCC785"/><path d="M7.943 33.941l1.289 3.514c-.133-.055-.276-.121-.408-.176L7.59 33.908c.121.011.243.033.364.044l-.011-.011zM7.58 33.897l1.233 3.371c-.143-.066-.275-.132-.419-.187l-1.178-3.217c.12.011.242.033.363.044v-.01z" fill="#FCC787"/><path d="M7.216 33.853l1.178 3.217c-.143-.066-.275-.133-.418-.199l-1.124-3.073c.121.01.242.033.364.055z" fill="#FDC98A"/><path d="M6.852 33.809l1.124 3.073c-.143-.066-.287-.143-.419-.209l-1.068-2.92c.12.023.242.034.363.056zM6.489 33.754l1.068 2.92c-.143-.078-.286-.144-.43-.221l-1.013-2.754c.121.022.242.044.364.055h.01z" fill="#FDC98C"/><path d="M6.114 33.688l1.014 2.754-.43-.232-.948-2.588.364.066z" fill="#FDCB8C"/><path d="M5.75 33.633l.948 2.588c-.143-.077-.287-.165-.44-.242l-.882-2.413.374.066z" fill="#FDCB8E"/><path d="M5.376 33.556l.881 2.412c-.143-.088-.297-.176-.44-.264L5 33.478l.375.066v.012zM5.001 33.49l.816 2.225c-.144-.089-.298-.177-.441-.276l-.75-2.027c.122.022.254.055.375.077z" fill="#FDCB8F"/><path d="M4.627 33.412l.749 2.027c-.154-.099-.298-.187-.452-.286l-.672-1.818c.121.033.254.055.375.088v-.01z" fill="#FDCD90"/><path d="M4.252 33.324l.672 1.818c-.154-.1-.308-.199-.462-.309l-.595-1.608c.132.033.253.055.374.088l.011.011z" fill="#FDCD94"/><path d="M3.878 33.236l.595 1.608c-.155-.11-.309-.209-.463-.319l-.507-1.377c.132.033.254.066.375.1v-.012z" fill="#FDCD94"/><path d="M3.492 33.148L4 34.525c-.154-.11-.32-.22-.474-.342l-.418-1.134.385.099zM3.107 33.049l.418 1.135c-.165-.122-.32-.243-.485-.364l-.319-.87c.132.033.253.066.386.099z" fill="#FDCF96"/><path d="M2.721 32.938l.32.87c-.166-.131-.331-.253-.485-.385l-.22-.584c.132.033.253.067.385.11v-.01z" fill="#FDCF98"/><path d="M2.335 32.84l.22.583c-.164-.132-.33-.275-.495-.418l-.11-.287c.132.044.264.077.385.11v.011z" fill="#FDCF9A"/><path d="M1.95 32.718l.11.287c-.154-.133-.297-.254-.44-.386.11.033.23.066.34.1h-.01z" fill="#FDCF9A"/><path d="M20.424.033L18.981 1.18C19.4.77 19.829.386 20.259.044c.055 0 .11 0 .165-.01z" fill="#EF8721"/><path d="M18.97 1.179L20.424.033c.165-.022.33-.022.496-.033l-3.195 2.534a21.37 21.37 0 011.245-1.355z" fill="#EF8721"/><path d="M17.725 2.534L20.92 0h.452l-4.418 3.503c.253-.341.507-.66.771-.98v.01z" fill="#EF8721"/><path d="M16.965 3.514L21.372 0c.143 0 .275.022.418.033l-5.42 4.296c.198-.286.386-.561.595-.826v.011zM16.37 4.34L21.801.044a4.9 4.9 0 01.397.055L16.91 4.296c-.176.011-.353.033-.529.055l-.01-.01z" fill="#F08921"/><path d="M16.91 4.285L22.187.1l.374.066-5.155 4.087c-.166 0-.33.022-.507.033h.01z" fill="#F08A21"/><path d="M17.406 4.252L22.56.165c.122.022.243.055.364.088L17.89 4.241c-.154 0-.32 0-.484.011z" fill="#F08A21"/><path d="M17.89 4.241L22.925.253c.11.033.231.055.341.1l-4.913 3.9h-.463V4.24z" fill="#F08C21"/><path d="M18.353 4.241l4.913-3.9.33.1-4.802 3.811c-.143 0-.298-.01-.44-.022v.011z" fill="#F08C21"/><path d="M18.794 4.252l4.803-3.8c.11.033.21.077.32.11l-4.705 3.723-.43-.033h.012z" fill="#F08C21"/><path d="M19.223 4.285L23.927.562c.1.033.21.077.309.121L19.63 4.33c-.132-.022-.275-.033-.408-.044zM13.495 9.2l-.198.154.033-.077s.11-.055.165-.077z" fill="#F08E20"/><path d="M13.286 9.364l.198-.154c.352-.166.694-.32 1.046-.463l-1.498 1.19c.077-.188.165-.375.254-.573zM19.62 4.34L24.225.694c.099.044.198.077.308.121l-4.517 3.58c-.132-.022-.253-.044-.385-.055h-.011z" fill="#F08C21"/><path d="M13.032 9.926l1.498-1.19c.298-.121.595-.231.893-.342l-2.633 2.094c.077-.188.154-.375.242-.562zm6.985-5.542l4.516-3.58.298.132-4.44 3.515c-.121-.022-.253-.044-.374-.067z" fill="#F08E20"/><path d="M12.79 10.488l2.633-2.094c.264-.088.518-.176.782-.253l-3.646 2.886c.077-.176.143-.363.23-.55v.01zM20.39 4.45l4.44-3.515c.099.044.187.089.286.144l-4.351 3.459a4.267 4.267 0 00-.364-.077l-.01-.011z" fill="#F08E20"/><path d="M12.559 11.038l3.646-2.886c.231-.066.474-.132.705-.198l-4.56 3.613c.065-.176.131-.353.209-.529zm8.196-6.5l4.351-3.458c.1.044.187.088.286.143l-4.285 3.404a3.298 3.298 0 00-.352-.088z" fill="#F19020"/><path d="M12.35 11.567l4.56-3.613c.21-.055.43-.1.65-.143l-5.398 4.285a15.3 15.3 0 01.187-.518v-.01zm8.757-6.951l4.285-3.404c.089.044.188.099.276.154l-4.22 3.349c-.11-.033-.22-.066-.34-.1z" fill="#F19020"/><path d="M12.162 12.085L17.56 7.8c.198-.044.396-.078.595-.11l-6.17 4.89.166-.495h.01zm9.287-7.37l4.219-3.349c.088.044.176.1.275.154L21.78 4.825c-.11-.033-.22-.077-.33-.11z" fill="#F19020"/><path d="M11.997 12.58l6.169-4.89c.187-.034.374-.056.562-.078l-6.875 5.453c.045-.154.089-.32.144-.484zm9.782-7.755l4.164-3.305c.088.055.176.1.265.154l-4.11 3.261c-.099-.044-.209-.077-.319-.11z" fill="#F19120"/><path d="M11.854 13.065l6.874-5.453c.176-.022.352-.033.528-.055l-7.513 5.96c.033-.154.077-.308.121-.463l-.01.011zm10.245-8.13l4.109-3.26.264.165-4.065 3.227c-.1-.044-.21-.088-.308-.12v-.012z" fill="#F19020"/><path d="M11.732 13.528l7.513-5.96c.166-.01.33-.022.496-.033l-8.108 6.434c.022-.144.055-.287.088-.441h.011zm10.675-8.46l4.065-3.228c.088.055.176.11.253.165L22.705 5.2l-.298-.133z" fill="#F19120"/><path d="M11.644 13.969l8.108-6.434c.154 0 .32 0 .474-.011l-8.648 6.863c.022-.132.044-.275.066-.418zm11.06-8.78l4.021-3.195c.088.055.166.11.254.165l-3.977 3.162c-.1-.044-.187-.088-.287-.132h-.01z" fill="#F19120"/><path d="M11.578 14.387l8.648-6.863h.451l-8.218 6.522c-.308.165-.617.33-.903.529 0-.067.011-.122.022-.188zm11.424-9.055l3.977-3.162c.088.055.165.11.253.165l-3.944 3.129c-.088-.044-.187-.1-.286-.143v.01zM12.46 14.057l8.217-6.522c.144 0 .287 0 .441.022l-7.58 6.015c-.374.143-.726.308-1.079.485zm10.817-8.582l3.944-3.129c.077.056.165.122.242.177l-3.91 3.106c-.088-.055-.188-.099-.276-.154z" fill="#F4941E"/><path d="M13.539 13.561l7.58-6.015c.142 0 .275.022.418.033l-7.172 5.696c-.275.088-.55.187-.826.286zm10.014-7.943l3.91-3.106c.078.055.166.12.243.176l-3.889 3.085c-.088-.056-.176-.1-.264-.155z" fill="#F4941E"/><path d="M14.365 13.274l7.172-5.695c.132.011.275.022.407.044l-6.874 5.453c-.242.055-.473.121-.705.188v.01zm9.452-7.502l3.889-3.084c.077.055.154.121.231.176l-3.856 3.063-.264-.166v.011zM15.07 13.076l6.874-5.453c.133.022.265.033.397.055l-6.632 5.255c-.22.044-.43.088-.639.143zm9.011-7.138l3.856-3.063c.077.055.154.121.232.188l-3.834 3.04c-.088-.055-.165-.11-.254-.165z" fill="#F4961E"/><path d="M15.71 12.944l6.63-5.255.387.066-6.434 5.1c-.198.034-.385.056-.584.1v-.01zm8.625-6.841l3.834-3.04c.077.066.154.12.23.187l-3.822 3.03c-.077-.056-.165-.11-.242-.166v-.011z" fill="#F5971E"/><path d="M16.293 12.845l6.434-5.1c.12.021.242.043.374.077l-6.257 4.957-.551.066zm8.284-6.577l3.823-3.03c.077.067.154.122.231.188l-3.8 3.018c-.078-.055-.166-.12-.243-.176h-.01z" fill="#F5971E"/><path d="M16.844 12.779L23.1 7.822c.121.022.242.055.364.077l-6.092 4.836a8.209 8.209 0 00-.518.044h-.011zm7.976-6.335l3.8-3.018.22.187-3.789 3.008a3.196 3.196 0 00-.231-.177z" fill="#F5971E"/><path d="M17.362 12.735l6.092-4.836c.12.022.23.055.352.088l-5.96 4.726c-.165 0-.33.01-.495.022h.01zm7.7-6.103l3.79-3.008c.077.066.143.133.22.199l-3.779 2.996c-.077-.066-.154-.121-.231-.187z" fill="#F5971E"/><path d="M17.857 12.713l5.96-4.726c.11.033.231.066.342.099l-5.828 4.627h-.474zm7.436-5.894l3.779-2.996c.077.066.143.132.22.198l-3.767 2.985c-.077-.066-.155-.12-.232-.187z" fill="#F59722"/><path d="M18.331 12.702l5.828-4.627.33.099-5.706 4.528h-.452zm7.194-5.707l3.767-2.985c.066.066.143.132.21.198l-3.757 2.986c-.077-.067-.143-.133-.22-.188v-.01z" fill="#F89A22"/><path d="M18.783 12.713l5.706-4.528c.11.033.22.066.33.11l-5.596 4.44a5.91 5.91 0 01-.44-.022zm6.962-5.52l3.756-2.985c.067.066.144.132.21.199L25.965 7.38c-.077-.066-.143-.132-.22-.198v.01z" fill="#F89A22"/><path d="M19.223 12.724l5.597-4.44c.11.033.209.077.32.11l-5.498 4.363a67.958 67.958 0 01-.419-.033zm6.742-5.343l3.746-2.974c.066.066.143.132.21.198l-3.746 2.974c-.067-.066-.144-.132-.21-.198z" fill="#F59B26"/><path d="M19.642 12.757l5.497-4.363c.1.034.21.078.32.122L20.06 12.8c-.133-.011-.276-.033-.408-.044h-.011zm6.533-5.178l3.745-2.974c.066.066.132.132.21.198l-3.746 2.964c-.066-.067-.143-.133-.21-.199v.011z" fill="#F89C27"/><path d="M20.06 12.8l5.399-4.284c.099.044.209.077.308.12l-5.31 4.209c-.132-.022-.264-.033-.396-.055v.01zm6.324-5.023l3.745-2.963.21.21-3.735 2.963c-.066-.066-.132-.132-.21-.199l-.01-.01z" fill="#F59B28"/><path d="M20.457 12.845l5.31-4.208c.1.044.198.088.308.12L20.843 12.9c-.133-.022-.254-.044-.386-.055zm6.136-4.87l3.735-2.963c.066.066.132.144.198.21l-3.735 2.963c-.066-.066-.132-.132-.198-.21z" fill="#F59D2A"/><path d="M20.843 12.911l5.232-4.142.298.132-5.145 4.087c-.132-.022-.253-.044-.374-.066l-.011-.011zm5.948-4.715l3.735-2.963c.066.066.132.143.198.209L26.99 8.405c-.066-.066-.132-.143-.198-.209z" fill="#F59D2C"/><path d="M21.228 12.977l5.145-4.087.297.132-5.067 4.021c-.121-.022-.243-.055-.375-.077v.011zm5.773-4.583l3.734-2.963c.067.066.133.143.199.21l-3.735 2.963c-.066-.066-.132-.143-.198-.21z" fill="#F59D2C"/><path d="M21.592 13.054l5.067-4.02c.1.043.188.087.287.132l-5.002 3.965a4.27 4.27 0 00-.363-.077h.01zm5.596-4.44l3.735-2.963c.066.066.132.144.198.21l-3.735 2.963c-.066-.077-.132-.143-.198-.21z" fill="#F59D32"/><path d="M21.955 13.131l5.002-3.965c.099.044.187.088.286.143l-4.935 3.91c-.121-.032-.231-.054-.353-.088zm5.431-4.307l3.735-2.963a1.8 1.8 0 01.187.22l-3.734 2.963c-.066-.077-.133-.143-.188-.22z" fill="#F69F32"/><path d="M22.308 13.22l4.935-3.911c.088.044.188.099.276.143l-4.87 3.856c-.12-.034-.23-.066-.341-.088zm5.266-4.176l3.734-2.963c.066.077.132.143.188.22L27.76 9.265c-.066-.077-.121-.144-.187-.22z" fill="#F89F33"/><path d="M22.65 13.308l4.869-3.856c.088.044.187.1.275.143l-4.803 3.812c-.11-.033-.231-.066-.342-.1zm5.111-4.054l.187.22 3.735-2.963c-.066-.078-.121-.144-.188-.22l-3.734 2.963z" fill="#F8A036"/><path d="M22.99 13.407l4.804-3.812c.088.044.187.1.275.154l-4.737 3.757a3.878 3.878 0 01-.33-.11l-.011.01zm4.958-3.933l.188.22 3.734-2.963c-.055-.077-.121-.143-.187-.22l-3.735 2.963z" fill="#F9A236"/><path d="M23.321 13.506l4.737-3.757c.078.044.144.078.22.122l-.142-.177 3.734-2.963.187.22-8.394 6.665c-.11-.033-.22-.077-.33-.11h-.012z" fill="#F9A238"/><path d="M23.652 13.616l8.394-6.665c.055.077.121.155.176.22l-8.262 6.555a3.661 3.661 0 00-.32-.11h.012z" fill="#F6A138"/><path d="M23.971 13.726l8.263-6.554c.055.077.12.143.176.22l-8.13 6.444c-.1-.044-.21-.077-.309-.12v.01z" fill="#F6A13B"/><path d="M24.29 13.847l8.13-6.444c.056.077.122.154.177.231L24.61 13.97c-.099-.044-.209-.078-.308-.122h-.011z" fill="#F6A33D"/><path d="M24.6 13.969l7.986-6.335c.055.077.121.154.176.232L24.908 14.1c-.1-.044-.199-.088-.309-.121v-.011z" fill="#F6A53D"/><path d="M24.897 14.1l7.854-6.234c.055.077.11.154.177.231l-7.734 6.136-.297-.132z" fill="#F6A540"/><path d="M25.194 14.233l7.734-6.136.165.231-7.612 6.037-.298-.132h.011z" fill="#F6A540"/><path d="M25.492 14.365l7.612-6.037.165.232-7.491 5.937c-.1-.044-.187-.099-.286-.143v.011zM25.778 14.498l7.491-5.938.165.231-7.37 5.85c-.099-.044-.187-.1-.286-.143z" fill="#F9A641"/><path d="M26.064 14.64l7.37-5.85.166.232-7.26 5.75c-.088-.043-.187-.098-.276-.143v.011z" fill="#F9A643"/><path d="M26.34 14.784l7.26-5.75c.055.076.11.165.165.242l-7.139 5.662c-.088-.055-.187-.1-.275-.143l-.011-.011z" fill="#F9A846"/><path d="M26.615 14.938l7.139-5.662c.055.077.11.154.154.242l-7.028 5.574c-.088-.055-.177-.099-.276-.154h.011z" fill="#F7A947"/><path d="M26.89 15.092l7.03-5.574c.054.077.11.165.153.242l-6.918 5.486c-.088-.055-.176-.11-.264-.154z" fill="#F7A949"/><path d="M27.155 15.246l6.918-5.486c.055.077.1.166.154.243L27.42 15.4c-.088-.055-.176-.11-.264-.155z" fill="#F7A94B"/><path d="M27.42 15.4l6.807-5.397c.056.077.1.165.155.242l-6.71 5.321c-.087-.055-.175-.11-.253-.165z" fill="#F7A94B"/><path d="M27.684 15.566l6.709-5.32c.055.076.099.164.154.242l-6.599 5.232a5.071 5.071 0 01-.253-.165l-.011.011z" fill="#F7A94D"/><path d="M27.937 15.731l6.599-5.233c.055.078.1.166.154.243l-6.5 5.155c-.088-.055-.165-.11-.253-.165z" fill="#F7AB4D"/><path d="M28.19 15.897l6.5-5.156c.044.077.1.165.143.253l-6.4 5.079c-.088-.055-.165-.11-.253-.165l.01-.011z" fill="#FAAC50"/><path d="M28.433 16.062l6.4-5.079c.044.088.1.165.144.253l-6.302 5.002-.242-.176z" fill="#FAAD50"/><path d="M28.675 16.238l6.302-5.001c.044.088.099.165.143.253l-6.202 4.913c-.078-.055-.166-.12-.243-.176v.011zM28.918 16.414l6.202-4.913c.044.088.099.165.143.253l-6.103 4.848c-.077-.056-.154-.122-.231-.177l-.011-.01z" fill="#FAAD52"/><path d="M29.16 16.59l6.103-4.847c.044.088.1.165.143.254l-6.015 4.77a3.223 3.223 0 00-.231-.177zM29.391 16.778l6.015-4.77c.044.088.088.176.132.253l-5.915 4.693c-.077-.066-.155-.121-.232-.187v.01z" fill="#FAAD54"/><path d="M29.623 16.954l5.915-4.693.133.264-5.828 4.616c-.077-.066-.154-.12-.231-.187h.01zM29.854 17.141l5.828-4.615.132.264-5.74 4.55c-.077-.067-.143-.133-.22-.188v-.01z" fill="#F7AF56"/><path d="M30.074 17.328l5.74-4.55.132.265-5.64 4.473c-.077-.066-.143-.132-.22-.188h-.012z" fill="#F7AF59"/><path d="M30.295 17.527l5.64-4.473.132.265-5.552 4.406c-.077-.066-.143-.132-.22-.198z" fill="#F7AF5B"/><path d="M30.515 17.714l5.552-4.406c.044.088.088.176.121.264l-5.464 4.34c-.066-.066-.143-.132-.22-.198h.011z" fill="#FAB15B"/><path d="M30.735 17.912l5.464-4.34.133.264-5.387 4.264c-.066-.066-.144-.133-.21-.199v.011z" fill="#FAB15B"/><path d="M30.945 18.11l5.387-4.263c.044.088.077.177.12.265l-5.298 4.197c-.066-.066-.143-.132-.21-.198zM31.154 18.32l5.299-4.197c.044.088.077.176.12.275l-5.21 4.131c-.066-.066-.132-.132-.21-.198v-.011z" fill="#FBB460"/><path d="M31.363 18.518l5.211-4.13c.044.087.077.175.121.274l-5.122 4.065c-.067-.066-.133-.143-.199-.209h-.01z" fill="#FBB460"/><path d="M31.562 18.728l5.122-4.065c.044.088.077.187.11.275l-5.045 3.999c-.066-.066-.132-.143-.198-.21h.01z" fill="#FBB461"/><path d="M31.76 18.926l5.045-4c.044.089.077.188.121.276l-4.957 3.933c-.066-.066-.132-.143-.198-.21h-.011z" fill="#FBB464"/><path d="M31.958 19.146l4.958-3.933c.044.089.077.188.11.276l-4.88 3.866c-.067-.077-.133-.143-.199-.209h.011zM32.156 19.355l4.88-3.866c.045.088.078.187.11.275l-4.791 3.8c-.066-.076-.133-.142-.188-.22l-.01.011z" fill="#FBB664"/><path d="M32.344 19.565l4.792-3.8c.033.098.077.187.11.275l-4.715 3.734c-.066-.077-.132-.143-.187-.22v.01z" fill="#F8B766"/><path d="M32.542 19.785l4.715-3.734c.033.099.066.187.11.286l-4.638 3.68c-.066-.078-.12-.144-.187-.22v-.012z" fill="#FBB868"/><path d="M32.718 20.006l4.638-3.68c.033.1.066.187.1.287l-4.55 3.613-.188-.22z" fill="#FBB868"/><path d="M32.906 20.226l4.55-3.614c.032.1.065.188.098.287l-4.472 3.547c-.055-.077-.121-.154-.176-.22z" fill="#FBB86B"/><path d="M33.093 20.446l4.472-3.547c.034.099.067.187.1.286l-4.396 3.481c-.055-.077-.121-.154-.176-.22z" fill="#FBB86C"/><path d="M33.27 20.677l4.395-3.48c.033.099.066.187.099.286l-4.319 3.426c-.055-.077-.12-.154-.176-.232z" fill="#FBBA6D"/><path d="M33.445 20.898l4.319-3.426.099.297-4.241 3.36c-.056-.077-.11-.154-.177-.231z" fill="#FCBC6D"/><path d="M33.622 21.13l4.24-3.36c.034.098.067.198.089.297l-4.153 3.294a3.216 3.216 0 00-.176-.232z" fill="#FCBC6F"/><path d="M33.787 21.36l4.153-3.293c.033.099.055.198.088.297l-4.076 3.239-.165-.232v-.01z" fill="#FCBC6F"/><path d="M33.952 21.592l4.076-3.239c.033.1.055.198.088.297l-3.999 3.173-.165-.231z" fill="#FBBC71"/><path d="M34.128 21.834l4-3.172c.032.099.054.198.087.297l-3.921 3.107-.166-.232z" fill="#FBBC73"/><path d="M34.283 22.066l3.921-3.107c.033.1.055.198.078.297l-3.845 3.052c-.055-.077-.11-.165-.165-.242h.01z" fill="#FBBC74"/><path d="M34.448 22.308l3.844-3.052c.023.1.056.199.078.298l-3.768 2.985a2.991 2.991 0 01-.154-.242v.011z" fill="#FCBE77"/><path d="M34.602 22.55l3.768-2.985c.022.1.055.21.077.308l-3.69 2.92c-.056-.077-.1-.165-.155-.243z" fill="#FCC077"/><path d="M34.756 22.793l3.69-2.92c.023.1.056.21.078.309l-3.602 2.864c-.055-.088-.1-.165-.155-.242l-.01-.011z" fill="#FCC079"/><path d="M34.91 23.035l3.603-2.864c.022.099.044.21.077.308l-3.525 2.798a1.798 1.798 0 00-.154-.242zM35.065 23.288l3.525-2.798.066.309-3.448 2.732c-.044-.088-.1-.165-.143-.254v.011z" fill="#FCC07B"/><path d="M35.208 23.53l3.448-2.731.066.32-3.37 2.676c-.045-.088-.1-.165-.144-.253v-.011z" fill="#FCC07B"/><path d="M35.362 23.784l3.371-2.677.066.32-3.294 2.61c-.044-.088-.099-.176-.143-.253z" fill="#FCC07D"/><path d="M35.505 24.038l3.294-2.611.066.32-3.205 2.544c-.044-.088-.1-.165-.144-.253h-.01z" fill="#FCC37F"/><path d="M35.649 24.291l3.205-2.545c.022.11.033.22.055.32l-3.128 2.478c-.044-.088-.088-.176-.132-.253zM35.78 24.555l3.13-2.478c.021.11.032.22.055.32l-3.041 2.412-.132-.265-.011.011z" fill="#FCC480"/><path d="M35.924 24.809l3.04-2.413c.023.11.034.22.056.33l-2.964 2.347-.132-.264z" fill="#FCC481"/><path d="M36.056 25.073l2.964-2.346c.022.11.033.22.044.33l-2.876 2.28-.132-.264z" fill="#FCC483"/><path d="M36.188 25.337l2.876-2.28c.01.11.033.22.044.33l-2.798 2.215-.133-.265h.011zM36.31 25.602l2.798-2.215c.01.11.022.22.044.33l-2.71 2.15-.132-.265z" fill="#FCC784"/><path d="M36.442 25.866l2.71-2.148c.01.11.022.22.044.341l-2.622 2.083c-.044-.088-.077-.177-.121-.265l-.011-.01z" fill="#FCC785"/><path d="M36.563 26.13l2.622-2.081.033.341-2.534 2.005c-.044-.088-.077-.176-.121-.264zM36.684 26.406l2.534-2.005c0 .11.022.231.033.341l-2.446 1.94c-.044-.089-.077-.188-.12-.276z" fill="#FCC787"/><path d="M36.805 26.67l2.446-1.938c0 .12.022.23.022.352l-2.347 1.862c-.044-.088-.077-.187-.12-.276z" fill="#FDC98A"/><path d="M36.926 26.946l2.347-1.862c0 .121.011.231.022.352l-2.258 1.796c-.033-.099-.078-.187-.121-.275l.01-.011z" fill="#FDC98C"/><path d="M37.037 27.221l2.258-1.796c0 .122.011.232.022.353l-2.16 1.719c-.032-.088-.076-.188-.11-.276h-.01z" fill="#FDC98C"/><path d="M37.158 27.508l2.159-1.72c0 .122 0 .243.011.354l-2.071 1.64c-.033-.098-.077-.186-.11-.274h.01z" fill="#FDCB8C"/><path d="M37.268 27.783l2.071-1.641v.363l-1.972 1.565c-.033-.089-.066-.188-.11-.276l.011-.01z" fill="#FDCB8E"/><path d="M37.367 28.058l1.972-1.564v.364l-1.873 1.476a3.069 3.069 0 00-.11-.287l.011.011zM37.477 28.345l1.873-1.476v.363l-1.763 1.4a3.07 3.07 0 00-.11-.287z" fill="#FDCB8F"/><path d="M37.576 28.631l1.763-1.399v.375l-1.652 1.31c-.033-.099-.066-.187-.1-.286h-.01z" fill="#FDCD90"/><path d="M37.687 28.918l1.652-1.311v.374l-1.553 1.234a8.514 8.514 0 00-.1-.286v-.011z" fill="#FDCD94"/><path d="M37.786 29.204l1.553-1.234c0 .132-.011.254-.022.386L37.885 29.5c-.033-.099-.066-.187-.1-.286v-.011z" fill="#FDCD94"/><path d="M37.874 29.502l1.432-1.146c0 .132 0 .253-.011.385L37.962 29.8c-.033-.1-.066-.198-.088-.297z" fill="#FDCF96"/><path d="M37.973 29.788l1.333-1.058c0 .133-.022.265-.033.386l-1.212.958a3.043 3.043 0 01-.088-.297v.01z" fill="#FDCF96"/><path d="M38.061 30.085l1.212-.958c0 .132-.022.264-.033.386l-1.09.87c-.034-.1-.056-.198-.089-.298z" fill="#FDCF98"/><path d="M38.15 30.383l1.09-.87a4.857 4.857 0 01-.044.396l-.97.76c-.033-.099-.055-.198-.088-.297l.011.01zM38.237 30.68l.97-.76c-.011.132-.022.265-.044.397l-.837.66c-.034-.098-.056-.198-.089-.297zM38.325 30.978l.838-.661a5.181 5.181 0 01-.055.407l-.694.551a2.959 2.959 0 01-.078-.297h-.01z" fill="#FDCF9A"/><path d="M38.414 31.275l.694-.55c-.022.132-.033.275-.055.407l-.562.452c-.022-.1-.055-.199-.077-.309z" fill="#FDD19D"/><path d="M38.49 31.584l.563-.452a28.763 28.763 0 01-.287 1.597 34.852 34.852 0 00-.286-1.145h.01z" fill="#FDD39F"/></g><defs><clipPath id="prefix__dong_a_bank_clip0"><path fill="#fff" d="M0 0h40v40H0z"/></clipPath></defs></svg>