<svg viewBox="0 0 40 40" xmlns="http://www.w3.org/2000/svg"><path fill-rule="evenodd" clip-rule="evenodd" d="M2.684 21.983l-1.589-2.667v2.667H0V18h1.63l1.608 2.655V18h1.093v3.983H2.684zM7.926 21.983l-.272-.686H6.016l-.273.686h-1.22L6.09 18h1.438l1.614 3.983H7.926zm-.604-1.549l-.496-1.273-.488 1.273h.984zM13.665 21.983v-2.512l-1.105 2.512h-.954l-1.114-2.498v2.498h-1.1V18h1.617l1.067 2.47 1.05-2.47h1.634v3.983h-1.095zM19.49 21.983l-.28-.686h-1.633l-.275.686h-1.217L17.648 18h1.438l1.61 3.983H19.49zm-.606-1.549l-.498-1.273-.491 1.273h.989zM22.073 21.983V18h2.326c.522 0 .881.078 1.088.242.216.174.327.465.327.872 0 .296-.052.512-.16.655a.555.555 0 01-.12.13c.092.056.17.124.23.206.106.15.158.379.158.698 0 .414-.106.712-.317.891-.219.195-.602.294-1.133.294h-2.397l-.002-.005zm2.22-.935c.285 0 .374-.052.393-.066.042-.033.066-.12.066-.24 0-.23-.047-.284-.057-.291-.01-.007-.073-.061-.355-.061h-1.109v.658h1.062zm-.1-1.525c.286 0 .373-.057.394-.07.019-.02.068-.074.068-.266 0-.15-.035-.193-.035-.193-.012-.012-.087-.056-.416-.056h-.975v.585h.963zM29.378 21.983l-.272-.686h-1.638l-.27.686H25.98L27.54 18h1.439l1.612 3.983H29.378zm-.599-1.549l-.5-1.273-.494 1.273h.994zM33.535 21.983l-1.593-2.679v2.68h-1.097V18h1.638l1.6 2.653V18h1.1v3.983h-1.648zM38.489 21.983l-1.59-1.563h-.154v1.563h-1.167V18h1.167v1.488h.149L38.327 18h1.483l-1.904 1.943L40 21.983h-1.511z" fill="#0072BC"/></svg>