<svg viewBox="0 0 40 40" xmlns="http://www.w3.org/2000/svg"><path d="M30.052 5.19c3.446 1.422 5.974 1.119 5.974 1.119s-1.062-2.1-4.31-3.508c-2.957-1.28-5.922-.51-5.922-.51s1.079 1.585 4.258 2.898zM35.02 14.138s-.153-1.997-1.655-4.354c-1.999-3.136-4.418-3.586-4.418-3.586s-.131 2.175 2.163 5.056c2.045 2.566 3.91 2.884 3.91 2.884zM25.479 6.709c-3.151-1.144-5.535 0-5.535 0s.488 1.27 3.846 2.52c2.478.921 5.253.594 5.253.594s-.632-2.049-3.564-3.114zM35.834 11.132c1.955 2.15 3.785 2.335 3.785 2.335s-.293-2.183-2.017-4.123c-1.947-2.193-4.275-2.327-4.275-2.327s.81 2.249 2.507 4.115zM36.08 13.393s.035 2.048.266 3.838c.233 1.792 1.167 4.255 1.96 5.149.716.806.876-2.607.874-2.905-.02-2.417-1.072-4.34-2.174-5.853-.437-.599-.903-1.005-.926-.229z" fill="#ED1C24"/><path d="M23.964 38.219c-.593.082-1.213.041-1.831.041-7.279 0-13.178-5.9-13.178-13.18 0-7.28 5.9-13.181 13.178-13.181.396 0 .786.02 1.171.055.333.021.661.05.986.095-4.885-2.5-11.535-1.159-15.1 1.769 1.107-2.074 2.745-4.12 5.152-5.88 6.16-4.502 12.645-3.07 12.645-3.07s-2.633-1.603-7.843-.99c-3.64.427-6.748 1.763-8.905 3.582 2.781-3.281 6.818-5.462 11.13-6.153.374-.068.781-.13 1.219-.181h.002a22.502 22.502 0 014.139-.087C19.474-1.39 11.154.454 5.639 6.445c-7.485 8.13-6.962 20.792 1.167 28.279 8.132 7.488 20.863 6.932 28.347-1.2a25.362 25.362 0 002.014-2.603c-3.471 4.096-7.984 6.761-13.203 7.298z" fill="#ED1C24"/></svg>