<svg viewBox="0 0 40 40" xmlns="http://www.w3.org/2000/svg">
    <path
        d="M30.052 5.18936C33.498 6.612 36.0256 6.30856 36.0256 6.30856C36.0256 6.30856 34.9638 4.20928 31.7164 2.80123C28.7594 1.52026 25.7936 2.29111 25.7936 2.29111C25.7936 2.29111 26.8726 3.87625 30.052 5.18936Z"
        fill="#ED1C24" />
    <path
        d="M35.0206 14.1382C35.0206 14.1382 34.8672 12.1411 33.3653 9.78406C31.3665 6.64846 28.9466 6.19786 28.9466 6.19786C28.9466 6.19786 28.8155 8.37346 31.1098 11.2538C33.155 13.8201 35.0206 14.1382 35.0206 14.1382Z"
        fill="#ED1C24" />
    <path
        d="M25.4788 6.70895C22.3275 5.56528 19.9437 6.70895 19.9437 6.70895C19.9437 6.70895 20.4323 7.97897 23.7896 9.22853C26.2682 10.1502 29.0434 9.82337 29.0434 9.82337C29.0434 9.82337 28.4113 7.77411 25.4788 6.70895Z"
        fill="#ED1C24" />
    <path
        d="M35.8336 11.1316C37.7886 13.282 39.6188 13.4675 39.6188 13.4675C39.6188 13.4675 39.3256 11.2843 37.602 9.34382C35.6554 7.15105 33.3268 7.01741 33.3268 7.01741C33.3268 7.01741 34.1374 9.26604 35.8336 11.1316Z"
        fill="#ED1C24" />
    <path
        d="M36.0797 13.3932C36.0797 13.3932 36.1148 15.441 36.3463 17.231C36.5789 19.0232 37.5126 21.4861 38.3053 22.38C39.0218 23.1863 39.1824 19.7725 39.1799 19.4745C39.1609 17.0583 38.1085 15.1357 37.0061 13.6218C36.5687 13.0233 36.1031 12.6172 36.0797 13.3932Z"
        fill="#ED1C24" />
    <path
        d="M23.9643 38.2188C23.3705 38.3014 22.7505 38.2601 22.133 38.2601C14.8543 38.2601 8.95451 32.3595 8.95451 25.0794C8.95451 17.8008 14.8543 11.8987 22.133 11.8987C22.5285 11.8987 22.9188 11.9196 23.3044 11.9539C23.6367 11.9751 23.9654 12.0035 24.2896 12.0488C19.4046 9.5486 12.7554 10.8905 9.19077 13.8176C10.2968 11.7436 11.9353 9.69794 14.3424 7.93716C20.5029 3.43588 26.9874 4.86839 26.9874 4.86839C26.9874 4.86839 24.3539 3.26498 19.1435 3.87808C15.504 4.30495 12.3957 5.64106 10.2391 7.4599C13.0202 4.17861 17.0573 1.99753 21.3687 1.30738C21.743 1.2391 22.1502 1.17739 22.5876 1.12553H22.5898C23.7609 0.988234 25.1503 0.932 26.7289 1.03936C19.4739 -1.39149 11.1542 0.45401 5.63853 6.4455C-1.84608 14.5757 -1.32318 27.2371 6.8063 34.7239C14.9376 42.2122 27.6691 41.6557 35.1534 33.5244C36.0075 32.5465 36.6597 31.6822 37.1672 30.9212C33.696 35.0172 29.1827 37.6824 23.9643 38.2188Z"
        fill="#ED1C24" />
</svg>