<svg viewBox="0 0 16 16" xmlns="http://www.w3.org/2000/svg"><path d="M12.26 5.9h-.245v.123l.062.184v.184c.06 0 .184.184.184.184l.122.184.123.122.122.123h.123l.123.061h.183L16 5.41V4l-3.617 1.962-.122-.062z" fill="#DC3331"/><path d="M13.548 7.433l-1.103.613h-.184c0 .061-1.533-3.126-1.533-3.126H8.521l-3.126 5.762h.49l.307-.123h.306l.307-.122.306-.123.307-.122h.245c0-.062.123-.123.123-.123h.122l.061-.122h.062v-.184l1.471-3.127.98 2.39-.796.43-.736.368-.674.306-.613.246-.613.184-.552.183-.552.184-.551.123-.552.123h-.49c0 .06-.49.184-.49.184h-.43l-.368.06H2.023l-.307-.122h-.183c0-.061-.184-.184-.184-.184l-.123-.122-.123-.184v-.184c-.06 0-.06-.184-.06-.184v-.245l.122-.245.122-.307.184-.307.245-.306.246-.307.245-.245.245-.245.307-.245.306-.245.368-.246.307-.184.367-.183.368-.184.368-.184.368-.123.368-.123.306-.122h.307l.245-.123h.613l-.061-.245-.123-.43-.123-.306v-.183c-.06 0-.122-.123-.122-.123h-.062l-.06-.123h-.123l-.184-.061h-.92c0 .061-.368.184-.368.184l-.368.123-.367.183-.368.184-.368.184-.307.184-.367.184-.368.245-.368.245-.307.246-.245.245-.245.245-.245.245-.184.246-.245.306-.184.307-.123.306-.122.307v.306C.06 9.272 0 9.58 0 9.58v.306l.061.307v.367c.062 0 .184.307.184.307l.123.307.184.245.184.245.245.245.245.184.245.184.307.123.306.122.368.123h.43c0 .061.428.123.428.123h1.226l.368-.062h.368l.368-.122h.368c0-.062.306-.184.306-.184l.368-.123.368-.123.368-.122.368-.123.367-.122.368-.123.368-.123.368-.183.368-.184.245-.123.306-.184.43-.184.429-.245.858 2.146v.122l.061.123h.061l.062.061h2.146l-1.594-3.433.245-.123 1.287-.735 1.41-.797V6.084l-1.226.675-1.165.674h.368z" fill="#2E888B"/></svg>