<svg viewBox="0 0 16 16" xmlns="http://www.w3.org/2000/svg">
    <path
        d="M12.2605 5.90041H12.1992H12.1379H12.0766H12.0153V6.02302L12.0766 6.20693V6.39084C12.1379 6.39084 12.2605 6.57476 12.2605 6.57476L12.3831 6.75867L12.5057 6.88127L12.6283 7.00388H12.7509L12.8735 7.06518H13.0574L16 5.40999V4L12.3831 5.96172L12.2605 5.90041Z"
        fill="#DC3331" />
    <path
        d="M13.5481 7.43306L12.4447 8.04609H12.2607C12.2607 8.1074 10.7282 4.9196 10.7282 4.9196H8.52122L5.39473 10.6822H5.51733H5.63994H5.88516L6.19168 10.5595H6.49819L6.80471 10.4369L7.11123 10.3143L7.41775 10.1917H7.66296C7.66296 10.1304 7.78557 10.0691 7.78557 10.0691H7.90818L7.96948 9.94651H8.03079C8.03079 9.8852 8.03079 9.7626 8.03079 9.7626L9.50208 6.63611L10.4829 9.02695L9.68599 9.45608L8.95034 9.8239L8.276 10.1304L7.66296 10.3756L7.04993 10.5595L6.49819 10.7435L5.94646 10.9274L5.39473 11.05L4.84299 11.1726H4.35256C4.35256 11.2339 3.86213 11.3565 3.86213 11.3565H3.43301L3.06519 11.4178H2.75867H2.45215H2.02302L1.7165 11.2952H1.53259C1.53259 11.2339 1.34868 11.1113 1.34868 11.1113L1.22607 10.9887L1.10347 10.8048V10.6208C1.04216 10.6208 1.04216 10.4369 1.04216 10.4369V10.1917L1.16477 9.94651L1.28738 9.63999L1.47129 9.33347L1.7165 9.02695L1.96172 8.72043L2.20693 8.47522L2.45215 8.23L2.75867 7.98479L3.06519 7.73957L3.43301 7.49436L3.73953 7.31045L4.10735 7.12654L4.47517 6.94263L4.84299 6.75871L5.21082 6.63611L5.57864 6.5135L5.88516 6.39089H6.19168L6.43689 6.26829H6.6821H6.92732H7.04993L6.98862 6.02307L6.86602 5.59394L6.74341 5.28743V5.10352C6.68211 5.10352 6.6208 4.98091 6.6208 4.98091H6.5595L6.49819 4.8583H6.37559L6.19168 4.797H5.94646H5.63994H5.27212C5.27212 4.8583 4.9043 4.98091 4.9043 4.98091L4.53647 5.10352L4.16865 5.28743L3.80083 5.47134L3.43301 5.65525L3.12649 5.83916L2.75867 6.02307L2.39084 6.26829L2.02302 6.5135L1.7165 6.75871L1.47129 7.00393L1.22607 7.24915L0.98086 7.49436L0.796948 7.73957L0.551734 8.04609L0.367822 8.35261L0.245215 8.65913L0.122607 8.96565V9.27217C0.0613036 9.27217 0 9.57869 0 9.57869V9.8852L0.0613037 10.1917V10.5595C0.122607 10.5595 0.245215 10.8661 0.245215 10.8661L0.367822 11.1726L0.551734 11.4178L0.735644 11.663L0.98086 11.9082L1.22607 12.0921L1.47129 12.276L1.77781 12.3987L2.08433 12.5213L2.45215 12.6439H2.88127C2.88127 12.7052 3.3104 12.7665 3.3104 12.7665H3.73953H4.16865H4.53647L4.9043 12.7052H5.27212L5.63994 12.5826H6.00776C6.00776 12.5213 6.31428 12.3987 6.31428 12.3987L6.6821 12.276L7.04993 12.1534L7.41775 12.0308L7.78557 11.9082L8.15339 11.7856L8.52122 11.663L8.88904 11.5404L9.25686 11.3565L9.62468 11.1726L9.8699 11.05L10.1764 10.8661L10.6055 10.6822L11.0347 10.4369L11.8929 12.5826C11.8929 12.6439 11.8929 12.7052 11.8929 12.7052L11.9542 12.8278H12.0155L12.0768 12.8891H12.1381H14.2225L12.6286 9.45608L12.8738 9.33347L14.1612 8.59783L15.5711 7.80088V6.08438L14.3451 6.75871L13.1803 7.43306H13.5481Z"
        fill="#2E888B" />
</svg>