<svg viewBox="0 0 24 24" xmlns="http://www.w3.org/2000/svg"><path fill="#fff" d="M0 0h24v24H0z"/><path transform="translate(-.904 -.952)" d="M7.384 9.292c0-.9.3-1.8.9-2.52-1.62 1.26-2.7 3.06-3 5.1-.12.72-.12 1.44 0 2.16.78 2.34 3.9 4.14 7.68 4.14v-5.22c-3.6 0-5.46-1.8-5.58-3.66z" fill="url(#prefix__mega_gradient_1)"/><path transform="translate(-.904 -.952)" d="M18.664 16.552c-1.68 1.08-3.66 1.68-5.7 1.62-3.78 0-6.9-1.8-7.68-4.14.54 3.84 3.78 6.66 7.68 6.66 1.92 0 3.78-.72 5.16-1.98.42-.66.6-1.38.54-2.16z" fill="url(#prefix__mega_gradient_2)"/><path transform="translate(-.904 -.952)" d="M12.965 5.212c-1.68 0-3.3.54-4.68 1.56-.6.66-.9 1.56-.9 2.52 1.68-1.02 3.6-1.56 5.58-1.56 3.66 0 6.78 1.68 7.62 3.96-.6-3.72-3.84-6.48-7.62-6.48z" fill="url(#prefix__mega_gradient_3)"/><path transform="translate(-.904 -.952)" d="M20.584 11.692c-.84-2.28-3.96-3.96-7.62-3.96v5.22c3.48 0 5.46 1.74 5.7 3.6.06.78-.12 1.5-.54 2.16a7.813 7.813 0 002.46-4.5c.06-.42.12-.84.12-1.26 0-.42 0-.84-.12-1.26z" fill="url(#prefix__mega_gradient_4)"/><defs><linearGradient id="prefix__mega_gradient_1" x1="-21.5" y1="-1.988" x2="-29.193" y2="-10.693"><stop stop-color="#C5A75F"/><stop offset="1" stop-color="#61380A"/></linearGradient><linearGradient id="prefix__mega_gradient_2" x1="-31.376" y1="-34.112" x2="-43.418" y2="-34.112"><stop stop-color="#E3D9B5"/><stop offset="1" stop-color="#512F09"/></linearGradient><linearGradient id="prefix__mega_gradient_3" x1="42.845" y1="119.104" x2="50.663" y2="126.182"><stop stop-color="#E3D9B5"/><stop offset="1" stop-color="#512F09"/></linearGradient><linearGradient id="prefix__mega_gradient_4" x1="68.356" y1="-142.832" x2="76.629" y2="-137"><stop stop-color="#D3C191"/><stop offset="1" stop-color="#533614"/></linearGradient></defs></svg>