<svg viewBox="0 0 16 16" xmlns="http://www.w3.org/2000/svg"><path d="M0 8c0 4.38 3.556 8 8 8h.317c4.254-.19 7.62-3.682 7.683-8 0-4.444-3.62-8-8-8-4.444 0-8 3.619-8 8zm1.27-.508c0-1.27.444-2.54 1.143-3.682C3.556 1.84 5.65.57 7.936.57c1.715 0 3.366.699 4.572 1.905a7.948 7.948 0 01.889 9.841c-1.778 2.667-4.89 3.747-7.683 2.604-2.666-1.016-4.444-3.873-4.508-7.429h.064z" fill="#fff"/><path d="M5.523 10.222c.381.445.762.826 1.207 1.27a32.388 32.388 0 001.46-1.524c.444-.508.444-.508 0-1.016-.19-.19-.381-.444-.572-.698-.761.698-1.396 1.333-2.031 1.905l-.064.063zM5.905 7.746c.698-.762 1.27-1.333 1.84-1.968.064-.127.064-.254 0-.318-.317-.38-.634-.698-1.079-1.143-.635.699-1.27 1.27-1.84 1.905v.381c.317.381.634.699 1.015 1.207l.064-.064zM7.047 7.238l1.841 1.841c.445-.38.89-.762 1.334-1.08a58.475 58.475 0 01-1.968-2.03c-.381.444-.762.825-1.207 1.269zM8.254 10.603c-.381.445-.762.826-1.207 1.27.572.571 1.143 1.143 1.778 1.714 0 0 .254.064.317 0 .318-.254.508-.571.699-.889 0-.254 0-.571-.254-.761-.381-.445-.889-.89-1.333-1.397v.063zM6.221 8.698L4.317 6.794c-.318.254-.572.571-.826.889-.127.317-.063.698.19.888l1.334 1.334c.381-.445.762-.826 1.143-1.27l.063.063zM11.364 4.381a58.521 58.521 0 00-1.968 2.032c.38.38.825.762 1.143 1.143a32.393 32.393 0 001.523-1.46c.254-.255.19-.7 0-.953-.19-.254-.444-.445-.698-.762zM8.317 5.27c.381-.381.889-.826 1.27-1.27.317-.318.38-.825.063-1.143l-.063-.063-.572-.572L7.047 4.19c.381.381.826.762 1.27 1.143V5.27zM9.396 9.587c.635.572 1.27 1.207 1.968 1.842.254-.19.444-.381.635-.635.317-.318.317-.762 0-1.08-.444-.444-.952-.889-1.397-1.333-.317.38-.698.762-1.143 1.206h-.063z" fill="#FF7300"/></svg>