<svg viewBox="0 0 24 24" xmlns="http://www.w3.org/2000/svg">
    <rect width="24" height="24" fill="#023BA6" />
    <path transform="translate(-0.665527,-0.952026)"
        d="M5.40576 13.0121C5.40576 17.1521 8.76575 20.5721 12.9657 20.5721C13.0857 20.5721 13.1457 20.5721 13.2657 20.5721C17.2857 20.3921 20.4658 17.0921 20.5258 13.0121C20.5258 8.81215 17.1057 5.45215 12.9657 5.45215C8.76575 5.45215 5.40576 8.87215 5.40576 13.0121ZM6.60576 12.5321C6.60576 11.3321 7.02575 10.1321 7.68575 9.05215C8.76575 7.19215 10.7458 5.99215 12.9058 5.99215C14.5258 5.99215 16.0858 6.65215 17.2258 7.79215C19.6258 10.3121 19.9857 14.1521 18.0657 17.0921C16.3857 19.6122 13.4458 20.6321 10.8058 19.5521C8.28576 18.5921 6.60574 15.8921 6.54574 12.5321H6.60576Z"
        fill="white" />
    <path transform="translate(-0.665527,-0.952026)"
        d="M10.6255 15.1121C10.9855 15.5321 11.3455 15.8921 11.7655 16.3121C12.2455 15.8321 12.7255 15.3521 13.1455 14.8721C13.5655 14.3921 13.5655 14.3921 13.1455 13.9121C12.9655 13.7321 12.7855 13.4921 12.6055 13.2521C11.8855 13.9121 11.2855 14.5121 10.6855 15.0521L10.6255 15.1121Z"
        fill="#FF7300" />
    <path transform="translate(-0.665527,-0.952026)"
        d="M10.9853 12.7722C11.6453 12.0522 12.1854 11.5122 12.7254 10.9122C12.7854 10.7922 12.7854 10.6722 12.7254 10.6122C12.4254 10.2522 12.1253 9.95223 11.7053 9.53223C11.1053 10.1922 10.5053 10.7322 9.96533 11.3322C9.96533 11.4522 9.96533 11.5722 9.96533 11.6922C10.2653 12.0522 10.5654 12.3522 10.9254 12.8322L10.9853 12.7722Z"
        fill="#FF7300" />
    <path transform="translate(-0.665527,-0.952026)"
        d="M12.0654 12.292C12.6654 12.892 13.2654 13.492 13.8054 14.032C14.2254 13.672 14.6454 13.312 15.0654 13.012C14.4054 12.352 13.8054 11.752 13.2054 11.092C12.8454 11.512 12.4854 11.872 12.0654 12.292Z"
        fill="#FF7300" />
    <path transform="translate(-0.665527,-0.952026)"
        d="M13.2054 15.4721C12.8454 15.8921 12.4854 16.2521 12.0654 16.6721C12.6054 17.2121 13.1454 17.7521 13.7454 18.2921C13.7454 18.2921 13.9854 18.3521 14.0454 18.2921C14.3454 18.0521 14.5254 17.7521 14.7054 17.4521C14.7054 17.2121 14.7054 16.9121 14.4654 16.7321C14.1054 16.3121 13.6254 15.8921 13.2054 15.4121V15.4721Z"
        fill="#FF7300" />
    <path transform="translate(-0.665527,-0.952026)"
        d="M11.285 13.6722C10.745 13.1322 10.145 12.5322 9.48501 11.8722C9.18501 12.1122 8.94502 12.4122 8.70502 12.7122C8.58502 13.0122 8.64501 13.3722 8.88501 13.5522C9.30501 13.9722 9.725 14.3922 10.145 14.8122C10.505 14.3922 10.865 14.0322 11.225 13.6122L11.285 13.6722Z"
        fill="#FF7300" />
    <path transform="translate(-0.665527,-0.952026)"
        d="M16.1447 9.59216C15.4847 10.2522 14.8847 10.8522 14.2847 11.5122C14.6447 11.8722 15.0647 12.2322 15.3647 12.5922C15.8447 12.1722 16.3247 11.6922 16.8047 11.2122C17.0447 10.9722 16.9847 10.5522 16.8047 10.3122C16.6247 10.0722 16.3847 9.89216 16.1447 9.59216Z"
        fill="#FF7300" />
    <path transform="translate(-0.665527,-0.952026)"
        d="M13.2654 10.4321C13.6254 10.0721 14.1054 9.65212 14.4654 9.23212C14.7654 8.93212 14.8255 8.45212 14.5255 8.15212C14.5255 8.15212 14.5254 8.15212 14.4654 8.09212C14.2854 7.91212 14.1055 7.73212 13.9255 7.55212L12.0654 9.41212C12.4254 9.77212 12.8454 10.1321 13.2654 10.4921V10.4321Z"
        fill="#FF7300" />
    <path transform="translate(-0.665527,-0.952026)"
        d="M14.2847 14.5122C14.8847 15.0522 15.4847 15.6522 16.1447 16.2522C16.3847 16.0722 16.5647 15.8922 16.7447 15.6522C17.0447 15.3522 17.0447 14.9322 16.7447 14.6322C16.3247 14.2122 15.8447 13.7922 15.4247 13.3722C15.1247 13.7322 14.7647 14.0922 14.3447 14.5122H14.2847Z"
        fill="#FF7300" />
</svg>