<svg viewBox="0 0 16 16" xmlns="http://www.w3.org/2000/svg">
    <path
        d="M0 8C0 12.3809 3.55554 16 7.99998 16C8.12696 16 8.19046 16 8.31744 16C12.5714 15.8095 15.9365 12.3175 16 8C16 3.55555 12.3809 0 7.99998 0C3.55554 0 0 3.61905 0 8ZM1.26984 7.49206C1.26984 6.22222 1.71428 4.95238 2.41269 3.80952C3.55555 1.84127 5.65079 0.571428 7.9365 0.571428C9.65079 0.571428 11.3016 1.26984 12.5079 2.47619C15.0476 5.14285 15.4285 9.20635 13.3968 12.3175C11.619 14.9841 8.50793 16.0635 5.71428 14.9206C3.04762 13.9048 1.26982 11.0476 1.20633 7.49206H1.26984Z"
        fill="white" />
    <path
        d="M5.52325 10.2222C5.90421 10.6666 6.28514 11.0476 6.72958 11.492C7.23752 10.9841 7.74544 10.4761 8.18989 9.96819C8.63433 9.46026 8.63433 9.46026 8.18989 8.95232C7.99941 8.76184 7.80896 8.50787 7.61848 8.25391C6.85658 8.95232 6.22165 9.58724 5.58673 10.1587L5.52325 10.2222Z"
        fill="#FF7300" />
    <path
        d="M5.90451 7.74607C6.60292 6.98417 7.17436 6.41274 7.74579 5.77782C7.80928 5.65084 7.80928 5.52385 7.74579 5.46036C7.42833 5.07941 7.11086 4.76195 6.66642 4.3175C6.0315 5.01592 5.39656 5.58735 4.82513 6.22227C4.82513 6.34925 4.82513 6.47623 4.82513 6.60322C5.14259 6.98417 5.46008 7.30163 5.84103 7.80957L5.90451 7.74607Z"
        fill="#FF7300" />
    <path
        d="M7.04718 7.23798C7.6821 7.8729 8.31704 8.50782 8.88846 9.07925C9.33291 8.6983 9.77734 8.31734 10.2218 7.99988C9.52337 7.30147 8.88846 6.66655 8.25354 5.96814C7.87259 6.41258 7.49162 6.79354 7.04718 7.23798Z"
        fill="#FF7300" />
    <path
        d="M8.25354 10.6032C7.87259 11.0476 7.49162 11.4286 7.04718 11.873C7.61861 12.4444 8.19003 13.0159 8.82495 13.5873C8.82495 13.5873 9.07892 13.6508 9.14241 13.5873C9.45987 13.3333 9.65037 13.0159 9.84084 12.6984C9.84084 12.4444 9.84083 12.127 9.58686 11.9365C9.20591 11.4921 8.69799 11.0476 8.25354 10.5397V10.6032Z"
        fill="#FF7300" />
    <path
        d="M6.22138 8.69846C5.64995 8.12703 5.01503 7.49211 4.31662 6.7937C3.99916 7.04767 3.7452 7.36513 3.49123 7.68259C3.36424 8.00005 3.42773 8.381 3.6817 8.57148C4.12614 9.01592 4.57057 9.46037 5.01501 9.90481C5.39597 9.46037 5.77695 9.07941 6.1579 8.63497L6.22138 8.69846Z"
        fill="#FF7300" />
    <path
        d="M11.364 4.38098C10.6656 5.07939 10.0307 5.71431 9.39575 6.41273C9.7767 6.79368 10.2211 7.17463 10.5386 7.55558C11.0465 7.11114 11.5545 6.6032 12.0624 6.09527C12.3164 5.8413 12.2529 5.39685 12.0624 5.14289C11.8719 4.88892 11.618 4.69844 11.364 4.38098Z"
        fill="#FF7300" />
    <path
        d="M8.31702 5.26979C8.69797 4.88883 9.20591 4.44439 9.58686 3.99995C9.90432 3.68248 9.96784 3.17455 9.65038 2.85709C9.65038 2.85709 9.65035 2.85709 9.58686 2.7936C9.39639 2.60312 9.20593 2.41264 9.01546 2.22217L7.04718 4.19042C7.42813 4.57137 7.87258 4.95233 8.31702 5.33328V5.26979Z"
        fill="#FF7300" />
    <path
        d="M9.39575 9.58733C10.0307 10.1588 10.6656 10.7937 11.364 11.4286C11.618 11.2381 11.8084 11.0476 11.9989 10.7937C12.3164 10.4762 12.3164 10.0318 11.9989 9.71431C11.5545 9.26987 11.0466 8.82543 10.6021 8.38098C10.2847 8.76193 9.90367 9.14289 9.45923 9.58733H9.39575Z"
        fill="#FF7300" />
</svg>