<svg viewBox="0 0 16 16" xmlns="http://www.w3.org/2000/svg">
    <path opacity="0.7"
        d="M5.58123 5.73647C4.96108 5.98452 2.29447 7.16279 1.30224 7.78294C0.868139 7.59689 0.496053 7.47287 -6.10352e-05 7.28682C1.42627 6.54265 2.8526 5.92251 4.34094 5.36438C4.77504 5.48841 5.08511 5.67445 5.51921 5.73647H5.58123Z"
        fill="#002263" />
    <path opacity="0.7"
        d="M7.56597 6.60476C6.94583 6.85282 4.27921 8.15512 3.28698 8.71325C2.85288 8.46519 2.35677 8.27915 1.92267 8.0931C3.28698 7.34893 4.71331 6.66677 6.13964 6.04663C6.51173 6.17066 7.13187 6.41872 7.56597 6.60476Z"
        fill="#002263" />
    <path
        d="M14.0161 6.10855C10.9154 7.16279 8.00068 8.58912 5.21004 10.3875C4.65191 10.0155 4.03176 9.70538 3.41162 9.45732C5.45809 8.27905 8.18672 6.41862 12.4037 5.36438C13.0238 5.61244 13.4579 5.86049 14.0161 6.10855Z"
        fill="#E61A35" />
    <path
        d="M15.9999 7.22488C15.3798 7.47294 10.2946 9.8915 7.81404 12.062C7.37994 11.8139 6.38772 11.0698 5.8916 10.8217C7.87606 9.51941 10.3566 7.721 14.5116 6.48071C15.0077 6.72877 15.5038 6.97683 15.9379 7.22488H15.9999Z"
        fill="#E61A35" />
    <path
        d="M5.58141 4.49622C6.8217 4.8683 8.06198 5.36442 9.30227 5.92255C8.9922 6.10859 8.5581 6.23262 8.124 6.35665C5.45738 5.24039 4.40314 4.93032 4.34113 4.8683C4.58918 4.74428 5.33335 4.49622 5.58141 4.4342V4.49622Z"
        fill="#E61A35" />
    <path
        d="M7.56572 4C8.86802 4.37209 10.1083 4.80619 11.3486 5.36431C10.9145 5.42633 10.4804 5.55036 10.1083 5.7364C7.44169 4.62014 6.51148 4.37209 6.44946 4.31007C6.69752 4.18604 7.37968 4.06201 7.56572 4Z"
        fill="#E61A35" />
</svg>