<svg viewBox="0 0 40 40" xmlns="http://www.w3.org/2000/svg"><path fill-rule="evenodd" clip-rule="evenodd" d="M30.024 3.016c-3.05 0-4.428.698-6.082 2.498l-3.877 4.282-3.877-4.298C14.388 3.698 13.138 3 10.105 3H5.531s7.056 8.857 8.03 9.83c1.524 1.654 2.497 2.481 4.574 2.481h3.73c2.077 0 3.18-.827 4.704-2.481C27.526 11.857 34.6 3 34.6 3h-4.575v.016z" fill="#FCB813"/><path fill-rule="evenodd" clip-rule="evenodd" d="M27.543 14.5c-2.206.422-3.455.957-4.575 2.774l-.973 1.525-.827 1.67c-1.103 1.801-.973 3.18-.146 5.402.422 1.249 4.428 11.776 4.428 11.776l2.352-3.877c1.525-2.627 1.525-4.152.827-6.504l-1.654-5.531 5.547-1.25c2.482-.55 3.731-1.394 5.256-4.006L40 12.457s-11.079 1.8-12.457 2.076V14.5z" fill="#F37920"/><path fill-rule="evenodd" clip-rule="evenodd" d="M18.962 20.453l-.973-1.67-.828-1.525c-1.103-1.8-2.352-2.352-4.574-2.774C11.208 14.208 0 12.408 0 12.408l2.352 4.022c1.509 2.628 2.757 3.455 5.126 4.007l5.66 1.249-1.8 5.531c-.681 2.352-.567 3.877.957 6.505l2.222 3.876s4.153-10.527 4.558-11.776c.682-2.222.974-3.6-.13-5.401l.017.032z" fill="#F6921E"/></svg>