<svg viewBox="0 0 24 24" xmlns="http://www.w3.org/2000/svg"><path fill="#fff" d="M0 0h24v24H0z"/><path d="M14.639 19.32l-6.36-4.14c-.48-.3-.84-.78-.96-1.32-.12-.78.12-1.62.6-2.22l8.22 5.34c.66.42.84 1.26.42 1.92-.42.66-1.26.84-1.92.42z" fill="#38D200"/><path d="M8.639 10.8c-.6-.42-1.02-1.2-.96-1.92 0-.78.36-1.5.96-1.92l3.48-2.28c.66-.42 1.5-.24 1.92.42.42.66.24 1.5-.42 1.92l-2.94 1.92 4.98 3.24c.54.3.9.78 1.08 1.38.12.78-.12 1.56-.6 2.22l-7.5-4.92v-.06zm0 8.76c.3 0 .54-.06.78-.24l1.68-1.08-1.68-1.08c-.24-.18-.48-.24-.78-.24-.72 0-1.38.6-1.38 1.32 0 .72.6 1.38 1.32 1.38l.06-.06z" fill="#0473EA"/><path d="M15.133 7.38c-.3 0-.494.18-.734.36l-1.68 1.08 1.68 1.08c.24.18.48.24.78.24.72 0 1.38-.6 1.38-1.38 0-.78-.6-1.38-1.38-1.38" fill="#38D200"/></svg>