<svg viewBox="0 0 16 16" xmlns="http://www.w3.org/2000/svg">
    <path
        d="M10.6822 3.72093L7.82946 0L4.97674 3.72093C2.8062 6.51163 2 7.81395 2 9.67442C2 11.5349 2.43411 12.031 3.92248 13.1473L7.82946 16L11.7364 13.1473C13.2248 12.093 13.6589 11.2868 13.6589 9.67442C13.6589 7.81395 12.7907 6.51163 10.6822 3.72093ZM6.96124 12.9612V13.7054C6.96124 13.8295 6.89922 13.8295 6.83721 13.7674C5.84496 13.0233 4.60465 12.155 4.60465 12.155C3.73643 11.5969 3.24031 10.6667 3.30233 9.6124C3.30233 9.11628 3.36434 8.62015 3.55039 8.18605C3.55039 8.18605 3.55039 8.06201 3.6124 8.06201C4.04651 8.68217 4.72868 9.73643 5.47287 10.6047C6.83721 12.2171 6.96124 12.093 6.96124 12.8992V12.9612ZM7.82946 11.4729L5.10078 8.18605C4.7907 7.87597 4.60465 7.44186 4.60465 7.00775C4.60465 6.69767 4.72868 6.44961 4.91473 6.20155L7.82946 2.17054L10.7442 6.20155C10.9302 6.44961 11.0543 6.69767 11.0543 7.00775C11.0543 7.44186 10.8682 7.87597 10.5581 8.18605L7.82946 11.4729ZM11.0543 12.155C11.0543 12.155 9.81395 13.0233 8.82171 13.7674C8.75969 13.7674 8.69767 13.7674 8.69767 13.7054V12.9612C8.69767 12.155 8.75969 12.2791 10.124 10.6667C10.8062 9.79845 11.5504 8.8062 11.9845 8.12403C11.9845 8.12403 11.9845 8.18605 12.0465 8.24806C12.2326 8.68217 12.2946 9.17829 12.2946 9.67442C12.2946 10.6667 11.8605 11.6589 10.9922 12.2171L11.0543 12.155Z"
        fill="white" />
</svg>