<svg viewBox="0 0 16 16" xmlns="http://www.w3.org/2000/svg"><path d="M10.682 3.72L7.83 0 4.977 3.72C2.807 6.513 2 7.815 2 9.675c0 1.86.434 2.357 1.922 3.473L7.83 16l3.907-2.853c1.489-1.054 1.923-1.86 1.923-3.473 0-1.86-.868-3.162-2.977-5.953zm-3.72 9.241v.744c0 .124-.063.124-.125.062-.992-.744-2.232-1.612-2.232-1.612-.869-.558-1.365-1.488-1.303-2.543 0-.496.062-.992.248-1.426 0 0 0-.124.062-.124.435.62 1.117 1.674 1.86 2.543 1.365 1.612 1.49 1.488 1.49 2.294v.062zm.867-1.488L5.101 8.186a1.694 1.694 0 01-.496-1.178c0-.31.124-.558.31-.806L7.829 2.17l2.915 4.03c.186.249.31.497.31.807 0 .434-.186.868-.496 1.178L7.83 11.473zm3.225.682s-1.24.868-2.232 1.612c-.062 0-.124 0-.124-.062v-.744c0-.806.062-.682 1.426-2.294.682-.869 1.426-1.86 1.86-2.543 0 0 0 .062.063.124.186.434.248.93.248 1.426 0 .993-.434 1.985-1.303 2.543l.062-.062z" fill="#fff"/></svg>