<svg viewBox="0 0 40 40" xmlns="http://www.w3.org/2000/svg"><g clip-path="url(#prefix__ncb_vnd_clip0)"><mask id="prefix__a" style="mask-type:luminance" maskUnits="userSpaceOnUse" x="0" y="28" width="40" height="9"><path d="M19.813 28.742C8.86 28.742 0 30.356 0 32.37c0 2.023 8.947 3.671 19.996 3.689 11.04.026 19.995-1.614 20.004-3.628 0-2.023-8.947-3.68-19.996-3.697h-.192v.008z" fill="#fff"/></mask><g mask="url(#prefix__a)"><path d="M.002 28.673l-.014 7.412 40.026.077.014-7.412-40.026-.077z" fill="url(#prefix__ncb_vnd_paint0_linear)"/></g><mask id="prefix__b" style="mask-type:luminance" maskUnits="userSpaceOnUse" x="4" y="28" width="32" height="5"><path d="M19.778 28.699c-6.043 0-11.433.505-15.017 1.308l.34 2.52 29.71.052.35-2.52c-3.62-.82-9.087-1.352-15.2-1.36h-.183z" fill="#fff"/></mask><g mask="url(#prefix__b)"><path d="M4.756 28.642l-.007 3.933 30.408.053.007-3.933-30.408-.053z" fill="url(#prefix__ncb_vnd_paint1_linear)"/></g><mask id="prefix__c" style="mask-type:luminance" maskUnits="userSpaceOnUse" x="4" y="28" width="32" height="5"><path d="M19.778 28.699c-6.043 0-11.433.505-15.017 1.308l.34 2.52 29.71.052.35-2.52c-3.62-.82-9.087-1.352-15.2-1.36h-.183z" fill="#fff"/></mask><g mask="url(#prefix__c)"><path d="M4.756 28.642l-.007 3.933 30.408.053.007-3.933-30.408-.053z" fill="url(#prefix__ncb_vnd_paint2_linear)"/></g><path d="M34.803 32.527a.574.574 0 00-.55-.567H5.642a.562.562 0 00-.558.558c0 .306.253.558.558.558h28.611a.56.56 0 00.55-.558" fill="#fff"/><mask id="prefix__d" style="mask-type:luminance" maskUnits="userSpaceOnUse" x="6" y="14" width="27" height="17"><path d="M6.418 16.673c-.009 7.56 6.104 13.717 13.674 13.717 5.17.01 9.68-2.851 12.016-7.08a5.09 5.09 0 00-4.761-6.854 5.083 5.083 0 00-3.593 1.482l-3.104 3.06a8.145 8.145 0 01-5.965 2.564c-4.517-.017-8.18-3.68-8.17-8.205v-.384c-.07.55-.106 1.107-.106 1.683" fill="#fff"/></mask><g mask="url(#prefix__d)"><path d="M9.295 6.81L1.557 28.685l27.976 9.896 7.739-21.877L9.295 6.81z" fill="url(#prefix__ncb_vnd_paint3_linear)"/></g><mask id="prefix__e" style="mask-type:luminance" maskUnits="userSpaceOnUse" x="7" y="3" width="27" height="16"><path d="M20.118 3c-5.102 0-9.549 2.79-11.912 6.933a5.076 5.076 0 004.64 7.133 5.097 5.097 0 003.592-1.474l3.104-3.06a8.106 8.106 0 015.956-2.564c4.517 0 8.18 3.68 8.171 8.197 0 .174 0 .375-.017.566.096-.662.148-1.325.148-2.005C33.817 9.156 27.696 3.017 20.126 3H20.1h.018z" fill="#fff"/></mask><g mask="url(#prefix__e)"><path d="M33.817 3H7.761v15.731h26.056V3z" fill="url(#prefix__ncb_vnd_paint4_linear)"/></g><mask id="prefix__f" style="mask-type:luminance" maskUnits="userSpaceOnUse" x="6" y="9" width="15" height="15"><path d="M6.523 14.99v.384c0 4.517 3.654 8.189 8.17 8.206a8.212 8.212 0 005.53-2.136l-4.954-4.962a5.136 5.136 0 01-2.415.601 5.076 5.076 0 01-4.64-7.133 13.59 13.59 0 00-1.683 5.067" fill="#fff"/></mask><g mask="url(#prefix__f)"><path d="M19.468 6.839L3.42 10.674l3.826 16.013 16.047-3.835-3.826-16.013z" fill="url(#prefix__ncb_vnd_paint5_linear)"/></g><mask id="prefix__g" style="mask-type:luminance" maskUnits="userSpaceOnUse" x="20" y="9" width="14" height="15"><path d="M25.254 9.968a8.17 8.17 0 00-5.18 2.049l4.98 4.988a5.164 5.164 0 012.293-.54 5.078 5.078 0 015.075 5.092c0 .61-.113 1.203-.314 1.753a13.944 13.944 0 001.552-4.579c.009-.191.018-.392.018-.566.009-4.448-3.532-8.067-7.953-8.197h-.471z" fill="#fff"/></mask><g mask="url(#prefix__g)"><path d="M33.687 9.968H20.074v13.35h13.613V9.968z" fill="url(#prefix__ncb_vnd_paint6_linear)"/></g></g><defs><linearGradient id="prefix__ncb_vnd_paint0_linear" x1="19.827" y1="28.811" x2="19.814" y2="36.148" gradientUnits="userSpaceOnUse"><stop stop-color="#20366A"/><stop offset=".26" stop-color="#1D3B73"/><stop offset=".69" stop-color="#18498B"/><stop offset="1" stop-color="#1357A2"/></linearGradient><linearGradient id="prefix__ncb_vnd_paint1_linear" x1="3.727" y1="31.035" x2="34.72" y2="31.089" gradientUnits="userSpaceOnUse"><stop stop-color="#676D94"/><stop offset=".06" stop-color="#6F759A"/><stop offset=".17" stop-color="#888DAB"/><stop offset=".3" stop-color="#B0B3C7"/><stop offset=".45" stop-color="#E6E7EE"/><stop offset=".52" stop-color="#fff"/><stop offset=".59" stop-color="#DFE1E9"/><stop offset=".73" stop-color="#ACAFC4"/><stop offset=".84" stop-color="#868BAA"/><stop offset=".94" stop-color="#6F7599"/><stop offset="1" stop-color="#676D94"/></linearGradient><linearGradient id="prefix__ncb_vnd_paint2_linear" x1="5.441" y1="30.591" x2="35.751" y2="30.644" gradientUnits="userSpaceOnUse"><stop stop-color="#60658F"/><stop offset=".17" stop-color="#9094B1"/><stop offset=".52" stop-color="#fff"/><stop offset="1" stop-color="#60658F"/></linearGradient><linearGradient id="prefix__ncb_vnd_paint3_linear" x1="16.421" y1="29.494" x2="21.534" y2="15.039" gradientUnits="userSpaceOnUse"><stop stop-color="#0C5DAA"/><stop offset=".19" stop-color="#0C5AA5"/><stop offset=".41" stop-color="#0E5198"/><stop offset=".63" stop-color="#114482"/><stop offset=".86" stop-color="#153163"/><stop offset="1" stop-color="#18234C"/></linearGradient><linearGradient id="prefix__ncb_vnd_paint4_linear" x1="21.154" y1="6.126" x2="21.154" y2="17.015" gradientUnits="userSpaceOnUse"><stop stop-color="#EC2227"/><stop offset=".16" stop-color="#E72126"/><stop offset=".34" stop-color="#D81F23"/><stop offset=".55" stop-color="#C01B1F"/><stop offset=".76" stop-color="#9F1619"/><stop offset=".98" stop-color="#750F11"/><stop offset="1" stop-color="#700F11"/></linearGradient><linearGradient id="prefix__ncb_vnd_paint5_linear" x1="11.988" y1="10.865" x2="14.642" y2="21.971" gradientUnits="userSpaceOnUse"><stop stop-color="#0C5DAA"/><stop offset=".17" stop-color="#0C58A3"/><stop offset=".42" stop-color="#0F4C8F"/><stop offset=".72" stop-color="#13396F"/><stop offset="1" stop-color="#18234C"/></linearGradient><linearGradient id="prefix__ncb_vnd_paint6_linear" x1="21.234" y1="16.883" x2="32.859" y2="16.883" gradientUnits="userSpaceOnUse"><stop stop-color="#700F11"/><stop offset=".71" stop-color="#C51F21"/><stop offset="1" stop-color="#EA2629"/></linearGradient><clipPath id="prefix__ncb_vnd_clip0"><path fill="#fff" d="M0 0h40v40H0z"/></clipPath></defs></svg>