<svg viewBox="0 0 40 40" xmlns="http://www.w3.org/2000/svg"><path d="M2.703 32.358l-1.572-3.441H0l2.262 4.533h.882l2.247-4.533H4.257l-1.554 3.441zM6.73 28.917H5.647v4.533H6.73v-4.533zM7.366 33.45h3.112v-.82H8.174v-1.043h2.304v-.81H8.174v-1.04h2.304v-.82H7.366v4.533zM10.966 29.738h1.162v3.712h1.161v-3.712h1.18v-.821h-3.503v.82zM17.447 28.962l-2.42 4.534h1.178l.645-1.177h2.058l.627 1.177h1.195l-2.452-4.534h-.833.002zm-.204 2.55l.627-1.373.612 1.372h-1.241.002zM27.777 28.962l-2.42 4.534h1.178l.645-1.177h2.058l.627 1.177h1.195l-2.452-4.534h-.833.002zm-.204 2.55l.627-1.373.612 1.372h-1.241.002zM24.692 30.984s.582-.232.582-.932c0-.699-.652-1.15-1.151-1.15h-2.377l-.01.035v4.49h2.096s1.674.069 1.674-1.258c0-.938-.814-1.185-.814-1.185zm-.98-1.288s.63.02.63.498c0 .477-.58.51-.58.51h-1.118l-.006-1.008h1.077-.002zm.172 2.94h-1.24l-.008-1.148h1.194s.697.024.697.566c0 .543-.645.582-.645.582h.002zM34.479 31.804l-2.397-2.915h-.938v4.544h.947v-2.838l2.355 2.822h.917V28.89h-.884v2.915zM38.85 33.426H40L38.096 30.7l1.81-1.804-1.178-.006-1.891 1.938V28.89h-.886v4.559h.886v-1.494l.592-.593 1.42 2.065z" fill="#3763AE"/><path d="M16.668 25.52h13.95L23.64 13.43l-6.972 12.09zM12.654 18.982L8.889 25.52h7.678l-3.913-6.538zM17.215 21.875l5.659-9.775-3.136-5.433-5.653 9.828 3.13 5.38z" fill="#ED2228"/></svg>