<svg viewBox="0 0 24 24" xmlns="http://www.w3.org/2000/svg">
    <rect width="24" height="24" fill="white" />
    <path transform="translate(-0.76123,-0.952026)"
        d="M15.3999 20.2723L9.03988 16.1323C8.55988 15.8323 8.1999 15.3523 8.0799 14.8123C7.9599 14.0323 8.1999 13.1923 8.6799 12.5923L16.8999 17.9323C17.5599 18.3523 17.7399 19.1923 17.3199 19.8523C16.8999 20.5123 16.0599 20.6923 15.3999 20.2723Z"
        fill="#38D200" />
    <path transform="translate(-0.76123,-0.952026)"
        d="M9.40005 11.7522C8.80005 11.3322 8.38003 10.5522 8.44003 9.83219C8.44003 9.05219 8.80005 8.33219 9.40005 7.91219L12.88 5.63219C13.54 5.21219 14.38 5.39219 14.8 6.05219C15.22 6.71219 15.04 7.55219 14.38 7.97219L11.44 9.89219L16.42 13.1322C16.96 13.4322 17.3201 13.9122 17.5001 14.5122C17.6201 15.2922 17.38 16.0722 16.9001 16.7322L9.40005 11.8122V11.7522ZM9.40005 20.5122C9.70005 20.5122 9.94004 20.4522 10.18 20.2722L11.86 19.1922L10.18 18.1122C9.94004 17.9322 9.70005 17.8722 9.40005 17.8722C8.68005 17.8722 8.02002 18.4722 8.02002 19.1922C8.02002 19.9122 8.62003 20.5722 9.34003 20.5722L9.40005 20.5122Z"
        fill="#0473EA" />
    <path transform="translate(-0.76123,-0.952026)"
        d="M15.8946 8.33215C15.5946 8.33215 15.4 8.51215 15.16 8.69215L13.48 9.77215L15.16 10.8522C15.4 11.0322 15.64 11.0922 15.94 11.0922C16.66 11.0922 17.32 10.4922 17.32 9.71215C17.32 8.93215 16.72 8.33215 15.94 8.33215"
        fill="#38D200" />
</svg>