<svg viewBox="0 0 40 40" xmlns="http://www.w3.org/2000/svg">
    <path fill-rule="evenodd" clip-rule="evenodd"
        d="M9.05692 26.1314L10.2632 24.965C10.8145 25.3405 13.0513 27.8969 13.315 27.8969H26.6243C27.1436 27.8969 29.0449 25.4763 29.7879 24.981L30.9463 26.1074L20.0176 37.0681L9.05692 26.1314ZM15.1364 20.0519L20.0176 15.2027L24.8987 20.0519L20.0495 24.9331L15.1364 20.0519ZM10.2712 15.1548L9.12083 14.0284L20.0495 3.05972L30.9782 13.9644L29.8039 15.1708C29.2447 14.7793 26.888 12.111 26.6243 12.111H13.4428C13.1712 12.111 10.8304 14.7793 10.2712 15.1548ZM4 9.45077V18.574C4 18.7657 5.25424 19.9401 5.39804 20.0359C5.19832 20.3235 4 21.3221 4 21.5538V30.685C4 30.8608 4.91871 31.6916 5.09447 31.8754L12.6679 39.4488C12.8037 39.5766 13.1232 40 13.315 40H26.8161C27.0158 40 27.3273 39.5606 27.4871 39.4008L29.9636 36.9403C31.5295 35.4863 33.7264 33.1855 35.3481 31.5558C35.4839 31.42 35.8754 31.1244 35.8754 30.9327V21.3621C35.8754 21.1384 34.8448 20.2996 34.6691 20.0359C34.8608 19.9081 35.8754 18.9654 35.8754 18.7657V9.25904C35.8754 9.05133 33.7823 7.0701 33.6065 6.89435L27.2714 0.559217C27.1356 0.423407 26.8161 0 26.6243 0H13.4428C13.2351 0 11.2299 2.12502 11.0541 2.30078L4.55922 8.79569C4.42341 8.9315 4 9.25904 4 9.45077Z"
        fill="#EB1D24" />
</svg>