<svg viewBox="0 0 40 40" xmlns="http://www.w3.org/2000/svg"><path fill-rule="evenodd" clip-rule="evenodd" d="M9.057 26.131l1.206-1.166c.552.375 2.788 2.932 3.052 2.932h13.31c.519 0 2.42-2.42 3.163-2.916l1.158 1.126-10.928 10.961L9.057 26.131zm6.08-6.08l4.88-4.848 4.882 4.849-4.85 4.881-4.913-4.881zm-4.866-4.896l-1.15-1.127L20.049 3.06l10.93 10.904-1.175 1.207c-.56-.392-2.916-3.06-3.18-3.06H13.443c-.272 0-2.613 2.668-3.172 3.044zM4 9.45v9.123c0 .192 1.254 1.366 1.398 1.462-.2.287-1.398 1.286-1.398 1.518v9.131c0 .176.919 1.007 1.094 1.19l7.574 7.574c.136.128.455.551.647.551h13.501c.2 0 .511-.44.671-.6l2.477-2.46c1.566-1.454 3.762-3.755 5.384-5.384.136-.136.527-.432.527-.623v-9.57c0-.225-1.03-1.063-1.206-1.327.192-.128 1.206-1.07 1.206-1.27V9.259c0-.208-2.093-2.189-2.269-2.365L27.271.56C27.136.423 26.816 0 26.624 0H13.443c-.208 0-2.213 2.125-2.389 2.3L4.56 8.797C4.423 8.932 4 9.259 4 9.45z" fill="#EB1D24"/></svg>