<svg viewBox="0 0 40 40" xmlns="http://www.w3.org/2000/svg"><path d="M40 20A20 20 0 11-.001 20 20 20 0 0140 20z" fill="#fff"/><path d="M20.026 39.062A19.054 19.054 0 1020.014.955a19.054 19.054 0 00.012 38.107z" fill="#0869AB"/><mask id="prefix__a" style="mask-type:luminance" maskUnits="userSpaceOnUse" x="0" y="0" width="40" height="40"><path d="M.966 20.014a19.05 19.05 0 1038.102.006 19.05 19.05 0 00-38.102-.006z" fill="#fff"/></mask><g mask="url(#prefix__a)"><path d="M20.187 29.195c8.382 0 15.551 2.34 18.637 5.653a19.392 19.392 0 001.587-7.705c0-10.94-9.068-19.787-20.224-19.787S-.023 16.211-.023 27.149c0 2.648.54 5.268 1.59 7.7 3.08-3.31 10.258-5.654 18.62-5.654z" fill="#0869AB"/><path d="M20.187 29.218c8.36 0 15.512 2.32 18.586 5.608a19.08 19.08 0 001.584-7.651c0-10.85-9.034-19.654-20.17-19.654C9.051 7.52.026 16.33.026 27.18a19.125 19.125 0 001.59 7.65c3.068-3.292 10.226-5.613 18.571-5.613z" fill="#0D6BAD"/><path d="M20.187 29.238c8.34 0 15.472 2.303 18.54 5.556a18.854 18.854 0 001.58-7.577c0-10.768-9.012-19.524-20.12-19.524S.068 16.458.068 27.22c0 2.607.54 5.186 1.587 7.575 3.057-3.256 10.201-5.557 18.524-5.557" fill="#0F6EAD"/><path d="M20.187 29.271c8.32 0 15.432 2.284 18.493 5.515a18.647 18.647 0 001.572-7.52c0-10.675-8.985-19.391-20.065-19.391C9.107 7.875.13 16.596.13 27.27c.001 2.588.54 5.147 1.584 7.515 3.044-3.248 10.165-5.515 18.473-5.515z" fill="#1270B0"/><path d="M20.187 29.271c8.297 0 15.396 2.267 18.445 5.47a18.418 18.418 0 001.564-7.453c0-10.587-8.966-19.269-20.017-19.269C9.127 8.019.173 16.696.173 27.288c0 2.566.536 5.104 1.575 7.45 3.05-3.2 10.148-5.466 18.44-5.466z" fill="#1473B2"/><path d="M20.187 29.303c8.274 0 15.353 2.244 18.393 5.423a18.135 18.135 0 001.567-7.396c0-10.501-8.94-19.127-19.963-19.127C9.161 8.203.232 16.837.232 27.336c.001 2.547.537 5.066 1.573 7.393 3.032-3.18 10.12-5.424 18.38-5.424" fill="#1775B2"/><path d="M20.187 29.323c8.255 0 15.302 2.227 18.348 5.384A17.932 17.932 0 0040.1 27.37c0-10.41-8.92-18.985-19.912-18.985-10.992 0-19.9 8.591-19.9 19.002a17.982 17.982 0 001.566 7.334c3.03-3.154 10.094-5.384 18.334-5.384" fill="#1A78B5"/><path d="M20.17 29.345c8.232 0 15.273 2.208 18.3 5.333a17.643 17.643 0 001.553-7.277c0-10.323-8.895-18.863-19.861-18.863C9.195 8.538.326 17.087.326 27.41c0 2.506.534 4.984 1.567 7.268 3.02-3.117 10.068-5.333 18.283-5.333" fill="#1C7AB5"/><path d="M20.17 29.365c8.218 0 15.234 2.187 18.249 5.285a17.323 17.323 0 001.561-7.212c0-10.232-8.872-18.733-19.81-18.733-10.938 0-19.799 8.5-19.799 18.739a17.385 17.385 0 001.562 7.211c3.012-3.1 10.04-5.285 18.234-5.285" fill="#1C7DB8"/><path d="M20.167 29.387c8.19 0 15.194 2.171 18.204 5.243a17.147 17.147 0 001.555-7.15c0-10.147-8.852-18.605-19.759-18.605S.42 17.339.42 27.48c0 2.468.532 4.906 1.559 7.15 3.006-3.072 10.02-5.243 18.19-5.243z" fill="#1F80B8"/><path d="M20.165 29.408c8.169 0 15.157 2.15 18.158 5.194a16.879 16.879 0 001.55-7.084c0-10.06-8.824-18.473-19.708-18.473C9.28 9.045.468 17.464.468 27.52a16.943 16.943 0 001.555 7.085c2.998-3.044 9.992-5.194 18.136-5.194" fill="#2182BA"/><path d="M20.159 29.43c8.144 0 15.114 2.131 18.107 5.149a16.665 16.665 0 001.55-7.025c0-9.971-8.804-18.342-19.654-18.342S.519 17.588.519 27.572c0 2.425.528 4.821 1.55 7.021 2.986-3.018 9.963-5.149 18.09-5.149" fill="#2485BA"/><path d="M20.159 29.45c8.124 0 15.075 2.11 18.059 5.1a16.371 16.371 0 001.544-6.965c0-9.88-8.784-18.206-19.6-18.206S.57 17.709.57 27.588a16.481 16.481 0 001.55 6.962c2.978-2.992 9.937-5.1 18.044-5.1" fill="#298ABD"/><path d="M20.156 29.473c8.101 0 15.032 2.091 18.01 5.058a16.171 16.171 0 001.54-6.903c0-9.796-8.754-18.076-19.553-18.076C9.354 9.552.601 17.841.601 27.628c0 2.386.527 4.743 1.541 6.903 2.976-2.967 9.918-5.058 17.997-5.058" fill="#2B8CBF"/><path d="M20.153 29.493c8.082 0 14.996 2.074 17.965 5.012a15.95 15.95 0 001.533-6.84c0-9.705-8.73-17.943-19.498-17.943S.663 17.965.663 27.665a16.02 16.02 0 001.539 6.84c2.967-2.938 9.89-5.012 17.948-5.012" fill="#2E8FBF"/><path d="M20.15 29.515c8.06 0 14.956 2.055 17.918 4.968a15.719 15.719 0 001.532-6.781c0-9.618-8.707-17.81-19.45-17.81-10.742 0-19.436 8.2-19.436 17.815 0 2.345.524 4.66 1.533 6.776 2.956-2.913 9.861-4.968 17.903-4.968z" fill="#2E91C2"/><path d="M20.147 29.535c8.04 0 14.917 2.034 17.87 4.92a15.458 15.458 0 001.527-6.717c0-9.526-8.688-17.679-19.397-17.679C9.44 10.06.762 18.22.762 27.74c.001 2.325.525 4.62 1.533 6.715 2.95-2.885 9.836-4.92 17.852-4.92z" fill="#3394C2"/><path d="M20.145 29.555c8.016 0 14.876 2.018 17.82 4.874a15.201 15.201 0 001.528-6.656c0-9.44-8.663-17.546-19.346-17.546-10.682 0-19.334 8.11-19.334 17.548a15.302 15.302 0 001.522 6.66c2.944-2.86 9.807-4.874 17.807-4.874" fill="#3396C2"/><path d="M20.142 29.58c7.994 0 14.837 1.984 17.77 4.817a14.93 14.93 0 001.521-6.59c0-9.352-8.637-17.416-19.294-17.416S.87 18.455.87 27.806a15.035 15.035 0 001.527 6.591c2.933-2.833 9.78-4.817 17.756-4.817" fill="#3699C4"/><path d="M20.139 29.6c7.977 0 14.8 1.984 17.725 4.786a14.718 14.718 0 001.518-6.531c0-9.266-8.614-17.286-19.243-17.286-10.63 0-19.22 8.022-19.22 17.286 0 2.259.518 4.488 1.512 6.517 2.925-2.808 9.757-4.786 17.708-4.786" fill="#389CC7"/><path d="M20.136 29.623c7.954 0 14.758 1.96 17.674 4.738.999-2.01 1.519-4.225 1.518-6.47 0-9.178-8.594-17.152-19.192-17.152S.958 18.72.958 27.891c0 2.249.52 4.467 1.519 6.481 2.918-2.777 9.728-4.738 17.662-4.738" fill="#3DA1C9"/><path d="M20.136 29.646c7.934 0 14.735 1.938 17.625 4.69a14.248 14.248 0 001.514-6.407c0-9.088-8.57-17.022-19.139-17.022-10.57 0-19.127 7.934-19.127 17.022a14.387 14.387 0 001.51 6.407c2.913-2.752 9.706-4.69 17.617-4.69z" fill="#40A3C9"/><path d="M20.13 29.665c7.91 0 14.682 1.919 17.57 4.648a14.088 14.088 0 001.507-6.348c0-9-8.544-16.891-19.088-16.891S1.046 18.965 1.046 27.965c0 2.205.517 4.378 1.507 6.348 2.905-2.726 9.68-4.648 17.569-4.648" fill="#42A6CC"/><path d="M20.13 29.685c7.89 0 14.64 1.902 17.532 4.597a13.798 13.798 0 001.502-6.283c0-8.912-8.52-16.76-19.034-16.76-10.512 0-19.02 7.848-19.02 16.758 0 2.184.515 4.337 1.503 6.285 2.893-2.698 9.651-4.597 17.517-4.597z" fill="#45A8CC"/><path d="M20.125 29.708c7.869 0 14.599 1.878 17.486 4.553a13.601 13.601 0 001.5-6.234c0-8.824-8.502-16.628-18.986-16.628-10.485 0-18.972 7.807-18.972 16.628a13.67 13.67 0 001.5 6.234c2.887-2.675 9.634-4.553 17.469-4.553" fill="#47ABCF"/><path d="M20.125 29.73c7.846 0 14.562 1.863 17.435 4.51a13.369 13.369 0 001.5-6.161c0-8.736-8.476-16.495-18.935-16.495-10.46 0-18.923 7.77-18.923 16.492a13.468 13.468 0 001.499 6.16c2.873-2.643 9.594-4.508 17.42-4.508" fill="#4AADD1"/><path d="M20.122 29.75c7.824 0 14.52 1.845 17.387 4.463a13.125 13.125 0 001.496-6.095c0-8.648-8.455-16.367-18.883-16.367-10.428 0-18.87 7.719-18.87 16.361a13.25 13.25 0 001.497 6.101c2.867-2.618 9.572-4.463 17.373-4.463z" fill="#4AB0D1"/><path d="M20.12 29.773c7.8 0 14.482 1.822 17.341 4.418a12.965 12.965 0 001.488-6.053c0-8.558-8.43-16.231-18.83-16.231-10.4 0-18.815 7.673-18.815 16.228a13.035 13.035 0 001.49 6.041c2.862-2.595 9.544-4.417 17.325-4.417" fill="#4FB2D4"/><path d="M20.116 29.793c7.779 0 14.452 1.805 17.286 4.373a12.69 12.69 0 001.487-5.977c0-8.472-8.407-16.1-18.778-16.1-10.372 0-18.765 7.628-18.765 16.097a12.825 12.825 0 001.485 5.98c2.856-2.568 9.521-4.373 17.285-4.373z" fill="#54BAD6"/><path d="M20.113 29.816c7.759 0 14.404 1.785 17.24 4.324a12.467 12.467 0 001.485-5.911c0-8.382-8.382-15.968-18.725-15.968-10.342 0-18.702 7.586-18.702 15.968.001 2.063.51 4.094 1.482 5.914 2.834-2.55 9.496-4.324 17.232-4.324" fill="#54BDD6"/><path d="M20.11 29.838c7.736 0 14.364 1.766 17.198 4.28a12.295 12.295 0 001.482-5.852c0-8.297-8.36-15.838-18.677-15.838S1.451 19.968 1.451 28.26c.002 2.044.51 4.057 1.48 5.857 2.833-2.513 9.466-4.279 17.182-4.279" fill="#59BFD9"/><path d="M20.108 29.858c7.716 0 14.321 1.745 17.146 4.234a12.054 12.054 0 001.477-5.79c0-8.217-8.337-15.704-18.626-15.704-10.29 0-18.62 7.498-18.62 15.699 0 2.024.507 4.016 1.473 5.795 2.834-2.488 9.442-4.234 17.136-4.234" fill="#59C2D9"/><path d="M20.108 29.907c7.702 0 14.304 1.736 17.126 4.205a11.946 11.946 0 001.474-5.753c0-8.152-8.325-15.608-18.6-15.608-10.275 0-18.583 7.453-18.583 15.606.003 2.01.51 3.99 1.473 5.755 2.834-2.469 9.43-4.206 17.113-4.206" fill="#5EC2DB"/><path d="M20.108 29.954c7.693 0 14.284 1.726 17.098 4.177a11.783 11.783 0 001.474-5.715c0-8.102-8.312-15.512-18.572-15.512-10.261 0-18.56 7.413-18.56 15.509.003 2 .509 3.965 1.47 5.718 2.834-2.45 9.416-4.177 17.09-4.177z" fill="#63C4DB"/><path d="M20.108 30.002c7.685 0 14.264 1.715 17.078 4.152a11.696 11.696 0 001.47-5.668c0-8.047-8.302-15.415-18.548-15.415-10.247 0-18.532 7.368-18.532 15.413a11.78 11.78 0 001.467 5.667C5.863 31.717 12.448 30 20.108 30" fill="#69C7DE"/><path d="M20.108 30.05c7.673 0 14.247 1.7 17.053 4.126a11.58 11.58 0 001.468-5.639c0-7.996-8.292-15.318-18.524-15.318-10.232 0-18.507 7.325-18.507 15.301.002 1.977.506 3.92 1.465 5.648 2.817-2.423 9.391-4.126 17.042-4.126" fill="#6EC9DE"/><path d="M20.108 30.099c7.65 0 14.228 1.7 17.03 4.097a11.465 11.465 0 001.468-5.602c0-7.934-8.28-15.222-18.498-15.222-10.218 0-18.481 7.282-18.481 15.22a11.57 11.57 0 001.465 5.607c2.81-2.409 9.376-4.097 17.019-4.097" fill="#73CCE0"/><path d="M20.108 30.15c7.65 0 14.205 1.68 17.002 4.07a11.359 11.359 0 001.465-5.566c0-7.889-8.272-15.126-18.473-15.126C9.901 13.528 1.65 20.77 1.65 28.65c.004 1.95.509 3.868 1.465 5.568 2.806-2.389 9.351-4.069 17.002-4.069" fill="#7ACFE0"/><path d="M20.108 30.198c7.65 0 14.188 1.67 16.985 4.044a11.216 11.216 0 001.462-5.526c0-7.835-8.257-15.018-18.447-15.018S1.689 20.892 1.689 28.716c.005 1.938.508 3.841 1.46 5.529C5.95 31.87 12.498 30.2 20.121 30.2" fill="#80CFE3"/><path d="M20.108 30.246c7.63 0 14.168 1.658 16.96 4.016a11.111 11.111 0 001.461-5.486c0-7.784-8.248-14.934-18.418-14.934S1.69 20.992 1.69 28.767c.006 1.927.508 3.82 1.46 5.495 2.797-2.358 9.351-4.016 16.951-4.016" fill="#85D1E3"/><path d="M20.108 30.294c7.622 0 14.148 1.647 16.937 3.987a10.99 10.99 0 001.459-5.452c0-7.73-8.235-14.837-18.396-14.837-10.162 0-18.382 7.107-18.382 14.832a11.034 11.034 0 001.46 5.457c2.79-2.34 9.325-3.987 16.925-3.987" fill="#8AD4E5"/><path d="M20.108 30.343c7.608 0 14.131 1.635 16.914 3.967a10.868 10.868 0 001.46-5.412c0-7.677-8.218-14.735-18.374-14.735-10.156 0-18.36 7.064-18.36 14.735.006 1.9.507 3.767 1.454 5.415 2.791-2.327 9.317-3.967 16.906-3.967" fill="#8FD6E5"/><path d="M20.108 30.39c7.6 0 14.111 1.624 16.891 3.93a10.726 10.726 0 001.454-5.383c0-7.625-8.218-14.642-18.345-14.642-10.128 0-18.34 7.042-18.34 14.65.005 1.891.506 3.747 1.451 5.384 2.786-2.309 9.3-3.933 16.88-3.933" fill="#94D6E8"/><path d="M20.108 30.439c7.588 0 14.092 1.612 16.869 3.902a10.618 10.618 0 001.45-5.336c0-7.571-8.203-14.545-18.32-14.545-10.115 0-18.305 6.976-18.305 14.542.005 1.878.504 3.72 1.445 5.345 2.783-2.293 9.29-3.905 16.86-3.905" fill="#99D9E8"/><path d="M20.108 30.487c7.58 0 14.072 1.601 16.846 3.876a10.516 10.516 0 001.45-5.299c0-7.52-8.191-14.451-18.296-14.451-10.105 0-18.283 6.934-18.283 14.451a10.578 10.578 0 001.448 5.308c2.777-2.267 9.274-3.877 16.835-3.877" fill="#9EDBE8"/><path d="M20.108 30.535c7.569 0 14.055 1.59 16.82 3.848a10.394 10.394 0 001.451-5.262c0-7.461-8.18-14.352-18.268-14.352-10.088 0-18.258 6.891-18.258 14.35.007 1.852.506 3.67 1.445 5.267 2.769-2.267 9.264-3.85 16.813-3.85" fill="#A3DEEB"/><path d="M20.108 30.586c7.56 0 14.038 1.581 16.798 3.82a10.28 10.28 0 001.448-5.223c0-7.413-8.17-14.256-18.246-14.256-10.077 0-18.232 6.846-18.232 14.254.008 1.84.506 3.644 1.442 5.228 2.769-2.245 9.255-3.823 16.79-3.823z" fill="#A8DEED"/><path d="M20.108 30.634c7.546 0 14.015 1.57 16.775 3.792a10.17 10.17 0 001.445-5.186c0-7.367-8.158-14.168-18.22-14.168-10.063 0-18.207 6.8-18.207 14.168a10.201 10.201 0 001.443 5.191c2.765-2.227 9.238-3.794 16.764-3.797z" fill="#B0E3ED"/><path d="M20.108 30.689c7.537 0 13.995 1.558 16.752 3.766a10.065 10.065 0 001.443-5.146c0-7.308-8.147-14.064-18.195-14.064S1.924 22.006 1.924 29.303a10.128 10.128 0 001.44 5.154c2.76-2.21 9.226-3.766 16.744-3.768z" fill="#B5E3ED"/><path d="M20.108 30.73c7.526 0 13.978 1.548 16.718 3.738a9.955 9.955 0 001.443-5.1c0-7.257-8.141-13.97-18.173-13.97-10.03 0-18.158 6.719-18.158 13.964a9.974 9.974 0 001.437 5.1c2.757-2.192 9.215-3.737 16.719-3.74" fill="#BAE5F0"/><path d="M20.108 30.779c7.517 0 13.958 1.536 16.718 3.712a9.833 9.833 0 001.437-5.072c0-7.2-8.124-13.871-18.135-13.871-10.012 0-18.136 6.673-18.136 13.868a9.89 9.89 0 001.417 5.078c2.754-2.176 9.2-3.712 16.699-3.712" fill="#BFE8F2"/><path d="M20.108 30.827c7.506 0 13.939 1.528 16.679 3.684a9.7 9.7 0 001.44-5.035c0-7.15-8.116-13.772-18.12-13.772-10.002 0-18.11 6.63-18.11 13.772a9.793 9.793 0 001.435 5.038c2.751-2.162 9.192-3.684 16.676-3.684" fill="#C4E8F2"/><path d="M20.108 30.875c7.498 0 13.919 1.514 16.659 3.656a9.597 9.597 0 001.436-4.996c0-7.084-8.104-13.678-18.095-13.678-9.992 0-18.082 6.585-18.082 13.678a9.657 9.657 0 001.417 4.999c2.746-2.145 9.178-3.659 16.65-3.659" fill="#C9EBF2"/><path d="M20.108 30.923c7.483 0 13.902 1.5 16.636 3.63a9.53 9.53 0 001.417-4.958c0-7.042-8.093-13.582-18.067-13.582-9.975 0-18.042 6.543-18.042 13.579a9.56 9.56 0 001.416 4.964c2.743-2.13 9.167-3.63 16.631-3.633" fill="#CFEDF5"/><path d="M20.108 30.972c7.475 0 13.885 1.49 16.614 3.602a9.397 9.397 0 001.416-4.92c0-6.993-8.084-13.488-18.042-13.488-9.957 0-18.016 6.503-18.016 13.485a9.442 9.442 0 001.417 4.928c2.737-2.114 9.153-3.601 16.608-3.604" fill="#D4F0F5"/><path d="M20.108 31.022c7.46 0 13.862 1.48 16.588 3.574a9.289 9.289 0 001.417-4.883c0-6.934-8.07-13.389-18.017-13.389-9.946 0-18.008 6.455-18.008 13.386A9.28 9.28 0 003.505 34.6c2.73-2.097 9.139-3.574 16.583-3.577" fill="#D9F2F5"/><path d="M20.108 31.071c7.455 0 13.845 1.468 16.565 3.548a9.148 9.148 0 001.417-4.843c0-6.883-8.062-13.296-17.994-13.296s-17.98 6.413-17.98 13.29c.01 1.718.501 3.399 1.418 4.852 2.731-2.08 9.127-3.548 16.56-3.548" fill="#DEF2F7"/><path d="M20.108 31.12c7.444 0 13.825 1.456 16.543 3.519a9.068 9.068 0 001.416-4.818c0-6.826-8.047-13.196-17.965-13.196S2.154 23.004 2.154 29.838a9.102 9.102 0 001.417 4.818c2.723-2.066 9.113-3.52 16.534-3.523" fill="#E5F5FA"/><path d="M20.108 31.167c7.432 0 13.805 1.445 16.517 3.491a8.934 8.934 0 001.417-4.769c0-6.775-8.04-13.1-17.94-13.1-9.9 0-17.931 6.328-17.931 13.097a8.983 8.983 0 001.416 4.775c2.72-2.049 9.102-3.494 16.515-3.494" fill="#EBF7FA"/><path d="M20.108 31.215c7.421 0 13.786 1.437 16.494 3.463a8.83 8.83 0 001.417-4.732c0-6.724-8.027-13.004-17.917-13.004-9.89 0-17.903 6.283-17.903 13.001a8.88 8.88 0 001.417 4.738c2.714-2.032 9.09-3.465 16.492-3.468" fill="#F0FAFC"/><path d="M20.108 31.255c7.41 0 13.768 1.417 16.472 3.434A8.74 8.74 0 0037.997 30c0-6.67-8.017-12.907-17.892-12.907S2.227 23.326 2.227 29.994c.016 1.67.508 3.3 1.417 4.701 2.712-2.018 9.068-3.44 16.47-3.44" fill="#F5FAFC"/><path d="M20.108 31.312c7.398 0 13.749 1.417 16.452 3.4a8.646 8.646 0 001.417-4.658c0-6.617-8.002-12.811-17.852-12.811S2.273 23.44 2.273 30.05a8.651 8.651 0 001.416 4.661c2.71-2 9.068-3.4 16.436-3.4" fill="#FAFCFF"/><path d="M20.108 31.36c7.393 0 13.729 1.402 16.435 3.383a8.534 8.534 0 001.417-4.619c0-6.568-7.994-12.717-17.852-12.717-9.859 0-17.827 6.157-17.827 12.714a8.5 8.5 0 001.417 4.625c2.703-1.984 9.048-3.384 16.418-3.386" fill="#fff"/></g><path d="M20.02 24.814c-6.467 0-12.468 1.1-17.407 2.959a19.065 19.065 0 0034.811 0c-4.95-1.86-10.955-2.959-17.404-2.959z" fill="#0869AB"/></svg>