<svg viewBox="0 0 40 40" xmlns="http://www.w3.org/2000/svg"><path fill-rule="evenodd" clip-rule="evenodd" d="M34.945 19.303c-.085-.082-.202-.098-.366-.047-.236.072-.542.274-.936.62l-.006.007a2.373 2.373 0 00-.53.703c-.157.328-.148.646.023.974.009.019.022.04.034.063.038.06.079.12.133.176a1.034 1.034 0 01.025-.36 1.468 1.468 0 01.498-.75c.107-.087.217-.166.334-.242.195-.123.39-.249.573-.394a.859.859 0 00.262-.318c.044-.104.073-.236.016-.344a.348.348 0 00-.063-.088M37.148 15.115a.518.518 0 00-.107-.199c-.07-.088-.202-.202-.552-.145a2.396 2.396 0 00-.712.25c-.139.065-.277.135-.416.204-.45.233-.901.495-1.308.816a6.523 6.523 0 00-1.034.993 3.176 3.176 0 00-.558.99c-.06.189-.1.397-.12.592-.03.366.067.734.161 1.034.013.044.029.088.041.132a2.218 2.218 0 01.11-.495c.26-.67 1.135-1.67 2.77-2.546.846-.45 1.577-.927 1.703-1.333a.592.592 0 00.016-.296" fill="#0A70B8"/><path fill-rule="evenodd" clip-rule="evenodd" d="M38.525 12.452a.61.61 0 00-.094-.218c-.041-.069-.142-.227-.587-.205-.186.013-.589.076-1.181.316-.306.126-.643.286-1.012.488-.473.255-.996.58-1.57.98-.428.303-.923.74-1.333 1.27a4.428 4.428 0 00-.677 1.198c-.17.492-.193.92-.161 1.27.031.303.11.59.17.779l.054.167s0-.227.129-.6c.019-.047.04-.097.063-.147.022-.05.044-.101.07-.152l.075-.154c.028-.057.057-.11.091-.164.035-.057.07-.117.104-.177.041-.063.082-.122.123-.182.044-.066.095-.13.142-.192.054-.07.107-.136.164-.202.063-.07.123-.139.186-.205.07-.073.135-.145.205-.211a4.94 4.94 0 01.233-.218c.085-.075.173-.148.258-.22.098-.076.193-.152.29-.22.107-.077.215-.152.322-.225.116-.075.233-.148.353-.223.126-.08.255-.152.387-.224.136-.079.275-.152.416-.224.145-.079.294-.151.442-.227.154-.079.309-.154.463-.23.454-.22.901-.416 1.298-.731.148-.117.29-.24.397-.394a.742.742 0 00.173-.526" fill="#F79121"/><path fill-rule="evenodd" clip-rule="evenodd" d="M39.9 9.316c-.048-.092-.152-.296-.7-.315-.385-.01-.785.094-1.148.204-.3.089-.592.19-.882.31-.287.116-.57.245-.848.384-.16.079-.318.164-.476.249-.3.164-.592.334-.885.51-.256.155-.508.316-.754.486-.24.164-.476.337-.696.523a7.418 7.418 0 00-.369.33 6.836 6.836 0 00-1.125 1.39c-.173.284-.318.59-.429.905a3.68 3.68 0 00-.204.965c-.067.835.186 1.434.27 1.686 0 0 .038-.473.149-.798.07-.201.16-.397.261-.58.164-.305.363-.589.58-.854a7.88 7.88 0 011.147-1.122 10.6 10.6 0 011.047-.737c.365-.227.737-.432 1.118-.627.224-.114.451-.224.678-.331.48-.227.961-.441 1.447-.65.365-.154.737-.315 1.074-.532.278-.177.593-.426.747-.725a.835.835 0 00.098-.39c0-.067-.035-.158-.094-.278" fill="#0A70B8"/><path fill-rule="evenodd" clip-rule="evenodd" d="M35.925 17.822a.476.476 0 000-.249.405.405 0 00-.098-.164c-.097-.116-.252-.148-.47-.107-.264.054-.61.227-1.036.507-.101.067-.205.14-.312.221-.42.337-.955.841-1.166 1.475v.01l-.007.021c-.053.167-.085.331-.094.47-.013.195.016.422.079.652a1.91 1.91 0 01.11-.123c.3-.702 1.015-1.288 2.27-1.96.484-.261.68-.567.724-.753zM34.163 22.231c-.056 0-.116-.019-.167-.035a.982.982 0 01-.189-.085 4.2 4.2 0 01-.249-.154c-.205-.139-.151-.369-.126-.45.038-.13.095-.243.183-.357l.025.016.066.04c.07.045.145.09.218.133.006.007.01.01.012.01l.01.006.01.006c.053.035.125.082.195.136.05.04.094.082.129.123.11.135.151.381.019.548a.103.103 0 01-.038.035.18.18 0 01-.044.015c-.02.007-.035.007-.057.007" fill="#F79121"/><path fill-rule="evenodd" clip-rule="evenodd" d="M19.26 16.943a.766.766 0 00-.089-.007l-1.1.007h-1.34c-.314 0-.595.176-.699.444-.132.337-.378.93-.7 1.714l-.51 1.252-.684 1.698c-.258.65-.558 1.39-.898 2.222l-.353.873c-.123-.302-.243-.592-.356-.873a1207.7 1207.7 0 01-1.582-3.92L10.44 19.1c-.324-.784-.567-1.377-.7-1.714-.107-.268-.384-.444-.7-.444H5.838c-.41 0-.744.299-.744.67v.354c0 .369.33.668.744.668.368 0 .655.07.854.202.12.082.36.308.618.945l4.084 9.953c.11.262.384.438.696.438h1.595c.177 0 .35-.06.48-.158a.653.653 0 00.217-.28l3.615-8.806.472-1.147c.057-.139.11-.255.161-.356l.807-1.916.066-.16c.079-.222-.016-.376-.246-.404M30.933 24.547a3.34 3.34 0 00-.876-1.131 3.778 3.778 0 00-.678-.45 3.2 3.2 0 00.933-1.125c.199-.395.3-.867.3-1.406 0-.11 0-.218-.013-.319-.05-.718-.287-1.295-.684-1.743-.684-.784-1.69-1.418-3.31-1.418-.355-.019-.67-.012-.954-.01-.16-.002-.312-.006-.404-.006h-4.762c-.406 0-.737.3-.737.669v.353c0 .368.33.668.737.668.234 0 .813 0 .892.164.02.053.013.189.013.447l-.006 10.177s0 .015.003.025v.053c0 .37.33.668.737.668h3.37c.52 0 1.09-.031 1.698-.09a6.507 6.507 0 001.866-.464c.614-.259 1.137-.804 1.55-1.311.438-.533.662-1.242.662-2.115 0-.63-.113-1.182-.337-1.639m-6.25-5.537c.098-.013.218-.032.52-.032.334 0 .653.032.943.092.252.05.46.132.636.249.155.104.28.242.375.425.013.025.026.05.035.076.076.189.113.435.113.728 0 .416-.075.731-.22.917a1.402 1.402 0 01-.577.448c-.262.107-.542.17-.832.189-.36.022-.725.031-.996.031v-.438c0-.82-.016-2.487 0-2.61.003-.034-.003-.06 0-.078m3.092 8.04a1.46 1.46 0 01-.501.516 2.503 2.503 0 01-.782.31c-.321.069-.662.103-1.005.103-.366 0-.615-.012-.804-.038-.012 0 .01-.003 0-.006 0-.044.006-2.672 0-3.514v-.255c.385 0 .86.019 1.302.056.372.035.715.123 1.024.265.28.13.507.315.697.577.176.246.264.62.264 1.119 0 .356-.063.646-.192.863M4.154 16.936h-3.4c-.417 0-.754.303-.754.678v.36c0 .374.337.677.753.677.659 0 .82 0 .867.082.047.082.019.368.019.7v10.053c0 .375.34.677.753.677h1.762c.416 0 .753-.302.753-.677V17.614c0-.372-.337-.678-.75-.678" fill="#0A70B8"/></svg>