<svg viewBox="0 0 24 24" xmlns="http://www.w3.org/2000/svg">
    <rect width="24" height="24" fill="#06377B" />
    <path
        d="M11.6395 6.41995V11.4599H12.7195V6.41995C12.7195 6.05995 12.9595 5.81995 13.3195 5.81995C13.6795 5.81995 13.9195 6.05995 13.9195 6.41995V11.4599H14.9995V6.41995C14.9995 6.05995 15.2395 5.81995 15.5995 5.81995C15.9595 5.81995 16.1995 6.05995 16.1995 6.41995V11.4599H17.7595C18.1195 11.4599 18.3595 11.6999 18.3595 12.0599C18.3595 12.4199 18.0595 12.6599 17.7595 12.6599H16.1995V17.6999C16.1995 18.0599 15.9595 18.2999 15.5995 18.2999C15.2395 18.2999 14.9995 18.0599 14.9995 17.6999V12.6599H13.9195V17.6999C13.9195 18.0599 13.6795 18.2999 13.3195 18.2999C12.9595 18.2999 12.7195 18.0599 12.7195 17.6999V12.6599H11.6395V17.6999C11.6395 18.0599 11.3995 18.2999 11.0395 18.2999C10.6795 18.2999 10.4395 18.0599 10.4395 17.6999V12.6599H9.3595V17.6999C9.3595 18.0599 9.1195 18.2999 8.7595 18.2999C8.3995 18.2999 8.1595 18.0599 8.1595 17.6999V12.6599H6.59951C6.23951 12.6599 5.99951 12.4199 5.99951 12.0599C5.99951 11.6999 6.23951 11.4599 6.59951 11.4599H8.1595V6.41995C8.1595 6.05995 8.3995 5.81995 8.7595 5.81995C9.1195 5.81995 9.3595 6.05995 9.3595 6.41995V11.4599H10.4395V6.41995C10.4395 6.05995 10.6795 5.81995 11.0395 5.81995C11.3995 5.81995 11.6395 6.11995 11.6395 6.41995Z"
        fill="#ED1C24" />
</svg>