<svg viewBox="0 0 40 40" xmlns="http://www.w3.org/2000/svg"><path d="M.008 19.685c-.002-.059-.005-.118-.005-.177 0-1.346-.008-2.691.004-4.037.005-.594.224-1.12.6-1.583a2.286 2.286 0 011.246-.802c.167-.042.342-.083.513-.083 11.746-.004 23.492-.005 35.239 0 .592 0 1.108.24 1.546.643.456.42.707.95.814 1.552.024.139.031.282.032.423.002 1.345 0 2.691-.015 4.05-2.43.014-4.843.014-7.257.014-.059 0-.118-.003-.17-.012.181-.124.372-.223.531-.359.743-.635.796-1.622.138-2.34a2.397 2.397 0 00-1.065-.661c-.59-.189-1.204-.193-1.813-.198-1.42-.012-2.84-.004-4.259-.004h-.17v.189a280.954 280.954 0 01-.019 3.385c-.812-.001-1.61-.003-2.405-.013.44-.448.615-.982.541-1.587-.11-.905-.654-1.462-1.494-1.74-.638-.212-1.309-.225-1.973-.23-1.464-.012-2.928-.004-4.393-.004h-.172v2.17c-.001.468-.005.936-.02 1.404-.875 0-1.738-.001-2.6-.012.535-1.19 1.067-2.368 1.607-3.562-.696 0-1.36.002-2.026-.003-.094 0-.114.053-.14.117-.181.436-.361.872-.544 1.306-.302.72-.607 1.439-.924 2.156-.617 0-1.22 0-1.829-.008-.518-1.194-1.03-2.38-1.54-3.563H5.822l.31.693c.43.958.86 1.916 1.276 2.875l-7.401.001z" fill="red"/><path d="M.006 19.699c2.464-.014 4.927-.014 7.409-.006a.123.123 0 01.04.047c.61 1.353 1.22 2.705 1.828 4.058.036.081.071.12.168.12.636-.005 1.271-.004 1.907 0 .081 0 .12-.026.153-.1.204-.463.414-.924.622-1.385l1.249-2.75c.862 0 1.725.001 2.603.016.016 1.41.016 2.808.016 4.21h1.99v-3.247c.238 0 .463.005.689 0 .669-.017 1.211.228 1.644.745.676.808 1.369 1.603 2.051 2.406a.261.261 0 00.223.105c.7-.005 1.4-.002 2.1-.003.041 0 .083-.005.14-.008-.024-.035-.035-.056-.05-.074l-1.43-1.807c-.494-.624-1.049-1.175-1.79-1.507-.015-.007-.027-.02-.035-.026.347-.09.694-.17 1.034-.272.349-.104.65-.3.922-.54.799.001 1.597.003 2.412.018.015 1.411.015 2.81.015 4.216h.103c1.562-.004 3.124-.002 4.686-.019a9.63 9.63 0 001.425-.106c.77-.124 1.394-.503 1.782-1.205.4-.726.324-1.515-.19-2.07-.292-.317-.656-.514-1.058-.649-.103-.034-.207-.064-.339-.105l.223-.08c.06 0 .118.004.177.004h7.255a.827.827 0 01.018.192c0 1.291.006 2.583-.002 3.874-.005.832-.321 1.534-.955 2.077-.34.292-.739.472-1.19.512-.19.017-.382.03-.573.03-11.617 0-23.235.002-34.853-.003-.787 0-1.42-.344-1.892-.978A2.68 2.68 0 010 23.719c.009-1.335.004-2.67.006-4.02z" fill="#0E3193"/><path d="M32.554 19.673c-.07.03-.134.054-.229.088.132.04.236.071.339.105.402.135.766.332 1.058.648.514.556.59 1.346.19 2.071-.388.702-1.012 1.08-1.782 1.205a9.63 9.63 0 01-1.425.106c-1.562.017-3.124.015-4.686.02h-.103c0-1.408 0-2.806-.002-4.217 0-1.142.001-2.27.003-3.4v-.188h.17c1.42 0 2.84-.009 4.259.003.608.005 1.222.01 1.813.198.41.131.771.342 1.065.663.658.717.605 1.704-.138 2.34-.159.135-.35.234-.532.358zm-4.64 2.305v.603c.037.004.056.008.075.008.916-.003 1.833-.002 2.75-.012.326-.004.647-.049.935-.228a.902.902 0 00.08-1.489 1.314 1.314 0 00-.778-.282c-1.01-.03-2.019-.043-3.028-.062-.009 0-.018.009-.034.018v1.444zm.06-2.766c.813-.005 1.625-.008 2.437-.016.337-.004.669-.046.961-.235a.748.748 0 00.368-.708c-.017-.307-.16-.546-.443-.66a1.902 1.902 0 00-.64-.15c-.875-.024-1.751-.023-2.627-.03-.034 0-.067.005-.105.008-.004.029-.01.052-.01.076-.001.541-.002 1.083 0 1.625 0 .03.02.059.06.09z" fill="#FEFEFE"/><path d="M23.493 19.672c-.276.25-.577.445-.926.55-.34.102-.687.181-1.034.27.008.007.02.02.036.027.74.332 1.295.883 1.79 1.507l1.43 1.807c.014.019.025.039.049.074-.057.003-.099.008-.14.008-.7 0-1.4-.002-2.1.003a.26.26 0 01-.223-.105c-.682-.803-1.375-1.598-2.05-2.406-.434-.517-.976-.762-1.645-.745-.226.005-.451 0-.69 0v3.247H16c0-1.401 0-2.799-.002-4.21 0-.482.003-.95.004-1.418v-1.997-.173h.172c1.465 0 2.929-.009 4.393.003.664.006 1.334.02 1.973.23.84.279 1.384.836 1.494 1.741a1.845 1.845 0 01-.541 1.587zm-5.504-.623v.335c.91 0 1.802.007 2.693-.004.279-.004.561-.029.818-.167.33-.178.5-.451.495-.826-.004-.365-.184-.62-.51-.781-.293-.145-.607-.16-.922-.163-.803-.006-1.607-.004-2.41-.006h-.164v1.612zM13.383 19.672c-.417.928-.834 1.844-1.25 2.762-.208.46-.418.921-.622 1.384-.033.074-.072.1-.153.1-.636-.004-1.271-.005-1.907 0-.097 0-.132-.039-.168-.12-.607-1.353-1.218-2.705-1.828-4.058-.006-.013-.014-.025-.027-.047l-1.295-2.884-.31-.693h2.162a5318.912 5318.912 0 012.48 5.754l.162-.384.742-1.797c.303-.72.608-1.438.91-2.158.183-.435.363-.87.543-1.306.027-.064.047-.118.141-.117.665.005 1.33.003 2.026.003-.54 1.194-1.072 2.373-1.606 3.561z" fill="#FFFEFE"/><path d="M11.355 19.687c-.233.6-.48 1.2-.728 1.799-.05.121-.101.242-.162.384-.317-.737-.624-1.45-.931-2.172a91.492 91.492 0 011.821-.01z" fill="#103294"/><path d="M27.914 21.963v-1.429c.017-.01.025-.018.034-.018 1.01.019 2.019.032 3.028.062.283.008.55.103.779.282a.902.902 0 01-.081 1.49c-.288.178-.61.223-.935.227-.917.01-1.834.009-2.75.011-.02 0-.038-.003-.075-.007v-.618z" fill="#0E3193"/><path d="M27.96 19.21c-.025-.03-.045-.059-.045-.088-.002-.542-.001-1.084 0-1.625 0-.024.006-.047.01-.076.038-.003.072-.009.105-.008.876.007 1.752.006 2.628.03.215.006.437.07.639.15.283.114.426.353.443.66a.748.748 0 01-.368.708c-.292.19-.624.231-.96.235-.813.008-1.625.01-2.452.015z" fill="#FF0101"/><path d="M17.989 19.034v-1.597h.164c.803.002 1.607 0 2.41.006.315.003.63.018.922.163.326.161.506.416.51.781.005.375-.166.648-.495.826-.257.138-.54.163-.818.167-.891.011-1.783.004-2.693.004v-.35z" fill="red"/></svg>