<svg viewBox="0 0 40 40" xmlns="http://www.w3.org/2000/svg">
    <path
        d="M0.00756865 19.6852C0.00596373 19.6262 0.00296945 19.5671 0.00295782 19.5081C0.00269285 18.1624 -0.00547336 16.8167 0.00653114 15.4711C0.0118315 14.877 0.231224 14.3507 0.606726 13.8881C0.935322 13.4832 1.34844 13.2123 1.85262 13.0857C2.02032 13.0436 2.19455 13.0032 2.3658 13.0032C14.1122 12.9994 25.8585 12.9984 37.6049 13.0036C38.1974 13.0038 38.7133 13.2422 39.1506 13.6456C39.6072 14.0667 39.8582 14.5956 39.965 15.1983C39.9895 15.3367 39.9964 15.4798 39.9967 15.6208C39.9987 16.9664 39.9975 18.3121 39.9817 19.6715C37.5526 19.6853 35.1391 19.6853 32.7255 19.6851C32.6664 19.6851 32.6074 19.682 32.5544 19.6728C32.7365 19.5492 32.9273 19.4504 33.0863 19.3144C33.8289 18.6788 33.8816 17.6925 33.2239 16.9749C32.9302 16.6543 32.5692 16.4436 32.1588 16.3126C31.5681 16.124 30.9545 16.1196 30.3455 16.1145C28.9262 16.1027 27.5066 16.1107 26.0872 16.1107C26.0344 16.1107 25.9817 16.1107 25.9168 16.1107C25.9168 16.1835 25.9169 16.2416 25.9168 16.2997C25.9152 17.4282 25.9135 18.5568 25.8983 19.6853C25.0862 19.6838 24.2876 19.6823 23.4926 19.6716C23.9327 19.2245 24.1079 18.6899 24.0344 18.0853C23.9245 17.1801 23.3803 16.6227 22.5401 16.3447C21.9016 16.1334 21.2312 16.1197 20.5671 16.1144C19.103 16.1026 17.6387 16.1107 16.1745 16.1107C16.1216 16.1107 16.0687 16.1107 16.0018 16.1107C16.0018 16.1783 16.0018 16.2312 16.0018 16.2841C16.0018 16.9497 16.0026 17.6152 16.0015 18.2808C16.0007 18.749 15.9974 19.2171 15.9821 19.6852C15.1065 19.6844 14.2441 19.6836 13.3829 19.6727C13.9167 18.4838 14.4492 17.3051 14.9887 16.1107C14.2934 16.1107 13.6282 16.1131 12.9631 16.1081C12.8688 16.1074 12.8491 16.161 12.8225 16.2251C12.6417 16.6607 12.4616 17.0966 12.2789 17.5314C11.9766 18.2509 11.6725 18.9696 11.355 19.6872C10.7381 19.6863 10.1355 19.6869 9.52632 19.679C9.008 18.4852 8.4963 17.2999 7.98537 16.1164C7.26614 16.1164 6.55397 16.1164 5.82287 16.1164C5.92964 16.3549 6.0311 16.5821 6.13291 16.809C6.56273 17.7672 6.99266 18.7253 7.40903 19.6841C4.93287 19.6849 2.47022 19.6851 0.00756865 19.6852Z"
        fill="#FF0000" />
    <path
        d="M0.00580294 19.6988C2.47019 19.6848 4.93284 19.6847 7.41459 19.693C7.44086 19.7144 7.44903 19.7269 7.45507 19.7402C8.06505 21.0926 8.67567 22.4447 9.28274 23.7983C9.31909 23.8794 9.35412 23.9188 9.45128 23.918C10.0867 23.913 10.7222 23.9138 11.3577 23.9174C11.4393 23.9178 11.4781 23.8923 11.511 23.8178C11.7153 23.355 11.9245 22.8943 12.1334 22.4335C12.549 21.5163 12.9655 20.5995 13.3816 19.6825C14.2441 19.6833 15.1065 19.6841 15.9849 19.6986C16.0008 21.1099 16.0008 22.5075 16.0008 23.9085C16.6712 23.9085 17.3242 23.9085 17.9902 23.9085C17.9902 22.8252 17.9902 21.7488 17.9902 20.6624C18.2287 20.6624 18.4544 20.6671 18.6798 20.6616C19.3487 20.6452 19.8912 20.8896 20.324 21.4067C21.0004 22.2148 21.6927 23.0096 22.3751 23.8127C22.4378 23.8866 22.4999 23.9183 22.5984 23.9177C23.2981 23.9133 23.9979 23.9155 24.6977 23.9151C24.7392 23.915 24.7806 23.9102 24.838 23.9067C24.8145 23.8716 24.8028 23.8514 24.7885 23.8333C24.312 23.2307 23.8355 22.628 23.3584 22.0259C22.8641 21.4023 22.3091 20.8507 21.5688 20.5192C21.5534 20.5123 21.5411 20.4986 21.5335 20.4928C21.8799 20.4028 22.2271 20.3236 22.5674 20.2213C22.9158 20.1166 23.2172 19.9212 23.489 19.6805C24.2876 19.682 25.0862 19.6836 25.9005 19.6988C25.9162 21.1103 25.9162 22.5082 25.9162 23.9154C25.9615 23.9154 25.9901 23.9155 26.0188 23.9154C27.5808 23.9106 29.1429 23.9133 30.7048 23.8963C31.1807 23.8911 31.6614 23.8655 32.1303 23.7898C32.8997 23.6655 33.5239 23.2865 33.9118 22.5849C34.3129 21.8595 34.2357 21.0704 33.722 20.5141C33.4302 20.1982 33.0663 20.0006 32.6637 19.8663C32.5609 19.832 32.4567 19.8017 32.3254 19.761C32.4199 19.7268 32.4841 19.7035 32.5483 19.6802C32.6074 19.6818 32.6664 19.6849 32.7254 19.6849C35.139 19.6851 37.5526 19.6851 39.9797 19.685C39.9948 19.749 39.9978 19.813 39.9978 19.877C39.998 21.1684 40.0036 22.4598 39.996 23.7512C39.9911 24.5833 39.6748 25.2852 39.0413 25.8283C38.7016 26.1196 38.3024 26.3002 37.8502 26.3404C37.6602 26.3573 37.4689 26.3695 37.2782 26.3695C25.6606 26.3708 14.043 26.3722 2.42537 26.3673C1.63836 26.367 1.00493 26.0231 0.533182 25.389C0.16445 24.8934 -0.00383771 24.3385 0.000192728 23.7198C0.00889394 22.3841 0.00362284 21.0483 0.00580294 19.6988Z"
        fill="#0E3193" />
    <path
        d="M32.5544 19.6727C32.4841 19.7036 32.4199 19.7268 32.3254 19.7611C32.4567 19.8018 32.5609 19.8321 32.6638 19.8664C33.0664 20.0006 33.4303 20.1982 33.7221 20.5142C34.2358 21.0705 34.3129 21.8595 33.9118 22.585C33.5239 23.2866 32.8998 23.6655 32.1303 23.7899C31.6614 23.8656 31.1807 23.8912 30.7049 23.8964C29.143 23.9133 27.5808 23.9106 26.0188 23.9155C25.9902 23.9156 25.9615 23.9155 25.9162 23.9155C25.9162 22.5082 25.9162 21.1104 25.914 19.6989C25.9135 18.5566 25.9151 17.4281 25.9168 16.2995C25.9169 16.2414 25.9168 16.1833 25.9168 16.1106C25.9817 16.1106 26.0344 16.1106 26.0872 16.1106C27.5066 16.1106 28.9261 16.1025 30.3455 16.1144C30.9545 16.1195 31.5681 16.1239 32.1588 16.3124C32.5692 16.4434 32.9301 16.6542 33.2239 16.9747C33.8816 17.6924 33.8289 18.6786 33.0862 19.3142C32.9273 19.4503 32.7365 19.5491 32.5544 19.6727ZM27.9139 21.9778C27.9139 22.1778 27.9139 22.3779 27.9139 22.5813C27.9509 22.585 27.9698 22.5886 27.9888 22.5886C28.9055 22.5857 29.8222 22.5871 30.7388 22.5768C31.0647 22.5731 31.3864 22.5282 31.6738 22.3491C32.2177 22.01 32.26 21.2548 31.7549 20.8602C31.526 20.6813 31.2585 20.5862 30.9756 20.5779C29.9666 20.5482 28.957 20.5349 27.9477 20.5161C27.9392 20.516 27.9305 20.525 27.9139 20.5341C27.9139 21.0026 27.9139 21.4754 27.9139 21.9778ZM27.9747 19.2117C28.7869 19.2067 29.5991 19.2043 30.4113 19.1957C30.7483 19.1921 31.0796 19.1502 31.3722 18.9612C31.6286 18.7956 31.7572 18.56 31.7401 18.2525C31.7231 17.9458 31.5801 17.7071 31.2965 17.5932C31.0952 17.5124 30.8726 17.4494 30.6577 17.4435C29.7822 17.4195 28.9059 17.4204 28.0299 17.4127C27.9965 17.4124 27.9631 17.4176 27.9253 17.4206C27.921 17.4498 27.9145 17.4733 27.9145 17.4969C27.9139 18.0385 27.9135 18.5801 27.9153 19.1217C27.9154 19.1512 27.9349 19.1806 27.9747 19.2117Z"
        fill="#FEFEFE" />
    <path
        d="M23.4926 19.6715C23.2172 19.9213 22.9158 20.1167 22.5674 20.2214C22.2271 20.3237 21.8799 20.403 21.5335 20.4929C21.5411 20.4987 21.5534 20.5124 21.5688 20.5193C22.3091 20.8508 22.8641 21.4024 23.3584 22.0261C23.8355 22.6282 24.312 23.2308 24.7885 23.8334C24.8028 23.8515 24.8145 23.8717 24.838 23.9068C24.7806 23.9104 24.7392 23.9151 24.6977 23.9152C23.9979 23.9156 23.2981 23.9135 22.5984 23.9178C22.4999 23.9185 22.4378 23.8867 22.3751 23.8128C21.6927 23.0097 21.0005 22.2149 20.3241 21.4068C19.8912 20.8897 19.3488 20.6454 18.6798 20.6617C18.4544 20.6672 18.2287 20.6626 17.9902 20.6626C17.9902 21.7489 17.9902 22.8253 17.9902 23.9086C17.3242 23.9086 16.6713 23.9086 16.0008 23.9086C16.0008 22.5076 16.0008 21.11 15.998 19.6988C15.9974 19.217 16.0007 18.7488 16.0015 18.2807C16.0025 17.6151 16.0017 16.9496 16.0017 16.284C16.0017 16.2311 16.0017 16.1781 16.0017 16.1106C16.0687 16.1106 16.1216 16.1106 16.1745 16.1106C17.6387 16.1106 19.103 16.1025 20.5671 16.1143C21.2312 16.1196 21.9015 16.1333 22.5401 16.3446C23.3803 16.6226 23.9245 17.18 24.0344 18.0852C24.1079 18.6898 23.9327 19.2244 23.4926 19.6715ZM17.9888 19.0489C17.9888 19.1654 17.9888 19.2818 17.9888 19.3839C18.8991 19.3839 19.7909 19.391 20.6824 19.3796C20.9606 19.3761 21.2434 19.3511 21.4997 19.213C21.8295 19.0352 22.0003 18.7616 21.9955 18.3874C21.9908 18.0222 21.811 17.7673 21.485 17.6058C21.1924 17.4609 20.8781 17.4458 20.5631 17.4434C19.7598 17.4373 18.9564 17.4386 18.153 17.437C18.1008 17.4369 18.0485 17.437 17.9888 17.437C17.9888 17.9759 17.9888 18.4977 17.9888 19.0489Z"
        fill="#FFFEFE" />
    <path
        d="M13.3829 19.6725C12.9655 20.5996 12.5491 21.5164 12.1334 22.4336C11.9246 22.8944 11.7153 23.3551 11.511 23.8179C11.4781 23.8923 11.4393 23.9179 11.3577 23.9175C10.7223 23.9139 10.0868 23.913 9.45132 23.918C9.35416 23.9188 9.31912 23.8794 9.28278 23.7984C8.67571 22.4447 8.06509 21.0926 7.4551 19.7403C7.44907 19.7269 7.4409 19.7145 7.42814 19.6925C6.99266 18.7252 6.56274 17.767 6.13291 16.8088C6.03111 16.5819 5.92965 16.3548 5.82288 16.1162C6.55397 16.1162 7.26614 16.1162 7.98537 16.1162C8.49631 17.2997 9.008 18.485 9.52688 19.6893C9.841 20.4207 10.1479 21.1329 10.4655 21.8697C10.5255 21.7275 10.5773 21.6069 10.6274 21.4856C10.8749 20.8867 11.122 20.2875 11.3692 19.6885C11.6725 18.9694 11.9766 18.2507 12.2789 17.5313C12.4616 17.0964 12.6417 16.6605 12.8225 16.2249C12.8491 16.1608 12.8688 16.1072 12.9631 16.1079C13.6282 16.1129 14.2934 16.1106 14.9887 16.1106C14.4492 17.3049 13.9167 18.4837 13.3829 19.6725Z"
        fill="#FFFEFE" />
    <path
        d="M11.355 19.6873C11.1221 20.2878 10.875 20.8869 10.6275 21.4859C10.5774 21.6071 10.5256 21.7277 10.4655 21.87C10.148 21.1332 9.84106 20.4209 9.53357 19.6981C10.1356 19.687 10.7382 19.6864 11.355 19.6873Z"
        fill="#103294" />
    <path
        d="M27.9139 21.963C27.9139 21.4754 27.9139 21.0026 27.9139 20.5341C27.9306 20.5249 27.9392 20.516 27.9477 20.5161C28.9571 20.5349 29.9666 20.5481 30.9756 20.5778C31.2585 20.5862 31.526 20.6813 31.7549 20.8602C32.2601 21.2548 32.2177 22.01 31.6738 22.3491C31.3864 22.5282 31.0648 22.5731 30.7388 22.5767C29.8222 22.5871 28.9055 22.5856 27.9888 22.5885C27.9698 22.5886 27.9509 22.585 27.9139 22.5812C27.9139 22.3778 27.9139 22.1778 27.9139 21.963Z"
        fill="#0E3193" />
    <path
        d="M27.96 19.2108C27.9349 19.1806 27.9153 19.1511 27.9152 19.1216C27.9134 18.58 27.9139 18.0384 27.9145 17.4968C27.9145 17.4733 27.9209 17.4498 27.9252 17.4206C27.963 17.4176 27.9965 17.4123 28.0299 17.4126C28.9059 17.4203 29.7821 17.4194 30.6577 17.4435C30.8726 17.4493 31.0952 17.5123 31.2965 17.5931C31.5801 17.7071 31.723 17.9457 31.7401 18.2524C31.7571 18.56 31.6285 18.7956 31.3722 18.9612C31.0796 19.1502 30.7483 19.1921 30.4112 19.1956C29.5991 19.2042 28.7869 19.2067 27.96 19.2108Z"
        fill="#FF0101" />
    <path
        d="M17.9888 19.0342C17.9888 18.4977 17.9888 17.976 17.9888 17.437C18.0485 17.437 18.1007 17.437 18.153 17.4371C18.9564 17.4387 19.7598 17.4374 20.5631 17.4435C20.8781 17.4459 21.1924 17.4609 21.485 17.6059C21.811 17.7674 21.9908 18.0223 21.9955 18.3875C22.0002 18.7616 21.8295 19.0353 21.4997 19.2131C21.2434 19.3512 20.9606 19.3762 20.6824 19.3797C19.7908 19.3911 18.8991 19.3839 17.9888 19.3839C17.9888 19.2819 17.9888 19.1654 17.9888 19.0342Z"
        fill="#FF0000" />
</svg>