<svg viewBox="0 0 40 40" xmlns="http://www.w3.org/2000/svg"><g clip-path="url(#prefix__exim_bank_clip0)"><mask id="prefix__a" style="mask-type:luminance" maskUnits="userSpaceOnUse" x="18" y="0" width="4" height="40"><path d="M18.817 39.88h2.352V.104h-2.352v39.79-.016z" fill="#fff"/></mask><g mask="url(#prefix__a)"><path d="M21.169.09h-2.352v39.79h2.352V.09z" fill="url(#prefix__exim_bank_paint0_linear)"/></g><mask id="prefix__b" style="mask-type:luminance" maskUnits="userSpaceOnUse" x="18" y="0" width="22" height="21"><path d="M18.908 0h-.09v4.13c.481-1.914 2.365-1.673 2.365-1.673 7.94.527 14.433 6.3 16.03 13.896 0 0 .105.572.105.874 0 1.748-1.295 3.27-2.983 3.542 5.168-.181 5.379-3.723 5.334-4.386C38.026 7.415 30.403.558 21.091.06l-1.1-.045h-1.1L18.909 0z" fill="#fff"/></mask><g mask="url(#prefix__b)"><path d="M26.788-10.13l-18.022 23 23.022 18.038 18.021-23L26.788-10.13z" fill="url(#prefix__exim_bank_paint1_linear)"/></g><mask id="prefix__c" style="mask-type:luminance" maskUnits="userSpaceOnUse" x="22" y="16" width="18" height="24"><path d="M33.944 20.648h-11.45v19.11c9.627-1.19 17.13-9.238 17.49-19.095 0-.256.016-.497.016-.738 0-1.251-.12-2.457-.331-3.648 0 0 .15 4.371-5.725 4.371z" fill="#fff"/></mask><g mask="url(#prefix__c)"><path d="M29.482 7.685L10.974 30.354l22.013 17.973 18.508-22.67L29.482 7.686z" fill="url(#prefix__exim_bank_paint2_linear)"/></g><g style="mix-blend-mode:overlay"><mask id="prefix__d" style="mask-type:luminance" maskUnits="userSpaceOnUse" x="22" y="16" width="18" height="24"><path d="M39.985 16.277H22.478V39.76h17.507V16.277z" fill="#fff"/></mask><g mask="url(#prefix__d)"><mask id="prefix__e" style="mask-type:luminance" maskUnits="userSpaceOnUse" x="22" y="16" width="18" height="24"><path d="M22.478 39.759c9.627-1.19 17.13-9.239 17.492-19.096 0-.256.015-.497.015-.738 0-1.251-.12-2.457-.331-3.648 0 0 .15 4.371-5.726 4.371h-11.45v19.11z" fill="#fff"/></mask><g mask="url(#prefix__e)"><path d="M39.985 16.277H22.478V39.76h17.507V16.277z" fill="url(#prefix__exim_bank_paint3_radial)"/></g></g></g><mask id="prefix__f" style="mask-type:luminance" maskUnits="userSpaceOnUse" x="0" y="19" width="22" height="21"><path d="M.332 23.632C1.974 32.6 9.597 39.457 18.908 39.955l1.1.045h1.175v-4.13c-.482 1.915-2.366 1.673-2.366 1.673a17.579 17.579 0 01-16.03-13.896s-.105-.572-.105-.874c0-1.748 1.296-3.27 2.983-3.542-5.168.181-5.364 3.723-5.333 4.386" fill="#fff"/></mask><g mask="url(#prefix__f)"><path d="M8.25 9.113l-18.021 23L13.25 50.152l18.022-23L8.25 9.112z" fill="url(#prefix__exim_bank_paint4_linear)"/></g><mask id="prefix__g" style="mask-type:luminance" maskUnits="userSpaceOnUse" x="0" y="0" width="18" height="24"><path d="M.015 19.337c0 .256-.015.497-.015.738 0 1.251.12 2.457.331 3.648 0 0-.15-4.371 5.726-4.371h11.45V.242C7.879 1.431.377 9.48.015 19.336z" fill="#fff"/></mask><g mask="url(#prefix__g)"><path d="M7.015-8.329l-18.512 22.666 22.01 17.976L29.025 9.648 7.015-8.329z" fill="url(#prefix__exim_bank_paint5_linear)"/></g><g style="mix-blend-mode:overlay"><mask id="prefix__h" style="mask-type:luminance" maskUnits="userSpaceOnUse" x="0" y="0" width="18" height="24"><path d="M17.507.241H0v23.482h17.507V.24z" fill="#fff"/></mask><g mask="url(#prefix__h)"><mask id="prefix__i" style="mask-type:luminance" maskUnits="userSpaceOnUse" x="0" y="0" width="18" height="24"><path d="M17.507.241C7.879 1.431.377 9.481.015 19.337c0 .256-.015.497-.015.738 0 1.251.12 2.457.331 3.648 0 0-.15-4.371 5.726-4.371h11.45V.242z" fill="#fff"/></mask><g mask="url(#prefix__i)"><path d="M17.507.241H0v23.482h17.507V.24z" fill="url(#prefix__exim_bank_paint6_radial)"/></g></g></g></g><defs><linearGradient id="prefix__exim_bank_paint0_linear" x1="21.015" y1="39.541" x2="21.015" y2="-.959" gradientUnits="userSpaceOnUse"><stop stop-color="#153A63"/><stop offset=".1" stop-color="#153A63"/><stop offset=".35" stop-color="#23A8E0"/><stop offset=".5" stop-color="#61CAF4"/><stop offset=".65" stop-color="#109CD8"/><stop offset=".9" stop-color="#153A63"/><stop offset="1" stop-color="#153A63"/></linearGradient><linearGradient id="prefix__exim_bank_paint1_linear" x1="18.156" y1="-.153" x2="38.921" y2="16.117" gradientUnits="userSpaceOnUse"><stop stop-color="#005D98"/><stop offset=".35" stop-color="#23A8E0"/><stop offset=".53" stop-color="#61CAF4"/><stop offset=".62" stop-color="#3EB6E8"/><stop offset=".71" stop-color="#24A7DF"/><stop offset=".79" stop-color="#159FD9"/><stop offset=".85" stop-color="#109CD8"/><stop offset=".87" stop-color="#1095D0"/><stop offset=".91" stop-color="#1185BC"/><stop offset=".94" stop-color="#12699C"/><stop offset=".99" stop-color="#14446F"/><stop offset="1" stop-color="#153A63"/></linearGradient><linearGradient id="prefix__exim_bank_paint2_linear" x1="35.959" y1="21.242" x2="22.114" y2="38.199" gradientUnits="userSpaceOnUse"><stop stop-color="#19BAED"/><stop offset=".41" stop-color="#0C8DC9"/><stop offset=".79" stop-color="#036BAD"/><stop offset="1" stop-color="#005EA3"/></linearGradient><linearGradient id="prefix__exim_bank_paint4_linear" x1="22.141" y1="40.001" x2="1.376" y2="23.731" gradientUnits="userSpaceOnUse"><stop stop-color="#005D98"/><stop offset=".35" stop-color="#23A8E0"/><stop offset=".53" stop-color="#61CAF4"/><stop offset=".62" stop-color="#3EB6E8"/><stop offset=".71" stop-color="#24A7DF"/><stop offset=".79" stop-color="#159FD9"/><stop offset=".85" stop-color="#109CD8"/><stop offset=".87" stop-color="#1095D0"/><stop offset=".91" stop-color="#1185BC"/><stop offset=".94" stop-color="#12699C"/><stop offset=".99" stop-color="#14446F"/><stop offset="1" stop-color="#153A63"/></linearGradient><linearGradient id="prefix__exim_bank_paint5_linear" x1="4.143" y1="18.044" x2="17.991" y2="1.088" gradientUnits="userSpaceOnUse"><stop stop-color="#19BAED"/><stop offset=".41" stop-color="#0C8DC9"/><stop offset=".79" stop-color="#036BAD"/><stop offset="1" stop-color="#005EA3"/></linearGradient><radialGradient id="prefix__exim_bank_paint3_radial" cx="0" cy="0" r="1" gradientUnits="userSpaceOnUse" gradientTransform="matrix(19.9069 0 0 19.9262 20.79 20.913)"><stop stop-color="#fff"/><stop offset=".85" stop-color="#fff"/><stop offset="1" stop-color="#fff"/></radialGradient><radialGradient id="prefix__exim_bank_paint6_radial" cx="0" cy="0" r="1" gradientUnits="userSpaceOnUse" gradientTransform="matrix(-19.9069 0 0 -19.9262 18.678 18.693)"><stop stop-color="#fff"/><stop offset=".85" stop-color="#fff"/><stop offset="1" stop-color="#fff"/></radialGradient><clipPath id="prefix__exim_bank_clip0"><path fill="#fff" d="M0 0h40v40H0z"/></clipPath></defs></svg>