<svg viewBox="0 0 16 16" xmlns="http://www.w3.org/2000/svg"><path d="M13.346 13.073a9.329 9.329 0 01-3.53 2.566 4.3 4.3 0 01-3.448 0c-.802-.401-1.363-1.203-1.604-2.085-.24-1.283-.16-2.566.321-3.69a5.32 5.32 0 01.722-1.523c-.962.962-1.845 1.925-2.807 2.887 1.363-1.925 2.887-3.69 4.491-5.373.882-.802 1.765-1.684 2.647-2.406.32-.321.641-.562.962-.802-.641.802-1.123 1.684-1.604 2.566a14.865 14.865 0 00-1.443 3.529c-.482 1.203-.482 2.566-.08 3.85.24.721.801 1.283 1.523 1.523 1.364.321 2.807 0 3.85-.882v-.16zM13.987.962l-.642.642c0 .32.08.561.16.882-.24-.16-.56-.24-.802-.4-.24.16-.56.32-.801.4 0-.32.08-.561.16-.882L11.34.962c.32 0 .562-.08.882-.16.08-.32.24-.561.401-.802.16.24.24.561.401.802.321 0 .642.08.963.08v.08z" fill="#FFB100"/></svg>