<svg viewBox="0 0 24 24" xmlns="http://www.w3.org/2000/svg">
    <rect width="24" height="24" fill="#184617" />
    <path transform="translate(-0.856445)"
        d="M16.5164 15.7801C15.7964 16.6201 14.8964 17.2801 13.8764 17.7001C13.0364 18.0601 12.1364 18.0601 11.2964 17.7001C10.6964 17.4001 10.2764 16.8001 10.0964 16.1401C9.91637 15.1801 9.97637 14.2201 10.3364 13.3801C10.4564 12.9601 10.6364 12.6001 10.8764 12.2401C10.1564 12.9601 9.49637 13.6801 8.77637 14.4001C9.79637 12.9601 10.9364 11.6401 12.1364 10.3801C12.7964 9.7801 13.4564 9.1201 14.1164 8.5801C14.3564 8.3401 14.5964 8.1601 14.8364 7.9801C14.3564 8.5801 13.9964 9.2401 13.6364 9.9001C13.1564 10.7401 12.7964 11.6401 12.5564 12.5401C12.1964 13.4401 12.1964 14.4601 12.4964 15.4201C12.6764 15.9601 13.0964 16.3801 13.6364 16.5601C14.6564 16.8001 15.7364 16.5601 16.5164 15.9001V15.7801Z"
        fill="#FFB100" />
    <path transform="translate(-0.856445)"
        d="M16.9961 6.72C16.8161 6.9 16.6961 7.02 16.5161 7.2C16.5161 7.44 16.5761 7.62 16.6361 7.86C16.4561 7.74 16.2161 7.68 16.0361 7.56C15.8561 7.68 15.6161 7.8 15.4361 7.86C15.4361 7.62 15.4961 7.44 15.5561 7.2L15.0161 6.72C15.2561 6.72 15.4361 6.66 15.6761 6.6C15.7361 6.36 15.8561 6.18 15.9761 6C16.0961 6.18 16.1561 6.42 16.2761 6.6C16.5161 6.6 16.7561 6.66 16.9961 6.66V6.72Z"
        fill="#FFB100" />
</svg>