<svg viewBox="0 0 16 16" xmlns="http://www.w3.org/2000/svg">
    <path
        d="M13.3457 13.0726C12.3833 14.1954 11.1803 15.0776 9.81694 15.639C8.69415 16.1202 7.49117 16.1202 6.36838 15.639C5.56639 15.238 5.00499 14.436 4.7644 13.5538C4.5238 12.2706 4.60399 10.9875 5.08519 9.86467C5.24559 9.30327 5.48618 8.82208 5.80698 8.34088C4.84458 9.30327 3.96239 10.2657 3 11.2281C4.36339 9.30327 5.88718 7.53889 7.49117 5.8547C8.37336 5.05271 9.25554 4.17052 10.1377 3.44872C10.4585 3.12792 10.7793 2.88733 11.1001 2.64673C10.4585 3.44872 9.97735 4.33091 9.49615 5.21311C8.85456 6.3359 8.37337 7.53889 8.05257 8.74188C7.57138 9.94487 7.57137 11.3083 7.97237 12.5914C8.21297 13.3132 8.77436 13.8746 9.49615 14.1152C10.8595 14.436 12.3031 14.1152 13.3457 13.233V13.0726Z"
        fill="#FFB100" />
    <path
        d="M13.9867 0.962392C13.7461 1.20299 13.5857 1.36339 13.3451 1.60399C13.3451 1.92478 13.4253 2.16538 13.5055 2.48618C13.2649 2.32578 12.9441 2.24558 12.7035 2.08518C12.4629 2.24558 12.1421 2.40598 11.9015 2.48618C11.9015 2.16538 11.9817 1.92478 12.0619 1.60399L11.3401 0.962392C11.6609 0.962392 11.9015 0.882193 12.2223 0.801993C12.3025 0.481196 12.4629 0.240598 12.6233 0C12.7837 0.240598 12.8639 0.561395 13.0243 0.801993C13.3451 0.801993 13.6659 0.882192 13.9867 0.882192V0.962392Z"
        fill="#FFB100" />
</svg>