<svg viewBox="0 0 40 40" xmlns="http://www.w3.org/2000/svg">
    <g clip-path="url(#nhb_vnd_clip0)">
        <path d="M28.0791 0L20.1913 3.95945L12.3078 0L20.1913 14.9956L28.0791 0Z" fill="#FDB811" />
        <path
            d="M30.8386 11.5893L30.718 11.4833L36.3473 9.11883V1.20825L26.5693 5.37358C26.5693 5.37358 21.2727 15.4074 21.1521 15.6382C25.3008 16.1331 28.4138 19.6122 28.4138 23.8004C28.4138 28.338 24.7289 32.0333 20.1913 32.0333C15.6538 32.0333 11.9646 28.338 11.9646 23.8004C11.9646 19.6122 15.0777 16.1331 19.2264 15.6382C19.1058 15.4074 13.8154 5.37358 13.8154 5.37358L4.05199 1.20825V9.11883L9.67507 11.4833L9.5503 11.5893C6.02339 14.6733 4 19.1235 4 23.8004C4 32.732 11.2638 40 20.1913 40C29.1188 40 36.3826 32.732 36.3826 23.8004C36.3826 19.1277 34.3655 14.6774 30.8386 11.5893Z"
            fill="#FDB811" />
    </g>
    <defs>
        <clipPath id="nhb_vnd_clip0">
            <rect width="32.3826" height="40" fill="white" transform="translate(4)" />
        </clipPath>
    </defs>
</svg>