<svg viewBox="0 0 40 40" xmlns="http://www.w3.org/2000/svg"><g clip-path="url(#prefix__nhb_vnd_clip0)" fill="#FDB811"><path d="M28.08 0L20.19 3.96 12.308 0l7.883 14.996L28.08 0z"/><path d="M30.839 11.59l-.121-.107 5.63-2.364v-7.91l-9.779 4.165-5.417 10.264a8.204 8.204 0 017.262 8.162c0 4.538-3.685 8.233-8.223 8.233-4.537 0-8.226-3.695-8.226-8.233a8.204 8.204 0 017.261-8.162c-.12-.23-5.41-10.264-5.41-10.264L4.051 1.208v7.91l5.623 2.365-.125.106A16.223 16.223 0 004 23.8C4 32.732 11.264 40 20.191 40c8.928 0 16.192-7.268 16.192-16.2a16.23 16.23 0 00-5.544-12.21z"/></g><defs><clipPath id="prefix__nhb_vnd_clip0"><path fill="#fff" transform="translate(4)" d="M0 0h32.383v40H0z"/></clipPath></defs></svg>