<svg viewBox="0 0 40 40" xmlns="http://www.w3.org/2000/svg"><g clip-path="url(#prefix__oricom_bank_clip0)" fill="#E49F15"><path d="M.057 21.716A19.715 19.715 0 005.895 33.58a5.208 5.208 0 01-.231-2.94c.63-2.771 3.423-4.703 7.37-5.25V12.015C2.809 10.293-.488 16.782.058 21.716zM39.01 17.37a19.593 19.593 0 00-5.775-11.823c.37.935.45 1.959.231 2.94-.609 2.772-3.423 4.704-7.37 5.25V27.07c10.226 1.722 13.522-4.746 12.914-9.702z"/><path d="M.498 15.207c2.667-3.654 7.434-5.732 16.232-3.255C32.205 16.3 37.182 6.283 28.363 2.083A19.567 19.567 0 004.33 7.3a19.574 19.574 0 00-3.832 7.907zM38.631 23.88c-2.667 3.654-7.434 5.732-16.253 3.254-15.455-4.346-20.431 5.754-11.612 9.89A19.572 19.572 0 0038.631 23.88z"/></g><defs><clipPath id="prefix__oricom_bank_clip0"><path fill="#fff" d="M0 0h40v40H0z"/></clipPath></defs></svg>