<svg xmlns="http://www.w3.org/2000/svg" viewBox="0 0 518.4 518.4" style="border-radius:25%"><path fill="#563D82" d="M3.2 3.2h128c.1 72.9-.1 145.9.1 218.8-16.8 1.5-34 1.6-50.2 6.8-6.8 2.1-11.4 9.5-10.4 16.5 2.6 13.6 8.9 28 21.9 34.5 11.9 5.8 25.5 7 38.6 7.1v228.4H3.2V3.2z"/><g fill="#2774AE"><path d="M131.2 3.2h128v112.9c-12 30-21.1 61.1-31.5 91.7-1 3.2-3.7 6.3-7.2 6.6-29.7 3.2-59.4 5.4-89.2 7.6-.2-72.9-.1-145.9-.1-218.8zM170.3 283.9c13.2-1.3 26.3-2.8 39.5-4.1-2.3 14.4-4.7 28.7-7.3 43-3 19.4-3.4 39.1-1.2 58.6.7 7 2.9 13.7 5.5 20.2 2.9 6.9 6.1 14 11.5 19.5 6.9 7.2 16.3 11.3 25.8 13.7 4.9 1.3 10 1.8 15.1 1.5v79.1h-128V287c13.1-.2 26.1-1.9 39.1-3.1z"/></g><g fill="#EB3300"><path d="M259.2 3.2h128v201.1c-24.4.7-48.8 2.5-73.2 3.7-5.2.2-10.4.1-15.6.1 5.8-19 11.6-38.1 17.5-57.1 4.4-11.6 8.9-23.2 13.1-34.9 3.6-9.1 6.5-19 5.1-28.9-.6-4.5-4.8-7.3-8.9-8-13.8-2.7-28.9-1.4-41 6-11.7 7-19.7 18.6-25 30.9V3.2zM289.4 271.5c32.9-4.5 65.9-9.3 97.8-18.8.1 87.5 0 175.1 0 262.6h-128v-79.1c3.8-.3 8.3-.9 10.8-4.3 2.5-3.3 1.8-7.7.9-11.4-5.2-23.3-6.7-47.6-3.2-71.3 3.4-22.4 7.6-44.7 11.5-67 .5-2.6.7-5.4 2.2-7.6 1.9-2.6 5.2-2.6 8-3.1z"/></g><path fill="#FF9425" d="M387.2 3.2h128v512h-128V252.6c8-2.3 16-4.8 23.9-7.5 10.7-4 20.5-10.1 30.4-15.8 3.5-1.9 5.7-6.4 3.9-10.2-2.4-4.6-6.6-8.3-11.7-9.5-7.6-1.9-15.2-4-22.9-5.1-7.8-1.1-15.7-.3-23.5-.2-.1-67.1-.1-134.1-.1-201.1z"/><path fill="#fff" d="M284.2 85.2c12.2-7.4 27.3-8.7 41-6 4.2.7 8.3 3.5 8.9 8 1.3 9.9-1.6 19.8-5.1 28.9-4.2 11.7-8.7 23.3-13.1 34.9-5.9 19-11.7 38.1-17.5 57.1 5.2.1 10.4.1 15.6-.1 24.4-1.2 48.8-3 73.2-3.7 7.8-.1 15.7-.9 23.5.2 7.8 1.1 15.4 3.2 22.9 5.1 5.1 1.2 9.3 5 11.7 9.5 1.8 3.8-.4 8.3-3.9 10.2-9.9 5.7-19.6 11.8-30.4 15.8-7.9 2.7-15.8 5.2-23.9 7.5-31.9 9.5-64.9 14.4-97.8 18.8-2.8.5-6.1.6-8 3-1.5 2.2-1.7 5.1-2.2 7.6-3.9 22.3-8.1 44.6-11.5 67-3.5 23.7-2 48 3.2 71.3.8 3.7 1.6 8.1-.9 11.4-2.5 3.4-6.9 4-10.8 4.3-5.1.4-10.2-.1-15.1-1.5-9.5-2.4-18.9-6.5-25.8-13.7-5.4-5.5-8.5-12.5-11.5-19.5-2.6-6.5-4.8-13.2-5.5-20.2-2.2-19.5-1.9-39.2 1.2-58.6 2.5-14.3 5-28.6 7.3-43-13.2 1.4-26.3 2.9-39.5 4.1-13 1.2-26 2.9-39.1 3-13.1-.1-26.7-1.3-38.6-7.1-13-6.4-19.3-20.9-21.9-34.5-1-7 3.6-14.4 10.4-16.5 16.2-5.2 33.4-5.3 50.2-6.8 29.8-2.2 59.5-4.4 89.2-7.6 3.5-.3 6.2-3.4 7.2-6.6 10.5-30.6 19.6-61.6 31.5-91.7 5.4-12 13.4-23.6 25.1-30.6z"/></svg>