<svg xmlns="http://www.w3.org/2000/svg" xmlns:xlink="http://www.w3.org/1999/xlink" viewBox="0 0 518.4 518.4"
    style="border-radius: 25%">
    <g>
        <path fill="#563D82" d="M3.2,3.2h128c0.1,72.9-0.1,145.9,0.1,218.8c-16.8,1.5-34,1.6-50.2,6.8c-6.8,2.1-11.4,9.5-10.4,16.5
			c2.6,13.6,8.9,28,21.9,34.5c11.9,5.8,25.5,7,38.6,7.1c0,76.1,0,152.3,0,228.4H3.2V3.2z" />
    </g>
    <g>
        <path fill="#2774AE" d="M131.2,3.2h128c0,37.6,0,75.3,0,112.9c-12,30-21.1,61.1-31.5,91.7c-1,3.2-3.7,6.3-7.2,6.6
			c-29.7,3.2-59.4,5.4-89.2,7.6C131.1,149.1,131.2,76.1,131.2,3.2z" />
        <path fill="#2774AE" d="M170.3,283.9c13.2-1.3,26.3-2.8,39.5-4.1c-2.3,14.4-4.7,28.7-7.3,43c-3,19.4-3.4,39.1-1.2,58.6
			c0.7,7,2.9,13.7,5.5,20.2c2.9,6.9,6.1,14,11.5,19.5c6.9,7.2,16.3,11.3,25.8,13.7c4.9,1.3,10,1.8,15.1,1.5c0,26.4,0,52.7,0,79.1
			h-128c0-76.1,0-152.2,0-228.4C144.3,286.8,157.3,285.1,170.3,283.9z" />
    </g>
    <g>
        <path fill="#EB3300" d="M259.2,3.2h128c0,67,0,134,0,201.1c-24.4,0.7-48.8,2.5-73.2,3.7c-5.2,0.2-10.4,0.1-15.6,0.1
			c5.8-19,11.6-38.1,17.5-57.1c4.4-11.6,8.9-23.2,13.1-34.9c3.6-9.1,6.5-19,5.1-28.9c-0.6-4.5-4.8-7.3-8.9-8
			c-13.8-2.7-28.9-1.4-41,6c-11.7,7-19.7,18.6-25,30.9C259.2,78.5,259.2,40.8,259.2,3.2z" />
        <path fill="#EB3300" d="M289.4,271.5c32.9-4.5,65.9-9.3,97.8-18.8c0.1,87.5,0,175.1,0,262.6h-128c0-26.4,0-52.7,0-79.1
			c3.8-0.3,8.3-0.9,10.8-4.3c2.5-3.3,1.8-7.7,0.9-11.4c-5.2-23.3-6.7-47.6-3.2-71.3c3.4-22.4,7.6-44.7,11.5-67
			c0.5-2.6,0.7-5.4,2.2-7.6C283.3,272,286.6,272,289.4,271.5z" />
    </g>
    <g>
        <path fill="#FF9425" d="M387.2,3.2h128v512h-128c0-87.5,0-175.1,0-262.6c8-2.3,16-4.8,23.9-7.5c10.7-4,20.5-10.1,30.4-15.8
			c3.5-1.9,5.7-6.4,3.9-10.2c-2.4-4.6-6.6-8.3-11.7-9.5c-7.6-1.9-15.2-4-22.9-5.1c-7.8-1.1-15.7-0.3-23.5-0.2
			C387.2,137.2,387.2,70.2,387.2,3.2z" />
    </g>
    <g>
        <path fill="#fff"
            d="M284.2,85.2c12.2-7.4,27.3-8.7,41-6c4.2,0.7,8.3,3.5,8.9,8c1.3,9.9-1.6,19.8-5.1,28.9
			c-4.2,11.7-8.7,23.3-13.1,34.9c-5.9,19-11.7,38.1-17.5,57.1c5.2,0.1,10.4,0.1,15.6-0.1c24.4-1.2,48.8-3,73.2-3.7
			c7.8-0.1,15.7-0.9,23.5,0.2c7.8,1.1,15.4,3.2,22.9,5.1c5.1,1.2,9.3,5,11.7,9.5c1.8,3.8-0.4,8.3-3.9,10.2
			c-9.9,5.7-19.6,11.8-30.4,15.8c-7.9,2.7-15.8,5.2-23.9,7.5c-31.9,9.5-64.9,14.4-97.8,18.8c-2.8,0.5-6.1,0.6-8,3
			c-1.5,2.2-1.7,5.1-2.2,7.6c-3.9,22.3-8.1,44.6-11.5,67c-3.5,23.7-2,48,3.2,71.3c0.8,3.7,1.6,8.1-0.9,11.4c-2.5,3.4-6.9,4-10.8,4.3
			c-5.1,0.4-10.2-0.1-15.1-1.5c-9.5-2.4-18.9-6.5-25.8-13.7c-5.4-5.5-8.5-12.5-11.5-19.5c-2.6-6.5-4.8-13.2-5.5-20.2
			c-2.2-19.5-1.9-39.2,1.2-58.6c2.5-14.3,5-28.6,7.3-43c-13.2,1.4-26.3,2.9-39.5,4.1c-13,1.2-26,2.9-39.1,3
			c-13.1-0.1-26.7-1.3-38.6-7.1c-13-6.4-19.3-20.9-21.9-34.5c-1-7,3.6-14.4,10.4-16.5c16.2-5.2,33.4-5.3,50.2-6.8
			c29.8-2.2,59.5-4.4,89.2-7.6c3.5-0.3,6.2-3.4,7.2-6.6c10.5-30.6,19.6-61.6,31.5-91.7C264.5,103.8,272.5,92.2,284.2,85.2z" />
    </g>

</svg>