<svg viewBox="0 0 24 24" xmlns="http://www.w3.org/2000/svg"><path fill="#4E9A29" d="M0 0h24v24H0z"/><path d="M15.12 4.26H8.94c-2.58 0-4.62 2.1-4.68 4.68v6.18c0 2.58 2.1 4.62 4.68 4.68h6.18c2.58 0 4.62-2.1 4.68-4.68V8.94c0-2.58-2.1-4.62-4.68-4.68zm-5.7 1.08h5.16v3.42c-.48.3-.96.66-1.32 1.08V6.66h-2.52v3.18c-.42-.42-.84-.78-1.32-1.08V5.34zm.78 11.04v2.34h-.6v-1.14c0-.3-.12-.54-.42-.54H6v-.54h3.48c.06 0 .12 0 .12-.12 0-.06 0-.12-.12-.12H6v-.54h3.72c.6 0 .54.24.54.72l-.06-.06zm.84-1.56v3.84h-.6v-2.7c0-.3-.12-.54-.42-.54H5.94v-.54h4.38c.06 0 .12 0 .12-.12 0 0 0-.12-.12-.12H5.94v-.54h4.56c.6 0 .54.24.54.72zm.84 3.84h-.6V14.4c0-.3-.12-.54-.42-.54H5.94v-.54h5.22c.06 0 .12 0 .12-.12 0 0 0-.12-.12-.12H5.94v-.54h5.34c.36.12.6.48.6.84v5.28zm6.18-2.52h-3.54c-.06 0-.12 0-.12.12s0 .12.12.12h3.54v.54H15c-.24 0-.54.18-.54.42V18.6h-.6v-2.34c0-.48-.06-.72.54-.72h3.72v.54l-.06.06zm0-1.56h-4.38c-.06 0-.12 0-.12.12 0 0 0 .12.12.12h4.38v.54H14.1c-.24 0-.54.18-.54.42V18.6h-.6v-3.84c0-.48-.06-.72.54-.72h4.56v.54zm0-1.56h-5.22c-.06 0-.12 0-.12.12 0 0 0 .12.12.12h5.22v.54h-4.8c-.3 0-.54.18-.54.42v4.38h-.6v-5.28c0-.36.24-.72.6-.84h5.34v.54zm0-.78h-1.38V9.48c-.9.24-1.74.72-2.4 1.44h2.04v1.38H5.94V9.66h1.38v1.32h2.4C8.76 9.96 7.38 9.42 6 9.36v-2.4h3.3v1.38H8.22c1.86.66 3.3 2.1 3.84 3.96.6-1.86 2.04-3.3 3.9-3.96h-1.14V6.96h1.92V6.6h1.38v5.7l-.06-.06z" fill="#fff"/></svg>