<svg viewBox="0 0 24 24" xmlns="http://www.w3.org/2000/svg"><path fill="#fff" d="M0 0h24v24H0z"/><path opacity=".7" d="M9.659 9.78c-.6.24-3.18 1.38-4.14 1.98-.42-.18-.78-.3-1.26-.48 1.38-.72 2.76-1.32 4.2-1.86.42.12.72.3 1.14.36h.06zM11.58 10.62c-.6.24-3.18 1.5-4.14 2.04-.42-.24-.9-.42-1.32-.6 1.32-.72 2.7-1.38 4.08-1.98.36.12.96.36 1.38.54z" fill="#002263"/><path d="M17.82 10.14c-3 1.02-5.82 2.4-8.52 4.14a9.56 9.56 0 00-1.74-.9c1.98-1.14 4.62-2.94 8.7-3.96.6.24 1.02.48 1.56.72zM19.739 11.22c-.6.24-5.52 2.58-7.92 4.68-.42-.24-1.38-.96-1.86-1.2 1.92-1.26 4.32-3 8.34-4.2.48.24.96.48 1.38.72h.06zM9.659 8.58c1.2.36 2.4.84 3.6 1.38-.3.18-.72.3-1.14.42-2.58-1.08-3.6-1.38-3.66-1.44.24-.12.96-.36 1.2-.42v.06zM11.579 8.1c1.26.36 2.46.78 3.66 1.32-.42.06-.84.18-1.2.36-2.58-1.08-3.48-1.32-3.54-1.38.24-.12.9-.24 1.08-.3z" fill="#E61A35"/></svg>