<svg viewBox="0 0 24 24" xmlns="http://www.w3.org/2000/svg">
    <rect width="24" height="24" fill="white" />
    <path transform="translate(-0.618164)" opacity="0.7"
        d="M10.277 9.78004C9.67695 10.02 7.09695 11.16 6.13695 11.76C5.71695 11.58 5.35695 11.46 4.87695 11.28C6.25695 10.56 7.63695 9.96004 9.07695 9.42004C9.49695 9.54004 9.79695 9.72004 10.217 9.78004H10.277Z"
        fill="#002263" />
    <path transform="translate(-0.618164)" opacity="0.7"
        d="M12.1973 10.6201C11.5973 10.8601 9.0173 12.1201 8.0573 12.6601C7.6373 12.4201 7.1573 12.2401 6.7373 12.0601C8.0573 11.3401 9.43731 10.6801 10.8173 10.0801C11.1773 10.2001 11.7773 10.4401 12.1973 10.6201Z"
        fill="#002263" />
    <path transform="translate(-0.618164)"
        d="M18.4377 10.14C15.4377 11.16 12.6177 12.54 9.91773 14.28C9.37773 13.92 8.77773 13.62 8.17773 13.38C10.1577 12.24 12.7977 10.44 16.8777 9.42004C17.4777 9.66004 17.8977 9.90004 18.4377 10.14Z"
        fill="#E61A35" />
    <path transform="translate(-0.618164)"
        d="M20.3572 11.2201C19.7572 11.4601 14.8371 13.8001 12.4371 15.9001C12.0171 15.6601 11.0571 14.9401 10.5771 14.7001C12.4971 13.4401 14.8971 11.7001 18.9171 10.5001C19.3971 10.7401 19.8771 10.9801 20.2971 11.2201H20.3572Z"
        fill="#E61A35" />
    <path transform="translate(-0.618164)"
        d="M10.2771 8.58002C11.4771 8.94002 12.6771 9.42002 13.8771 9.96002C13.5771 10.14 13.1571 10.26 12.7371 10.38C10.1571 9.30002 9.13715 9.00002 9.07715 8.94002C9.31715 8.82002 10.0371 8.58002 10.2771 8.52002V8.58002Z"
        fill="#E61A35" />
    <path transform="translate(-0.618164)"
        d="M12.1967 8.09998C13.4567 8.45998 14.6567 8.87998 15.8567 9.41998C15.4367 9.47998 15.0167 9.59998 14.6567 9.77998C12.0767 8.69998 11.1767 8.45998 11.1167 8.39998C11.3567 8.27998 12.0167 8.15998 12.1967 8.09998Z"
        fill="#E61A35" />
</svg>