<svg width="16" height="16" viewBox="0 0 16 16" fill="none" xmlns="http://www.w3.org/2000/svg">
    <path
        d="M3.2089 6C3.06519 6.33533 2.96936 6.62276 2.82565 6.95809L2.63405 7.38922L2.44242 6.95809C2.2987 6.62276 2.155 6.33533 2.05919 6H1.00529V6.09581C1.1011 6.09581 1.19692 6.19162 1.19692 6.28743C1.19692 6.52695 1.1969 6.71856 1.149 6.95809V7.62874C1.05319 7.96407 1.0053 8.2515 0.957397 8.58683H1.29273C1.29273 8.2515 1.29271 7.96407 1.38852 7.62874L1.48433 6.62275C1.62805 6.91018 1.77177 7.24551 1.91548 7.53294V7.62874C2.1071 7.96407 2.25079 8.2515 2.3466 8.58683H2.44242C2.58613 8.2515 2.68193 7.96407 2.82565 7.62874V7.48503C3.01726 7.19761 3.16098 6.86228 3.30469 6.57485L3.4005 7.62874C3.4005 7.96407 3.44841 8.2515 3.49632 8.58683H4.26277C4.26277 8.2515 4.16699 7.96407 4.16699 7.62874L4.11164 6.95809C4.0555 6.57485 4.02325 6.33533 4.02325 6H3.2089Z"
        fill="#384B8C" />
    <path
        d="M6.61038 8.29914C6.70619 8.15543 6.80198 7.96381 6.89779 7.8201L7.80798 6.28716C7.80798 6.23926 5.74811 6.23926 5.74811 6.23926V6.7183H5.84392C5.84392 6.62249 5.93971 6.52668 6.03552 6.47878C6.08343 6.47878 6.17925 6.47878 6.22715 6.47878H6.89779C6.80198 6.62249 6.70618 6.81411 6.65827 6.95782L5.74811 8.49076C5.74811 8.53866 7.95169 8.53866 7.95169 8.53866V8.25124C7.80798 8.25124 7.61636 8.25124 7.47265 8.25124H6.65827"
        fill="#384B8C" />
    <path
        d="M10.3958 8.58657C10.3958 8.44285 10.3958 8.25124 10.3958 8.10752V7.53267H11.3059V8.10752C11.3059 8.25124 11.3059 8.44285 11.3059 8.58657H12.0245C12.0245 8.44285 12.0245 8.25124 12.0245 8.10752V6.7183C12.0245 6.57459 12.0245 6.38297 12.0245 6.23926H11.1143V6.33507C11.2101 6.33507 11.3059 6.43088 11.3059 6.52668C11.3059 6.62249 11.3059 6.6704 11.3059 6.7662V7.29315H10.3958V6.7662C10.3958 6.62249 10.3958 6.43088 10.3958 6.28716H9.48557V6.38297C9.58138 6.38297 9.6772 6.47878 9.6772 6.57459C9.6772 6.6704 9.6772 6.7183 9.6772 6.81411V8.44285C9.58139 8.44285 9.48556 8.44285 9.38975 8.44285C9.29394 8.44285 9.19815 8.44285 9.10234 8.44285C8.91072 8.39495 8.767 8.20333 8.767 7.96381V6.81411C8.767 6.6704 8.767 6.52668 8.767 6.33507H7.85681V6.43087C7.95262 6.43087 8.04844 6.52668 8.04844 6.62249C8.04844 6.7183 8.04844 6.7662 8.04844 6.86201V7.868C8.04844 8.29914 8.33587 8.63447 8.767 8.68237C8.95862 8.68237 9.15024 8.68237 9.34186 8.68237C9.67719 8.68237 9.96462 8.68237 10.2999 8.68237"
        fill="#384B8C" />
    <path
        d="M14.9935 7.38913C15.0893 8.1556 14.5624 8.82626 13.7959 8.92207C13.0294 9.01788 12.3588 8.49093 12.2629 7.72446C12.1671 6.95799 12.6941 6.28733 13.4606 6.19153C13.5085 6.19153 13.5564 6.19153 13.6522 6.19153C14.3228 6.14362 14.9456 6.62266 15.0414 7.34123C15.0414 7.34123 15.0414 7.34123 15.0414 7.38913H14.9935ZM14.3228 7.38913C14.3228 6.95799 14.1312 6.43105 13.6043 6.43105C13.0773 6.43105 12.8857 6.95799 12.8857 7.38913C12.8857 7.82027 13.0773 8.34722 13.6043 8.34722C14.1312 8.34722 14.3228 7.82027 14.3228 7.38913Z"
        fill="#384B8C" />
    <path
        d="M5.41318 6.7183C5.41318 6.57459 5.41318 6.38297 5.41318 6.23926H4.50299V6.33507C4.5988 6.33507 4.69462 6.43088 4.69462 6.57459C4.69462 6.62249 4.69462 6.7183 4.69462 6.7662V8.15543C4.69462 8.29914 4.69462 8.49076 4.69462 8.63447H5.41318C5.41318 8.49076 5.41318 8.29914 5.41318 8.15543V6.7662"
        fill="#384B8C" />
    <path
        d="M15.9522 10.455C10.6828 9.54486 5.26959 9.54486 0.00012207 10.455C5.22168 8.8742 10.7786 8.8742 16.0001 10.455"
        fill="#384B8C" />
</svg>