<svg width="16" height="16" fill="none" xmlns="http://www.w3.org/2000/svg"><path d="M3.209 6c-.144.335-.24.623-.383.958l-.192.431-.192-.43C2.3 6.622 2.155 6.334 2.06 6H1.005v.096c.096 0 .192.096.192.191 0 .24 0 .432-.048.671v.67a6.782 6.782 0 00-.192.959h.336c0-.335 0-.623.096-.958l.095-1.006c.144.287.288.623.431.91v.096c.192.335.336.623.432.958h.095c.144-.335.24-.623.384-.958v-.144c.191-.287.335-.623.479-.91L3.4 7.629c0 .335.048.623.096.958h.767c0-.335-.096-.623-.096-.958l-.055-.67A5.991 5.991 0 014.023 6H3.21zM6.61 8.3c.096-.145.192-.336.288-.48l.91-1.533c0-.048-2.06-.048-2.06-.048v.48h.096c0-.097.096-.192.192-.24h.861a2.238 2.238 0 00-.239.479l-.91 1.533c0 .048 2.204.048 2.204.048V8.25H6.658M10.396 8.587V7.533h.91V8.587h.719V6.718 6.24h-.91v.096c.095 0 .19.096.19.192v.766h-.91v-.527-.479h-.91v.096c.096 0 .192.096.192.192V8.443h-.575c-.191-.048-.335-.24-.335-.48V6.815v-.479h-.91v.096c.096 0 .191.096.191.191v1.246c0 .431.288.766.719.814H10.3M14.993 7.39a1.36 1.36 0 01-1.197 1.532 1.36 1.36 0 01-1.533-1.198 1.36 1.36 0 011.198-1.532h.191a1.312 1.312 0 011.39 1.15v.047h-.049zm-.67 0c0-.432-.192-.959-.719-.959-.527 0-.718.527-.718.958 0 .431.191.958.718.958.527 0 .719-.527.719-.958zM5.413 6.718V6.24h-.91v.096c.096 0 .192.096.192.24v2.059h.718V6.766M15.952 10.455a46.94 46.94 0 00-15.952 0 27.583 27.583 0 0116 0" fill="#384B8C"/></svg>