<svg viewBox="0 0 40 40" xmlns="http://www.w3.org/2000/svg"><g clip-path="url(#prefix__ocean_bank_clip0)" fill-rule="evenodd" clip-rule="evenodd"><path d="M19.9 39.8c7.38 0 13.818-4.017 17.251-9.976-13.618-2.658-19.368 5.558-31.514 3.955A19.818 19.818 0 0019.9 39.8z" fill="#1E417C"/><path d="M19.9 0C8.913 0 0 8.913 0 19.9c0 1.533.174 3.023.497 4.452 1.063.305 3.389.331 8.434-.723 2.169-.453 5.419-.915 9.584-.079a8.229 8.229 0 017.79-10.873 8.229 8.229 0 014.834 14.881c1.917-.008 4.54.183 6.63 1.107a19.815 19.815 0 002.03-8.756C39.8 8.912 30.888 0 19.9 0z" fill="#89D2DD"/><path d="M19.264 25.162C12.094 23.577 7.84 27.35 1.786 27.15l.061.165c2.048 2.57 4.252 3.66 6.691 3.912l1.011.061c3.877.053 8.33-1.681 13.644-2.77a8.221 8.221 0 01-3.93-3.355z" fill="#0F9BD7"/></g><defs><clipPath id="prefix__ocean_bank_clip0"><path fill="#fff" d="M0 0h40v40H0z"/></clipPath></defs></svg>