<svg viewBox="0 0 40 40" xmlns="http://www.w3.org/2000/svg"><path d="M16.728 3.711A115.134 115.134 0 0120.24 0c3.795 3.683 7.51 7.45 11.09 11.347 1.555 1.75 3.16 3.48 4.405 5.474 1.268 1.921 2.494 3.896 3.314 6.058.53 1.333.783 2.747.951 4.165v1.346c-.13 2.102-.797 4.15-1.87 5.956a11.31 11.31 0 01-5.902 4.91c-1.133.373-2.305.716-3.51.7v-1.541c-.56-.004-1.12-.004-1.68.001-.006.524-.006 1.048-.006 1.57-.47-.003-.941-.006-1.412-.005-.013-1.996-.003-3.99-.005-5.985 1.058 0 2.118.01 3.177-.003 1.423-.016 2.861-.5 3.939-1.449 1.26-1.1 1.836-2.846 1.742-4.491-.036-2.224-.784-4.384-1.914-6.28-1.328-2.307-3.128-4.28-4.859-6.283-3.556-4.02-7.259-7.906-10.972-11.779zm12.028 30.65a66.42 66.42 0 00-.05.524c.589.19 1.175.586 1.362 1.21.201.84-.548 1.585-1.32 1.746.02.195.045.39.072.587.85.02 1.664-.54 1.995-1.316.165-.632.161-1.384-.272-1.911-.407-.571-1.094-.876-1.787-.84zm-1.779.864c-.008.72-.013 1.44.003 2.16.57-.025 1.141-.06 1.713-.069.02-.647.042-1.295-.002-1.941-.564-.114-1.138-.182-1.714-.15z" fill="#DD127B"/><path d="M16.133 4.35c.115-.136.274-.04.35.081 3.788 4.01 7.584 8.01 11.376 12.015.141.129.097.334.114.502-.008 2.443-.002 4.886-.008 7.33-1.438-1.48-2.87-2.968-4.313-4.447-2.565-2.579-5.047-5.243-7.637-7.794-.794.706-1.527 1.48-2.283 2.225-1.6 1.615-3.201 3.243-4.563 5.07-1.273 1.777-2.344 3.716-3.066 5.784-.339 1.082-.639 2.198-.62 3.342-.014 1.46.592 2.957 1.753 3.87 1.443 1.126 3.3 1.543 5.09 1.682.015 1.05-.007 2.097.006 3.146-.015.674.587 1.295 1.268 1.26.347.057.767-.205.713-.593.018-1.273-.006-2.548.01-3.822.462-.003.925-.003 1.389-.003.004 1.722-.001 3.443.005 5.163-.004.27.028.64-.288.753-.572.127-1.168-.016-1.649-.342-1.521-.834-2.461-2.402-3.03-3.995-.127-.356-.2-.736-.387-1.068-.574-.22-1.147-.447-1.742-.607.56 2.436 1.946 4.834 4.2 6.04-.409.004-.821.008-1.229-.038-2.548-.358-5.077-1.22-7.127-2.815-2.1-1.596-3.578-3.947-4.23-6.497C.12 29.994.14 29.379 0 28.786v-.534c.157-1.093.119-2.215.43-3.284.637-3.015 2.117-5.804 4.04-8.19C7.96 12.28 11.995 8.245 16.132 4.35z" fill="#DD127B"/><path d="M16.304 13.1c3.657 3.787 7.341 7.548 11.012 11.323.232.298.703.52.655.955-.026 2.359.034 4.72-.031 7.08-3.783-3.944-7.63-7.825-11.436-11.747-.095-.117-.244-.23-.212-.402.005-2.403-.016-4.806.012-7.208zM16.387 33.977c.89.012 1.782-.023 2.672.02.622.035 1.192.526 1.281 1.152.155.636-.13 1.279-.624 1.68 1.325.472 1.156 2.654-.11 3.085-1.05.138-2.111.028-3.166.086a2.63 2.63 0 01-.064-.577c.013-1.815-.007-3.63.01-5.446zm1.033 1.011c-.015.47-.013.94-.01 1.41.533-.033 1.1.09 1.61-.103.485-.246.432-.92.072-1.257a14.515 14.515 0 00-1.672-.05zm.004 2.419c-.02.518-.017 1.036-.007 1.553.604-.014 1.234.083 1.82-.087.487-.306.41-1.06-.009-1.395-.597-.092-1.203-.08-1.804-.071z" fill="#DD127B"/><path d="M21.787 34.255c.956-.55 2.537-.337 2.941.816.09.218.113.454.148.687-.335.01-.67.037-1.004.016-.13-.29-.236-.636-.55-.775-.442-.096-.92-.057-1.277.244 0 .223-.097.535.152.667.718.458 1.68.396 2.315 1.006.861.813.572 2.462-.525 2.921-.594.202-1.25.185-1.858.06-.814-.254-1.2-1.105-1.318-1.89.33-.036.66-.07.99-.098.111.4.278.88.708 1.029.466.126 1.098.116 1.382-.347.14-.282.142-.727-.187-.881-.572-.333-1.28-.316-1.841-.684-1.063-.488-1.114-2.226-.076-2.77z" fill="#DD127B"/></svg>