<svg viewBox="0 0 16 16" xmlns="http://www.w3.org/2000/svg">
    <path
        d="M11.7856 11.9693C11.4192 11.725 10.9917 11.6029 10.5642 11.6029C10.1367 11.6029 9.70924 11.725 9.34282 11.9693C8.91534 12.2136 8.48786 12.3357 7.99931 12.3357C7.57183 12.3357 7.14435 12.2136 6.77794 11.9693C6.35046 11.725 5.92298 11.6029 5.43443 11.6029C5.00695 11.6029 4.57946 11.725 4.21305 11.9693C3.78557 12.2136 3.35809 12.3357 2.86954 12.3357H2.80847C2.80847 12.3357 2.93061 12.4579 2.99168 12.5189C3.48023 12.5189 3.90771 12.3357 4.33519 12.1525C4.7016 11.9693 5.06801 11.8472 5.49549 11.8472C5.92298 11.8472 6.35046 11.9693 6.77794 12.2136C7.14435 12.4579 7.6329 12.58 8.06038 12.58C8.54893 12.58 9.03748 12.4579 9.46496 12.2136C9.83137 12.0304 10.1978 11.9082 10.6253 11.9082C11.0527 11.9082 11.4192 12.0304 11.7856 12.2136C12.2131 12.4579 12.7016 12.58 13.1902 12.58C13.1902 12.58 13.3123 12.4579 13.3734 12.3968C13.3734 12.3968 13.2512 12.3968 13.1902 12.3968C12.7016 12.3968 12.2741 12.2747 11.9077 12.0304"
        fill="white" />
    <path
        d="M10.5656 11.9692C10.1381 11.9692 9.71059 12.0914 9.34418 12.3357C8.9167 12.5799 8.48922 12.7021 8.00067 12.7021C7.57319 12.7021 7.14571 12.5799 6.7793 12.3357C6.35181 12.0914 5.92433 11.9692 5.43578 11.9692C5.0083 11.9692 4.58082 12.0914 4.21441 12.3357C3.848 12.5189 3.48159 12.641 3.11517 12.7021C3.11517 12.7631 3.23731 12.8242 3.29838 12.8853C3.66479 12.8242 3.97014 12.7021 4.27548 12.5189C4.64189 12.3357 5.0083 12.2135 5.43578 12.2135C5.86327 12.2135 6.29075 12.3357 6.71823 12.5799C7.08464 12.8242 7.57319 12.9463 8.00067 12.9463C8.48922 12.9463 8.97777 12.8242 9.40525 12.5799C9.77166 12.3967 10.1381 12.2746 10.5656 12.2746C10.993 12.2746 11.3594 12.3967 11.7259 12.641C12.0312 12.8242 12.3976 12.9463 12.764 13.0074C12.8251 13.0074 12.8862 12.8853 12.9472 12.8242C12.5198 12.8242 12.1533 12.641 11.848 12.4578C11.4816 12.2135 11.0541 12.0914 10.5656 12.0914"
        fill="white" />
    <path
        d="M10.5647 12.3362C10.1372 12.3362 9.70969 12.4583 9.34328 12.7026C8.9158 12.9469 8.48832 13.069 7.99977 13.069C7.57229 13.069 7.14481 12.9469 6.7784 12.7026C6.35091 12.4583 5.92343 12.3362 5.43488 12.3362C5.0074 12.3362 4.57992 12.4583 4.21351 12.7026C3.96924 12.8247 3.72496 12.9469 3.41962 13.0079C3.48069 13.0079 3.54175 13.1301 3.60282 13.1911C3.8471 13.1301 4.09137 13.0079 4.27458 12.9469C4.64099 12.7637 5.0074 12.6415 5.43488 12.6415C5.86236 12.6415 6.28985 12.7637 6.71733 13.0079C7.08374 13.2522 7.57229 13.3743 7.99977 13.3743C8.48832 13.3743 8.97687 13.2522 9.40435 13.0079C9.77076 12.8247 10.1372 12.7026 10.5647 12.7026C10.9921 12.7026 11.3585 12.8247 11.725 13.0079C11.9692 13.1301 12.1524 13.2522 12.4578 13.3133C12.4578 13.3133 12.5799 13.1911 12.641 13.1301C12.3356 13.069 12.0914 12.9469 11.8471 12.8247C11.4807 12.5805 11.0532 12.5194 10.5647 12.4583"
        fill="white" />
    <path
        d="M10.5648 12.7023C10.1373 12.7023 9.70986 12.8244 9.34345 13.0687C8.91596 13.313 8.48848 13.4351 7.99993 13.4351C7.57245 13.4351 7.14497 13.313 6.77856 13.0687C6.35108 12.8244 5.9236 12.7023 5.43505 12.7023C5.00757 12.7023 4.58009 12.8244 4.21367 13.0687C4.09154 13.1298 3.90833 13.1908 3.78619 13.2519L3.9694 13.374C4.09154 13.374 4.21367 13.2519 4.33581 13.2519C4.70222 13.0687 5.06864 12.9465 5.49612 12.9465C5.9236 12.9465 6.35108 13.0687 6.77856 13.313C7.14497 13.5572 7.63352 13.6794 8.061 13.6794C8.54955 13.6794 9.0381 13.5572 9.46558 13.313C9.83199 13.1298 10.1984 13.0076 10.6259 13.0076C11.0534 13.0076 11.4198 13.1298 11.7862 13.374C11.9083 13.4351 12.0305 13.4962 12.1526 13.5572L12.3358 13.4351C12.1526 13.4351 12.0305 13.313 11.8473 13.2519C11.4808 13.0076 11.0534 12.8855 10.5648 12.8855"
        fill="white" />
    <path
        d="M10.5654 13.1295C10.138 13.1295 9.71048 13.2517 9.34407 13.4959C8.91659 13.7402 8.48911 13.8623 8.00056 13.8623C7.57308 13.8623 7.1456 13.7402 6.77919 13.4959C6.3517 13.2517 5.92422 13.1295 5.43567 13.1295C5.00819 13.1295 4.58071 13.2517 4.2143 13.4959C4.2143 13.4959 4.15323 13.4959 4.09216 13.4959C4.09216 13.4959 4.2143 13.557 4.27537 13.6181C4.64178 13.4349 5.00819 13.3127 5.43567 13.3127C5.86316 13.3127 6.29064 13.4349 6.71812 13.6791C7.08453 13.9234 7.57308 14.0455 8.00056 14.0455C8.48911 14.0455 8.97766 13.9234 9.40514 13.6791C9.77155 13.4959 10.138 13.3738 10.5654 13.3738C10.9929 13.3738 11.3593 13.4959 11.7258 13.7402C11.7258 13.7402 11.8479 13.6791 11.909 13.6181C11.909 13.6181 11.7868 13.6181 11.7868 13.557C11.4204 13.3127 10.9929 13.1906 10.5044 13.1906"
        fill="white" />
    <path
        d="M9.34421 13.8626C8.91673 14.1069 8.48925 14.229 8.0007 14.229C7.57322 14.229 7.14574 14.1069 6.77932 13.8626C6.35184 13.6184 5.92436 13.4962 5.43581 13.4962C5.0694 13.4962 4.70299 13.6184 4.39764 13.7405C4.45871 13.7405 4.51978 13.8016 4.58085 13.8626C4.82513 13.7405 5.13047 13.6794 5.37474 13.6794C5.80222 13.6794 6.22971 13.8016 6.65719 14.0458C7.0236 14.2901 7.51215 14.4122 7.93963 14.4122C8.42818 14.4122 8.91673 14.2901 9.34421 14.0458C9.71062 13.8626 10.077 13.7405 10.5045 13.7405C10.8099 13.7405 11.1152 13.7405 11.3595 13.9237C11.4205 13.9237 11.4816 13.8626 11.5427 13.8016C11.2373 13.6184 10.8709 13.5573 10.5045 13.5573C10.077 13.5573 9.64955 13.6794 9.28314 13.9237"
        fill="white" />
    <path
        d="M8 0C3.54198 0 0 3.60305 0 8C0 12.3969 3.60305 16 8 16C12.3969 16 16 12.3969 16 8C16 3.54198 12.3969 0 8 0ZM8 14.7786C4.27481 14.7786 1.28244 11.7252 1.28244 8C1.28244 4.27481 4.33588 1.28244 8.06107 1.28244C11.7863 1.28244 14.7786 4.27481 14.7786 8C14.7786 11.7252 11.7863 14.7786 8 14.7786Z"
        fill="white" />
    <path
        d="M11.786 6.04602C11.7249 6.2903 11.5417 6.53457 11.3585 6.65671C11.0531 6.90098 8.9768 8.18343 8.73253 8.48877C8.54932 8.79411 8.42719 9.16053 8.42719 9.52694V11.9697H8.73253V11.359C8.73253 11.0537 8.91573 10.7483 9.09894 10.5651C9.7707 10.0155 10.4425 9.52694 11.1753 9.09946C11.6028 8.73304 11.786 8.24449 11.7249 7.69488V6.04602H11.786Z"
        fill="white" />
    <path
        d="M8.42749 8.36677C8.67176 8.06143 10.8092 6.77898 11.1145 6.53471C11.4809 6.29043 11.7252 5.86295 11.7863 5.43547V2.68738C11.7863 3.05379 11.6031 3.4202 11.2977 3.72555C10.9924 4.15303 9.52672 4.94692 8.85497 5.43547C8.24428 5.74081 7.87787 6.3515 7.87787 7.02326V12.0309H8.18321V9.40494C8.18321 9.03852 8.18321 8.67211 8.42749 8.36677Z"
        fill="white" />
    <path
        d="M6.77952 5.49617C6.10776 5.00762 4.82532 3.90839 4.64211 3.72518C4.33677 3.41984 4.21463 3.05342 4.15356 2.68701V5.2519C4.15356 5.86259 4.45891 6.4122 4.94746 6.71755C5.55814 7.2061 6.47417 7.81678 6.71845 8.12213C7.08486 8.48854 7.26807 9.03816 7.207 9.58778V12.0305H7.51234V7.14503C7.63448 6.47327 7.32914 5.86259 6.71845 5.49617H6.77952Z"
        fill="white" />
</svg>