<svg viewBox="0 0 16 16" xmlns="http://www.w3.org/2000/svg"><path d="M11.786 11.97a2.202 2.202 0 00-1.222-.367c-.427 0-.855.122-1.221.366a2.615 2.615 0 01-1.344.367c-.427 0-.855-.122-1.221-.367a2.615 2.615 0 00-1.344-.366c-.427 0-.855.122-1.221.366a2.615 2.615 0 01-1.343.367h-.062l.184.183c.488 0 .916-.183 1.343-.367.367-.183.733-.305 1.16-.305.428 0 .855.122 1.283.367.366.244.855.366 1.282.366.489 0 .977-.122 1.405-.366.366-.184.733-.306 1.16-.306.428 0 .794.122 1.16.306.428.244.917.366 1.405.366l.183-.183h-.183c-.488 0-.916-.122-1.282-.367" fill="#fff"/><path d="M10.566 11.97c-.428 0-.855.121-1.222.366a2.616 2.616 0 01-1.343.366c-.428 0-.855-.122-1.222-.366a2.615 2.615 0 00-1.343-.367c-.428 0-.855.122-1.222.367a3.883 3.883 0 01-1.099.366c0 .061.122.122.183.183.367-.06.672-.183.977-.366.367-.183.733-.306 1.16-.306.428 0 .856.123 1.283.367.367.244.855.366 1.283.366.488 0 .977-.122 1.404-.366.367-.183.733-.305 1.16-.305.428 0 .794.122 1.16.366.306.183.673.305 1.039.366.061 0 .122-.122.183-.183-.427 0-.794-.183-1.099-.366-.366-.245-.794-.367-1.282-.367" fill="#fff"/><path d="M10.565 12.336c-.428 0-.855.122-1.222.367A2.615 2.615 0 018 13.069c-.428 0-.855-.122-1.222-.366a2.615 2.615 0 00-1.343-.367c-.428 0-.855.122-1.221.367-.245.122-.489.244-.794.305.06 0 .122.122.183.183.244-.06.488-.183.672-.244.366-.183.732-.305 1.16-.305.427 0 .855.122 1.282.366.367.244.855.366 1.283.366.488 0 .977-.122 1.404-.366.367-.183.733-.305 1.16-.305.428 0 .794.122 1.161.305.244.122.427.244.733.305l.183-.183c-.305-.061-.55-.183-.794-.305-.366-.244-.794-.306-1.282-.367" fill="#fff"/><path d="M10.565 12.702c-.428 0-.855.122-1.222.367A2.615 2.615 0 018 13.435c-.428 0-.855-.122-1.221-.366a2.615 2.615 0 00-1.344-.367c-.427 0-.855.122-1.221.367-.122.06-.306.122-.428.183l.183.122c.123 0 .245-.122.367-.122.366-.183.733-.306 1.16-.306.428 0 .855.123 1.283.367.366.244.855.366 1.282.366.489 0 .977-.122 1.405-.366.366-.183.732-.305 1.16-.305.427 0 .794.122 1.16.366l.367.183.183-.122c-.183 0-.306-.122-.489-.183-.366-.244-.794-.367-1.282-.367" fill="#fff"/><path d="M10.565 13.13c-.427 0-.855.122-1.22.366A2.615 2.615 0 018 13.862c-.428 0-.855-.122-1.222-.366a2.616 2.616 0 00-1.343-.367c-.428 0-.855.123-1.222.367h-.122s.122.061.183.122c.367-.183.733-.305 1.16-.305.428 0 .856.122 1.283.366.367.244.855.367 1.283.367.488 0 .977-.123 1.404-.367.367-.183.733-.305 1.16-.305.428 0 .794.122 1.16.366 0 0 .123-.06.184-.122 0 0-.122 0-.122-.061-.367-.244-.794-.366-1.283-.366" fill="#fff"/><path d="M9.344 13.863a2.615 2.615 0 01-1.343.366c-.428 0-.855-.122-1.222-.366a2.616 2.616 0 00-1.343-.367c-.367 0-.733.122-1.038.245.06 0 .122.06.183.122.244-.122.55-.184.794-.184.427 0 .855.123 1.282.367.367.244.855.366 1.283.366.488 0 .977-.122 1.404-.366.367-.183.733-.305 1.16-.305.306 0 .611 0 .856.183.06 0 .122-.061.183-.122-.306-.184-.672-.245-1.038-.245-.428 0-.855.122-1.222.367" fill="#fff"/><path d="M8 0C3.542 0 0 3.603 0 8s3.603 8 8 8 8-3.603 8-8c0-4.458-3.603-8-8-8zm0 14.779c-3.725 0-6.718-3.054-6.718-6.779s3.054-6.718 6.78-6.718A6.698 6.698 0 0114.778 8 6.763 6.763 0 018 14.779z" fill="#fff"/><path d="M11.786 6.046a1.12 1.12 0 01-.428.61c-.305.245-2.381 1.527-2.625 1.833a2.059 2.059 0 00-.306 1.038v2.443h.306v-.611c0-.305.183-.61.366-.794A15.977 15.977 0 0111.175 9.1c.428-.366.611-.855.55-1.404V6.046h.061z" fill="#fff"/><path d="M8.427 8.367c.245-.306 2.382-1.588 2.688-1.832.366-.245.61-.672.671-1.1V2.687c0 .367-.183.733-.488 1.039-.306.427-1.771 1.22-2.443 1.71a1.76 1.76 0 00-.977 1.587v5.008h.305V9.405c0-.366 0-.733.244-1.038zM6.78 5.496a32.753 32.753 0 01-2.138-1.77c-.305-.306-.427-.673-.488-1.039v2.565c0 .61.305 1.16.793 1.466.611.488 1.527 1.099 1.771 1.404.367.367.55.916.489 1.466v2.443h.305V7.144c.122-.672-.183-1.282-.794-1.649h.062z" fill="#fff"/></svg>