<svg viewBox="0 0 24 24" xmlns="http://www.w3.org/2000/svg"><path fill="#1D8E33" d="M0 0h24v24H0z"/><path d="M15.66 15.96c-.36-.24-.78-.36-1.2-.36-.42 0-.84.12-1.2.36-.42.24-.84.36-1.32.36-.42 0-.84-.12-1.2-.36a2.57 2.57 0 00-1.32-.36c-.42 0-.84.12-1.2.36-.42.24-.84.36-1.32.36h-.06l.18.18c.48 0 .9-.18 1.32-.36.36-.18.72-.3 1.14-.3.42 0 .84.12 1.26.36.36.24.84.36 1.26.36.48 0 .96-.12 1.38-.36.36-.18.72-.3 1.14-.3.42 0 .78.12 1.14.3.42.24.9.36 1.38.36l.18-.18h-.18c-.48 0-.9-.12-1.26-.36" fill="#fff"/><path d="M14.461 15.96c-.42 0-.84.12-1.2.36-.42.24-.84.36-1.32.36-.42 0-.84-.12-1.2-.36a2.57 2.57 0 00-1.32-.36c-.42 0-.84.12-1.2.36-.36.18-.72.3-1.08.36 0 .06.12.12.18.18.36-.06.66-.18.96-.36.36-.18.72-.3 1.14-.3.42 0 .84.12 1.26.36.36.24.84.36 1.26.36.48 0 .96-.12 1.38-.36.36-.18.72-.3 1.14-.3.42 0 .78.12 1.14.36.3.18.66.3 1.02.36.06 0 .12-.12.18-.18-.42 0-.78-.18-1.08-.36-.36-.24-.78-.36-1.26-.36" fill="#fff"/><path d="M14.46 16.32c-.42 0-.84.12-1.2.36-.42.24-.84.36-1.32.36-.42 0-.84-.12-1.2-.36a2.57 2.57 0 00-1.32-.36c-.42 0-.84.12-1.2.36-.24.12-.48.24-.78.3.06 0 .12.12.18.18.24-.06.48-.18.66-.24.36-.18.72-.3 1.14-.3.42 0 .84.12 1.26.36.36.24.84.36 1.26.36.48 0 .96-.12 1.38-.36.36-.18.72-.3 1.14-.3.42 0 .78.12 1.14.3.24.12.42.24.72.3l.18-.18c-.3-.06-.54-.18-.78-.3-.36-.24-.78-.3-1.26-.36" fill="#fff"/><path d="M14.46 16.68c-.42 0-.84.12-1.2.36-.42.24-.84.36-1.32.36-.42 0-.84-.12-1.2-.36a2.57 2.57 0 00-1.32-.36c-.42 0-.84.12-1.2.36-.12.06-.3.12-.42.18l.18.12c.12 0 .24-.12.36-.12.36-.18.72-.3 1.14-.3.42 0 .84.12 1.26.36.36.24.84.36 1.26.36.48 0 .96-.12 1.38-.36.36-.18.72-.3 1.14-.3.42 0 .78.12 1.14.36l.36.18.18-.12c-.18 0-.3-.12-.48-.18-.36-.24-.78-.36-1.26-.36" fill="#fff"/><path d="M14.461 17.1c-.42 0-.84.12-1.2.36-.42.24-.84.36-1.32.36-.42 0-.84-.12-1.2-.36a2.57 2.57 0 00-1.32-.36c-.42 0-.84.12-1.2.36h-.12s.12.06.18.12c.36-.18.72-.3 1.14-.3.42 0 .84.12 1.26.36.36.24.84.36 1.26.36.48 0 .96-.12 1.38-.36.36-.18.72-.3 1.14-.3.42 0 .78.12 1.14.36 0 0 .12-.06.18-.12 0 0-.12 0-.12-.06-.36-.24-.78-.36-1.26-.36" fill="#fff"/><path d="M13.261 17.82c-.42.24-.84.36-1.32.36-.42 0-.84-.12-1.2-.36a2.57 2.57 0 00-1.32-.36c-.36 0-.72.12-1.02.24.06 0 .12.06.18.12.24-.12.54-.18.78-.18.42 0 .84.12 1.26.36.36.24.84.36 1.26.36.48 0 .96-.12 1.38-.36.36-.18.72-.3 1.14-.3.3 0 .6 0 .84.18.06 0 .12-.06.18-.12-.3-.18-.66-.24-1.02-.24-.42 0-.84.12-1.2.36" fill="#fff"/><path d="M11.94 4.2c-4.38 0-7.86 3.54-7.86 7.86s3.54 7.86 7.86 7.86 7.86-3.54 7.86-7.86c0-4.38-3.54-7.86-7.86-7.86zm0 14.52c-3.66 0-6.6-3-6.6-6.66s3-6.6 6.66-6.6 6.6 2.94 6.6 6.6c0 3.66-2.94 6.66-6.66 6.66z" fill="#fff"/><path d="M15.66 10.14a1.1 1.1 0 01-.42.6c-.3.24-2.34 1.5-2.58 1.8-.18.3-.3.66-.3 1.02v2.4h.3v-.6c0-.3.18-.6.36-.78.66-.54 1.32-1.02 2.04-1.44.42-.36.6-.84.54-1.38v-1.62h.06z" fill="#fff"/><path d="M12.36 12.42c.24-.3 2.34-1.56 2.64-1.8.36-.24.6-.66.66-1.08v-2.7c0 .36-.18.72-.48 1.02-.3.42-1.74 1.2-2.4 1.68-.6.3-.96.9-.96 1.56v4.92h.3v-2.58c0-.36 0-.72.24-1.02zM10.742 9.6c-.66-.48-1.92-1.56-2.1-1.74-.3-.3-.42-.66-.48-1.02v2.52c0 .6.3 1.14.78 1.44.6.48 1.5 1.08 1.74 1.38.36.36.54.9.48 1.44v2.4h.3v-4.8c.12-.66-.18-1.26-.78-1.62h.06z" fill="#fff"/></svg>