<svg viewBox="0 0 24 24" xmlns="http://www.w3.org/2000/svg">
    <rect width="24" height="24" fill="white" />
    <path transform="translate(-0.856934,-0.952026)"
        d="M15.3774 12.9522C15.3774 14.3322 14.2974 15.4722 12.8574 15.5322C11.4774 15.5322 10.3374 14.4522 10.3374 13.0722C10.3374 11.6922 11.3574 10.5522 12.7374 10.4922C14.1174 10.4922 15.3174 11.5722 15.3174 12.9522H15.3774ZM12.9174 18.4722C9.91742 18.4722 7.39743 16.0722 7.33743 13.0722C7.33743 10.0122 9.67743 7.55215 12.7374 7.43215C15.7974 7.43215 18.2574 9.83215 18.3174 12.8322C18.3174 15.8922 15.9774 18.3522 12.9174 18.4122V18.4722ZM15.1974 6.83215C14.3574 6.83215 13.5174 7.01215 12.7374 7.37215C11.9574 7.07215 11.1174 6.89215 10.2774 6.89215C6.91741 6.89215 4.27743 9.71215 4.33743 13.0122C4.33743 13.0122 4.33743 13.0122 4.33743 13.0722C4.33743 16.4322 7.15742 19.1322 10.5174 19.0722C11.3574 19.0722 12.1974 18.8322 12.9774 18.5322C13.7574 18.8322 14.5974 19.0122 15.4974 19.0122C18.8574 18.9522 21.4974 16.1922 21.4374 12.8322C21.4374 9.47215 18.6774 6.83215 15.3174 6.83215"
        fill="#D62427" />
</svg>