<svg viewBox="0 0 40 40" xmlns="http://www.w3.org/2000/svg"><g clip-path="url(#prefix__scvn_bank_clip0)" fill-rule="evenodd" clip-rule="evenodd"><path d="M27.91 8.125a3.539 3.539 0 012.547 1.035 3.586 3.586 0 011.062 2.538c0 .477-.09.936-.28 1.377a3.62 3.62 0 01-.783 1.162 3.634 3.634 0 01-1.17.774c-.44.18-.909.27-1.377.26-.837 0-1.467-.27-2.07-.656l-4.474-2.917 4.474-2.916c.594-.387 1.206-.657 2.07-.657zm-1.37 31.287L9.773 28.494s-2.106-1.206-2.583-3.456c-.675-3.16 1.557-5.869 1.557-5.869l21.755 14.168c1.674 1.098 2.134 3.33 1.062 5.022-1.107 1.737-3.384 2.115-5.022 1.053z" fill="#38D200"/><path d="M10.61 39.988a3.539 3.539 0 01-2.547-1.035A3.585 3.585 0 017 36.415c-.001-.477.089-.936.278-1.377.18-.432.45-.828.783-1.161a3.634 3.634 0 011.17-.774c.441-.18.91-.27 1.377-.261.837 0 1.467.27 2.07.657l4.474 2.916-4.473 2.916c-.595.387-1.207.657-2.07.657zm.044-23.168S8.09 15.272 8.09 11.68c0-3.59 2.565-5.103 2.565-5.103L19.826.583a3.645 3.645 0 012.728-.505 3.593 3.593 0 012.286 1.576c.522.81.71 1.79.504 2.727a3.593 3.593 0 01-1.575 2.286L16.046 11.7l13.16 8.568s2.367 1.36 2.835 3.646c.648 3.195-1.549 5.832-1.549 5.832L10.654 16.82z" fill="#0473EA"/></g><defs><clipPath id="prefix__scvn_bank_clip0"><path fill="#fff" d="M0 0h40v40H0z"/></clipPath></defs></svg>