<svg viewBox="0 0 24 24" xmlns="http://www.w3.org/2000/svg"><path fill="#F6F6F6" d="M0 0h24v24H0z"/><mask id="prefix__a" style="mask-type:luminance" maskUnits="userSpaceOnUse"><path transform="translate(-.618 -.952)" d="M10.758 14.752c-1.44-1.44-1.68-3.72-.54-5.46a4.301 4.301 0 016 1.26c.96 1.44.96 3.3 0 4.74-1.74 1.14-3.96.9-5.46-.54zm-5.1-1.86c0 3.84 3.12 6.9 6.9 6.9 3.48 0 6.42-2.58 6.84-6.06v-.84-.84c-.48-3.78-3.9-6.48-7.68-6a6.876 6.876 0 00-6.06 6.84z" fill="#fff"/></mask><g mask="url(#prefix__a)"><path transform="translate(-.618 -.952)" d="M19.518 6.052h-13.8v13.8h13.8v-13.8z" fill="url(#prefix__paint0_radial_223_24580)"/></g><mask id="prefix__b" style="mask-type:luminance" maskUnits="userSpaceOnUse"><path transform="translate(-.618 -.952)" d="M10.758 8.692c-.18.18-.36.42-.54.66a4.301 4.301 0 016 1.26c.96 1.44.96 3.3 0 4.74a4.34 4.34 0 001.2-6 4.34 4.34 0 00-6-1.2c-.24.18-.48.36-.66.54z" fill="#fff"/></mask><g mask="url(#prefix__b)"><path transform="translate(-.618 -.952)" d="M14.431 3.219l-8.145 8.146 8.146 8.146 8.145-8.146-8.146-8.146z" fill="url(#prefix__paint1_linear_223_24580)"/></g><defs><radialGradient id="prefix__paint0_radial_223_24580" cx="0" cy="0" r="1" gradientUnits="userSpaceOnUse" gradientTransform="matrix(13.8 0 0 13.98 -31.722 -91.034)"><stop stop-color="#37A7DF"/><stop offset=".2" stop-color="#36A3DB"/><stop offset=".4" stop-color="#3497D1"/><stop offset=".6" stop-color="#3085C0"/><stop offset=".8" stop-color="#2C6AA8"/><stop offset="1" stop-color="#243E80"/></radialGradient><linearGradient id="prefix__paint1_linear_223_24580" gradientUnits="userSpaceOnUse"><stop stop-color="#AD1A1E"/><stop offset=".2" stop-color="#C41C22"/><stop offset=".3" stop-color="#D51D24"/><stop offset=".4" stop-color="#DF1E25"/><stop offset=".5" stop-color="#E31F26"/><stop offset="1" stop-color="#E31F26"/></linearGradient></defs></svg>