<svg viewBox="0 0 40 40" xmlns="http://www.w3.org/2000/svg"><path d="M22.117 23.486l2.278-1.204H22.75l-2.486 1.377v-1.377h-1.22v3.1h1.22v-.935l.996-.52 1.68 1.455h1.593l-2.416-1.896zM16.566 22.282v2.07l-2.485-2.07h-1.186v3.1h1.134v-2.026l2.468 2.026h1.221v-3.1h-1.152zM9.128 24.161h-.823l.823-1.152v-.727h-.65l-2.373 3.1h1.317l.493-.71H9.12v-.52l.009.01z" fill="#0066B2"/><path d="M9.127 22.282v.727l.84 1.152h-.84v.52h1.221l.537.71h1.343l-2.451-3.1h-.65v-.009zM5.395 24.023c-.208-.14-.476-.234-.857-.286.268-.06.476-.156.632-.269.156-.13.225-.268.225-.398s-.06-.268-.19-.364c-.113-.112-.286-.19-.46-.268a2.742 2.742 0 00-.632-.113 15.804 15.804 0 00-1.09-.034H.597v3.1h2.407c.598 0 .979-.018 1.152-.018.329-.017.597-.078.822-.155.208-.078.399-.19.52-.303.13-.14.208-.286.208-.425 0-.173-.113-.329-.303-.459l-.009-.008zM1.82 22.802h1.186c.303 0 .502 0 .572.017.207 0 .363.034.459.095.112.06.155.13.155.225 0 .113-.06.19-.173.251-.112.061-.286.096-.502.113H1.81v-.71l.009.009zm2.424 1.913c-.112.078-.268.113-.441.139-.113 0-.381.017-.806.017H1.81v-.84h1.186c.46.018.745.018.9.06a.93.93 0 01.382.13c.095.079.13.157.13.226 0 .112-.06.208-.173.268h.008z" fill="#0066B2"/><path d="M21.104 7.664l1.897 1.897h13.795c-.398-.65-.84-1.282-1.316-1.897H21.104zM28.335 1.983a19.84 19.84 0 00-16.93 0h16.93zM24.915 11.448l1.879 1.897h11.82a20.28 20.28 0 00-.788-1.897H24.914zM33.774 5.768A24.724 24.724 0 0031.53 3.87H8.21a19.573 19.573 0 00-2.235 1.897h27.799zM9.223 17.138l1.879-1.897H.572a16.249 16.249 0 00-.364 1.897h9.015zM16.765 9.56l1.897-1.896H4.269a21.221 21.221 0 00-1.316 1.897h13.813zM39.723 19.026H.017C0 19.355 0 19.658 0 19.96c0 .33 0 .65.017.953h29.349v3.117l-9.448 9.509-6.945-6.945H1.126c2.736 7.733 10.106 13.24 18.748 13.24 10.964 0 19.857-8.893 19.857-19.883 0-.303 0-.615-.017-.935l.009.009zM12.99 13.345l1.896-1.897H1.914a22.95 22.95 0 00-.788 1.897H12.99z" fill="#EC1C24"/></svg>