<svg viewBox="0 0 24 24" xmlns="http://www.w3.org/2000/svg">
    <rect width="24" height="24" rx="6" fill="#4E317D" />
    <path transform="translate(-0.904297)"
        d="M5.03949 18.1753C6.31919 18.7835 7.59889 19.3918 8.87859 20C8.94595 20 9.0133 20 9.08065 20H12.0442C12.1789 20 12.2462 20 12.2462 19.7973C12.2462 18.9187 12.2462 18.0401 12.2462 17.1616C12.2462 16.283 12.2462 17.094 12.2462 17.0264C12.2462 17.0264 12.1115 17.0264 12.0442 17.094C11.1686 17.5671 10.2256 17.7698 9.21536 17.7022C8.81124 17.7022 8.47448 17.4995 8.20507 17.2291C7.7336 16.7561 7.46419 16.0803 7.53154 15.4044C7.53154 14.8638 7.53154 14.2555 7.66624 13.7149C7.66624 13.0391 7.93566 12.4308 8.20507 11.8226C8.94595 10.2006 10.0236 8.78142 11.3033 7.56494C11.7748 7.15945 12.2462 6.82154 12.7177 6.48363C12.8524 6.41605 12.9871 6.41605 13.0545 6.48363C13.4586 6.75396 13.7953 7.02429 14.1995 7.29461C15.075 8.1056 15.8833 8.98416 16.5568 9.99789C17.2977 10.944 17.7691 12.0929 18.0386 13.2418C18.2406 14.1204 18.308 14.9989 18.1733 15.9451C18.1059 16.9588 17.163 17.7698 16.1527 17.7022C15.6139 17.7022 15.075 17.6346 14.6036 17.4319C14.2668 17.2967 13.8627 17.1616 13.5259 17.0264V19.7297C13.5259 19.9324 13.5259 19.9324 13.7953 19.9324C14.7383 19.9324 15.6812 19.9324 16.6242 19.9324C16.7589 19.9324 16.8936 19.9324 16.9609 19.8648C18.1733 19.2566 19.453 18.6484 20.6653 18.1077C20.9347 17.9725 20.9347 17.9725 20.8674 17.7022C20.1938 14.9314 19.453 12.2281 18.7794 9.45723C18.7794 9.38965 18.7121 9.25449 18.6447 9.18691C18.3753 8.91658 18.0386 8.64625 17.7691 8.37592C17.2303 7.90285 16.6915 7.3622 16.0853 6.88912C15.3444 6.21331 14.6036 5.53749 13.8627 4.86167C13.5933 4.59134 13.2565 4.32101 12.9871 4.05069C12.9871 3.9831 12.8524 3.9831 12.785 4.05069C12.6503 4.18585 12.5156 4.32101 12.3809 4.3886C11.7748 4.92925 11.2359 5.46991 10.6298 5.94298C10.0236 6.48363 9.41741 7.09187 8.81124 7.63252L7.46419 8.849C7.26213 8.98416 7.12742 9.18691 6.99272 9.45723C6.31919 12.1605 5.64566 14.9314 4.90479 17.7022C4.90479 17.9725 4.90479 18.1077 5.10684 18.1753H5.03949Z"
        fill="#FDC34A" />
</svg>