<svg viewBox="0 0 24 24" xmlns="http://www.w3.org/2000/svg"><path fill="#fff" d="M0 0h24v24H0z"/><path d="M5.999 9.18c-.18.42-.3.78-.48 1.2l-.24.54-.24-.54c-.18-.42-.36-.78-.48-1.2h-1.32v.12c.12 0 .24.12.24.24 0 .3 0 .54-.06.84v.84c-.12.42-.18.78-.24 1.2h.42c0-.42 0-.78.12-1.2l.12-1.26c.18.36.36.78.54 1.14v.12c.24.42.42.78.54 1.2h.12c.18-.42.3-.78.48-1.2v-.18c.24-.36.42-.78.6-1.14l.12 1.32c0 .42.06.78.12 1.2h.96c0-.42-.12-.78-.12-1.2l-.07-.84c-.07-.48-.11-.78-.11-1.2h-1.02zM10.26 12.06c.12-.18.24-.42.36-.6l1.14-1.92c0-.06-2.58-.06-2.58-.06v.6h.12c0-.12.12-.24.24-.3h1.08c-.12.18-.24.42-.3.6L9.18 12.3c0 .06 2.76.06 2.76.06V12h-1.62M15 12.42V11.1h1.14V12.42h.9v-2.34-.6H15.9v.12c.12 0 .24.12.24.24v.96H15v-.66-.6h-1.14v.12c.12 0 .24.12.24.24v2.34h-.72c-.24-.06-.42-.3-.42-.6V10.2v-.6h-1.14v.12c.12 0 .24.12.24.24v1.56c0 .54.36.96.9 1.02h1.92M20.759 10.92c.12.96-.54 1.8-1.5 1.92-.96.12-1.8-.54-1.92-1.5-.12-.96.54-1.8 1.5-1.92h.24c.84-.06 1.62.54 1.74 1.44v.06h-.06zm-.84 0c0-.54-.24-1.2-.9-1.2s-.9.66-.9 1.2c0 .54.24 1.2.9 1.2s.9-.66.9-1.2zM8.76 10.08v-.6H7.62v.12c.12 0 .24.12.24.3v2.58h.9v-2.34M21.96 14.76a58.79 58.79 0 00-19.98 0c6.54-1.98 13.5-1.98 20.04 0" fill="#384B8C"/></svg>