<svg viewBox="0 0 24 24" xmlns="http://www.w3.org/2000/svg">
    <rect width="24" height="24" fill="white" />
    <path transform="translate(-0.952637,-0.952026)"
        d="M6.95136 10.1321C6.77136 10.5521 6.65133 10.9121 6.47133 11.3321L6.23135 11.8721L5.99133 11.3321C5.81133 10.9121 5.63134 10.5521 5.51134 10.1321H4.19133V10.2521C4.31133 10.2521 4.43135 10.3721 4.43135 10.4921C4.43135 10.7921 4.43133 11.0321 4.37133 11.3321V12.1721C4.25133 12.5921 4.19135 12.9521 4.13135 13.3721H4.55136C4.55136 12.9521 4.55133 12.5921 4.67133 12.1721L4.79133 10.9121C4.97133 11.2721 5.15135 11.6921 5.33135 12.0521V12.1721C5.57135 12.5921 5.75133 12.9521 5.87133 13.3721H5.99133C6.17133 12.9521 6.29133 12.5921 6.47133 12.1721V11.9921C6.71133 11.6321 6.89133 11.2121 7.07133 10.8521L7.19133 12.1721C7.19133 12.5921 7.25134 12.9521 7.31134 13.3721H8.27133C8.27133 12.9521 8.15136 12.5921 8.15136 12.1721L8.08203 11.3321C8.01172 10.8521 7.97133 10.5521 7.97133 10.1321H6.95136Z"
        fill="#384B8C" />
    <path transform="translate(-0.952637,-0.952026)"
        d="M11.2118 13.0118C11.3318 12.8318 11.4518 12.5918 11.5718 12.4118L12.7118 10.4918C12.7118 10.4318 10.1318 10.4318 10.1318 10.4318V11.0318H10.2518C10.2518 10.9118 10.3718 10.7918 10.4918 10.7318C10.5518 10.7318 10.6718 10.7318 10.7318 10.7318H11.5718C11.4518 10.9118 11.3318 11.1518 11.2718 11.3318L10.1318 13.2518C10.1318 13.3118 12.8918 13.3118 12.8918 13.3118V12.9518C12.7118 12.9518 12.4718 12.9518 12.2918 12.9518H11.2718"
        fill="#384B8C" />
    <path transform="translate(-0.952637,-0.952026)"
        d="M15.953 13.3718C15.953 13.1918 15.953 12.9518 15.953 12.7718V12.0518H17.093V12.7718C17.093 12.9518 17.093 13.1918 17.093 13.3718H17.993C17.993 13.1918 17.993 12.9518 17.993 12.7718V11.0318C17.993 10.8518 17.993 10.6118 17.993 10.4318H16.853V10.5518C16.973 10.5518 17.093 10.6718 17.093 10.7918C17.093 10.9118 17.093 10.9718 17.093 11.0918V11.7518H15.953V11.0918C15.953 10.9118 15.953 10.6718 15.953 10.4918H14.813V10.6118C14.933 10.6118 15.053 10.7318 15.053 10.8518C15.053 10.9718 15.053 11.0318 15.053 11.1518V13.1918C14.933 13.1918 14.813 13.1918 14.693 13.1918C14.573 13.1918 14.453 13.1918 14.333 13.1918C14.093 13.1318 13.913 12.8918 13.913 12.5918V11.1518C13.913 10.9718 13.913 10.7918 13.913 10.5518H12.7729V10.6718C12.8929 10.6718 13.013 10.7918 13.013 10.9118C13.013 11.0318 13.013 11.0918 13.013 11.2118V12.4718C13.013 13.0118 13.373 13.4318 13.913 13.4918C14.153 13.4918 14.393 13.4918 14.633 13.4918C15.053 13.4918 15.413 13.4918 15.833 13.4918"
        fill="#384B8C" />
    <path transform="translate(-0.952637,-0.952026)"
        d="M21.7114 11.8719C21.8314 12.8319 21.1714 13.6719 20.2114 13.7919C19.2514 13.9119 18.4114 13.2519 18.2914 12.2919C18.1714 11.3319 18.8314 10.4919 19.7914 10.3719C19.8514 10.3719 19.9114 10.3719 20.0314 10.3719C20.8714 10.3119 21.6514 10.9119 21.7714 11.8119C21.7714 11.8119 21.7714 11.8119 21.7714 11.8719H21.7114ZM20.8714 11.8719C20.8714 11.3319 20.6314 10.6719 19.9714 10.6719C19.3114 10.6719 19.0714 11.3319 19.0714 11.8719C19.0714 12.4119 19.3114 13.0719 19.9714 13.0719C20.6314 13.0719 20.8714 12.4119 20.8714 11.8719Z"
        fill="#384B8C" />
    <path transform="translate(-0.952637,-0.952026)"
        d="M9.71228 11.0318C9.71228 10.8518 9.71228 10.6118 9.71228 10.4318H8.57227V10.5518C8.69227 10.5518 8.81228 10.6718 8.81228 10.8518C8.81228 10.9118 8.81228 11.0318 8.81228 11.0918V12.8318C8.81228 13.0118 8.81228 13.2518 8.81228 13.4318H9.71228C9.71228 13.2518 9.71228 13.0118 9.71228 12.8318V11.0918"
        fill="#384B8C" />
    <path transform="translate(-0.952637,-0.952026)"
        d="M22.9121 15.7121C16.3121 14.5721 9.53213 14.5721 2.93213 15.7121C9.47213 13.7321 16.4321 13.7321 22.9721 15.7121"
        fill="#384B8C" />
</svg>