<svg viewBox="0 0 40 40" xmlns="http://www.w3.org/2000/svg">
    <path
        d="M19.8242 8.92578H20L20.0195 8.94531L20.293 8.98438L20.5273 9.08203L20.7422 9.19922L20.957 9.375L21.7383 10.1562L21.8945 10.293L22.9883 11.3867L23.1836 11.5625L23.7891 12.168L23.9453 12.3047L24.4922 12.8516L24.6484 12.9883L25.1758 13.5156L25.332 13.6523L25.625 13.9453L25.7812 14.082L26.2109 14.5117L26.3672 14.6484L26.6406 14.9219L26.7969 15.0586L26.9531 15.2148L27.1094 15.3516L27.4023 15.6445L27.5586 15.7812L27.7148 15.9375L27.8711 16.0742L28.0859 16.2891L28.2812 16.5625L28.3984 16.8164L28.4375 16.9531L28.457 17.3438L28.418 17.5195L28.3398 17.7344L28.1641 17.9883L27.8906 18.2812L27.7344 18.418L27.2656 18.8867L27.1094 19.0234L26.7188 19.4141L26.5625 19.5508L25.8203 20.293L25.6641 20.4297L25.4102 20.6836L25.2539 20.8203L24.7852 21.2891L24.6289 21.4258L23.6133 22.4414L23.457 22.5781L23.0078 23.0273L22.8516 23.1641L22.4219 23.5938L22.2656 23.7305L21.5234 24.4727L21.3672 24.6094L21.0352 24.9414L20.8789 25.0781L20.6836 25.2539L20.5664 25.332L20.332 25.4102L20.1367 25.4492H19.707L19.6289 25.4102L19.4727 25.3906L19.2188 25.2539L19.0039 25.0781L18.8477 24.9219L18.6914 24.7852L18.2812 24.375L18.2422 24.3555V24.3164L18.1641 24.2773L16.9727 23.0859L16.8164 22.9492L16.4258 22.5586L16.2695 22.4219L15.957 22.1289L14.9805 21.1523L14.8828 21.0742V21.0352L14.8047 20.9961L14.5117 20.7031L14.3555 20.5664L14.2188 20.4297L14.1211 20.3516L13.2422 19.4727L13.2031 19.4531V19.4141L13.1445 19.3945V19.3555L13.0664 19.3164L12.5781 18.8281L12.4219 18.6914L12.1484 18.418L11.9922 18.2812L11.7773 18.0664L11.582 17.8125L11.4844 17.6172L11.4258 17.4023V16.9922L11.5039 16.7578L11.6406 16.5039L11.8164 16.3086L12.0312 16.0742L12.3047 15.8008H12.3438L12.3633 15.7422L12.5195 15.6055L13.2227 14.9023H13.2617V14.8633L13.418 14.7266L13.7305 14.4141L13.8867 14.2773L14.3164 13.8477L14.4727 13.7109L14.7852 13.3984H14.8242L14.8438 13.3398L15 13.2031L15.4492 12.7539L15.6055 12.6172L16.0156 12.207L16.1719 12.0703L16.8164 11.4258H16.8555V11.3867L16.9531 11.3086L17.5 10.7617L17.6562 10.625L18.0469 10.2344H18.0859L18.1055 10.1758L18.2617 10.0391L18.6719 9.62891L18.8281 9.49219L19.082 9.23828L19.2969 9.10156L19.4336 9.02344L19.6289 8.96484L19.8047 8.94531L19.8242 8.92578ZM19.8633 9.47266L19.5703 9.57031L19.3945 9.6875L19.1992 9.86328L18.3008 10.7617L18.1445 10.8984L17.6953 11.3477L17.5391 11.4844L16.8945 12.1289L16.7383 12.2656L16.4453 12.5586L16.2891 12.6953L15.957 13.0273L15.8008 13.1641L14.9805 13.9844L14.8242 14.1211L14.5312 14.4141L14.375 14.5508L14.043 14.8828L13.8867 15.0195L13.5352 15.3711L13.3789 15.5078L12.793 16.0938L12.6367 16.2305L12.3633 16.5039L12.2656 16.582L12.0898 16.7969L12.0117 16.9727L11.9922 17.0703V17.3438L12.0703 17.5391L12.2266 17.7344L12.7539 18.2617L12.9102 18.3984L13.125 18.5938L13.2617 18.75L13.457 18.9258L13.5352 19.0234L13.6914 19.1602L14.2188 19.6875H14.2578V19.7266L14.4141 19.8633L15.0195 20.4688L15.1758 20.6055L15.8203 21.25L15.9766 21.3867L16.7773 22.1875L16.9336 22.3242L17.6758 23.0664L17.832 23.2031L18.2227 23.5938H18.2617V23.6328L18.418 23.7695L18.9453 24.2969H18.9844V24.3359L19.1406 24.4727L19.4141 24.7461L19.6094 24.8633L19.7266 24.9023H20.0781L20.2344 24.8633L20.4297 24.7656L20.6641 24.5508L20.8398 24.375L20.8789 24.3555V24.3164L20.957 24.2773L21.0547 24.1797V24.1406L21.1328 24.1016L21.6992 23.5352L21.8555 23.3984L22.5 22.7539L22.6562 22.6172L23.2227 22.0508L23.3789 21.9141L23.418 21.8359H23.457V21.7969L23.5352 21.7578L24.1406 21.1523L24.2969 21.0156L24.5898 20.7227L24.6289 20.7031V20.6641L24.6875 20.6445L24.7461 20.5859V20.5469L24.8242 20.5078L25.4297 19.9023L25.4883 19.8633V19.8242L25.5664 19.7852L25.8008 19.5508L25.957 19.4141L26.5039 18.8672L26.6602 18.7305L27.0508 18.3398L27.168 18.2422L27.7344 17.6758L27.832 17.5391L27.8906 17.3438V17.0508L27.8125 16.8359L27.6758 16.6602L27.6172 16.582H27.5781L27.5391 16.5039L27.3047 16.2891L27.1289 16.1133L26.9727 15.9766L26.6211 15.625L26.4648 15.4883L25.8984 14.9219L25.7422 14.7852L25.3125 14.3555L25.1562 14.2188L24.707 13.7695L24.5508 13.6328L23.8477 12.9297L23.6914 12.793L23.0078 12.1094L22.8516 11.9727L22.2461 11.3672L22.0898 11.2305L21.2109 10.3516L21.0547 10.2148L20.6055 9.76562L20.3516 9.58984L20.1172 9.49219L20.0195 9.47266H19.8633Z"
        fill="#1C6CAF" />
    <path
        d="M19.4336 13.2812H20.1367L20.6836 13.3398L21.3281 13.457L22.0508 13.6328L22.793 13.8672L23.3203 14.043L23.4375 14.1406L23.4766 14.2383V14.668L23.457 14.8633L23.3984 14.9023L22.8516 14.6484L22.4219 14.4531L22.0312 14.2969L21.543 14.1602L20.918 14.043L20.4688 13.9844L20.0977 13.9648H19.7656L19.3555 14.0039L19.0625 14.0625L18.6719 14.1797L18.2812 14.3555L17.9492 14.5312L17.5781 14.7852L17.2461 15.0586L17.0508 15.2344L16.9727 15.3516L16.8555 15.4883L16.6797 15.8008L16.5625 16.1133L16.5039 16.3477L16.4844 16.6016V16.9141L16.5234 17.2266L16.6211 17.5391L16.7773 17.8516L16.9531 18.1055L17.1289 18.3203L17.3242 18.5156L17.5 18.6523L17.7344 18.8281L18.125 19.0625L18.4375 19.2188L18.8086 19.3945L19.043 19.5117L19.0625 19.5898L18.8281 20.1953L18.75 20.3516L18.7109 20.3711L18.5352 20.3516L18.125 20.2148L17.832 20.0977L17.6758 20.0195L17.3633 19.8828L16.9336 19.6484L16.6797 19.4922L16.2891 19.2188L16.0742 19.043L15.8789 18.8672L15.625 18.6328L15.3711 18.3594L15.1953 18.125L15 17.793L14.8828 17.5391L14.7852 17.2461L14.7266 16.9531L14.707 16.7969V16.3477L14.7656 15.9961L14.8633 15.6836L15 15.3711L15.1172 15.1758L15.2734 14.9609L15.5078 14.6875L15.7227 14.4727L15.9375 14.2969L16.2695 14.0625L16.582 13.8867L16.8945 13.7305L17.2852 13.5938L17.6172 13.4961L18.1445 13.3984L18.5742 13.3398L19.4336 13.2812Z"
        fill="#1C6CAF" />
    <path
        d="M23.5156 26.7578H25.9375L26.3477 26.8164L26.6016 26.9141L26.8164 27.0703L26.9922 27.2656L27.1289 27.4609L27.168 27.7539L27.1875 27.8125V28.0078L27.1484 28.2031L27.1094 28.3398L26.9531 28.5938L26.7188 28.8281L26.7383 28.9258L26.8945 29.043L27.0117 29.1797L27.1289 29.3945L27.1875 29.5508V29.9805L27.1289 30.2148L26.9727 30.5273L26.8555 30.6641L26.6602 30.8008L26.3086 30.918L26.2109 30.957L25.8008 30.9766H23.4766L23.457 30.957V26.8555L23.4766 26.7773L23.5156 26.7578ZM24.4922 27.6758V28.418H25.7422L25.918 28.3594L26.0352 28.2617L26.0938 28.0664L26.0742 27.8906L26.0156 27.793L25.9375 27.7148L25.8008 27.6758H24.4922ZM24.4727 29.3164V30.0781L24.4922 30.0977H25.7422L25.918 30.0586L26.0352 29.9609L26.0938 29.8438V29.5703L26.0156 29.4141L25.9375 29.3555L25.7031 29.3164H24.4727Z"
        fill="#1C6CAF" />
    <path
        d="M32.1484 26.7578H33.3008L33.418 26.9336L33.6133 27.2852L33.8867 27.7734L34.1211 28.1836L34.375 28.6523L34.5703 28.9844L34.7266 29.2578H34.8242L34.8047 27.793L34.7852 27.7734V26.8164L34.8438 26.7578H35.7812L35.8203 26.7773V30.957L35.8008 30.9766H34.7266L34.6094 30.7812L34.375 30.3711L34.082 29.8438L33.9062 29.5508L33.6719 29.1211L33.418 28.6719L33.2617 28.3984L33.1445 28.3789V29.375L33.1641 29.3945V29.5117L33.1445 29.5312L33.125 29.8633H33.1641V30L33.1445 30.0195V30.3906L33.1641 30.4102V30.8984L33.1055 30.9766H32.1484L32.1289 30.8984V26.7773L32.1484 26.7578Z"
        fill="#1C6CAF" />
    <path
        d="M19.082 26.7578H20.1953L20.3125 26.8555L20.5664 27.3242L20.7422 27.6367L20.9766 28.0469L21.4648 28.9258L21.6211 29.2188V29.2578H21.7578V28.8281L21.7383 28.8086L21.7188 28.4961V26.875L21.7578 26.7578H22.7148L22.7539 26.7773V30.9375L22.6953 30.9766H21.6797L21.6016 30.8984L21.4258 30.5859L21.2109 30.1953L20.8984 29.6484L20.6445 29.1992L20.3516 28.6719L20.1562 28.3398L20.0781 28.3203V30.957L20.0586 30.9766H19.082L19.0625 30.9375V30.7812L19.043 30.6641L19.0625 30.5273V26.8164L19.082 26.7578Z"
        fill="#1C6CAF" />
    <path
        d="M11.9336 26.7578H14.0234L14.0625 26.7969L14.082 26.8945V27.4805L14.043 27.6172L11.9727 27.6367L11.7773 27.6953L11.6016 27.8125L11.4648 27.9688L11.3867 28.1641L11.3477 28.3398L11.3086 28.6914V29.1406L11.3672 29.5508L11.4453 29.7461L11.6016 29.9219L11.7773 30.0195L11.9922 30.0586L12.0117 30.0781L13.0273 30.0977V29.2969H11.9922L11.9336 29.2773L11.8945 29.1992V28.4375L11.9141 28.418H14.0625L14.082 28.4375V30.8398L14.043 30.957L14.0039 30.9766H11.9922L11.6211 30.957L11.5234 30.918L11.3477 30.8789L11.1914 30.8203L10.8984 30.6445L10.7031 30.4688L10.5273 30.2539L10.293 29.7852L10.2148 29.4336L10.1953 29.2773L10.1758 29.2578V28.5742L10.2148 28.5156L10.2344 28.2617L10.2734 28.1445L10.3516 27.8516L10.5078 27.5391L10.625 27.3633L10.8594 27.1289L11.1133 26.9727L11.3867 26.8555L11.5234 26.8164L11.875 26.7773L11.9336 26.7578Z"
        fill="#1C6CAF" />
    <path
        d="M1.23047 26.7578H3.76953L3.82812 26.875V27.5586L3.76953 27.6562L1.52344 27.6758L1.30859 27.6953L1.19141 27.7734L1.11328 27.8906L1.09375 28.0859L1.11328 28.2617L1.17188 28.3594L1.30859 28.418L1.40625 28.457H1.52344L1.54297 28.4375H2.20703L2.22656 28.457H2.55859L2.63672 28.4375L2.65625 28.457L3.06641 28.4766L3.35938 28.5547L3.59375 28.6719L3.76953 28.8281L3.88672 29.0234L3.96484 29.2188L3.98438 29.4141L4.00391 29.4531L4.02344 29.6289V29.8047L3.98438 29.9414L3.94531 30.1758L3.78906 30.4883L3.65234 30.6641L3.33984 30.8398L3.06641 30.918L2.96875 30.957L2.59766 30.9766H0.253906L0.195312 30.918L0.175781 30.8398L0.195312 30.8008V30.3125L0.175781 30.293L0.195312 30.1562L0.234375 30.0977L2.65625 30.0781L2.85156 30L2.92969 29.9023L2.94922 29.8633V29.5703L2.87109 29.4141L2.8125 29.375L2.67578 29.3555L1.13281 29.3359L1.11328 29.3164L0.839844 29.2773L0.644531 29.1992L0.507812 29.1211L0.3125 28.9453L0.175781 28.75L0.078125 28.5547L0.0585938 28.5352L0.0390625 28.3008V27.9297L0.078125 27.6758L0.136719 27.4805L0.253906 27.2656L0.390625 27.0898L0.605469 26.9336L0.917969 26.8164L1.23047 26.7578Z"
        fill="#1C6CAF" />
    <path
        d="M16.3477 26.6797H16.7773L17.2656 26.7578L17.6758 26.9336L17.8906 27.0703L18.0859 27.2461L18.2812 27.5195L18.3984 27.7539L18.5156 28.1445L18.5352 28.3789L18.5742 28.5156V29.2188L18.5547 29.3555L18.5352 29.375L18.5156 29.6289L18.4766 29.7266L18.4375 29.8828L18.3398 30.1367L18.1055 30.4688L17.9102 30.6641L17.6367 30.8398L17.2852 30.9766L16.9727 31.0352L16.7188 31.0742H16.3867L15.9375 31.0156L15.5273 30.8984L15.332 30.8008L15.1172 30.6445L14.9609 30.5078L14.8242 30.3125L14.668 30.0195L14.5898 29.8047L14.5312 29.5703L14.4727 29.1602V28.418L14.5117 28.3398L14.5508 28.0273L14.668 27.7148L14.8047 27.4414L14.9805 27.2266L15.1562 27.0508L15.4492 26.875L15.7422 26.7578L16.0742 26.7188L16.0938 26.6992L16.3477 26.6797ZM16.2891 27.5586L16.0547 27.6367L15.8594 27.7734L15.7422 27.9297L15.6445 28.125L15.5664 28.457L15.5469 28.5938V29.1016L15.6055 29.4727L15.7031 29.7461L15.7812 29.8633L15.8984 30L16.0938 30.1172L16.2109 30.1562L16.3672 30.1758H16.7188L16.9141 30.1367L17.0898 30.0391L17.2656 29.8828L17.4023 29.6289L17.4609 29.3945L17.5 29.082V28.6914L17.4609 28.3203L17.3828 28.0664L17.2656 27.8516L17.1094 27.6953L16.9336 27.6172L16.7383 27.5586H16.2891Z"
        fill="#1C6CAF" />
    <path
        d="M18.457 17.6562H18.5547L18.5742 17.6758H19.2578L19.6094 17.6562H20.5859L20.625 17.6758V17.7148L20.6836 17.6953L21.1719 17.6758L21.3086 17.6562L21.582 17.6758L21.6406 17.6953L22.1289 17.6758L22.2656 17.6562H22.4609L22.6562 17.6758H23.1055L23.7109 17.6562L23.9648 17.6758H25.6836L25.6641 17.8125L25.4688 18.2031L25.3711 18.3398L25.0391 18.3789L23.75 18.457L22.9492 18.4961L22.3828 18.5352L21.1914 18.5938L21.0352 18.6133L20.957 18.7109L20.6641 19.5508L20.2734 20.6836L20.0195 21.3867L19.9219 21.5625L19.8047 21.6602L19.707 21.6797H18.6914L18.6719 21.582L18.9062 20.8789L19.1602 20.0977L19.3945 19.3945L19.6094 18.7305H19.375L19.1016 18.75H18.7305L18.6328 18.6914L18.5156 18.5547L18.0078 17.7734L17.9883 17.6953L18.1445 17.6758L18.457 17.6562Z"
        fill="#1C6CAF" />
    <path
        d="M5.74219 26.7578H6.66016L6.73828 26.7969L6.95312 27.2852L7.12891 27.7148L7.34375 28.2031L7.55859 28.75L7.73438 29.1406L7.96875 29.707L8.18359 30.2148L8.45703 30.8594L8.47656 30.9766H7.40234L7.28516 30.7812L7.05078 30.293L7.03125 30.2539H5.37109L5.11719 30.8008L5.03906 30.957L5.01953 30.9766H3.98438L3.96484 30.9375L4.16016 30.4883L4.27734 30.1953L4.33594 30.0391L4.41406 29.8633L4.62891 29.3555L4.92188 28.6719L5.23438 27.9102L5.58594 27.0703L5.70312 26.7969L5.74219 26.7578ZM6.15234 28.2617L6.07422 28.457L5.87891 29.082L5.76172 29.4336V29.5312H6.46484L6.60156 29.5117L6.62109 29.4922L6.60156 29.3359L6.25 28.2812L6.15234 28.2617Z"
        fill="#1C6CAF" />
    <path
        d="M28.9453 26.7578H29.9023L30 26.9141L30.332 27.7148L30.5078 28.125L30.625 28.3789L30.7812 28.7695L31.1133 29.5508L31.25 29.8633L31.4844 30.4297L31.6992 30.9375L31.6797 30.9766H30.6055L30.4102 30.6055L30.2344 30.2539L28.5742 30.2344L28.5352 30.3516L28.2422 30.9375L28.2031 30.9766H27.1875L27.168 30.9375L27.4609 30.2344L27.5781 29.9414L27.7148 29.6289L27.9102 29.1797L28.1445 28.6133L28.4375 27.9102L28.7109 27.2461L28.8086 27.0312L28.8867 26.8359L28.9453 26.7578ZM29.375 28.2422L29.3359 28.2617L29.0234 29.2383L28.9648 29.4922L28.9844 29.5117L29.2383 29.5312H29.8633L29.8047 29.3164L29.4727 28.3203L29.4141 28.2422H29.375Z"
        fill="#1C6CAF" />
    <path
        d="M36.3281 26.7578H37.2461L37.2852 26.7773V27.2852L37.3047 27.3047V27.5977L37.2852 27.6172V27.8906L37.3047 27.9102V28.2422L37.2656 28.418H37.4023L37.6562 28.1055L37.8125 27.9102L38.0273 27.6562L38.457 27.1094L38.6133 26.9141L38.7109 26.7969L38.7891 26.7578H39.9219L39.8828 26.8359L39.668 27.1094L39.4922 27.3242L39.2773 27.5977L39.043 27.8711L38.8086 28.1836L38.5742 28.457L38.3984 28.6719L38.3008 28.7891L38.3203 28.8867L38.4961 29.082L38.6719 29.3164L39.0625 29.8242L39.3164 30.1367L39.707 30.6445L39.9219 30.918L39.9414 30.9766H38.7109L38.5742 30.8203L38.2812 30.4297L38.0273 30.0977L37.8516 29.8633L37.6367 29.5898L37.4219 29.2969L37.2656 29.2773L37.2852 29.4336L37.3047 29.4531V30.5273L37.2852 30.5664V30.8008L37.3047 30.8789L37.2461 30.9766H36.2891L36.2695 30.957V26.8359L36.2891 26.7773L36.3281 26.7578Z"
        fill="#1C6CAF" />
    <path
        d="M19.8633 14.3164H20L20.1758 14.3945L20.4492 14.5898L20.6445 14.7461L20.8203 14.8828L20.9375 15.0781L20.957 15.7422L21.1719 15.8203L22.0508 16.0938L22.6953 16.3086L22.8516 16.4258L22.9883 16.6406L23.0469 16.6992L23.418 16.7578L23.5352 16.8164L23.5938 16.9531V17.1094L23.4961 17.1875L23.2812 17.168L23.2422 17.1875H20.5859L20.5273 17.168L20.2539 17.1875L20.1562 17.1484L20.1172 17.1094L20.0586 16.6016L20.0391 16.543L19.9805 16.5234L19.2383 16.543V17.1094L19.2188 17.168H18.9648L18.9453 17.1875H17.1094L17.1289 17.0898L17.2656 16.9336L17.4805 16.6797L17.6172 16.543L17.832 16.4258L18.0664 16.3477L18.1641 16.2695L18.3008 16.0547L18.3984 15.9766L18.6328 15.8594L18.8281 15.7812L18.9062 15.7031L18.9258 15.6641L18.9062 15.4102H18.418L18.3789 15.3711L18.3984 15.2734L18.5742 15.1367L18.8281 14.9219L19.1602 14.6875L19.3555 14.5508L19.6289 14.3945L19.8633 14.3164Z"
        fill="#1C6CAF" />
    <path
        d="M8.67188 26.7578H9.66797L9.70703 26.7969V30.957L9.6875 30.9766H8.69141L8.65234 30.8398L8.61328 30.7422L8.65234 30.5469V27.3438L8.63281 27.2461L8.65234 27.207L8.67188 26.7578Z"
        fill="#1C6CAF" />
    <path
        d="M19.7656 9.35547H20.0781L20.2539 9.41406L20.4102 9.49219L20.6055 9.62891V9.66797L20.6836 9.70703L20.8789 9.88281L21.9727 10.9766L22.0898 11.0742L22.1484 11.1328V11.1719L22.207 11.1914V11.2305L22.2656 11.25L22.3438 11.3477L22.4414 11.4453L22.5781 11.5625L22.6758 11.6602L22.8516 11.8555L23.1055 12.0898V12.1289L23.2031 12.1484L23.2227 12.2461H23.2617L23.3594 12.3438L23.3984 12.4023L23.5352 12.4805L23.5938 12.5391V12.5781L23.6719 12.6172L23.7891 12.7539L23.9453 12.8906L24.5117 13.457L24.668 13.5938L24.7266 13.6523V13.6914L24.8047 13.7305L24.9414 13.8672L25.0391 13.9453L25.1367 14.043L25.1562 14.1016H25.1953L25.2734 14.1797V14.2188L25.3516 14.2578L25.5078 14.3945L25.6055 14.4922L25.7812 14.6875L25.9766 14.8633L26.543 15.4297L26.6406 15.5078V15.5469L26.6992 15.5664V15.6055L26.7773 15.6445L26.8945 15.7812L26.9336 15.8008V15.8398L26.9922 15.8594L27.1289 16.0156L27.2266 16.0938L27.3047 16.1914L27.4805 16.3281L27.6562 16.5234L27.7148 16.582V16.6211H27.7539V16.6797H27.793L27.8906 16.8555L27.9102 16.9531L27.8906 16.9727L27.9297 17.2266L27.9102 17.3438H27.8906L27.8711 17.0508L27.793 16.8359L27.6562 16.6602L27.5 16.4844L27.3438 16.3477L27.1289 16.1328L26.9727 15.9961L26.6211 15.6445L26.4648 15.5078L25.8984 14.9414L25.7422 14.8047L25.3125 14.375L25.1562 14.2383L24.707 13.7891L24.5508 13.6523L23.8477 12.9492L23.6914 12.8125L23.0078 12.1289L22.8516 11.9922L22.2461 11.3867L22.0898 11.25L21.2109 10.3711L21.0547 10.2344L20.6055 9.78516L20.3516 9.60938L20.1172 9.51172L20.0195 9.49219H19.8633L19.5703 9.58984L19.3945 9.70703L19.1992 9.88281L18.3008 10.7812L18.1445 10.918L17.6953 11.3672L17.5391 11.5039L16.8945 12.1484L16.7383 12.2852L16.4453 12.5781L16.2891 12.7148L15.957 13.0469L15.8008 13.1836L14.9805 14.0039L14.8242 14.1406L14.5312 14.4336L14.375 14.5703L14.043 14.9023L13.8867 15.0391L13.5352 15.3906L13.3789 15.5273L12.793 16.1133L12.6367 16.25L12.2656 16.6211L12.207 16.6406L12.168 16.7188L12.0508 16.9141L12.0117 17.0703V17.3438L12.0898 17.5391L12.2461 17.7344L12.7539 18.2422L12.9102 18.3789L13.1445 18.5938L13.2812 18.75L13.4766 18.9258L14.2188 19.668L14.2578 19.6875V19.7266L14.3359 19.7656L15.0195 20.4492L15.1758 20.5859L15.8203 21.2305L15.9766 21.3672L16.7773 22.168L16.9336 22.3047L17.6758 23.0469L17.832 23.1836L18.2227 23.5742L18.2617 23.5938V23.6328L18.3398 23.6719L18.9453 24.2773L18.9844 24.2969V24.3359L19.0625 24.375L19.4141 24.7266L19.6094 24.8438L19.7266 24.8828H20.1953L20.1172 24.9219L19.7852 24.9414V24.9609H19.6484L19.4727 24.8828L19.2969 24.7461L19.1016 24.5703L18.8867 24.3555L18.7305 24.2188L18.125 23.6133L17.9688 23.4766L17.7734 23.2617L17.6172 23.125L17.2266 22.7344L17.0508 22.5977L16.9141 22.4414V22.4023L16.8359 22.3633L16.7969 22.2852L16.6797 22.2266V22.1875L16.6016 22.1484L15.8594 21.4062L15.7617 21.3281L15.6641 21.2305V21.1914H15.625V21.1523L15.5469 21.1133L15.5078 21.0352L15.4297 20.9961L15.3125 20.8594L15.1562 20.7227L15 20.5664L14.9023 20.4883L14.7656 20.332L14.6289 20.1953L14.4727 20.0586L14.3555 19.9609L14.2188 19.8047L14.1211 19.7266L14.0234 19.6094L13.8672 19.4727L13.4766 19.082L13.1641 18.7891L12.8516 18.4766L12.793 18.4375V18.3984L12.7344 18.3789V18.3398L12.6758 18.3203V18.2812L12.5977 18.2422L12.1289 17.7734L11.9727 17.5391L11.9141 17.4609V17.1289L11.9531 17.1094L11.9922 16.8945L12.0117 16.7969L12.0703 16.6602L12.6172 16.1133L12.6562 16.0547H12.6953L12.7148 15.9961H12.7539V15.957L12.9102 15.8203L12.9883 15.7227L13.1445 15.5859L13.4961 15.2344H13.5352L13.5547 15.1758L13.6133 15.1172H13.6523L13.6719 15.0586L13.8281 14.9219L14.0234 14.7461L14.082 14.7266L14.1016 14.668L14.2578 14.5312L15.3516 13.4375L15.5078 13.3008L15.7227 13.0859L15.8789 12.9492L16.0742 12.7734L16.1914 12.6367L16.3477 12.5L17.0312 11.8164L17.1875 11.6797L17.4023 11.4648L17.5586 11.3281L17.7539 11.1328H17.793V11.0938L17.8906 11.0156L17.9297 10.957H17.9688L17.9883 10.8984H18.0273V10.8594L18.1836 10.7227L18.418 10.4883L18.5156 10.4102L18.6133 10.3125L18.7109 10.1953L18.8672 10.0586L19.3164 9.60938L19.4727 9.51172L19.5703 9.45312L19.6484 9.39453L19.7656 9.35547Z"
        fill="#1C6CAF" />
    <path
        d="M19.8242 8.92578H20L20.0195 8.94531L20.293 8.98438L20.5273 9.08203L20.7422 9.19922L20.957 9.375L21.7383 10.1562L21.8945 10.293L22.9883 11.3867L23.1836 11.5625L23.7891 12.168L23.9453 12.3047L24.4922 12.8516L24.6484 12.9883L25.1758 13.5156L25.332 13.6523L25.625 13.9453L25.7812 14.082L26.2109 14.5117L26.3672 14.6484L26.6406 14.9219L26.7969 15.0586L26.9531 15.2148L27.1094 15.3516L27.4023 15.6445L27.5586 15.7812L27.7148 15.9375L27.8711 16.0742L28.0859 16.2891L28.2812 16.5625L28.3984 16.8164V16.9727L28.3789 16.9336H28.3398L28.2422 16.6797L28.1055 16.4648L27.8125 16.1523L27.5586 15.8984L27.5195 15.8789V15.8398L27.4414 15.8008L26.9141 15.2734L26.6602 15.0391L26.3867 14.7852V14.7461L26.3086 14.707L26.2109 14.6289L25.6641 14.082L25.4297 13.8672L25.1172 13.5547L25.0781 13.5352V13.4961L25 13.457L24.8828 13.3594L24.8047 13.2617L24.707 13.1836V13.1445L24.6289 13.1055L24.1797 12.6562L24.1016 12.5977V12.5586L24.0234 12.5195L23.0273 11.5234L22.8516 11.3867L22.7734 11.2891L22.6758 11.1914L22.4805 11.0156V10.9766L22.4219 10.957V10.918L22.3438 10.8789L22.2266 10.7812L22.0898 10.625L21.6016 10.1367L21.4453 10L21.2695 9.82422V9.78516H21.2305L20.8203 9.375L20.6055 9.21875L20.4297 9.14062L20.1953 9.0625L20 9.04297L19.6875 9.0625L19.6094 9.10156L19.4336 9.16016L19.1016 9.33594L18.4375 10H18.3984L18.3594 10.0781L18.2812 10.1172L18.2617 10.1758H18.2227L18.2031 10.2344L18.1445 10.293H18.1055L18.0859 10.3516H18.0469L18.0078 10.4297L17.8516 10.5664L17.7734 10.6445H17.7344V10.6836H17.6758L17.6562 10.7422L17.5586 10.8203L17.5195 10.8789L17.3828 10.9961L17.2266 11.1523H17.1875L17.1484 11.2305L16.25 12.1289H16.2109L16.1719 12.207L16.0742 12.3047H16.0352L15.9961 12.3828L15.918 12.4219L15.8789 12.5L15.7031 12.6367L15.625 12.7344L15.5664 12.793H15.5273L15.5078 12.8516H15.4688L15.4492 12.8906H15.4102L15.3906 12.9688L15.332 13.0273L15.2344 13.0859L14.5508 13.7695L14.3945 13.9062L13.9453 14.3555H13.9062L13.8867 14.4141L13.7305 14.5312L13.5742 14.6875L13.4766 14.7656L13.457 14.8047H13.418L13.3789 14.8828L13.2422 15L13.1445 15.1172H13.1055V15.1562L12.9492 15.293L12.8711 15.3906L12.7734 15.4883L12.6562 15.5859L12.3633 15.8789H12.3242V15.918L12.2656 15.9766H12.2266L12.207 16.0352H12.168L12.1289 16.1133L11.9922 16.25L11.8555 16.4062L11.7969 16.4258L11.7578 16.5039L11.582 16.7969L11.5625 16.875L11.5234 17.0117V17.4023L11.582 17.6172L11.7773 17.9297L11.8945 18.0664V18.1055L11.9727 18.1445L12.0898 18.2617V18.3008L12.168 18.3398L12.4609 18.6328L12.5195 18.6523V18.6914L12.5977 18.7305L13.3398 19.4727L13.3984 19.5117V19.5508H13.4375L13.5156 19.6289V19.668L13.5938 19.707L13.7109 19.8438L13.8086 19.9414L13.8867 20V20.0391L13.9648 20.0781L14.1211 20.2344L14.2773 20.3711L14.2969 20.4297L14.375 20.4492L14.3945 20.5273L14.4922 20.5664L14.7266 20.8008L14.8438 20.8984L14.9805 21.0547L15.1367 21.1914V21.2305L15.2148 21.2695L15.6445 21.6992L15.7031 21.7383V21.7773L15.7812 21.8164L16.0156 22.0508L16.1719 22.1875V22.2266L16.25 22.2656L16.4453 22.4609L16.582 22.5781L16.6797 22.6758L16.7773 22.793L16.875 22.8711V22.9102L16.9531 22.9492L17.6172 23.6133L17.7344 23.6914L17.8711 23.8477L18.0469 24.0039L18.1836 24.1602L18.3398 24.2969V24.3359L18.3984 24.3555V24.3945L18.457 24.4141V24.4531L18.5352 24.4922L18.6328 24.5703L18.7109 24.668L18.8281 24.7656V24.8047L18.9062 24.8438L19.1016 25.0391L19.2773 25.1562V25.1953H19.3359V25.2344L19.4531 25.2734L19.5508 25.332L19.6094 25.3516V25.3906H19.4727L19.2188 25.2539L19.0039 25.0781L18.8477 24.9219L18.6914 24.7852L18.2812 24.375L18.2422 24.3555V24.3164L18.1641 24.2773L16.9727 23.0859L16.8164 22.9492L16.4258 22.5586L16.2695 22.4219L15.957 22.1289L14.9805 21.1523L14.8828 21.0742V21.0352L14.8047 20.9961L14.5117 20.7031L14.3555 20.5664L14.2188 20.4297L14.1211 20.3516L13.2422 19.4727L13.2031 19.4531V19.4141L13.1445 19.3945V19.3555L13.0664 19.3164L12.5781 18.8281L12.4219 18.6914L12.1484 18.418L11.9922 18.2812L11.7773 18.0664L11.582 17.8125L11.4844 17.6172L11.4258 17.4023V16.9922L11.5039 16.7578L11.6406 16.5039L11.8164 16.3086L12.0312 16.0742L12.3047 15.8008H12.3438L12.3633 15.7422L12.5195 15.6055L13.2227 14.9023H13.2617V14.8633L13.418 14.7266L13.7305 14.4141L13.8867 14.2773L14.3164 13.8477L14.4727 13.7109L14.7852 13.3984H14.8242L14.8438 13.3398L15 13.2031L15.4492 12.7539L15.6055 12.6172L16.0156 12.207L16.1719 12.0703L16.8164 11.4258H16.8555V11.3867L16.9531 11.3086L17.5 10.7617L17.6562 10.625L18.0469 10.2344H18.0859L18.1055 10.1758L18.2617 10.0391L18.6719 9.62891L18.8281 9.49219L19.082 9.23828L19.2969 9.10156L19.4336 9.02344L19.6289 8.96484L19.8047 8.94531L19.8242 8.92578Z"
        fill="#1C6CAF" />
    <path
        d="M23.3789 18.6719L23.4766 18.7305L23.457 18.9062L23.3789 19.4922L23.3203 19.6484L23.1445 19.8047L22.8516 19.9609L22.4609 20.1367L22.0312 20.293L21.4453 20.4492L21.0156 20.5273L20.8594 20.5469H20.6641L20.6445 20.5273L20.6641 20.0977L20.6836 19.8242L20.7812 19.7266L21.4648 19.5898L21.8945 19.4531L22.2852 19.2969L22.6562 19.1211L23.0664 18.8867L23.2617 18.7695L23.3789 18.6719Z"
        fill="#1C6CAF" />
    <path
        d="M21.0547 13.418L21.25 13.4375L21.9727 13.6133L22.6758 13.8281L23.3203 14.043L23.4375 14.1406L23.4766 14.2383V14.668L23.457 14.8633L23.3984 14.9023L22.8516 14.6484L22.4219 14.4531L22.0312 14.2969L21.543 14.1602L20.918 14.043L20.4688 13.9844L20.0977 13.9648H19.7656L19.3555 14.0039L19.0625 14.0625L18.6719 14.1797L18.2812 14.3555L17.9492 14.5312L17.5781 14.7852L17.2461 15.0586L17.0508 15.2344L16.9727 15.3516L16.8555 15.4883L16.6797 15.8008L16.5625 16.1133L16.5039 16.3477L16.4844 16.6016V16.9141L16.5234 17.2266L16.6211 17.5391L16.7773 17.8516L16.9531 18.1055L17.1289 18.3203L17.3242 18.5156L17.5 18.6523L17.7344 18.8281L18.125 19.0625L18.4375 19.2188L18.8086 19.3945L19.043 19.5117L19.0625 19.5898L18.8672 20.0977L18.8477 20.0195V19.8633L18.9062 19.707V19.5703L18.8867 19.5312L18.5742 19.4141L18.0469 19.1602L17.7148 18.9453L17.3828 18.6914L17.168 18.5156L16.9727 18.3203L16.8164 18.0859L16.6406 17.8711L16.5234 17.6367L16.4258 17.3438L16.3672 17.0898V16.543L16.4062 16.3281L16.4258 16.1133L16.5625 15.8398L16.6016 15.6641L16.6992 15.4883L16.8359 15.332L16.9727 15.1562L17.3047 14.8242L17.5586 14.6484L17.6367 14.5898H17.6758V14.5508L18.0273 14.3555L18.3398 14.1992L18.6328 14.0625L19.0234 13.9453L19.5508 13.8477L19.8828 13.8281L20.332 13.8477L20.4688 13.8867L20.7617 13.9062L20.8594 13.9453L21.1719 13.9648L21.3086 14.0039L21.543 14.043L21.8555 14.1211L22.2656 14.2578L22.4414 14.3359L22.5586 14.3945V14.4336L22.6172 14.4141L22.8906 14.5508L23.0859 14.6289L23.2422 14.7266L23.3594 14.7461L23.418 14.7852V14.3164L23.3789 14.2188L23.3203 14.1992V14.1602L23.2422 14.1406L23.1055 14.0625L22.9883 14.0234L22.832 14.0039V13.9648L22.5977 13.9258L22.4219 13.8867L22.2461 13.8281L22.0508 13.7695L21.6992 13.6523L21.6211 13.6328L21.5039 13.5938H21.4062L21.25 13.5352L21.1328 13.4961L21.1133 13.457L21.0547 13.418Z"
        fill="#1C6CAF" />
    <path
        d="M11.9336 26.7578H14.0234V26.7773L13.8281 26.7969L13.7891 26.8164L12.6953 26.8359L11.8555 26.875L11.6602 26.8945L11.25 27.0312L11.0156 27.1289L10.8984 27.2266H10.8594V27.2656H10.8203L10.7812 27.3438L10.6445 27.5L10.4883 27.8125L10.4297 27.9883L10.3711 28.1836L10.3125 28.5547L10.293 28.7305V29.2188L10.3711 29.6875L10.5469 30.0977L10.7617 30.4102L10.918 30.5469L11.1328 30.6836L11.4062 30.8203L11.6797 30.8594L11.6992 30.8789L11.9336 30.8984L12.7734 30.8789H13.125L13.8672 30.8984L13.9258 30.8789V28.6914L13.9062 28.5156L13.8281 28.4961L13.6133 28.5156H12.168L12.0508 28.5742L12.0312 28.6133L12.0117 28.8086V29.0625L12.0508 29.1406L12.1094 29.1602L13.0469 29.1797L13.0664 29.2773H11.9336L11.8945 29.1992V28.4375L11.9141 28.418H14.0625L14.082 28.4375V30.8398L14.043 30.957L14.0039 30.9766H11.9922L11.6211 30.957L11.5234 30.918L11.3477 30.8789L11.1914 30.8203L10.8984 30.6445L10.7031 30.4688L10.5273 30.2539L10.293 29.7852L10.2148 29.4336L10.1953 29.2773L10.1758 29.2578V28.5742L10.2148 28.5156L10.2344 28.2617L10.2734 28.1445L10.3516 27.8516L10.5078 27.5391L10.625 27.3633L10.8594 27.1289L11.1133 26.9727L11.3867 26.8555L11.5234 26.8164L11.875 26.7773L11.9336 26.7578Z"
        fill="#1C6CAF" />
    <path
        d="M1.34766 27.6367H1.44531L1.38672 27.6758L1.23047 27.7344L1.13281 27.8516L1.11328 27.8906L1.09375 28.0859L1.11328 28.2617L1.17188 28.3594L1.30859 28.418L1.40625 28.457H1.52344L1.54297 28.4375H2.20703L2.22656 28.457H2.55859L2.63672 28.4375L2.65625 28.457L3.06641 28.4766L3.35938 28.5547L3.59375 28.6719L3.76953 28.8281L3.88672 29.0234L3.96484 29.2188L3.98438 29.4141L4.00391 29.4531L4.02344 29.6289V29.8047L3.98438 29.9414L3.94531 30.1758L3.78906 30.4883L3.65234 30.6641L3.33984 30.8398L3.06641 30.918L2.96875 30.957L2.59766 30.9766H0.253906L0.195312 30.918L0.175781 30.8398L0.195312 30.8008V30.3125L0.175781 30.293L0.195312 30.1562L0.234375 30.0977L2.65625 30.0781L2.85156 30L2.92969 29.9023L2.94922 29.8633V29.5703L2.87109 29.4141L2.8125 29.375L2.67578 29.3555L1.13281 29.3359L1.11328 29.3164L0.839844 29.2773L0.644531 29.1992L0.507812 29.1211L0.3125 28.9453L0.175781 28.75L0.0976562 28.5938L0.078125 28.4766V28.3008L0.117188 28.3594L0.136719 28.4961H0.175781L0.3125 28.8086L0.429688 28.9453L0.644531 29.082L0.839844 29.1602L0.957031 29.1992L1.17188 29.2188H2.38281L2.73438 29.2383L2.87109 29.2969L2.96875 29.3945L3.04688 29.5508L3.08594 29.7852L2.98828 30H2.94922L2.91016 30.0781L2.77344 30.1562L2.57812 30.2148L1.64062 30.2344L1.05469 30.2148L0.976562 30.1953L0.546875 30.1758L0.351562 30.1953L0.3125 30.293L0.292969 30.332L0.273438 30.6641V30.7617L0.351562 30.8789L0.429688 30.8984H1.46484L2.32422 30.8789L2.79297 30.8594L3.10547 30.8008L3.41797 30.6836L3.59375 30.5664L3.75 30.3516L3.82812 30.1562L3.86719 30V29.375L3.75 28.9844L3.63281 28.8281L3.49609 28.7109L3.14453 28.5938L3.125 28.5742H1.52344L1.32812 28.5352L1.13281 28.4375L1.05469 28.3594L0.996094 28.2031V27.9883L1.05469 27.793L1.19141 27.6758L1.34766 27.6367Z"
        fill="#1C6CAF" />
    <path
        d="M18.457 17.6562H18.5547L18.5742 17.6758H19.2578L19.6094 17.6562H20.5859L20.625 17.6758V17.7148L20.6836 17.6953L21.1719 17.6758L21.3086 17.6562L21.582 17.6758L21.6406 17.6953L22.1289 17.6758L22.2656 17.6562H22.4609L22.6562 17.6758H23.1055L23.7109 17.6562L23.9648 17.6758H25.6836L25.6641 17.8125L25.6055 17.9297L25.5469 17.9102V17.8516H18.1836L18.3008 18.0469L18.457 18.2812L18.4961 18.3594H18.5352L18.6328 18.5352L18.7695 18.6719L18.9062 18.6914V18.7305H18.6719L18.5156 18.5547L18.0078 17.7734L17.9883 17.6953L18.1445 17.6758L18.457 17.6562Z"
        fill="#1C6CAF" />
    <path
        d="M16.3477 26.6797H16.7773L17.2656 26.7578L17.6758 26.9336L17.8906 27.0703L18.0859 27.2461L18.2812 27.5195L18.3984 27.7539L18.5156 28.1445L18.5352 28.3789L18.5742 28.5156V29.2188L18.5547 29.3555L18.5352 29.375L18.5156 29.6289L18.4766 29.7266L18.4375 29.8828L18.3398 30.1367L18.1055 30.4688L17.9102 30.6641L17.6367 30.8398L17.2852 30.9766L16.9727 31.0352H16.4648V31.0156L16.9727 30.918L17.3828 30.8203L17.6172 30.7227L17.8125 30.6055L17.9883 30.4492L18.125 30.2734L18.2031 30.1562L18.3203 29.9219L18.3594 29.8047L18.3789 29.707L18.4375 29.4531L18.4766 29.1211L18.4961 28.8086V28.5352L18.4375 28.3398L18.3789 28.0273L18.2617 27.6758L18.1445 27.4805L17.9883 27.3047V27.2656L17.9102 27.2266L17.7539 27.0898L17.5391 26.9727L17.168 26.875L16.8359 26.8359H16.1133L15.7031 26.9141L15.332 27.0508L15.1367 27.1875L15.0391 27.2852L14.9805 27.3828L14.8633 27.5391L14.707 27.9102L14.6484 28.1055L14.5898 28.418L14.5703 28.9258L14.5898 29.2383L14.6094 29.2773L14.6484 29.5703L14.6875 29.7656L14.7852 30.0781L14.9414 30.332L15.1562 30.5664L15.5469 30.8008L15.8008 30.8789L16.1328 30.9375L16.3867 30.9961L16.4062 31.0352H16.0742L15.7812 30.9766L15.4297 30.8594L15.2148 30.7227L14.9609 30.5078L14.8242 30.3125L14.668 30.0195L14.5898 29.8047L14.5312 29.5703L14.4727 29.1602V28.418L14.5117 28.3398L14.5508 28.0273L14.668 27.7148L14.8047 27.4414L14.9805 27.2266L15.1562 27.0508L15.4492 26.875L15.7422 26.7578L16.0742 26.7188L16.0938 26.6992L16.3477 26.6797Z"
        fill="#1C6CAF" />
    <path
        d="M5.74219 26.7578H6.66016L6.73828 26.7969L6.95312 27.2852L7.12891 27.7148L7.34375 28.2031L7.55859 28.75L7.73438 29.1406L7.96875 29.707L8.18359 30.2148L8.45703 30.8594L8.47656 30.9766H7.40234L7.28516 30.7812L7.05078 30.293L7.03125 30.2539H5.37109L5.11719 30.8008L5.03906 30.957L5.01953 30.9766H3.98438L3.96484 30.9375L4.16016 30.4883L4.27734 30.1953L4.33594 30.0391L4.41406 29.8633L4.62891 29.3555L4.92188 28.6719L5.23438 27.9102L5.58594 27.0703L5.70312 26.7969L5.74219 26.7578ZM6.46484 26.7969L5.83984 26.8164L5.74219 26.9141L5.68359 27.0508L5.625 27.207L5.54688 27.3438L5.50781 27.4609L5.3125 27.9492L5.21484 28.1836L5.13672 28.3398L5.03906 28.6133L4.92188 28.9062L4.82422 29.1406L4.62891 29.5703L4.55078 29.7852L4.45312 30.0391L4.33594 30.2734L4.16016 30.6836L4.14062 30.7617H4.10156L4.14062 30.8594L4.17969 30.8984H4.72656L4.94141 30.8594L5.01953 30.7422L5.17578 30.4297L5.27344 30.2734L5.37109 30.2148L6.42578 30.1953H6.71875L7.03125 30.2148L7.12891 30.293L7.22656 30.4492L7.38281 30.7812L7.46094 30.8594L7.67578 30.8984H8.30078L8.33984 30.8594V30.7422L8.20312 30.4492L8.04688 30.0781L7.91016 29.7852L7.79297 29.4727L7.69531 29.2578L7.57812 28.9648L7.38281 28.5156L7.32422 28.3398L7.24609 28.1641L7.08984 27.832L6.99219 27.5977L6.875 27.2852L6.69922 26.9336L6.66016 26.8359L6.58203 26.7969H6.46484Z"
        fill="#1C6CAF" />
    <path
        d="M23.5156 26.7578H25.9375L26.3477 26.8164L26.6016 26.9141L26.8164 27.0703L26.9922 27.2656L27.1289 27.4609V27.6758L27.0703 27.6367L27.0117 27.4805L26.8945 27.2852L26.6797 27.0703L26.4648 26.9531L26.25 26.8945L25.9375 26.8555L24.4141 26.8164H24.1016L23.6523 26.8359L23.5938 26.9141V30.8594L23.7109 30.8789L24.3945 30.8984L25.2734 30.8789H25.7422L25.918 30.8594L26.25 30.8203L26.3477 30.8008L26.5234 30.7422L26.7578 30.6055L26.9727 30.3906L27.0898 30.1172L27.1289 30.0977V30.2148L26.9727 30.5273L26.8555 30.6641L26.6602 30.8008L26.3086 30.918L26.2109 30.957L25.8008 30.9766H23.4766L23.457 30.957V26.8555L23.4766 26.7773L23.5156 26.7578Z"
        fill="#1C6CAF" />
    <path
        d="M28.9453 26.7578H29.9023L30 26.9141L30.332 27.7148L30.5078 28.125L30.625 28.3789L30.7812 28.7695L31.1133 29.5508L31.25 29.8633L31.4844 30.4297L31.6992 30.9375L31.6797 30.9766H30.6055L30.4102 30.6055L30.2539 30.293V30.2344L30.332 30.2734L30.4102 30.3906L30.4883 30.6055L30.5859 30.7812L30.6055 30.8398L30.9766 30.8789H31.5039L31.5234 30.7812L31.4062 30.5273L31.2891 30.2344L31.0547 29.707L30.9375 29.4141L30.8008 29.1016L30.7031 28.8477L30.5273 28.457L30.4688 28.2812L30.3711 28.0469L30.2148 27.7148L30.0781 27.3828L29.9805 27.1289L29.8633 26.8945L29.8047 26.8555L29.1016 26.8359L28.9648 26.8555L28.9453 26.9531L28.8672 27.1094L28.8281 27.2266H28.7891L28.7695 27.3242L28.6914 27.5391L28.6133 27.7344L28.5547 27.8711L28.3203 28.457L28.1445 28.8867L27.9883 29.2773L27.9102 29.4336L27.7344 29.8438L27.5781 30.2344L27.4805 30.4297L27.4219 30.625L27.3828 30.7031H27.3438L27.3633 30.8398L27.4023 30.8789L27.9688 30.8984L28.1445 30.8398L28.2227 30.7617L28.3398 30.5664L28.4766 30.2539L28.5547 30.2344L28.5352 30.3516L28.2422 30.9375L28.2031 30.9766H27.1875L27.168 30.9375L27.4609 30.2344L27.5781 29.9414L27.7148 29.6289L27.9102 29.1797L28.1445 28.6133L28.4375 27.9102L28.7109 27.2461L28.8086 27.0312L28.8867 26.8359L28.9453 26.7578Z"
        fill="#1C6CAF" />
    <path
        d="M12.0117 16.9141L12.0312 16.9727L12.0117 17.0703V17.3438L12.0898 17.5391L12.2461 17.7344L12.7539 18.2422L12.9102 18.3789L13.1445 18.5938L13.2812 18.75L13.4766 18.9258L14.2188 19.668L14.2578 19.6875V19.7266L14.3359 19.7656L15.0195 20.4492L15.1758 20.5859L15.8203 21.2305L15.9766 21.3672L16.7773 22.168L16.9336 22.3047L17.6758 23.0469L17.832 23.1836L18.2227 23.5742L18.2617 23.5938V23.6328L18.3398 23.6719L18.9453 24.2773L18.9844 24.2969V24.3359L19.0625 24.375L19.4141 24.7266L19.6094 24.8438L19.7266 24.8828H20.1953L20.1172 24.9219L19.7852 24.9414V24.9609H19.6484L19.4727 24.8828L19.2969 24.7461L19.1016 24.5703L18.8867 24.3555L18.7305 24.2188L18.125 23.6133L17.9688 23.4766L17.7734 23.2617L17.6172 23.125L17.2266 22.7344L17.0508 22.5977L16.9141 22.4414V22.4023L16.8359 22.3633L16.7969 22.2852L16.6797 22.2266V22.1875L16.6016 22.1484L15.8594 21.4062L15.7617 21.3281L15.6641 21.2305V21.1914H15.625V21.1523L15.5469 21.1133L15.5078 21.0352L15.4297 20.9961L15.3125 20.8594L15.1562 20.7227L15 20.5664L14.9023 20.4883L14.7656 20.332L14.6289 20.1953L14.4727 20.0586L14.3555 19.9609L14.2188 19.8047L14.1211 19.7266L14.0234 19.6094L13.8672 19.4727L13.4766 19.082L13.1641 18.7891L12.8516 18.4766L12.793 18.4375V18.3984L12.7344 18.3789V18.3398L12.6758 18.3203V18.2812L12.5977 18.2422L12.1289 17.7734L11.9727 17.5391L11.9141 17.4609V17.1289L11.9531 17.1094L12.0117 16.9141Z"
        fill="#1C6CAF" />
    <path
        d="M27.8711 17.3438L27.9297 17.4023L27.9102 17.5391L27.8125 17.7148L27.7148 17.832H27.6758L27.6367 17.9102L27.4219 18.125L27.2656 18.2617L26.6992 18.8281L26.543 18.9648L25.918 19.5898L25.7617 19.7266L25.4492 20.0391H25.4102L25.3711 20.1172L25.1367 20.332L24.8828 20.5859H24.8438V20.625L24.6875 20.7617L24.4336 20.9961L23.9453 21.4844H23.9062L23.8867 21.543H23.8477L23.8086 21.6211L23.3203 22.1094H23.2812V22.1484L23.125 22.2852L23.1055 22.3242H23.0664L23.0469 22.3828L22.9492 22.4609L22.8711 22.5586L22.7734 22.6367L22.6758 22.7344L22.5781 22.7734L22.5391 22.8516L22.4609 22.8906L22.4219 22.9688L22.3242 23.0859L22.168 23.2227L22.0898 23.3203L21.9336 23.4375L21.7969 23.5938L21.6406 23.7305L21.25 24.1211H21.2109L21.1914 24.1797L21.1328 24.2383H21.0938L21.0742 24.2969L21.0156 24.3555H20.9766L20.957 24.4141H20.918L20.8984 24.4727H20.8594L20.8398 24.5312H20.8008V24.5703L20.7422 24.6289H20.7031V24.668H20.6641V24.707L20.4492 24.8242L20.3711 24.8438L20.4688 24.707L20.625 24.5703L20.8398 24.3555H20.8789V24.3164L20.9766 24.2383L21.0156 24.1797H21.0547V24.1406L21.2109 24.0039L21.6992 23.5156H21.7383L21.7578 23.457L21.9141 23.3203L22.5 22.7344L22.6562 22.5977L23.2227 22.0312L23.3789 21.8945L23.418 21.8359H23.457V21.7969L23.6133 21.6602L24.1406 21.1328L24.2969 20.9961L24.5898 20.7031H24.6289V20.6641L24.707 20.5859H24.7461V20.5469L24.9023 20.4102L25.332 19.9805H25.3711L25.4102 19.9023L25.4883 19.8633V19.8242L25.6445 19.6875L25.8008 19.5312L25.957 19.3945L26.5039 18.8477L26.6602 18.7109L27.0508 18.3203H27.0898L27.1094 18.2617L27.207 18.1641L27.4023 17.9883L27.7148 17.6758L27.8125 17.5391L27.8711 17.3438Z"
        fill="#1C6CAF" />
    <path
        d="M38.7891 26.7578H39.9219L39.8828 26.8359L39.668 27.1094L39.4922 27.3242L39.2773 27.5977L39.043 27.8711L38.8086 28.1836L38.5742 28.457L38.3984 28.6719L38.3008 28.7891L38.3203 28.8867L38.4961 29.082L38.6719 29.3164L39.0625 29.8242L39.3164 30.1367L39.707 30.6445L39.9219 30.918L39.9414 30.9766H38.7109L38.5742 30.8203L38.2812 30.4297L38.0273 30.0977L37.8516 29.8633L37.6367 29.5898L37.4023 29.2773L37.3047 29.1211L37.4023 29.1602L37.4414 29.1797V29.2188L37.5 29.2383L37.6367 29.4336L37.7539 29.5703L37.832 29.707L37.9688 29.8438L38.125 30.0586L38.2422 30.2344L38.3594 30.3711L38.4961 30.5469L38.6133 30.7227L38.6914 30.8203L38.8477 30.8984H39.7266V30.7812L39.668 30.7617L39.4141 30.4102L39.2383 30.1953L39.082 30L38.9453 29.8242L38.8672 29.7266L38.75 29.5703L38.5547 29.3164L38.4375 29.1797L38.3203 29.0234L38.2227 28.9062V28.75L38.2422 28.6914H38.2812L38.3203 28.6133L38.4961 28.3984L38.6523 28.2031L38.8281 27.9688H38.8672L38.9062 27.8906L39.043 27.7539L39.1602 27.5781L39.2969 27.4414L39.3555 27.3438L39.4531 27.2266H39.4922L39.5312 27.1484L39.6094 27.0312L39.707 26.8555H39.043L38.8086 26.875L38.6523 27.0117L38.5156 27.207L38.3398 27.4023L38.3203 27.4609L38.2227 27.5586L38.1055 27.6953L38.0859 27.7539H38.0469L38.0078 27.832L37.793 28.0664L37.5781 28.3398L37.5391 28.3984H37.5V28.4375L37.3438 28.5352L37.3828 28.4375L37.5781 28.2031L37.793 27.9297L38.0273 27.6562L38.457 27.1094L38.6133 26.9141L38.7109 26.7969L38.7891 26.7578Z"
        fill="#1C6CAF" />
    <path
        d="M28.3008 17.6953L28.3203 17.7539L28.1836 17.9688L27.8906 18.2812L27.7344 18.418L27.2656 18.8867L27.1094 19.0234L26.7188 19.4141L26.5625 19.5508L25.8203 20.293L25.6641 20.4297L25.4102 20.6836L25.2539 20.8203L24.7852 21.2891L24.6289 21.4258L23.6133 22.4414L23.457 22.5781L23.0078 23.0273L22.8516 23.1641L22.4219 23.5938L22.2656 23.7305L21.5234 24.4727L21.3672 24.6094L21.0352 24.9414L20.8789 25.0781L20.6836 25.2539L20.5664 25.332L20.4102 25.3906H20.2539V25.3516H20.3125L20.332 25.3125L20.6445 25.1367L20.8203 24.9805H20.8594V24.9414L20.957 24.9023L20.9766 24.8438H21.0156L21.0352 24.7852L21.1328 24.707L21.5234 24.3164L21.6797 24.1797L21.7578 24.082L21.9141 23.9453L22.8516 23.0078H22.8906L22.9102 22.9492L23.125 22.7734L23.8086 22.0898H23.8477L23.8672 22.0312H23.9062L23.9258 21.9727L24.082 21.8359L24.1016 21.7969H24.1406L24.1602 21.7383L24.3164 21.6016L24.4531 21.4648L24.5508 21.3867L24.6484 21.2695L24.7461 21.1914L25.0391 20.8984H25.0781L25.0977 20.8398L25.2734 20.7031L25.293 20.6641H25.332L25.3711 20.5859L25.5664 20.3906L25.5859 20.3516H25.625V20.3125L25.8398 20.1367L25.957 20H25.9961L26.0156 19.9414H26.0547L26.0742 19.8828H26.1133V19.8438L26.2695 19.707L26.4453 19.5312H26.4844L26.5039 19.4727L26.5625 19.4141H26.6016L26.6211 19.3555L26.8359 19.1797L26.875 19.1211H26.9141L26.9336 19.0625H26.9727V19.0234L27.0703 18.9648L27.1094 18.8867L27.2266 18.7891H27.2656L27.3047 18.7109L27.4219 18.6133L27.5195 18.5156L27.6172 18.3984L27.7734 18.2617L27.8125 18.2031H27.8516L27.8711 18.1445L27.9688 18.0664L27.9883 18.0273H28.0273L28.0664 17.9492L28.1641 17.8711L28.2031 17.7734L28.3008 17.6953Z"
        fill="#1C6CAF" />
    <path
        d="M19.082 26.7578H20.1953L20.3125 26.8555L20.5664 27.3242L20.7422 27.6367L20.9766 28.0469L21.4648 28.9258L21.6992 29.3555L21.7383 29.4531L21.6797 29.4336L21.5039 29.1992L21.3281 28.8672L21.2305 28.7305L21.0742 28.418L20.957 28.2227L20.7812 27.8906L20.7422 27.8516L20.6836 27.7148L20.4492 27.3242L20.293 27.0117L20.2148 26.8945L20.0977 26.8164L19.5508 26.8359H19.2578L19.1406 26.875V27.2852L19.1602 27.9883V29.1016L19.1406 29.707V30.3125L19.1211 30.8203H19.1602V30.8594H19.2188V30.8984H19.9023L19.9805 30.8398L20 30.6836L19.9805 30.4102V30.0195L19.9609 29.6289L19.9414 28.3398L19.9609 28.2227L20 28.1445L20.0391 28.2617L20.0781 30.4102V30.957L20.0586 30.9766H19.082L19.0625 30.9375V30.7812L19.043 30.6641L19.0625 30.5273V26.8164L19.082 26.7578Z"
        fill="#1C6CAF" />
    <path
        d="M16.4453 27.4414H16.6602L16.9141 27.5V27.5391L17.0508 27.5586V27.5977H17.1289V27.6367L17.207 27.6562L17.3438 27.7734L17.4805 28.0469L17.5781 28.3789L17.5977 28.4766L17.6172 28.8672L17.5977 29.2383L17.5195 29.6289L17.3828 29.9023L17.3047 30L17.168 30.1172L17.0117 30.1953L16.8164 30.2734L16.5625 30.3125L16.2891 30.2734L15.9375 30.1562L15.7422 30L15.5859 29.7461L15.5078 29.5312L15.4688 29.3555L15.4492 29.3164L15.4297 28.9258L15.4492 28.6328L15.4688 28.3203L15.5273 28.0859L15.6445 27.8516L15.8203 27.6562L15.918 27.5977L16.1328 27.5195L16.25 27.4609H16.3867L16.4453 27.4414ZM16.2891 27.5586L16.0547 27.6367L15.8594 27.7734L15.7422 27.9297L15.6445 28.125L15.5664 28.457L15.5469 28.5938V29.1016L15.6055 29.4727L15.7031 29.7461L15.7812 29.8633L15.8984 30L16.0938 30.1172L16.2109 30.1562L16.3672 30.1758H16.7188L16.9141 30.1367L17.0898 30.0391L17.2656 29.8828L17.4023 29.6289L17.4609 29.3945L17.5 29.082V28.6914L17.4609 28.3203L17.3828 28.0664L17.2656 27.8516L17.1094 27.6953L16.9336 27.6172L16.7383 27.5586H16.2891Z"
        fill="#1C6CAF" />
    <path
        d="M19.4336 13.2812H20.1367L20.332 13.3008V13.3203L20.0391 13.3594L19.5898 13.3789L19.4531 13.3984L19.043 13.418L18.6719 13.4766L18.457 13.5156L18.0859 13.5742L17.7344 13.6328L17.2656 13.75L16.6797 13.9648L16.582 13.9844V14.0234L16.3867 14.1211L16.2891 14.1797L16.0742 14.3359L15.9961 14.4141L15.8594 14.4922L15.5859 14.7656L15.5078 14.8633L15.4102 14.9609L15.1953 15.2539L15.0391 15.5273L14.9609 15.6836L14.9023 15.8984L14.8242 16.2109L14.7852 16.9141L14.7656 17.0703H14.7461L14.707 16.7969V16.3477L14.7656 15.9961L14.8633 15.6836L15 15.3711L15.1172 15.1758L15.2734 14.9609L15.5078 14.6875L15.7227 14.4727L15.9375 14.2969L16.2695 14.0625L16.582 13.8867L16.8945 13.7305L17.2852 13.5938L17.6172 13.4961L18.1445 13.3984L18.5742 13.3398L19.4336 13.2812Z"
        fill="#1C6CAF" />
    <path
        d="M0.078125 28.3008L0.117188 28.3594L0.136719 28.4961H0.175781L0.3125 28.8086L0.429688 28.9453L0.644531 29.082L0.839844 29.1602L0.957031 29.1992L1.17188 29.2188H2.38281L2.73438 29.2383L2.87109 29.2969L2.96875 29.3945L3.04688 29.5508L3.08594 29.7852L2.98828 30H2.94922L2.91016 30.0781L2.77344 30.1562L2.57812 30.2148L1.64062 30.2344L1.05469 30.2148L0.976562 30.1953L0.546875 30.1758L0.351562 30.1953L0.3125 30.293L0.292969 30.332L0.273438 30.6641L0.253906 30.7617H0.234375V30.3125L0.175781 30.293L0.195312 30.1562L0.234375 30.0977L2.65625 30.0781L2.85156 30L2.92969 29.9023L2.94922 29.8633V29.5703L2.87109 29.4141L2.8125 29.375L2.67578 29.3555L1.13281 29.3359L1.11328 29.3164L0.839844 29.2773L0.644531 29.1992L0.507812 29.1211L0.3125 28.9453L0.175781 28.75L0.0976562 28.5938L0.078125 28.4766V28.3008Z"
        fill="#1C6CAF" />
    <path
        d="M21.7578 26.7578H22.7148L22.7539 26.7773V30.9375L22.6953 30.9766H21.6797L21.6016 30.8984L21.4258 30.5859L21.2109 30.1953L20.8984 29.6484L20.6445 29.1992L20.3516 28.6719L20.1172 28.2617L20.1367 28.1836L20.2344 28.2812L20.3906 28.5742L20.4688 28.7305V28.7695H20.5078L20.7422 29.1602L20.8203 29.3164V29.375H20.8594L20.9961 29.6484L21.2109 30L21.2695 30.0977L21.3086 30.1953L21.4258 30.3906L21.5234 30.5859L21.6797 30.8203L21.8555 30.8789H22.5977L22.6562 30.8008L22.6758 30.2539V27.8125L22.6953 27.1094L22.6758 26.9336L22.6172 26.8359L22.5781 26.8164H21.9336L21.8359 26.8945L21.8164 26.9336L21.7969 27.1289L21.7578 27.1094V26.7578Z"
        fill="#1C6CAF" />
    <path
        d="M35.0391 26.7773H35.8203V30.957L35.8008 30.9766H34.7266L34.6094 30.7812L34.375 30.3711L34.082 29.8438L33.9062 29.5508L33.6719 29.1211L33.1641 28.2227L33.1836 28.1445L33.2617 28.2617L33.3203 28.3203L33.3789 28.4375L33.4375 28.5156L33.5547 28.7305L33.7109 28.9844L33.9453 29.4141L33.9648 29.5117H34.0039L34.1211 29.7266L34.2773 30L34.4336 30.2539L34.5898 30.5664L34.6875 30.7227L34.7461 30.8203L34.8828 30.8789L35.5273 30.8984L35.6836 30.8594L35.7422 30.7812V27.5195L35.7617 26.9531L35.7422 26.8359L35.7031 26.8164H35.0391V26.7773Z"
        fill="#1C6CAF" />
    <path
        d="M36.2891 26.7773H37.1094V26.7969L36.9531 26.8164L36.4648 26.8359L36.3867 26.9141L36.3672 27.0117V27.3828L36.3867 27.7148V30.8398L36.4648 30.8789L36.6602 30.8984H37.0703L37.168 30.8594L37.207 30.7812V30.332L37.2266 29.7266H37.2461L37.2852 30.8008L37.3047 30.8789L37.2461 30.9766H36.2891L36.2695 30.957V26.8359L36.2891 26.7773Z"
        fill="#1C6CAF" />
    <path
        d="M19.8633 14.3164H20L20.1758 14.3945L20.4492 14.5898L20.6445 14.7461L20.8203 14.8828L20.9375 15.0781V15.1758L20.8789 15.1562L20.8008 15.0391V15L20.7227 14.9609L20.5469 14.8047L20.3711 14.668L20.1367 14.4922L20 14.4336H19.8047L19.707 14.4922L19.4141 14.6484L19.2188 14.7656L19.0625 14.8828L18.9062 15.0195H18.8672V15.0586L18.7305 15.1367L18.6914 15.1953H18.6523L18.6328 15.2734L18.6719 15.293L18.6914 15.3711L18.9648 15.3906L19.0039 15.4492V15.7422L18.9258 15.8594L18.6133 15.9961L18.4375 16.0938L18.2617 16.3281L18.1641 16.4258L18.0469 16.5039L17.7734 16.6016L17.5781 16.7383L17.4023 16.9336L17.3633 17.0117L17.3242 17.0312L17.3047 17.1094L17.2461 17.1484H17.1289L17.1484 17.0508L17.2852 16.9141L17.4609 16.6992L17.6172 16.543L17.832 16.4258L18.0664 16.3477L18.1641 16.2695L18.3008 16.0547L18.3984 15.9766L18.6328 15.8594L18.8281 15.7812L18.9062 15.7031L18.9258 15.6641L18.9062 15.4102H18.418L18.3789 15.3711L18.3984 15.2734L18.5742 15.1367L18.8281 14.9219L19.1602 14.6875L19.3555 14.5508L19.6289 14.3945L19.8633 14.3164Z"
        fill="#1C6CAF" />
    <path
        d="M32.1289 26.7773H33.1836V26.7969L33.0273 26.8164H32.3438L32.2461 26.8555L32.2266 26.9141V27.5586L32.2656 27.6953V30.7812L32.3242 30.8789L32.3438 30.8984L32.6758 30.918L32.6367 30.957H32.1484L32.1289 30.8984V26.7773Z"
        fill="#1C6CAF" />
    <path
        d="M5.74219 26.7578H6.66016L6.73828 26.7969L6.95312 27.2852L7.12891 27.7148L7.34375 28.2031L7.55859 28.75L7.73438 29.1406L7.96875 29.707L8.18359 30.2148L8.45703 30.8594L8.47656 30.9766H7.40234L7.28516 30.7812L7.05078 30.293L7.03125 30.2148L7.10938 30.2539L7.24609 30.4492L7.40234 30.7812L7.46094 30.8398L7.67578 30.8789H8.30078L8.32031 30.8594V30.7422L8.18359 30.4492L8.02734 30.0781L7.89062 29.7852L7.77344 29.4727L7.67578 29.2578L7.55859 28.9648L7.36328 28.5156L7.30469 28.3398L7.22656 28.1641L7.07031 27.832L6.97266 27.5977L6.85547 27.2852L6.67969 26.9336L6.66016 26.8555L6.58203 26.8164V26.7773H5.74219V26.7578Z"
        fill="#1C6CAF" />
    <path
        d="M38.2422 28.8281L38.3008 28.8477L38.4375 29.0234L38.6133 29.2383L38.8086 29.4922L39.0625 29.8242L39.3164 30.1367L39.707 30.6445L39.9219 30.918L39.9414 30.9766H38.7109L38.5742 30.8203L38.2812 30.4297L38.0273 30.0977L37.8516 29.8633L37.6367 29.5898L37.4023 29.2773L37.3047 29.1211L37.4023 29.1602L37.4414 29.1797V29.2188L37.5 29.2383L37.6367 29.4336L37.7539 29.5703L37.832 29.707L37.9688 29.8438L38.125 30.0586L38.2422 30.2344L38.3594 30.3711L38.4961 30.5469L38.6133 30.7227L38.6914 30.8203L38.8477 30.8984H39.7266V30.7812L39.668 30.7617L39.4141 30.4102L39.2383 30.1953L39.082 30L38.9453 29.8242L38.8672 29.7266L38.75 29.5703L38.5547 29.3164L38.4375 29.1797L38.3203 29.0234L38.2227 28.9062L38.2422 28.8281Z"
        fill="#1C6CAF" />
    <path
        d="M14.7656 17.0703L14.8438 17.1094L14.9609 17.5195L15.0977 17.8125L15.2344 18.0273L15.3906 18.2422L15.5859 18.418L15.625 18.5156L15.7617 18.6523L15.9375 18.7695L15.957 18.8281L16.0352 18.8672L16.1719 19.0039L16.3477 19.1211V19.1602L16.4062 19.1797V19.2188H16.4648V19.2578L16.5625 19.2969L16.6406 19.3359L16.6992 19.3945L16.8359 19.4727L17.0312 19.5898L17.3633 19.7461L17.4219 19.8047L17.6562 19.9023L17.8125 19.9805L18.125 20.0977L18.5742 20.2344H18.7891L18.7695 20.3125L18.7109 20.3711L18.5352 20.3516L18.125 20.2148L17.832 20.0977L17.6758 20.0195L17.3633 19.8828L16.9336 19.6484L16.6797 19.4922L16.2891 19.2188L16.0742 19.043L15.8789 18.8672L15.625 18.6328L15.3711 18.3594L15.1953 18.125L15 17.793L14.8828 17.5391L14.7852 17.2461L14.7656 17.0703Z"
        fill="#1C6CAF" />
    <path
        d="M20.918 18.6523H20.9375L20.918 18.8281L20.6641 19.5508L20.2734 20.6836L20.0195 21.3867L19.9219 21.5625L19.8047 21.6602L19.707 21.6797H18.6914L18.6719 21.582L18.75 21.3672L18.8281 21.4453V21.5234L18.8672 21.543L19.6484 21.5625L19.7852 21.5234L19.8633 21.4258L19.9609 21.2109L20.0391 21.0156L20.0977 20.8789L20.1953 20.6641L20.2344 20.6445L20.2148 20.5664L20.293 20.2539L20.4102 19.9414L20.4883 19.7266L20.5469 19.5508L20.6836 19.2383L20.7227 19.0625L20.8008 18.8281L20.8594 18.7305H20.8984L20.918 18.6523Z"
        fill="#1C6CAF" />
    <path
        d="M8.67188 26.7578H9.66797V26.7773L9.14062 26.7969L9.08203 26.8164L8.78906 26.8359L8.75 26.8945L8.73047 27.168L8.75 28.2617V28.9258L8.76953 29.4531V30.8008L8.82812 30.8594L9.0625 30.9375V30.957H8.67188L8.63281 30.7812L8.61328 30.6836L8.65234 30.5469V27.3438L8.63281 27.2461L8.65234 27.207L8.67188 26.7578Z"
        fill="#1C6CAF" />
    <path
        d="M23.3789 18.6719L23.4766 18.7305L23.457 18.9062H23.4375L23.418 18.8086L23.3203 18.8867L23.2422 18.9062L23.0664 19.0234L22.8711 19.1406L22.5195 19.2969L22.3242 19.3945H22.2656L22.2461 19.4336L21.9727 19.5703L21.543 19.707L21.3086 19.7656L21.1133 19.8047L20.8594 19.8438L20.8008 19.8828L20.7812 19.9414L20.7617 20.2344L20.7422 20.2734H20.7031L20.6641 20.3516V20.0977L20.6836 19.8242L20.7812 19.7266L21.4648 19.5898L21.8945 19.4531L22.2852 19.2969L22.6562 19.1211L23.0664 18.8867L23.2617 18.7695L23.3789 18.6719Z"
        fill="#1C6CAF" />
    <path
        d="M25.0391 29.2188H25.8398L26.0156 29.2969L26.1133 29.375L26.1719 29.4922L26.1914 29.6094V29.8633L26.0938 30.0586H26.0547V30.0977L25.8594 30.1953L25.7812 30.2148L25.2539 30.2344H24.8828L24.668 30.2148L24.4531 30.1562V30.1172L25.6641 30.0977L25.918 30.0391L26.0156 29.9609L26.0742 29.8438V29.5703L25.9961 29.4141L25.8789 29.3555V29.3164L24.8047 29.2969L24.7656 29.2578L24.7852 29.2383L25.0391 29.2188Z"
        fill="#1C6CAF" />
    <path
        d="M1.23047 26.7578H3.76953L3.82812 26.875V27.5586L3.76953 27.6562H2.22656L1.46484 27.6367V27.6172L1.81641 27.5781L2.20703 27.5586H3.51562L3.71094 27.5391L3.73047 27.2852V27.0117L3.69141 26.875L3.61328 26.8164H3.51562V26.7773H1.23047V26.7578Z"
        fill="#1C6CAF" />
    <path
        d="M20.918 15.2148H20.9375L20.957 15.7422L21.1719 15.8203L22.0508 16.0938L22.6953 16.3086L22.8516 16.4258L22.9883 16.6406L23.0469 16.6992L23.418 16.7578V16.7773L23.2227 16.8164L23.0469 16.7969L22.9297 16.7188L22.8125 16.5625L22.6562 16.4453L22.4805 16.3672L21.9922 16.2109L21.7773 16.1328L21.4453 16.0352L21.0547 15.918L20.8594 15.8203L20.8203 15.7227L20.8398 15.6055L20.8789 15.4883H20.8984L20.918 15.2148Z"
        fill="#1C6CAF" />
    <path
        d="M19.5312 18.6719H19.6094L19.6289 18.7305V18.8672L19.4922 19.3359L19.3555 19.7461L19.2969 19.8828L19.1992 20.2148L19.1211 20.4297L18.9844 20.8594L18.9258 21.0547L18.8477 21.25L18.8086 21.3281L18.7109 21.3477L18.75 21.1719L19.082 20.1758L19.2773 19.5508L19.5508 18.7305L19.375 18.7109V18.6914L19.5312 18.6719Z"
        fill="#1C6CAF" />
    <path
        d="M34.8438 26.7578H35.7812V26.7773L35.0391 26.7969L34.9219 26.8555L34.9023 26.9336V27.4414L34.9219 28.3984V28.6523L34.9609 29.0234L34.9414 29.2773L34.8633 29.4336L34.7852 29.3945L34.7266 29.2773L34.8242 29.2578L34.8047 27.793L34.7852 27.7734V26.8164L34.8438 26.7578Z"
        fill="#1C6CAF" />
    <path
        d="M11.3086 28.2617H11.3281V28.5352L11.3086 28.6914V29.1406L11.3672 29.5508L11.4453 29.7461L11.6016 29.9219L11.7773 30.0195L11.9922 30.0586L12.0117 30.0781L13.0664 30.0977L13.0273 30.1758L12.8516 30.2148L12.5586 30.2344H12.2266L11.875 30.1758L11.6406 30.0586L11.4453 29.8828L11.3281 29.668L11.2695 29.5508L11.2305 29.1992L11.2109 29.082V28.6133L11.2695 28.457L11.3086 28.2617Z"
        fill="#1C6CAF" />
    <path
        d="M13.8281 26.7773H14.043L14.082 26.8945V27.4805L14.043 27.6172H11.9141L11.9727 27.5781L12.1289 27.5391L12.3438 27.5195H13.6328L13.8867 27.5391L13.9258 27.5195L13.9648 27.3438V27.0117L13.9453 26.8359L13.8281 26.8164V26.7773Z"
        fill="#1C6CAF" />
    <path
        d="M18.9453 15.3906L19.0039 15.4492V15.7422L18.9258 15.8594L18.6133 15.9961L18.4375 16.0938L18.2617 16.3281L18.1641 16.4258L18.0469 16.5039L17.7734 16.6016L17.5781 16.7383L17.4023 16.9336L17.3633 17.0117L17.3242 17.0312L17.3047 17.1094L17.2461 17.1484H17.1289L17.1484 17.0508L17.2852 16.9141L17.4609 16.6992L17.6172 16.543L17.832 16.4258L18.0664 16.3477L18.1641 16.2695L18.3008 16.0547L18.3984 15.9766L18.6328 15.8594L18.8281 15.7812L18.9062 15.7031L18.9258 15.6641L18.9453 15.3906Z"
        fill="#1C6CAF" />
    <path
        d="M19.082 26.7578H20.1953L20.3125 26.8555L20.5664 27.3242L20.7422 27.6367L20.9766 28.0469L21.4648 28.9258L21.6992 29.3555L21.7383 29.4531L21.6797 29.4336L21.5039 29.1992L21.3281 28.8672L21.2305 28.7305L21.0742 28.418L20.957 28.2227L20.7812 27.8906L20.7422 27.8516L20.6836 27.7148L20.4492 27.3242L20.293 27.0117L20.2148 26.8945L20.0977 26.8164V26.7773H19.082V26.7578Z"
        fill="#1C6CAF" />
    <path
        d="M25.5859 27.5977H25.7617L25.957 27.6172L26.0352 27.6562V27.6953L26.0938 27.7148L26.1914 27.9102L26.2109 27.9883V28.125L26.1523 28.2617L26.0156 28.418L25.8789 28.5156L25.6445 28.5547H24.8047L24.5312 28.5156L24.4531 28.4961V28.4375L25.8008 28.418L25.957 28.3594L26.0742 28.2227L26.0938 28.1641V27.9102L26.0352 27.793L25.9375 27.7148L25.7422 27.6562L24.7461 27.6367V27.6172L25.5859 27.5977Z"
        fill="#1C6CAF" />
    <path
        d="M19.9023 16.4258H20.0391L20.1172 16.4648L20.1367 16.582H20.1758L20.1953 16.7578L20.2148 17.0117L20.4297 17.0703H22.5195L22.7734 17.0898L22.832 17.1289L22.6562 17.1484L20.5273 17.168L20.2539 17.1875L20.1562 17.1484L20.1172 17.1094L20.0977 16.9531L20.0781 16.5039L19.8438 16.4844L19.9023 16.4258Z"
        fill="#1C6CAF" />
    <path
        d="M1.17188 26.7773H3.51562L3.47656 26.8164L2.40234 26.8359L1.73828 26.8555L1.52344 26.875L1.11328 26.8945L0.820312 26.9727L0.585938 27.0703L0.429688 27.1875L0.410156 27.2266H0.371094L0.332031 27.3047L0.214844 27.5L0.15625 27.6758L0.0976562 27.8125L0.078125 27.7539L0.117188 27.5195L0.253906 27.2656L0.390625 27.0898L0.605469 26.9336L0.917969 26.8164L1.17188 26.7773Z"
        fill="#1C6CAF" />
    <path
        d="M21.0547 13.418L21.25 13.4375L21.9727 13.6133L22.6758 13.8281L23.3203 14.043L23.4375 14.1406L23.4766 14.2383V14.668L23.457 14.8633H23.4375L23.418 14.3164L23.3789 14.2188L23.3203 14.1992V14.1602L23.2422 14.1406L23.1055 14.0625L22.9883 14.0234L22.832 14.0039V13.9648L22.5977 13.9258L22.4219 13.8867L22.2461 13.8281L22.0508 13.7695L21.6992 13.6523L21.6211 13.6328L21.5039 13.5938H21.4062L21.25 13.5352L21.1328 13.4961L21.1133 13.457L21.0547 13.418Z"
        fill="#1C6CAF" />
    <path
        d="M33.1055 28.1445H33.1445L33.2617 28.3789H33.1445V29.375L33.1641 29.3945V29.5117L33.1445 29.5312L33.125 29.8633H33.1641V30L33.1445 30.0195V30.3906L33.1641 30.4102V30.8984L33.125 30.957H32.7148L32.793 30.918L33.0078 30.8984V30.8594H33.0469L33.0664 30.7227L33.0469 30.5273L33.0273 29.4141V28.8281L33.0859 28.7695L33.1055 28.1445Z"
        fill="#1C6CAF" />
    <path
        d="M23.3594 19.3359H23.3789V19.4922L23.3203 19.6484L23.1445 19.8047L22.8516 19.9609L22.4609 20.1367L22.0312 20.293L21.4453 20.4492L21.25 20.4883L21.0742 20.4688L21.1328 20.4102L21.3281 20.3516L21.6406 20.2734L22.1289 20.1367L22.4414 20.0195L22.5391 19.9805H22.5977V19.9414L22.9297 19.7852L23.1445 19.668L23.2227 19.5703L23.3398 19.5312L23.3594 19.3359Z"
        fill="#1C6CAF" />
    <path
        d="M32.1484 26.7578H33.3008L33.418 26.9336L33.6133 27.2852L33.8867 27.7734L34.1211 28.1836L34.375 28.6523L34.5703 28.9844L34.7656 29.3359L34.7852 29.3945L34.7266 29.375V29.3359L34.6484 29.2969L34.4727 29.0039L34.2578 28.6328L34.1016 28.3594L33.9453 28.0469L33.6523 27.5195L33.4961 27.2461L33.3203 26.9336L33.2227 26.8359L33.1836 26.8164V26.7773H32.1484V26.7578Z"
        fill="#1C6CAF" />
    <path
        d="M23.5156 26.7578H25.9375L26.3477 26.8164L26.6016 26.9141L26.8164 27.0703L26.9922 27.2656L27.1289 27.4609V27.6758L27.0703 27.6367L27.0117 27.4805L26.8945 27.2852L26.6797 27.0703L26.4648 26.9531L26.25 26.8945L25.9375 26.8555L24.5508 26.8164V26.7773H23.5156V26.7578Z"
        fill="#1C6CAF" />
    <path
        d="M6.15234 28.0859L6.21094 28.1055L6.26953 28.2617L6.25 28.3203L6.23047 28.2812H6.15234L5.9375 28.9453L5.78125 29.4336L5.76172 29.5312L5.83984 29.5117H6.46484L6.60156 29.4922L6.58203 29.3359L6.28906 28.457L6.30859 28.3789L6.62109 29.3164L6.69922 29.5117V29.5508H5.70312L5.66406 29.4727V29.3555L5.74219 29.1797L5.80078 28.9648L5.85938 28.7891L5.97656 28.418L6.03516 28.2227L6.11328 28.1055L6.15234 28.0859Z"
        fill="#1C6CAF" />
    <path
        d="M20.918 18.6523H20.9375L20.918 18.8281L20.6641 19.5508L20.2734 20.6836L20.2344 20.7227V20.6055L20.2148 20.5664L20.293 20.2539L20.4102 19.9414L20.4883 19.7266L20.5469 19.5508L20.6836 19.2383L20.7227 19.0625L20.8008 18.8281L20.8594 18.7305H20.8984L20.918 18.6523Z"
        fill="#1C6CAF" />
    <path
        d="M21.7773 27.1484H21.7969L21.8164 27.4805L21.8359 27.5977L21.8555 28.125L21.875 28.2422V29.0234L21.8555 29.2773L21.7969 29.3359L21.7773 28.9258L21.7578 28.8281V27.168L21.7773 27.1484Z"
        fill="#1C6CAF" />
    <path
        d="M29.375 28.0664L29.4336 28.125L29.4727 28.2227L29.5312 28.2617L29.6289 28.5156L29.707 28.7305L29.8438 29.2188L29.8828 29.2969V29.5508H28.9062L28.9648 29.3555L29.0039 29.2969L28.9844 29.4922L29.2383 29.5117L29.8633 29.5312L29.5898 28.7305L29.4336 28.2812L29.3359 28.2617L29.3164 28.3594L29.2969 28.3008L29.3555 28.0859L29.375 28.0664Z"
        fill="#1C6CAF" />
    <path
        d="M29.3164 28.1055H29.3359V28.2422L29.2578 28.5547L29.0234 29.2969H28.9844L28.9648 29.4141L28.8867 29.5703H28.8672V29.3945L28.9648 29.082L29.0039 28.9258L29.1211 28.5742L29.1992 28.3203L29.2578 28.1641L29.3164 28.1055Z"
        fill="#1C6CAF" />
    <path
        d="M37.2266 27.168H37.2461V27.2852L37.3047 27.3047V27.5977L37.2852 27.6172V27.8906L37.3047 27.9102V28.2422L37.2656 28.418L37.2461 28.5352L37.207 28.457L37.168 28.3203V27.5586L37.1875 27.2461L37.2266 27.168Z"
        fill="#1C6CAF" />
    <path
        d="M6.25 28.1641L6.28906 28.1836V28.2422H6.32812L6.42578 28.4766L6.54297 28.8086L6.67969 29.1992L6.75781 29.4531L6.73828 29.5508L6.71875 29.5117H6.67969L6.50391 29.0234L6.30859 28.4375V28.3789H6.26953L6.25 28.1641Z"
        fill="#1C6CAF" />
    <path
        d="M18.457 17.6562H18.5547L18.5742 17.6758H19.2578L19.6094 17.6562H20.5859L20.625 17.6758V17.7148H18.0859L18.0469 17.6758L18.457 17.6562Z"
        fill="#1C6CAF" />
    <path
        d="M19.1797 16.582H19.1992V17.1484H18.3594L18.0273 17.1289L18.0664 17.0898L18.3398 17.0703H18.8672L19.0625 17.0508L19.1602 16.9531L19.1797 16.582Z"
        fill="#1C6CAF" />
    <path
        d="M6.28906 28.3789L6.32812 28.4375L6.62109 29.3164L6.69922 29.5117V29.5508H5.70312L5.72266 29.4531L5.83984 29.1211L5.85938 29.1992L5.76172 29.5312L5.83984 29.5117H6.46484L6.60156 29.4922L6.58203 29.3359L6.28906 28.457V28.3789Z"
        fill="#1C6CAF" />
    <path d="M23.4961 17.6562H23.7109L23.9648 17.6758H25.6836L25.6055 17.7148H23.0469L23.1055 17.6758L23.4961 17.6562Z"
        fill="#1C6CAF" />
    <path
        d="M23.3008 16.7773H23.4766L23.5547 16.8555L23.5938 16.9531V17.1094L23.5547 17.1484H23.3984L23.3398 17.1289V17.0898H23.3984V17.0508H23.4375L23.457 16.9336L23.3594 16.8359L23.3008 16.8164V16.7773Z"
        fill="#1C6CAF" />
    <path
        d="M21.7578 26.7578H22.7148V26.7773L22.2656 26.8164H21.9336L21.8359 26.8945L21.8164 26.9336L21.7969 27.1289L21.7578 27.1094V26.7578Z"
        fill="#1C6CAF" />
    <path
        d="M26.6406 28.8867L26.7383 28.9258L26.8945 29.043L27.0117 29.1797L27.1289 29.3945L27.1484 29.4727V29.6484L27.0703 29.5508L27.0117 29.3555L26.875 29.1406L26.6602 28.9453L26.6406 28.8867Z"
        fill="#1C6CAF" />
    <path
        d="M5.70312 29.5508H6.66016L6.69922 29.5898L6.44531 29.6289H6.17188L6.01562 29.6094L5.72266 29.5898L5.70312 29.5508Z"
        fill="#1C6CAF" />
    <path
        d="M20.918 18.6523H20.9375L20.918 18.8281L20.7227 19.375L20.6836 19.2969L20.7227 19.0625L20.8008 18.8281L20.8594 18.7305H20.8984L20.918 18.6523Z"
        fill="#1C6CAF" />
    <path
        d="M27.1094 28.1641H27.1289V28.3008L26.9727 28.5742L26.7188 28.8281L26.6211 28.8477L26.6406 28.7695H26.6797L26.7188 28.6914L26.8164 28.6133H26.875L26.8945 28.5352L27.0117 28.3594L27.0508 28.2422L27.1094 28.1641Z"
        fill="#1C6CAF" />
    <path
        d="M11.7578 27.6562L11.7969 27.6758L11.6016 27.8125L11.4648 27.9688L11.3672 28.1836H11.3281L11.3086 28.0664L11.3672 27.9688L11.4453 27.8125L11.5625 27.7148L11.7578 27.6562Z"
        fill="#1C6CAF" />
    <path
        d="M17.3047 27.9102L17.3633 27.9688L17.4414 28.1445L17.5 28.3789L17.5195 28.5156V29.1992L17.4609 29.5117L17.4219 29.6289L17.4023 29.5508L17.4609 29.2383L17.4805 29.082V28.6914L17.4414 28.3203L17.3633 28.0664L17.3047 27.9492V27.9102Z"
        fill="#1C6CAF" />
    <path d="M29.0234 29.5508H29.9023L29.8438 29.6094L29.707 29.6289L28.9453 29.5898L29.0234 29.5508Z" fill="#1C6CAF" />
    <path
        d="M37.2656 27.2852L37.3047 27.3047V27.5977L37.2852 27.6172V27.8906L37.3047 27.9102V28.2422L37.2656 28.3984H37.2461V27.5195L37.2656 27.2852Z"
        fill="#1C6CAF" />
    <path
        d="M36.3281 26.7578H37.2461L37.2852 26.7773V26.8945L37.2461 27.0117L37.1875 26.9531L37.1484 26.8555L37.1094 26.8359V26.7773H36.3281V26.7578Z"
        fill="#1C6CAF" />
    <path
        d="M28.9844 29.2969L29.0039 29.375L28.9844 29.4922L29.2383 29.5117L29.8633 29.5312L29.8047 29.375L29.8242 29.3164L29.8828 29.4727V29.5508H28.9062L28.9648 29.3555L28.9844 29.2969Z"
        fill="#1C6CAF" />
    <path d="M14.7656 17.0703L14.8438 17.1094L14.9414 17.4609V17.6367L14.9023 17.5977L14.7852 17.2461L14.7656 17.0703Z"
        fill="#1C6CAF" />
    <path d="M20.0195 28.1445L20.0977 28.1836L20.1562 28.3203H20.0781L20.0586 29.2969H20.0391L20.0195 28.1445Z"
        fill="#1C6CAF" />
    <path
        d="M25.4883 18.0273L25.5273 18.0469L25.4883 18.1641L25.3711 18.3398L25.2344 18.3203L25.3516 18.1641L25.4883 18.0273Z"
        fill="#1C6CAF" />
    <path d="M33.1055 28.1445H33.1445L33.2617 28.3789H33.1445L33.125 28.9453H33.1055V28.1445Z" fill="#1C6CAF" />
    <path d="M22.168 17.6562H22.4609L22.6562 17.6758H23.0273V17.7148H21.9531V17.6953L22.1289 17.6758L22.168 17.6562Z"
        fill="#1C6CAF" />
    <path d="M13.0664 29.3555L13.1055 29.3945L13.125 29.7266V30.0195L13.0664 30.0781V29.3555Z" fill="#1C6CAF" />
    <path d="M35.0391 26.7773H35.8008V27.0898L35.7617 27.0312L35.7422 26.8359L35.7031 26.8164H35.0391V26.7773Z"
        fill="#1C6CAF" />
    <path
        d="M37.2266 29.7266H37.2461L37.2656 30.2734V30.5469L37.2461 30.7031H37.2266L37.207 30.6055V30.332L37.2266 29.7266Z"
        fill="#1C6CAF" />
    <path
        d="M20.6836 20.1367H20.7031L20.7422 20.4297L20.8008 20.4492L20.8203 20.5078L20.7617 20.5469H20.6641L20.6445 20.5273V20.3516H20.6836V20.1367Z"
        fill="#1C6CAF" />
    <path
        d="M27.8711 16.9336L27.9492 16.9531L27.9688 17.0117V17.3633L27.9102 17.4219L27.8906 17.3438L27.9102 17.1875L27.8711 16.9336Z"
        fill="#1C6CAF" />
    <path
        d="M20.1953 24.8828L20.2539 24.9023L20.1562 24.9609L19.9805 25L19.8242 24.9805L19.7656 24.9219L20.1172 24.9023L20.1953 24.8828Z"
        fill="#1C6CAF" />
    <path
        d="M6.15234 28.0859L6.21094 28.1055L6.26953 28.2617L6.25 28.3203L6.23047 28.2812H6.15234L6.05469 28.5742L6.03516 28.4961L6.11328 28.2617L6.15234 28.0859Z"
        fill="#1C6CAF" />
    <path
        d="M20.4102 13.3203L20.6836 13.3398L20.918 13.3789V13.3984H20.6836L20.625 13.418L20.4297 13.3984L20.3906 13.3789L20.4102 13.3203Z"
        fill="#1C6CAF" />
    <path
        d="M9.64844 30.7031H9.66797L9.6875 30.8008V30.9375L9.66797 30.957H9.375V30.918L9.60938 30.8789V30.8398H9.64844V30.7031Z"
        fill="#1C6CAF" />
    <path
        d="M33.0859 28.9453H33.125L33.1445 29.375L33.1641 29.3945V29.5117L33.1445 29.5312L33.125 29.8633H33.1055L33.0859 28.9453Z"
        fill="#1C6CAF" />
    <path d="M33.0664 28.1641H33.0859V28.7695L33.0469 28.7109L33.0273 28.4961L33.0469 28.2227L33.0664 28.1641Z"
        fill="#1C6CAF" />
    <path d="M22.0703 18.457H22.4609L22.4805 18.4961L22.3828 18.5156H21.9141L21.9922 18.4766L22.0703 18.457Z"
        fill="#1C6CAF" />
    <path d="M22.5781 26.7773H22.7344V27.1289L22.6953 27.1094L22.6758 26.9336L22.6172 26.8359L22.5781 26.8164V26.7773Z"
        fill="#1C6CAF" />
    <path
        d="M29.375 28.0664L29.4336 28.125L29.4727 28.3203L29.4141 28.2617H29.3359L29.3164 28.3594L29.2969 28.3008L29.3555 28.0859L29.375 28.0664Z"
        fill="#1C6CAF" />
    <path d="M21.2109 17.6562L21.582 17.6758L21.6211 17.7148H21.0742V17.6953L21.2109 17.6562Z" fill="#1C6CAF" />
    <path d="M20.6836 13.3789L21.0352 13.3984L21.1328 13.457L21.0938 13.4766L20.7422 13.4375L20.6836 13.418V13.3789Z"
        fill="#1C6CAF" />
    <path d="M9.14062 26.7773H9.6875V26.8945L9.60938 26.8555L9.57031 26.8164H9.14062V26.7773Z" fill="#1C6CAF" />
    <path d="M20.8984 15.1758H20.9375L20.918 15.7031H20.8984L20.8594 15.3516V15.2148L20.8984 15.1758Z" fill="#1C6CAF" />
    <path d="M19.3945 18.6523H19.6289L19.5898 18.6914L19.4336 18.7109H18.9844V18.6914L19.3945 18.6523Z"
        fill="#1C6CAF" />
    <path
        d="M17.6172 16.543L17.6562 16.5625L17.5195 16.7188L17.3828 16.8555L17.3438 16.8359L17.5586 16.6016L17.6172 16.543Z"
        fill="#1C6CAF" />
    <path d="M21.6406 29.2578H21.7773L21.7969 29.4336L21.7188 29.4141L21.6406 29.2969V29.2578Z" fill="#1C6CAF" />
    <path d="M34.8242 29.2578L34.8633 29.3164L34.8828 29.4141H34.8047L34.7266 29.2773L34.8242 29.2578Z"
        fill="#1C6CAF" />
    <path d="M37.2656 29.1211L37.3438 29.1602L37.4023 29.2773H37.2656V29.1211Z" fill="#1C6CAF" />
    <path d="M21.7773 27.1484H21.7969L21.8164 27.4609H21.7773L21.7578 27.5V27.168L21.7773 27.1484Z" fill="#1C6CAF" />
    <path d="M20.1367 13.3203H20.4102L20.3711 13.3789L20.1367 13.3594V13.3203Z" fill="#1C6CAF" />
    <path d="M37.2656 28.3984H37.3828L37.3242 28.4961H37.2461L37.2656 28.3984Z" fill="#1C6CAF" />
</svg>