<svg viewBox="0 0 40 40" xmlns="http://www.w3.org/2000/svg"><path d="M19.824 8.926H20l.02.02.273.038.234.098.215.117.215.176.781.781.157.137 1.093 1.094.196.175.605.606.156.137.547.547.156.136.528.528.156.136.293.293.156.137.43.43.156.136.274.274.156.137.156.156.156.137.293.293.157.136.156.156.156.137.215.215.195.273.117.254.04.137.019.39-.039.177-.078.214-.176.254-.273.293-.157.137-.468.469-.157.136-.39.391-.157.137-.742.742-.156.137-.254.254-.156.136-.469.47-.156.136-1.016 1.015-.156.137-.45.45-.155.136-.43.43-.156.136-.743.743-.156.136-.332.332-.156.137-.195.176-.118.078-.234.078-.195.04h-.43l-.078-.04-.156-.02-.254-.136-.215-.176-.156-.156-.157-.137-.41-.41-.039-.02v-.039l-.078-.039-1.191-1.191-.157-.137-.39-.39-.156-.137-.313-.293-.977-.977-.097-.078v-.039l-.078-.039-.293-.293-.157-.137-.136-.136-.098-.078-.879-.88-.039-.019v-.039l-.058-.02v-.038l-.079-.04-.488-.488-.156-.137-.274-.273-.156-.137-.215-.215-.195-.253-.098-.196-.058-.215v-.41l.078-.234.137-.254.175-.195.215-.235.274-.273h.039l.02-.059.155-.137.704-.703h.039v-.039l.156-.136.313-.313.156-.137.43-.43.156-.136.312-.313h.04l.019-.058.156-.137.45-.45.155-.136.41-.41.157-.137.644-.644h.04v-.04l.097-.077.547-.547.156-.137.39-.39h.04l.02-.06.156-.136.41-.41.156-.137.254-.254.215-.136.137-.079.195-.058.176-.02.02-.02zm.04.547l-.294.097-.175.117-.196.176-.898.899-.156.136-.45.45-.156.136-.645.645-.156.137-.293.293-.156.136-.332.332-.156.137-.82.82-.157.137-.293.293-.156.137-.332.332-.156.137-.352.351-.156.137-.586.586-.156.136-.274.274-.097.078-.176.215-.078.176-.02.097v.274l.078.195.157.195.527.528.156.136.215.196.137.156.195.176.078.097.156.137.528.527h.039v.04l.156.136.606.606.156.136.644.645.157.137.8.8.157.137.742.742.156.137.39.39h.04v.04l.156.137.527.527h.04v.039l.156.137.273.273.195.117.118.04h.351l.156-.04.196-.097.234-.215.176-.176.039-.02v-.039l.078-.039.098-.097v-.04l.078-.038.566-.567.156-.137.645-.644.156-.137.567-.566.156-.137.039-.078h.039v-.04l.078-.038.606-.606.156-.136.293-.293.039-.02v-.039l.058-.02.06-.058v-.04l.077-.038.606-.606.058-.039v-.039l.078-.039.235-.234.156-.137.547-.547.156-.137.39-.39.118-.098.566-.566.098-.137.059-.195v-.293l-.078-.215-.137-.176-.059-.078h-.039l-.039-.078-.234-.215-.176-.176-.156-.136-.352-.352-.156-.137-.567-.566-.156-.137-.43-.43-.156-.136-.449-.45-.156-.136-.703-.703-.157-.137-.683-.684-.156-.136-.606-.606-.156-.137-.88-.878-.155-.137-.45-.45-.253-.175-.235-.098-.098-.02h-.156z" fill="#1C6CAF"/><path d="M19.434 13.281h.703l.547.059.644.117.723.176.742.234.527.176.117.098.04.097v.43l-.02.195-.059.04-.546-.255-.43-.195-.39-.156-.489-.137-.625-.117-.45-.059-.37-.02h-.332l-.41.04-.294.059-.39.117-.39.175-.333.176-.37.254-.333.274-.195.175-.078.118-.117.136-.176.313-.117.312-.06.235-.019.254v.312l.04.313.097.312.156.313.176.253.176.215.195.196.176.136.234.176.391.235.313.156.37.175.235.118.02.078-.235.605-.078.157-.04.02-.175-.02-.41-.137-.293-.117-.156-.078-.313-.137-.43-.235-.253-.156-.39-.273-.216-.176-.195-.176-.254-.234-.254-.274-.176-.234-.195-.332-.117-.254-.098-.293-.058-.293-.02-.156v-.45l.059-.35.097-.313.137-.313.117-.195.156-.215.235-.274.215-.214.214-.176.333-.235.312-.175.313-.157.39-.136.332-.098.527-.098.43-.058.86-.059zM23.516 26.758h2.422l.41.058.254.098.214.156.176.196.137.195.039.293.02.058v.196l-.04.195-.039.137-.156.254-.234.234.02.098.155.117.118.137.117.215.058.156v.43l-.058.234-.156.312-.117.137-.196.137-.351.117-.098.039-.41.02h-2.324l-.02-.02v-4.102l.02-.078.039-.02zm.976.918v.742h1.25l.176-.059.117-.097.059-.196-.02-.175-.058-.098-.078-.078-.137-.04h-1.309zm-.02 1.64v.762l.02.02h1.25l.176-.04.117-.097.059-.117v-.274l-.078-.156-.078-.059-.235-.039h-1.23zM32.148 26.758h1.153l.117.176.195.351.274.488.234.41.254.47.195.331.157.274h.097l-.02-1.465-.019-.02v-.957l.059-.058h.937l.04.02v4.179l-.02.02h-1.074l-.118-.196-.234-.41-.293-.527-.176-.293-.234-.43-.254-.45-.156-.273-.117-.02v.997l.02.02v.117l-.02.02-.02.331h.04V30l-.02.02v.37l.02.02v.488l-.06.079h-.957l-.02-.079v-4.12l.02-.02zM19.082 26.758h1.113l.117.098.254.468.176.313.235.41.488.879.156.293v.039h.137v-.43l-.02-.02-.02-.312v-1.621l.04-.117h.957l.039.02v4.16l-.059.039H21.68l-.078-.079-.176-.312-.215-.39-.313-.548-.253-.449-.293-.527-.196-.332-.078-.02v2.637l-.02.02h-.976l-.02-.04v-.156l-.019-.117.02-.137v-3.71l.019-.06zM11.934 26.758h2.09l.039.039.019.098v.585l-.039.137-2.07.02-.196.058-.175.117-.137.157-.078.195-.04.176-.038.351v.45l.058.41.078.195.157.176.175.098.215.039.02.02 1.015.019v-.801h-1.035l-.058-.02-.04-.078v-.762l.02-.019h2.149l.019.02v2.402l-.039.117-.04.02h-2.01l-.372-.02-.098-.039-.175-.04-.157-.058-.293-.175-.195-.176-.176-.215-.234-.469-.078-.351-.02-.157-.02-.02v-.683l.04-.058.02-.254.038-.117.079-.293.156-.313.117-.176.234-.234.254-.156.274-.117.136-.04.352-.039.059-.02zM1.23 26.758h2.54l.058.117v.684l-.058.097-2.247.02-.214.02-.118.077-.078.118-.02.195.02.176.059.097.137.059.097.039h.117l.02-.02h.664l.02.02h.332l.078-.02.02.02.41.02.292.078.235.117.176.156.117.195.078.196.02.195.019.04.02.175v.176l-.04.136-.039.235-.156.312-.137.176-.312.176-.274.078-.097.039-.371.02H.254l-.059-.059-.02-.078.02-.04v-.488l-.02-.019.02-.137.04-.058 2.421-.02.196-.078.078-.098.02-.039v-.293l-.079-.156-.058-.039-.137-.02-1.543-.02-.02-.019-.273-.039-.195-.078-.137-.078-.196-.176-.136-.195-.098-.195-.02-.02-.019-.234v-.371l.04-.254.058-.195.117-.215.137-.176.214-.156.313-.118.312-.058zM16.348 26.68h.43l.488.078.41.176.215.136.195.176.195.274.117.234.118.39.02.235.038.137v.703l-.02.136-.019.02-.02.254-.038.098-.04.156-.097.254-.235.332-.195.195-.273.176-.352.137-.312.058-.254.04h-.332l-.45-.06-.41-.117-.195-.097-.215-.156-.156-.137-.137-.195-.156-.293-.078-.215-.059-.235-.058-.41v-.742l.039-.078.039-.313.117-.312.137-.274.175-.214.176-.176.293-.176.293-.117.332-.04.02-.019.254-.02zm-.059.879l-.234.078-.196.136-.117.157-.098.195-.078.332-.02.137v.508l.06.37.097.274.078.117.117.137.196.117.117.04.156.019h.352l.195-.04.176-.097.176-.156.136-.254.059-.235.039-.312v-.39l-.04-.372-.077-.254-.117-.214-.157-.157-.175-.078-.196-.058h-.449z" fill="#1C6CAF"/><path d="M18.457 17.656h.098l.02.02h.683l.351-.02h.977l.039.02v.039l.059-.02.488-.02.137-.019.273.02.059.02.488-.02.137-.02h.195l.195.02h.45l.605-.02.254.02h1.719l-.02.137-.195.39-.098.137-.332.039-1.289.078-.8.04-.567.038-1.192.059-.156.02-.078.097-.293.84-.39 1.133-.255.703-.097.175-.117.098-.098.02h-1.016l-.02-.098.235-.703.254-.781.235-.703.214-.665h-.234l-.273.02h-.372l-.097-.059-.117-.136-.508-.782-.02-.078.157-.02.312-.019zM5.742 26.758h.918l.078.039.215.488.176.43.215.488.215.547.175.39.235.567.215.508.273.644.02.118H7.402l-.117-.196-.234-.488-.02-.04h-1.66l-.254.548-.078.156-.02.02H3.985l-.02-.04.196-.449.117-.293.059-.156.078-.176.215-.508.293-.683.312-.762.352-.84.117-.273.04-.04zm.41 1.504l-.078.195-.195.625-.117.352v.097h.703l.137-.02.02-.019-.02-.156-.352-1.055-.098-.02zM28.945 26.758h.957l.098.156.332.8.176.411.117.254.156.39.332.782.137.312.234.567.215.508-.02.039h-1.073l-.196-.372-.176-.351-1.66-.02-.039.118-.293.585-.039.04h-1.015l-.02-.04.293-.703.117-.293.137-.312.195-.45.235-.566.293-.703.273-.664.098-.215.078-.195.058-.078zm.43 1.484l-.04.02-.312.976-.058.254.02.02.253.02h.625l-.058-.216-.332-.996-.059-.078h-.039zM36.328 26.758h.918l.04.02v.507l.019.02v.293l-.02.02v.273l.02.02v.331l-.04.176h.137l.254-.313.157-.195.214-.254.43-.547.156-.195.098-.117.078-.04h1.133l-.04.079-.214.273-.176.215-.215.274-.234.273-.234.313-.235.273-.176.215-.097.117.02.098.175.195.176.234.39.508.254.313.391.508.215.273.02.059H38.71l-.137-.157-.293-.39-.254-.332-.175-.235-.215-.273-.215-.293-.156-.02.02.157.019.02v1.073l-.02.04v.234l.02.078-.059.098h-.957l-.02-.02v-4.121l.02-.059.04-.02zM19.863 14.316H20l.176.079.273.195.195.156.176.137.117.195.02.664.215.078.879.274.644.215.157.117.136.215.059.058.371.059.117.058.059.137v.156l-.098.078-.215-.019-.039.02h-2.656l-.059-.02-.273.02-.098-.04-.039-.039-.058-.507-.02-.059-.059-.02-.742.02v.566l-.02.059h-.253l-.02.02H17.11l.02-.098.137-.156.215-.254.136-.137.215-.117.234-.078.098-.078.137-.215.097-.078.235-.118.195-.078.078-.078.02-.039-.02-.254h-.488l-.04-.039.02-.098.176-.136.254-.215.332-.235.195-.136.274-.156.234-.079zM8.672 26.758h.996l.039.039v4.16l-.02.02h-.996l-.039-.137-.039-.098.04-.195v-3.203l-.02-.098.02-.039.019-.45z" fill="#1C6CAF"/><path d="M19.766 9.355h.312l.176.06.156.077.195.137v.039l.079.039.195.176 1.094 1.094.117.097.058.059v.039l.059.02v.038l.059.02.078.098.097.097.137.117.098.098.176.195.253.235v.039l.098.02.02.097h.039l.097.098.04.058.136.079.059.058v.04l.078.038.117.137.156.137.567.566.156.137.059.058v.04l.078.038.136.137.098.078.098.098.02.059h.038l.078.078v.039l.079.039.156.137.098.097.175.195.196.176.566.567.098.078v.039l.058.02v.038l.078.04.117.136.04.02v.039l.058.02.137.156.098.078.078.097.175.137.176.195.059.059v.04h.039v.058h.039l.098.175.02.098-.02.02.039.254-.02.117h-.02l-.019-.293-.078-.215-.137-.176-.156-.176-.156-.136-.215-.215-.156-.137-.352-.351-.156-.137-.567-.567-.156-.136-.43-.43-.156-.137-.449-.449-.156-.137-.703-.703-.157-.136-.683-.684-.156-.137-.606-.605-.156-.137-.88-.879-.155-.137-.45-.449-.253-.176-.235-.097-.098-.02h-.156l-.293.098-.175.117-.196.176-.898.898-.156.137-.45.45-.156.136-.645.644-.156.137-.293.293-.156.137-.332.332-.156.137-.82.82-.157.137-.293.293-.156.136-.332.332-.156.137-.352.352-.156.136-.586.586-.156.137-.371.371-.059.02-.039.078-.117.195-.04.156v.274l.079.195.156.195.508.508.156.137.235.215.136.156.196.176.742.742.039.02v.039l.078.039.684.683.156.137.644.645.157.136.8.801.157.137.742.742.156.137.39.39.04.02v.039l.078.039.605.605.04.02v.039l.078.039.351.352.195.117.118.039h.468l-.078.039-.332.02v.019h-.137l-.175-.078-.176-.137-.195-.176-.215-.215-.157-.136-.605-.606-.156-.136-.196-.215-.156-.137-.39-.39-.176-.137-.137-.157v-.039l-.078-.039-.04-.078-.116-.058v-.04l-.078-.039-.743-.742-.097-.078-.098-.098v-.039h-.039v-.039l-.078-.039-.04-.078-.077-.039-.117-.137-.157-.136-.156-.157-.098-.078-.136-.156-.137-.137-.156-.136-.118-.098-.136-.156-.098-.078-.098-.118-.156-.136-.39-.391-.313-.293-.312-.312-.059-.04v-.039l-.059-.02v-.038l-.058-.02v-.039l-.078-.039-.47-.469-.155-.234-.059-.078v-.332l.04-.02.038-.215.02-.097.058-.137.547-.547.04-.058h.038l.02-.059h.039v-.039l.156-.137.078-.097.157-.137.351-.352h.04l.019-.058.058-.059h.04l.019-.058.156-.137.195-.176.059-.02.02-.058.156-.137 1.094-1.094.156-.136.215-.215.156-.137.195-.176.117-.136.157-.137.683-.684.157-.136.214-.215.157-.137.195-.195h.039v-.04l.098-.077.039-.059h.039l.02-.059h.038v-.039l.157-.136.234-.235.098-.078.097-.098.098-.117.156-.136.45-.45.156-.097.097-.059.078-.058.118-.04z" fill="#1C6CAF"/><path d="M19.824 8.926H20l.02.02.273.038.234.098.215.117.215.176.781.781.157.137 1.093 1.094.196.175.605.606.156.137.547.547.156.136.528.528.156.136.293.293.156.137.43.43.156.136.274.274.156.137.156.156.156.137.293.293.157.136.156.156.156.137.215.215.195.273.117.254v.157l-.02-.04h-.038l-.098-.253-.137-.215-.293-.313-.253-.254-.04-.02v-.038l-.078-.04-.527-.527-.254-.234-.273-.254v-.039l-.078-.039-.098-.078-.547-.547-.234-.215-.313-.312-.039-.02v-.039L25 13.457l-.117-.098-.078-.097-.098-.078v-.04l-.078-.039-.45-.449-.077-.058v-.04l-.079-.038-.996-.997-.175-.136-.079-.098-.097-.098-.195-.175v-.04l-.06-.019v-.039l-.077-.04-.117-.097-.137-.156-.488-.488-.157-.137-.175-.176v-.039h-.04l-.41-.41-.215-.156-.175-.078-.235-.079L20 9.043l-.313.02-.078.039-.175.058-.332.176-.665.664h-.039l-.039.078-.078.04-.02.058h-.038l-.02.058-.058.059h-.04l-.02.059h-.038l-.04.078-.155.136-.079.079h-.039v.039h-.058l-.02.058-.097.078-.04.059-.136.117-.156.156h-.04l-.039.079-.898.898h-.04l-.038.078-.098.098h-.039l-.039.078-.078.039-.04.078-.175.137-.078.097-.059.059h-.039l-.02.059h-.038l-.02.039h-.039l-.02.078-.058.058-.098.059-.683.684-.156.136-.45.45h-.039l-.02.058-.155.117-.157.156-.097.079-.02.039h-.039l-.04.078-.136.117-.098.117h-.039v.04l-.156.136-.078.098-.098.097-.117.098-.293.293h-.039v.039l-.058.059h-.04l-.019.058h-.039l-.04.078-.136.137-.137.156-.058.02-.04.078-.175.293-.02.078-.039.137v.39l.059.215.195.313.118.136v.04l.078.038.117.118v.039l.078.039.293.293.059.02v.038l.078.04.742.742.058.039v.039h.04l.078.078v.039l.078.039.117.137.098.097.078.059v.04l.078.038.156.156.156.137.02.059.078.02.02.077.097.04.235.234.117.097.136.157.157.136v.04l.078.038.43.43.058.04v.038l.078.04.235.234.156.137v.039l.078.039.195.195.137.117.098.098.097.117.098.078v.04l.078.038.664.664.117.078.137.157.176.156.137.156.156.137v.039l.058.02v.038l.059.02v.04l.078.038.098.078.078.098.117.098v.039l.078.039.196.195.175.117v.04h.059v.038l.117.04.098.058.058.02v.039h-.136l-.254-.137-.215-.176-.156-.156-.157-.137-.41-.41-.039-.02v-.039l-.078-.039-1.191-1.191-.157-.137-.39-.39-.156-.137-.313-.293-.977-.977-.097-.078v-.039l-.078-.039-.293-.293-.157-.137-.136-.136-.098-.078-.879-.88-.039-.019v-.039l-.058-.02v-.038l-.079-.04-.488-.488-.156-.137-.274-.273-.156-.137-.215-.215-.195-.253-.098-.196-.058-.215v-.41l.078-.234.137-.254.175-.195.215-.235.274-.273h.039l.02-.059.155-.137.704-.703h.039v-.039l.156-.136.313-.313.156-.137.43-.43.156-.136.312-.313h.04l.019-.058.156-.137.45-.45.155-.136.41-.41.157-.137.644-.644h.04v-.04l.097-.077.547-.547.156-.137.39-.39h.04l.02-.06.156-.136.41-.41.156-.137.254-.254.215-.136.137-.079.195-.058.176-.02.02-.02z" fill="#1C6CAF"/><path d="M23.379 18.672l.098.058-.02.176-.078.586-.059.156-.175.157-.293.156-.391.176-.43.156-.586.156-.43.078-.156.02h-.195l-.02-.02.02-.43.02-.273.097-.097.684-.137.43-.137.39-.156.371-.176.41-.234.196-.117.117-.098zM21.055 13.418l.195.02.723.175.703.215.644.215.117.098.04.097v.43l-.02.195-.059.04-.546-.255-.43-.195-.39-.156-.489-.137-.625-.117-.45-.059-.37-.02h-.332l-.41.04-.294.059-.39.117-.39.175-.333.176-.37.254-.333.274-.195.175-.078.118-.117.136-.176.313-.117.312-.06.235-.019.254v.312l.04.313.097.312.156.313.176.253.176.215.195.196.176.136.234.176.391.235.313.156.37.175.235.118.02.078-.196.508-.02-.078v-.157l.06-.156v-.137l-.02-.039-.313-.117-.527-.254-.332-.215-.332-.254-.215-.175-.195-.196-.157-.234-.175-.215-.118-.234-.097-.293-.059-.254v-.547l.04-.215.019-.215.137-.273.039-.176.097-.176.137-.156.137-.176.332-.332.254-.176.078-.058h.039v-.04l.351-.195.313-.156.293-.136.39-.118.528-.097.332-.02.449.02.137.039.293.02.097.038.313.02.137.039.234.039.313.078.41.137.175.078.118.059v.039l.058-.02.274.137.195.078.156.098.117.02.059.038v-.469l-.04-.097-.058-.02v-.039l-.078-.02-.137-.078-.117-.039-.156-.02v-.038l-.234-.04-.176-.038-.176-.059-.195-.058-.352-.118-.078-.02-.117-.038h-.098l-.156-.059-.117-.039-.02-.039-.058-.039zM11.934 26.758h2.09v.02l-.196.019-.039.02-1.094.019-.84.039-.195.02-.41.136-.234.098-.118.098h-.039v.039h-.039l-.039.078-.136.156-.157.313-.058.175-.059.196-.059.37-.019.177v.488l.078.468.176.41.215.313.156.137.215.137.273.136.274.04.02.019.234.02.84-.02h.351l.742.02.059-.02V28.69l-.02-.175-.078-.02-.215.02h-1.445l-.117.058-.02.04-.02.195v.253l.04.079.058.02.938.019.02.097h-1.133l-.04-.078v-.762l.02-.019h2.149l.019.02v2.402l-.039.117-.04.02h-2.01l-.372-.02-.098-.039-.175-.04-.157-.058-.293-.175-.195-.176-.176-.215-.234-.469-.078-.351-.02-.157-.02-.02v-.683l.04-.058.02-.254.038-.117.079-.293.156-.313.117-.176.234-.234.254-.156.274-.117.136-.04.352-.039.059-.02zM1.348 27.637h.097l-.058.039-.157.058-.097.118-.02.039-.02.195.02.176.059.097.137.059.097.039h.117l.02-.02h.664l.02.02h.332l.078-.02.02.02.41.02.292.078.235.117.176.156.117.195.078.196.02.195.019.04.02.175v.176l-.04.136-.039.235-.156.312-.137.176-.312.176-.274.078-.097.039-.371.02H.254l-.059-.059-.02-.078.02-.04v-.488l-.02-.019.02-.137.04-.058 2.421-.02.196-.078.078-.098.02-.039v-.293l-.079-.156-.058-.039-.137-.02-1.543-.02-.02-.019-.273-.039-.195-.078-.137-.078-.196-.176-.136-.195-.078-.156-.02-.117V28.3l.04.058.019.137h.039l.137.313.117.136.215.137.195.078.117.04.215.019h1.21l.352.02.137.058.098.098.078.156.039.234-.098.215H2.95l-.039.078-.137.078-.195.059-.937.02-.586-.02-.078-.02-.43-.02-.195.02-.04.098-.019.039-.02.332v.098l.079.117.078.02h1.035l.86-.02.468-.02.312-.058.313-.117.176-.118.156-.214.078-.196.04-.156v-.625l-.118-.39-.117-.157-.137-.117-.351-.117-.02-.02H1.523l-.195-.039-.195-.098-.078-.078-.059-.156v-.215l.059-.195.136-.117.157-.04z" fill="#1C6CAF"/><path d="M18.457 17.656h.098l.02.02h.683l.351-.02h.977l.039.02v.039l.059-.02.488-.02.137-.019.273.02.059.02.488-.02.137-.02h.195l.195.02h.45l.605-.02.254.02h1.719l-.02.137-.059.117-.058-.02v-.058h-7.363l.117.195.156.234.04.078h.038l.098.176.137.137.136.02v.038h-.234l-.156-.175-.508-.782-.02-.078.157-.02.312-.019zM16.348 26.68h.43l.488.078.41.176.215.136.195.176.195.274.117.234.118.39.02.235.038.137v.703l-.02.136-.019.02-.02.254-.038.098-.04.156-.097.254-.235.332-.195.195-.273.176-.352.137-.312.058h-.508v-.02l.508-.097.41-.098.234-.097.195-.117.176-.157.137-.176.078-.117.117-.234.04-.117.019-.098.058-.254.04-.332.02-.312v-.274l-.06-.195-.058-.313-.117-.351-.117-.195-.157-.176v-.04l-.078-.038-.156-.137-.215-.117-.371-.098-.332-.04h-.723l-.41.08-.371.136-.195.137-.098.097-.059.098-.117.156-.156.371-.059.195-.058.313-.02.508.02.312.02.04.038.292.04.196.097.312.156.254.215.234.39.235.255.078.332.058.254.06.02.038h-.333l-.293-.058-.351-.118-.215-.136-.254-.215-.137-.195-.156-.293-.078-.215-.059-.235-.058-.41v-.742l.039-.078.039-.313.117-.312.137-.274.175-.214.176-.176.293-.176.293-.117.332-.04.02-.019.254-.02zM5.742 26.758h.918l.078.039.215.488.176.43.215.488.215.547.175.39.235.567.215.508.273.644.02.118H7.402l-.117-.196-.234-.488-.02-.04h-1.66l-.254.548-.078.156-.02.02H3.985l-.02-.04.196-.449.117-.293.059-.156.078-.176.215-.508.293-.683.312-.762.352-.84.117-.273.04-.04zm.723.039l-.625.02-.098.097-.058.137-.059.156-.078.137-.04.117-.194.488-.098.235-.078.156-.098.273-.117.293-.098.235-.195.43-.078.214-.098.254-.117.234-.176.41-.02.079h-.038l.039.097.039.04h.547l.214-.04.079-.117.156-.312.097-.157.098-.058 1.055-.02h.293l.312.02.098.078.098.156.156.332.078.078.215.04H8.3l.039-.04v-.117l-.137-.293-.156-.37-.137-.294-.117-.312-.098-.215-.117-.293-.195-.45-.059-.175-.078-.176-.156-.332-.098-.234-.117-.313-.176-.351-.039-.098-.078-.04h-.117zM23.516 26.758h2.422l.41.058.254.098.214.156.176.196.137.195v.215l-.059-.04-.058-.155-.117-.196-.215-.215-.215-.117-.215-.058-.313-.04-1.523-.039h-.312l-.45.02-.058.078v3.945l.117.02.684.02.878-.02h.47l.175-.02.332-.039.098-.02.175-.058.235-.137.215-.214.117-.274.039-.02v.118l-.156.312-.117.137-.196.137-.351.117-.098.039-.41.02h-2.324l-.02-.02v-4.102l.02-.078.039-.02zM28.945 26.758h.957l.098.156.332.8.176.411.117.254.156.39.332.782.137.312.234.567.215.508-.02.039h-1.073l-.196-.372-.156-.312v-.059l.078.04.078.117.078.215.098.175.02.059.37.039h.528l.02-.098-.118-.254-.117-.293-.234-.527-.117-.293-.137-.312-.098-.254-.176-.391-.058-.176-.098-.234-.156-.332-.137-.332-.098-.254-.117-.235-.058-.038-.703-.02-.137.02-.02.097-.078.156-.039.118h-.039l-.02.097-.078.215-.078.195-.058.137-.235.586-.175.43-.157.39-.078.157-.176.41-.156.39-.098.196-.058.195-.04.078h-.038l.02.137.038.039.567.02.175-.06.079-.077.117-.196.137-.312.078-.02-.02.118-.293.585-.039.04h-1.015l-.02-.04.293-.703.117-.293.137-.312.195-.45.235-.566.293-.703.273-.664.098-.215.078-.195.058-.078zM12.012 16.914l.02.059-.02.097v.274l.078.195.156.195.508.508.156.137.235.215.136.156.196.176.742.742.039.02v.039l.078.039.684.683.156.137.644.645.157.136.8.801.157.137.742.742.156.137.39.39.04.02v.039l.078.039.605.605.04.02v.039l.078.039.351.352.195.117.118.039h.468l-.078.039-.332.02v.019h-.137l-.175-.078-.176-.137-.195-.176-.215-.215-.157-.136-.605-.606-.156-.136-.196-.215-.156-.137-.39-.39-.176-.137-.137-.157v-.039l-.078-.039-.04-.078-.116-.058v-.04l-.078-.039-.743-.742-.097-.078-.098-.098v-.039h-.039v-.039l-.078-.039-.04-.078-.077-.039-.117-.137-.157-.136-.156-.157-.098-.078-.136-.156-.137-.137-.156-.136-.118-.098-.136-.156-.098-.078-.098-.118-.156-.136-.39-.391-.313-.293-.312-.312-.059-.04v-.039l-.059-.02v-.038l-.058-.02v-.039l-.078-.039-.47-.469-.155-.234-.059-.078v-.332l.04-.02.058-.195zM27.871 17.344l.059.058-.02.137-.098.176-.097.117h-.04l-.038.078-.215.215-.156.137-.567.566-.156.137-.625.625-.156.137-.313.312h-.039l-.039.078-.234.215-.254.254h-.04v.039l-.155.137-.254.234-.489.488h-.039l-.02.059h-.038l-.04.078-.488.488h-.039v.04l-.156.136-.02.04h-.039l-.02.058-.097.078-.078.098-.098.078-.097.097-.098.04-.039.078-.078.039-.04.078-.097.117-.156.137-.078.097-.156.117-.137.157-.156.136-.391.391h-.04l-.019.059-.058.058h-.04l-.019.059-.058.058h-.04l-.019.06h-.039l-.02.058h-.039l-.02.058h-.038v.04l-.059.058h-.039v.039h-.039v.039l-.215.117-.078.02.098-.137.156-.137.215-.215h.039v-.039l.098-.078.039-.058h.039v-.04l.156-.136.488-.488h.04l.019-.059.156-.137.586-.586.156-.136.567-.567.156-.136.039-.06h.039v-.038l.156-.137.528-.527.156-.137.293-.293h.039v-.039l.078-.078h.04v-.04l.155-.136.43-.43h.04l.038-.078.078-.039v-.039l.157-.137.156-.156.156-.136.547-.547.156-.137.39-.39h.04l.02-.06.097-.097.195-.176.313-.312.098-.137.058-.195zM38.79 26.758h1.132l-.04.078-.214.273-.176.215-.215.274-.234.273-.234.313-.235.273-.176.215-.097.117.02.098.175.195.176.234.39.508.254.313.391.508.215.273.02.059H38.71l-.137-.157-.293-.39-.254-.332-.175-.235-.215-.273-.235-.313-.097-.156.097.04.04.019v.039l.058.02.137.195.117.136.078.137.137.137.156.215.117.175.117.137.137.176.117.176.078.097.157.078h.879v-.117l-.059-.02-.254-.35-.176-.216-.156-.195-.137-.176-.078-.097-.117-.157-.195-.254-.117-.136-.118-.157-.097-.117v-.156l.02-.059h.038l.04-.078.175-.215.156-.195.176-.234h.04l.038-.078.137-.137.117-.176.137-.137.059-.097.097-.117h.04l.038-.079.078-.117.098-.175h-.664l-.234.019-.157.137-.136.195-.176.195-.02.059-.097.098-.117.136-.02.059h-.04l-.038.078-.215.234-.215.274-.039.058H37.5v.04l-.156.097.039-.098.195-.234.215-.273.234-.274.43-.547.156-.195.098-.117.078-.04zM28.3 17.695l.02.059-.136.215-.293.312-.157.137-.468.469-.157.136-.39.391-.157.137-.742.742-.156.137-.254.254-.156.136-.469.47-.156.136-1.016 1.015-.156.137-.45.45-.155.136-.43.43-.156.136-.743.743-.156.136-.332.332-.156.137-.195.176-.118.078-.156.059h-.156v-.04h.058l.02-.038.313-.176.175-.157h.04v-.039l.097-.039.02-.058h.039l.02-.059.097-.078.39-.39.157-.137.078-.098.156-.137.938-.937h.039l.02-.059.214-.176.684-.683h.039l.02-.059h.038l.02-.058.156-.137.02-.04h.039l.02-.058.155-.136.137-.137.098-.078.097-.117.098-.079.293-.293h.04l.019-.058.175-.137.02-.039h.039l.04-.078.194-.195.02-.04h.039v-.038l.215-.176.117-.137h.04l.019-.059h.039l.02-.058h.038v-.04l.157-.136.175-.176h.04l.019-.058.058-.059h.04l.02-.059.214-.175.039-.059h.04l.019-.058h.039v-.04l.097-.058.04-.078.117-.098h.039l.039-.078.117-.098.098-.097.097-.118.156-.136.04-.059h.039l.02-.058.097-.079.02-.039h.038l.04-.078.097-.078.04-.098.097-.078zM19.082 26.758h1.113l.117.098.254.468.176.313.235.41.488.879.234.43.04.097-.06-.02-.175-.234-.176-.332-.098-.137-.156-.312-.117-.195-.176-.332-.039-.04-.058-.136-.235-.39-.156-.313-.078-.117-.117-.079-.547.02h-.293l-.117.039v.41l.02.703v1.114l-.02.605v.605l-.02.508h.04v.04h.058v.038h.683l.078-.058.02-.156-.02-.274v-.39l-.02-.391-.019-1.29.02-.116.039-.078.04.117.038 2.148v.547l-.02.02h-.976l-.02-.04v-.156l-.019-.117.02-.137v-3.71l.019-.06z" fill="#1C6CAF"/><path d="M16.445 27.441h.215l.254.059v.04l.137.019v.039h.078v.039l.078.02.137.116.136.274.098.332.02.098.02.39-.02.371-.078.39-.137.274-.078.098-.137.117-.156.078-.196.078-.253.04-.274-.04-.352-.117-.195-.156-.156-.254-.078-.215-.04-.175-.019-.04-.02-.39.02-.293.02-.313.058-.234.118-.234.175-.196.098-.058.215-.078.117-.06h.137l.058-.019zm-.156.118l-.234.078-.196.136-.117.157-.098.195-.078.332-.02.137v.508l.06.37.097.274.078.117.117.137.196.117.117.04.156.019h.352l.195-.04.176-.097.176-.156.136-.254.059-.235.039-.312v-.39l-.04-.372-.077-.254-.117-.214-.157-.157-.175-.078-.196-.058h-.449zM19.434 13.281h.703l.195.02v.02l-.293.038-.45.02-.136.02-.41.019-.371.059-.215.039-.371.058-.352.059-.468.117-.586.215-.098.02v.038l-.195.098-.098.059-.215.156-.078.078-.137.078-.273.274-.078.097-.098.098-.215.293-.156.273-.078.157-.059.214-.078.313-.039.703-.02.156h-.019l-.039-.273v-.45l.059-.35.097-.313.137-.313.117-.195.156-.215.235-.274.215-.214.214-.176.333-.235.312-.175.313-.157.39-.136.332-.098.527-.098.43-.058.86-.059zM.078 28.3l.04.06.019.136h.039l.137.313.117.136.215.137.195.078.117.04.215.019h1.21l.352.02.137.058.098.098.078.156.039.234-.098.215H2.95l-.039.078-.137.078-.195.059-.937.02-.586-.02-.078-.02-.43-.02-.195.02-.04.098-.019.039-.02.332-.02.098H.235v-.45l-.058-.019.02-.137.038-.058 2.422-.02.196-.078.078-.098.02-.039v-.293l-.079-.156-.058-.039-.137-.02-1.543-.02-.02-.019-.273-.039-.195-.078-.137-.078-.196-.176-.136-.195-.078-.156-.02-.117V28.3zM21.758 26.758h.957l.039.02v4.16l-.059.039H21.68l-.078-.079-.176-.312-.215-.39-.313-.548-.253-.449-.293-.527-.235-.41.02-.078.097.097.157.293.078.156v.04h.039l.234.39.078.156v.059h.04l.136.273.215.352.059.098.039.097.117.196.097.195.157.234.175.059h.743l.058-.078.02-.547v-2.442l.02-.703-.02-.175-.059-.098-.039-.02h-.644l-.098.079-.02.039-.02.195-.038-.02v-.351zM35.04 26.777h.78v4.18l-.02.02h-1.073l-.118-.196-.234-.41-.293-.527-.176-.293-.234-.43-.508-.898.02-.078.078.117.058.058.059.117.059.079.117.215.156.253.234.43.02.098h.039l.117.215.156.273.157.254.156.312.097.157.06.097.136.059.644.02.157-.04.058-.078V27.52l.02-.567-.02-.117-.039-.02h-.664v-.039zM36.29 26.777h.82v.02l-.157.02-.488.019-.078.078-.02.098v.37l.02.333v3.125l.078.039.195.02h.41l.098-.04.039-.078v-.449l.02-.605h.02l.038 1.074.02.078-.059.098h-.957l-.02-.02v-4.121l.02-.059zM19.863 14.316H20l.176.079.273.195.195.156.176.137.117.195v.098l-.058-.02-.078-.117V15l-.078-.04-.176-.155-.176-.137-.234-.176-.137-.058h-.195l-.098.058-.293.156-.195.118-.157.117-.156.137h-.039v.039l-.137.078-.039.058h-.039l-.02.078.04.02.02.078.273.02.039.058v.293l-.078.117-.313.137-.175.098-.176.234-.098.098-.117.078-.274.098-.195.136-.176.196-.039.078-.039.02-.02.077-.058.04h-.117l.02-.098.136-.137.176-.215.156-.156.215-.117.234-.078.098-.078.137-.215.097-.078.235-.118.195-.078.078-.078.02-.039-.02-.254h-.488l-.04-.039.02-.098.176-.136.254-.215.332-.235.195-.136.274-.156.234-.079zM32.129 26.777h1.055v.02l-.157.02h-.683l-.098.038-.02.06v.644l.04.136v3.086l.058.098.02.02.332.019-.04.039h-.488l-.02-.059v-4.12zM5.742 26.758h.918l.078.039.215.488.176.43.215.488.215.547.175.39.235.567.215.508.273.644.02.118H7.402l-.117-.196-.234-.488-.02-.078.078.039.137.195.156.332.059.059.215.039H8.3l.02-.02v-.117l-.137-.293-.157-.37-.136-.294-.118-.312-.097-.215-.117-.293-.196-.45-.058-.175-.078-.176-.157-.332-.097-.234-.118-.313-.175-.351-.02-.079-.078-.039v-.039h-.84v-.02zM38.242 28.828l.059.02.136.175.176.215.196.254.254.332.253.313.391.508.215.273.02.059H38.71l-.137-.157-.293-.39-.254-.332-.175-.235-.215-.273-.235-.313-.097-.156.097.04.04.019v.039l.058.02.137.195.117.136.078.137.137.137.156.215.117.175.117.137.137.176.117.176.078.097.157.078h.879v-.117l-.059-.02-.254-.35-.176-.216-.156-.195-.137-.176-.078-.097-.117-.157-.195-.254-.117-.136-.118-.157-.097-.117.02-.078z" fill="#1C6CAF"/><path d="M14.766 17.07l.078.04.117.41.137.293.136.214.157.215.195.176.039.098.137.136.175.117.02.06.078.038.137.137.176.117v.04l.058.019v.039h.059v.039l.098.039.078.039.058.059.137.078.195.117.332.156.059.059.234.097.157.078.312.118.45.136h.214l-.02.078-.058.06-.176-.02-.41-.137-.293-.117-.156-.078-.313-.137-.43-.235-.253-.156-.39-.273-.216-.176-.195-.176-.254-.234-.254-.274-.176-.234-.195-.332-.117-.254-.098-.293-.02-.176zM20.918 18.652h.02l-.02.176-.254.723-.39 1.133-.255.703-.097.175-.117.098-.098.02h-1.016l-.02-.098.079-.215.078.078v.078l.04.02.78.02.137-.04.078-.097.098-.215.078-.195.059-.137.097-.215.04-.02-.02-.078.078-.312.117-.313.078-.214.059-.176.137-.313.039-.175.078-.235.058-.098h.04l.019-.078zM8.672 26.758h.996v.02l-.527.019-.059.02-.293.019-.039.059-.02.273.02 1.094v.664l.02.527v1.348l.058.058.235.078v.02h-.391l-.04-.176-.019-.097.04-.137v-3.203l-.02-.098.02-.039.019-.45zM23.379 18.672l.098.058-.02.176h-.02l-.019-.097-.098.078-.078.02-.176.116-.195.118-.351.156-.196.098h-.058l-.02.039-.273.136-.43.137-.234.059-.196.039-.254.039-.058.039-.02.058-.02.293-.019.04h-.039l-.039.078v-.254l.02-.274.097-.097.684-.137.43-.137.39-.156.371-.176.41-.234.196-.117.117-.098zM25.04 29.219h.8l.176.078.097.078.059.117.02.117v.254l-.098.196h-.04v.039l-.195.097-.078.02-.527.02h-.371l-.215-.02-.215-.059v-.039l1.211-.02.254-.058.098-.078.058-.117v-.274l-.078-.156-.117-.059v-.039l-1.074-.02-.04-.038.02-.02.254-.02zM1.23 26.758h2.54l.058.117v.684l-.058.097H2.227l-.762-.02v-.019l.351-.039.391-.02h1.309l.195-.019.02-.254v-.273l-.04-.137-.078-.059h-.097v-.039H1.23v-.02zM20.918 15.215h.02l.019.527.215.078.879.274.644.215.157.117.136.215.059.058.371.059v.02l-.195.038-.176-.02-.117-.077-.117-.157-.157-.117-.175-.078-.489-.156-.215-.078-.332-.098-.39-.117-.196-.098-.039-.097.02-.118.039-.117h.02l.019-.273z" fill="#1C6CAF"/><path d="M19.531 18.672h.078l.02.058v.137l-.137.469-.137.41-.058.137-.098.332-.078.215-.137.43-.058.195-.078.195-.04.078-.097.02.039-.176.332-.996.195-.625.274-.82-.176-.02v-.02l.156-.02zM34.844 26.758h.937v.02l-.742.019-.117.058-.02.079v.507l.02.957v.254l.039.371-.02.254-.078.157-.078-.04-.058-.117.097-.02-.02-1.464-.019-.02v-.957l.059-.058zM11.309 28.262h.02v.273l-.02.156v.45l.058.41.078.195.157.176.175.098.215.039.02.02 1.054.019-.039.078-.175.039-.293.02h-.332l-.352-.06-.234-.116-.196-.176-.117-.215-.058-.117-.04-.352-.02-.117v-.469l.06-.156.039-.195zM13.828 26.777h.215l.039.117v.587l-.039.136h-2.129l.059-.039.156-.039.215-.02h1.289l.254.02.039-.02.039-.175v-.332l-.02-.176-.117-.02v-.039zM18.945 15.39l.059.06v.292l-.078.117-.313.137-.175.098-.176.234-.098.098-.117.078-.274.098-.195.136-.176.196-.039.078-.039.02-.02.077-.058.04h-.117l.02-.098.136-.137.176-.215.156-.156.215-.117.234-.078.098-.078.137-.215.097-.078.235-.118.195-.078.078-.078.02-.039.02-.273zM19.082 26.758h1.113l.117.098.254.468.176.313.235.41.488.879.234.43.04.097-.06-.02-.175-.234-.176-.332-.098-.137-.156-.312-.117-.195-.176-.332-.039-.04-.058-.136-.235-.39-.156-.313-.078-.117-.117-.079v-.039h-1.016v-.02zM25.586 27.598h.176l.195.02.078.038v.04l.059.019.097.195.02.078v.137l-.059.137-.136.156-.137.098-.235.039h-.84l-.273-.04-.078-.019v-.058l1.348-.02.156-.059.117-.136.02-.059v-.254l-.059-.117-.098-.078-.195-.059-.996-.02v-.019l.84-.02zM19.902 16.426h.137l.078.039.02.117h.039l.02.176.019.254.215.058h2.09l.253.02.059.039-.176.02-2.129.019-.273.02-.098-.04-.039-.039-.02-.156-.019-.45-.234-.019.058-.058zM1.172 26.777h2.344l-.04.04-1.074.019-.664.02-.215.019-.41.02-.293.078-.234.097-.156.117-.02.04H.371l-.039.078-.117.195-.059.176-.058.137-.02-.06.04-.233.136-.254.137-.176.214-.156.313-.118.254-.039zM21.055 13.418l.195.02.723.175.703.215.644.215.117.098.04.097v.43l-.02.195h-.02l-.019-.547-.04-.097-.058-.02v-.039l-.078-.02-.137-.078-.117-.039-.156-.02v-.038l-.234-.04-.176-.038-.176-.059-.195-.058-.352-.118-.078-.02-.117-.038h-.098l-.156-.059-.117-.039-.02-.039-.058-.039zM33.105 28.145h.04l.117.234h-.117v.996l.02.02v.117l-.02.02-.02.331h.04V30l-.02.02v.37l.02.02v.488l-.04.059h-.41l.078-.039.215-.02v-.039h.039l.02-.136-.02-.196-.02-1.113v-.586l.059-.058.02-.625zM23.36 19.336h.019v.156l-.059.156-.175.157-.293.156-.391.176-.43.156-.586.156-.195.04-.176-.02.059-.059.195-.058.313-.079.488-.136.312-.117.098-.04h.059v-.039l.332-.156.215-.117.078-.098.117-.039.02-.195z" fill="#1C6CAF"/><path d="M32.148 26.758h1.153l.117.176.195.351.274.488.234.41.254.47.195.331.196.352.02.059-.06-.02v-.04l-.078-.038-.175-.293-.215-.371-.156-.274-.157-.312-.293-.527-.156-.274-.176-.312-.097-.098-.04-.02v-.039h-1.035v-.02zM23.516 26.758h2.422l.41.058.254.098.214.156.176.196.137.195v.215l-.059-.04-.058-.155-.117-.196-.215-.215-.215-.117-.215-.058-.313-.04-1.386-.039v-.039h-1.035v-.02zM6.152 28.086l.059.02.059.156-.02.058-.02-.039h-.078l-.215.664-.156.489-.02.097.079-.02h.625l.137-.019-.02-.156-.293-.879.02-.078.312.937.078.196v.039h-.996l-.039-.078v-.117l.078-.176.059-.215.058-.176.118-.371.058-.195.078-.117.04-.02zM20.918 18.652h.02l-.02.176-.254.723-.39 1.133-.04.039v-.117l-.02-.04.079-.312.117-.313.078-.214.059-.176.137-.313.039-.175.078-.235.058-.098h.04l.019-.078zM21.777 27.148h.02l.02.332.019.118.02.527.019.117v.781l-.02.254-.058.059-.02-.41-.02-.098v-1.66l.02-.02zM29.375 28.066l.059.059.039.098.058.039.098.254.078.215.137.488.039.078v.254h-.977l.059-.195.039-.06-.02.196.254.02.625.02-.273-.802-.156-.449-.098-.02-.02.098-.02-.058.06-.215.019-.02z" fill="#1C6CAF"/><path d="M29.316 28.105h.02v.137l-.078.313-.235.742h-.039l-.02.117-.077.156h-.02v-.175l.098-.313.039-.156.117-.352.078-.254.059-.156.058-.059zM37.227 27.168h.02v.117l.058.02v.293l-.02.02v.273l.02.02v.331l-.04.176-.019.117-.039-.078-.039-.137v-.761l.02-.313.039-.078zM6.25 28.164l.04.02v.058h.038l.098.235.117.332.137.39.078.254-.02.098-.02-.04H6.68l-.176-.488-.195-.585v-.06h-.04l-.019-.214zM18.457 17.656h.098l.02.02h.683l.351-.02h.977l.039.02v.039h-2.54l-.038-.04.41-.019zM19.18 16.582h.02v.566h-.84l-.333-.02.04-.038.273-.02h.527l.195-.02.098-.097.02-.371z" fill="#1C6CAF"/><path d="M6.29 28.379l.038.058.293.88.078.195v.039h-.996l.02-.098.117-.332.02.078-.098.332.078-.02h.625l.137-.019-.02-.156-.293-.879v-.078zM23.496 17.656h.215l.254.02h1.719l-.079.039h-2.558l.058-.04.391-.019zM23.3 16.777h.177l.078.078.039.098v.156l-.04.04h-.156l-.058-.02v-.04h.058v-.038h.04l.019-.117-.098-.098-.058-.02v-.039zM21.758 26.758h.957v.02l-.45.038h-.331l-.098.079-.02.039-.02.195-.038-.02v-.351zM26.64 28.887l.098.039.157.117.117.137.117.215.02.078v.175l-.079-.097-.058-.195-.137-.215-.215-.196-.02-.058z" fill="#1C6CAF"/><path d="M5.703 29.55h.957l.04.04-.255.039h-.273l-.156-.02-.293-.02-.02-.038zM20.918 18.652h.02l-.02.176-.195.547-.04-.078.04-.235.078-.234.058-.098h.04l.019-.078zM27.11 28.164h.019v.137l-.156.273-.254.254-.098.02.02-.078h.039l.039-.079.097-.078h.059l.02-.078.117-.176.039-.117.058-.078zM11.758 27.656l.039.02-.195.137-.137.156-.098.215h-.039l-.02-.118.06-.097.077-.157.117-.097.196-.059zM17.305 27.91l.058.059.078.175.059.235.02.137v.683l-.06.313-.038.117-.02-.078.059-.313.02-.156v-.39l-.04-.372-.078-.254-.058-.117v-.039zM29.023 29.55h.88l-.06.06-.136.019-.762-.04.078-.038zM37.266 27.285l.039.02v.293l-.02.02v.273l.02.02v.331l-.04.156h-.019v-.878l.02-.235zM36.328 26.758h.918l.04.02v.117l-.04.117-.059-.059-.039-.098-.039-.02v-.058h-.78v-.02z" fill="#1C6CAF"/><path d="M28.984 29.297l.02.078-.02.117.254.02.625.02-.058-.157.02-.059.058.157v.078h-.977l.059-.195.02-.06zM14.766 17.07l.078.04.097.35v.177l-.039-.04-.117-.35-.02-.177zM20.02 28.145l.078.039.058.136h-.078l-.02.977h-.019l-.02-1.152zM25.488 18.027l.04.02-.04.117-.117.176-.137-.02.118-.156.136-.137zM33.105 28.145h.04l.117.234h-.117l-.02.566h-.02v-.8zM22.168 17.656h.293l.195.02h.371v.039h-1.074v-.02l.176-.02.039-.019zM13.066 29.355l.04.04.019.332v.293l-.059.058v-.723zM35.04 26.777h.76v.313l-.038-.059-.02-.195-.039-.02h-.664v-.039zM37.227 29.727h.02l.019.546v.274l-.02.156h-.02l-.019-.098v-.273l.02-.605zM20.684 20.137h.02l.038.293.059.02.02.058-.06.039h-.097l-.02-.02v-.175h.04v-.215zM27.871 16.934l.078.02.02.058v.351l-.059.059-.02-.078.02-.157-.039-.253zM20.195 24.883l.059.02-.098.058-.175.039-.157-.02-.058-.058.351-.02.078-.02zM6.152 28.086l.059.02.059.156-.02.058-.02-.039h-.078l-.097.293-.02-.078.078-.234.04-.176zM20.41 13.32l.274.02.234.039v.02h-.234l-.059.019-.195-.02-.04-.02.02-.058zM9.648 30.703h.02l.02.098v.137l-.02.019h-.293v-.039l.234-.04v-.038h.04v-.137zM33.086 28.945h.039l.02.43.02.02v.117l-.02.02-.02.331h-.02l-.02-.918zM33.066 28.164h.02v.605l-.04-.058-.019-.215.02-.273.02-.059zM22.07 18.457h.39l.02.04-.097.019h-.469l.078-.04.078-.019zM22.578 26.777h.156v.352l-.039-.02-.02-.175-.058-.098-.039-.02v-.039zM29.375 28.066l.059.059.039.195-.059-.058h-.078l-.02.097-.02-.058.06-.215.019-.02zM21.21 17.656l.372.02.04.039h-.548v-.02l.137-.039z" fill="#1C6CAF"/><path d="M20.684 13.379l.351.02.098.058-.04.02-.35-.04-.06-.019v-.04zM9.14 26.777h.547v.117l-.078-.038-.039-.04h-.43v-.039zM20.898 15.176h.04l-.02.527h-.02l-.039-.351v-.137l.04-.04zM19.395 18.652h.234l-.04.04-.155.019h-.45v-.02l.41-.039zM17.617 16.543l.04.02-.137.156-.137.136-.04-.02.216-.233.058-.059zM21.64 29.258h.137l.02.176-.078-.02-.078-.117v-.04zM34.824 29.258l.04.058.019.098h-.078l-.078-.137.097-.02zM37.266 29.121l.078.04.058.116h-.136v-.156zM21.777 27.148h.02l.02.313h-.04l-.02.039v-.332l.02-.02zM20.137 13.32h.273l-.039.059-.234-.02v-.039zM37.266 28.398h.117l-.059.098h-.078l.02-.098z" fill="#1C6CAF"/></svg>