<svg viewBox="0 0 24 24" xmlns="http://www.w3.org/2000/svg">
    <rect width="24" height="24" fill="#1D8E33" />
    <path transform="translate(-0.952637)"
        d="M16.6125 15.9602C16.2525 15.7202 15.8325 15.6002 15.4125 15.6002C14.9925 15.6002 14.5725 15.7202 14.2125 15.9602C13.7925 16.2002 13.3725 16.3202 12.8925 16.3202C12.4725 16.3202 12.0525 16.2002 11.6925 15.9602C11.2725 15.7202 10.8525 15.6002 10.3725 15.6002C9.95248 15.6002 9.53248 15.7202 9.17248 15.9602C8.75248 16.2002 8.33248 16.3202 7.85248 16.3202H7.79248C7.79248 16.3202 7.91248 16.4402 7.97248 16.5002C8.45248 16.5002 8.87248 16.3202 9.29248 16.1402C9.65248 15.9602 10.0125 15.8402 10.4325 15.8402C10.8525 15.8402 11.2725 15.9602 11.6925 16.2002C12.0525 16.4402 12.5325 16.5602 12.9525 16.5602C13.4325 16.5602 13.9125 16.4402 14.3325 16.2002C14.6925 16.0202 15.0525 15.9002 15.4725 15.9002C15.8925 15.9002 16.2525 16.0202 16.6125 16.2002C17.0325 16.4402 17.5125 16.5602 17.9925 16.5602C17.9925 16.5602 18.1125 16.4402 18.1725 16.3802C18.1725 16.3802 18.0525 16.3802 17.9925 16.3802C17.5125 16.3802 17.0925 16.2602 16.7325 16.0202"
        fill="white" />
    <path transform="translate(-0.952637)"
        d="M15.4138 15.9601C14.9938 15.9601 14.5738 16.0801 14.2138 16.3201C13.7938 16.5601 13.3738 16.6801 12.8938 16.6801C12.4738 16.6801 12.0538 16.5601 11.6938 16.3201C11.2738 16.0801 10.8538 15.9601 10.3738 15.9601C9.95375 15.9601 9.53375 16.0801 9.17375 16.3201C8.81375 16.5001 8.45375 16.6201 8.09375 16.6801C8.09375 16.7401 8.21375 16.8001 8.27375 16.8601C8.63375 16.8001 8.93375 16.6801 9.23375 16.5001C9.59375 16.3201 9.95375 16.2001 10.3738 16.2001C10.7938 16.2001 11.2137 16.3201 11.6337 16.5601C11.9937 16.8001 12.4738 16.9201 12.8938 16.9201C13.3738 16.9201 13.8538 16.8001 14.2738 16.5601C14.6338 16.3801 14.9938 16.2601 15.4138 16.2601C15.8338 16.2601 16.1938 16.3801 16.5538 16.6201C16.8538 16.8001 17.2138 16.9201 17.5738 16.9801C17.6338 16.9801 17.6938 16.8601 17.7538 16.8001C17.3338 16.8001 16.9738 16.6201 16.6738 16.4401C16.3138 16.2001 15.8938 16.0801 15.4138 16.0801"
        fill="white" />
    <path transform="translate(-0.952637)"
        d="M15.4131 16.3206C14.9931 16.3206 14.5731 16.4406 14.2131 16.6806C13.7931 16.9206 13.3731 17.0406 12.8931 17.0406C12.4731 17.0406 12.0531 16.9206 11.6931 16.6806C11.2731 16.4406 10.8531 16.3206 10.3731 16.3206C9.95307 16.3206 9.53307 16.4406 9.17307 16.6806C8.93307 16.8006 8.69307 16.9206 8.39307 16.9806C8.45307 16.9806 8.51307 17.1006 8.57307 17.1606C8.81307 17.1006 9.05307 16.9806 9.23307 16.9206C9.59307 16.7406 9.95307 16.6206 10.3731 16.6206C10.7931 16.6206 11.2131 16.7406 11.6331 16.9806C11.9931 17.2206 12.4731 17.3406 12.8931 17.3406C13.3731 17.3406 13.8531 17.2206 14.2731 16.9806C14.6331 16.8006 14.9931 16.6806 15.4131 16.6806C15.8331 16.6806 16.1931 16.8006 16.5531 16.9806C16.7931 17.1006 16.9731 17.2206 17.2731 17.2806C17.2731 17.2806 17.3931 17.1606 17.4531 17.1006C17.1531 17.0406 16.9131 16.9206 16.6731 16.8006C16.3131 16.5606 15.8931 16.5006 15.4131 16.4406"
        fill="white" />
    <path transform="translate(-0.952637)"
        d="M15.4129 16.6803C14.9929 16.6803 14.5729 16.8003 14.2129 17.0403C13.7929 17.2803 13.3729 17.4003 12.8929 17.4003C12.4729 17.4003 12.0529 17.2803 11.6929 17.0403C11.2729 16.8003 10.8529 16.6803 10.3729 16.6803C9.95293 16.6803 9.53293 16.8003 9.17293 17.0403C9.05293 17.1003 8.87293 17.1603 8.75293 17.2203L8.93293 17.3403C9.05293 17.3403 9.17293 17.2203 9.29293 17.2203C9.65293 17.0403 10.0129 16.9203 10.4329 16.9203C10.8529 16.9203 11.2729 17.0403 11.6929 17.2803C12.0529 17.5203 12.5329 17.6403 12.9529 17.6403C13.4329 17.6403 13.9129 17.5203 14.3329 17.2803C14.6929 17.1003 15.0529 16.9803 15.4729 16.9803C15.8929 16.9803 16.2529 17.1003 16.6129 17.3403C16.7329 17.4003 16.8529 17.4603 16.9729 17.5203L17.1529 17.4003C16.9729 17.4003 16.8529 17.2803 16.6729 17.2203C16.3129 16.9803 15.8929 16.8603 15.4129 16.8603"
        fill="white" />
    <path transform="translate(-0.952637)"
        d="M15.4137 17.1001C14.9937 17.1001 14.5737 17.2201 14.2137 17.4601C13.7937 17.7001 13.3737 17.8201 12.8937 17.8201C12.4737 17.8201 12.0537 17.7001 11.6937 17.4601C11.2737 17.2201 10.8537 17.1001 10.3737 17.1001C9.95371 17.1001 9.53371 17.2201 9.17371 17.4601C9.17371 17.4601 9.11371 17.4601 9.05371 17.4601C9.05371 17.4601 9.17371 17.5201 9.23371 17.5801C9.59371 17.4001 9.95371 17.2801 10.3737 17.2801C10.7937 17.2801 11.2137 17.4001 11.6337 17.6401C11.9937 17.8801 12.4737 18.0001 12.8937 18.0001C13.3737 18.0001 13.8537 17.8801 14.2737 17.6401C14.6337 17.4601 14.9937 17.3401 15.4137 17.3401C15.8337 17.3401 16.1937 17.4601 16.5537 17.7001C16.5537 17.7001 16.6737 17.6401 16.7337 17.5801C16.7337 17.5801 16.6137 17.5801 16.6137 17.5201C16.2537 17.2801 15.8337 17.1601 15.3537 17.1601"
        fill="white" />
    <path transform="translate(-0.952637)"
        d="M14.214 17.8203C13.794 18.0603 13.374 18.1803 12.894 18.1803C12.474 18.1803 12.054 18.0603 11.694 17.8203C11.274 17.5803 10.854 17.4603 10.374 17.4603C10.014 17.4603 9.654 17.5803 9.354 17.7003C9.414 17.7003 9.474 17.7603 9.534 17.8203C9.774 17.7003 10.074 17.6403 10.314 17.6403C10.734 17.6403 11.154 17.7603 11.574 18.0003C11.934 18.2403 12.414 18.3603 12.834 18.3603C13.314 18.3603 13.794 18.2403 14.214 18.0003C14.574 17.8203 14.934 17.7003 15.354 17.7003C15.654 17.7003 15.954 17.7003 16.194 17.8803C16.254 17.8803 16.314 17.8203 16.374 17.7603C16.074 17.5803 15.714 17.5203 15.354 17.5203C14.934 17.5203 14.514 17.6403 14.154 17.8803"
        fill="white" />
    <path transform="translate(-0.952637)"
        d="M12.8932 4.20032C8.5132 4.20032 5.0332 7.74032 5.0332 12.0603C5.0332 16.3803 8.5732 19.9203 12.8932 19.9203C17.2132 19.9203 20.7532 16.3803 20.7532 12.0603C20.7532 7.68032 17.2132 4.20032 12.8932 4.20032ZM12.8932 18.7203C9.2332 18.7203 6.2932 15.7203 6.2932 12.0603C6.2932 8.40032 9.2932 5.46032 12.9532 5.46032C16.6132 5.46032 19.5532 8.40032 19.5532 12.0603C19.5532 15.7203 16.6132 18.7203 12.8932 18.7203Z"
        fill="white" />
    <path transform="translate(-0.952637)"
        d="M16.613 10.1405C16.553 10.3805 16.373 10.6205 16.193 10.7405C15.893 10.9805 13.853 12.2405 13.613 12.5405C13.433 12.8405 13.313 13.2005 13.313 13.5605V15.9605H13.613V15.3605C13.613 15.0605 13.793 14.7605 13.973 14.5805C14.633 14.0405 15.293 13.5605 16.013 13.1405C16.433 12.7805 16.613 12.3005 16.553 11.7605V10.1405H16.613Z"
        fill="white" />
    <path transform="translate(-0.952637)"
        d="M13.3134 12.4207C13.5534 12.1207 15.6534 10.8607 15.9534 10.6207C16.3134 10.3807 16.5534 9.9607 16.6134 9.5407V6.8407C16.6134 7.2007 16.4334 7.5607 16.1334 7.8607C15.8334 8.2807 14.3934 9.0607 13.7334 9.5407C13.1334 9.8407 12.7734 10.4407 12.7734 11.1007V16.0207H13.0734V13.4407C13.0734 13.0807 13.0734 12.7207 13.3134 12.4207Z"
        fill="white" />
    <path transform="translate(-0.952637)"
        d="M11.6943 9.60033C11.0343 9.12033 9.77426 8.04033 9.59426 7.86033C9.29426 7.56033 9.17426 7.20033 9.11426 6.84033V9.36033C9.11426 9.96033 9.41426 10.5003 9.89426 10.8003C10.4943 11.2803 11.3943 11.8803 11.6343 12.1803C11.9943 12.5403 12.1743 13.0803 12.1143 13.6203V16.0203H12.4143V11.2203C12.5343 10.5603 12.2343 9.96033 11.6343 9.60033H11.6943Z"
        fill="white" />
</svg>