<svg viewBox="0 0 40 40" xmlns="http://www.w3.org/2000/svg"><path fill-rule="evenodd" clip-rule="evenodd" d="M14.397 1.489c-2.806.564-3.842 1.845-3.736 3.674.137 2.577 2.973 7.487 4.33 9.667 2.364 3.827 5.17 7.273 8.28 10.46 2.515 2.485 4.1 3.033 6.8-.641 2.302-3.034 4.421-6.038 6.236-9.804a43.035 43.035 0 002.195-5.474c.702-2.363.458-4.452-1.86-5.976 2.226 1.082 3.202 3.08 3.34 5.29.136 2.135-.504 4.452-.992 6.16-1.204 4.254-2.76 8.538-4.727 12.396-1.478 2.912-3.37 6.419-5.26 9.01-4.177 5.749-8.172 3.889-12.868 0-2.973-2.47-5.84-5.58-8.294-8.995-2.486-3.43-5.215-8.523-6.831-12.441C-1.2 9.463.522 6.718 3.25 4.98c3.004-1.906 7.502-2.988 11.146-3.491z" fill="url(#prefix__vcb_vnd_paint0_linear)"/><path fill-rule="evenodd" clip-rule="evenodd" d="M14.29 13.702c4.345-.656 15.643-1.357 19.608.701 1.326.686 1.357 1.616 1.235 2.668.396-.716.777-1.463 1.158-2.226a43.049 43.049 0 002.196-5.473c.701-2.364.457-4.453-1.86-5.977-.854-.458-1.845-.778-2.73-1.037-2.607-.762-5.503-1.067-8.416-1.28C24.277.985 23.026 1 21.746 1c-2.302 0-4.833.152-7.35.488-2.805.564-3.841 1.845-3.735 3.674.122 2.196 2.196 6.084 3.644 8.539h-.015z" fill="url(#prefix__vcb_vnd_paint1_linear)"/><defs><linearGradient id="prefix__vcb_vnd_paint0_linear" x1="35.117" y1="25.96" x2="3.221" y2="3.623" gradientUnits="userSpaceOnUse"><stop stop-color="#006840"/><stop offset=".4" stop-color="#007A48"/><stop offset="1" stop-color="#86C440"/></linearGradient><linearGradient id="prefix__vcb_vnd_paint1_linear" x1="15.113" y1="1.291" x2="33.989" y2="14.51" gradientUnits="userSpaceOnUse"><stop stop-color="#006840"/><stop offset=".3" stop-color="#007A48"/><stop offset="1" stop-color="#86C440"/></linearGradient></defs></svg>