<svg viewBox="0 0 965 965" xmlns="http://www.w3.org/2000/svg">
    <path transform="translate(0,191)"
        d="M774.765 145.791C739.523 145.261 704.815 154.512 674.434 172.533C668.864 123.184 644.79 77.8528 607.146 45.8306C569.503 13.8084 521.141 -2.4791 471.973 0.30642C422.806 3.09194 376.556 24.7395 342.705 60.8121C308.854 96.8847 289.965 144.65 289.909 194.318V342.109L289.115 388.899C289.093 414.24 279.217 438.56 261.609 456.636C244 474.712 220.065 485.101 194.945 485.572C182.084 485.632 169.339 483.124 157.444 478.193C145.548 473.262 134.738 466.006 125.636 456.842C116.534 447.678 109.32 436.788 104.41 424.799C99.4996 412.811 96.9905 399.961 97.0269 386.989V242.852C97.0211 236.472 95.7696 230.157 93.3437 224.265C90.9179 218.374 87.3652 213.022 82.8886 208.515C78.412 204.008 73.0992 200.435 67.2533 197.999C61.4075 195.563 55.1432 194.312 48.8182 194.318C42.4931 194.312 36.2288 195.563 30.383 197.999C24.5372 200.435 19.2243 204.008 14.7477 208.515C10.2711 213.022 6.71841 218.373 4.29255 224.265C1.8667 230.157 0.615171 236.472 0.609394 242.852V385.684C0.586656 437.88 21.1135 487.949 57.6782 524.887C94.2429 561.825 143.853 582.608 195.605 582.669C246.339 582.149 294.823 561.47 330.534 525.121C366.245 488.771 386.302 439.683 386.351 388.511V196.236C386.315 183.211 388.834 170.308 393.764 158.27C398.695 146.232 405.938 135.297 415.077 126.095C424.217 116.893 435.072 109.607 447.016 104.655C458.96 99.704 471.758 97.1856 484.671 97.2454C509.896 97.7176 533.931 108.15 551.612 126.3C569.293 144.451 579.211 168.873 579.233 194.318V437.045C579.239 443.426 580.491 449.743 582.917 455.636C585.344 461.529 588.897 466.882 593.375 471.39C597.853 475.898 603.167 479.472 609.014 481.908C614.861 484.345 621.127 485.596 627.454 485.59C633.78 485.596 640.046 484.345 645.893 481.908C651.741 479.472 657.055 475.898 661.532 471.39C666.01 466.882 669.564 461.529 671.99 455.636C674.417 449.743 675.669 443.426 675.674 437.045V341.872C675.638 328.847 678.157 315.943 683.088 303.905C688.018 291.867 695.262 280.932 704.402 271.73C713.541 262.528 724.396 255.242 736.341 250.291C748.286 245.34 761.084 242.822 773.997 242.882C799.221 243.354 823.255 253.786 840.936 271.937C858.617 290.088 868.534 314.509 868.557 339.954V534.135C868.568 547.021 873.655 559.376 882.699 568.48C891.742 577.584 904 582.692 916.778 582.68C929.555 582.692 941.814 577.584 950.857 568.48C959.9 559.376 964.987 547.021 964.999 534.135V342.377C965.183 290.995 945.346 241.597 909.763 204.826C874.18 168.055 825.699 146.854 774.765 145.791Z"
        fill="url(#paint0_linear_348_909)" />
    <defs>
        <linearGradient id="paint0_linear_348_909" x1="0.609394" y1="291.409" x2="964.999" y2="291.409"
            gradientUnits="userSpaceOnUse">
            <stop stop-color="#00DCDC" />
            <stop offset="0.5" stop-color="#8C73FF" />
            <stop offset="1" stop-color="#3C78FF" />
        </linearGradient>
    </defs>
</svg>