<svg viewBox="0 0 965 965" xmlns="http://www.w3.org/2000/svg"><path transform="translate(0 191)" d="M774.765 145.791c-35.242-.53-69.95 8.721-100.331 26.742-5.57-49.349-29.644-94.68-67.288-126.702C569.503 13.808 521.141-2.48 471.973.306c-49.167 2.786-95.417 24.433-129.268 60.506s-52.74 83.838-52.796 133.506v147.791l-.794 46.79c-.022 25.341-9.898 49.661-27.506 67.737-17.609 18.076-41.544 28.465-66.664 28.936a96.737 96.737 0 01-37.501-7.379 97.407 97.407 0 01-31.808-21.351 98.365 98.365 0 01-21.226-32.043 99.03 99.03 0 01-7.383-37.81V242.852a48.94 48.94 0 00-3.683-18.587 48.613 48.613 0 00-10.455-15.75 48.136 48.136 0 00-15.636-10.516 47.804 47.804 0 00-18.435-3.681 47.804 47.804 0 00-18.435 3.681 48.137 48.137 0 00-15.635 10.516 48.604 48.604 0 00-10.455 15.75 48.94 48.94 0 00-3.684 18.587v142.832C.587 437.88 21.114 487.949 57.68 524.887c36.564 36.938 86.174 57.721 137.926 57.782 50.734-.52 99.218-21.199 134.929-57.548 35.711-36.35 55.768-85.438 55.817-136.61V196.236a99.464 99.464 0 017.413-37.966 98.796 98.796 0 0121.313-32.175 97.833 97.833 0 0131.939-21.44 97.15 97.15 0 0137.655-7.41c25.225.473 49.26 10.905 66.941 29.055 17.681 18.151 27.599 42.573 27.621 68.018v242.727a48.963 48.963 0 003.684 18.591 48.625 48.625 0 0010.458 15.754 48.144 48.144 0 0015.639 10.518 47.807 47.807 0 0018.44 3.682 47.806 47.806 0 0018.439-3.682 48.123 48.123 0 0015.639-10.518 48.609 48.609 0 0010.458-15.754 48.925 48.925 0 003.684-18.591v-95.173a99.451 99.451 0 017.414-37.967 98.767 98.767 0 0121.314-32.175 97.794 97.794 0 0131.939-21.439 97.155 97.155 0 0137.656-7.409c25.224.472 49.258 10.904 66.939 29.055 17.681 18.151 27.598 42.572 27.621 68.017v194.181c.011 12.886 5.098 25.241 14.142 34.345 9.043 9.104 21.301 14.212 34.079 14.2 12.777.012 25.036-5.096 34.079-14.2s14.13-21.459 14.142-34.345V342.377c.184-51.382-19.653-100.78-55.236-137.551-35.583-36.771-84.064-57.972-134.998-59.035z" fill="url(#prefix__paint0_linear_348_909)"/><defs><linearGradient id="prefix__paint0_linear_348_909" x1=".609" y1="291.409" x2="964.999" y2="291.409" gradientUnits="userSpaceOnUse"><stop stop-color="#00DCDC"/><stop offset=".5" stop-color="#8C73FF"/><stop offset="1" stop-color="#3C78FF"/></linearGradient></defs></svg>