<svg viewBox="0 0 16 16" xmlns="http://www.w3.org/2000/svg"><path d="M2.723 15.206a4.61 4.61 0 01-1.191-1.702c-.51-.227-1.078-.511-1.532-.851.34-.17.738-.34 1.135-.398-.114-.85-.057-1.702.056-2.553.114.851.398 1.646.852 2.383.794-.17 1.475-.227 1.475-.227-.284.397-.51.794-.624 1.248.51.454 1.134.851 1.758 1.135-.68 0-1.304-.113-1.929-.34 0 .454 0 .85.114 1.305h-.114zM4.766 8.85c-.284-.68-.567-1.418-.738-2.156a20.634 20.634 0 00-2.723 2.27c.567-1.135 1.248-2.156 2.1-3.064 0 0-.455-.454-1.93-.568a7.267 7.267 0 013.12-.34 5.15 5.15 0 011.93-.965c-.227.34-.397.681-.568 1.078 1.192.17 2.27.568 3.291 1.192 0 0-2.666-.397-3.744-.057-.34.851-.568 1.702-.738 2.61zm3.858 5.333c0 .227 0 .398.114.625H7.83c-.624.34-1.362.624-2.043.737.397-.227.738-.51 1.078-.851a3.422 3.422 0 01-1.078-.34c.568 0 1.135-.114 1.702-.227.34-.398.681-.795.965-1.249 0 0 0 .511.113.851.511-.283 1.022-.567 1.532-.907-.454.51-.908.964-1.418 1.361h-.057zM15.15 2.383c0 1.532-.17 3.007-.738 4.426 0-1.192-.17-2.44-.624-3.575-.397.284-1.475.794-2.95 1.589.567-.624 1.078-1.249 1.475-1.93-1.475 0-2.894.17-4.312.455a18.061 18.061 0 014.482-1.476A19.606 19.606 0 009.532.057c.794 0 3.858.624 4.88 1.418A7.563 7.563 0 0116 1.305c-.17.397-.51.794-.908 1.021l.057.057zM2.723 15.149a4.61 4.61 0 01-1.191-1.702c-.51-.227-1.078-.51-1.532-.851.34-.17.738-.34 1.135-.397-.114-.851-.057-1.703.056-2.554.114.851.398 1.646.852 2.383.794-.17 1.475-.227 1.475-.227-.284.398-.51.795-.624 1.249.51.454 1.134.85 1.758 1.134-.68 0-1.304-.113-1.929-.34 0 .454 0 .851.114 1.305h-.114zm2.043-6.355c-.284-.68-.567-1.418-.738-2.156a20.633 20.633 0 00-2.723 2.27c.567-1.135 1.248-2.156 2.1-3.064 0 0-.455-.454-1.93-.567a7.267 7.267 0 013.12-.34 5.15 5.15 0 011.93-.965c-.227.34-.397.68-.568 1.078 1.192.17 2.27.567 3.291 1.191 0 0-2.666-.397-3.744-.057-.34.851-.568 1.703-.738 2.61zm3.858 5.334c0 .227 0 .397.114.624H7.83c-.624.34-1.362.624-2.043.737.397-.227.738-.51 1.078-.85a3.422 3.422 0 01-1.078-.341c.568 0 1.135-.114 1.702-.227.34-.397.681-.794.965-1.248 0 0 0 .51.113.85.511-.283 1.022-.567 1.532-.907-.454.51-.908.964-1.418 1.362h-.057zM15.15 2.326c0 1.532-.17 3.007-.738 4.426 0-1.192-.17-2.44-.624-3.575-.397.284-1.475.795-2.95 1.589.567-.624 1.078-1.248 1.475-1.93-1.475 0-2.894.171-4.312.455a18.061 18.061 0 014.482-1.475A19.606 19.606 0 009.532 0c.794 0 3.858.624 4.88 1.418A7.563 7.563 0 0116 1.248c-.17.397-.51.795-.908 1.021l.057.057z" fill="#fff"/></svg>