<svg viewBox="0 0 16 16" xmlns="http://www.w3.org/2000/svg">
    <path
        d="M2.7234 15.2057C2.21277 14.7518 1.8156 14.1844 1.53191 13.5035C1.02128 13.2766 0.453901 12.9929 0 12.6525C0.340426 12.4823 0.737589 12.3121 1.13475 12.2553C1.02128 11.4043 1.07801 10.5532 1.19149 9.70213C1.30496 10.5532 1.58865 11.3475 2.04255 12.0851C2.83688 11.9149 3.51773 11.8582 3.51773 11.8582C3.23404 12.2553 3.00709 12.6525 2.89362 13.1064C3.40426 13.5603 4.02837 13.9574 4.65248 14.2411C3.97163 14.2411 3.34752 14.1277 2.7234 13.9007C2.7234 14.3546 2.7234 14.7518 2.83688 15.2057H2.7234ZM4.76596 8.85106C4.48227 8.17021 4.19858 7.43262 4.02837 6.69503C3.06383 7.37589 2.15603 8.11347 1.30496 8.96454C1.87234 7.82979 2.55319 6.80851 3.40426 5.90071C3.40426 5.90071 2.95035 5.44681 1.47518 5.33333C2.49645 4.99291 3.51773 4.87943 4.59574 4.99291C5.16312 4.53901 5.84397 4.19858 6.52482 4.02837C6.29787 4.36879 6.12766 4.70922 5.95745 5.10638C7.14894 5.2766 8.22695 5.67376 9.24823 6.29787C9.24823 6.29787 6.58156 5.90071 5.50355 6.24113C5.16312 7.0922 4.93617 7.94326 4.76596 8.85106ZM8.62411 14.1844C8.62411 14.4113 8.62411 14.5816 8.73759 14.8085C8.73759 14.8085 8.51064 14.8085 7.82979 14.8085C7.20567 15.1489 6.46809 15.4326 5.78723 15.5461C6.1844 15.3191 6.52482 15.0355 6.86525 14.695C6.46808 14.6383 6.12766 14.5248 5.78723 14.3546C6.35461 14.3546 6.92199 14.2411 7.48936 14.1277C7.82979 13.7305 8.17021 13.3333 8.4539 12.8794C8.4539 12.8794 8.4539 13.3901 8.56738 13.7305C9.07801 13.4468 9.58865 13.1631 10.0993 12.8227C9.64539 13.3333 9.19149 13.7872 8.68085 14.1844H8.62411ZM15.1489 2.38298C15.1489 3.91489 14.9787 5.39007 14.4113 6.80851C14.4113 5.61702 14.2411 4.36879 13.7872 3.23404C13.3901 3.51773 12.3121 4.02837 10.8369 4.82269C11.4043 4.19858 11.9149 3.57447 12.3121 2.89362C10.8369 2.89362 9.41844 3.06383 8 3.34752C9.41844 2.66667 10.9504 2.15603 12.4823 1.87234C11.5745 1.19149 10.5532 0.567376 9.53191 0.0567375C10.3262 0.0567375 13.3901 0.680851 14.4113 1.47518C14.922 1.3617 15.4894 1.30496 16 1.30496C15.8298 1.70213 15.4894 2.09929 15.0922 2.32624L15.1489 2.38298ZM2.7234 15.1489C2.21277 14.695 1.8156 14.1277 1.53191 13.4468C1.02128 13.2199 0.453901 12.9362 0 12.5957C0.340426 12.4255 0.737589 12.2553 1.13475 12.1986C1.02128 11.3475 1.07801 10.4965 1.19149 9.64539C1.30496 10.4965 1.58865 11.2908 2.04255 12.0284C2.83688 11.8582 3.51773 11.8014 3.51773 11.8014C3.23404 12.1986 3.00709 12.5957 2.89362 13.0496C3.40426 13.5035 4.02837 13.9007 4.65248 14.1844C3.97163 14.1844 3.34752 14.0709 2.7234 13.844C2.7234 14.2979 2.7234 14.695 2.83688 15.1489H2.7234ZM4.76596 8.79433C4.48227 8.11347 4.19858 7.37589 4.02837 6.6383C3.06383 7.31915 2.15603 8.05674 1.30496 8.9078C1.87234 7.77305 2.55319 6.75177 3.40426 5.84397C3.40426 5.84397 2.95035 5.39007 1.47518 5.27659C2.49645 4.93617 3.51773 4.8227 4.59574 4.93617C5.16312 4.48227 5.84397 4.14184 6.52482 3.97163C6.29787 4.31206 6.12766 4.65248 5.95745 5.04964C7.14894 5.21986 8.22695 5.61702 9.24823 6.24113C9.24823 6.24113 6.58156 5.84397 5.50355 6.1844C5.16312 7.03546 4.93617 7.88652 4.76596 8.79433ZM8.62411 14.1277C8.62411 14.3546 8.62411 14.5248 8.73759 14.7518C8.73759 14.7518 8.51064 14.7518 7.82979 14.7518C7.20567 15.0922 6.46809 15.3759 5.78723 15.4894C6.1844 15.2624 6.52482 14.9787 6.86525 14.6383C6.46808 14.5816 6.12766 14.4681 5.78723 14.2979C6.35461 14.2979 6.92199 14.1844 7.48936 14.0709C7.82979 13.6738 8.17021 13.2766 8.4539 12.8227C8.4539 12.8227 8.4539 13.3333 8.56738 13.6738C9.07801 13.3901 9.58865 13.1064 10.0993 12.766C9.64539 13.2766 9.19149 13.7305 8.68085 14.1277H8.62411ZM15.1489 2.32624C15.1489 3.85816 14.9787 5.33333 14.4113 6.75177C14.4113 5.56028 14.2411 4.31206 13.7872 3.1773C13.3901 3.46099 12.3121 3.97163 10.8369 4.76596C11.4043 4.14184 11.9149 3.51773 12.3121 2.83688C10.8369 2.83688 9.41844 3.00709 8 3.29078C9.41844 2.60993 10.9504 2.09929 12.4823 1.8156C11.5745 1.13475 10.5532 0.510638 9.53191 0C10.3262 0 13.3901 0.624114 14.4113 1.41844C14.922 1.30496 15.4894 1.24823 16 1.24823C15.8298 1.64539 15.4894 2.04255 15.0922 2.2695L15.1489 2.32624Z"
        fill="white" />
</svg>