<svg viewBox="0 0 24 24" xmlns="http://www.w3.org/2000/svg">
    <rect width="24" height="24" fill="#FDC34A" />
    <path transform="translate(-0.713379)"
        d="M9.89256 10.1401C10.1326 10.7401 10.4926 11.2801 10.9126 11.7601C11.0926 11.4601 11.2126 11.1601 11.3326 10.8601C11.8126 9.5401 12.1126 8.1601 12.2926 6.7801C12.4126 5.7601 12.4726 4.6801 12.4726 3.6001C11.2726 3.6001 10.0726 3.9601 8.99256 4.5001C8.99256 4.5001 8.93256 4.5001 8.87256 4.5601C8.87256 4.7401 8.87256 4.9801 8.87256 5.2201C8.87256 6.9001 9.23256 8.5801 9.89256 10.1401Z"
        fill="white" />
    <path transform="translate(-0.713379)"
        d="M13.8531 10.02C14.0331 10.62 14.2731 11.16 14.5131 11.7C14.8131 11.34 15.1131 10.92 15.2931 10.5C15.9531 9.18004 16.3731 7.80004 16.4931 6.36004C16.5531 5.76004 16.5531 5.16004 16.5531 4.50004C16.2531 4.32004 16.0131 4.20004 15.7131 4.08004C14.8131 3.72004 13.9131 3.54004 12.9531 3.54004C12.9531 4.08004 12.9531 4.56004 12.9531 5.10004C13.0731 6.78004 13.3131 8.40004 13.7931 10.02H13.8531Z"
        fill="white" />
    <path transform="translate(-0.713379)"
        d="M6.89307 10.86C7.49307 9.95999 7.91307 8.87999 8.15307 7.79999C8.39307 6.77999 8.51307 5.75999 8.51307 4.73999C8.45307 4.73999 8.39307 4.79999 8.33307 4.85999C7.25307 5.51999 6.41307 6.41999 5.75307 7.49999C4.79307 9.05999 4.37307 10.98 4.61307 12.78C5.57307 12.36 6.41307 11.7 6.95307 10.8L6.89307 10.86Z"
        fill="white" />
    <path transform="translate(-0.713379)"
        d="M19.9731 7.97981C19.3731 6.83981 18.5331 5.87981 17.5131 5.1598C17.3331 5.0398 17.1531 4.9198 16.9131 4.7998C16.9131 5.6398 16.9731 6.41981 17.1531 7.25981C17.3331 8.51981 17.7531 9.65981 18.4131 10.7398C19.0131 11.6998 19.8531 12.4198 20.8731 12.8398C21.0531 11.1598 20.7531 9.47981 19.9731 7.97981Z"
        fill="white" />
    <path transform="translate(-0.713379)"
        d="M10.253 13.2602C10.193 13.1402 10.133 13.0802 10.013 12.9602C9.65303 12.5402 9.35303 12.1202 9.11303 11.6402C8.93303 11.2802 8.75303 10.8602 8.63303 10.5002C8.57303 10.6202 8.51303 10.7402 8.45303 10.8602C8.21303 11.5202 7.91303 12.1202 7.43303 12.7202C6.77303 13.6202 5.87303 14.2802 4.85303 14.6402C4.85303 14.7002 4.85303 14.7602 4.91303 14.8802C5.15303 15.5402 5.51303 16.1402 5.93303 16.6802C6.11303 16.9202 6.29303 17.1002 6.47303 17.2802C6.59303 17.2802 6.71303 17.1602 6.83303 17.1002C8.03303 16.2602 9.05303 15.1802 9.77303 13.8602C9.89303 13.6202 10.073 13.4402 10.133 13.2002L10.253 13.2602Z"
        fill="white" />
    <path transform="translate(-0.713379)"
        d="M12.8334 10.9202C12.8334 10.8002 12.8334 10.6202 12.7134 10.5002C12.5934 10.6202 12.6534 10.8002 12.5934 10.9202C12.3534 12.3002 11.9334 13.6802 11.3334 15.0002C10.7334 16.5002 9.83336 17.8802 8.69336 19.0202C8.69336 19.0802 8.75336 19.1402 8.81336 19.1402C10.0134 19.7402 11.2734 20.1002 12.5934 20.1002C14.0334 20.1002 15.4134 19.7402 16.6734 19.0802C15.5334 17.8802 14.6334 16.5002 14.0334 15.0002C13.4934 13.6802 13.0734 12.3602 12.8334 10.9202Z"
        fill="white" />
    <path transform="translate(-0.713379)"
        d="M16.9137 10.8602C16.9137 10.7402 16.8537 10.6202 16.7937 10.5002C16.7337 10.6202 16.6737 10.8002 16.6137 10.9202C16.3137 11.7602 15.8337 12.5402 15.2337 13.2002C15.1737 13.2002 15.2337 13.3202 15.2337 13.3802C15.5337 13.9202 15.8337 14.4002 16.1337 14.8802C16.7937 15.7802 17.5737 16.5602 18.5337 17.2202C18.6537 17.2802 18.7137 17.3402 18.8337 17.4002C18.8937 17.3402 19.0137 17.2202 19.0737 17.1602C19.4937 16.6202 19.8537 16.0802 20.1537 15.4202C20.2737 15.1802 20.3337 15.0002 20.4537 14.7602C19.9137 14.5802 19.3737 14.2802 18.9537 13.8602C18.0537 13.0802 17.3337 12.0602 16.9137 10.9202V10.8602Z"
        fill="white" />
</svg>