<svg viewBox="0 0 16 16" xmlns="http://www.w3.org/2000/svg">
    <path
        d="M2.25902 4.20901C2.25902 3.28057 2.5685 2.35213 3.18746 1.60938C1.51627 2.90919 0.402141 4.76607 0.0926609 6.87053C-0.0311311 7.61328 -0.0311311 8.35603 0.0926609 9.09879C0.897309 11.5127 4.11589 13.3696 8.01534 13.3696V7.98466C4.30158 7.98466 2.38281 6.12778 2.25902 4.20901Z"
        fill="url(#paint0_linear_213_3023)" />
    <path
        d="M13.8957 11.6983C12.1627 12.8124 10.1201 13.4314 8.01563 13.3695C4.11619 13.3695 0.897604 11.5126 0.0929565 9.09863C0.65002 13.06 3.99239 15.9691 8.01563 15.9691C9.9963 15.9691 11.9151 15.2263 13.3387 13.9265C13.772 13.2457 13.9576 12.5029 13.8957 11.6983Z"
        fill="url(#paint1_linear_213_3023)" />
    <path
        d="M8.01596 0C6.28287 0 4.61169 0.557064 3.18808 1.6093C2.56912 2.29015 2.25964 3.21859 2.25964 4.20893C3.99273 3.15669 5.97339 2.59963 8.01596 2.59963C11.7916 2.59963 15.0102 4.33272 15.8768 6.68476C15.2578 2.84721 11.9154 0 8.01596 0Z"
        fill="url(#paint2_linear_213_3023)" />
    <path
        d="M15.876 6.68474C15.0094 4.3327 11.7909 2.59961 8.0152 2.59961V7.98456C11.6052 7.98456 13.6477 9.77954 13.8953 11.6983C13.9572 12.503 13.7715 13.2457 13.3383 13.9266C14.7 12.6887 15.5665 11.0794 15.876 9.28437C15.9379 8.8511 15.9998 8.41783 15.9998 7.98456C15.9998 7.55129 15.9998 7.11801 15.876 6.68474Z"
        fill="url(#paint3_linear_213_3023)" />
    <defs>
        <linearGradient id="paint0_linear_213_3023" x1="-27.5377" y1="-7.42743" x2="-35.4739" y2="-16.4079"
            gradientUnits="userSpaceOnUse">
            <stop stop-color="#C5A75F" />
            <stop offset="1" stop-color="#61380A" />
        </linearGradient>
        <linearGradient id="paint1_linear_213_3023" x1="-37.7255" y1="-40.5667" x2="-50.148" y2="-40.5667"
            gradientUnits="userSpaceOnUse">
            <stop stop-color="#E3D9B5" />
            <stop offset="1" stop-color="#512F09" />
        </linearGradient>
        <linearGradient id="paint2_linear_213_3023" x1="38.8402" y1="117.491" x2="46.9055" y2="124.793"
            gradientUnits="userSpaceOnUse">
            <stop stop-color="#E3D9B5" />
            <stop offset="1" stop-color="#512F09" />
        </linearGradient>
        <linearGradient id="paint3_linear_213_3023" x1="65.1577" y1="-152.722" x2="73.6921" y2="-146.706"
            gradientUnits="userSpaceOnUse">
            <stop stop-color="#D3C191" />
            <stop offset="1" stop-color="#533614" />
        </linearGradient>
    </defs>
</svg>