<svg viewBox="0 0 16 16" xmlns="http://www.w3.org/2000/svg">
    <path
        d="M2.259 4.209c0-.928.31-1.857.928-2.6C1.517 2.91.402 4.766.093 6.871a6.731 6.731 0 000 2.228c.804 2.414 4.023 4.27 7.922 4.27V7.986c-3.713 0-5.632-1.857-5.756-3.776z"
        fill="url(#prefix__paint0_linear_213_3023)" />
    <path
        d="M13.896 11.698c-1.733 1.114-3.776 1.733-5.88 1.671-3.9 0-7.118-1.856-7.923-4.27.557 3.961 3.9 6.87 7.923 6.87 1.98 0 3.9-.743 5.323-2.042a3.54 3.54 0 00.557-2.229z"
        fill="url(#prefix__paint1_linear_213_3023)" />
    <path
        d="M8.016 0a8.081 8.081 0 00-4.828 1.61c-.619.68-.928 1.609-.928 2.599a11.064 11.064 0 015.756-1.61c3.776 0 6.994 1.734 7.86 4.086C15.259 2.847 11.917 0 8.017 0z"
        fill="url(#prefix__paint2_linear_213_3023)" />
    <path
        d="M15.876 6.685C15.009 4.333 11.791 2.6 8.016 2.6v5.385c3.59 0 5.632 1.795 5.88 3.713a3.541 3.541 0 01-.558 2.229 8.06 8.06 0 002.538-4.643c.062-.433.124-.866.124-1.3 0-.433 0-.866-.124-1.3z"
        fill="url(#prefix__paint3_linear_213_3023)" />
    <defs>
        <linearGradient id="prefix__paint0_linear_213_3023" x1="-27.538" y1="-7.427" x2="-35.474" y2="-16.408"
            gradientUnits="userSpaceOnUse">
            <stop stop-color="#C5A75F" />
            <stop offset="1" stop-color="#61380A" />
        </linearGradient>
        <linearGradient id="prefix__paint1_linear_213_3023" x1="-37.725" y1="-40.567" x2="-50.148" y2="-40.567"
            gradientUnits="userSpaceOnUse">
            <stop stop-color="#E3D9B5" />
            <stop offset="1" stop-color="#512F09" />
        </linearGradient>
        <linearGradient id="prefix__paint2_linear_213_3023" x1="38.84" y1="117.491" x2="46.906" y2="124.793"
            gradientUnits="userSpaceOnUse">
            <stop stop-color="#E3D9B5" />
            <stop offset="1" stop-color="#512F09" />
        </linearGradient>
        <linearGradient id="prefix__paint3_linear_213_3023" x1="65.158" y1="-152.722" x2="73.692" y2="-146.706"
            gradientUnits="userSpaceOnUse">
            <stop stop-color="#D3C191" />
            <stop offset="1" stop-color="#533614" />
        </linearGradient>
    </defs>
</svg>