<svg viewBox="0 0 40 40" xmlns="http://www.w3.org/2000/svg"><mask id="prefix__a" style="mask-type:luminance" maskUnits="userSpaceOnUse" x="5" y="0" width="30" height="33"><path d="M19.987 0C14.04 0 8.694 2.6 5.034 6.72c.052.035 4.077 2.895 5.285 7.016 1.052 3.269.235 6.008-.165 7.355-.165.513-.313.982-.443 1.4-.809 2.486-1.139 3.52-1.2 5.173v.052c-.06 2.486 1.791 4.555 4.13 4.616 1.504.035 2.886-.756 3.695-2.104 1.338-2.547.826-5.616.634-6.503V23.7s-.008-.035-.017-.06v-.018c-.357-1.513-.957-3.13-1.73-4.677-1.157-2.504-1.87-4.504-2.182-6.13-.261-1.382-.252-2.52.034-3.668-2.46-1.513-2.112-3.66-1.686-4.808l.165-.452.009-.026.017-.043h.009s.834 1.19 2.269 1.747c.148.052.295.104.452.14.209.051.426.095.635.12.182.018.365.027.556.027h.096c.46-.035.93-.183 1.182-.278.009 0 .044-.018 0 0l.183-.079c1.669-.652 4.746-1.634 6.816-.19a5.304 5.304 0 011.738 1.79c3.287 1.226 3.6 3.495 3.8 4.999l.086.66-.539-.39c-1.052-.792-1.886-1.165-2.634-1.183h-.07a3.94 3.94 0 00-1.703.418c-1.696.878-1.983 2.434-1.991 2.451-.53 1.921.2 3.59 2.817 6.407.034.035 3.703 3.652 4.433 4.79 1.191 1.583 2.009 3.157 2.426 4.66 0 .01.026.07.07.131 0 0 .121.165.278.165.087 0 .174-.052.26-.165.444-.86.2-2.156-.087-3.095-.147-.47-.669-1.73-.678-1.739v-.017l-.026-.052c-1.069-2.46-1.6-5.112-1.53-7.65.052-1.81.365-3.6.956-5.304.079-.278.174-.574.287-.86l.053-.131c.547-1.435 1.165-2.478 1.417-2.852.417-.695.878-1.417 1.408-2.034A19.91 19.91 0 0019.987.009V0z" fill="#fff"/></mask><g mask="url(#prefix__a)"><path d="M28.045-12.232L-8.386 7.138 11.54 44.613l36.43-19.37-19.925-37.475z" fill="url(#prefix__viet_capital_bank_paint0_linear)"/></g><mask id="prefix__b" style="mask-type:luminance" maskUnits="userSpaceOnUse" x="16" y="5" width="1" height="1"><path d="M16.77 5.59c-.026.009-.017.009 0 0z" fill="#fff"/></mask><g mask="url(#prefix__b)"><path d="M16.772 5.574l-.023.012.012.023.023-.012-.012-.023z" fill="url(#prefix__viet_capital_bank_paint1_linear)"/></g><mask id="prefix__c" style="mask-type:luminance" maskUnits="userSpaceOnUse" x="0" y="6" width="40" height="34"><path d="M15.736 9.32c-1.835 3.686.895 7.39 2.886 10.102l.122.156c.313.426.6.87.878 1.348.643.982 1.478 2.504 1.852 4.173l.017.043v.078c.026.105.044.226.07.366 0 .034.008.06.017.095v.026c.14.765.174 1.548.113 2.322a6.988 6.988 0 01-.104.8c-.27 2.042-1.183 3.92-2.591 5.285-1.409 1.374-3.217 2.13-5.077 2.13h-.287c-2.634-.017-4.477-1.79-4.495-1.808v-.018a6.552 6.552 0 01-2.017-2.99c-1.07-2.79-.348-5.877-.339-5.912.191-1.008.487-1.956.748-2.79.4-1.305.782-2.522.756-3.687V19.013v-.165c0-2.27-1.06-4.434-2.825-5.781-.496-.366-1.609-1.07-3.504-1.687A19.921 19.921 0 000 20.004C0 31.045 8.955 40 19.996 40c11.04 0 19.987-8.955 19.987-19.996 0-3.364-.826-6.529-2.295-9.31-.496.416-2.122 1.894-3.209 4.268-.104.235-.19.452-.278.652 0 .008 0 .026-.008.034a15.088 15.088 0 00-1.035 5.156c-.017.591 0 1.191.052 1.782.044.478.148 1.06.304 1.748.227.921.53 1.904.618 2.182.321.947 1.104 4.268-2.47 7.224l-.051.044c-.409.348-.844.687-1.27.99a25.76 25.76 0 01-1 .644c-.095.07-.2.13-.286.191-.435.253-.87.496-1.322.705a.642.642 0 01-.217.052c-.087 0-.157-.026-.2-.087-.078-.104-.052-.26-.035-.34l.018-.043c1.4-4.407.295-7.798-.879-9.867-.652-1.07-1.556-2.095-2.034-2.617l-.026-.026c-.113-.113-.217-.226-.33-.339l-.061-.06c-.383-.4-.783-.818-1.174-1.244-.878-.956-1.574-1.956-2.078-2.973-.973-2.043-.87-3.713-.6-4.756.235-.939.635-1.547.765-1.73-.173.017-.33.026-.495.026-2.39 0-2.53-2.243-2.539-2.269v-.043l.452.139s.965.295 1.974.33c.67.017 1.2-.087 1.582-.296.74-.347 1.113-.93 1.148-1.712-.087-1.14-.983-1.643-1.783-1.748a8.449 8.449 0 00-.66-.052h-.165c-3.26 0-4.6 2.574-4.66 2.678v-.018z" fill="#fff"/></mask><g mask="url(#prefix__c)"><path d="M31.16-9.928l-44.99 23.921L8.802 56.557l44.99-23.921L31.16-9.928z" fill="url(#prefix__viet_capital_bank_paint2_linear)"/></g><defs><linearGradient id="prefix__viet_capital_bank_paint0_linear" x1="5.884" y1="23.801" x2="35.598" y2="8.002" gradientUnits="userSpaceOnUse"><stop stop-color="#82222F"/><stop offset=".12" stop-color="#82222F"/><stop offset=".77" stop-color="#ED1A39"/><stop offset="1" stop-color="#ED1A39"/></linearGradient><linearGradient id="prefix__viet_capital_bank_paint1_linear" x1="17.492" y1="5.799" x2="17.507" y2="5.79" gradientUnits="userSpaceOnUse"><stop stop-color="#82222F"/><stop offset=".12" stop-color="#82222F"/><stop offset=".77" stop-color="#ED1A39"/><stop offset="1" stop-color="#ED1A39"/></linearGradient><linearGradient id="prefix__viet_capital_bank_paint2_linear" x1="923.369" y1="-457.523" x2="958.68" y2="-476.298" gradientUnits="userSpaceOnUse"><stop stop-color="#82222F"/><stop offset=".12" stop-color="#82222F"/><stop offset=".77" stop-color="#ED1A39"/><stop offset="1" stop-color="#ED1A39"/></linearGradient></defs></svg>