<svg xmlns="http://www.w3.org/2000/svg" viewBox="0 0 20.835 20.835"><path d="M9.5 1.042v8.371h1.809V1.042a1.006 1.006 0 112.01 0v8.371h1.809V1.042a1.006 1.006 0 112.01 0v8.371h2.632a1.011 1.011 0 011.042 1.005 1.034 1.034 0 01-1.042 1.005h-2.627v8.371a1.006 1.006 0 11-2.01 0v-8.371h-1.81v8.371a1.006 1.006 0 11-2.01 0v-8.371H9.5v8.371a1.006 1.006 0 11-2.01 0v-8.371H5.684v8.371a1.006 1.006 0 11-2.01 0v-8.371H1.042a1.006 1.006 0 110-2.01h2.632V1.042a1.006 1.006 0 112.01 0v8.371h1.828V1.042A1.034 1.034 0 018.517 0 1.019 1.019 0 019.5 1.042" fill="#ed1c24"/></svg>