<svg xmlns="http://www.w3.org/2000/svg" viewBox="0 0 20.835 20.835">
    <path
        d="M16.5,8.042v8.371h1.809V8.042a1.006,1.006,0,1,1,2.01,0v8.371h1.809V8.042a1.006,1.006,0,1,1,2.01,0v8.371h2.632a1.011,1.011,0,0,1,1.042,1.005,1.034,1.034,0,0,1-1.042,1.005H24.143v8.371a1.006,1.006,0,1,1-2.01,0V18.423H20.323v8.371a1.006,1.006,0,1,1-2.01,0V18.423H16.5v8.371a1.006,1.006,0,1,1-2.01,0V18.423H12.684v8.371a1.006,1.006,0,1,1-2.01,0V18.423H8.042a1.006,1.006,0,1,1,0-2.01h2.632V8.042a1.006,1.006,0,1,1,2.01,0v8.371h1.828V8.042A1.034,1.034,0,0,1,15.517,7,1.019,1.019,0,0,1,16.5,8.042"
        transform="translate(-7 -7)" fill="#ed1c24" />
</svg>