<svg viewBox="0 0 40 40" xmlns="http://www.w3.org/2000/svg"><path d="M10.314 27.193c.436-1.886 1.487-3.705 2.673-5.216.428-.546 1.661-1.41 1.592-2.163-.076-.853-1.368-1.87-1.861-2.544-1.078-1.469-1.871-3.198-2.324-4.96-.143-.555-.635-1.83-.319-2.362.303-.51 1.524-.333 2.02-.299 1.325.09 2.667.295 3.943.662.613.176 1.52.684 2.158.553.884-.18 1.714-1.861 2.307-2.498 1.451-1.558 3.273-2.914 5.205-3.817-.448-1.058-1.4-1.933-2.29-2.634-4.994-3.941-12.87-1.513-14.642 4.67-.902 3.147-.119 6.668 1.317 9.541.417.836.92 1.668 1.48 2.417.258.347.79.806.79 1.273 0 .532-.686 1.127-.984 1.526a15.999 15.999 0 00-2.157 3.943c-.14.37-.574 1.184-.3 1.56.24.325 1.026.301 1.392.348zm.382-16.793c.046 2.195 2.615 1.543 4.326 1.97 1.084.27 3.126 1.659 4.171 1.42.762-.173 1.688-2.385 2.2-3.007 1.694-2.053 3.715-3.264 5.97-4.58.434 1.587 1.071 3.047 1.251 4.707.11.996-.172 2.639.226 3.534.195.438.792.508 1.196.647 1.015.353 1.993.775 2.925 1.308 1.083.619 2.124 1.33 3.053 2.166.304.273.783.955 1.262.825.554-.15.905-1.142 1.117-1.61.803-1.784 1.22-3.78.946-5.724-.709-5.043-5.26-8.222-10.193-7.877-3.232.227-6.094 2.495-8.27 4.696-.64.65-1.537 2.575-2.367 2.855-.567.192-1.762-.554-2.338-.707-1.839-.486-3.585-.623-5.475-.623zM25.58 7.73c.316 2.148.943 4.006.889 6.233-.015.594-.53 1.978-.05 2.436.551.524 2.113.564 2.85.811a15.503 15.503 0 014.708 2.581c.465.374 1.774 1.265 1.774 1.922 0 .53-1.134 1.108-1.52 1.366a17.088 17.088 0 01-3.561 1.82c-.555.203-1.54.307-1.959.736-.513.522-.16 2.018-.241 2.706-.295 2.494-1.574 4.615-1.998 6.997 1.919.614 3.996.872 5.98.394 6.829-1.645 8.457-9.721 4.79-15.024-1.31-1.892-3.594-3.42-5.68-4.342-.807-.357-2.98-.668-3.431-1.41-.462-.76-.113-2.41-.133-3.28-.038-1.537-.467-3.152-1.016-4.579l-1.402.633z" fill="#FFC72F"/><path d="M24.563 32.408c-1.523-.952-2.885-2.342-3.9-3.817-.402-.584-.979-2.187-1.621-2.465-.832-.36-2.894.936-3.767 1.174-2.527.692-4.831.47-7.38.147.382-1.847 1.188-3.613 2.164-5.216.4-.658 1.465-1.627 1.468-2.417.003-.976-1.445-2.44-1.921-3.308-.976-1.777-1.454-3.75-1.836-5.724-1.332.117-2.665 1-3.69 1.808-4.894 3.853-4.773 11.284.381 14.893 2.805 1.962 6.367 2.22 9.668 1.69 1.041-.168 3.098-1.27 4.058-1.01.524.144.874 1.031 1.162 1.447a15.651 15.651 0 003.05 3.275c.323.264.909.886 1.371.808.476-.08.681-.901.793-1.285z" fill="#FFC72F"/><path d="M24.054 34.826l-4.27-3.69-1.848-2.171-3.55.845-6.234.054c0 2.776.726 5.441 2.709 7.484 4.072 4.193 10.748 3.143 14.157-1.25 1.613-2.08 2.38-4.672 2.69-7.252.103-.86-.3-3.002.24-3.635.526-.614 2.097-.758 2.85-1.034 1.567-.571 2.98-1.492 4.326-2.456-.218-.462-.672-1.106-1.272-1.002-.677.116-1.439.843-2.036 1.183-1.068.607-2.248 1.047-3.434 1.36-.525.14-1.812.155-2.16.589-.266.331-.083.93-.04 1.304.112.947.074 1.974.032 2.926-.112 2.5-1.224 4.508-2.16 6.745z" fill="#FFC72F"/></svg>