<svg viewBox="0 0 40 40" xmlns="http://www.w3.org/2000/svg"><g clip-path="url(#prefix__lp_bank_vnd_clip0)" fill-rule="evenodd" clip-rule="evenodd" fill="#F8961D"><path d="M20.002 29.085c-7.174 0-12.99-5.838-12.99-13.043H0c0 11.09 8.954 20.081 20 20.081 11.047 0 20-8.991 20-20.081h-7.01c0 7.203-5.815 13.043-12.99 13.043"/><path d="M26.329 16.042a.7.7 0 01-.224.505c-.09.1-1.534.99-3.073 2.535-1.54 1.546-2.428 2.993-2.527 3.085 0 0-.19.223-.503.223s-.502-.223-.502-.223c-.098-.092-.986-1.54-2.526-3.085-1.539-1.546-2.98-2.435-3.073-2.535 0 0-.224-.19-.224-.505H26.33h-.001zM20.002 3c-7.174 0-12.99 5.839-12.99 13.042h6.662c0-.315.224-.505.224-.505.09-.1 1.534-.988 3.073-2.535 1.538-1.544 2.427-2.993 2.526-3.084 0 0 .19-.224.504-.224s.504.222.504.222c.099.091.987 1.54 2.525 3.086 1.54 1.545 2.981 2.434 3.073 2.535 0 0 .224.19.224.505h6.665C32.992 8.839 27.176 3 20.002 3z"/></g><defs><clipPath id="prefix__lp_bank_vnd_clip0"><path fill="#fff" d="M0 0h40v40H0z"/></clipPath></defs></svg>