<svg viewBox="0 0 24 24" xmlns="http://www.w3.org/2000/svg"><path fill="#E8248D" d="M0 0h24v24H0z"/><path d="M11.94 20.46c-2.28 0-4.38-.9-6-2.46s-2.46-3.72-2.46-6 .9-4.38 2.46-6c1.62-1.56 3.72-2.46 6-2.46s4.38.9 6 2.46c1.56 1.62 2.46 3.72 2.46 6s-.9 4.38-2.46 6c-1.62 1.56-3.72 2.46-6 2.46zm0-16.8c-2.22 0-4.32.9-5.88 2.46C4.5 7.68 3.6 9.78 3.6 12c0 2.22.9 4.32 2.46 5.88 1.56 1.56 3.66 2.46 5.88 2.46 2.22 0 4.32-.9 5.88-2.46 1.56-1.56 2.46-3.66 2.46-5.88 0-2.22-.9-4.32-2.46-5.88-1.56-1.56-3.66-2.46-5.88-2.46z" fill="#fff"/><path fill-rule="evenodd" clip-rule="evenodd" d="M8.58 5.76c.06-.12.06-.24.18-.3 0 0 .12.12.12.18 0 .12.06.18.12.24v.54c0 .24.06.3 0 .54v.54-.18-.3-.6-.06c0-.18-.12-.24-.12-.36H9s0 .06.06.06c0 .06.12.12.18.18v.06c0 .06.06.06 0 .18V7.5s-.06 0-.12.12c0 .06-.06.12-.12.12-.12.06-.18.18-.3.18h-.24l-.06.06V9.12c0 .06-.18.12-.12.24V11.16c.06 0 0 .12 0 .18l-.06.06v.42s-.24-.18-.24-.24v-.3c-.06-.12-.24-.18-.18-.36v-.12-.72c.06-.12 0-.54 0-.66v-.36-.42l-.06-.06c-.06-.06 0-.12 0-.12v-.42-.42l-.06-.06H7.5h-.24s0-.06-.12-.12v-.12c0-.06-.06-.12-.12-.24v-.06-.24s.06-.24 0-.3V6.3v-.12c.06-.12.18-.24.18-.36l.3-.3c.12 0 .12-.12.18-.06 0 .06-.12.12-.12.24V6.84l.12.12c.06-.06 0-.24 0-.36v-.36-.54-.06c0-.18.12-.3.12-.48V5.1c0 .06.12 0 .12-.12l.66.78zm-.3 2.88v-.06h-.12v.12c0 .06.12 0 .06 0l.06-.06zm.42-2.76v.06-.06zm.36 2.58V7.8v-.66c0-.06-.06-.12 0-.24-.06-.12-.06-.36-.18-.42V8.4h.18v-.06.12zm-.42-1.8v1.62c0 .12 0 .24.12.24v-.48c-.06 0 0-.24 0-.36V6.66h-.12zm-1.08.54v-.06c0 .06-.06.12-.12.24V8.34c0 .12.12.3.24.3 0 0 .18-.12.12-.18V8.4c0-.06-.06-.12-.12-.18V8.1v-.6l-.12-.3zm2.52.12V8.04s0 .06-.06.12v.12l-.12.12.12.12.06-.06v-.12-.12-.18c-.06-.18 0-.48-.12-.66l.12-.06zm-.18 0v.42c0 .06 0 .12-.06.18l-.06.06c0 .06 0 .06.12.12 0 .06.06.06 0 0v-.06c0-.12.12-.18.06-.36v-.24l-.06-.12zm-2.16.12v-.12c-.06 0 0 .12 0 .18v.18c0 .18.12.36.18.48v.06s.12-.12 0-.18v-.12-.24l-.18-.24zm.42.78v.12-.06H8.1l.06-.06zm1.2 0s-.06 0-.12.12v.12c.06-.06 0-.18 0-.18l.12-.06zm0 .36s-.12.06-.12.12v.12c0-.06.06-.12.12-.18 0 0 0-.06-.06 0l.06-.06zm-.72.24s0-.06-.12-.12v.06l.12.06zm.3-.06s.06-.06 0-.12v.12zM8.4 9s0-.12-.06-.12L8.4 9zm.24.12h.12v-.06h-.12v.06zm.12.36h-.12v-.12l.12.12zm-.36.3c0 .06.12 0 0 0zm0 1.38v-.06.06zm.12.12v.24c.06 0 .06-.24 0-.24zm-.24.6v.06h.06l-.06-.06zm.24.24h.12c.06 0 .18 0 .18-.06h-.3v.06zm.36.24h-.06.06zm-.48 0c0 .06.06 0 0 0zm.18.3c.06 0 .12 0 .12-.12 0 0-.12 0-.12.12zm.12.3v.12c0 .18.24 0 .12-.06l-.12-.06zM6.959 7.68v.24h-.18-.06V7.8c.06 0 .12-.06.12-.12h.12zM10.5 7.68s.12.06.18.12l.06.06v.12c-.18 0-.3-.06-.36-.18v-.06l.12-.06zM7.02 7.98s.06 0 0 .06c0 0-.12 0 0 .06 0 0 .12 0 .06.06 0 0-.06 0-.12.06h-.42v-.06h-.06s.06 0 .12-.12h.18l.24-.06z" fill="#fff"/><path fill-rule="evenodd" clip-rule="evenodd" d="M10.439 7.98s.12.06.18.06h-.12c-.06.06-.12 0-.18 0h-.06-.12-.18v-.12s0 .06.12 0h-.12c0-.06.12 0 .06-.12l.42.18zM7.2 8.82l-.06.12c-.06 0-.12.12-.18.18 0 0-.06 0-.12.12 0-.12.18-.18.18-.24s.12-.12.12-.12h.06l.18-.18-.18.12zM10.319 8.94s-.06 0 0-.12c.18.18.3.36.48.48v.12l-.12-.12h-.06v-.12l-.18-.18h-.06v-.12l-.06.06zM7.319 8.94l-.06.06c-.06 0-.12.12-.18.18v.06l-.12.12v.06l-.06.06c0-.06.06-.12.12-.12l.12-.12v-.12l.06-.06c.06-.06.18-.12.24-.24l-.12.12zM10.139 8.94l.36.36c0 .12.12.12.12.18 0 .12.12.12.12.18 0 .12-.06.06-.12.12v-.12s0-.06-.06-.12h-.06c0-.12-.06-.12-.12-.18V9.3s-.06-.12-.12-.12c0 0-.06 0 0-.12l-.12-.12zM7.44 9.12h.12v.12s0 .06-.06.12v.12s0 .06-.06.12v.06s0 .06-.06.12v.06c0 .12-.12.12-.12.24l-.06-.06s0-.06.06-.12v-.12-.12-.12-.18-.12s0-.12.06-.12v.36s0 .06-.06.12v.06s-.06 0 0 .06v.18c0-.06 0-.12.06-.18v-.06c.12 0 .12-.18.12-.24 0 0 .06-.06.06-.12.06 0 .06-.12.12-.24 0-.12.12-.12.12-.24 0 0 0-.06.06-.06l-.36.36z" fill="#fff"/><path fill-rule="evenodd" clip-rule="evenodd" d="M10.02 9.12h.12l.06.06v.06c0 .06 0 .12.12.12v.06c0 .06 0 .12.12.12 0 .06 0 .12.12.12 0 .06 0 .12.12.12 0 .06 0 .12.12.12v.3h-.06v-.12-.12.3-.06s0-.06-.06-.12v-.12-.18c-.06-.12-.12-.24-.24-.36V9.3s-.06-.06 0-.12h.06c0 .06 0 .06 0 0l-.48-.06zm.12.36s0 .06.06.12l-.06-.12zM7.68 9.66s.06-.12.12-.06c0 0 .06.06.06 0h.12v.18s-.06.06 0 .12c0 .06-.06.12-.12.12-.12 0-.24.3-.24.48l.12.12v.06c-.06 0 0 .18-.12.24v.12s-.06.06 0 .12v.18h-.06c0-.12-.12-.24-.18-.36v-.24-.24l-.06-.06v-.24-.12c.06 0 .12-.06.12-.12v-.12h-.06l-.24.24c-.06.12-.12.24-.12.3v.18c0 .06 0 .12.12.18 0 .36-.12.6-.3.78v-.06-.06c.12-.12.06-.36 0-.42v-.3-.06-.12s0-.12.06-.18l.06-.06s.06 0 .12-.06v-.06c.06 0 .06-.12 0-.12l.6-.36zM9.66 9.6l.06.06v.12c0 .06.12.18.12.18.06 0 .12.12.18.18V11.28c0 .06.12.12.18.18v.12h-.12v-.06l-.12-.12v-.06-.42-.06V10.26h-.12v.24c.06.12.18.12.3.24v.12c0 .18.12.18.12.3l-.12.12c0 .24.12.3.12.6V12h-.06v-.12-.42c0-.18 0-.3.12-.36v-.18s0-.18-.12-.12h-.06v-.18c0-.12-.06-.18 0-.3.12.06.12 0 .12 0l-.6-.72zm0 .24v-.06.06zM10.799 15.54h.06v.06h.24V16.38c-.12.12-.3.12-.48.12 0-.06-.24 0-.24-.12h-1.02v-.12c-.06-.06-.18-.18-.3-.18h.12v.12c-.18 0-.3-.12-.48-.06-.06-.06-.3 0-.42 0h.3c0-.06.12 0 .18 0h.6s0 .06.12.12c0 0 0 .06.06.06h.06l.12.12h.6v-.06s0-.12.06-.12c0-.18 0-.42-.12-.48-.12 0-.18-.06-.3 0-.06 0-.12.12-.18.12 0 .06-.12 0-.12.06-.12 0-.36.06-.54 0h.24l.12-.12s0-.06.12-.06v-.12l1.2-.12zM7.8 16.5h-.12v-.06l.12.06zM7.92 16.86s0-.06.12 0c0 0 .06 0 0 .12h-.06v-.12h-.06zM11.52 13.8h.36v.12h-.24-.24-.06l.18-.12zM11.22 14.28c0-.06.12-.06.12 0h-.12zM11.88 16.62V17.76c0 .06 0 .06.12.12v.72c0 .06.18 0 .24 0v.06h-.12c0 .12.18.06.24.12.12 0 .18.12.3.12v.12h.36v.12h-.12-.12-.18s.06 0 0 .12h-.48-.06-.12s-.06 0-.06-.12l.12-.12s.12 0 .12-.12h.18c0 .12.18.12.3.18.18 0 .3.12.36.18h.12v-.12-.06h-.06-.24s-.06-.12-.12-.06c0 0 0-.12-.06-.12v-.24V18v-.48-.06-.24c0-.06-.06-.12 0-.18v-.06c-.12-.12-.12-.12-.06-.18l-.66-.18zM15.72 16.68h.12v.06l-.12-.06zM11.58 17.28h.12v.24c.12.18 0 .48 0 .66v.24h-.12c-.06 0-.12.12-.24.18 0 0-.06 0-.12.12h-.42c0-.18.36 0 .48-.12l.06-.06h.18s.12-.06.12-.12v-.12V17.46l-.06-.18z" fill="#fff"/><path fill-rule="evenodd" clip-rule="evenodd" d="M12.059 15.84c0 .06 0 .06 0 0v-.3h.06v-.12s-.12.12-.12 0c0-.06-.12-.06-.12-.18v-.12c0-.12-.12 0-.18 0V15.9s.06 0 0 .12v.42h-.06l-.12-.12v.42h-.06v-.18-.24-.12-.12c0-.12-.06-.06 0-.12-.12-.36-.54-.36-.84-.6h-.06-.12-.54c0-.12-.12-.12-.12-.24h-.06V15h.06s.06.12.12.12h.36c0-.06 0-.24.12-.18 0 0 0 .12.06.12h.24s0-.06.12 0c0 .06-.12.12 0 .12 0 .06 0 .06 0 0 0 0 .06-.06 0-.12v.24c0 .06-.18 0-.24.06 0 .12-.06.12 0 .18h.06s0 .06.06.06h.06v-.18.12s0 .06.06.06c0 0 .06 0 .06-.06s-.06-.12 0-.18v-.06-.24c0-.06-.06-.06 0-.12l.12-.12h.54l.12-.12s0-.06.12-.06v.12c-.12 0-.12.12-.18.12 0 .06.06 0 .12 0h.18v-.18c.12 0 .24 0 .3-.06v-.12c0-.06-.12-.12-.12-.12h-.3.12s0-.12-.06-.12h-.06-1.02v.12h-.36v.18h-.06c0-.06-.3-.06-.36 0h-.12c-.12 0-.12 0-.24.06h-.06v.12h-.18s0 .06-.06.12c0 .06.06.12.12.12h.12c.12 0 0-.18 0-.24h.12l.06.06c0 .06 0 .12.12.12v.12h.6c.06 0 0 .06.12 0h.06s0 .12.12.12c-.18 0-.3-.18-.48-.12h-.42c0 .06-.12 0-.12.06h-.3s-.06 0-.12.12v.06c-.12 0-.12.12-.24.06v-.06c-.06 0-.12-.12-.18 0v.06h-.24s-.12 0-.12.06h-.18-.12-.6c-.06 0 0 .18 0 .18h.24v.18h.3s.06 0 .12-.12c0 0 0 .12.12.12v.12h.24v-.18h.24v-.12h.48v.06c0 .06-.12 0-.18.06h-.12.3v-.12l.06-.06c.06 0 .12-.06.24 0H10.319s0 .06.12.12l.12.12.06.06c0 .06.06.06 0 .18V16.8c0 .12-.12.12-.18.18H9.599h-.12.96v.06c-.06.06-.36 0-.42 0h-.06-.42-.06v-.06h.18c.06 0 .12 0 .18-.06h.18c.12.12.42 0 .54 0 .06 0 0-.18.06-.24l-.06-.06c.06 0 .12 0 .12.12l.06.06s.06-.24 0-.3v-.12-.06c-.06-.06 0-.06 0 0v.12h-.06s-.06-.12-.12-.18h-.06v.3h-.06v-.12.18l-.06.06c-.06 0 0-.24 0-.3 0 0 0-.12-.06-.18v.18l-.06.06s0-.12-.12-.12h-.12v.24s0 .06-.12 0v.12l-.06.06v-.36h-.12v.12h-.24v.18s0-.06-.06-.06v.06h-.12v-.18h-.12v-.12-.24l.06-.06v-.06h-.12v.12-.12-.06h-.06v-.06h-.18v.24s-.06.06 0 .12c-.06 0 0-.24 0-.3h-.12v-.06h-.18v-.12h.12c0-.06 0-.12.06-.12h1.02s.12 0 .06-.12h-.06c-.06 0-.06-.3 0-.36l.06.06v.12c0 .06.12.12.18.18h.42c0-.12 0-.18-.06-.3v-.06c0-.12-.18-.24-.24-.12l-.12.12s0 .06-.06.12h-.18v-.18c.06 0 0-.12 0-.12v-.06h.12c.12-.06.12-.18.24-.3.12 0 .12-.12.18-.12.12 0 .18-.12.24-.24h.18c.12 0 .18-.12.3-.12h.36c.06-.18.18-.36.48-.36 0 0 .06 0 .06-.12v-.06h.36c0-.06.18 0 .24-.12H13.199s.12.12.18.12c0 .06 0 .18.18.12 0 .12.12.12.18.24 0 .12 0 .12.12.12h.12s0 .12.12.12c.06.06.12.12.24.18h.48c.12 0 .12.24.24.24h.3s.06 0 0 .12h.12c0 .06.12.24 0 .3 0 .06.12.12.06.24-.3 0-.42.06-.54.18h.24s.06 0 .12-.12h.6l.06.12c0 .06.24 0 .36 0 .12.06.12.24.24.3l.12.12h.12s0 .06.12.12v.24c0 .06-.12 0-.18 0h-.12c0 .06-.3 0-.3 0v.6h-.12v.66s0-.12-.12-.12v-.24h-.36s0 .12-.06.12v.18-.18s-.06-.12-.18-.12h-.18V18.06h.54s.12 0 .12.06h-.48v.06h-.12v.12h-.24l-.12-.12h-.24s.12.12.18.12h.12s-.06.06-.12.06c0 0-.06-.12-.12 0h-.48s0-.06-.06 0l-.12-.12c0-.06-.06-.06 0-.12V17.22v-.42-.42-.36-.12c0-.06-.06-.06-.12-.12 0-.12-.12-.06-.12-.24h.42l-2.34.3zm1.98-1.26c-.12 0-.18.06-.3 0h-.3c-.06.06-.12.18-.3.18-.06-.06-.12.06-.24 0 0 .18-.24.18-.18.36h.36v.12c-.12 0-.18.06-.24.12h-.36c-.12 0-.18.12-.24.18 0 .12-.06.18 0 .3v.06-.06h.06v.18s.12 0 .12.12h.48s.06 0 .12-.12H13.679l.06-.06s0-.06.06-.06h.12c.06 0 .12-.12.18-.18 0 0 .06 0 .12-.12 0 0 0-.06.06-.12h.18v-.06-.06c0-.06-.06 0-.12 0 0 0-.12 0-.12-.06s-.18 0-.24 0h-.18c-.06.12-.24.12-.36.24h-.12.06s.06 0 .12-.06l.06-.06v-.12c0-.12-.06-.12-.12-.12l.6-.6zm-3.06.3s-.12-.06-.12 0h.12zm4.86 1.14c-.06-.06-.18.12-.36 0h-.18s-.12.12-.24.06h-.6c-.12 0-.18.12-.24.18v.06c0 .06-.06.18-.12.24v.18s-.06 0-.12.12l-.12.06c-.06 0-.12 0-.18.06v.06h.12s.06 0 .12.12h.42v.12h.06l.12-.12v-.06c0-.06.06-.06.12 0h.06s0 .06.06 0h.06s0-.12.12-.18c0 0 0-.06.06-.12h.3c.06 0 .06-.12.12-.18v-.06h.72v-.12h-.36v-.12c0-.06 0 0-.06 0v-.12h-.18-.24s.12-.06.06-.18h.48zm-2.34.24c-.12-.06-.18.12-.24.12h-.24c-.12-.12-.3 0-.42 0 0 0-.06 0-.06.12v.06h.9s.06 0 .12-.12l.06-.06v-.06-.12h-.36l.24.06zm-.48.48h-.72v.18h.54s.06 0 .06-.12c-.06 0-.12-.06-.18-.12l.3.06zm-3.3.24c-.12.06-.18.12-.24.24v.12s0 .06.12.12h.06c0-.06.12 0 .12-.12v-.24h-.24l.18-.12zm3.6.12c-.06-.24-.42-.12-.54 0 0 0-.06 0-.06.12V18.06c0 .12 0 .24.06.3.06 0 0 .06.06.12h.48c.06 0 .42.06.42 0l.06-.06v-.66-.24h-.24v.3-.36c0-.06-.12-.12-.18-.18h-.12v.6-.3-.42l.06-.06zm-2.58 0c-.12-.06-.36-.12-.48 0v.18c.06 0 .12.18.24.18s.24-.06.3-.12v-.18l-.06-.06zm-1.68.12h-.42c-.06 0 0 .12-.06.12 0 .12 0 .18.06.18h.24v-.24l.18-.06zm3.42.24h-.06v.12c0 .06 0 .12.06.12v-.24zm.24 1.08s-.12-.06-.12 0c0 0 0 .12.06.12s.06.06.18 0h.12v-.12h-.12-.12z" fill="#fff"/><path d="M15.6 9.06l.06-.06v-.12h-.12l.12.12-.06.06zM13.92 11.76h.18l.06-.06h.06c0-.24-.3-.18-.48-.12v.18c0 .06.12.121.12.181l.06-.18zM14.76 11.64s.06 0 .12.12l.12.12h.12s0-.06.12-.12c0 0 0-.06.12-.12h-.06s-.12-.06-.12-.12h-.48c0 .06.12.12.18.18l-.12-.06z" fill="#fff"/><path d="M15.359 11.46c.06 0 .12.12.18.18 0-.06.12-.12.18-.18h-.6s.06 0 .06.12l.18-.12zM15.898 11.52h-.12l.12.12s.12.06.12.12c0 0 .06-.06.12-.06l.12-.12.12-.12h-.06c0-.06-.24-.06-.3 0h-.06-.06v.06zM14.22 11.76s-.12 0-.12.12c0 0 .06 0 .12.12l.12.12.06.06h.12s0-.06.12-.06c0 0-.12-.12-.18-.12 0 0-.12 0-.12-.06s-.18-.12-.24-.18l-.06.06-.12.12V12l.3-.24zM15.6 10.32s0-.06.12-.12h-.36s.06.12.12.12h.12zM15.659 10.32c0 .12.18.18.24.24.12 0 .12-.12.24-.18 0 0 .06 0 .12-.06h-.06l-.06-.06h-.24s-.06 0-.12.06h-.12z" fill="#fff"/><path d="M15 12.66c.12 0 .36 0 .36.06v.18c.06.12.12.18.24.24h.12c0-.12.18-.18.18-.3v-.24h1.74v-.12-.54V11.16h-1.68 1.02v-.54-.24-.3c-.36-.12-.78 0-1.14-.06H16.5V9.9v-.12-.42-.42h-.48v-.12h.48v-.06-.12-.72h-.36.36V7.8v-.84h-.3s-.12-.06-.06-.18h.06c0-.18 0-.24-.06-.3.12-.18-.06-.3-.18-.36 0 0 0 .06-.12.12v.36s0 .06.12.12v.12h-.3v.96h.36-.48v.78c.12.06.42 0 .54 0v.12h-.42v1.02h.78v.06h-1.2v1.08h1.2c0 .06-.12 0-.18 0H14.7v1.5H16.08l-1.08.3zm.66.36c0 .12-.24 0-.18-.06h.12v-.06h-.18.06v.24l.18-.12zm-.12-.42h.06-.12.06zm.54-.12h-.36c-.06.06-.18 0-.24 0h-.24c-.06.06-.12 0-.24 0h-.18l.06-.06s.06 0 .12.06l.06-.12h.12l.06-.12s.06 0 .12.12l.06-.06s.06 0 .12.06l.06-.06h.06l.06-.06.12.12.24.12zm1.44-.12v.18h-.12c-.12 0-.18.12-.24 0-.06 0-.12.12-.24 0h-.12s-.12.06-.12 0h-.12s-.12.06-.18 0h-.18c-.06 0 0-.12.06-.12l.06.06.06-.06.06.06.06.06s.06-.12.12-.06l.06.06s.12-.12.12 0c.12 0 .18-.12.18-.06l.54-.12zm-1.56-5.4s-.06.06-.06 0h.06zm0 .24s.06 0 0 .06V7.2zm-.12-.48h.18v.12s-.12-.06-.12-.12h-.06zm-.12.54s-.12-.12 0-.12v.12zm0-.24v.06s0-.12.12-.06h-.12zm-.24-.9v-.06l.06.06h-.12.06zm.12.24h-.12c0-.06.12-.06.12 0zm-.12.24h.06-.12v-.12l.06.12zm.06.36h-.12V6.9l.12.06zm-.12.24s-.06.12-.12.06V7.2h.12zm0-.18s-.06 0-.12-.06l.12.06zm-.3 0c0-.12.12-.18.12-.3h.12c0 .06-.06.12-.12.18v.12c-.06.06 0 .06 0 0V6.9l-.12.12zm0 .42s.12-.12.12 0h.48v.12h-.96l.36-.12zm.48.36h-.12v.06h.06v-.24h.12v.3l-.06-.12zm-.3.3l.12-.12s0-.06.12-.12l-.06.06c0 .06.12.06.12 0l.06-.06V7.8h.24v.06c0-.12.12.18 0 .12 0 0 0 .12-.06.12 0 0 0-.06.06-.12v-.06h-.06-.06s0 .12-.06.12l.12.12V8.1h-.06v-.06s-.12-.06-.12-.18h-.06v.06c-.06 0-.12.12-.12.06v-.12-.12s-.12-.06-.12-.12h.06l-.12.48zm-.18.24v-.12.12zm-.18-.3s0-.06.06-.06c0-.06.18-.06.18 0s-.12.12-.18.18h-.06c0-.06 0-.06.06-.12h-.06zm.42.42h-.12-.06-.06v-.12h.42s.06-.06.12 0h.36v.12c0 .06 0 0-.12 0h-.12c0-.06-.06 0-.12 0h-.3zm.12.66c0-.06-.06-.12-.12-.18v-.06h.12v-.24h.12v.24h.18c0 .06-.12.12-.12.18v.06l.12-.12.06-.06c0-.12-.12-.12-.12-.24h.3c0 .06-.06.12-.12.12v.06l.12.12v.12h-.12v.06h-.06s0-.06.12-.12l-.06-.12c-.06 0 0-.12-.12-.12l-.12.12-.12.12v.12h-.24.06v-.12c-.12 0-.12.12-.24.18 0 .06.06.06.12.12h-.06-.24L15 9.3h.06s0-.06.12-.12h.12l.18-.06zm-.78 0v-.06-.12h-.18.48l-.12.12v.06l.18.18s-.06 0-.06-.12c0 0-.06 0-.06-.12 0 .12-.12.12-.12.18.06.12.12.18.24.24H15l-.12-.12v-.3l-.18.06zm.66.6h-.06-.12-.06-.06s.06.06.12 0h.42s0-.06.12 0h.24c0-.06.12 0 .12 0h.12s.12-.06.18 0v.06h-.12-.06-.06-.06s-.06-.06-.12 0h-.06c-.06 0-.06.06-.12 0h-.06-.12-.06l-.18-.06zm-1.08.9v-.24s0 .06.12.06v-.06s.06-.12.12-.12h-.24.66l-.12.12.12.12.12.12.12-.12s-.06 0-.06-.06c0 0-.06 0-.06-.12s.12 0 .12 0h.12v-.24h.12v.24h.96c0 .06 0 .06-.12.12 0 .06.06.12.12.18l.12.12v-.12.24h-.06-.24s0-.06.12-.12c0 0 .06-.12.12-.12v-.12h-.06l-.12-.12h-.06l-.12.12h-.06c0 .06.06.12.12.18h-.12-.12-.18.06v-.06l-.06-.06s-.06 0-.12.06h-.06v.06s.06 0 .06.12h-.12-.3.12l.06-.06h-.06-.06s-.12 0-.12-.06c0 .06-.18.12-.18.24 0 0 .06 0 .12.12 0 .06-.18.06-.18 0 0 0-.06 0-.12-.06h-.12l-.36-.36zm1.08.42h-.12-.42.36s0-.06.06 0h.36s-.06.12-.12 0h-.36.24zm-1.56 1.14v.12-.6-.3h1.5v-.24h.06v.18h1.62v.12h-.36-.06s-.12.12 0 .12l.12.12s0 .06.12.06c0 0 .06-.12.12-.12h.06c0 .12.06.42 0 .36h-.06l-.06-.12s0-.06-.06 0l-.06.06s-.12 0-.12.06v.12h-.3s.06-.12.12-.12c0-.06.12-.12.18-.18l.12-.12h-.06v-.06l-.06-.06-.12.12h-.06-.06-.06c.06.12.18.18.24.24 0 .06-.18.06-.24 0l-.06-.06s-.06 0 0-.06c0 .06-.18 0-.24 0h.06s0-.06.12-.12h-.06s-.12-.06-.12-.12c0 0-.06 0-.06-.06l.18.18h-.24s-.12-.06-.12-.12c0 0 0 .06-.12.06H15c-.12-.06-.18-.18-.3-.24l-.06.06-.84.72zm.3.36c-.06.06-.12 0-.18 0v-.06s.06.12 0 .12l.18-.06zm.06 0c0-.06.12 0 .12 0 .06 0 .12.06.12.12-.06.06-.12 0-.24 0h-.18l.18-.12z" fill="#fff"/><path d="M18.6 15.72l-6.54-3.66V4.32c1.98 0 3.9.9 5.28 2.34A7.742 7.742 0 0119.5 12c0 1.98-.36 2.58-.96 3.66l.06.06zm-6.42-3.66l6.42 3.6c.6-1.08.9-2.34.9-3.6 0-1.98-.78-3.84-2.16-5.28-1.38-1.44-3.18-2.22-5.16-2.28v7.56zM5.28 15.72c-.6-1.2-.96-2.46-.96-3.78 0-1.98.78-3.9 2.16-5.34 1.38-1.44 3.3-2.22 5.28-2.28v7.74l-6.54 3.66h.06zm6.48-11.34c-1.98 0-3.78.84-5.22 2.28-1.38 1.44-2.16 3.3-2.16 5.28 0 1.98.3 2.52.9 3.66L11.7 12V4.44l.06-.06zM11.94 19.62c-1.32 0-2.64-.36-3.78-1.02a7.594 7.594 0 01-2.7-2.64v-.06l6.48-3.66 6.48 3.66c-.66 1.14-1.62 2.04-2.76 2.7a7.597 7.597 0 01-3.78 1.02h.06zm-6.42-3.6c.66 1.08 1.56 1.92 2.7 2.58 1.14.66 2.4.96 3.72.96 1.32 0 2.58-.36 3.72-1.02 1.08-.6 1.98-1.5 2.7-2.58l-6.42-3.6-6.42 3.6v.06z" fill="#fff"/><path d="M11.94 20.04c-2.16 0-4.2-.84-5.7-2.34A8.032 8.032 0 013.9 12c0-2.16.84-4.2 2.34-5.7s3.54-2.34 5.7-2.34 4.2.84 5.7 2.34 2.34 3.54 2.34 5.7-.84 4.2-2.34 5.7a8.032 8.032 0 01-5.7 2.34zm0-16.02c-2.1 0-4.14.84-5.64 2.34A7.893 7.893 0 003.96 12c0 2.16.84 4.14 2.34 5.64s3.48 2.34 5.64 2.34c2.16 0 4.14-.84 5.64-2.34s2.34-3.48 2.34-5.64c0-2.16-.84-4.14-2.34-5.64a7.893 7.893 0 00-5.64-2.34z" fill="#fff"/></svg>