<svg viewBox="0 0 24 24" xmlns="http://www.w3.org/2000/svg">
    <rect width="24" height="24" fill="#E8248D" />
    <path transform="translate(-0.331543)"
        d="M12.271 20.46C9.99104 20.46 7.89104 19.56 6.27104 18C4.65104 16.44 3.81104 14.28 3.81104 12C3.81104 9.72004 4.71104 7.62004 6.27104 6.00004C7.89104 4.44004 9.99104 3.54004 12.271 3.54004C14.551 3.54004 16.651 4.44004 18.271 6.00004C19.831 7.62004 20.731 9.72004 20.731 12C20.731 14.28 19.831 16.38 18.271 18C16.651 19.56 14.551 20.46 12.271 20.46ZM12.271 3.66004C10.051 3.66004 7.95104 4.56004 6.39104 6.12004C4.83104 7.68004 3.93103 9.78004 3.93103 12C3.93103 14.22 4.83104 16.32 6.39104 17.88C7.95104 19.44 10.051 20.34 12.271 20.34C14.491 20.34 16.591 19.44 18.151 17.88C19.711 16.32 20.611 14.22 20.611 12C20.611 9.78004 19.711 7.68004 18.151 6.12004C16.591 4.56004 14.491 3.66004 12.271 3.66004Z"
        fill="white" />
    <path transform="translate(-0.331543)" fill-rule="evenodd" clip-rule="evenodd"
        d="M8.91107 5.7601C8.97107 5.6401 8.97107 5.5201 9.09107 5.4601C9.09107 5.4601 9.21107 5.5801 9.21107 5.6401C9.21107 5.7601 9.27107 5.8201 9.33107 5.8801C9.33107 6.0001 9.33107 6.0601 9.33107 6.1201C9.33107 6.2401 9.33107 6.2401 9.33107 6.3001V6.4201C9.33107 6.6601 9.39107 6.7201 9.33107 6.9601V7.0801V7.5001V7.3801V7.3201C9.33107 7.3201 9.33107 7.3201 9.33107 7.2601V7.1401V7.0201C9.33107 6.8401 9.33107 6.6001 9.33107 6.4201C9.33107 6.4201 9.33107 6.4201 9.33107 6.3601C9.33107 6.1801 9.21107 6.1201 9.21107 6.0001C9.21107 6.0001 9.21107 6.0001 9.33107 6.0001C9.33107 6.0001 9.33107 6.0601 9.39107 6.0601C9.39107 6.1201 9.51107 6.1801 9.57107 6.2401C9.57107 6.3001 9.57107 6.3001 9.57107 6.3001C9.57107 6.3601 9.63107 6.3601 9.57107 6.4801C9.57107 6.5401 9.57107 6.5401 9.57107 6.5401C9.57107 6.6001 9.57107 6.6001 9.57107 6.6601V6.7801V7.2601V7.3801V7.5001C9.57107 7.5001 9.51107 7.5001 9.45107 7.6201C9.45107 7.6801 9.39107 7.7401 9.33107 7.7401C9.21107 7.8001 9.15107 7.9201 9.03107 7.9201C9.03107 7.9201 8.91107 7.9201 8.79107 7.9201C8.79107 7.9201 8.79107 7.9201 8.73107 7.9801V8.1001V8.5201V8.5801C8.73107 8.5801 8.73107 8.6401 8.73107 8.7001V8.9401C8.73107 9.0601 8.73107 9.0601 8.73107 9.1201C8.73107 9.1801 8.55107 9.2401 8.61107 9.3601V9.4201V9.5401V9.9001C8.61107 9.9001 8.61107 9.9401 8.61107 10.0201V10.0801C8.61107 10.1401 8.61107 10.2601 8.61107 10.3201C8.61107 10.3801 8.61107 10.4401 8.61107 10.5001C8.61107 10.5601 8.61107 10.6201 8.61107 10.6201C8.61107 10.6801 8.61107 10.7401 8.61107 10.7401V11.1601C8.67107 11.1601 8.61107 11.2801 8.61107 11.3401C8.61107 11.3401 8.61107 11.3401 8.55107 11.4001V11.4601V11.5201C8.55107 11.5201 8.55107 11.5801 8.55107 11.6401C8.55107 11.6401 8.55107 11.6401 8.55107 11.7601C8.55107 11.7601 8.55107 11.7601 8.55107 11.8201C8.55107 11.8201 8.31107 11.6401 8.31107 11.5801C8.31107 11.4601 8.31107 11.3401 8.31107 11.2801C8.25107 11.1601 8.07107 11.1001 8.13107 10.9201V10.8001C8.13107 10.5601 8.13107 10.3201 8.13107 10.0801C8.19107 9.9601 8.13107 9.5401 8.13107 9.4201C8.13107 9.3001 8.13107 9.1801 8.13107 9.0601C8.13107 8.9401 8.13107 8.7601 8.13107 8.6401C8.13107 8.6401 8.13107 8.6401 8.07107 8.5801C8.01107 8.5201 8.07107 8.4601 8.07107 8.4601C8.07107 8.3401 8.07107 8.1001 8.07107 8.0401C8.07107 7.9201 8.07107 7.7401 8.07107 7.6201C8.07107 7.6201 8.07107 7.6201 8.01107 7.5601C8.01107 7.5601 7.89107 7.5601 7.83107 7.5601C7.83107 7.5601 7.77107 7.5601 7.71107 7.5601H7.65107H7.59107C7.59107 7.5601 7.59107 7.5001 7.47107 7.4401V7.3201C7.47107 7.2601 7.41107 7.2001 7.35107 7.0801V7.0201C7.35107 6.9601 7.35107 6.8401 7.35107 6.7801C7.35107 6.7801 7.41107 6.5401 7.35107 6.4801V6.4201V6.3001C7.35107 6.3001 7.35107 6.2401 7.35107 6.1801C7.41107 6.0601 7.53107 5.9401 7.53107 5.8201C7.65107 5.7001 7.71107 5.6401 7.83107 5.5201C7.95107 5.5201 7.95107 5.4001 8.01107 5.4601C8.01107 5.5201 7.89107 5.5801 7.89107 5.7001V5.7601C7.89107 5.7601 7.89107 5.7601 7.89107 5.8201C7.89107 6.0001 7.89107 6.2401 7.89107 6.3601C7.89107 6.3601 7.89107 6.3601 7.89107 6.4201V6.5401C7.89107 6.5401 7.89107 6.5401 7.89107 6.6001C7.89107 6.6601 7.89107 6.6601 7.89107 6.7201C7.89107 6.7201 7.89107 6.7801 7.89107 6.8401C7.89107 6.8401 7.95107 6.9001 8.01107 6.9601C8.07107 6.9001 8.01107 6.7201 8.01107 6.6001C8.01107 6.4801 8.01107 6.3601 8.01107 6.2401C8.01107 6.1201 8.01107 5.9401 8.01107 5.8801V5.7001C8.01107 5.7001 8.01107 5.7001 8.01107 5.6401C8.01107 5.4601 8.13107 5.3401 8.13107 5.1601C8.13107 5.1601 8.13107 5.1601 8.13107 5.1001C8.13107 5.1601 8.25107 5.1001 8.25107 4.9801L8.91107 5.7601ZM8.61107 8.6401V8.5801C8.61107 8.5801 8.43107 8.5801 8.49107 8.5801C8.49107 8.6401 8.49107 8.6401 8.49107 8.7001C8.49107 8.7601 8.61107 8.7001 8.55107 8.7001L8.61107 8.6401ZM9.03107 5.8801C9.03107 5.8801 9.03107 5.8801 9.03107 5.9401V5.8801ZM9.39107 8.4601C9.39107 8.2801 9.39107 8.0401 9.39107 7.8001C9.39107 7.5601 9.39107 7.3201 9.39107 7.1401C9.39107 7.0801 9.33107 7.0201 9.39107 6.9001C9.33107 6.7801 9.33107 6.5401 9.21107 6.4801V6.6001C9.21107 6.6601 9.21107 6.6601 9.21107 6.7201C9.21107 6.7201 9.21107 6.7201 9.21107 6.7801V7.0201V7.0801V7.8001V7.9201C9.21107 8.0401 9.21107 8.1001 9.21107 8.1601V8.2801V8.4001C9.21107 8.4001 9.21107 8.4001 9.27107 8.4001H9.39107C9.39107 8.4001 9.39107 8.4001 9.39107 8.3401V8.4601ZM8.97107 6.6601C8.97107 6.6601 8.97107 6.7201 8.97107 6.7801V6.8401V6.9001C8.97107 6.9001 8.97107 6.9001 8.97107 6.9601V7.0801C8.97107 7.0801 8.97107 7.0801 8.97107 7.2001C8.97107 7.4401 8.97107 7.6801 8.97107 7.9201C8.97107 7.9201 8.97107 8.0401 8.97107 8.1001V8.2201C8.97107 8.2201 8.97107 8.2201 8.97107 8.2801C8.97107 8.4001 8.97107 8.5201 9.09107 8.5201C9.09107 8.4001 9.09107 8.1601 9.09107 8.0401C9.03107 8.0401 9.09107 7.8001 9.09107 7.6801C9.09107 7.3201 9.09107 6.9001 9.09107 6.6601H8.97107ZM7.89107 7.2001C7.89107 7.2001 7.89107 7.0801 7.89107 7.1401C7.89107 7.2001 7.83107 7.2601 7.77107 7.3801C7.77107 7.3801 7.77107 7.5001 7.77107 7.5601C7.77107 7.5601 7.77107 7.5601 7.77107 7.6201C7.77107 7.7401 7.77107 7.8601 7.77107 7.9201C7.77107 8.0401 7.77107 8.1601 7.77107 8.2201V8.3401C7.77107 8.4601 7.89107 8.6401 8.01107 8.6401C8.01107 8.6401 8.19107 8.5201 8.13107 8.4601V8.4001C8.13107 8.3401 8.07107 8.2801 8.01107 8.2201C8.01107 8.2201 8.01107 8.2201 8.01107 8.1601V8.1001C8.01107 7.8601 8.01107 7.6201 8.01107 7.5001L7.89107 7.2001ZM10.4111 7.3201V7.3801C10.4111 7.6201 10.4111 7.7401 10.4111 7.9201C10.4111 8.0401 10.4111 8.0401 10.4111 8.0401C10.4111 8.0401 10.4111 8.1001 10.3511 8.1601C10.3511 8.1601 10.3511 8.2201 10.3511 8.2801L10.2311 8.4001C10.2311 8.4001 10.2911 8.4601 10.3511 8.5201C10.3511 8.5201 10.3511 8.5201 10.4111 8.4601V8.3401C10.4111 8.3401 10.4111 8.2801 10.4111 8.2201C10.4111 8.2201 10.4111 8.1001 10.4111 8.0401C10.3511 7.8601 10.4111 7.5601 10.2911 7.3801L10.4111 7.3201ZM10.2311 7.3201C10.2311 7.3201 10.2311 7.3201 10.2311 7.4401C10.2311 7.4401 10.2311 7.5001 10.2311 7.5601V7.6801C10.2311 7.6801 10.2311 7.6801 10.2311 7.7401C10.2311 7.8001 10.2311 7.8601 10.1711 7.9201C10.1711 7.9201 10.1711 7.9201 10.1111 7.9801C10.1111 8.0401 10.1111 8.0401 10.2311 8.1001C10.2311 8.1601 10.2911 8.1601 10.2311 8.1001V8.0401C10.2311 7.9201 10.3511 7.8601 10.2911 7.6801C10.2911 7.6801 10.2911 7.5001 10.2911 7.4401L10.2311 7.3201ZM8.07107 7.4401C8.07107 7.4401 8.07107 7.3801 8.07107 7.3201C8.01107 7.3201 8.07107 7.4401 8.07107 7.5001C8.07107 7.6201 8.07107 7.6801 8.07107 7.6801C8.07107 7.8601 8.19107 8.0401 8.25107 8.1601V8.2201C8.25107 8.2201 8.37107 8.1001 8.25107 8.0401C8.25107 8.0401 8.25107 7.9801 8.25107 7.9201C8.25107 7.9201 8.25107 7.8601 8.25107 7.8001V7.6801L8.07107 7.4401ZM8.49107 8.2201V8.3401V8.2801C8.49107 8.2801 8.49107 8.2801 8.43107 8.2801L8.49107 8.2201ZM9.69107 8.2201C9.69107 8.2201 9.63107 8.2201 9.57107 8.3401C9.57107 8.3401 9.57107 8.3401 9.57107 8.4601C9.63107 8.4001 9.57107 8.2801 9.57107 8.2801L9.69107 8.2201ZM9.69107 8.5801C9.69107 8.5801 9.57107 8.6401 9.57107 8.7001V8.8201C9.57107 8.7601 9.63107 8.7001 9.69107 8.6401C9.69107 8.6401 9.69107 8.5801 9.63107 8.6401L9.69107 8.5801ZM8.97107 8.8201C8.97107 8.8201 8.97107 8.7601 8.85107 8.7001C8.85107 8.7001 8.85107 8.7001 8.85107 8.7601L8.97107 8.8201ZM9.27107 8.7601C9.27107 8.7601 9.33107 8.7001 9.27107 8.6401V8.7601ZM8.73107 9.0001C8.73107 9.0001 8.73107 8.8801 8.67107 8.8801L8.73107 9.0001ZM8.97107 9.1201H9.09107V9.0601C9.09107 9.0601 9.03107 9.0601 8.97107 9.0601V9.1201ZM9.09107 9.4801H8.97107C8.97107 9.4801 8.97107 9.4801 8.97107 9.3601L9.09107 9.4801ZM8.73107 9.7801C8.73107 9.8401 8.85107 9.7801 8.73107 9.7801V9.7801ZM8.73107 11.1601C8.73107 11.2201 8.73107 11.3401 8.73107 11.4001C8.73107 11.4001 8.73107 11.1601 8.73107 11.1001V11.1601ZM8.85107 11.2801V11.3401V11.5201C8.91107 11.5201 8.91107 11.2801 8.85107 11.2801ZM8.61107 11.8801C8.61107 11.8801 8.61107 12.0001 8.61107 11.9401H8.67107L8.61107 11.8801ZM8.85107 12.1201H8.97107C9.03107 12.1201 9.15107 12.1201 9.15107 12.0601C9.15107 12.0601 8.97107 12.0601 8.91107 12.0601H8.85107V12.1201ZM9.21107 12.3601C9.21107 12.3601 9.21107 12.3601 9.15107 12.3601H9.21107ZM8.73107 12.3601C8.73107 12.4201 8.79107 12.3601 8.73107 12.3601V12.3601ZM8.91107 12.6601C8.97107 12.6601 9.03107 12.6601 9.03107 12.5401C9.03107 12.5401 8.91107 12.5401 8.91107 12.6601ZM9.03107 12.9601V13.0801C9.03107 13.2601 9.27107 13.0801 9.15107 13.0201L9.03107 12.9601Z"
        fill="white" />
    <path transform="translate(-0.331543)" fill-rule="evenodd" clip-rule="evenodd"
        d="M7.29028 7.67993C7.29028 7.67993 7.29028 7.80017 7.29028 7.92041H7.17004H7.10992C7.10992 7.92041 7.10992 7.92041 7.0498 7.92041C7.0498 7.92041 7.0498 7.92041 7.0498 7.80017C7.10992 7.80017 7.17004 7.74005 7.17004 7.67993H7.29028Z"
        fill="white" />
    <path transform="translate(-0.331543)" fill-rule="evenodd" clip-rule="evenodd"
        d="M10.8317 7.67993C10.8317 7.67993 10.9519 7.74005 11.012 7.80017C11.012 7.80017 11.012 7.80017 11.0721 7.86029C11.0721 7.92041 11.0721 7.98053 11.0721 7.98053C10.8918 7.98053 10.7715 7.92041 10.7114 7.80017C10.7114 7.80017 10.7114 7.80017 10.7114 7.74005L10.8317 7.67993Z"
        fill="white" />
    <path transform="translate(-0.331543)" fill-rule="evenodd" clip-rule="evenodd"
        d="M7.35104 7.9801C7.35104 7.9801 7.41104 7.9801 7.35104 8.0401C7.35104 8.0401 7.23104 8.0401 7.35104 8.1001C7.35104 8.1001 7.47104 8.1001 7.41104 8.1601C7.41104 8.1601 7.35104 8.1601 7.29104 8.2201C7.29104 8.2201 7.23104 8.2201 7.17104 8.2201H7.11104H6.99104H6.87104C6.87104 8.2201 6.87104 8.2201 6.87104 8.1601H6.81104C6.81104 8.1601 6.87103 8.1601 6.93103 8.0401H7.05104H7.11104L7.35104 7.9801Z"
        fill="white" />
    <path transform="translate(-0.331543)" fill-rule="evenodd" clip-rule="evenodd"
        d="M10.7705 7.97993C10.7705 7.97993 10.8905 8.03993 10.9505 8.03993H10.8305C10.7705 8.09993 10.7105 8.03993 10.6505 8.03993C10.6505 8.03993 10.6505 8.03993 10.5905 8.03993C10.5905 8.03993 10.5905 8.03993 10.5305 8.03993C10.4705 8.03993 10.5305 8.03993 10.4705 8.03993C10.4705 8.03993 10.4705 8.03993 10.4105 8.03993C10.3505 8.03993 10.2905 8.03993 10.2905 8.03993V7.91993C10.2905 7.91993 10.2905 7.97993 10.4105 7.91993C10.4105 7.91993 10.3505 7.91993 10.2905 7.91993C10.2905 7.85993 10.4105 7.91993 10.3505 7.79993L10.7705 7.97993Z"
        fill="white" />
    <path transform="translate(-0.331543)" fill-rule="evenodd" clip-rule="evenodd"
        d="M7.53089 8.81983C7.53089 8.81983 7.5309 8.81983 7.4709 8.93983C7.4109 8.93983 7.3509 9.05983 7.2909 9.11983C7.2909 9.11983 7.2309 9.11983 7.1709 9.23983C7.1709 9.11983 7.3509 9.05983 7.3509 8.99983C7.3509 8.93983 7.4709 8.87983 7.4709 8.87983C7.4709 8.87983 7.47089 8.87983 7.53089 8.87983C7.53089 8.87983 7.65089 8.75983 7.71089 8.69983L7.53089 8.81983Z"
        fill="white" />
    <path transform="translate(-0.331543)" fill-rule="evenodd" clip-rule="evenodd"
        d="M10.6502 8.94007C10.6502 8.94007 10.5902 8.94007 10.6502 8.82007C10.8302 9.00007 10.9502 9.18007 11.1302 9.30007C11.1302 9.36007 11.1302 9.42007 11.1302 9.42007C11.1302 9.42007 11.0702 9.36007 11.0102 9.30007H10.9502C10.9502 9.26007 10.9502 9.22007 10.9502 9.18007L10.7702 9.00007H10.7102C10.7102 8.94007 10.7102 8.88007 10.7102 8.88007L10.6502 8.94007Z"
        fill="white" />
    <path transform="translate(-0.331543)" fill-rule="evenodd" clip-rule="evenodd"
        d="M7.65048 8.94007C7.65048 8.94007 7.65047 8.94007 7.59047 9.00007C7.53047 9.00007 7.47047 9.12007 7.41047 9.18007V9.24007C7.41047 9.24007 7.35047 9.30007 7.29047 9.36007V9.42007C7.29047 9.42007 7.29047 9.42007 7.23047 9.48007C7.23047 9.42007 7.29048 9.36007 7.35048 9.36007L7.47047 9.24007C7.47047 9.24007 7.47047 9.24007 7.47047 9.12007C7.47047 9.12007 7.47047 9.12007 7.53047 9.06007C7.59047 9.00007 7.71047 8.94007 7.77047 8.82007L7.65048 8.94007Z"
        fill="white" />
    <path transform="translate(-0.331543)" fill-rule="evenodd" clip-rule="evenodd"
        d="M10.4702 8.93994C10.5902 9.05994 10.7102 9.17994 10.8302 9.29994C10.8302 9.41994 10.9502 9.41994 10.9502 9.47994C10.9502 9.59994 11.0702 9.59994 11.0702 9.65994C11.0702 9.77994 11.0102 9.71994 10.9502 9.77994V9.65994C10.9502 9.65994 10.9502 9.59994 10.8902 9.53994H10.8302C10.8302 9.41994 10.7702 9.41994 10.7102 9.35994V9.29994C10.7102 9.29994 10.6502 9.17994 10.5902 9.17994C10.5902 9.17994 10.5302 9.17994 10.5902 9.05994L10.4702 8.93994Z"
        fill="white" />
    <path transform="translate(-0.331543)" fill-rule="evenodd" clip-rule="evenodd"
        d="M7.77126 9.12001C7.77126 9.12001 7.83125 9.12001 7.89125 9.12001V9.24001C7.89125 9.24001 7.89125 9.30001 7.83125 9.36001V9.42001V9.48001C7.83125 9.48001 7.83126 9.54001 7.77126 9.60001V9.66001C7.77126 9.66001 7.77125 9.72001 7.71125 9.78001V9.84001C7.71125 9.96001 7.59125 9.96001 7.59125 10.08C7.59125 10.08 7.59125 10.08 7.53125 10.02C7.53125 10.02 7.53125 9.96001 7.59125 9.90001C7.59125 9.90001 7.59125 9.84001 7.59125 9.78001C7.59125 9.78001 7.59125 9.72001 7.59125 9.66001C7.59125 9.66001 7.59125 9.60001 7.59125 9.54001C7.59125 9.54001 7.59125 9.48001 7.59125 9.42001V9.36001C7.59125 9.36001 7.59125 9.30001 7.59125 9.24001C7.59125 9.24001 7.59126 9.12001 7.65126 9.12001C7.65126 9.12001 7.65126 9.18001 7.65126 9.24001C7.65126 9.24001 7.65126 9.30001 7.65126 9.36001C7.65126 9.36001 7.65126 9.42001 7.65126 9.48001C7.65126 9.48001 7.65125 9.54001 7.59125 9.60001V9.66001C7.59125 9.66001 7.53125 9.66001 7.59125 9.72001V9.78001V9.84001V9.90001C7.59125 9.84001 7.59126 9.78001 7.65126 9.72001V9.66001C7.77126 9.66001 7.77126 9.48001 7.77126 9.42001C7.77126 9.42001 7.83125 9.36001 7.83125 9.30001C7.89125 9.30001 7.89126 9.18001 7.95126 9.06001C7.95126 8.94001 8.07126 8.94001 8.07126 8.82001C8.07126 8.82001 8.07125 8.76001 8.13125 8.76001L7.77126 9.12001Z"
        fill="white" />
    <path transform="translate(-0.331543)" fill-rule="evenodd" clip-rule="evenodd"
        d="M10.3509 9.11987C10.3509 9.11987 10.4109 9.11987 10.4709 9.11987C10.4709 9.11987 10.4709 9.11987 10.5309 9.17987C10.5309 9.23987 10.5309 9.23987 10.5309 9.23987C10.5309 9.29987 10.5309 9.35987 10.6509 9.35987C10.6509 9.41987 10.6509 9.41987 10.6509 9.41987C10.6509 9.47987 10.6509 9.53987 10.7709 9.53987C10.7709 9.59987 10.7709 9.65987 10.8909 9.65987C10.8909 9.71987 10.8909 9.77987 11.0109 9.77987C11.0109 9.83987 11.0109 9.89987 11.1309 9.89987C11.1309 9.95987 11.1309 9.95987 11.1309 10.0199C11.1309 10.0799 11.1309 10.0799 11.1309 10.0799C11.1309 10.1399 11.1309 10.1399 11.1309 10.1999H11.0709C11.0709 10.1399 11.0709 10.1399 11.0709 10.0799C11.0709 10.0199 11.0709 10.0199 11.0709 9.95987C11.0709 9.95987 11.0709 9.95987 11.0709 10.0199C11.0709 10.0799 11.0709 10.0799 11.0709 10.0799C11.0709 10.0799 11.0709 10.1999 11.0709 10.2599V10.1999C11.0709 10.1999 11.0709 10.1399 11.0109 10.0799V9.95987C11.0109 9.89987 11.0109 9.83987 11.0109 9.83987V9.77987C10.9509 9.65987 10.8909 9.53987 10.7709 9.41987C10.7709 9.41987 10.7709 9.35987 10.7709 9.29987C10.7709 9.29987 10.7109 9.23987 10.7709 9.17987C10.7709 9.17987 10.7709 9.17987 10.8309 9.17987C10.8309 9.23987 10.8309 9.23987 10.8309 9.17987L10.3509 9.11987ZM10.4709 9.47987C10.4709 9.47987 10.4709 9.53987 10.5309 9.59987L10.4709 9.47987Z"
        fill="white" />
    <path transform="translate(-0.331543)" fill-rule="evenodd" clip-rule="evenodd"
        d="M8.01089 9.66005C8.01089 9.66005 8.07089 9.54005 8.13089 9.60005C8.13089 9.60005 8.1909 9.66005 8.1909 9.60005C8.1909 9.60005 8.19089 9.60005 8.31089 9.60005V9.66005V9.78005C8.31089 9.78005 8.25089 9.84005 8.31089 9.90005C8.31089 9.96005 8.2509 10.0201 8.1909 10.0201C8.0709 10.0201 7.9509 10.3201 7.9509 10.5001L8.0709 10.6201C8.0709 10.6201 8.0709 10.6201 8.0709 10.6801C8.0109 10.6801 8.0709 10.8601 7.9509 10.9201V11.0401C7.9509 11.0401 7.8909 11.1001 7.9509 11.1601V11.2201V11.3401C7.9509 11.3401 7.9509 11.3401 7.8909 11.3401C7.8909 11.2201 7.77089 11.1001 7.71089 10.9801V10.8601V10.7401C7.71089 10.6801 7.71089 10.5001 7.71089 10.5001C7.71089 10.5001 7.7109 10.5001 7.6509 10.4401C7.6509 10.4401 7.6509 10.4401 7.6509 10.3801V10.2601V10.2001C7.6509 10.2001 7.6509 10.2001 7.6509 10.1401V10.0801C7.7109 10.0801 7.7709 10.0201 7.7709 9.96005V9.84005C7.7709 9.84005 7.77089 9.84005 7.71089 9.84005C7.65089 9.90005 7.5909 9.96005 7.4709 10.0801C7.4109 10.2001 7.3509 10.3201 7.3509 10.3801C7.3509 10.3801 7.3509 10.5001 7.3509 10.5601C7.3509 10.6201 7.3509 10.6801 7.4709 10.7401C7.4709 11.1001 7.3509 11.3401 7.1709 11.5201V11.4601C7.1709 11.4601 7.1709 11.4601 7.1709 11.4001C7.2909 11.2801 7.2309 11.0401 7.1709 10.9801C7.1709 10.9201 7.1709 10.7401 7.1709 10.7401V10.6801C7.1709 10.6801 7.1709 10.6801 7.1709 10.6201C7.1709 10.6201 7.1709 10.6201 7.1709 10.5601V10.5001C7.1709 10.5001 7.17089 10.3801 7.23089 10.3201C7.23089 10.3201 7.2309 10.3201 7.2909 10.2601C7.2909 10.2601 7.35089 10.2601 7.41089 10.2001V10.1401C7.47089 10.1401 7.47089 10.0201 7.41089 10.0201L8.01089 9.66005Z"
        fill="white" />
    <path transform="translate(-0.331543)" fill-rule="evenodd" clip-rule="evenodd"
        d="M9.99102 9.59998C9.99102 9.59998 9.99103 9.59998 10.051 9.65998V9.77998C10.051 9.83998 10.171 9.95998 10.171 9.95998C10.231 9.95998 10.291 10.08 10.351 10.14C10.351 10.2 10.351 10.2 10.351 10.2C10.351 10.26 10.351 10.26 10.351 10.26C10.351 10.32 10.351 10.32 10.351 10.32C10.351 10.38 10.351 10.38 10.351 10.38V10.5C10.351 10.56 10.351 10.62 10.351 10.62C10.351 10.62 10.351 10.62 10.351 10.68V10.8C10.351 10.98 10.351 11.16 10.351 11.28C10.351 11.34 10.471 11.4 10.531 11.46C10.531 11.46 10.531 11.52 10.531 11.58H10.411V11.52C10.411 11.52 10.351 11.46 10.291 11.4V11.34C10.291 11.22 10.291 11.04 10.291 10.92C10.291 10.92 10.291 10.92 10.291 10.86C10.291 10.8 10.291 10.62 10.291 10.56V10.44V10.38V10.32V10.26C10.291 10.26 10.231 10.26 10.171 10.26V10.38V10.5C10.231 10.62 10.351 10.62 10.471 10.74V10.86C10.471 11.04 10.591 11.04 10.591 11.16L10.471 11.28C10.471 11.52 10.591 11.58 10.591 11.88V11.94V12C10.591 12 10.591 12 10.531 12C10.531 12 10.531 12 10.531 11.88C10.531 11.88 10.531 11.64 10.531 11.58V11.46C10.531 11.28 10.531 11.16 10.651 11.1V11.04V10.92C10.651 10.92 10.651 10.74 10.531 10.8C10.531 10.8 10.531 10.8 10.471 10.8V10.68V10.62C10.471 10.5 10.411 10.44 10.471 10.32C10.591 10.38 10.591 10.32 10.591 10.32L9.99102 9.59998ZM9.99102 9.83998C9.99102 9.83998 9.99102 9.83998 9.99102 9.77998V9.83998Z"
        fill="white" />
    <path transform="translate(-0.331543)" fill-rule="evenodd" clip-rule="evenodd"
        d="M11.1304 15.5399C11.1304 15.5399 11.1304 15.5399 11.1904 15.5399V15.5999C11.1904 15.5999 11.2504 15.5999 11.3104 15.5999C11.3104 15.5999 11.3704 15.5999 11.4304 15.5999V15.6599C11.4304 15.6599 11.4304 15.7799 11.4304 15.8399C11.4304 15.8399 11.4304 15.8999 11.4304 15.9599V16.2599V16.3799C11.3104 16.4999 11.1304 16.4999 10.9504 16.4999C10.9504 16.4399 10.7104 16.4999 10.7104 16.3799C10.3504 16.3799 9.93035 16.3799 9.69035 16.3799V16.2599C9.63035 16.1999 9.51035 16.0799 9.39035 16.0799C9.39035 16.0799 9.39035 16.0799 9.51035 16.0799C9.51035 16.0799 9.51035 16.1399 9.51035 16.1999C9.33035 16.1999 9.21035 16.0799 9.03035 16.1399C8.97035 16.0799 8.73035 16.1399 8.61035 16.1399C8.61035 16.1399 8.73035 16.1399 8.79035 16.1399H8.91035C8.91035 16.0799 9.03035 16.1399 9.09035 16.1399C9.09035 16.1399 9.21035 16.1399 9.33035 16.1399C9.45035 16.1399 9.57035 16.1399 9.69035 16.1399C9.69035 16.1399 9.69035 16.1999 9.81035 16.2599C9.81035 16.2599 9.81036 16.3199 9.87036 16.3199C9.87036 16.3199 9.87035 16.3199 9.93035 16.3199L10.0504 16.4399C10.1704 16.4399 10.2904 16.4399 10.4104 16.4399H10.4704H10.6504C10.6504 16.4399 10.6504 16.4399 10.6504 16.3799C10.6504 16.3799 10.6504 16.2599 10.7104 16.2599C10.7104 16.0799 10.7104 15.8399 10.5904 15.7799C10.4704 15.7799 10.4104 15.7199 10.2904 15.7799C10.2304 15.7799 10.1704 15.8999 10.1104 15.8999C10.1104 15.9599 9.99035 15.8999 9.99035 15.9599C9.87035 15.9599 9.63036 16.0199 9.45036 15.9599C9.57036 15.9599 9.51036 15.9599 9.57036 15.9599H9.69035C9.69035 15.9599 9.75035 15.8999 9.81035 15.8399C9.81035 15.8399 9.81035 15.7799 9.93035 15.7799V15.6599L11.1304 15.5399Z"
        fill="white" />
    <path transform="translate(-0.331543)" fill-rule="evenodd" clip-rule="evenodd"
        d="M8.13147 16.4999C8.13147 16.4999 8.13147 16.4999 8.19159 16.4999C8.19159 16.4999 8.07135 16.4999 8.01123 16.4999C8.01123 16.4999 8.01123 16.4999 8.01123 16.4398L8.13147 16.4999Z"
        fill="white" />
    <path transform="translate(-0.331543)" fill-rule="evenodd" clip-rule="evenodd"
        d="M8.25098 16.86C8.25098 16.86 8.25097 16.7999 8.37121 16.86C8.37121 16.86 8.43133 16.86 8.37121 16.9802C8.37121 16.9802 8.37121 16.9802 8.31109 16.9802V16.86H8.25098Z"
        fill="white" />
    <path transform="translate(-0.331543)" fill-rule="evenodd" clip-rule="evenodd"
        d="M11.8513 13.7999H12.2113C12.2113 13.8599 12.2113 13.7999 12.2113 13.9199C12.2113 13.9199 12.1513 13.9199 12.0913 13.9199H11.9713C11.9713 13.9199 11.9113 13.9199 11.8513 13.9199H11.7313C11.7313 13.9199 11.7313 13.9199 11.6713 13.9199L11.8513 13.7999Z"
        fill="white" />
    <path transform="translate(-0.331543)" fill-rule="evenodd" clip-rule="evenodd"
        d="M11.5513 14.28C11.5513 14.2198 11.6715 14.2198 11.6715 14.28H11.5513Z" fill="white" />
    <path transform="translate(-0.331543)" fill-rule="evenodd" clip-rule="evenodd"
        d="M12.2119 16.6199C12.2119 16.6199 12.2119 16.6799 12.2119 16.7399V17.7599C12.2119 17.8199 12.2119 17.8199 12.3319 17.8799V18.0599C12.3319 18.1799 12.3319 18.2399 12.3319 18.2999V18.4199C12.3319 18.4799 12.3319 18.5399 12.3319 18.5399C12.3319 18.5999 12.3319 18.5999 12.3319 18.5999C12.3319 18.6599 12.5119 18.5999 12.5719 18.5999C12.5719 18.5999 12.5719 18.5999 12.5719 18.6599C12.5719 18.6599 12.5119 18.6599 12.4519 18.6599C12.4519 18.7799 12.6319 18.7199 12.6919 18.7799C12.8119 18.7799 12.8719 18.8999 12.9919 18.8999C12.9919 18.8999 12.9919 18.9599 12.9919 19.0199H13.3519V19.1399H13.2319C13.2319 19.1399 13.2319 19.1399 13.1119 19.1399C13.1119 19.1399 12.9919 19.1399 12.9319 19.1399C12.9319 19.1399 12.9919 19.1399 12.9319 19.2599C12.9319 19.2599 12.8719 19.2599 12.8119 19.2599H12.7519H12.6319C12.5719 19.2599 12.6319 19.2599 12.5119 19.2599H12.4519C12.4519 19.2599 12.4519 19.2599 12.3919 19.2599C12.3919 19.2599 12.3919 19.2599 12.3319 19.2599H12.2719C12.2719 19.2599 12.2119 19.2599 12.2119 19.1399C12.2119 19.1399 12.2719 19.0799 12.3319 19.0199C12.3319 19.0199 12.4519 19.0199 12.4519 18.8999H12.5719H12.6319C12.6319 19.0199 12.8119 19.0199 12.9319 19.0799C13.1119 19.0799 13.2319 19.1999 13.2919 19.2599C13.2919 19.2599 13.3519 19.2599 13.4119 19.2599C13.4119 19.2599 13.4119 19.1999 13.4119 19.1399C13.4119 19.1399 13.4119 19.1399 13.4119 19.0799C13.4119 19.0799 13.4119 19.0799 13.3519 19.0799C13.3519 19.0799 13.2319 19.0799 13.1119 19.0799C13.1119 19.0799 13.0519 18.9599 12.9919 19.0199C12.9919 19.0199 12.9919 18.8999 12.9319 18.8999V18.6599C12.9319 18.4799 12.9319 18.3599 12.9319 18.2999V17.9999C12.9319 17.9399 12.9319 17.9399 12.9319 17.9399V17.5199C12.9319 17.5199 12.9319 17.5199 12.9319 17.4599C12.9319 17.3999 12.9319 17.3999 12.9319 17.3399V17.2199C12.9319 17.1599 12.8719 17.0999 12.9319 17.0399V16.9799C12.8119 16.8599 12.8119 16.8599 12.8719 16.7999L12.2119 16.6199Z"
        fill="white" />
    <path transform="translate(-0.331543)" fill-rule="evenodd" clip-rule="evenodd"
        d="M16.0508 16.6799H16.171V16.7401L16.0508 16.6799Z" fill="white" />
    <path transform="translate(-0.331543)" fill-rule="evenodd" clip-rule="evenodd"
        d="M11.9109 17.2799C11.9109 17.2799 11.9709 17.2799 12.0309 17.2799V17.3999V17.5199C12.1509 17.6999 12.0309 17.9999 12.0309 18.1799V18.2999C12.0309 18.2999 12.0309 18.3599 12.0309 18.4199C12.0309 18.4199 11.9709 18.4199 11.9109 18.4199C11.8509 18.4199 11.7909 18.5399 11.6709 18.5999C11.6709 18.5999 11.6109 18.5999 11.5509 18.7199C11.4309 18.7199 11.2509 18.7199 11.1309 18.7199C11.1309 18.5399 11.4909 18.7199 11.6109 18.5999C11.6109 18.5999 11.6109 18.5999 11.6709 18.5399H11.7309H11.8509C11.8509 18.5399 11.9709 18.4799 11.9709 18.4199C11.9709 18.2999 11.9709 18.2999 11.9709 18.2999C11.9709 18.0599 11.9709 17.7599 11.9709 17.5199V17.4599L11.9109 17.2799Z"
        fill="white" />
    <path transform="translate(-0.331543)" fill-rule="evenodd" clip-rule="evenodd"
        d="M12.3905 15.84C12.3905 15.9 12.3905 15.9 12.3905 15.84C12.3905 15.78 12.3905 15.84 12.3905 15.78V15.66V15.54C12.3905 15.54 12.3905 15.54 12.4505 15.54C12.4505 15.54 12.4505 15.48 12.4505 15.42C12.4505 15.42 12.3305 15.54 12.3305 15.42C12.3305 15.36 12.2105 15.36 12.2105 15.24V15.12C12.2105 15 12.0905 15.12 12.0305 15.12V15.42C12.0305 15.48 12.0305 15.54 12.0305 15.54V15.72V15.78V15.9C12.0305 15.9 12.0905 15.9 12.0305 16.02C12.0305 16.08 12.0305 16.08 12.0305 16.14C12.0305 16.14 12.0305 16.14 12.0305 16.2C12.0305 16.26 12.0305 16.32 12.0305 16.32V16.44C12.0305 16.44 12.0305 16.44 11.9705 16.44C11.9705 16.44 11.9105 16.38 11.8505 16.32C11.8505 16.32 11.8505 16.32 11.8505 16.38V16.74H11.7905V16.56C11.7905 16.5 11.7905 16.5 11.7905 16.44V16.32C11.7905 16.32 11.7905 16.26 11.7905 16.2C11.7905 16.14 11.7905 16.08 11.7905 16.08C11.7905 15.96 11.7305 16.02 11.7905 15.96C11.6705 15.6 11.2505 15.6 10.9505 15.36H10.8905C10.8905 15.36 10.8905 15.36 10.8305 15.36H10.7705C10.7705 15.36 10.7705 15.36 10.7105 15.36C10.5305 15.36 10.3505 15.36 10.2305 15.36C10.2305 15.24 10.1105 15.24 10.1105 15.12H10.0505C10.0505 15.12 10.0505 15.06 10.0505 15H10.1105C10.1105 15 10.1705 15.12 10.2305 15.12H10.4705C10.4705 15.12 10.5305 15.12 10.5905 15.12C10.5905 15.06 10.5905 14.88 10.7105 14.94C10.7105 14.94 10.7105 15.06 10.7705 15.06C10.7705 15.06 10.8305 15.06 10.8905 15.06H11.0105C11.0105 15.06 11.0105 15 11.1305 15.06C11.1305 15.12 11.0105 15.18 11.1305 15.18C11.1305 15.24 11.1305 15.24 11.1305 15.18C11.1305 15.18 11.1905 15.12 11.1305 15.06V15.18C11.1305 15.18 11.1305 15.18 11.1305 15.24V15.3C11.1305 15.36 10.9505 15.3 10.8905 15.36C10.8905 15.48 10.8305 15.48 10.8905 15.54C10.8905 15.54 10.8905 15.54 10.9505 15.54C10.9505 15.54 10.9505 15.6 11.0105 15.6C11.0105 15.6 11.0105 15.6 11.0705 15.6V15.42C11.0705 15.54 11.0705 15.54 11.0705 15.54C11.0705 15.54 11.0705 15.6 11.1305 15.6C11.1305 15.6 11.1905 15.6 11.1905 15.54C11.1905 15.48 11.1305 15.42 11.1905 15.36V15.3C11.1905 15.24 11.1905 15.24 11.1905 15.18V15.06C11.1905 15 11.1305 15 11.1905 14.94L11.3105 14.82H11.8505C11.8505 14.82 11.9105 14.76 11.9705 14.7C11.9705 14.7 11.9705 14.64 12.0905 14.64V14.76C11.9705 14.76 11.9705 14.88 11.9105 14.88C11.9105 14.94 11.9705 14.88 12.0305 14.88H12.1505H12.2105C12.2105 14.88 12.2105 14.88 12.2105 14.82V14.7C12.3305 14.7 12.4505 14.7 12.5105 14.64C12.5105 14.52 12.5105 14.52 12.5105 14.52C12.5105 14.46 12.3905 14.4 12.3905 14.4H12.2705H12.0905H12.2105C12.2105 14.4 12.2105 14.28 12.1505 14.28C12.1505 14.28 12.1505 14.28 12.0905 14.28C12.0905 14.28 12.0905 14.28 11.9705 14.28H11.8505H11.7305H11.3105H11.2505H11.1305H11.0705C11.0705 14.28 11.0705 14.28 11.0705 14.34C11.0705 14.34 11.0705 14.34 11.0705 14.4H11.0105C10.9505 14.4 10.8305 14.4 10.7705 14.4H10.7105C10.7105 14.4 10.7105 14.4 10.7105 14.46V14.58H10.6505C10.6505 14.52 10.3505 14.52 10.2905 14.58H10.1705C10.0505 14.58 10.0505 14.58 9.93049 14.64H9.87049C9.87049 14.7 9.87049 14.64 9.87049 14.76H9.81049H9.69049C9.69049 14.76 9.69049 14.82 9.63049 14.88C9.63049 14.94 9.69049 15 9.75049 15H9.81049C9.81049 15 9.81049 15 9.87049 15C9.99049 15 9.87049 14.82 9.87049 14.76H9.99049C9.99049 14.76 9.99049 14.76 10.0505 14.82C10.0505 14.88 10.0505 14.94 10.1705 14.94C10.1705 15 10.1705 15 10.1705 15.06C10.2305 15.06 10.2905 15.06 10.4105 15.06C10.4105 15.06 10.4105 15.06 10.4705 15.06H10.7705C10.8305 15.06 10.7705 15.12 10.8905 15.06H10.9505C10.9505 15.06 10.9505 15.18 11.0705 15.18C10.8905 15.18 10.7705 15 10.5905 15.06C10.4705 15.06 10.2305 15.06 10.1705 15.06C10.1705 15.12 10.0505 15.06 10.0505 15.12C10.0505 15.12 9.99049 15.12 9.93049 15.12H9.87049H9.75049C9.75049 15.12 9.69049 15.12 9.63049 15.24V15.3C9.51049 15.3 9.51049 15.42 9.39049 15.36V15.3C9.33049 15.3 9.27049 15.18 9.21049 15.3C9.21049 15.3 9.21049 15.3 9.21049 15.36C9.15049 15.36 8.97049 15.36 8.97049 15.36C8.97049 15.36 8.85049 15.36 8.85049 15.42C8.85049 15.42 8.73049 15.42 8.67049 15.42C8.67049 15.42 8.61049 15.42 8.55049 15.42C8.55049 15.42 8.49049 15.42 8.43049 15.42H8.31049H8.19049C8.13049 15.42 8.01049 15.42 7.95049 15.42C7.89049 15.42 7.95049 15.6 7.95049 15.6C8.07049 15.6 8.13049 15.6 8.19049 15.6C8.19049 15.66 8.19049 15.78 8.19049 15.78C8.19049 15.78 8.19049 15.78 8.25049 15.78H8.37049H8.49049C8.49049 15.78 8.55049 15.78 8.61049 15.66C8.61049 15.66 8.61049 15.78 8.73049 15.78V15.9H8.79049C8.79049 15.9 8.91049 15.9 8.97049 15.9C8.97049 15.9 8.97049 15.84 8.97049 15.78V15.72C8.97049 15.72 9.03049 15.72 9.09049 15.72C9.09049 15.72 9.15049 15.72 9.21049 15.72V15.6C9.21049 15.6 9.33049 15.6 9.39049 15.6H9.51049H9.63049C9.63049 15.6 9.63049 15.6 9.69049 15.6C9.69049 15.6 9.69049 15.6 9.69049 15.66C9.69049 15.72 9.57049 15.66 9.51049 15.72H9.39049C9.39049 15.72 9.51049 15.72 9.57049 15.72H9.63049H9.69049C9.69049 15.72 9.69049 15.66 9.69049 15.6C9.69049 15.6 9.69049 15.6 9.75049 15.54C9.81049 15.54 9.87049 15.48 9.99049 15.54H10.1105H10.2305H10.2905H10.3505H10.4705C10.5305 15.54 10.5905 15.54 10.6505 15.54C10.6505 15.54 10.6505 15.6 10.7705 15.66C10.7705 15.66 10.8305 15.72 10.8905 15.78C10.8905 15.78 10.8905 15.78 10.9505 15.84C10.9505 15.9 11.0105 15.9 10.9505 16.02V16.14V16.26V16.38V16.5V16.62C10.9505 16.62 10.9505 16.62 10.9505 16.68C10.9505 16.8 10.9505 16.8 10.9505 16.8C10.9505 16.92 10.8305 16.92 10.7705 16.98C10.7705 16.98 10.7705 16.98 10.7105 16.98C10.4705 16.98 10.1705 16.98 9.93049 16.98C9.93049 16.98 9.87049 16.98 9.81049 16.98C9.93049 16.98 10.1705 16.98 10.2305 16.98C10.3505 16.98 10.4705 16.98 10.5305 16.98C10.5905 16.98 10.7105 16.98 10.7705 16.98C10.7705 16.98 10.7705 16.98 10.7705 17.04C10.7105 17.1 10.4105 17.04 10.3505 17.04C10.3505 17.04 10.3505 17.04 10.2905 17.04C10.2905 17.04 10.1105 17.04 10.0505 17.04H9.99049H9.87049C9.87049 17.04 9.87049 17.04 9.81049 17.04C9.81049 17.04 9.81049 17.04 9.81049 16.98H9.99049C10.0505 16.98 10.1105 16.98 10.1705 16.92C10.1705 16.92 10.2905 16.92 10.3505 16.92C10.4705 17.04 10.7705 16.92 10.8905 16.92C10.9505 16.92 10.8905 16.74 10.9505 16.68C10.9505 16.68 10.9505 16.68 10.8905 16.62C10.9505 16.62 11.0105 16.62 11.0105 16.74C11.0105 16.74 11.0105 16.74 11.0705 16.8C11.0705 16.8 11.1305 16.56 11.0705 16.5V16.38C11.0705 16.38 11.0705 16.38 11.0705 16.32C11.0105 16.26 11.0705 16.26 11.0705 16.32V16.38V16.44C11.0705 16.44 11.0705 16.44 11.0105 16.44C11.0105 16.44 10.9505 16.32 10.8905 16.26H10.8305V16.56C10.8305 16.56 10.8305 16.56 10.7705 16.56C10.7705 16.44 10.7705 16.44 10.7705 16.44C10.7705 16.44 10.7705 16.56 10.7705 16.62C10.7705 16.62 10.7705 16.62 10.7105 16.68C10.6505 16.68 10.7105 16.44 10.7105 16.38C10.7105 16.38 10.7105 16.26 10.6505 16.2C10.6505 16.2 10.6505 16.32 10.6505 16.38C10.6505 16.38 10.6505 16.38 10.5905 16.44C10.5905 16.44 10.5905 16.32 10.4705 16.32H10.3505C10.3505 16.32 10.3505 16.5 10.3505 16.56C10.3505 16.56 10.3505 16.62 10.2305 16.56V16.68C10.2305 16.68 10.2305 16.68 10.1705 16.74C10.1705 16.68 10.1705 16.5 10.1705 16.5V16.38C10.1705 16.38 10.1105 16.38 10.0505 16.38V16.5C10.0505 16.5 9.87049 16.5 9.81049 16.5V16.62V16.68C9.81049 16.68 9.81049 16.62 9.75049 16.62V16.68C9.69049 16.68 9.69049 16.68 9.63049 16.68C9.63049 16.68 9.63049 16.56 9.63049 16.5H9.51049V16.38C9.51049 16.38 9.51049 16.2 9.51049 16.14C9.51049 16.14 9.51049 16.14 9.57049 16.08V16.02H9.45049C9.45049 16.02 9.45049 16.02 9.45049 16.14V16.2V16.32C9.45049 16.32 9.45049 16.32 9.45049 16.38C9.45049 16.38 9.45049 16.26 9.45049 16.2C9.45049 16.2 9.45049 16.2 9.45049 16.14V16.02C9.45049 16.02 9.45049 16.02 9.45049 15.96H9.39049V15.9C9.39049 15.9 9.27049 15.9 9.21049 15.9C9.21049 15.9 9.21049 16.08 9.21049 16.14C9.21049 16.14 9.15049 16.2 9.21049 16.26C9.15049 16.26 9.21049 16.02 9.21049 15.96H9.15049H9.09049C9.09049 15.96 9.09049 15.96 9.09049 15.9H8.97049H8.91049V15.78C8.91049 15.78 8.91049 15.78 9.03049 15.78C9.03049 15.72 9.03049 15.66 9.09049 15.66H9.21049H9.51049H9.63049H9.75049H9.87049H9.99049H10.1105C10.1105 15.66 10.2305 15.66 10.1705 15.54C10.1705 15.54 10.1705 15.54 10.1105 15.54C10.0505 15.54 10.0505 15.24 10.1105 15.18C10.1105 15.18 10.1105 15.18 10.1705 15.24V15.36C10.1705 15.42 10.2905 15.48 10.3505 15.54H10.5305H10.6505C10.6505 15.54 10.7105 15.54 10.7705 15.54C10.7705 15.42 10.7705 15.36 10.7105 15.24C10.7105 15.24 10.7105 15.24 10.7105 15.18C10.7105 15.06 10.5305 14.94 10.4705 15.06C10.4705 15.06 10.4105 15.12 10.3505 15.18C10.3505 15.18 10.3505 15.24 10.2905 15.3H10.2305H10.1105C10.1105 15.24 10.1105 15.18 10.1105 15.12C10.1705 15.12 10.1105 15 10.1105 15V14.94H10.2305C10.3505 14.88 10.3505 14.76 10.4705 14.64C10.5905 14.64 10.5905 14.52 10.6505 14.52C10.7705 14.52 10.8305 14.4 10.8905 14.28C10.9505 14.28 11.0105 14.28 11.0705 14.28C11.1905 14.28 11.2505 14.16 11.3705 14.16H11.6705H11.7305C11.7905 13.98 11.9105 13.8 12.2105 13.8C12.2105 13.8 12.2705 13.8 12.2705 13.68V13.62C12.3305 13.62 12.5105 13.62 12.6305 13.62C12.6305 13.56 12.8105 13.62 12.8705 13.5C12.8705 13.5 12.9905 13.5 13.0505 13.5C13.0505 13.5 13.1705 13.5 13.2305 13.5H13.3505C13.4105 13.5 13.4705 13.5 13.5305 13.5C13.5305 13.5 13.6505 13.62 13.7105 13.62C13.7105 13.68 13.7105 13.8 13.8905 13.74C13.8905 13.86 14.0105 13.86 14.0705 13.98C14.0705 14.1 14.0705 14.1 14.1905 14.1H14.3105C14.3105 14.1 14.3105 14.22 14.4305 14.22C14.4905 14.28 14.5505 14.34 14.6705 14.4H14.9105C14.9105 14.4 14.9105 14.4 14.9705 14.4H15.0905C15.0905 14.4 15.0905 14.4 15.1505 14.4C15.2705 14.4 15.2705 14.64 15.3905 14.64H15.4505H15.6305C15.6305 14.64 15.6305 14.64 15.6905 14.64C15.6905 14.64 15.7505 14.64 15.6905 14.76C15.6905 14.76 15.6905 14.76 15.7505 14.76C15.7505 14.76 15.7505 14.76 15.8105 14.76C15.8105 14.82 15.9305 15 15.8105 15.06C15.8105 15.12 15.9305 15.18 15.8705 15.3C15.5705 15.3 15.4505 15.36 15.3305 15.48H15.5705C15.5705 15.48 15.6305 15.48 15.6905 15.36H16.2905C16.2905 15.36 16.2905 15.36 16.3505 15.48C16.3505 15.54 16.5905 15.48 16.7105 15.48C16.8305 15.54 16.8305 15.72 16.9505 15.78L17.0705 15.9H17.1905C17.1905 15.9 17.1905 15.96 17.3105 16.02V16.14V16.26C17.3105 16.32 17.1905 16.26 17.1305 16.26H17.0105C17.0105 16.32 16.7105 16.26 16.7105 16.26C16.7105 16.38 16.7105 16.56 16.7105 16.62C16.7105 16.68 16.7105 16.86 16.7105 16.86H16.6505H16.5905C16.5905 16.98 16.5905 17.28 16.5905 17.4V17.52C16.5905 17.52 16.5905 17.4 16.4705 17.4C16.4705 17.4 16.4705 17.22 16.4705 17.16H16.3505C16.2905 17.16 16.1705 17.16 16.1105 17.16C16.1105 17.16 16.1105 17.28 16.0505 17.28C16.0505 17.34 16.0505 17.46 16.0505 17.52V17.64C16.0505 17.58 16.0505 17.52 16.0505 17.46V17.34V17.28C16.0505 17.28 15.9905 17.16 15.8705 17.16C15.8705 17.16 15.7505 17.16 15.6905 17.16C15.6905 17.16 15.6905 17.34 15.6905 17.4C15.6905 17.52 15.6905 17.64 15.6905 17.76C15.6905 17.82 15.6905 18 15.6905 18.06C15.8705 18.06 16.1105 18.06 16.2305 18.06C16.2305 18.06 16.3505 18.06 16.3505 18.12C16.2305 18.12 15.9905 18.12 15.8705 18.12V18.18H15.7505V18.3C15.7505 18.3 15.5705 18.3 15.5105 18.3L15.3905 18.18C15.3905 18.18 15.3305 18.18 15.2705 18.18H15.1505C15.1505 18.18 15.2705 18.3 15.3305 18.3C15.3305 18.3 15.3905 18.3 15.4505 18.3C15.4505 18.3 15.3905 18.36 15.3305 18.36C15.3305 18.36 15.2705 18.24 15.2105 18.36H15.0305C14.9105 18.36 14.7905 18.36 14.7305 18.36C14.7305 18.36 14.7305 18.3 14.6705 18.36C14.6705 18.36 14.6105 18.3 14.5505 18.24C14.5505 18.18 14.4905 18.18 14.5505 18.12C14.5505 18.06 14.5505 18 14.5505 17.94V17.76V17.52V17.22C14.5505 17.1 14.5505 17.1 14.5505 17.1V16.92V16.8C14.5505 16.74 14.5505 16.74 14.5505 16.74V16.62V16.5V16.38C14.5505 16.38 14.5505 16.38 14.5505 16.26V16.14V16.02C14.5505 15.9 14.5505 15.9 14.5505 15.9C14.5505 15.84 14.4905 15.84 14.4305 15.78C14.4305 15.66 14.3105 15.72 14.3105 15.54C14.6705 15.54 14.7305 15.54 14.7305 15.54L12.3905 15.84ZM14.3705 14.58C14.2505 14.58 14.1905 14.64 14.0705 14.58C14.0105 14.58 13.9505 14.58 13.8905 14.58H13.7705C13.7105 14.64 13.6505 14.76 13.4705 14.76C13.4105 14.7 13.3505 14.82 13.2305 14.76C13.2305 14.94 12.9905 14.94 13.0505 15.12H13.1105H13.1705H13.4105V15.24C13.2905 15.24 13.2305 15.3 13.1705 15.36H12.8105C12.6905 15.36 12.6305 15.48 12.5705 15.54C12.5705 15.66 12.5105 15.72 12.5705 15.84C12.5705 15.84 12.5705 15.84 12.5705 15.9V15.84H12.6305C12.6305 15.96 12.6305 16.02 12.6305 16.02C12.6305 16.02 12.7505 16.02 12.7505 16.14H12.8105H12.8705C12.9305 16.14 12.9305 16.14 12.9905 16.14H13.1105H13.2305C13.2305 16.14 13.2905 16.14 13.3505 16.02H13.4705H13.7705H14.0105C14.0105 16.02 14.0105 16.02 14.0705 15.96C14.0705 15.96 14.0705 15.9 14.1305 15.9H14.2505C14.3105 15.9 14.3705 15.78 14.4305 15.72C14.4305 15.72 14.4905 15.72 14.5505 15.6C14.5505 15.6 14.5505 15.54 14.6105 15.48H14.6705C14.7305 15.48 14.7305 15.48 14.7905 15.48C14.7905 15.48 14.7905 15.48 14.7905 15.42C14.7905 15.42 14.7905 15.3 14.7905 15.36C14.7905 15.3 14.7305 15.36 14.6705 15.36C14.6705 15.36 14.5505 15.36 14.5505 15.3C14.5505 15.24 14.3705 15.3 14.3105 15.3C14.3105 15.3 14.1905 15.3 14.1305 15.3C14.0705 15.42 13.8905 15.42 13.7705 15.54C13.7705 15.54 13.7105 15.54 13.6505 15.54H13.7105C13.7105 15.54 13.7705 15.54 13.8305 15.48C13.8305 15.48 13.8305 15.48 13.8905 15.42C13.8905 15.42 13.8905 15.36 13.8905 15.3C13.8905 15.18 13.8305 15.18 13.7705 15.18L14.3705 14.58ZM11.3105 14.88C11.3105 14.88 11.1905 14.82 11.1905 14.88H11.2505H11.3105ZM16.1705 16.02C16.1105 15.96 15.9905 16.14 15.8105 16.02H15.6305C15.6305 16.02 15.5105 16.14 15.3905 16.08H15.3305H15.1505H14.7905C14.6705 16.08 14.6105 16.2 14.5505 16.26C14.5505 16.3 14.5505 16.32 14.5505 16.32C14.5505 16.38 14.4905 16.5 14.4305 16.56C14.4305 16.62 14.4305 16.68 14.4305 16.74C14.4305 16.74 14.3705 16.74 14.3105 16.86L14.1905 16.92C14.1305 16.92 14.0705 16.92 14.0105 16.98V17.04C14.0105 17.04 14.0105 17.04 14.0705 17.04C14.0705 17.04 14.0705 17.04 14.1305 17.04C14.1305 17.04 14.1905 17.04 14.2505 17.16C14.2505 17.16 14.3705 17.16 14.4305 17.16H14.4905H14.5505H14.6105C14.6105 17.16 14.6105 17.16 14.6705 17.16C14.6705 17.16 14.6705 17.16 14.6705 17.22C14.6705 17.22 14.6705 17.22 14.6705 17.28C14.6705 17.28 14.6705 17.28 14.7305 17.28L14.8505 17.16V17.1C14.8505 17.04 14.9105 17.04 14.9705 17.1C14.9705 17.1 14.9705 17.1 15.0305 17.1C15.0305 17.1 15.0305 17.16 15.0905 17.1C15.0905 17.1 15.0905 17.1 15.1505 17.1C15.1505 17.1 15.1505 16.98 15.2705 16.92C15.2705 16.92 15.2705 16.86 15.3305 16.8H15.4505C15.4505 16.8 15.5105 16.8 15.5705 16.8H15.6305C15.6905 16.8 15.6905 16.68 15.7505 16.62V16.56C15.7505 16.56 15.7505 16.56 15.8105 16.56H15.8705H15.9905H16.1105C16.1705 16.56 16.2305 16.56 16.2305 16.56C16.2905 16.56 16.3505 16.56 16.4705 16.56V16.44C16.3505 16.44 16.2305 16.44 16.1105 16.44C16.1105 16.44 16.1105 16.38 16.1105 16.32C16.1105 16.26 16.1105 16.32 16.0505 16.32V16.2H15.8705C15.8705 16.2 15.6905 16.2 15.6305 16.2C15.6305 16.2 15.7505 16.14 15.6905 16.02H16.1705ZM13.8305 16.26C13.7105 16.2 13.6505 16.38 13.5905 16.38C13.5305 16.38 13.4705 16.38 13.3505 16.38C13.2305 16.26 13.0505 16.38 12.9305 16.38C12.9305 16.38 12.8705 16.38 12.8705 16.5V16.56C12.8705 16.56 12.8705 16.56 12.9305 16.56C12.9305 16.56 12.9305 16.56 13.0505 16.56C13.1705 16.56 13.1705 16.56 13.2905 16.56C13.4105 16.56 13.5305 16.56 13.6505 16.56H13.7705C13.7705 16.56 13.8305 16.56 13.8905 16.44C13.8905 16.44 13.8905 16.44 13.9505 16.38V16.32C13.9505 16.26 13.9505 16.2 13.9505 16.2C13.8905 16.2 13.7105 16.2 13.6505 16.2H13.5905L13.8305 16.26ZM13.3505 16.74C13.2305 16.74 13.1705 16.74 13.1105 16.74C13.0505 16.74 12.9305 16.74 12.8705 16.74C12.8105 16.74 12.6905 16.74 12.6305 16.74V16.92C12.7505 16.92 12.8705 16.92 12.9305 16.92H13.0505C13.1105 16.92 13.1705 16.92 13.1705 16.92C13.1705 16.92 13.2305 16.92 13.2305 16.8C13.1705 16.8 13.1105 16.74 13.0505 16.68L13.3505 16.74ZM10.0505 16.98C9.93049 17.04 9.87049 17.1 9.81049 17.22V17.34C9.81049 17.34 9.81049 17.4 9.93049 17.46C9.93049 17.46 9.93049 17.46 9.99049 17.46C9.99049 17.4 10.1105 17.46 10.1105 17.34C10.1105 17.34 10.1105 17.28 10.1105 17.22V17.1H9.87049L10.0505 16.98ZM13.6505 17.1C13.5905 16.86 13.2305 16.98 13.1105 17.1C13.1105 17.1 13.0505 17.1 13.0505 17.22C13.0505 17.34 13.0505 17.64 13.0505 17.76C13.0505 17.88 13.0505 18 13.0505 18.06C13.0505 18.18 13.0505 18.3 13.1105 18.36C13.1705 18.36 13.1105 18.42 13.1705 18.48C13.1705 18.48 13.2305 18.48 13.2905 18.48C13.2905 18.48 13.2905 18.48 13.3505 18.48C13.4105 18.48 13.5905 18.48 13.6505 18.48C13.7105 18.48 14.0705 18.54 14.0705 18.48C14.0705 18.48 14.0705 18.48 14.1305 18.42V17.76C14.1305 17.7 14.1305 17.58 14.1305 17.52C14.1305 17.52 13.9505 17.52 13.8905 17.52C13.8905 17.52 13.8905 17.58 13.8905 17.64C13.8905 17.64 13.8905 17.76 13.8905 17.82V17.76V17.46C13.8905 17.4 13.7705 17.34 13.7105 17.28H13.5905C13.5905 17.28 13.5905 17.46 13.5905 17.52C13.5905 17.64 13.5905 17.76 13.5905 17.88V17.76V17.58C13.5905 17.46 13.5905 17.22 13.5905 17.16L13.6505 17.1ZM11.0705 17.1C10.9505 17.04 10.7105 16.98 10.5905 17.1V17.16V17.28C10.6505 17.28 10.7105 17.46 10.8305 17.46C10.9505 17.46 11.0705 17.4 11.1305 17.34V17.16L11.0705 17.1ZM9.39049 17.22C9.39049 17.22 9.21049 17.22 9.15049 17.22H9.03049H8.97049C8.91049 17.22 8.97049 17.34 8.91049 17.34C8.91049 17.46 8.91049 17.52 8.97049 17.52C8.97049 17.52 9.15049 17.52 9.21049 17.52V17.4V17.28L9.39049 17.22ZM12.8105 17.46C12.8105 17.46 12.8105 17.46 12.7505 17.46C12.7505 17.46 12.7505 17.52 12.7505 17.58C12.7505 17.64 12.7505 17.7 12.8105 17.7C12.8105 17.7 12.8105 17.7 12.8105 17.64V17.46ZM13.0505 18.54C13.0505 18.54 12.9305 18.48 12.9305 18.54C12.9305 18.54 12.9305 18.66 12.9905 18.66C13.0505 18.66 13.0505 18.72 13.1705 18.66H13.2905V18.54C13.2905 18.54 13.2305 18.54 13.1705 18.54C13.1705 18.54 13.1705 18.54 13.0505 18.54Z"
        fill="white" />
    <path transform="translate(-0.331543)"
        d="M15.9307 9.06049C15.9307 9.06049 15.9307 9.06049 15.9908 9.00037C15.9908 9.00037 15.9908 9.00037 15.9908 8.88013H15.9307H15.8706C15.8706 8.88013 15.9307 8.94025 15.9908 9.00037L15.9307 9.06049Z"
        fill="white" />
    <path transform="translate(-0.331543)"
        d="M14.2517 11.7607C14.2517 11.7607 14.2516 11.7607 14.3719 11.7607C14.3719 11.7607 14.3719 11.7607 14.432 11.7607C14.432 11.7607 14.432 11.7607 14.4921 11.7006C14.4921 11.7006 14.4921 11.7006 14.5522 11.7006C14.5522 11.4601 14.2516 11.5203 14.0713 11.5804C14.0713 11.5804 14.0713 11.5804 14.0713 11.7006V11.7607C14.0713 11.8209 14.1915 11.881 14.1915 11.9411L14.2517 11.7607Z"
        fill="white" />
    <path transform="translate(-0.331543)"
        d="M15.0913 11.6401C15.0913 11.6401 15.1513 11.6401 15.2113 11.7601L15.3313 11.8801H15.4513C15.4513 11.8801 15.4513 11.8201 15.5713 11.7601C15.5713 11.7601 15.5713 11.7001 15.6913 11.6401C15.6913 11.6401 15.6913 11.6401 15.6313 11.6401C15.6313 11.6401 15.5113 11.5801 15.5113 11.5201H15.4513C15.3313 11.5201 15.2113 11.5201 15.1513 11.5201H15.0312C15.0312 11.5801 15.1513 11.6401 15.2113 11.7001L15.0913 11.6401Z"
        fill="white" />
    <path transform="translate(-0.331543)"
        d="M15.6902 11.4601C15.7502 11.4601 15.8102 11.5801 15.8702 11.6401C15.8702 11.5801 15.9902 11.5201 16.0502 11.4601C15.8702 11.4601 15.6302 11.4601 15.4502 11.4601C15.4502 11.4601 15.5102 11.4601 15.5102 11.5801L15.6902 11.4601Z"
        fill="white" />
    <path transform="translate(-0.331543)"
        d="M16.2299 11.5203C16.2299 11.5203 16.1699 11.5203 16.1099 11.5203L16.2299 11.6403C16.2299 11.6403 16.3499 11.7003 16.3499 11.7603C16.3499 11.7603 16.4099 11.7003 16.4699 11.7003L16.5899 11.5803L16.7099 11.4603H16.6499C16.6499 11.4003 16.4099 11.4003 16.3499 11.4603C16.3499 11.4603 16.3499 11.4603 16.2899 11.4603C16.2899 11.4603 16.2899 11.4603 16.2299 11.4603V11.5203Z"
        fill="white" />
    <path transform="translate(-0.331543)"
        d="M14.551 11.7604C14.551 11.7604 14.431 11.7604 14.431 11.8804C14.431 11.8804 14.491 11.8804 14.551 12.0004L14.671 12.1204C14.671 12.1204 14.671 12.1204 14.731 12.1804C14.731 12.1804 14.731 12.1804 14.791 12.1804C14.791 12.1804 14.791 12.1804 14.851 12.1804C14.851 12.1804 14.851 12.1204 14.971 12.1204C14.971 12.1204 14.851 12.0004 14.791 12.0004C14.791 12.0004 14.671 12.0004 14.671 11.9404C14.671 11.8804 14.491 11.8204 14.431 11.7604C14.431 11.7604 14.431 11.7604 14.371 11.8204C14.371 11.8204 14.311 11.8804 14.251 11.9404C14.251 11.9404 14.251 11.9404 14.251 12.0004L14.551 11.7604Z"
        fill="white" />
    <path transform="translate(-0.331543)"
        d="M15.9314 10.3204C15.9314 10.3204 15.9314 10.2603 16.0516 10.2002C15.9314 10.2002 15.751 10.2002 15.6909 10.2002C15.6909 10.2002 15.751 10.3204 15.8112 10.3204H15.9314Z"
        fill="white" />
    <path transform="translate(-0.331543)"
        d="M15.9902 10.3201C15.9902 10.4401 16.1702 10.5001 16.2302 10.5601C16.3502 10.5601 16.3502 10.4401 16.4702 10.3801C16.4702 10.3801 16.5302 10.3801 16.5902 10.3201H16.5302C16.5302 10.3201 16.5302 10.3201 16.4702 10.2601H16.2302C16.2302 10.2601 16.1702 10.2601 16.1102 10.3201H15.9902Z"
        fill="white" />
    <path transform="translate(-0.331543)"
        d="M15.3309 12.6599C15.4509 12.6599 15.6909 12.6599 15.6909 12.7199C15.6909 12.7199 15.6909 12.7799 15.6909 12.8399V12.8999C15.7509 13.0199 15.8109 13.0799 15.9309 13.1399H16.0509C16.0509 13.0199 16.2309 12.9599 16.2309 12.8399C16.2309 12.7199 16.2309 12.8399 16.2309 12.7799V12.5999H17.9709C17.9709 12.5999 17.9709 12.5999 17.9709 12.4799C17.9709 12.3599 17.9709 12.2999 17.9709 12.2399V11.9999V11.9399C17.9709 11.7599 17.9709 11.5799 17.9709 11.3399V11.2799V11.1599C17.7909 11.1599 17.4909 11.1599 17.2509 11.1599C16.9509 11.1599 16.5909 11.1599 16.2909 11.1599H16.3509C16.5909 11.1599 16.9509 11.1599 17.1909 11.1599H17.3109V11.0399V10.9199V10.7999V10.6199C17.3109 10.4999 17.3109 10.3799 17.3109 10.3799C17.3109 10.3199 17.3109 10.1999 17.3109 10.1999V10.0799C16.9509 9.95994 16.5309 10.0799 16.1709 10.0199C16.1709 10.0199 16.3509 10.0199 16.4109 10.0199C16.5309 10.0199 16.6509 10.0199 16.8309 10.0199V9.89994C16.8309 9.89994 16.8309 9.83994 16.8309 9.77994C16.8309 9.65994 16.8309 9.47994 16.8309 9.35994C16.8309 9.23994 16.8309 9.05994 16.8309 8.93994H16.7109H16.6509H16.5909H16.4709H16.4109H16.3509V8.81994C16.4709 8.81994 16.7109 8.81994 16.8309 8.81994V8.75994C16.8309 8.75994 16.8309 8.69994 16.8309 8.63994C16.8309 8.39994 16.8309 8.09994 16.8309 7.91994H16.7109H16.6509H16.5309H16.4709C16.5309 7.91994 16.7109 7.91994 16.8309 7.91994V7.85994V7.79994C16.8309 7.55994 16.8309 7.31994 16.8309 7.07994V6.95994H16.5309C16.5309 6.95994 16.4109 6.89994 16.4709 6.77994H16.5309C16.5309 6.59994 16.5309 6.53994 16.4709 6.47994C16.5909 6.29994 16.4109 6.17994 16.2909 6.11994C16.2909 6.11994 16.2909 6.17994 16.1709 6.23994V6.35994V6.47994V6.59994C16.1709 6.59994 16.1709 6.65994 16.2909 6.71994V6.83994H15.9909C15.9909 6.89994 15.9909 7.07994 15.9909 7.07994V7.19994V7.31994C15.9909 7.31994 15.9909 7.43994 15.9909 7.37994V7.49994V7.55994C15.9909 7.67994 15.9909 7.73994 15.9909 7.79994C16.1109 7.79994 16.3509 7.79994 16.3509 7.79994H16.2309H16.1109H16.0509H15.8709V7.91994C15.8709 8.03994 15.8709 8.09994 15.8709 8.15994V8.57994C15.9909 8.63994 16.2909 8.57994 16.4109 8.57994V8.69994H16.3509H16.2309H16.0509H15.9909V8.81994V8.87994V8.99994V9.11994V9.17994C15.9909 9.41994 15.9909 9.47994 15.9909 9.71994C15.9909 9.71994 16.1709 9.71994 16.2309 9.71994C16.3509 9.71994 16.6509 9.71994 16.7709 9.71994V9.77994C16.4109 9.77994 15.9309 9.77994 15.5709 9.77994C15.5709 9.95994 15.5709 10.0199 15.5709 10.1999V10.2599V10.8599H15.6909C15.6909 10.8599 15.8109 10.8599 15.8709 10.8599C16.1109 10.8599 16.4709 10.8599 16.7709 10.8599C16.7709 10.9199 16.6509 10.8599 16.5909 10.8599H15.9309C15.6309 10.8599 15.2709 10.8599 15.0309 10.8599V12.0599C15.0309 12.1199 15.0309 12.2999 15.0309 12.3599H15.0909C15.4509 12.3599 15.9909 12.3599 16.4109 12.3599L15.3309 12.6599ZM15.9909 13.0199C15.9909 13.1399 15.7509 13.0199 15.8109 12.9599C15.8109 12.9599 15.8109 12.9599 15.9309 12.9599V12.8999C15.9309 12.8999 15.8109 12.8999 15.7509 12.8999H15.8109C15.8109 12.8999 15.8109 13.0799 15.8109 13.1399L15.9909 13.0199ZM15.8709 12.5999H15.9309H15.8109H15.8709ZM16.4109 12.4799H16.2909H16.1709H16.0509C15.9909 12.5399 15.8709 12.4799 15.8109 12.4799C15.8109 12.4799 15.6909 12.4799 15.6309 12.4799H15.5709C15.5109 12.5399 15.4509 12.4799 15.3309 12.4799H15.1509C15.1509 12.4799 15.1509 12.4799 15.2109 12.4199C15.2109 12.4199 15.2709 12.4199 15.3309 12.4799C15.3309 12.4799 15.3309 12.4799 15.3909 12.3599H15.5109C15.5109 12.3599 15.5109 12.3599 15.5709 12.2399C15.5709 12.2399 15.6309 12.2399 15.6909 12.3599C15.6909 12.3599 15.6909 12.3599 15.7509 12.2999C15.7509 12.2999 15.8109 12.2999 15.8709 12.3599C15.8709 12.3599 15.8709 12.3599 15.9309 12.2999H15.9909C15.9909 12.2999 15.9909 12.2999 16.0509 12.2399C16.0509 12.2399 16.1109 12.2999 16.1709 12.3599L16.4109 12.4799ZM17.8509 12.3599C17.8509 12.3599 17.8509 12.4799 17.8509 12.5399H17.7309C17.6109 12.5399 17.5509 12.6599 17.4909 12.5399C17.4309 12.5399 17.3709 12.6599 17.2509 12.5399H17.1309C17.1309 12.5399 17.0109 12.5999 17.0109 12.5399H16.8909C16.8909 12.5399 16.7709 12.5999 16.7109 12.5399C16.7109 12.5399 16.7109 12.5399 16.6509 12.5399H16.5309C16.4709 12.5399 16.5309 12.4199 16.5909 12.4199C16.5909 12.4199 16.5909 12.4199 16.6509 12.4799C16.6509 12.4799 16.6509 12.4799 16.7109 12.4199C16.7109 12.4199 16.7109 12.4199 16.7709 12.4799C16.7709 12.4799 16.7709 12.4799 16.8309 12.5399C16.8309 12.5399 16.8909 12.4199 16.9509 12.4799C16.9509 12.4799 16.9509 12.4799 17.0109 12.5399C17.0109 12.5399 17.1309 12.4199 17.1309 12.5399C17.2509 12.5399 17.3109 12.4199 17.3109 12.4799L17.8509 12.3599ZM16.2909 6.95994C16.2909 6.95994 16.2309 7.01994 16.2309 6.95994H16.2909ZM16.2909 7.19994C16.2909 7.19994 16.3509 7.19994 16.2909 7.25994V7.19994ZM16.1709 6.71994H16.3509C16.3509 6.77994 16.3509 6.83994 16.3509 6.83994C16.3509 6.83994 16.2309 6.77994 16.2309 6.71994H16.1709ZM16.0509 7.25994C16.0509 7.25994 15.9309 7.13994 16.0509 7.13994V7.25994ZM16.0509 7.01994C16.0509 7.01994 16.0509 7.01994 16.0509 7.07994C16.0509 7.07994 16.0509 6.95994 16.1709 7.01994H16.0509ZM15.8109 6.11994C15.8109 6.11994 15.8109 6.11994 15.8109 6.05994C15.8109 6.05994 15.8109 6.05994 15.8709 6.11994H15.7509H15.8109ZM15.9309 6.35994H15.8109C15.8109 6.29994 15.9309 6.29994 15.9309 6.35994ZM15.8109 6.59994H15.9309C15.9309 6.59994 15.9309 6.59994 15.8709 6.59994H15.7509C15.7509 6.59994 15.7509 6.59994 15.7509 6.47994L15.8109 6.59994ZM15.8709 6.95994C15.8709 6.95994 15.8709 6.95994 15.7509 6.95994C15.7509 6.95994 15.7509 6.95994 15.7509 6.89994L15.8709 6.95994ZM15.7509 7.19994C15.7509 7.19994 15.6909 7.31994 15.6309 7.25994C15.6309 7.25994 15.6309 7.25994 15.6309 7.19994H15.7509ZM15.7509 7.01994C15.7509 7.01994 15.6909 7.01994 15.6309 6.95994L15.7509 7.01994ZM15.4509 7.01994C15.4509 6.89994 15.5709 6.83994 15.5709 6.71994H15.6909C15.6909 6.77994 15.6309 6.83994 15.5709 6.89994V7.01994C15.5109 7.07994 15.5709 7.07994 15.5709 7.01994C15.5709 7.01994 15.5709 6.95994 15.5709 6.89994L15.4509 7.01994ZM15.4509 7.43994C15.4509 7.43994 15.5709 7.31994 15.5709 7.43994C15.5709 7.43994 15.5709 7.43994 15.6309 7.43994H15.6909H15.7509H15.8109H15.9309C15.9309 7.43994 15.9309 7.43994 15.9909 7.43994H16.0509V7.55994C15.7509 7.55994 15.4509 7.55994 15.0909 7.55994L15.4509 7.43994ZM15.9309 7.79994H15.8109C15.8109 7.79994 15.8109 7.79994 15.8109 7.85994C15.8109 7.85994 15.8109 7.85994 15.8709 7.85994C15.8709 7.79994 15.8709 7.61994 15.8709 7.61994H15.9909C15.9909 7.61994 15.9909 7.61994 15.9909 7.67994V7.79994V7.91994L15.9309 7.79994ZM15.6309 8.09994C15.6309 8.09994 15.6909 8.03994 15.7509 7.97994C15.7509 7.97994 15.7509 7.91994 15.8709 7.85994C15.8709 7.85994 15.8709 7.85994 15.8109 7.91994C15.8109 7.97994 15.9309 7.97994 15.9309 7.91994C15.9309 7.91994 15.9309 7.91994 15.9909 7.85994C15.9909 7.85994 15.9909 7.85994 15.9909 7.79994C15.9909 7.79994 16.1709 7.79994 16.2309 7.79994C16.2309 7.79994 16.2309 7.79994 16.2309 7.85994C16.2309 7.73994 16.3509 8.03994 16.2309 7.97994C16.2309 7.97994 16.2309 8.09994 16.1709 8.09994C16.1709 8.09994 16.1709 8.03994 16.2309 7.97994V7.91994C16.2309 7.91994 16.2309 7.91994 16.1709 7.91994C16.1709 7.91994 16.1709 7.91994 16.1109 7.91994C16.1109 7.91994 16.1109 8.03994 16.0509 8.03994C16.0509 8.03994 16.1109 8.09994 16.1709 8.15994C16.1709 8.15994 16.1709 8.15994 16.1709 8.09994C16.1709 8.09994 16.1709 8.09994 16.1109 8.09994C16.1109 8.09994 16.1109 8.09994 16.1109 8.03994C16.1109 8.03994 15.9909 7.97994 15.9909 7.85994C15.9909 7.85994 15.9909 7.85994 15.9309 7.85994C15.9309 7.85994 15.9309 7.85994 15.9309 7.91994C15.8709 7.91994 15.8109 8.03994 15.8109 7.97994V7.85994C15.8109 7.85994 15.8109 7.79994 15.8109 7.73994C15.8109 7.73994 15.6909 7.67994 15.6909 7.61994C15.6909 7.61994 15.6909 7.61994 15.7509 7.61994L15.6309 8.09994ZM15.4509 8.33994C15.4509 8.33994 15.4509 8.27994 15.4509 8.21994V8.33994ZM15.2709 8.03994C15.2709 8.03994 15.2709 7.97994 15.3309 7.97994C15.3309 7.91994 15.5109 7.91994 15.5109 7.97994C15.5109 8.03994 15.3909 8.09994 15.3309 8.15994C15.3309 8.15994 15.3309 8.15994 15.2709 8.15994C15.2709 8.09994 15.2709 8.09994 15.3309 8.03994H15.2709ZM15.6909 8.45994C15.6909 8.45994 15.6909 8.45994 15.5709 8.45994C15.5709 8.45994 15.5709 8.45994 15.5109 8.45994C15.5109 8.45994 15.5109 8.45994 15.4509 8.45994V8.33994C15.5709 8.33994 15.7509 8.33994 15.8109 8.33994H15.8709C15.8709 8.33994 15.9309 8.27994 15.9909 8.33994C15.9909 8.33994 15.9909 8.33994 16.0509 8.33994C16.0509 8.33994 16.0509 8.33994 16.1109 8.33994C16.1109 8.33994 16.1709 8.33994 16.2309 8.33994H16.2909C16.2909 8.33994 16.2909 8.33994 16.3509 8.33994V8.45994C16.3509 8.51994 16.3509 8.45994 16.2309 8.45994C16.2309 8.45994 16.2309 8.45994 16.1109 8.45994C16.1109 8.39994 16.0509 8.45994 15.9909 8.45994C15.9909 8.45994 15.9909 8.45994 15.8709 8.45994C15.8109 8.45994 15.7509 8.45994 15.7509 8.45994H15.6909ZM15.8109 9.11994C15.8109 9.05994 15.7509 8.99994 15.6909 8.93994V8.87994C15.6909 8.87994 15.7509 8.87994 15.8109 8.87994C15.8109 8.81994 15.8109 8.69994 15.8109 8.63994H15.9309C15.9309 8.69994 15.9309 8.81994 15.9309 8.87994C15.9309 8.87994 16.0509 8.87994 16.1109 8.87994C16.1109 8.93994 15.9909 8.99994 15.9909 9.05994C15.9909 9.05994 15.9909 9.05994 15.9909 9.11994L16.1109 8.99994C16.1109 8.99994 16.1109 8.99994 16.1709 8.93994C16.1709 8.81994 16.0509 8.81994 16.0509 8.69994C16.0509 8.69994 16.2909 8.69994 16.3509 8.69994C16.3509 8.75994 16.2909 8.81994 16.2309 8.81994C16.2309 8.81994 16.2309 8.81994 16.2309 8.87994C16.2309 8.87994 16.2909 8.93994 16.3509 8.99994V9.11994C16.3509 9.11994 16.2909 9.11994 16.2309 9.11994V9.17994H16.1709C16.1709 9.17994 16.1709 9.11994 16.2909 9.05994C16.2909 9.05994 16.2909 9.05994 16.2309 8.93994C16.1709 8.93994 16.2309 8.81994 16.1109 8.81994C16.1109 8.81994 16.0509 8.87994 15.9909 8.93994C15.9909 8.93994 15.9309 8.99994 15.8709 9.05994C15.8709 9.05994 15.8709 9.05994 15.8709 9.11994V9.17994C15.8709 9.17994 15.8109 9.17994 15.7509 9.17994H15.6309C15.6309 9.17994 15.6309 9.17994 15.6909 9.17994C15.6909 9.17994 15.6909 9.11994 15.6909 9.05994C15.5709 9.05994 15.5709 9.17994 15.4509 9.23994C15.4509 9.29994 15.5109 9.29994 15.5709 9.35994C15.5709 9.35994 15.5709 9.35994 15.5109 9.35994C15.5109 9.35994 15.5109 9.35994 15.3909 9.35994H15.2709C15.2709 9.35994 15.2709 9.35994 15.3309 9.29994H15.3909C15.3909 9.29994 15.3909 9.23994 15.5109 9.17994C15.5709 9.17994 15.6309 9.17994 15.6309 9.17994L15.8109 9.11994ZM15.0309 9.11994V9.05994C15.0309 9.05994 15.0309 8.99994 15.0309 8.93994C15.0309 8.93994 14.9109 8.93994 14.8509 8.93994C14.8509 8.93994 15.2709 8.93994 15.3309 8.93994C15.3309 8.93994 15.2709 8.99994 15.2109 9.05994V9.11994C15.2709 9.17994 15.3309 9.23994 15.3909 9.29994C15.3909 9.29994 15.3309 9.29994 15.3309 9.17994C15.3309 9.17994 15.2709 9.17994 15.2709 9.05994C15.2709 9.17994 15.1509 9.17994 15.1509 9.23994C15.2109 9.35994 15.2709 9.41994 15.3909 9.47994H15.3309L15.2109 9.35994C15.2109 9.35994 15.2109 9.11994 15.2109 9.05994L15.0309 9.11994ZM15.6909 9.71994C15.6909 9.71994 15.6909 9.71994 15.6309 9.71994C15.6309 9.71994 15.6309 9.71994 15.5109 9.71994C15.5109 9.71994 15.5109 9.71994 15.4509 9.71994C15.4509 9.71994 15.4509 9.71994 15.3909 9.71994C15.3909 9.71994 15.4509 9.77994 15.5109 9.71994H15.6309C15.6909 9.71994 15.8709 9.71994 15.9309 9.71994C15.9309 9.71994 15.9309 9.65994 16.0509 9.71994C16.0509 9.71994 16.0509 9.71994 16.1109 9.71994H16.1709H16.2309C16.2309 9.71994 16.2309 9.71994 16.2909 9.71994C16.2909 9.65994 16.4109 9.71994 16.4109 9.71994C16.4109 9.71994 16.4709 9.71994 16.5309 9.71994C16.5309 9.71994 16.6509 9.65994 16.7109 9.71994V9.77994C16.7109 9.77994 16.6509 9.77994 16.5909 9.77994C16.5909 9.77994 16.5909 9.77994 16.5309 9.77994C16.5309 9.77994 16.5309 9.77994 16.4709 9.77994C16.4709 9.77994 16.4709 9.77994 16.4109 9.77994C16.4109 9.77994 16.3509 9.71994 16.2909 9.77994C16.2909 9.77994 16.2909 9.77994 16.2309 9.77994C16.1709 9.77994 16.1709 9.83994 16.1109 9.77994C16.1109 9.77994 16.1109 9.77994 16.0509 9.77994C16.0509 9.77994 15.9909 9.77994 15.9309 9.77994C15.9309 9.77994 15.9309 9.77994 15.8709 9.77994L15.6909 9.71994ZM14.6109 10.6199C14.6109 10.5599 14.6109 10.4399 14.6109 10.3799C14.6109 10.3799 14.6109 10.4399 14.7309 10.4399V10.3799C14.7309 10.3799 14.7909 10.2599 14.8509 10.2599C14.7909 10.2599 14.5509 10.2599 14.6109 10.2599C14.7909 10.2599 15.0909 10.2599 15.2709 10.2599C15.2709 10.2599 15.2109 10.3199 15.1509 10.3799C15.1509 10.3799 15.2109 10.4399 15.2709 10.4999C15.2709 10.4999 15.3309 10.5599 15.3909 10.6199C15.3909 10.6199 15.4509 10.5599 15.5109 10.4999C15.5109 10.4999 15.4509 10.4999 15.4509 10.4399C15.4509 10.4399 15.3909 10.4399 15.3909 10.3199C15.3909 10.1999 15.5109 10.3199 15.5109 10.3199H15.6309C15.6309 10.2599 15.6309 10.1399 15.6309 10.0799C15.6309 10.0799 15.6909 10.0799 15.7509 10.0799C15.7509 10.0799 15.7509 10.2599 15.7509 10.3199C15.9909 10.3199 16.2909 10.3199 16.5309 10.3199C16.5309 10.3199 16.6509 10.3199 16.7109 10.3199C16.7109 10.3799 16.7109 10.3799 16.5909 10.4399C16.5909 10.4999 16.6509 10.5599 16.7109 10.6199C16.7109 10.6199 16.7709 10.6799 16.8309 10.7399C16.8309 10.6799 16.8309 10.6799 16.8309 10.6199C16.8309 10.6799 16.8309 10.7999 16.8309 10.8599H16.7709C16.7709 10.8599 16.7709 10.8599 16.7109 10.8599H16.5309C16.5309 10.8599 16.5309 10.7999 16.6509 10.7399C16.6509 10.7399 16.7109 10.6199 16.7709 10.6199C16.7709 10.6199 16.7709 10.6199 16.7709 10.4999H16.7109C16.7109 10.4999 16.6509 10.4399 16.5909 10.3799C16.5909 10.3799 16.5909 10.3799 16.5309 10.3799L16.4109 10.4999H16.3509C16.3509 10.5599 16.4109 10.6199 16.4709 10.6799C16.4709 10.6799 16.4109 10.6799 16.3509 10.6799C16.3509 10.6799 16.2909 10.6799 16.2309 10.6799C16.2309 10.6799 16.1109 10.6799 16.0509 10.6799H16.1109C16.1109 10.6799 16.1109 10.6799 16.1109 10.6199C16.1109 10.6199 16.1109 10.6199 16.0509 10.5599C16.0509 10.5599 15.9909 10.5599 15.9309 10.6199H15.8709C15.8709 10.6199 15.8709 10.6199 15.8709 10.6799C15.8709 10.6799 15.9309 10.6799 15.9309 10.7999H15.8109C15.8109 10.7999 15.7509 10.7999 15.6909 10.7999H15.5109C15.5109 10.7999 15.5709 10.7999 15.6309 10.7999C15.6309 10.7999 15.6309 10.7999 15.6909 10.7399H15.6309C15.6309 10.7399 15.6309 10.7399 15.5709 10.7399C15.5709 10.7399 15.4509 10.7399 15.4509 10.6799C15.4509 10.7399 15.2709 10.7999 15.2709 10.9199C15.2709 10.9199 15.3309 10.9199 15.3909 11.0399C15.3909 11.0999 15.2109 11.0999 15.2109 11.0399C15.2109 11.0399 15.1509 11.0399 15.0909 10.9799C15.0909 10.9799 15.0909 10.9799 14.9709 10.9799L14.6109 10.6199ZM15.6909 11.0399H15.5709C15.5709 11.0399 15.5709 11.0399 15.5109 11.0399H15.4509C15.3909 11.0399 15.3909 11.0399 15.3309 11.0399C15.2709 11.0399 15.2709 11.0399 15.2109 11.0399H15.1509C15.1509 11.0399 15.1509 11.0399 15.2109 11.0399C15.2109 11.0399 15.2109 11.0399 15.2709 11.0399C15.2709 11.0399 15.2709 11.0399 15.3309 11.0399C15.3309 11.0399 15.3909 11.0399 15.4509 11.0399H15.5109C15.5109 11.0399 15.5109 10.9799 15.5709 11.0399H15.6909C15.6909 11.0399 15.6909 11.0399 15.7509 11.0399H15.8109H15.8709H15.9309C15.9309 11.0399 15.8709 11.1599 15.8109 11.0399H15.7509H15.6909H15.5709H15.4509H15.6909ZM14.1309 12.1799V12.2399C14.1309 12.2399 14.1309 12.3599 14.1309 12.2999V11.6999C14.1309 11.5799 14.1309 11.4599 14.1309 11.3999C14.2509 11.3999 14.4909 11.3999 14.6109 11.3999C14.7309 11.3999 14.7309 11.3999 14.8509 11.3999H14.9709C15.2109 11.3999 15.3309 11.3999 15.5709 11.3999H15.6309C15.6309 11.3999 15.6309 11.2199 15.6309 11.1599C15.6309 11.1599 15.6309 11.1599 15.6909 11.1599C15.6909 11.2199 15.6909 11.3399 15.6909 11.3399C15.6909 11.3399 15.7509 11.3399 15.8109 11.3399H15.9309H16.7709C16.9509 11.3399 17.1909 11.3399 17.3109 11.3399C17.3109 11.3399 17.3109 11.3999 17.3109 11.4599H16.9509C16.9509 11.4599 16.9509 11.4599 16.8909 11.4599C16.8909 11.4599 16.7709 11.5799 16.8909 11.5799L17.0109 11.6999C17.0109 11.6999 17.0109 11.7599 17.1309 11.7599C17.1309 11.7599 17.1909 11.6399 17.2509 11.6399H17.3109C17.3109 11.7599 17.3709 12.0599 17.3109 11.9999C17.3109 11.9999 17.3109 11.9999 17.2509 11.9999C17.2509 11.9999 17.2509 11.9999 17.1909 11.8799C17.1909 11.8799 17.1909 11.8199 17.1309 11.8799C17.1309 11.8799 17.1309 11.8799 17.0709 11.9399C17.0709 11.9399 16.9509 11.9399 16.9509 11.9999C16.9509 11.9999 16.9509 11.9999 16.9509 12.0599V12.1199C16.8309 12.1199 16.7109 12.1199 16.6509 12.1199C16.6509 12.1199 16.7109 11.9999 16.7709 11.9999C16.7709 11.9399 16.8909 11.8799 16.9509 11.8199C16.9509 11.8199 17.0109 11.7599 17.0709 11.6999H17.0109C17.0109 11.6999 17.0109 11.6999 17.0109 11.6399C17.0109 11.6399 17.0109 11.6399 16.9509 11.5799C16.9509 11.5799 16.8909 11.6399 16.8309 11.6999C16.8309 11.6999 16.8309 11.6999 16.7709 11.6999C16.7709 11.6999 16.7709 11.6999 16.7109 11.6999C16.7109 11.6999 16.7109 11.6999 16.6509 11.6999C16.7109 11.8199 16.8309 11.8799 16.8909 11.9399C16.8909 11.9999 16.7109 11.9999 16.6509 11.9399C16.6509 11.9399 16.6509 11.9399 16.5909 11.8799C16.5909 11.8799 16.5309 11.8799 16.5909 11.8199C16.5909 11.8799 16.4109 11.8199 16.3509 11.8199C16.3509 11.8199 16.3509 11.8199 16.4109 11.8199C16.4109 11.8199 16.4109 11.7599 16.5309 11.6999H16.5909C16.5909 11.6999 16.5309 11.6999 16.4709 11.6999C16.4709 11.6999 16.3509 11.6399 16.3509 11.5799C16.3509 11.5799 16.2909 11.5799 16.2909 11.5199L16.4709 11.6999H16.2309C16.2309 11.6999 16.1109 11.6399 16.1109 11.5799C16.1109 11.5799 16.1109 11.6399 15.9909 11.6399C15.9309 11.6399 15.8109 11.6399 15.6909 11.6399C15.5709 11.6399 15.3909 11.6399 15.3309 11.6399C15.2109 11.5799 15.1509 11.4599 15.0309 11.3999C15.0309 11.3999 15.0309 11.3999 14.9709 11.4599L14.1309 12.1799ZM14.4309 12.5399C14.3709 12.5999 14.3109 12.5399 14.2509 12.5399C14.2509 12.5399 14.2509 12.5399 14.2509 12.4799C14.2509 12.4799 14.3109 12.5999 14.2509 12.5999L14.4309 12.5399ZM14.4909 12.5399C14.4909 12.4799 14.6109 12.5399 14.6109 12.5399C14.6709 12.5399 14.7309 12.5999 14.7309 12.6599C14.6709 12.7199 14.6109 12.6599 14.4909 12.6599C14.4309 12.6599 14.3709 12.6599 14.3109 12.6599L14.4909 12.5399Z"
        fill="white" />
    <path transform="translate(-0.331543)"
        d="M18.9311 15.7199L12.3911 12.0599V4.31995C14.3711 4.31995 16.2911 5.21995 17.6711 6.65995C19.0511 8.09995 19.8311 10.0199 19.8311 11.9999C19.8311 13.9799 19.4711 14.5799 18.8711 15.6599L18.9311 15.7199ZM12.5111 12.0599L18.9311 15.6599C19.5311 14.5799 19.8311 13.3199 19.8311 12.0599C19.8311 10.0799 19.0511 8.21995 17.6711 6.77995C16.2911 5.33995 14.4911 4.55995 12.5111 4.49995V12.0599Z"
        fill="white" />
    <path transform="translate(-0.331543)"
        d="M5.61087 15.7199C5.01087 14.5199 4.65088 13.2599 4.65088 11.9399C4.65088 9.95995 5.43087 8.03995 6.81087 6.59995C8.19087 5.15995 10.1109 4.37995 12.0909 4.31995V12.0599L5.55088 15.7199H5.61087ZM12.0909 4.37995C10.1109 4.37995 8.31088 5.21995 6.87088 6.65995C5.49088 8.09995 4.71087 9.95995 4.71087 11.9399C4.71087 13.9199 5.01087 14.4599 5.61087 15.5999L12.0309 11.9999V4.43995L12.0909 4.37995Z"
        fill="white" />
    <path transform="translate(-0.331543)"
        d="M12.271 19.62C10.951 19.62 9.63102 19.26 8.49102 18.6C7.35102 17.94 6.45102 17.04 5.79102 15.96V15.9L12.271 12.24L18.751 15.9C18.091 17.04 17.131 17.94 15.991 18.6C14.851 19.26 13.531 19.62 12.211 19.62H12.271ZM5.85102 16.02C6.51102 17.1 7.41102 17.94 8.55102 18.6C9.69102 19.26 10.951 19.56 12.271 19.56C13.591 19.56 14.851 19.2 15.991 18.54C17.071 17.94 17.971 17.04 18.691 15.96L12.271 12.36L5.85102 15.96V16.02Z"
        fill="white" />
    <path transform="translate(-0.331543)"
        d="M12.271 20.0401C10.111 20.0401 8.07096 19.2001 6.57096 17.7001C5.07096 16.2001 4.23096 14.1601 4.23096 12.0001C4.23096 9.84008 5.07096 7.80008 6.57096 6.30008C8.07096 4.80008 10.111 3.96008 12.271 3.96008C14.431 3.96008 16.471 4.80008 17.971 6.30008C19.471 7.80008 20.311 9.84008 20.311 12.0001C20.311 14.1601 19.471 16.2001 17.971 17.7001C16.471 19.2001 14.431 20.0401 12.271 20.0401ZM12.271 4.02008C10.171 4.02008 8.13096 4.86008 6.63096 6.36008C5.13096 7.86008 4.29096 9.84008 4.29096 12.0001C4.29096 14.1601 5.13096 16.1401 6.63096 17.6401C8.13096 19.1401 10.111 19.9801 12.271 19.9801C14.431 19.9801 16.411 19.1401 17.911 17.6401C19.411 16.1401 20.251 14.1601 20.251 12.0001C20.251 9.84008 19.411 7.86008 17.911 6.36008C16.411 4.86008 14.431 4.02008 12.271 4.02008Z"
        fill="white" />
</svg>