<svg viewBox="0 0 24 24" xmlns="http://www.w3.org/2000/svg"><path fill="#fff" d="M0 0h24v24H0z"/><path d="M13.2 9.24c.78.3 1.44.96 1.74 1.8.18.48.66.78 1.14.78h2.46c.66 0 1.26-.54 1.26-1.2 0-.66-.54-1.26-1.2-1.26h-1.98l2.82-2.82A1.231 1.231 0 0017.7 4.8l-2.88 2.82V5.64c0-.66-.48-1.2-1.14-1.2-.66 0-1.26.54-1.26 1.2V8.1c0 .54.36.96.84 1.14h-.06zM4.38 10.5c0 .66.54 1.26 1.26 1.26H8.1c.54 0 .96-.3 1.14-.84a3.1 3.1 0 011.74-1.74c.48-.18.78-.66.78-1.14V5.58c0-.66-.54-1.26-1.2-1.26-.66 0-1.26.54-1.26 1.2V7.5L6.42 4.68a1.231 1.231 0 00-1.74 1.74L7.56 9.3H5.58c-.66 0-1.2.42-1.26 1.08v.12h.06zM13.62 19.74c.66 0 1.2-.54 1.26-1.2v-1.92l2.82 2.82a1.231 1.231 0 001.74-1.74l-2.88-2.88h1.98c.66 0 1.2-.48 1.26-1.14v-.06c0-.66-.54-1.2-1.26-1.26h-2.46c-.54 0-.96.3-1.14.84a3.1 3.1 0 01-1.74 1.74c-.48.18-.78.66-.78 1.14v2.46c0 .66.6 1.2 1.26 1.2h-.06zM11.04 14.82a3.1 3.1 0 01-1.74-1.74 1.23 1.23 0 00-1.14-.78H5.7c-.66 0-1.2.6-1.2 1.26s.54 1.2 1.2 1.2h1.92L4.8 17.58a1.231 1.231 0 001.74 1.74l2.88-2.88v1.98c-.06.6.36 1.2 1.02 1.2h.18c.66 0 1.26-.54 1.26-1.2v-2.46c0-.54-.3-1.02-.78-1.14h-.06z" fill="#023186"/></svg>