<svg viewBox="0 0 24 24" xmlns="http://www.w3.org/2000/svg">
    <rect width="24" height="24" fill="white" />
    <path transform="translate(-0.808594,-0.952026)"
        d="M14.0081 10.1921C14.7881 10.4921 15.448 11.1521 15.748 11.9921C15.928 12.4721 16.408 12.7721 16.888 12.7721H19.348C20.008 12.7721 20.6081 12.2321 20.6081 11.5721C20.6081 10.9121 20.0681 10.3121 19.4081 10.3121H17.428L20.248 7.49209C20.728 7.01209 20.728 6.23209 20.248 5.75209C19.768 5.27209 18.9881 5.27209 18.5081 5.75209L15.628 8.57209V6.59209C15.628 5.93209 15.148 5.39209 14.488 5.39209C13.828 5.39209 13.228 5.93209 13.228 6.59209V9.05209C13.228 9.59209 13.588 10.0121 14.068 10.1921H14.0081Z"
        fill="#023186" />
    <path transform="translate(-0.808594,-0.952026)"
        d="M5.18893 11.452C5.18893 12.112 5.72891 12.712 6.44891 12.712H8.90894C9.44894 12.712 9.86891 12.412 10.0489 11.872C10.3489 11.092 11.0089 10.432 11.7889 10.132C12.2689 9.95197 12.5689 9.47197 12.5689 8.99197V6.53197C12.5689 5.87197 12.0289 5.27197 11.3689 5.27197C10.7089 5.27197 10.1089 5.81197 10.1089 6.47197V8.45197L7.22891 5.63197C6.74891 5.15197 5.96893 5.15197 5.48893 5.63197C5.00893 6.11197 5.00893 6.89197 5.48893 7.37197L8.36892 10.252H6.38893C5.72893 10.252 5.18891 10.672 5.12891 11.332V11.452H5.18893Z"
        fill="#023186" />
    <path transform="translate(-0.808594,-0.952026)"
        d="M14.428 20.692C15.088 20.692 15.628 20.152 15.688 19.492V17.572L18.5081 20.392C18.9881 20.872 19.768 20.872 20.248 20.392C20.728 19.912 20.728 19.132 20.248 18.652L17.368 15.772H19.348C20.008 15.772 20.5481 15.292 20.6081 14.632C20.6081 14.632 20.6081 14.632 20.6081 14.572C20.6081 13.912 20.068 13.372 19.348 13.312H16.888C16.348 13.312 15.928 13.612 15.748 14.152C15.448 14.932 14.7881 15.592 14.0081 15.892C13.5281 16.072 13.228 16.552 13.228 17.032V19.492C13.228 20.152 13.828 20.692 14.488 20.692H14.428Z"
        fill="#023186" />
    <path transform="translate(-0.808594,-0.952026)"
        d="M11.8485 15.7721C11.0685 15.4721 10.4085 14.8121 10.1085 14.0321C9.92854 13.5521 9.44852 13.2521 8.96852 13.2521H6.50854C5.84854 13.2521 5.30854 13.8521 5.30854 14.5121C5.30854 15.1721 5.84854 15.7121 6.50854 15.7121H8.42851L5.60854 18.5321C5.12854 19.0121 5.12854 19.7921 5.60854 20.2721C6.08854 20.7521 6.86851 20.7521 7.34851 20.2721L10.2285 17.3921V19.3721C10.1685 19.9721 10.5885 20.5721 11.2485 20.5721C11.2485 20.5721 11.3685 20.5721 11.4285 20.5721C12.0885 20.5721 12.6885 20.0321 12.6885 19.3721V16.9121C12.6885 16.3721 12.3885 15.8921 11.9085 15.7721H11.8485Z"
        fill="#023186" />
</svg>