<svg viewBox="0 0 40 40" xmlns="http://www.w3.org/2000/svg"><g clip-path="url(#prefix__cake_bank_clip0)"><path d="M33.165 12.013c.235-.02.47-.01.706-.013h4.303a1.796 1.796 0 011.73 1.238c.179.534.087 1.149-.241 1.605a1.803 1.803 0 01-1.45.759c-.735.004-1.47 0-2.204.002.4.122.756.387.984.739.285.431.366.988.22 1.484A1.806 1.806 0 0136 19.048h2.198a1.805 1.805 0 011.724 1.296c.13.443.082.937-.137 1.345-.287.56-.889.94-1.518.957H33.4a2.041 2.041 0 01-1.279-.42 2.073 2.073 0 01-.819-1.679v-6.09c.003-.243-.011-.489.03-.73a2.066 2.066 0 011.833-1.714zM4.776 12.031a5.339 5.339 0 013.01.577c.426.217.772.585.96 1.024.204.47.223 1.019.054 1.503a2.084 2.084 0 01-.867 1.082 2.086 2.086 0 01-1.867.158c-.124-.046-.233-.124-.36-.164a1.174 1.174 0 00-.914.06 1.176 1.176 0 00-.391 1.794c.279.352.77.521 1.205.405.17-.036.314-.14.475-.2a2.087 2.087 0 011.274-.08 2.066 2.066 0 011.558 2.004 2.05 2.05 0 01-.463 1.312 2.22 2.22 0 01-.821.616 5.325 5.325 0 01-7.282-2.896 5.258 5.258 0 01-.346-1.972 5.276 5.276 0 011.007-3.049 5.345 5.345 0 011.673-1.502 5.287 5.287 0 012.095-.672zM14.017 12.137a2.073 2.073 0 012.61 1.057l2.923 6.268c.083.179.175.355.226.547a2.078 2.078 0 01-.789 2.255c-.355.25-.788.392-1.223.382a2.063 2.063 0 01-1.663-.86c-.129-.175-.213-.375-.305-.57l-1.044-2.24c-.382.823-.766 1.643-1.149 2.465a2.06 2.06 0 01-.837.924c-.43.254-.954.34-1.444.245a2.06 2.06 0 01-1.068-.571 2.068 2.068 0 01-.411-2.336l2.908-6.24c.082-.167.15-.343.253-.5.237-.374.598-.67 1.013-.825zM21.401 12.616c.37-.376.89-.6 1.417-.61a2.077 2.077 0 011.61.68c.273.3.453.685.506 1.089.028.226.017.455.02.682v.686c.412-.71.822-1.424 1.234-2.136a2.07 2.07 0 013.582 2.08c-.427.74-.853 1.481-1.283 2.22.37.646.744 1.29 1.115 1.933.098.174.207.341.28.527a2.077 2.077 0 01-.615 2.383 2.06 2.06 0 01-1.345.46 2.068 2.068 0 01-1.732-.994l-1.237-2.142c-.001.384.004.768-.002 1.153a2.074 2.074 0 01-3.955.81 2.093 2.093 0 01-.187-.842v-6.42a2.495 2.495 0 01.034-.497c.072-.4.27-.776.558-1.062z" fill="#FF37A5"/><path d="M26.17 26.625v-2.14h.253v.92c.076-.12.167-.241.306-.29a.631.631 0 01.61.105c.15.13.22.331.238.525.02.242-.018.506-.179.698-.2.25-.629.275-.848.036-.05-.05-.086-.112-.126-.17-.003.105 0 .21-.001.316h-.253zm.59-1.312c-.173.036-.278.202-.314.364-.042.206-.02.438.112.608.132.166.397.186.565.067.142-.11.197-.296.2-.469a.662.662 0 00-.152-.47c-.105-.108-.27-.131-.411-.1zM38.855 24.497h.253v1.196c.192-.191.382-.385.575-.574.095.002.19 0 .285.001-.218.228-.44.452-.663.675l.695.83h-.293c-.2-.246-.397-.492-.599-.735-.002.245 0 .49 0 .735h-.253v-2.128zM29.859 24.633h.256c.204.581.402 1.165.606 1.747.208-.58.405-1.165.607-1.748h.256c-.23.664-.46 1.328-.688 1.992-.116.002-.23 0-.346 0-.231-.663-.462-1.327-.691-1.991zM31.86 26.625v-1.993h.717c.146 0 .296.038.412.13.26.195.3.589.156.865a.613.613 0 01-.493.303c-.183.014-.367.003-.55.007l-.001.688h-.241zm.24-1.77v.864c.24-.013.505.046.721-.085.148-.084.176-.276.157-.43a.341.341 0 00-.192-.285c-.213-.104-.457-.05-.685-.064zM33.565 24.632h.868a.5.5 0 01.435.255c.083.164.088.38-.03.53a.48.48 0 01-.245.161c.116.023.235.07.314.163.123.128.132.325.086.488a.537.537 0 01-.366.366.945.945 0 01-.262.03h-.8v-1.993zm.246.212v.658c.175-.002.349.003.523-.002.127-.012.272-.067.325-.194a.356.356 0 00-.025-.328c-.073-.097-.202-.132-.318-.134h-.505zm0 .858v.705h.554a.473.473 0 00.305-.097c.115-.097.126-.272.08-.406-.051-.136-.206-.19-.339-.2-.2-.004-.4-.001-.6-.002zM35.427 25.301c.166-.223.5-.282.743-.16.11.057.181.163.249.264.004-.095.002-.19.002-.285h.253v1.505h-.253c-.001-.106.004-.212-.004-.317-.083.134-.192.267-.348.312-.18.047-.39.027-.539-.093-.161-.124-.24-.327-.262-.524-.028-.241.008-.504.159-.702zm.43.008c-.174.032-.283.196-.32.358a.769.769 0 00.084.583c.13.21.46.236.633.067.122-.126.166-.309.162-.48a.637.637 0 00-.163-.43c-.101-.104-.26-.13-.397-.098zM37.64 25.122c.2-.076.452-.055.609.1.13.12.182.302.188.475v.928h-.252v-.905c0-.141-.064-.29-.192-.36-.17-.093-.413-.07-.54.085a.478.478 0 00-.103.322v.858h-.253V25.12h.253c0 .093-.002.186.001.279.072-.115.159-.227.29-.277zM27.72 25.12h.265c.141.387.279.775.422 1.16.156-.383.294-.774.445-1.16h.263l-.632 1.542c-.068.146-.106.315-.226.429-.127.123-.32.127-.482.09l-.001-.187c.113.014.252.022.33-.079.078-.112.118-.244.172-.368l-.555-1.428z" fill="#BCBEC0"/></g><defs><clipPath id="prefix__cake_bank_clip0"><path fill="#fff" d="M0 0h40v40H0z"/></clipPath></defs></svg>