<svg viewBox="0 0 200 200" xmlns="http://www.w3.org/2000/svg"><path fill-rule="evenodd" clip-rule="evenodd" d="M16.048 70.017c3.146 0 5.604.675 7.454 2.027 1.82 1.385 2.715 3.574 2.715 6.492v.487H17.69v-.159c0-1.547-1.147-2.302-3.352-2.302-1.744 0-2.755.528-2.964 1.52l-.037.345c0 .483.216.898.649 1.264.46.366 1.244.69 2.352 1.03l2.89.785c2.498.62 4.458 1.518 5.852 2.636 1.39 1.14 2.065 2.619 2.065 4.431l-.103 1.664c-.64 3.428-2.328 5.909-5.03 7.414-2.679 1.574-5.822 2.332-9.352 2.332-3.388 0-6.061-.883-8.02-2.66C.88 95.801 0 93.887 0 91.502c0-.552.039-.884.103-1.074h8.6c0 1.005.397 1.782 1.18 2.296.749.483 1.599.744 2.564.744 2.209 0 3.497-.669 3.817-1.967v-.483c0-.551-.32-.996-.93-1.415-.854-.352-2.13-.809-3.885-1.318-2.817-.71-5.03-1.6-6.604-2.676-1.563-1.069-2.352-2.7-2.352-4.889l.148-1.158.061-.922a9.29 9.29 0 012.143-4.397c1.14-1.268 2.686-2.303 4.648-3.122.996-.362 1.989-.667 3.033-.852.533-.069 1.066-.11 1.665-.185.573-.038 1.18-.068 1.857-.068zM78.256 83.07c2.147 0 3.96.468 5.536 1.472 1.57.982 2.358 2.515 2.358 4.658l-.14 1.537c-.29 1.842-1.008 3.378-2.073 4.654a9.198 9.198 0 01-1.754 1.57c-.574.366-1.25.71-2.077 1.072-.356.136-.715.26-1.066.37-.354.102-.855.234-1.47.34-.211.061-.458.098-.745.14-.391.033-.864.06-1.363.06-2.278 0-4.188-.54-5.684-1.577-1.504-1.031-2.248-2.571-2.248-4.587l.11-.906.07-.763c.53-2.706 1.784-4.73 3.75-6.065 1.576-1.069 3.359-1.703 5.365-1.906.464-.069.96-.069 1.43-.069zm-39.998 0c2.503 0 4.255.303 5.254.944 1.008.627 1.503 1.597 1.503 2.906 0 .502-.078 1.107-.182 1.842l-1.394 7.308-.17.99c.065.392.28.77.673 1.147l-.074.264h-6.537v-1.638c-.68.494-1.36.89-2.078 1.234-1.279.57-2.68.877-4.174.877h-.324c-1.355 0-2.536-.405-3.645-1.145-.79-.536-1.184-1.34-1.184-2.408v-.63c.067-.215.111-.378.111-.446.282-1.302.9-2.295 1.788-3.009.744-.57 1.688-1.003 2.782-1.312l1.612-.295 2.363-.329c.25-.034.46-.071.671-.101 1.29-.182 2.111-.34 2.435-.472.683-.269 1-.642 1-1.106 0-.695-.614-1.072-1.857-1.072-.648 0-1.142.136-1.578.377-.42.223-.745.59-.924 1.103h-6.143c.538-2.843 2.893-4.493 7.067-4.922a26.255 26.255 0 012.538-.107h.467zm90.315-9.21l-2.039 11.162a8.594 8.594 0 011.4-1.008c.313-.208.641-.374.961-.532.756-.284 1.646-.412 2.684-.412 1.526 0 2.852.503 3.927 1.57 1.103 1.046 1.642 2.515 1.642 4.39 0 2.617-.83 4.927-2.463 6.897-1.646 2.008-3.784 3.016-6.438 3.016h-.313c-2.114-.102-3.475-.955-4.118-2.586l-.468 2.114h-5.711l4.528-24.611h6.408zm21.805 9.21c2.459 0 4.211.303 5.211.944 1.036.627 1.538 1.597 1.538 2.906 0 .502-.079 1.107-.178 1.842l-1.398 7.308-.179.99c.072.392.284.77.68 1.147l-.074.264h-6.566v-1.638c-.637.494-1.328.89-2.044 1.234-1.32.57-2.717.877-4.222.877h-.286a6.27 6.27 0 01-3.637-1.145c-.781-.536-1.184-1.34-1.184-2.408v-.63c.044-.215.105-.378.105-.446.298-1.302.9-2.295 1.799-3.009.747-.57 1.677-1.003 2.744-1.312l1.644-.295 2.326-.329c.259-.034.503-.071.711-.101 1.293-.182 2.083-.34 2.433-.472.644-.269 1.004-.642 1.004-1.106 0-.695-.642-1.072-1.857-1.072-.641 0-1.184.136-1.58.377-.427.223-.747.59-.93 1.103h-6.15c.505-2.843 2.858-4.493 7.08-4.922a25.55 25.55 0 012.503-.107h.507zm-92.426 0c2.471 0 4.391.502 5.825 1.57 1.15.944 1.72 2.182 1.72 3.711l-.036.85h-6.429l.027-.378c0-.472-.141-.899-.461-1.238-.322-.366-.787-.574-1.435-.574-1.253 0-2.177.506-2.717 1.552-.466.97-.819 2.237-1.036 3.888 0 1.634.794 2.446 2.324 2.446 1.294 0 2.218-.745 2.822-2.224h6.329c-.568 2.046-1.784 3.594-3.57 4.613-1.787 1.05-3.929 1.596-6.4 1.596-2.576 0-4.542-.589-5.903-1.755-1.316-1.2-1.997-2.642-1.997-4.416l.147-.8.073-.699c.43-2.283 1.535-4.216 3.317-5.798 1.823-1.577 4.288-2.344 7.4-2.344zm42.92 0c2.545 0 4.071.906 4.648 2.744 1.754-1.838 3.792-2.744 6.111-2.744 1.645 0 2.931.302 3.75.974.861.676 1.292 1.77 1.292 3.307 0 .603-.042 1.344-.179 2.152l-1.681 8.969h-6.363l1.431-7.672c.108-.596.175-1.101.175-1.464 0-.574-.135-.985-.385-1.207-.289-.261-.714-.363-1.358-.363-.616 0-1.144.158-1.658.494-.488.37-.89 1.204-1.135 2.54l-1.429 7.672h-6.36l1.467-7.8.11-1.302c0-1.076-.542-1.604-1.65-1.604-.677 0-1.29.223-1.79.706-.427.427-.784 1.208-1.067 2.328l-1.429 7.671h-6.33L89.83 83.44h5.824l-.389 2.247c.603-.707 1.468-1.307 2.508-1.85 1.07-.521 2.07-.767 2.957-.767h.142zm89.293-9.187l-2.534 13.54 4.946-4.556H200l-6.985 5.786 4.862 9.818h-7.609l-2.37-5.926-1.384 1.154-.926 4.772h-6.357l4.571-24.588h6.363zm-17.602 9.187c1.606 0 2.863.333 3.789 1.042.928.702 1.395 1.865 1.395 3.51 0 .574-.034 1.174-.18 1.817l-1.714 9.032h-6.32l1.486-7.972.048-.46v-.506c0-1.208-.608-1.767-1.788-1.767-.851 0-1.506.188-1.927.585-.471.412-.824 1.215-1.118 2.45l-1.422 7.67h-6.395l2.825-15.031h5.821l-.466 2.4c1.787-1.864 3.795-2.77 5.966-2.77zm-22.549 8.765c-.499.212-1.239.407-2.25.616-.139 0-.28.026-.396.026a5.099 5.099 0 00-.892.234l-.928.374c-.426.192-.718.6-.823 1.204v.128c0 .77.573 1.144 1.713 1.144.318 0 .61-.034.93-.128.146-.042.328-.102.471-.178.468-.234.822-.494 1.109-.838.535-.63.891-1.506 1.066-2.582zm-112.115 0c-.498.212-1.248.407-2.21.616l-.436.026c-.349.068-.636.136-.857.234l-.959.374c-.438.192-.683.6-.825 1.204v.128c0 .77.57 1.144 1.717 1.144.32 0 .64-.034.924-.128.188-.042.335-.102.5-.178.43-.234.79-.494 1.078-.838.533-.63.89-1.506 1.068-2.582zm39.823-4.824c-.328 0-.61.046-.897.11-.79.2-1.398.667-1.82 1.441-.473 1.042-.823 2.315-1.043 3.82 0 1.665.716 2.514 2.145 2.514.255 0 .502 0 .718-.079.857-.158 1.54-.664 1.998-1.54a7.293 7.293 0 00.892-3.533c0-1.82-.675-2.733-1.993-2.733zm50.924.611c-.246 0-.5.038-.712.069-.756.124-1.33.505-1.683 1.106-.467.807-.827 1.875-1.115 3.25 0 1.706.72 2.566 2.144 2.566.222 0 .433-.03.654-.068.744-.162 1.356-.622 1.85-1.37a5.42 5.42 0 00.934-3.042c0-1.66-.68-2.51-2.072-2.51z" fill="#0058A0"/></svg>