<svg viewBox="0 0 40 40" xmlns="http://www.w3.org/2000/svg"><path d="M20 40c11.046 0 20-8.954 20-20S31.046 0 20 0 0 8.954 0 20s8.954 20 20 20z" fill="#E03"/><path d="M17.82 7.467h-2.702a2.584 2.584 0 00-2.585 2.584V29.95a2.584 2.584 0 002.585 2.584h2.702c.357 0 .644-.29.644-.644v-1.928a.645.645 0 00-.644-.644h-4.195V10.69h4.195c.357 0 .644-.29.644-.644V8.12a.645.645 0 00-.644-.645v-.007zM24.882 7.467H22.18a.645.645 0 00-.644.644v1.928c0 .358.29.644.644.644h4.195v18.622H22.18a.644.644 0 00-.644.644v1.928c0 .358.29.645.644.645h2.702a2.584 2.584 0 002.585-2.585V10.051a2.584 2.584 0 00-2.585-2.584z" fill="#fff"/></svg>