<svg viewBox="0 0 16 16" xmlns="http://www.w3.org/2000/svg"><path d="M11.12.26H4.94C2.36.26.32 2.36.26 4.94v6.18c0 2.58 2.1 4.62 4.68 4.68h6.18c2.58 0 4.62-2.1 4.68-4.68V4.94c0-2.58-2.1-4.62-4.68-4.68zm-5.7 1.08h5.16v3.42c-.48.3-.96.66-1.32 1.08V2.66H6.74v3.18c-.42-.42-.84-.78-1.32-1.08V1.34zm.78 11.04v2.34h-.6v-1.14c0-.3-.12-.54-.42-.54H2v-.54h3.48c.06 0 .12 0 .12-.12 0-.06 0-.12-.12-.12H2v-.54h3.72c.6 0 .54.24.54.72l-.06-.06zm.84-1.56v3.84h-.6v-2.7c0-.3-.12-.54-.42-.54H1.94v-.54h4.38c.06 0 .12 0 .12-.12 0 0 0-.12-.12-.12H1.94v-.54H6.5c.6 0 .54.24.54.72zm.84 3.84h-.6V10.4c0-.3-.12-.54-.42-.54H1.94v-.54h5.22c.06 0 .12 0 .12-.12 0 0 0-.12-.12-.12H1.94v-.54h5.34c.36.12.6.48.6.84v5.28zm6.18-2.52h-3.54c-.06 0-.12 0-.12.12s0 .12.12.12h3.54v.54H11c-.24 0-.54.18-.54.42V14.6h-.6v-2.34c0-.48-.06-.72.54-.72h3.72v.54l-.06.06zm0-1.56H9.68c-.06 0-.12 0-.12.12 0 0 0 .12.12.12h4.38v.54H10.1c-.24 0-.54.18-.54.42V14.6h-.6v-3.84c0-.48-.06-.72.54-.72h4.56v.54zm0-1.56H8.84c-.06 0-.12 0-.12.12 0 0 0 .12.12.12h5.22v.54h-4.8c-.3 0-.54.18-.54.42v4.38h-.6V9.32c0-.36.24-.72.6-.84h5.34v.54zm0-.78h-1.38V5.48c-.9.24-1.74.72-2.4 1.44h2.04V8.3H1.94V5.66h1.38v1.32h2.4C4.76 5.96 3.38 5.42 2 5.36v-2.4h3.3v1.38H4.22c1.86.66 3.3 2.1 3.84 3.96.6-1.86 2.04-3.3 3.9-3.96h-1.14V2.96h1.92V2.6h1.38v5.7l-.06-.06z" fill="#fff"/></svg>