<svg viewBox="0 0 16 16" xmlns="http://www.w3.org/2000/svg">
    <path
        d="M11.1198 0.26001H4.93976C2.35977 0.26001 0.319766 2.36001 0.259766 4.94001V11.12C0.259766 13.7 2.35977 15.74 4.93976 15.8H11.1198C13.6998 15.8 15.7398 13.7 15.7998 11.12V4.94001C15.7998 2.36001 13.6998 0.32001 11.1198 0.26001ZM5.41977 1.34001H10.5798V4.76001C10.0998 5.06001 9.61977 5.42001 9.25976 5.84001V2.66001H6.73976V5.84001C6.31976 5.42001 5.89977 5.06001 5.41977 4.76001V1.34001ZM6.19977 12.38V14.72H5.59977V13.58C5.59977 13.28 5.47977 13.04 5.17977 13.04C5.17977 13.04 5.11977 13.04 5.05977 13.04H1.99977V12.5H5.47977C5.53977 12.5 5.59977 12.5 5.59977 12.38C5.59977 12.32 5.59977 12.26 5.47977 12.26H1.99977V11.72H5.71977C6.31977 11.72 6.25977 11.96 6.25977 12.44L6.19977 12.38ZM7.03976 10.82V14.66H6.43976V11.96C6.43976 11.66 6.31977 11.42 6.01977 11.42C6.01977 11.42 5.95976 11.42 5.89977 11.42H1.93977V10.88H6.31977C6.37977 10.88 6.43976 10.88 6.43976 10.76C6.43976 10.76 6.43977 10.64 6.31977 10.64H1.93977V10.1H6.49976C7.09976 10.1 7.03976 10.34 7.03976 10.82ZM7.87976 14.66H7.27976V10.4C7.27976 10.1 7.15977 9.86001 6.85977 9.86001C6.85977 9.86001 6.79976 9.86001 6.73976 9.86001H1.93977V9.32001H7.15977C7.21977 9.32001 7.27976 9.32001 7.27976 9.20001C7.27976 9.20001 7.27977 9.08001 7.15977 9.08001H1.93977V8.54001H7.27976C7.63976 8.66001 7.87976 9.02001 7.87976 9.38001V14.66ZM14.0598 12.14H10.5198C10.4598 12.14 10.3998 12.14 10.3998 12.26C10.3998 12.38 10.3998 12.38 10.5198 12.38H14.0598V12.92H10.9998C10.7598 12.92 10.4598 13.1 10.4598 13.34V13.46V14.6H9.85977V12.26C9.85977 11.78 9.79976 11.54 10.3998 11.54H14.1198V12.08L14.0598 12.14ZM14.0598 10.58H9.67976C9.61976 10.58 9.55976 10.58 9.55976 10.7C9.55976 10.7 9.55976 10.82 9.67976 10.82H14.0598V11.36H10.0998C9.85977 11.36 9.55976 11.54 9.55976 11.78V11.9V14.6H8.95977V10.76C8.95977 10.28 8.89977 10.04 9.49976 10.04H14.0598V10.58ZM14.0598 9.02001H8.83976C8.77977 9.02001 8.71977 9.02001 8.71977 9.14001C8.71977 9.14001 8.71976 9.26001 8.83976 9.26001H14.0598V9.80001H9.25976C8.95977 9.80001 8.71977 9.98001 8.71977 10.22C8.71977 10.22 8.71977 10.28 8.71977 10.34V14.6H8.11977V9.32001C8.11977 8.96001 8.35977 8.60001 8.71977 8.48001H14.0598V9.02001ZM14.0598 8.24001H12.6798V5.48001C11.7798 5.72001 10.9398 6.20001 10.2798 6.92001H12.3198V8.30001H1.93977V5.66001H3.31977V6.98001H5.71977C4.75977 5.96001 3.37977 5.42001 1.99977 5.36001V2.96001H5.29977V4.34001H4.21977C6.07977 5.00001 7.51977 6.44001 8.05977 8.30001C8.65977 6.44001 10.0998 5.00001 11.9598 4.34001H10.8198V2.96001H12.7398V2.60001H14.1198V8.30001L14.0598 8.24001Z"
        fill="white" />
</svg>