<svg viewBox="0 0 24 24" xmlns="http://www.w3.org/2000/svg">
    <rect width="24" height="24" fill="#4E9A29" />
    <path
        d="M15.1198 4.26001H8.93976C6.35977 4.26001 4.31977 6.36001 4.25977 8.94001V15.12C4.25977 17.7 6.35977 19.74 8.93976 19.8H15.1198C17.6998 19.8 19.7398 17.7 19.7998 15.12V8.94001C19.7998 6.36001 17.6998 4.32001 15.1198 4.26001ZM9.41977 5.34001H14.5798V8.76001C14.0998 9.06001 13.6198 9.42001 13.2598 9.84001V6.66001H10.7398V9.84001C10.3198 9.42001 9.89977 9.06001 9.41977 8.76001V5.34001ZM10.1998 16.38V18.72H9.59977V17.58C9.59977 17.28 9.47977 17.04 9.17977 17.04C9.17977 17.04 9.11977 17.04 9.05977 17.04H5.99977V16.5H9.47977C9.53977 16.5 9.59977 16.5 9.59977 16.38C9.59977 16.32 9.59977 16.26 9.47977 16.26H5.99977V15.72H9.71977C10.3198 15.72 10.2598 15.96 10.2598 16.44L10.1998 16.38ZM11.0398 14.82V18.66H10.4398V15.96C10.4398 15.66 10.3198 15.42 10.0198 15.42C10.0198 15.42 9.95976 15.42 9.89977 15.42H5.93977V14.88H10.3198C10.3798 14.88 10.4398 14.88 10.4398 14.76C10.4398 14.76 10.4398 14.64 10.3198 14.64H5.93977V14.1H10.4998C11.0998 14.1 11.0398 14.34 11.0398 14.82ZM11.8798 18.66H11.2798V14.4C11.2798 14.1 11.1598 13.86 10.8598 13.86C10.8598 13.86 10.7998 13.86 10.7398 13.86H5.93977V13.32H11.1598C11.2198 13.32 11.2798 13.32 11.2798 13.2C11.2798 13.2 11.2798 13.08 11.1598 13.08H5.93977V12.54H11.2798C11.6398 12.66 11.8798 13.02 11.8798 13.38V18.66ZM18.0598 16.14H14.5198C14.4598 16.14 14.3998 16.14 14.3998 16.26C14.3998 16.38 14.3998 16.38 14.5198 16.38H18.0598V16.92H14.9998C14.7598 16.92 14.4598 17.1 14.4598 17.34V17.46V18.6H13.8598V16.26C13.8598 15.78 13.7998 15.54 14.3998 15.54H18.1198V16.08L18.0598 16.14ZM18.0598 14.58H13.6798C13.6198 14.58 13.5598 14.58 13.5598 14.7C13.5598 14.7 13.5598 14.82 13.6798 14.82H18.0598V15.36H14.0998C13.8598 15.36 13.5598 15.54 13.5598 15.78V15.9V18.6H12.9598V14.76C12.9598 14.28 12.8998 14.04 13.4998 14.04H18.0598V14.58ZM18.0598 13.02H12.8398C12.7798 13.02 12.7198 13.02 12.7198 13.14C12.7198 13.14 12.7198 13.26 12.8398 13.26H18.0598V13.8H13.2598C12.9598 13.8 12.7198 13.98 12.7198 14.22C12.7198 14.22 12.7198 14.28 12.7198 14.34V18.6H12.1198V13.32C12.1198 12.96 12.3598 12.6 12.7198 12.48H18.0598V13.02ZM18.0598 12.24H16.6798V9.48001C15.7798 9.72001 14.9398 10.2 14.2798 10.92H16.3198V12.3H5.93977V9.66001H7.31977V10.98H9.71977C8.75977 9.96001 7.37977 9.42001 5.99977 9.36001V6.96001H9.29977V8.34001H8.21977C10.0798 9.00001 11.5198 10.44 12.0598 12.3C12.6598 10.44 14.0998 9.00001 15.9598 8.34001H14.8198V6.96001H16.7398V6.60001H18.1198V12.3L18.0598 12.24Z"
        fill="white" />
</svg>