<svg viewBox="0 0 40 40" xmlns="http://www.w3.org/2000/svg"><path d="M23.233.073c.733-.184 1.553-.02 2.132.473.975.772 1.144 2.342.347 3.3-1.534 1.786-3.072 3.567-4.607 5.351-.4.472-1.056.71-1.666.6a1.792 1.792 0 01-1.377-1.112 1.812 1.812 0 01.159-1.638c1.172-1.93 2.345-3.86 3.515-5.793a2.408 2.408 0 011.497-1.18zM24.617 7.495c.59-.203 1.293-.052 1.72.412.262.268.412.632.44 1.004.247 2.588.498 5.176.743 7.764.082.724-.165 1.485-.7 1.99-.756.771-2.062.889-2.957.292-.723-.465-1.16-1.34-1.071-2.198.253-2.644.504-5.288.761-7.932a1.611 1.611 0 011.064-1.332zM2.749 7.587c.962-.265 2.072.128 2.61.978 1.214 1.996 2.423 3.995 3.637 5.99.241.386.343.862.25 1.31a1.783 1.783 0 01-1.168 1.362c-.679.247-1.497.038-1.962-.517-1.523-1.77-3.05-3.537-4.572-5.308-.705-.819-.727-2.126-.055-2.971a2.368 2.368 0 011.26-.844zM9.603 9.14c.292-.096.609-.096.907-.03 2.582.578 5.167 1.142 7.747 1.725 1.156.27 1.96 1.507 1.745 2.673-.147 1.1-1.162 1.99-2.27 2.007a2.418 2.418 0 01-1.07-.216c-2.405-1.046-4.81-2.09-7.214-3.134-.596-.25-.987-.89-.96-1.533a1.628 1.628 0 011.115-1.493zM30.084 15.656c.618-.229 1.254.03 1.862.158 1.958.462 3.915.922 5.874 1.382a2.375 2.375 0 011.79 2.909 2.368 2.368 0 01-1.23 1.54 2.405 2.405 0 01-1.997.07c-2.151-.907-4.307-1.806-6.458-2.712a1.781 1.781 0 01-1.055-1.672 1.792 1.792 0 011.214-1.675zM11.138 16.778c1.072-.28 2.277.306 2.723 1.32.38.817.246 1.847-.346 2.53L8.5 26.303c-.19.214-.371.447-.622.593-.617.384-1.498.288-2-.246-.502-.488-.614-1.314-.268-1.922 1.342-2.278 2.684-4.556 4.03-6.832a2.36 2.36 0 011.498-1.118zM30.974 21.258c.626-.165 1.346.073 1.72.608.407.54.416 1.335.031 1.888a1.64 1.64 0 01-.729.582 4608.91 4608.91 0 00-7.152 3.106 2.429 2.429 0 01-2.135-.065 2.377 2.377 0 01-1.245-2.125c-.01-1.06.787-2.056 1.82-2.284 2.564-.572 5.128-1.135 7.69-1.71zM14.827 24.321c.983-.308 2.144.096 2.688.98 1.358 2.288 2.704 4.584 4.058 6.875.28.464.308 1.068.07 1.555a1.604 1.604 0 01-1.379.903 1.62 1.62 0 01-1.278-.519c-1.58-1.792-3.165-3.578-4.745-5.37-.418-.469-.902-.936-1.03-1.577-.322-1.182.434-2.523 1.616-2.847zM10.432 27.754c.897-.226 1.894.359 2.128 1.253.258.83-.186 1.805-.989 2.144-2.168.91-4.337 1.821-6.507 2.726-.984.408-2.214.05-2.815-.831a2.408 2.408 0 01-.226-2.367 2.369 2.369 0 011.6-1.323c2.27-.533 4.54-1.07 6.81-1.602zM24.712 28.898c.563-.15 1.194 0 1.633.384.37.318.591.794.615 1.28.17 2.065.341 4.128.513 6.192.033.382.077.766.046 1.15a2.352 2.352 0 01-1.05 1.708 2.407 2.407 0 01-2.296.177c-.874-.384-1.455-1.336-1.386-2.29.17-2.099.35-4.196.52-6.294.053-.46.021-.949.24-1.372a1.783 1.783 0 011.165-.935z" fill="#EB2D4B"/></svg>