<svg viewBox="0 0 40 40" xmlns="http://www.w3.org/2000/svg"><path d="M5.73 4.318c.677-.527 1.388-1.066 2.229-1.294.25-.067.703-.005.705.328.097 1.403-.062 2.82.128 4.217.233 2.163.71 4.44 2.167 6.134.557.684 1.361 1.074 2.093 1.539a78.378 78.378 0 01-7.775.84c-1.215.013-2.47.119-3.64-.265A2.18 2.18 0 01.06 14.066c-.266-1.564.395-3.087 1.118-4.436A19.92 19.92 0 015.73 4.318z" fill="url(#prefix__hd_bank_paint0_linear)"/><path d="M39.025 11.863c.307-.152.647-.122.975-.062a3.078 3.078 0 01-.34 1.407c-2.255 4.726-4.833 9.324-8.034 13.48-2.016 2.599-4.29 5.042-7.023 6.9-2.152 1.455-4.69 2.529-7.329 2.451-1.308-.03-2.447-.799-3.404-1.62-1.87-1.68-3.216-3.858-4.3-6.105a28.078 28.078 0 01-2.634-9.618c7.682-.298 15.286-1.7 22.694-3.711 3.175-.897 6.343-1.856 9.395-3.122z" fill="url(#prefix__hd_bank_paint1_linear)"/><defs><linearGradient id="prefix__hd_bank_paint0_linear" x1="0" y1="9.553" x2="13.052" y2="9.553" gradientUnits="userSpaceOnUse"><stop stop-color="#F9A51A"/><stop offset=".5" stop-color="#FFDC00"/><stop offset="1" stop-color="#FFDC00"/></linearGradient><linearGradient id="prefix__hd_bank_paint1_linear" x1="6.936" y1="23.897" x2="40" y2="23.897" gradientUnits="userSpaceOnUse"><stop stop-color="#F9A51A"/><stop offset=".5" stop-color="#FFDC00"/><stop offset="1" stop-color="#FFDC00"/></linearGradient></defs></svg>