<svg viewBox="0 0 24 24" xmlns="http://www.w3.org/2000/svg"><path fill="#4E317D" d="M0 0h24v24H0z"/><path d="M4.135 18.175L7.975 20h3.165c.135 0 .202 0 .202-.203v-2.635-.136s-.135 0-.202.068a5.115 5.115 0 01-2.829.608c-.404 0-.74-.203-1.01-.473-.472-.473-.741-1.149-.674-1.825 0-.54 0-1.149.135-1.69 0-.675.27-1.283.539-1.891.74-1.622 1.818-3.042 3.098-4.258.472-.406.943-.743 1.414-1.081.135-.068.27-.068.337 0 .404.27.741.54 1.145.81.876.812 1.684 1.69 2.358 2.704.74.946 1.212 2.095 1.481 3.244.202.878.27 1.757.135 2.703-.067 1.014-1.01 1.825-2.02 1.757-.54 0-1.078-.067-1.55-.27-.336-.135-.74-.27-1.077-.406v2.704c0 .202 0 .202.269.202h2.829c.135 0 .27 0 .337-.067a91.95 91.95 0 013.704-1.757c.27-.136.27-.136.202-.406-.673-2.77-1.414-5.474-2.088-8.245a.513.513 0 00-.135-.27c-.269-.27-.606-.54-.875-.811-.539-.473-1.078-1.014-1.684-1.487l-2.223-2.027c-.269-.27-.606-.541-.875-.811 0-.068-.135-.068-.202 0-.135.135-.27.27-.404.338-.606.54-1.145 1.08-1.751 1.554-.607.54-1.213 1.149-1.82 1.69L6.56 8.849c-.202.135-.337.338-.472.608-.673 2.704-1.347 5.474-2.088 8.245 0 .27 0 .406.203.473h-.068z" fill="#FDC34A"/></svg>