<svg viewBox="0 0 24 24" fill="none" xmlns="http://www.w3.org/2000/svg"><path fill="#0081C5" d="M0 0h24v24H0z"/><path d="M8.64 15.12c-.72.9-1.98 1.02-2.88.36-.9-.72-1.02-1.98-.36-2.88.36-.48.96-.78 1.62-.78.6 0 1.14.24 1.56.72l.78-.96c-1.26-1.26-3.36-1.26-4.62 0-1.26 1.26-1.26 3.36 0 4.62 1.26 1.26 3.36 1.26 4.62 0l-.72-1.02v-.06zM11.34 10.74H9.96v6.36h1.38v-6.36zM18.9 10.8h-1.38v6.36h1.38V10.8zM15.12 17.16c-.84 0-1.5-.66-1.5-1.5v-3.72h-1.2V10.8h1.2V9.6l1.2-.72v1.98h1.26V12h-1.26V15.48c0 .36.24.6.48.72.12 0 .24.06.3.06.24 0 .48-.12.66-.3l.12-.12s0 1.38-1.2 1.38l-.06-.06z" fill="#fff"/><path d="M14.64 6.84a6.81 6.81 0 00-5.64 3h1.92c.96-.96 2.28-1.5 3.66-1.5 1.38 0 2.7.54 3.66 1.5h1.98c-1.26-1.86-3.36-3-5.58-3z" fill="#F0182A"/></svg>