<svg viewBox="0 0 16 16" xmlns="http://www.w3.org/2000/svg"><path d="M4.72 11.066c-.701.877-1.929.993-2.806.35-.876-.7-.993-1.928-.35-2.805.35-.468.935-.76 1.578-.76.584 0 1.11.234 1.52.702l.76-.936C4.193 6.39 2.147 6.39.92 7.617c-1.228 1.228-1.228 3.273 0 4.501 1.227 1.227 3.273 1.227 4.5 0l-.701-.994v-.058zM7.35 6.8H6.006v6.195H7.35V6.799zM14.715 6.857H13.37v6.196h1.345V6.857zM11.032 13.053a1.447 1.447 0 01-1.461-1.46V7.967H8.4v-1.11h1.17v-1.17l1.169-.7v1.928h1.227v1.11H10.74v3.391c0 .35.233.584.467.701.117 0 .234.059.292.059.234 0 .468-.117.643-.293l.117-.117s0 1.345-1.169 1.345l-.058-.059z" fill="#fff"/><path d="M10.564 3A6.635 6.635 0 005.07 5.922h1.87a5.041 5.041 0 013.566-1.46 5.04 5.04 0 013.565 1.46h1.93C14.772 4.111 12.726 3 10.563 3z" fill="#F0182A"/></svg>