<svg viewBox="0 0 16 16" xmlns="http://www.w3.org/2000/svg">
    <path
        d="M4.71997 11.0659C4.01858 11.9426 2.79114 12.0595 1.9144 11.4166C1.03766 10.7152 0.920761 9.48773 1.5637 8.61099C1.9144 8.1434 2.49889 7.85115 3.14184 7.85115C3.72633 7.85115 4.25238 8.08495 4.66152 8.55255L5.42136 7.61736C4.19393 6.38992 2.1482 6.38992 0.920761 7.61736C-0.306676 8.84479 -0.306676 10.8905 0.920761 12.118C2.1482 13.3454 4.19393 13.3454 5.42136 12.118L4.71997 11.1243V11.0659Z"
        fill="white" />
    <path d="M7.35007 6.79907H6.00574V12.9947H7.35007V6.79907Z" fill="white" />
    <path d="M14.7147 6.85742H13.3704V13.0531H14.7147V6.85742Z" fill="white" />
    <path
        d="M11.0318 13.0533C10.2135 13.0533 9.5706 12.4104 9.5706 11.5921C9.5706 11.5921 9.5706 11.5336 9.5706 11.4752V7.96822H8.40161V6.85768H9.5706V5.6887L10.7396 4.9873V5.92249V6.91613H11.967V8.02667H10.7396V11.1829V11.2998V11.4167C10.7396 11.7674 10.9734 12.0012 11.2072 12.1181C11.3241 12.1181 11.441 12.1766 11.4994 12.1766C11.7332 12.1766 11.967 12.0597 12.1424 11.8843C12.1424 11.8843 12.2008 11.8259 12.2593 11.7674C12.2593 11.7674 12.2593 13.1118 11.0903 13.1118L11.0318 13.0533Z"
        fill="white" />
    <path
        d="M10.5644 3C8.34329 3 6.29757 4.11054 5.07013 5.92247H6.94051C7.8757 4.98728 9.16159 4.46123 10.5059 4.46123C11.8503 4.46123 13.1361 4.98728 14.0713 5.92247H16.0002C14.7727 4.11054 12.727 3 10.5644 3Z"
        fill="#F0182A" />
</svg>